<svg id="Layer_1" data-name="Layer 1" width="240" height="240" xmlns="http://www.w3.org/2000/svg" viewBox="0 0 240 240"><defs><style>.cls-1{fill:#fff;}.cls-2{fill:#15462e;}.cls-3{fill:#482683;}.cls-4{fill:#f39200;}.cls-5{fill:#c7b18e;}</style></defs><path class="cls-1" d="M192.24,64.3a8.4,8.4,0,0,0-.23-1l-.06-.13a8,8,0,0,0-1.4-2.65l-.18-.22,0,0a2.3,2.3,0,0,0-.2-.22l0,0c-2.88-3-10.49-4.6-17.28,0L151.62,43.75a1.68,1.68,0,0,0-1.87-.12l-14.12,8.13-14.31-18a1.68,1.68,0,0,0-2.64,0l-14.31,18L90.25,43.63a1.68,1.68,0,0,0-1.87.12L67.16,60c-6.79-4.59-14.4-3-17.28,0l0,0a2.3,2.3,0,0,0-.2.22l0,0-.12.15-.06.07a8,8,0,0,0-1.4,2.65l-.06.13a8.4,8.4,0,0,0-.23,1,7.29,7.29,0,0,0-.47,8.85c.77,1.09,3.77,4.39,10,1.16a1.69,1.69,0,0,0-.55-3.18c-2.21-.31-4.68-1.11-5.08-1.65l0,0A8.15,8.15,0,0,1,51,65.9l.1-.09a11,11,0,0,1,6.08-2A6.43,6.43,0,0,1,62,65.7c2,2,3,5.34,3,10.07,0,12.74-8.48,17.72-8.84,17.93a1.69,1.69,0,0,0-.78,2l2.1,6.54h0l.44,1.37h0l.06.18.83,2.59c-.41.64-.73,1.16-1,1.62v0c-.57.92-1.06,1.73-1.44,2.39h0c-.28.49-.48.86-.62,1.14-3,5.76-3.29,11.05,4,21.06l3.4,4.7,3.76,5.19a70.24,70.24,0,0,0,12.3,33.61H69.33a1.69,1.69,0,0,0-1.69,1.69v17.32a1.7,1.7,0,0,0,1.69,1.7h30.93c2.37,1.6,4.6,3,6.58,4.07a79.37,79.37,0,0,0,12.63,5.86,1.74,1.74,0,0,0,1.06,0,79.37,79.37,0,0,0,12.63-5.86c2-1.11,4.21-2.47,6.58-4.07h30.93a1.7,1.7,0,0,0,1.69-1.7V177.82a1.69,1.69,0,0,0-1.69-1.69h-9.78a70.24,70.24,0,0,0,12.3-33.61l3.76-5.19,3.4-4.7c7.28-10,7-15.3,4-21.06-.14-.28-.34-.65-.62-1.14h0c-.38-.66-.87-1.47-1.44-2.39v0c-.27-.46-.59-1-1-1.62l.83-2.59.06-.18h0l.44-1.37h0l2.1-6.54a1.68,1.68,0,0,0-.78-2c-.36-.21-8.84-5.19-8.84-17.93,0-4.73,1-8.12,3-10.07a6.43,6.43,0,0,1,4.79-1.84,11,11,0,0,1,6.08,2l.1.09a8.19,8.19,0,0,1-.65,3.55l0,0c-.4.54-2.87,1.34-5.09,1.65a1.69,1.69,0,0,0-.54,3.18c6.24,3.23,9.24-.07,10-1.16A7.29,7.29,0,0,0,192.24,64.3ZM66.48,119.43l-4-12.57c1.15-1.82,2.5-3.9,4-6.21Zm107,0V100.65c1.53,2.31,2.88,4.39,4,6.21ZM66.76,141.5ZM192.32,64.9h0v0Zm-3.47.86v0Z"/><path class="cls-1" d="M189.09,61.4l.24.3a13.52,13.52,0,0,0-6.5-1.73,12.79,12.79,0,0,0-9.35,3.45c-2.17,2.17-3.49,5.28-3.93,9.27-.08.85-.12,1.75-.12,2.68a35.1,35.1,0,0,0,2.39,12.12v.61a59.09,59.09,0,0,0,8.72,15l.44-1.39c-6.74-8.81-10.39-17.85-10.39-25.84,0-5.21,1.26-9.14,3.73-11.61q3.1-3.08,8.51-3.08a13.12,13.12,0,0,1,7.55,2.6A6.31,6.31,0,0,0,189.09,61.4Z"/><path class="cls-1" d="M170.19,141.61s-3.3,13.4-7.35,21.8c-3.48,7.28-5.44,10.67-18.23,21.7C132.12,195.85,121.43,199.51,120,200c-1.43-.47-12.12-4.13-24.61-14.87-12.79-11-14.75-14.42-18.23-21.7-4-8.4-7.35-21.8-7.35-21.8-1.14-4.1-9.23-28.58-10.62-32.73-.62,1-1.09,1.8-1.44,2.4.18-.3.38-.65.63-1,1.87,5.62,8.33,25.2,10,30.77h0l.76,2.82c1.43,5.28,3.8,14.07,6.94,20.59,3.58,7.45,5.55,10.91,18.54,22.09,13.58,11.73,25.28,15.14,25.38,15.16s11.8-3.43,25.38-15.16c13-11.18,15-14.64,18.54-22.09,3.14-6.52,5.51-15.31,6.94-20.59l.76-2.82h0c1.67-5.57,8.13-25.15,10-30.77.25.4.45.75.63,1-.35-.6-.82-1.39-1.44-2.4C179.42,113,171.33,137.51,170.19,141.61Z"/><path class="cls-1" d="M69.41,75.87c0,8-3.65,17-10.39,25.84l.44,1.39a59.09,59.09,0,0,0,8.72-15v-.61a35.1,35.1,0,0,0,2.39-12.12c0-.93,0-1.83-.12-2.68-.44-4-1.76-7.1-3.93-9.27A12.79,12.79,0,0,0,57.17,60a13.52,13.52,0,0,0-6.5,1.73l.24-.3a6.31,6.31,0,0,0-1.29,2.38,13.12,13.12,0,0,1,7.55-2.6q5.4,0,8.51,3.08C68.15,66.73,69.41,70.66,69.41,75.87Z"/><path class="cls-1" d="M89.53,51.57l15.66,9L120,41.92l14.81,18.64,15.66-9,18.7,14.3c.41-.53.83-1,1.28-1.53L150.34,48.92l-15.92,9.16L120,40,105.58,58.08,89.66,48.92,69.55,64.34c.45.49.87,1,1.28,1.53Z"/><path class="cls-2" d="M190.38,63.78a13.12,13.12,0,0,0-7.55-2.6q-5.4,0-8.51,3.08c-2.47,2.47-3.73,6.4-3.73,11.61,0,8,3.65,17,10.39,25.84h0l2.1-6.55s-9.7-5.43-9.7-19.4c0-13.43,7.78-13.62,9.45-13.61A12.59,12.59,0,0,1,190,64.49l.58.5.09.09h0a6.55,6.55,0,0,0-.24-1.29Z"/><path class="cls-2" d="M190.73,65.18l-.1-.1h0a9.87,9.87,0,0,1-.82,5.21c-.94,1.77-6.34,2.51-6.34,2.51C191.83,77.13,194.22,68.47,190.73,65.18Z"/><path class="cls-2" d="M182.25,111.28c-.18-.3-.38-.65-.63-1-1.87,5.62-8.33,25.2-10,30.77h0c-.11.37-.76,2.8-.76,2.8-1.43,5.28-3.8,14.07-6.94,20.59-3.58,7.45-5.55,10.91-18.54,22.09C131.8,198.22,120.1,201.63,120,201.65s-11.8-3.43-25.38-15.16c-13-11.18-15-14.64-18.54-22.09-3.14-6.52-5.51-15.31-6.94-20.59,0,0-.65-2.43-.76-2.8h0c-1.67-5.57-8.13-25.15-10-30.77-.25.4-.45.75-.63,1-.27.46-.46.81-.58,1C54.53,117.42,54,122,61,131.64l7.42,10.24v0a69.08,69.08,0,0,0,15.81,38.26c14.77,18.07,35.74,25,35.74,25s21-6.93,35.74-25a69.08,69.08,0,0,0,15.81-38.26v0L179,131.64c7-9.61,6.49-14.22,3.85-19.31C182.71,112.09,182.52,111.74,182.25,111.28Z"/><path class="cls-2" d="M49.46,65l.58-.5a12.59,12.59,0,0,1,7.13-2.33c1.67,0,9.45.18,9.45,13.61,0,14-9.7,19.4-9.7,19.4l2.1,6.55h0c6.74-8.81,10.39-17.85,10.39-25.84,0-5.21-1.26-9.14-3.73-11.61q-3.11-3.08-8.51-3.08a13.12,13.12,0,0,0-7.55,2.6h0a6.55,6.55,0,0,0-.24,1.29h0Z"/><path class="cls-2" d="M50.18,70.29a9.87,9.87,0,0,1-.82-5.21h0a.94.94,0,0,0-.1.1c-3.49,3.29-1.1,11.95,7.25,7.62C56.52,72.8,51.12,72.06,50.18,70.29Z"/><path class="cls-2" d="M66.52,63.42c2.17,2.17,3.49,5.28,3.93,9.27.08.85.12,1.75.12,2.68a35.1,35.1,0,0,1-2.39,12.12v.61a59.09,59.09,0,0,1-8.72,15h0l.06.18,1.08,3.35h0l.22-.36c1.73-2.74,4.13-6.41,7.36-11.18v35.15L60.6,106.63h0l-.15.23q-.72,1.11-1.26,2h0c1.39,4.15,9.48,28.63,10.62,32.73,0,0,3.3,13.4,7.35,21.8,3.48,7.28,5.44,10.67,18.23,21.7,12.49,10.74,23.18,14.4,24.61,14.87,1.43-.47,12.12-4.13,24.61-14.87,12.79-11,14.75-14.42,18.23-21.7,4-8.4,7.35-21.8,7.35-21.8,1.14-4.1,9.23-28.58,10.62-32.73h0q-.54-.9-1.26-2l-.15-.23h0l-7.58,23.61V95.09c3.23,4.77,5.63,8.44,7.36,11.18l.22.36h0l1.08-3.35.06-.18h0a59.09,59.09,0,0,1-8.72-15v-.61a35.1,35.1,0,0,1-2.39-12.12c0-.93,0-1.83.12-2.68.44-4,1.76-7.1,3.93-9.27A12.79,12.79,0,0,1,182.83,60a13.52,13.52,0,0,1,6.5,1.73l-.24-.3,0,0-.17-.19c-2.3-2.42-9.58-4.17-16.09.94h0l-22.21-17L135.21,54,120,34.84,104.79,54,89.41,45.09l-22.21,17h0C60.68,57,53.4,58.77,51.1,61.19l-.17.19,0,0-.24.3A13.52,13.52,0,0,1,57.17,60,12.79,12.79,0,0,1,66.52,63.42Zm23.14-14.5,15.92,9.16L120,40l14.42,18.12,15.92-9.16,20.11,15.42c-.45.49-.87,1-1.28,1.53l-18.7-14.3-15.66,9L120,41.92,105.19,60.56l-15.66-9-18.7,14.3c-.41-.53-.83-1-1.28-1.53Z"/><path class="cls-3" d="M133.62,165.91a18.25,18.25,0,0,0,7.42-1.25V158a22.32,22.32,0,0,1-10.56,3.06c-6,0-18.76-3.71-23.65-3.71A21.15,21.15,0,0,0,99,159.21v6.39A19.61,19.61,0,0,1,109.89,162C117.52,162,124.51,165.91,133.62,165.91Z"/><path class="cls-3" d="M133.62,157.78a18.08,18.08,0,0,0,7.42-1.25V60.46L134.67,65,120,50.46,105.33,65,99,60.46v97a19.6,19.6,0,0,1,10.93-3.58C117.52,153.91,124.51,157.78,133.62,157.78Z"/><path class="cls-3" d="M106.83,173.63A21.15,21.15,0,0,0,99,175.47v9.3a156.38,156.38,0,0,0,21,12.86,156.38,156.38,0,0,0,21-12.86v-10.5a22.44,22.44,0,0,1-10.56,3C124.46,177.31,111.72,173.63,106.83,173.63Z"/><path class="cls-3" d="M130.48,169.19c-6,0-18.76-3.7-23.65-3.7A21.15,21.15,0,0,0,99,167.34v6.4a19.6,19.6,0,0,1,10.93-3.59c7.63,0,14.62,3.88,23.73,3.88a18.25,18.25,0,0,0,7.42-1.25v-6.65A22.32,22.32,0,0,1,130.48,169.19Z"/><path class="cls-1" d="M147,56.29l-6,4.17v96.07a18.08,18.08,0,0,1-7.42,1.25c-9.11,0-16.1-3.87-23.73-3.87A19.6,19.6,0,0,0,99,157.49v-97l-6-4.17-19.16,9.8v58.83c0,13.48,1.16,26.74,5.66,35.48C82.78,166.78,85,174.35,99,184.77v-9.3a21.15,21.15,0,0,1,7.87-1.84c4.89,0,17.63,3.68,23.65,3.68a22.44,22.44,0,0,0,10.56-3v10.5c14-10.42,16.18-18,19.47-24.37,4.5-8.74,5.66-22,5.66-35.48V66.09Zm-6,116.49a18.25,18.25,0,0,1-7.42,1.25c-9.11,0-16.1-3.88-23.73-3.88A19.6,19.6,0,0,0,99,173.74v-6.4a21.15,21.15,0,0,1,7.87-1.85c4.89,0,17.63,3.7,23.65,3.7A22.32,22.32,0,0,0,141,166.13Zm0-8.12a18.25,18.25,0,0,1-7.42,1.25c-9.11,0-16.1-3.88-23.73-3.88A19.61,19.61,0,0,0,99,165.6v-6.39a21.15,21.15,0,0,1,7.87-1.85c4.89,0,17.63,3.71,23.65,3.71A22.32,22.32,0,0,0,141,158Z"/><polygon class="cls-1" points="118.25 145.93 117.19 142.57 120 140.5 122.82 142.57 121.75 145.93 118.25 145.93"/><path class="cls-1" d="M117.9,135.71l-.84.91,2.94,1.91,2.94-1.91-.84-.91a8.72,8.72,0,0,0-2.1-.29A8.45,8.45,0,0,0,117.9,135.71Z"/><path class="cls-1" d="M128.19,143.14a7.79,7.79,0,0,0-1.29-3.95l-1.13-.54-.89,3.38,2.72,2.22Z"/><path class="cls-1" d="M126.36,148.75l.15-1.26-3.51.17-1.23,3.28,1.21.25A8.46,8.46,0,0,0,126.36,148.75Z"/><path class="cls-1" d="M111.8,143.14a7.79,7.79,0,0,1,1.29-3.95l1.13-.54.89,3.38-2.71,2.22Z"/><path class="cls-1" d="M113.63,148.75l-.15-1.26,3.51.17,1.23,3.28-1.21.25A8.46,8.46,0,0,1,113.63,148.75Z"/><path class="cls-4" d="M154.84,135.44c-5.34,0-5.49-3.16-5.49-3.16,6.55.64,10.67-1.58,12.08-5.7s-1.31-8.94-1.31-8.94a12.82,12.82,0,0,1-2.35,8.27c-3.82,5.85-9.85,2.35-9.85,2.35,5.63-1.51,6.13-4.7,5.53-7.31-1.3,4-10.12,7-13.94,2.71s.81-9.16-2.75-15.06-11.7-8.56-11.7-8.56c2.35,1.87,3.95,6.84,2.1,11.72-1.73,4.5.17,10.5,1.46,13a10.2,10.2,0,0,0,1,1.57c-.72,2.88-2.84,6.58-3.31,6.8-1,.47-1.26-.82-2.2-1a1.42,1.42,0,0,0-1.43.74,1.7,1.7,0,0,1,1.43-.35c.67.4,1,1.19,2,1.19,1.17,0,3.23-4.3,4.25-6.61a7.22,7.22,0,0,0,5.77,2.21c3.68-.3,4.69,2,5.43,3A15,15,0,0,0,154.32,139c8.24,0,10.39-9.2,10.39-9.2S160.19,135.44,154.84,135.44Z"/><path class="cls-4" d="M85.16,135.44c5.34,0,5.49-3.16,5.49-3.16-6.55.64-10.67-1.58-12.08-5.7s1.31-8.94,1.31-8.94a12.82,12.82,0,0,0,2.35,8.27c3.82,5.85,9.85,2.35,9.85,2.35-5.63-1.51-6.13-4.7-5.53-7.31,1.3,4,10.12,7,13.94,2.71s-.81-9.16,2.75-15.06,11.7-8.56,11.7-8.56c-2.35,1.87-4,6.84-2.1,11.72,1.73,4.5-.17,10.5-1.46,13a10.2,10.2,0,0,1-1,1.57c.72,2.88,2.84,6.58,3.31,6.8,1,.47,1.26-.82,2.2-1a1.42,1.42,0,0,1,1.43.74,1.7,1.7,0,0,0-1.43-.35c-.67.4-1,1.19-2,1.19-1.17,0-3.23-4.3-4.25-6.61a7.22,7.22,0,0,1-5.77,2.21c-3.68-.3-4.69,2-5.43,3A15,15,0,0,1,85.68,139c-8.24,0-10.39-9.2-10.39-9.2S79.81,135.44,85.16,135.44Z"/><path class="cls-5" d="M111.54,97.17H100.13v-1h1.11V69.62h-1.11v-1h11.36v9.23h-.84c-.07-.57-.15-1-.17-1.09l-.15-.84-.12-.88-.18-.92a14.46,14.46,0,0,0-1-4c-.25-.42-.55-.57-1.29-.57h-2.56V81.89H106c1,0,1.34-.94,1.88-5.8h.62V88.48h-.62c-.57-4.91-.79-5.58-1.9-5.58h-.86V96.18h2.56c1.21,0,1.51-.44,2-2.74.2-1,.44-2.44.62-3.8.09-.69.17-1,.27-2.12l.07-.44,0-.47h.84Z"/><path class="cls-5" d="M123.76,88.48h-.59a29,29,0,0,0-.79-4.74c-.3-.81-.47-.94-1.24-.94h-.76V96.18h1.68v1h-6.67v-1h1.14V69.62h-1.14v-1H126.5v9.23h-.94c-.07-.52-.12-.91-.17-1.09l-.15-.86-.1-1-.14-.92c-.13-.74-.42-2.17-.6-2.81-.37-1.41-.61-1.63-1.65-1.63h-2.37v12.2h.74c.72,0,.94-.13,1.18-.74a8.78,8.78,0,0,0,.45-1.88l.07-.79.13-.77.09-.79c0-.12.08-.39.13-.76h.59Z"/><path class="cls-5" d="M139.41,95.67a6.42,6.42,0,0,1-4.49,2.07c-4.59,0-6.12-5.58-6.12-14.34,0-9.11,1.73-15.31,6.29-15.31a6.88,6.88,0,0,1,4,1.53v8.2h-.89c-.57-2.89-.5-2.62-.74-3.76l-.17-.66c-.84-3.56-1.14-4.15-2.23-4.15s-1.28,1-1.77,3.26-.42,6-.42,11.31c0,9.53,0,12.74,2.32,12.74,1.18,0,1.65-.7,2.24-3.24.2-.89.35-1.8.79-4.15.35-2.09.23-1.45.37-2.22h.84Z"/><polygon class="cls-2" points="169.87 177.82 69.33 177.82 69.33 195.14 170.67 195.14 170.67 177.82 169.87 177.82"/><path class="cls-5" d="M169.07,179.42v14.13H70.93V179.42Z"/><path class="cls-2" d="M76.57,192.12H72v-.42h.47V181H72v-.42h4.57v3.73H76.2c0-.25-.07-.4-.07-.45l0-.32,0-.37,0-.37a5.28,5.28,0,0,0-.42-1.6c-.1-.15-.22-.2-.52-.2H74V186h.34c.42,0,.54-.4.77-2.37h.24v5h-.24c-.23-2-.32-2.27-.77-2.27H74v5.35h1c.5,0,.62-.17.79-1.08a11.32,11.32,0,0,0,.23-1.53c0-.3.07-.42.12-.84l0-.2,0-.17h.34Z"/><polygon class="cls-2" points="79.39 191.71 79.86 191.71 79.86 192.12 77.39 192.12 77.39 191.71 77.86 191.71 77.86 181.04 77.39 181.04 77.39 180.62 79.86 180.62 79.86 181.04 79.39 181.04 79.39 185.95 80.85 185.95 80.85 181.04 80.38 181.04 80.38 180.62 82.84 180.62 82.84 181.04 82.38 181.04 82.38 191.71 82.84 191.71 82.84 192.12 80.38 192.12 80.38 191.71 80.85 191.71 80.85 186.35 79.39 186.35 79.39 191.71"/><polygon class="cls-2" points="85.58 191.71 86.03 191.71 86.03 192.12 83.56 192.12 83.56 191.71 84 191.71 84 181.04 83.56 181.04 83.56 180.62 86.03 180.62 86.03 181.04 85.58 181.04 85.58 191.71"/><polygon class="cls-2" points="89.27 192.12 87.46 181.41 87.46 191.71 88.23 191.71 88.23 192.12 86.75 192.12 86.75 191.71 87.19 191.71 87.19 181.04 86.75 181.04 86.75 180.62 88.92 180.62 90.1 188.35 91.39 180.62 93.51 180.62 93.51 181.04 93.09 181.04 93.09 191.71 93.51 191.71 93.51 192.12 90.77 192.12 90.77 191.71 91.51 191.71 91.51 181.29 89.76 192.12 89.27 192.12"/><path class="cls-2" d="M98.82,192.12H94.25v-.42h.47V181h-.47v-.42h4.54v3.73h-.32a2.66,2.66,0,0,0-.1-.45l-.05-.32,0-.37-.08-.37a5.24,5.24,0,0,0-.39-1.6c-.1-.15-.2-.2-.52-.2h-1V186h.37c.42,0,.52-.4.77-2.37h.24v5h-.24c-.25-2-.35-2.27-.77-2.27h-.37v5.35h1c.49,0,.61-.17.79-1.08.07-.4.17-1,.24-1.53a7.66,7.66,0,0,1,.13-.84l0-.2,0-.17h.32Z"/><path class="cls-2" d="M105.29,188.62H105a9.44,9.44,0,0,0-.32-1.93c-.1-.32-.17-.37-.49-.37h-.3v5.38h.67v.42h-2.67v-.42h.47V181h-.47v-.42h4.44v3.73H106a2.82,2.82,0,0,0-.07-.45l-.05-.34-.08-.37,0-.37c-.05-.32-.15-.89-.23-1.16-.14-.55-.22-.62-.66-.62h-.94V186h.3c.29,0,.37-.07.46-.29a3,3,0,0,0,.18-.77l0-.34,0-.33,0-.29a2.84,2.84,0,0,0,0-.32h.25Z"/><path class="cls-2" d="M108.77,182.35c0,.39-.1,1.23-.12,2.05s0,1.55,0,2.84c0,1.55,0,2.86.12,3.5.13.82.35,1.24.7,1.24s.59-.42.69-1.19a18.69,18.69,0,0,0,.12-2.32c0-.69,0-1.48,0-2.27,0-1.51,0-2.47,0-3.24-.1-1.58-.32-2.17-.79-2.17S108.87,181.26,108.77,182.35Zm3.28,4.07a12.45,12.45,0,0,1-.59,3.88c-.45,1.33-1.16,2.07-2,2.07-1.56,0-2.59-2.44-2.59-6,0-3.39,1.08-5.95,2.59-5.95S112.05,182.92,112.05,186.42Z"/><path class="cls-2" d="M114.52,182.35c0,.39-.07,1.23-.1,2.05s0,1.55,0,2.84c0,1.55,0,2.86.12,3.5.12.82.35,1.24.67,1.24s.59-.42.69-1.19c.07-.44.12-1.41.15-2.32,0-.69,0-1.48,0-2.27,0-1.51,0-2.47,0-3.24-.1-1.58-.32-2.17-.76-2.17S114.64,181.26,114.52,182.35Zm3.28,4.07a13.44,13.44,0,0,1-.56,3.88c-.45,1.33-1.19,2.07-2,2.07-1.53,0-2.57-2.44-2.57-6,0-3.39,1.11-5.95,2.57-5.95S117.8,182.92,117.8,186.42Z"/><path class="cls-2" d="M122.89,184.32h-.35c-.09-1-.12-1.21-.17-1.5-.2-1.53-.32-1.78-.76-1.78h-.25V191.7h.52v.42h-2.59v-.42h.51V181h-.22c-.39,0-.52.15-.66,1a12.54,12.54,0,0,0-.2,1.36l-.08.56,0,.13v.12l0,.12h-.34v-3.7h4.64Z"/><path class="cls-2" d="M125.9,191.7c1,0,1.26-.61,1.26-2.64s-.37-2.71-1.48-2.71h-.27v5.35Zm-.19-5.75c.83,0,1.15-.66,1.15-2.52s-.24-2.39-1-2.39h-.47V186Zm.24-5.33c1.66,0,2.47.91,2.47,2.77,0,1.55-.62,2.46-1.83,2.71a2.26,2.26,0,0,1,1.44.64,3.73,3.73,0,0,1-.38,4.94,3.46,3.46,0,0,1-2.24.44h-2v-.42h.47V181h-.47v-.42Z"/><path class="cls-2" d="M131.9,187.31l-.72-4.44-.73,4.44Zm-2.15,4.39h.82v.42H129v-.42h.52l1.8-11.08h1l1.92,11.08h.45v.42H131.9v-.42h.67l-.62-4h-1.56Z"/><path class="cls-2" d="M139.31,192.12H135v-.42h.47V181H135v-.42h2.69V181H137V191.7h.76c.4,0,.55-.12.67-.61.07-.32.15-.72.27-1.56a3.41,3.41,0,0,0,0-.42l.15-1.13a2.28,2.28,0,0,1,.05-.4h.32Z"/><path class="cls-2" d="M144.2,192.12h-4.32v-.42h.46V181h-.46v-.42h2.66V181h-.64V191.7h.79c.37,0,.52-.12.64-.61.08-.32.15-.72.27-1.56a2.18,2.18,0,0,0,.05-.42l.15-1.13a3.34,3.34,0,0,0,0-.4h.35Z"/><path class="cls-2" d="M151.63,191.51a2.4,2.4,0,0,1-1.76.84c-1.77,0-2.91-2.25-2.91-5.78,0-3.68,1.21-6.17,3-6.17a2.59,2.59,0,0,1,1.55.64v3.26h-.34c-.22-1.14-.2-1-.3-1.48l-.07-.28c-.32-1.43-.45-1.67-.87-1.67s-.69.37-.86,1.31a27.77,27.77,0,0,0-.27,4.56c0,3.85.29,5.14,1.18,5.14.47,0,.65-.27.87-1.31a13.94,13.94,0,0,0,.32-1.68c.15-.84.1-.57.15-.89h.32Z"/><path class="cls-2" d="M156.66,192.12h-4.32v-.42h.45V181h-.45v-.42H155V181h-.69V191.7h.82c.37,0,.54-.12.64-.61.07-.32.15-.72.27-1.56,0-.15.05-.29.08-.42l.14-1.13a2,2,0,0,1,0-.4h.34Z"/><path class="cls-2" d="M161.53,188.35c0,2.91-.55,4-1.95,4a1.6,1.6,0,0,1-1.53-.89,5.56,5.56,0,0,1-.5-2.94V181h-.44v-.42h2.66V181h-.64V189a9.69,9.69,0,0,0,.13,2c.12.5.44.82.76.82s.72-.3.91-.84a7.17,7.17,0,0,0,.33-2.74V181h-.69v-.42h1.35V181h-.39Z"/><path class="cls-2" d="M165.06,191.7c1,0,1.26-.61,1.26-2.64s-.37-2.71-1.48-2.71h-.28v5.35Zm-.2-5.75c.84,0,1.16-.66,1.16-2.52s-.25-2.39-1-2.39h-.47V186Zm.25-5.33c1.63,0,2.47.91,2.47,2.77,0,1.55-.62,2.46-1.83,2.71a2.28,2.28,0,0,1,1.43.64,3,3,0,0,1,.74,2.22,3.1,3.1,0,0,1-1.11,2.72,3.55,3.55,0,0,1-2.25.44h-2v-.42H163V181h-.47v-.42Z"/></svg>
