<svg id="Layer_1" data-name="Layer 1" width="240" height="240" xmlns="http://www.w3.org/2000/svg" viewBox="0 0 240 240"><defs><style>.cls-1{fill:#fff;}.cls-2{fill:#d12e26;}.cls-3{fill:#f8cd39;}</style></defs><path class="cls-1" d="M177.3,174.07h-.37l-.4-.17c-9.69-4.45-19.38-9.32-28.81-14.47a4.73,4.73,0,0,1-.44.29C146,161.4,145.16,162,144.2,162a2,2,0,0,1-.93-.23l-.37-.22c-1.36-.75-1.08-2.38-.7-3.56a4,4,0,0,1-.06-1.7A447.79,447.79,0,0,1,60.89,97.57a8.35,8.35,0,0,1-2.35-7.85l.66-2.87,2.18,2a438.43,438.43,0,0,0,80.79,57.55l2.26,1.27,1.92,1.07a3.76,3.76,0,0,1,1.48-.86,3.49,3.49,0,0,1,2.47-1.52,1.87,1.87,0,0,1,.93.24l.37.2c1.63.91,1,3,.36,4.51a4.21,4.21,0,0,1,0,.5c9.24,5.05,18.73,9.82,28.23,14.18a1.88,1.88,0,0,1,1,1.06c.11.3.46,1.23-.74,3.85-1.47,3.2-2.61,3.2-3.11,3.2Z"/><path class="cls-1" d="M62.7,174.07c-.49,0-1.64,0-3.11-3.2a11.46,11.46,0,0,1-.74-2.08c-.45-1.87.42-2.58,1-2.83,9.48-4.35,19-9.12,28.22-14.18a4.21,4.21,0,0,1,0-.5c-.6-1.49-1.27-3.6.36-4.51l.37-.2a1.87,1.87,0,0,1,.93-.24,3.49,3.49,0,0,1,2.47,1.52,3.76,3.76,0,0,1,1.48.86c.61-.35,1.24-.69,1.85-1l2.34-1.31a438.62,438.62,0,0,0,80.77-57.55l2.19-2,.66,2.87a8.3,8.3,0,0,1-2.32,7.81,447,447,0,0,1-81.28,58.8,4.2,4.2,0,0,1-.06,1.7c.38,1.18.67,2.81-.7,3.57l-.36.2a1.93,1.93,0,0,1-.94.24c-1,0-1.82-.64-3.08-2.32a4.73,4.73,0,0,1-.44-.29c-9.42,5.15-19.11,10-28.81,14.47l-.35.16Z"/><path class="cls-1" d="M120,190.52a81.67,81.67,0,0,1-71.72-42.59l-.81-1.48,1.46-.85,5.78-3.33a68.18,68.18,0,0,1-3-17.28l-.13-3.14,2.73,1.57,10.51,6.08,5.07-6a30.4,30.4,0,0,1-.26-3.93v-9.1a7.42,7.42,0,0,1-1.05-8.67,2.12,2.12,0,0,0,.11-.21,2.12,2.12,0,0,0-.11-.21,7.42,7.42,0,0,1,1.05-8.67v-34l1.17-.41c12.88-4.47,27.27-8.82,48.89-8.82a150.63,150.63,0,0,1,49.51,8.84l1.13.41V92.67a7.37,7.37,0,0,1,1.05,8.67,2.12,2.12,0,0,0-.11.21,2.12,2.12,0,0,0,.11.21,7.44,7.44,0,0,1,.95,3.62,7.36,7.36,0,0,1-2,5.05v9.1a30.16,30.16,0,0,1-.26,3.93l5.07,6,10.51-6.08,2.73-1.57-.13,3.14a68.18,68.18,0,0,1-3,17.28l5.78,3.33,1.46.85-.81,1.48A81.67,81.67,0,0,1,120,190.52ZM77.79,146a56,56,0,0,0,40.33,19.06L84.83,145.83A29.63,29.63,0,0,1,82,144l-.82.38L77.79,146ZM158,144a29.63,29.63,0,0,1-2.79,1.82l-33.3,19.23A56.06,56.06,0,0,0,162.22,146l-3.44-1.61L158,144Z"/><path d="M150,152.68q14.56,8,29.46,14.85c.27.12,0,1.29-.61,2.62s-1.32,2.3-1.58,2.18q-15.07-6.92-29.83-15a2.75,2.75,0,0,1-1.27,1c-1,1.36-1.75,2.14-2,2l-.37-.21c-.26-.14-.11-1,.35-2.21-.41-.24-.36-1.17,0-2.4A444.49,444.49,0,0,1,62.06,96.29a6.56,6.56,0,0,1-1.83-6.19,438.89,438.89,0,0,0,81.1,57.78c1.54.86,3.54,2,5.35,3,.83-1,1.59-1.55,2-1.33.83-1,1.46-1.61,1.72-1.46l.37.2c.3.17.05,1.25-.58,2.79A2.87,2.87,0,0,1,150,152.68Z"/><path d="M145.22,153.06a15.86,15.86,0,0,1,1.05-1.66l-1.8-1a16.28,16.28,0,0,0-1.89,3.42l1.79,1A14.25,14.25,0,0,1,145.22,153.06Zm-2.4-1.34L140,150.13a442.22,442.22,0,0,1-77.8-56,6.32,6.32,0,0,1-1.48-2.39,5.92,5.92,0,0,0,1.78,4A443.29,443.29,0,0,0,142,153.49,13.2,13.2,0,0,1,142.82,151.72Zm7.45,2.32L149,155.11l-.22,1.69,1.32-1.07Zm2.07,1.12L151,156.24l-.21,1.69,1.32-1.08Zm2.08,1.11-1.32,1.09-.2,1.69,1.31-1.08Zm2.08,1.11-1.31,1.09-.2,1.69,1.31-1.09Zm2.08,1.09-1.3,1.1-.19,1.69,1.31-1.1Zm2.09,1.08-1.29,1.11-.18,1.69,1.3-1.11Zm2.1,1.07-1.29,1.11-.17,1.7,1.29-1.11Zm2.1,1.06-1.29,1.12-.15,1.7,1.28-1.13Zm2.11,1-1.28,1.13-.15,1.7,1.28-1.13Zm2.11,1-1.27,1.13-.14,1.7,1.27-1.13Zm2.12,1-1.27,1.14-.13,1.7,1.27-1.15Zm2.12,1L172.07,167l-.12,1.7,1.26-1.15Zm2.13,1L174.2,168l-.11,1.7,1.26-1.16Z"/><path d="M90,152.68q-14.57,8-29.46,14.85c-.27.12,0,1.29.62,2.62s1.31,2.3,1.57,2.18q15.08-6.92,29.83-15a2.8,2.8,0,0,0,1.27,1c1,1.36,1.75,2.14,2,2l.37-.21c.27-.14.11-1-.35-2.21.41-.24.36-1.17,0-2.4a444.49,444.49,0,0,0,82.08-59.18,6.56,6.56,0,0,0,1.83-6.19,438.89,438.89,0,0,1-81.1,57.78c-1.54.86-3.54,2-5.35,3-.83-1-1.59-1.55-2-1.33-.82-1-1.45-1.61-1.71-1.46l-.37.2c-.3.17,0,1.25.58,2.79A2.87,2.87,0,0,0,90,152.68Z"/><path d="M94.78,153.06a15.86,15.86,0,0,0-1-1.66l1.79-1a15.88,15.88,0,0,1,1.9,3.42l-1.79,1A14.25,14.25,0,0,0,94.78,153.06Zm2.4-1.34,2.81-1.59a442.22,442.22,0,0,0,77.8-56,6.32,6.32,0,0,0,1.48-2.39,5.92,5.92,0,0,1-1.78,4A443.29,443.29,0,0,1,98,153.49,13.2,13.2,0,0,0,97.18,151.72ZM89.73,154l1.32,1.07.22,1.69L90,155.73Zm-2.07,1.12L89,156.24l.21,1.69-1.32-1.08Zm-2.08,1.11,1.32,1.09.2,1.69L85.79,158Zm-2.08,1.11,1.31,1.09.2,1.69-1.31-1.09Zm-2.08,1.09,1.3,1.1.19,1.69-1.31-1.1Zm-2.09,1.08,1.29,1.11.18,1.69-1.3-1.11Zm-2.1,1.07,1.29,1.11.17,1.7-1.29-1.11Zm-2.1,1.06,1.29,1.12.15,1.7-1.28-1.13Zm-2.11,1,1.28,1.13.15,1.7-1.28-1.13Zm-2.11,1,1.27,1.13.14,1.7-1.27-1.13Zm-2.12,1,1.27,1.14.13,1.7-1.27-1.15Zm-2.12,1L67.93,167l.12,1.7-1.26-1.15Zm-2.13,1L65.8,168l.11,1.7-1.26-1.16Z"/><path d="M161.55,138.37a28.75,28.75,0,0,1-7.25,6L120,164.14l-34.3-19.8a28.75,28.75,0,0,1-7.25-6,46,46,0,0,0,2,4.45L75,145.38a57.94,57.94,0,0,0,90,0l-5.49-2.56A43.7,43.7,0,0,0,161.55,138.37ZM71.38,109.7a5.69,5.69,0,0,1-1.27-7.09,9.41,9.41,0,0,0,.51-1.06,10.32,10.32,0,0,0-.51-1.06,5.69,5.69,0,0,1,1.27-7.09V59.94c12-4.15,26.31-8.74,48.33-8.74a149.09,149.09,0,0,1,48.91,8.74V93.4a5.65,5.65,0,0,1,1.27,7.09,10.32,10.32,0,0,0-.51,1.06,9.41,9.41,0,0,0,.51,1.06,5.65,5.65,0,0,1-1.27,7.09v9.83a28.33,28.33,0,0,1-.35,4.45l6.5,7.74,11.77-6.8a66.38,66.38,0,0,1-3.32,18.15l7,4a79.95,79.95,0,0,1-140.4,0l7-4a66.38,66.38,0,0,1-3.32-18.15l11.78,6.8L71.73,124a28.33,28.33,0,0,1-.35-4.45Z"/><path class="cls-2" d="M161.29,65.08V93.4a5.67,5.67,0,0,0-2,4.32,5.74,5.74,0,0,0,.72,2.77,8.66,8.66,0,0,1,.52,1.06,8,8,0,0,1-.52,1.06,5.77,5.77,0,0,0-.72,2.77,5.67,5.67,0,0,0,2,4.32v9.83A21.3,21.3,0,0,1,150.64,138L120,155.68V58.26A127.6,127.6,0,0,1,161.29,65.08Z"/><path class="cls-2" d="M73.38,119.53V109.38a4.54,4.54,0,0,0,1.33.32v9.83a25.29,25.29,0,0,0,12.65,21.92L120,160.3l32.64-18.85a25.29,25.29,0,0,0,12.65-21.92V109.7a4.54,4.54,0,0,0,1.33-.32v10.15a26.65,26.65,0,0,1-13.32,23.08L120,161.83,86.7,142.61A26.65,26.65,0,0,1,73.38,119.53Zm2,0V109.7a4.47,4.47,0,0,0,1.33-.32v10.15a23.31,23.31,0,0,0,11.65,20.19L120,158l31.64-18.27a23.31,23.31,0,0,0,11.65-20.19V109.38a4.47,4.47,0,0,0,1.33.32v9.83a24.63,24.63,0,0,1-12.32,21.35L120,159.53,87.7,140.88A24.63,24.63,0,0,1,75.38,119.53Zm1.33-55.88V97.72a1.75,1.75,0,0,1-.21.82,13.17,13.17,0,0,0-.86,1.82,13.51,13.51,0,0,1-.26-2.64v-35a131.84,131.84,0,0,1,89.24,0v35a13.51,13.51,0,0,1-.26,2.64,13.17,13.17,0,0,0-.86-1.82,1.75,1.75,0,0,1-.21-.82V63.65a130.49,130.49,0,0,0-86.58,0Zm-2-1.4V97.72a13.51,13.51,0,0,1-.26,2.64,13.17,13.17,0,0,0-.86-1.82,1.75,1.75,0,0,1-.21-.82V61.32a133.72,133.72,0,0,1,93.24,0v36.4a1.75,1.75,0,0,1-.21.82,13.17,13.17,0,0,0-.86,1.82,13.51,13.51,0,0,1-.26-2.64V62.25a132.51,132.51,0,0,0-90.58,0ZM162.62,94.9v2.82a2.28,2.28,0,0,0,.3,1.14,13.3,13.3,0,0,1,1.7,6.52V107a1.65,1.65,0,0,1-1.33-1.63,12,12,0,0,0-1.53-5.87,3.65,3.65,0,0,1,.86-4.61Zm4.66,0a3.64,3.64,0,0,1,.87,4.61,12,12,0,0,0-1.53,5.87,1.65,1.65,0,0,1-1.33,1.63v-1.63a13.3,13.3,0,0,1,1.7-6.52,2.27,2.27,0,0,0,.29-1.14Zm0,10.48a11.47,11.47,0,0,1,.36-2.82,9,9,0,0,0,.51,1,3.62,3.62,0,0,1,.47,1.79,3.67,3.67,0,0,1-7.33,0,3.62,3.62,0,0,1,.47-1.79,11,11,0,0,0,.51-1,11.47,11.47,0,0,1,.35,2.82,2.33,2.33,0,0,0,4.66,0ZM77.38,94.9v2.82a2.28,2.28,0,0,1-.3,1.14,13.3,13.3,0,0,0-1.7,6.52V107a1.65,1.65,0,0,0,1.33-1.63,12,12,0,0,1,1.53-5.87,3.65,3.65,0,0,0-.86-4.61Zm-4.66,0a3.64,3.64,0,0,0-.87,4.61,11.91,11.91,0,0,1,1.53,5.87A1.65,1.65,0,0,0,74.71,107v-1.63A13.2,13.2,0,0,0,73,98.86a2.27,2.27,0,0,1-.29-1.14Zm0,10.48a11.47,11.47,0,0,0-.36-2.82,9,9,0,0,1-.51,1,3.62,3.62,0,0,0-.47,1.79,3.67,3.67,0,0,0,7.33,0,3.62,3.62,0,0,0-.47-1.79,11,11,0,0,1-.51-1,11.47,11.47,0,0,0-.35,2.82,2.33,2.33,0,0,1-4.66,0Zm2.33-4.61c-.06.26-.13.52-.2.78s.14.52.2.78c0-.26.12-.52.19-.78S75.1,101,75.05,100.77Zm89.9,0c0,.26-.12.52-.19.78s.14.52.19.78c.06-.26.13-.52.2-.78S165,101,165,100.77Z"/><path class="cls-2" d="M59.21,144a63.74,63.74,0,0,1-3.49-15.44l10,5.76L73.47,125a46.52,46.52,0,0,0,4.32,16.87l-9.71-3a60,60,0,0,0,103.84,0l-9.71,3A46.52,46.52,0,0,0,166.53,125l7.78,9.28,10-5.76A63.74,63.74,0,0,1,180.79,144l6.7,3.87a77.94,77.94,0,0,1-135,0Z"/><polygon class="cls-1" points="67.47 143.96 58.01 150.83 59.37 152.7 63.3 149.84 64.55 151.56 66.3 150.29 65.05 148.57 67.07 147.1 68.46 149.01 70.21 147.73 67.47 143.96"/><path class="cls-1" d="M70.92,148.64l-6.45,5.81c-1.63,1.46-1.52,3.09-.07,4.69,2.23,2.48,3.89,1.17,4.81.34l6.34-5.71L74,152.06l-6,5.39c-.66.57-1.29,1.14-2.05.3s.22-1.74.88-2.34l5.63-5.06Z"/><polygon class="cls-1" points="76.52 154.75 69.01 163.71 70.78 165.19 74.6 160.63 74.63 160.65 72.43 166.58 74.29 168.14 76.47 161.75 81.59 159.01 79.79 157.49 74.96 160.26 74.93 160.24 78.29 156.24 76.52 154.75"/><path class="cls-1" d="M82.4,159.68,77.67,167c-1.19,1.84-.66,3.38,1.15,4.56,2.8,1.81,4.06.12,4.74-.92l4.64-7.15-1.93-1.26L81.87,169c-.48.72-1,1.44-1.9.82s-.23-1.74.25-2.48l4.12-6.35Z"/><path class="cls-1" d="M93.53,166.59a3.94,3.94,0,0,0-1.59-1.41c-1.78-.87-3.45.1-4.25,1.75s-.39,2.68.41,4.07c.38.7.87,1.32.48,2.13a1.25,1.25,0,0,1-1.76.56,3,3,0,0,1-1.3-1.33l-1,2a3.55,3.55,0,0,0,1.52,1.4c2,.95,3.71.07,4.62-1.8,1.39-2.84-1.73-4.48-.88-6.21a1.06,1.06,0,0,1,1.54-.52,2.62,2.62,0,0,1,1.18,1.4Z"/><polygon class="cls-1" points="95 166.91 90.81 177.82 92.97 178.65 94.74 174.03 96.93 174.87 95.16 179.49 97.31 180.31 101.5 169.4 99.34 168.57 97.71 172.84 95.52 172 97.16 167.73 95 166.91"/><rect class="cls-1" x="96.82" y="174.47" width="11.69" height="2.31" transform="translate(-93.55 229.35) rotate(-75)"/><polygon class="cls-1" points="107.05 170.79 104.41 182.23 106.87 182.57 108.38 174.28 108.41 174.29 108.38 174.5 108.4 177.14 108.74 182.84 110.51 183.09 112.26 177.74 113.03 174.94 113.06 174.94 112.44 183.36 114.79 183.69 115.2 171.94 112.13 171.51 110.25 178.21 110.22 178.21 110.06 171.22 107.05 170.79"/><path class="cls-1" d="M118.82,172l-2.51,11.74,2.29,0,.39-2,2.34,0,.47,2,2.46,0-3-11.64Zm2.14,7.85-1.63,0,.44-3.12L120,175h0l.29,1.76Z"/><path class="cls-1" d="M126.66,171.75l1.35,8.58c.35,2.16,1.77,2.95,3.9,2.62,3.3-.52,3.1-2.63,2.91-3.85l-1.33-8.43-2.29.37,1.27,8c.11.86.25,1.7-.87,1.88s-1.34-1.14-1.48-2l-1.18-7.48Z"/><path class="cls-1" d="M135,170.27l3.42,11.18,2.21-.67L139,175.65l-.15-.46-.45-1.09,0,0,4.79,5.91,2.09-.64-3.42-11.18-2.21.68,1.54,5a8,8,0,0,0,.69,1.64l0,0-4.82-5.91Z"/><rect class="cls-1" x="145.43" y="166.68" width="2.31" height="11.69" transform="translate(-53.95 67.46) rotate(-22)"/><polygon class="cls-1" points="146.52 166.25 147.54 168.17 149.14 167.31 153.61 175.72 155.65 174.64 151.18 166.23 152.79 165.37 151.77 163.46 146.52 166.25"/><polygon class="cls-1" points="152.74 162.89 159.11 172.7 163.03 170.15 161.85 168.33 159.86 169.62 158.43 167.41 160.16 166.28 158.97 164.46 157.25 165.58 155.86 163.45 157.82 162.18 156.64 160.36 152.74 162.89"/><path class="cls-1" d="M167,167.12c2.79-2.34,2.22-5,.08-7.58-4.19-5-7.52-1.44-7.83-1.18l-1.34,1.13,7.51,8.95Zm-1.14-1.75L161,159.6c1.46-1.23,3.33.28,4.29,1.42S167.32,164.24,165.84,165.37Z"/><polygon class="cls-1" points="165.53 152.66 174.22 160.48 175.76 158.76 172.16 155.51 173.58 153.94 171.97 152.48 170.54 154.06 168.69 152.39 170.27 150.64 168.65 149.19 165.53 152.66"/><path class="cls-1" d="M172.89,143.57a3.44,3.44,0,0,0-.87.83c-1.85,2.54-.57,5.84,1.78,7.55s6,2.08,8-.62a2.76,2.76,0,0,0,.46-1l-1.76-1.29a2.82,2.82,0,0,1-.39.82c-1.18,1.63-3.43,1.09-4.84.07s-2.43-2.86-1.23-4.5a3,3,0,0,1,.61-.63Z"/><path class="cls-2" d="M99.91,121.59A20.1,20.1,0,1,1,120,141.68,20.09,20.09,0,0,1,99.91,121.59Z"/><path class="cls-3" d="M119,119.64a.66.66,0,0,0,0,.23.74.74,0,0,0,.19.27s.18-.06.24,0,0,.14,0,.13.1-.09.14-.08.09.15.14.11a2.46,2.46,0,0,0,.63-.76c0-.07,0-.14,0-.21s0-.13.06-.18a.76.76,0,0,1-.09-.28c0-.08.08-.17.09-.25s-.1-.07-.12-.11a.74.74,0,0,0-.13-.21c-.13-.07-.36.06-.46-.06s0-.32,0-.41a.66.66,0,0,0-.17-.12,2,2,0,0,0-.48,0c-.07,0-.18,0-.25,0a4.67,4.67,0,0,0-.45.44c-.06.06-.11-.11-.2-.1a.51.51,0,0,0,0,.34.6.6,0,0,0,.11.21s0,.24.06.26.09-.16.15-.13a.41.41,0,0,1,.09.27.66.66,0,0,0,0,.2C118.7,119.37,119,119.53,119,119.64ZM107.46,131.1a.49.49,0,0,1-.17,0c-.08,0-.14-.12-.21-.13a1.57,1.57,0,0,0-.37,0c0-.07-.1-.28-.17-.25a.43.43,0,0,1-.25.07,2.14,2.14,0,0,0-.34,0l-.19-.16s-.17,0-.23,0-.11-.09-.29-.14-.28.18-.39.19-.15-.12-.19-.19.07-.13.06-.14a.29.29,0,0,0,.16-.06,1.25,1.25,0,0,1,0-.15c0-.07.08-.16.1-.23a.81.81,0,0,0,0-.35c0-.05.09-.1.1-.2s-.2-.42-.18-.58.27-.53.27-.67-.22-.42-.21-.56,0-.12,0-.18-.2-.14-.21-.26a1.84,1.84,0,0,1,0-.49c0-.09.09-.13.11-.22s0-.3.08-.41.09-.24.11-.34-.14-.15-.14-.2a1.11,1.11,0,0,0-.14-.38c-.12-.15-.23-.44-.31-.48a2.18,2.18,0,0,1-.18.31.44.44,0,0,1-.19,0,.65.65,0,0,0-.07-.27c-.17-.2-.47-.52-.47-.64a.88.88,0,0,1,.2-.46c.2-.27.49-.52.6-.65s0-.31.05-.45.12-.16.13-.22-.08-.31-.07-.35.15-.06.23-.21a1.19,1.19,0,0,0,0-.32c0-.08.06-.16,0-.27a.62.62,0,0,0-.13-.36c-.09-.1-.24,0-.3-.1s-.11-.34-.2-.4a1.34,1.34,0,0,0,.11-.14c0-.05,0-.22,0-.26a1.9,1.9,0,0,1,.11-.21.65.65,0,0,1,.16-.19s.21.07.31,0a.76.76,0,0,1,.22-.09s.14.07.19,0l.72-.19a1.23,1.23,0,0,1,.32-.06s.16,0,.24,0,.2-.18.35-.21.14.08.29.11.1,0,.12,0a.74.74,0,0,0,.18.09.16.16,0,0,0,.09,0,.44.44,0,0,0,.12-.11s0-.13,0-.2.11-.37.12-.48,0-.17,0-.22a1,1,0,0,1,.34-.1c.13,0,.25-.11.33-.08s.33.31.38.3.24-.18.29-.18.2.1.31.08.19-.09.25-.1.58.26.7.25a.83.83,0,0,0,.29-.22c0-.07.11-.25.09-.28s-.24-.14-.31-.27a2,2,0,0,1,0-.34.9.9,0,0,1,0-.34,1.46,1.46,0,0,0-.07-.3,1.91,1.91,0,0,0-.06-.33c-.06-.09-.26-.18-.28-.27s.08-.09.07-.17-.11-.17-.1-.25.12-.2.13-.25-.07-.13-.06-.17.29,0,.32-.08.28-.2.38-.29.11,0,.15,0,.15-.26.24-.39a1.45,1.45,0,0,1,.26-.07s-.18-.25-.1-.37.52-.6.56-.66.06-.31.09-.37a1.77,1.77,0,0,0,.18-.19,3.81,3.81,0,0,1,.49-.54s0-.09.07-.13.14-.09.16-.13a2.5,2.5,0,0,1,.27-.29s.16,0,.18,0l0-.12c.07,0,.15,0,.22,0s.14-.06.22-.12l.31-.1s.12.15.21.29.11,0,.13.08.08.22.12.23.11-.11.26-.19.19,0,.24-.06.29-.22.34-.23.34.33.36.34a1.45,1.45,0,0,0,.5-.11c.09,0,.18,0,.27,0s0-.29.13-.33.22.23.24.25.23.06.25.12,0,.27,0,.39a3.19,3.19,0,0,0,.14.35c0,.07.11.07.13.13s0,.16,0,.22a2.4,2.4,0,0,1,.23.11c.17,0,.72-.2.76-.21s.23-.19.27-.21.22.32.32.38.23,0,.3.07.17.35.33.43a.86.86,0,0,0,.56,0c.07,0,.06-.24.12-.27a1.48,1.48,0,0,1,.45-.09,4.45,4.45,0,0,1,.8.2,1.22,1.22,0,0,0,.33,0c.06-.11.2-.33.27-.44s.32-.28.37-.35a1.78,1.78,0,0,1,.1-.34c.06-.09.24-.11.26-.24s-.1-.12-.22-.19-.36-.22-.37-.33a6.11,6.11,0,0,1,.11-.67,6.58,6.58,0,0,1,0-1.08c0-.17.23-.24.23-.38s-.14-.45-.14-.69a.59.59,0,0,1,.11-.29c.09,0,.23.14.31.14a4.07,4.07,0,0,0,.35.25,1.82,1.82,0,0,0,.61.2c.06,0,0-.13.13-.18s.34.16.42.13,0-.42.17-.44.21,0,.24,0l0,.23.39.19a4.11,4.11,0,0,1,.67.16s-.1.25-.07.46a1,1,0,0,0,.28.53h.07s.15,0,.19,0,.07-.08.16-.09l.46,0a3.51,3.51,0,0,0,.43-.07s0-.2.15-.23.26.26.47.3.28-.18.36-.16.06.27.17.32a.61.61,0,0,0,.27,0c.13,0,.25-.06.29-.06s.22.14.28.16.23.07.24.11-.13.18-.13.29.16.33.16.39-.13.22-.14.45a1.82,1.82,0,0,0,0,.41c0,.06.18.27.18.27a1.23,1.23,0,0,1,.32.09c.1,0,.21.34.23.41a.78.78,0,0,1,.31-.16,2.19,2.19,0,0,1,.78.32.69.69,0,0,0,.15-.09,2.06,2.06,0,0,0-.56-.46s.12-.2.15-.19.33.17.49.2a2.57,2.57,0,0,0,.28,0,2.79,2.79,0,0,0,.55,0c.07,0,0-.53,0-.61a1.13,1.13,0,0,1,0-.31.51.51,0,0,1,0-.18c0-.08.14-.19.15-.26s-.08-.19-.08-.24,0-.4.08-.46a3,3,0,0,1,.59-.22c.08,0,.11.11.19.13s.19.1.24.1l.16-.07a.91.91,0,0,1,0,.25,1.71,1.71,0,0,0,.1.46,1.31,1.31,0,0,1,.2.48c.05,0,.25.17.3.23a.29.29,0,0,1,.05.14h-.31s0,.12,0,.15.18-.07.23,0,0,.11,0,.19-.14.37-.13.47,0,0,.09,0a1.25,1.25,0,0,0,.15.19,1.94,1.94,0,0,0,0-.41c0-.21,0-.23,0-.42,0,0,.05-.13.05-.15a5.84,5.84,0,0,1,.07,1c0,.09.18.3.23.39a1.18,1.18,0,0,1,.12.33,1.55,1.55,0,0,1,0,.43v.1a5,5,0,0,1,0,.73c0,.08,0,.19.06.3s0,.26,0,.36.06.1.07.16,0,.41,0,.6.06.25.06.38a2.36,2.36,0,0,1,0,.31c0,.08,0,.15,0,.23a1.11,1.11,0,0,1,0,.19,9.32,9.32,0,0,0,.09,1,1.36,1.36,0,0,0,0,.17,3.23,3.23,0,0,1,.1.61c0,.12,0,.26,0,.38a2.35,2.35,0,0,1,0,.26c0,.16,0,.44,0,.57s0,.25,0,.42a5.43,5.43,0,0,0,0,.57,1,1,0,0,1,0,.18v.15c0,.18-.17.53-.18.8a1.11,1.11,0,0,1,0,.19s0,.11,0,.14c-.05.32-.1.77-.15,1.1s0,.35,0,.48.15.07.18.11,0,.15,0,.19h-.15c-.05.19-.13.74-.17,1a4.16,4.16,0,0,0,0,.51.44.44,0,0,1,.05.26s-.07.11-.09.18,0,.51,0,.62-.18.18-.23.39a4.92,4.92,0,0,0-.14.55,4.6,4.6,0,0,0,0,.69,2.56,2.56,0,0,0,0,.39c0,.09.07.09.1.17a.44.44,0,0,1,0,.29c0,.06-.08,0-.11.06a.54.54,0,0,0,0,.32s-.35.35-.48.46a1.22,1.22,0,0,0-.15.17s-.09.23-.15.24-.1-.14-.16-.17-.32,0-.4,0-.1.13-.14.16-.14-.06-.19,0,.07.13,0,.15l-.18.12s-.11,0-.16,0a.83.83,0,0,0-.18.2s-.21-.07-.26-.07-.15.08-.15.08-.47.49-.46.69,0,.19,0,.26.05.08.06.11-.09.07-.13,0-.12-.14-.14-.15-.11.07-.18,0-.06-.13-.11-.16-.07,0-.12,0a2,2,0,0,0-.29-.11,1.47,1.47,0,0,0-.36,0c-.12,0-.3-.26-.47-.31s-.33-.06-.45-.1-.13-.08-.23-.11-.17.06-.23.06a1.18,1.18,0,0,1-.35-.12.5.5,0,0,1,0-.13c-.05-.09-.19-.16-.22-.23s-.12-.16-.11-.24a.39.39,0,0,0-.15-.28c-.08,0-.27.12-.3.2s0,.14,0,.18-.13.17-.12.24.25.14.27.22,0,.18,0,.26.22.33.19.38a.55.55,0,0,0-.2.11c-.07,0-.15.13-.2.13a2.3,2.3,0,0,0-.52.14.58.58,0,0,0-.24.34,1.37,1.37,0,0,1-.2.38c-.13.12-.3.06-.41.14s0,.14,0,.18-.32.4-.42.42-.08-.18-.13-.22-.23-.34-.31-.41-.19.05-.24,0-.11-.2-.2-.24-.41,0-.55-.09-.09-.2-.14-.32-.06-.06-.1-.15.06-.28,0-.31-.1-.34-.14-.33a.82.82,0,0,1-.66-.14c0-.07,0-.3-.1-.38s-.29-.33-.32-.35-.18-.19-.28-.19-.1.12-.17.13-.18-.09-.19-.08-.27-.19-.35-.23,0-.17,0-.21.1-.08.13-.15-.11-.18-.1-.3.06-.13,0-.16-.22-.19-.14-.34a1.47,1.47,0,0,0,.1-.22c.05-.11.07-.29,0-.34a1.74,1.74,0,0,1-.57.08s-.31-.13-.28-.19a.72.72,0,0,0,0-.54c0-.07,0-.18-.12-.26s-.29-.07-.42-.19a2,2,0,0,1-.26-.43.46.46,0,0,0-.17-.17c-.06,0-.16,0-.2,0a1.91,1.91,0,0,0-.48-.39c-.11,0-.49,0-.74-.11-.07,0-.19-.19-.29-.22a1.19,1.19,0,0,0-.47-.08c-.27,0-.3-.06-.6-.1l-.24,0a.31.31,0,0,0-.34-.14,4.87,4.87,0,0,1-.61.14s-.06-.1-.16-.11a2.51,2.51,0,0,0-.52.14c-.06,0-.14.2-.22.21s-.18,0-.27,0a.92.92,0,0,0-.43.42s0,.16,0,.23a1.4,1.4,0,0,1,0,.43c-.26,0-.63-.14-.76-.06s-.1.12-.15.17-.25.24-.35.23a1.78,1.78,0,0,0-.46,0,.36.36,0,0,0-.19.13c-.09.09-.24,0-.34,0a.76.76,0,0,0-.28.15c0,.06,0,.18-.09.23a1,1,0,0,1-.41.14s-.07.09-.11.1-.16,0-.2,0,0,.23-.09.31a.67.67,0,0,1-.24.11c-.12,0-.34,0-.4,0s-.06.16-.11.24-.35.13-.38.15a1,1,0,0,0-.29.29c-.08.1-.23,0-.36.1s-.14.15-.2.2a.34.34,0,0,1-.24,0s0-.1-.1-.1a1.64,1.64,0,0,0-.41.12c-.06,0,0,.15-.07.29s-.2.18-.32.26-.09.34-.15.38-.28-.09-.42,0A1.06,1.06,0,0,0,107.46,131.1Z"/><path class="cls-3" d="M110.61,101.56a2,2,0,0,1,3.75-1.37,9.94,9.94,0,0,1,.17,6.32A9.91,9.91,0,0,1,110.61,101.56Z"/><path class="cls-3" d="M125.78,100.23a10,10,0,0,1-3,5.56,9.91,9.91,0,0,1-.93-6.25,2,2,0,0,1,3.93.69Z"/><path class="cls-3" d="M129.54,104.31a10,10,0,0,1-3,2.62,10,10,0,0,1,.61-6.29,2,2,0,0,1,3.78,1.24,2,2,0,0,1,3.06,2.55,10,10,0,0,1-5,3.85A10.05,10.05,0,0,1,129.54,104.31Z"/><path class="cls-3" d="M105.86,104.07a2,2,0,0,1,3.51-1.88,10,10,0,0,1,1.69,6.09,9.91,9.91,0,0,1-3.45-2,10,10,0,0,1,1.29,3.8,9.92,9.92,0,0,1-5.6-2.92,2,2,0,0,1,2.56-3Z"/><polygon class="cls-3" points="114.8 134.62 114.8 135.44 115.26 135.44 115.26 139.38 116.17 139.38 116.17 134.62 114.8 134.62"/><path class="cls-3" d="M118.56,139.37l.39-.81a5.4,5.4,0,0,0,.67-2.35c0-.83-.35-1.67-1.3-1.67s-1.33.89-1.33,1.74c0,.57.24,1.48,1,1.48a.81.81,0,0,0,.59-.26h0l-.91,1.86Zm-.25-4c.32,0,.4.52.4.75s-.07.82-.43.82-.37-.51-.37-.74S118,135.36,118.31,135.36Z"/><polygon class="cls-3" points="120.31 134.62 120.31 135.44 121.59 135.44 120.11 139.38 121.08 139.38 122.88 134.62 120.31 134.62"/><polygon class="cls-3" points="123.4 134.62 123.4 135.44 124.68 135.44 123.2 139.38 124.17 139.38 125.97 134.62 123.4 134.62"/><path class="cls-3" d="M128.41,56.31c.3-.69,1.13-.55,1.88-.79a26.37,26.37,0,0,0-3.14,7.13,22.9,22.9,0,0,0-14.33,0,26.37,26.37,0,0,0-3.14-7.13c.76.24,1.58.1,1.88.79a.87.87,0,0,1-.13.86,1.86,1.86,0,0,1,2.08.79,1.37,1.37,0,0,1-.09,1.13l-.08.17c-.3.76-.21,1.51.21,1.68a.73.73,0,0,0,.44,0c.34-.11.68-.21,1-.29l.07,0a.89.89,0,0,1-.59-.64c-.15-.73.62-1.08,1.1-1.71.7.39,1.54.41,1.69,1.15a.85.85,0,0,1-.3.81h.1l.85-.11H118a.85.85,0,0,0,.54-.18c.32-.33.11-1-.46-1.63l-.14-.13a1.33,1.33,0,0,1-.52-1c0-.7.66-1.3,1.6-1.55a.85.85,0,0,1-.45-.74c0-.75.82-.94,1.42-1.46.59.52,1.41.71,1.41,1.46a.86.86,0,0,1-.44.74c.93.25,1.59.85,1.59,1.55a1.33,1.33,0,0,1-.52,1l-.13.13c-.58.58-.79,1.3-.47,1.63a.84.84,0,0,0,.53.18H122l.86.11H123a.83.83,0,0,1-.29-.81c.15-.74,1-.76,1.68-1.15.48.63,1.25,1,1.1,1.71a.89.89,0,0,1-.59.64l.07,0c.35.08.69.18,1,.29a.7.7,0,0,0,.43,0c.43-.17.52-.92.22-1.68l-.08-.17a1.37,1.37,0,0,1-.09-1.13,1.86,1.86,0,0,1,2.08-.79A.87.87,0,0,1,128.41,56.31Zm11.05,60.27c2.37-10.6,10.17-14.82,10.17-24a14.44,14.44,0,0,1,1.7,7.4c0,10.83-6.78,15.8-6.78,24.72,0,5.93,4,10.72,9,10.72.2,0,.4,0,.6,0a21.05,21.05,0,0,1-3.52,2.55L148,139.51a18.18,18.18,0,0,1-8.74-12.17,20.19,20.19,0,0,0,.84-5.75A19.71,19.71,0,0,0,139.46,116.58Zm-43.75.09a2.23,2.23,0,0,1,2.08-2.35,2,2,0,0,1,1.41.63,5.63,5.63,0,0,0,1.62-4.07A4,4,0,0,0,96.76,107c-3.85,0-7,4-7,8.93a24.11,24.11,0,0,0,1.5,8.1c.68,1.75,1.8,3.56,2.58,5.59a9.51,9.51,0,0,0-2.67-1.21c-1.71-5.73-4.36-8.72-4.36-14.64,0-5.7,3.45-10.31,7.71-10.31a8,8,0,0,1,7.91,8v.33a20,20,0,0,0-2.23,6.14A3.48,3.48,0,0,1,97.79,119,2.23,2.23,0,0,1,95.71,116.67Zm64.86,6.78a3.83,3.83,0,0,1,.65-2.14,21.46,21.46,0,0,1-.95,4.77,6.42,6.42,0,0,0-2.17-.38,5.63,5.63,0,0,0-2.79.73,10.66,10.66,0,0,1-2.39-6.82c0-6.82,5-12.69,1.86-20.13,1.84,2.4,2.47,5.44,2.47,9.07,0,3.12-.63,6.67-.63,8,0,3.63,1.7,6.67,4,7.57A3.22,3.22,0,0,1,160.57,123.45Zm-31.16,26.79a15,15,0,0,1-.15-2.17c0-8.21,5.5-9.23,8.38-16.85l.19-.36c.78,9.8-5.35,12.25-5.35,17.07,0,.18,0,.36,0,.53Zm6.66-3.84a5.38,5.38,0,0,1,4.64-2.68Zm5.92-6.89a8.91,8.91,0,0,1,4.22,1l-2.76,1.59a9,9,0,0,0-2.66-.42,7.55,7.55,0,0,0-4.64,1.59A6.38,6.38,0,0,1,142,139.51Zm-22.11,12.61a2.29,2.29,0,0,1,2.28-2.29,2.71,2.71,0,0,1,2.83,2.55,3.25,3.25,0,0,1,0,.44l-5,2.86-7-4.05c.16-3.36,2.78-5.61,8.59-7.21,1.6-.44,4.64-1.25,6.15-2.54-1.22,3.41-11,4.76-11,9A3.35,3.35,0,0,0,121,154.1,2.29,2.29,0,0,1,119.88,152.12Zm-16.24-5.88a17.59,17.59,0,0,1,9.92-2.78h.34a12.07,12.07,0,0,0-5.29,5.62h-.06Zm-9.4-5.43c1.77-.8,3.13-2.36,4.24-5.19a32.84,32.84,0,0,0,7.15,5,21,21,0,0,0-7.71,2.26Zm-11.59-8.92a9,9,0,0,1,6-2.21c3.81,0,6.9,2.58,6.9,5.76A3.66,3.66,0,0,1,92,139.18a2.86,2.86,0,0,1-.73-.1L90,138.39a2.84,2.84,0,0,1-.63-1,1.54,1.54,0,0,0,.43,0,1.83,1.83,0,1,0,0-3.65,3.56,3.56,0,0,0-3.25,2.28A21.46,21.46,0,0,1,82.65,131.89Zm51.21-63.41a3.51,3.51,0,0,1,3.72-3.24,6.9,6.9,0,0,1,6.85,6.94,5.68,5.68,0,0,1,0,.59,7.65,7.65,0,0,1,3.36-1.94c-1.3,3.25-2.41,5.4-5.24,6.72s-4.89.94-7.78,3c-3.44,2.43-7,9.55-11.61,9.55-3.43,0-5.69-2.3-6.6-5.24a7.25,7.25,0,0,0,5,1.81c5.21,0,7.09-4,11.41-8.06,3.05-2.85,8.92-2.76,8.92-7.78a2.37,2.37,0,1,0-4.73,0,2.54,2.54,0,0,0,.15.88A3.46,3.46,0,0,1,133.86,68.48Zm-7.13,6.71a2.47,2.47,0,0,1,2.41,2.52c0,3.36-3.44,7-7.64,7-2.85,0-4.74-1.61-4.74-4.58a8.63,8.63,0,0,1,1.83-5.65,11.32,11.32,0,0,0-.61,3.69c0,2.28,1.16,4.67,3.33,4.67,2.4,0,4.7-1.83,4.7-3.91,0-.59-.68-1.07-1.51-1.07a1.65,1.65,0,0,0-1.39.63A4,4,0,0,1,126.73,75.19ZM99.48,78.74a2.09,2.09,0,0,1-2.09-2.09c0-1.73.93-3.13,2.09-3.13a3,3,0,0,0-.9-.15c-2.88,0-5.22,4.57-5.22,10.2A31.52,31.52,0,0,0,95.79,95,23.12,23.12,0,0,1,90,79.87c0-6.91,3.85-12.51,8.6-12.51a5.75,5.75,0,0,1,5.45,6C104,76.34,102,78.74,99.48,78.74Zm1.24,4.85a1.91,1.91,0,1,1-1.4,3.19,6.05,6.05,0,0,0-1.74,4.61c0,3,1.75,5.47,4.42,7.72a10.24,10.24,0,0,1-5.74-9C96.26,86.51,98.26,83.59,100.72,83.59Zm-22,0a4.84,4.84,0,0,1,2.8-.9c8.5,0,8.41,12.79,17.38,16.41a18,18,0,0,1-9.22-6.4c.5,4.2,6.09,8.21,11.28,8.46-5.07,1.56-10.84,1.7-11.24-3.67-5.38-.61-3.86-6.75-2.72-8.75-1.45-2.28-2.67-4-4.73-4a2.72,2.72,0,0,0-2.8,2.63,2.59,2.59,0,0,0,2.8,2.33,2.18,2.18,0,0,0,1.83-1,3,3,0,0,1,.45,1.57,3.48,3.48,0,0,1-3.66,3.26A4.2,4.2,0,0,1,78.71,93Zm1.64,12.13c2.15,1.68,3.09,4.93,3.2,7.6.38,9.08,1.79,15.19,4.74,22-6.58-9.43-4.7-20.56-8.7-23.55l-.12-.28a8.66,8.66,0,0,1,.52-1.06,5.63,5.63,0,0,0,.72-2.77A5.71,5.71,0,0,0,80.35,95.73Zm19.82,48.5a15,15,0,0,1,11.25-2.37,18.8,18.8,0,0,0-9.71,3.26Zm9.89,5.71c1.5-3.69,5.33-6,9.37-6.66-3.78.84-7.61,3.14-8.33,7.26Zm16.87,1.74a4.74,4.74,0,0,0-4.24-3.83c1.35-.67,2.74-1.32,3.87-2a10.93,10.93,0,0,0,.93-.63,17.07,17.07,0,0,0-.23,2.88,16.26,16.26,0,0,0,.32,3.24Zm25.84-18.27c-3.27-.49-6.22-3.9-6.22-8.67a16.87,16.87,0,0,1,.95-5.46,53.83,53.83,0,0,1,2.26-5.35c1.59-3.49,3.31-7.44,3.54-12.7a13.79,13.79,0,0,1-.21,8c-.43,1.63-1,3.24-1.38,4.86a21.76,21.76,0,0,0-.79,5.48,12.72,12.72,0,0,0,2.85,8.08,5.7,5.7,0,0,0-1.37,3.71A5.6,5.6,0,0,0,152.77,133.41Zm8.52-14.9a6,6,0,0,0-1.81,1.8,8.21,8.21,0,0,1-.86-3.8c0-1.29.63-4.84.63-8a24.08,24.08,0,0,0-.39-4.55c.17.23.33.47.47.7,0,.22,0,.45,0,.68a5.65,5.65,0,0,0,1.66,4c.27,1.82.22,3.5.34,4.7Zm-74.75,7.85c-5.81-5.41-5.33-14.28-7.52-17a5.65,5.65,0,0,0,1.48-2.51C81.5,111.28,82,118.79,86.54,126.36Zm-7.83-10c2.27,3.21,3.5,7,6.61,10.9-2.78-2.31-4.54-4.74-6.58-6.65,0-.37,0-.73,0-1.1Zm.41,7.32a24.15,24.15,0,0,0,4.55,4.83,17.4,17.4,0,0,1-3.52-1.27A21.12,21.12,0,0,1,79.12,123.7ZM81.7,130l-.16.11-.12-.21Zm46.07-64c-2.6-1.81-5.39-2.43-9.65-2-3.37.35-5.65,2.11-7.17,2.27-.51,0-1.18,0-1.25-.63-.12-1.15.64-1.9,1.35-2.76,0,.6.3,1.27.93,1.2,2.59-.27,3.84-.91,6.65-1.21C121.6,62.58,126.25,63.54,127.77,66ZM104.05,84.11a34.2,34.2,0,0,1,2-4.39,17.7,17.7,0,0,0,1.87,4.84l.26.49c-.63,2.7-1.19,4-2.71,5.7A8.67,8.67,0,0,1,104.05,84.11Zm10.55-1.94c.26,3.57-.17,6-1.72,8.22-1.5-1.63-2.36-2.46-2.88-4.56l.8-.54A22.32,22.32,0,0,0,114.6,82.17Zm-7.73,9.5A19.84,19.84,0,0,1,105,99.76c-1.86-3.07-2.26-6.54-2.26-10.8a11.48,11.48,0,0,0,1.34,2.7l1.17,1.8,1.45-1.59Zm12.23-.53a9.91,9.91,0,0,1-.61,4.12A8.66,8.66,0,0,1,113.78,92l.47-.68a11,11,0,0,0,1.57-3.28A8.78,8.78,0,0,0,119.1,91.14Zm-6.87,1a15.79,15.79,0,0,1-.31,5.28c-2.77-1.84-3.47-3.84-4.08-7A10.81,10.81,0,0,0,109,88.09a8.53,8.53,0,0,0,.67,1.14,13.23,13.23,0,0,0,.92,1.15l1,1.13ZM136.49,94c0-2,1.31-3.61,2.94-3.64h0a2.29,2.29,0,0,1,1.41,4.08,3.55,3.55,0,0,0,2.86-3.63,3.26,3.26,0,0,0-3.28-3.24,5.37,5.37,0,0,0-4.64,2.66,11,11,0,0,0-.33-1.82,7.73,7.73,0,0,1,6.42-3.09,5.87,5.87,0,0,1,5.76,6c0,4.16-2.44,7.53-5.45,7.53a6.11,6.11,0,0,1-4.73-2.09,4.08,4.08,0,0,1-1-2.71Zm14.39-21.73a4.4,4.4,0,0,1,4.1,4.64c0,2.27-2.61,4.12-5.83,4.12-1.69,0-2.69-.17-4.37-.17A16.44,16.44,0,0,0,134,85.4c-.16-.2-.34-.4-.52-.59l-.17-.17c2.51-3.1,6.23-4.49,11.22-4.49,2.25,0,3,.22,4.18.22,2.42,0,4.38-1.39,4.38-3.09,0-1.21-.71-2.19-1.58-2.19-1.3,0-2.36,1.35-2.36,3,0,.09,0,.18,0,.27A2.94,2.94,0,0,1,148,76C148,73.92,149.26,72.25,150.88,72.25Zm6,11a7.52,7.52,0,0,1,4.4,2.21v8a5.74,5.74,0,0,0-.73.75c-2.5-4.74-4.72-9.64-12.2-9.64,5.42,0,6.87,6.48,11,12.43a5.12,5.12,0,0,0-.06.78,5.74,5.74,0,0,0,.72,2.77,8.66,8.66,0,0,1,.52,1.06c-.05.13-.11.25-.17.38a41.24,41.24,0,0,1-3.8-3.09c-7.08-6.29-6.34-15.22-13.87-15.22A10.74,10.74,0,0,0,135,87.07c-.06-.14-.13-.27-.2-.41a12.3,12.3,0,0,1,9.73-4.16c2.29,0,3.68,1.06,5.61,1.06,4,0,7.07-3.94,7.07-6.41C158.1,78.93,157.66,81.16,156.89,83.23ZM99.38,90.32a.82.82,0,0,1,1.64.05.49.49,0,0,1,0,.12c-.34,3.13-.28,4.69,1,7.4C99.57,96.14,99.07,94.05,99.38,90.32Zm9.26,49.6c-16.51-7.48-16.84-21.46-16.84-24,0-4.32,2.65-6.93,5-6.93a2,2,0,0,1,2.06,1.93,4,4,0,0,1-.28,1.52,3.67,3.67,0,0,0-.75-.08,4.22,4.22,0,0,0-4.08,4.35C93.71,117.93,94,130.65,108.64,139.92ZM88.28,83.65c-5.76-3.29-3.61-8.54,1.5-11.89A19,19,0,0,0,88,79.87,24.72,24.72,0,0,0,88.28,83.65ZM120,66.89c-4.85.42-7.63,2.92-12.39,2.92-3,0-3.28-1.92-3.28-2.56a5.57,5.57,0,0,1,4.38-5A4.1,4.1,0,0,0,107.05,65c0,1.54,1.46,2.3,3.22,2.3,3.38,0,5.69-2.06,9.92-2.06,3,0,7.56.22,8.54,3.93a6.28,6.28,0,0,1,3.89,5.54c-1.54-3.2-4.41-5.35-7.7-5.35-4.72,0-9.24,5.48-10.18,9.65a21.29,21.29,0,0,1-5.06,4.61,14.28,14.28,0,0,1-2-6.74A37.11,37.11,0,0,1,120,66.89Zm1.56.59a6.93,6.93,0,0,0,2.32.4,6.82,6.82,0,0,0,2.31-.4,3.85,3.85,0,0,0-2.31-.71A3.9,3.9,0,0,0,121.56,67.48ZM84.25,95.72c3.56,3.4,3.88,6.06,1.59,13.32C85.84,101.4,84.25,98,84.25,95.72Zm22.6,4A19,19,0,0,0,108,95.94a9.41,9.41,0,0,0,2,2.18A3.78,3.78,0,0,0,109,99.87,3.61,3.61,0,0,0,106.85,99.75Zm25.77-1.6a12.24,12.24,0,0,1-.57,1.37,3.67,3.67,0,0,0-4.94-1.24,3.66,3.66,0,0,0-6.9,1c0,.1,0,.2,0,.3H120a22.66,22.66,0,0,0-4,.36l-.09-.28a3.65,3.65,0,0,0-2.31-2.23,17.45,17.45,0,0,0,.35-2.7,11.59,11.59,0,0,0,4,2.14l1.47.48.59-1.44a8.8,8.8,0,0,0,.63-2.44,14.34,14.34,0,0,0,.1-1.65,8.94,8.94,0,0,0,2.37.31c3.27,0,5.86-2.49,7.71-4.51l1.21-1.38C134.78,89,134,93.9,132.62,98.15Zm2.25,7.19a18.5,18.5,0,0,1,1.69-1.51c2.94-2.34,5.52-2.2,9.1-4-1.67,2.47-2.55,4.85-4.7,7.81a16.24,16.24,0,0,1-2.19,2.5A22.31,22.31,0,0,0,134.87,105.34ZM154.4,131.4a3.7,3.7,0,0,1,3.7-3.7,4.19,4.19,0,0,1,1.46.26,21.26,21.26,0,0,1-4,6.12A3.68,3.68,0,0,1,154.4,131.4Z"/></svg>
