<svg id="Layer_1" data-name="Layer 1" width="240" height="240" xmlns="http://www.w3.org/2000/svg" viewBox="0 0 240 240"><defs><style>.cls-1{fill:#fff;}.cls-2{fill:#1a507d;}.cls-3{fill:#205f3d;}.cls-4{fill:#983029;}.cls-5{fill:#f3d4e5;}.cls-6{fill:#fde38c;}.cls-7{fill:#eed3aa;}</style></defs><path class="cls-1" d="M109,51.26l-5.25-7L69.43,62.61v56.91l.19.21c.08.09,8.46,9.53,8.59,16.23.05,2.83,1.48,5.84,3.46,8.69-2.67-1.6-10-5.34-16-2.38-6.49-3.1-11.51-1.93-14.6-.36a15.82,15.82,0,0,0-5.54,4.68l-.1.13a10.41,10.41,0,0,0-1.24,2L43.57,150,45,149.7a6.62,6.62,0,0,1,2.15-.17h.11c.21,0,5.11,0,14.6,7a125.47,125.47,0,0,0,11.26,7.51l-.71.49.14.48L74,170.55a16.89,16.89,0,0,0-4.09,7.25l0,.21.06.21c.21.67,5.15,16.5,5.38,17.14,1.07,3,3.15,3.64,4.71,3.64,3.53,0,5.56-4.48,6.46-7.14l.11-.32s-.31-.51-.44-.74a4.86,4.86,0,0,0,2.47-4,4.63,4.63,0,0,0-.11-1l-.34-1.37c8.71-3.39,20-5.27,31.86-5.27s23.15,1.88,31.87,5.27c-.13.48-.35,1.37-.35,1.37a4.63,4.63,0,0,0-.11,1,4.85,4.85,0,0,0,2.48,4l-.44.74.1.32c.9,2.66,2.93,7.14,6.46,7.14,1.56,0,3.64-.63,4.71-3.63.23-.65,5.17-16.48,5.38-17.15l.07-.21-.06-.21a16.83,16.83,0,0,0-4.09-7.25l1.6-6-.7-.48a125.47,125.47,0,0,0,11.26-7.51c9.49-7,14.39-7,14.6-7h.11a6.62,6.62,0,0,1,2.15.17l1.39.29-.57-1.29a10.41,10.41,0,0,0-1.24-2l-.1-.13a15.71,15.71,0,0,0-5.54-4.68c-3.09-1.57-8.11-2.74-14.6.36-6-3-13.38.78-16,2.38,2-2.85,3.41-5.86,3.46-8.69.13-6.7,8.51-16.14,8.59-16.23l.19-.21V62.61L136.3,44.3l-5.25,7L120,41ZM79.21,150.44h0c.14-.62,2.48-1.76,5.05-2.47a69.14,69.14,0,0,0,8.56,8.14c-2.17.53-4.28,1.12-6.3,1.78C79.38,152.87,79.21,150.56,79.21,150.44ZM155.74,148c2.57.71,4.91,1.85,5,2.47h0c0,.12-.16,2.42-7.31,7.44-2-.66-4.13-1.25-6.29-1.78A69.17,69.17,0,0,0,155.74,148Z"/><path d="M193,147.53s-6.63-9.58-18.62-3.24c-6.57-4.07-16,2.5-16,2.5s4.85,1.33,4.6,3.47c-.12,1-1,4-9.16,9.63A85.84,85.84,0,0,0,143,157c.71-.52,1.43-1.06,2.17-1.64,3.42-2.67,14.64-12,14.78-19.43s8.77-17.1,8.77-17.1V63.7L136.82,46.64,131.29,54,120,43.48,108.71,54l-5.52-7.33L71.25,63.7v55.13s8.63,9.55,8.77,17.1,11.36,16.76,14.78,19.43c.74.58,1.46,1.12,2.18,1.64a86,86,0,0,0-10.77,2.89c-8.18-5.59-9-8.64-9.16-9.63-.25-2.14,4.6-3.47,4.6-3.47s-9.43-6.57-16-2.5C53.66,138,47,147.53,47,147.53s5.56,0,15.86,7.57A113.64,113.64,0,0,0,76.64,164a24.72,24.72,0,0,0-2.18,1.31s.66,2.45,1.54,5.79A13.62,13.62,0,0,0,71.73,178s5,16.13,5.26,16.76a3.14,3.14,0,0,0,3,2.43c2.15,0,3.73-3.17,4.57-5.44l-.89-1.49c.4-.28.82-.53,1.24-.78,2-1.18,2-2.6,1.8-3.3s-.59-2.31-.74-2.86c9.32-3.95,21.3-6,34-6s24.71,2,34,6c-.15.55-.6,2.29-.74,2.86s-.22,2.12,1.8,3.3c.42.25.84.5,1.24.78l-.89,1.49c.84,2.27,2.42,5.44,4.57,5.44a3.14,3.14,0,0,0,3-2.43c.23-.63,5.26-16.76,5.26-16.76A13.62,13.62,0,0,0,164,171.1c.88-3.34,1.54-5.79,1.54-5.79a25.26,25.26,0,0,0-2.17-1.31,114.44,114.44,0,0,0,13.74-8.9C187.42,147.5,193,147.53,193,147.53Z"/><path class="cls-2" d="M157.87,135.87c.22-7.89,8.78-17.83,8.78-17.83V65l-29.2-15.6-6,7.66L120,46.36,108.51,57l-6-7.66L73.35,65V118s8.56,9.94,8.77,17.83c.15,5.16,7.32,12.6,14,17.84,1.16.91,2.42,1.84,3.74,2.75a124,124,0,0,1,40.32,0c1.32-.91,2.58-1.84,3.74-2.75C150.56,148.47,157.73,141,157.87,135.87Z"/><path class="cls-1" d="M137.81,50.88S135.57,54,133,57l1.31,4.27L120,48,105.66,61.26,107,57c-2.54-3-4.78-6.11-4.78-6.11L74.52,65.66V117.6l10.77-5.75a7.32,7.32,0,0,1,4.06-2.4.74.74,0,0,1,.36,0h0c.22-.65.37-.74.48-.76a.8.8,0,0,1,.3,0,1.84,1.84,0,0,1,.4-.77c0-.05.18-.22.94-.31a1.63,1.63,0,0,1,.08-.29,7.22,7.22,0,0,1,3.54-3.22c.67-.28,4-1.6,4.44-1a.33.33,0,0,1,0,.06,1.65,1.65,0,0,1-.22.94l4.76-2.54a18,18,0,0,0,31.16.06l5.27,2.82a2.15,2.15,0,0,1-.38-1.28.11.11,0,0,1,0-.06c.47-.63,3.77.69,4.45,1a7.23,7.23,0,0,1,3.53,3.22,1.63,1.63,0,0,1,.08.29c.77.09.9.26.95.31a2,2,0,0,1,.4.77.75.75,0,0,1,.29,0c.12,0,.27.11.49.77a.83.83,0,0,1,.38,0,7.27,7.27,0,0,1,4.1,2.46l.31.38,9.95,5.31V65.66ZM95,103.72a7.18,7.18,0,0,1-4.1,2.45.73.73,0,0,1-.38,0c-.23.65-.36.74-.5.77a.89.89,0,0,1-.28,0,1.9,1.9,0,0,1-.4.77c0,.06-.18.23-1,.31a.91.91,0,0,1-.08.29,7.19,7.19,0,0,1-3.53,3.23c-.68.28-4,1.6-4.45,1,0,0,0,0,0-.06a3.39,3.39,0,0,1,.78-1.92h-.71c-.68-.06-3.84-.34-4.34-1a.3.3,0,0,1-.06-.2c0-.4,1.34-1.45,2.92-1.94a.79.79,0,0,1-.13-.14.36.36,0,0,1-.09-.2.8.8,0,0,1,.44-.63,11.22,11.22,0,0,1-2-1.77.76.76,0,0,1-.21-.5.65.65,0,0,1,.26-.39A4.55,4.55,0,0,1,80,103.4a7.94,7.94,0,0,1,2.23,1l-.27-.35c-.42-.57-.66-1.14-.51-1.42s1-.45,1.82-.4c-.89-1.62-1.16-3.43-.83-3.78.52-.57,3.11,1.37,3.72,1.94a10.55,10.55,0,0,1,1.06,1.27l.07.1c-.81-1.5-1.57-4.06-1.19-4.48a.55.55,0,0,1,.43-.17,4.44,4.44,0,0,1,2.54,1.28l.08.07c-.3-1.55-.39-3.7,0-4s1.51.58,2.62,1.76l.13.17c.06.08.11.17.16.25.64-1.72,1-1.65,1.1-1.61a.88.88,0,0,1,.42.38,6.58,6.58,0,0,1,1,4.59,4,4,0,0,1,2.5-.33l0,.06a.38.38,0,0,1,.07.18C97.35,100.54,96.15,102.32,95,103.72Zm69.43,5.78c-.49.67-3.65,1-4.34,1h-.7c.53.8.89,1.65.77,1.92l0,.06c-.46.63-3.77-.69-4.45-1a7.29,7.29,0,0,1-3.53-3.23.87.87,0,0,1-.07-.29c-.77-.08-.91-.25-1-.31a1.79,1.79,0,0,1-.4-.77,1,1,0,0,1-.29,0c-.13,0-.27-.12-.49-.77a.75.75,0,0,1-.38,0,7.17,7.17,0,0,1-4.11-2.45c-1.14-1.4-2.35-3.18-2.29-3.78a.52.52,0,0,1,.07-.18l0-.06a4,4,0,0,1,2.51.33,6.63,6.63,0,0,1,1-4.59,1,1,0,0,1,.42-.38c.15,0,.46-.11,1.1,1.61.06-.08.1-.17.17-.25a1,1,0,0,1,.13-.17c1.1-1.18,2.06-2.13,2.61-1.76s.34,2.44,0,4l.07-.07a4.46,4.46,0,0,1,2.55-1.28.56.56,0,0,1,.43.17c.38.42-.39,3-1.19,4.48a.3.3,0,0,1,.07-.1,9,9,0,0,1,1.06-1.27c.61-.57,3.2-2.51,3.72-1.94.33.35.06,2.16-.84,3.78.84,0,1.66,0,1.83.4s-.09.85-.52,1.42a4.11,4.11,0,0,1-.27.35,8.07,8.07,0,0,1,2.23-1,4.59,4.59,0,0,1,2.85.33.63.63,0,0,1,.25.39.79.79,0,0,1-.2.5,11.22,11.22,0,0,1-2,1.77c.23.16.45.37.43.63a.34.34,0,0,1-.08.2l-.13.14c1.57.49,2.88,1.54,2.91,1.94A.25.25,0,0,1,164.43,109.5Z"/><path class="cls-3" d="M74.52,117.6s8.54,9.82,8.77,18.24c0,.14,0,.28,0,.43l25.72-29.48a18.08,18.08,0,0,1-4.57-5.2Z"/><path class="cls-4" d="M135.63,101.65a18.12,18.12,0,0,1-4.61,5.21l25.65,29.41a3.22,3.22,0,0,0,0-.43c.24-8.42,8.78-18.24,8.78-18.24Z"/><path d="M90.09,73.9l.41,1.29-4.16,1.3L86,75.41c.6-2.4.94-3.87,1-4.43a2.76,2.76,0,0,0,0-1.23.84.84,0,0,0-.25-.42.37.37,0,0,0-.37,0,.34.34,0,0,0-.26.26,1.49,1.49,0,0,0,.1.71l.23.72-1.7.53-.08-.28a5.45,5.45,0,0,1-.25-1,1.86,1.86,0,0,1,.09-.83,1.8,1.8,0,0,1,.5-.75,2.72,2.72,0,0,1,.93-.49,2.53,2.53,0,0,1,1.89,0,2,2,0,0,1,1,1.23,3.57,3.57,0,0,1,.1,1.48,28.36,28.36,0,0,1-1,3.68Zm21-7.48.24,2.64a6.51,6.51,0,0,1,0,1.31,2,2,0,0,1-.34.81,1.87,1.87,0,0,1-.7.58,2.82,2.82,0,0,1-1,.24,3.71,3.71,0,0,1-1.19-.06,1.55,1.55,0,0,1-.79-.45,2,2,0,0,1-.46-.69,4.59,4.59,0,0,1-.23-1.21l-.24-2.76a5.28,5.28,0,0,1,0-1.65,1.68,1.68,0,0,1,.67-.94,2.63,2.63,0,0,1,1.33-.44,2.83,2.83,0,0,1,1.18.12,2,2,0,0,1,.82.49,1.87,1.87,0,0,1,.41.71A6.85,6.85,0,0,1,111.09,66.42Zm-2-.49a3.27,3.27,0,0,0-.13-.79.28.28,0,0,0-.3-.13.27.27,0,0,0-.27.19,2.63,2.63,0,0,0,0,.79l.34,3.86a2.87,2.87,0,0,0,.14.82.35.35,0,0,0,.58-.07,2.93,2.93,0,0,0,0-.75Zm24.23.8-.21,2.65a6.09,6.09,0,0,1-.21,1.3,1.86,1.86,0,0,1-.47.74,1.71,1.71,0,0,1-.78.45,3.16,3.16,0,0,1-1,.08,3.9,3.9,0,0,1-1.17-.26,1.67,1.67,0,0,1-.7-.58,2.15,2.15,0,0,1-.34-.76,4.67,4.67,0,0,1,0-1.23l.23-2.76a5.19,5.19,0,0,1,.32-1.62,1.62,1.62,0,0,1,.82-.81,2.65,2.65,0,0,1,1.38-.22,2.76,2.76,0,0,1,1.15.32,2,2,0,0,1,.72.62,1.89,1.89,0,0,1,.29.77A7.37,7.37,0,0,1,133.29,66.73Zm-1.92-.82a3.27,3.27,0,0,0,0-.8q0-.17-.27-.18a.3.3,0,0,0-.31.15,2.63,2.63,0,0,0-.13.77l-.32,3.87a3.41,3.41,0,0,0,0,.83.35.35,0,0,0,.58,0,2.67,2.67,0,0,0,.13-.75Zm22.34,9-.39,1.3-4.18-1.26.33-1.08q2.78-2.48,3.34-3.09a3.28,3.28,0,0,0,.69-1,.89.89,0,0,0,0-.5.43.43,0,0,0-.65-.18,1.55,1.55,0,0,0-.31.64l-.22.73-1.7-.52.09-.27a5.24,5.24,0,0,1,.37-1,1.86,1.86,0,0,1,.54-.63,1.65,1.65,0,0,1,.84-.34,3,3,0,0,1,2.58,1.2,2,2,0,0,1,.16,1.59,3.44,3.44,0,0,1-.75,1.29,29.58,29.58,0,0,1-2.85,2.51Z"/><path class="cls-2" d="M117.51,135.49a.3.3,0,0,0,0-.1.35.35,0,0,0-.08-.22,2.79,2.79,0,0,0,1.52-.41h0a2.42,2.42,0,0,0,.57-1.24.24.24,0,0,0,.17,0h.33a.24.24,0,0,0,.2-.12,3.76,3.76,0,0,0,.52-1.17.32.32,0,0,0,.24.19c.72.19,4.17-.95,6.27-3.52s3.38-4.7,3.3-5.38a.34.34,0,0,0-.24-.3,7.34,7.34,0,0,0-3.66.68l0-.16a7,7,0,0,0,.18-1.56,9.74,9.74,0,0,0-1.66-5.24l-.33-.36a.29.29,0,0,0-.43,0,7.11,7.11,0,0,0-1.26,2.55,4.07,4.07,0,0,0-.42-.73l-.17-.22-.05,0c-2.06-2.2-3-2.85-3.54-2.51l-.08.07a3.81,3.81,0,0,0-.27,1.85,20.16,20.16,0,0,0,.55,4.56,5.29,5.29,0,0,0-.59-.75c-1-.93-2.63-1.89-3.6-1.84l-.5.2c-.07,0,0,0-.05.07-.38.72,1,5.38,2.31,7.12l.42.49.14.13a.41.41,0,0,0,.35.08l0,0a.5.5,0,0,0,0,.12s0,.12,0,.14v0s0,.59,0,.95c-.58-.91-1.21-1.84-1.77-2.6a14.39,14.39,0,0,0-1.55-1.87c-1.44-1.34-4.28-3.08-5-2.93a.33.33,0,0,0-.25.19c-.24.5,0,3,1.47,5.52h0c-1.4-.14-2.58,0-2.82.42l0,0a.65.65,0,0,0,0,.2,4.12,4.12,0,0,0,.82,1.72,8,8,0,0,0,1.6,1.61l.14,0a.54.54,0,0,0,.09.12l.23.13-.09.06,0,0a.21.21,0,0,0,0-.07.3.3,0,0,0-.14-.19,16.29,16.29,0,0,0-4.84-2.49c-1.39-.21-3.28-.1-4,.45l-.3.43,0,.06s0,0,0,.07l.22.44a14.91,14.91,0,0,0,3.07,2.71s0,0,.08,0c-.53.3-.8.59-.8.88,0,.11,0,.16.07.23l.42.38a8.65,8.65,0,0,0-4.4,2.65.33.33,0,0,0,0,.39c.46.52,3.06,1.08,6.18,1.33a9.28,9.28,0,0,0,1.38,0,7,7,0,0,0-1.35,2.8.36.36,0,0,0,.22.33c.64.26,3.21-.42,6.11-1.62A9.94,9.94,0,0,0,117.51,135.49Z"/><path class="cls-2" d="M140.71,132.6c-.47-.52-3.07-1.08-6.18-1.32a9.23,9.23,0,0,0-1.38,0,6.93,6.93,0,0,0,1.35-2.8.36.36,0,0,0-.21-.33c-.64-.27-3.22.41-6.13,1.62A10.09,10.09,0,0,0,123,134.6a.29.29,0,0,0,0,.09.35.35,0,0,0,.08.22h0c-.87.07-1.39.22-1.54.43a2.36,2.36,0,0,0-.57,1.22.35.35,0,0,0-.18,0l-.31,0a.27.27,0,0,0-.24.14,4.22,4.22,0,0,0-.49,1.16c0-.12-.11-.17-.25-.2-.72-.19-4.18,1-6.26,3.52-1.91,2.33-3.31,4.59-3.31,5.33v0a.34.34,0,0,0,.25.3,7.44,7.44,0,0,0,3.66-.68l0,.07a9.19,9.19,0,0,0,1.48,6.89l.32.36c.13.14.28.1.43,0a7.15,7.15,0,0,0,1.27-2.56l.41.72.16.21c2.61,2.82,3.22,2.81,3.6,2.58a.27.27,0,0,0,.08-.07,3.73,3.73,0,0,0,.27-1.83,20.82,20.82,0,0,0-.54-4.57,4.32,4.32,0,0,0,.57.73c1,.94,2.67,1.89,3.61,1.84l.48-.18c.08,0,0,0,.07-.09.38-.71-1-5.38-2.3-7.12l-.42-.47-.17-.15a.37.37,0,0,0-.35-.06h0a.36.36,0,0,0,0-.11v-.06l0-1c.58.89,1.18,1.78,1.77,2.58a16.37,16.37,0,0,0,1.54,1.86c1.45,1.34,4.29,3.09,5,3a.39.39,0,0,0,.25-.2,1.41,1.41,0,0,0,.09-.6A10.58,10.58,0,0,0,130,143a0,0,0,0,1,0,0c1.42.14,2.6,0,2.83-.43l0,0a.51.51,0,0,0,.05-.22,4.12,4.12,0,0,0-.82-1.71,7.8,7.8,0,0,0-1.61-1.61l-.1,0h0a.5.5,0,0,0-.14-.15l-.2-.11.09-.06s0,0,0,0l.05.09a.58.58,0,0,0,.14.17,16.37,16.37,0,0,0,4.82,2.49c1.39.21,3.28.1,4-.45l.3-.41c0-.05.06-.06.06-.08s0,0-.05-.08l-.22-.43a15,15,0,0,0-3.07-2.71s0,0-.07,0c.62-.37.75-.64.79-.81a.41.41,0,0,0,0-.11.25.25,0,0,0-.09-.2l-.41-.37a8.75,8.75,0,0,0,4.4-2.65A.35.35,0,0,0,140.71,132.6Z"/><path class="cls-1" d="M109.05,106.79,83.33,136.27c.26,2.26,2,5.19,4.72,8.31l23-36.47h0A18.52,18.52,0,0,1,109.05,106.79Z"/><path class="cls-1" d="M131,106.86a18.32,18.32,0,0,1-2,1.31L152,144.57c2.69-3.11,4.46-6,4.71-8.3Z"/><path class="cls-3" d="M88.35,108.14a.32.32,0,0,0,0-.14c.78-.08.92-.25,1-.31a2,2,0,0,0,.4-.77h0l.26,0a.23.23,0,0,0,.2-.11,2.13,2.13,0,0,0,.32-.67.19.19,0,0,0,.08,0c.58.15,3-.66,4.4-2.44,1.14-1.4,2.34-3.18,2.28-3.76a.37.37,0,0,0-.24-.3,4.9,4.9,0,0,0-2.39.39,4.77,4.77,0,0,0,.11-1,6.7,6.7,0,0,0-1.16-3.64l-.26-.28c-.12-.13-.28-.09-.42,0a4.55,4.55,0,0,0-.81,1.57l-.17-.3-.12-.16c-1.53-1.63-2.15-2.05-2.6-1.77a.27.27,0,0,0-.08.07,2.67,2.67,0,0,0-.22,1.35,14.8,14.8,0,0,0,.26,2.61.9.9,0,0,0-.09-.1,4.64,4.64,0,0,0-2.54-1.29l-.42.18h0s0,0,0,0l0,0a.87.87,0,0,0,0,.33,12.13,12.13,0,0,0,1.33,4.18l-.12-.18a9.62,9.62,0,0,0-1.07-1.29c-.92-.85-2.94-2.15-3.52-2a.34.34,0,0,0-.25.2,1,1,0,0,0-.07.44,7.45,7.45,0,0,0,1,3.24c-.8-.05-1.62,0-1.82.36a.59.59,0,0,0,0,.23A2.63,2.63,0,0,0,82,104.1h0c.08.1.17.22.29.35a8.13,8.13,0,0,0-2.28-1,4.56,4.56,0,0,0-2.83.33s-.26.36-.26.36-.05,0,0,.14l.17.34a9.9,9.9,0,0,0,2,1.8c-.3.2-.45.4-.45.61a.21.21,0,0,0,.08.21l.16.15A5.78,5.78,0,0,0,76,109.16a.35.35,0,0,0,0,.4c.39.44,2.5.8,4.3.94h.73a4.63,4.63,0,0,0-.82,1.79.35.35,0,0,0,.22.33c.55.23,2.6-.41,4.26-1.1A6.92,6.92,0,0,0,88.35,108.14Z"/><path class="cls-3" d="M99.87,105.13h-.74a4.54,4.54,0,0,0,.83-1.79.37.37,0,0,0-.22-.33c-.55-.23-2.6.41-4.27,1.1a7,7,0,0,0-3.58,3.36.38.38,0,0,0,0,.15c-.8.09-.94.26-1,.33a1.78,1.78,0,0,0-.38.75h-.25a.29.29,0,0,0-.26.16,2.25,2.25,0,0,0-.28.62l-.09,0a6.54,6.54,0,0,0-4.39,2.45c-1.18,1.43-2.34,3.18-2.29,3.75a.38.38,0,0,0,.25.31,4.87,4.87,0,0,0,2.38-.4,6.46,6.46,0,0,0,1.06,4.64s.25.27.25.27.28.1.43,0a4.55,4.55,0,0,0,.81-1.57c.09.15.16.29.17.29l.12.17c1.66,1.79,2.21,2,2.59,1.77l.09-.07a2.63,2.63,0,0,0,.22-1.34,15,15,0,0,0-.27-2.63l.1.11a4.59,4.59,0,0,0,2.53,1.29l.41-.16c.08,0,0,0,.06-.09.27-.5-.49-3.06-1.25-4.46l.09.14a10.46,10.46,0,0,0,1.07,1.28c.92.86,3,2.16,3.53,2a.35.35,0,0,0,.25-.19,1.26,1.26,0,0,0,.07-.46,7.42,7.42,0,0,0-1-3.24c.82.06,1.64,0,1.83-.37a.51.51,0,0,0,0-.22,2.61,2.61,0,0,0-.57-1.24h0c-.08-.1-.18-.23-.3-.36a8.33,8.33,0,0,0,2.28,1,4.63,4.63,0,0,0,2.83-.33s.26-.35.26-.35.06,0,0-.15l-.17-.34a10.37,10.37,0,0,0-2-1.81,1,1,0,0,0,.44-.53.45.45,0,0,0,0-.11.25.25,0,0,0-.08-.19l-.16-.13a5.8,5.8,0,0,0,2.89-1.82.35.35,0,0,0-.06-.39C103.77,105.62,101.66,105.27,99.87,105.13Z"/><path class="cls-4" d="M164.39,109.56a.39.39,0,0,0,.05-.4,5.83,5.83,0,0,0-2.89-1.81l.16-.15a.23.23,0,0,0,.07-.21c0-.21-.14-.4-.44-.61a10.06,10.06,0,0,0,2-1.8l.17-.34c0-.07.05-.07.05-.08l-.05-.06-.25-.36a4.6,4.6,0,0,0-2.84-.33,8.23,8.23,0,0,0-2.27,1l.29-.35a2.73,2.73,0,0,0,.58-1.25.39.39,0,0,0,0-.18.17.17,0,0,0,0,0c-.21-.32-1-.41-1.82-.35a6,6,0,0,0,.91-3.69.34.34,0,0,0-.25-.2c-.58-.12-2.61,1.18-3.53,2a11.47,11.47,0,0,0-1.07,1.29l-.12.18c.77-1.4,1.55-4,1.28-4.51,0-.07,0,0,0-.06l-.42-.18a4.67,4.67,0,0,0-2.54,1.29l-.09.1a13.94,13.94,0,0,0,.27-2.61,2.67,2.67,0,0,0-.22-1.35l-.09-.07c-.44-.28-1.07.14-2.57,1.75l-.16.19h0l-.15.28a4.77,4.77,0,0,0-.81-1.56c-.15-.11-.3-.15-.43,0l-.26.28a6.78,6.78,0,0,0-1.16,3.64,4.78,4.78,0,0,0,.12,1,5,5,0,0,0-2.39-.39.36.36,0,0,0-.24.3c-.07.58,1.13,2.36,2.28,3.76,1.44,1.78,3.82,2.59,4.39,2.44l.09,0a2,2,0,0,0,.31.67.25.25,0,0,0,.21.11l.26,0h0a1.88,1.88,0,0,0,.38.78h0c0,.06.19.23,1,.31a.33.33,0,0,0,0,.14,7,7,0,0,0,3.58,3.37h0c1.67.69,3.71,1.33,4.26,1.1a.36.36,0,0,0,.23-.33,4.54,4.54,0,0,0-.83-1.79h.74C161.88,110.36,164,110,164.39,109.56Z"/><path class="cls-4" d="M155.22,111.92h0a6.56,6.56,0,0,0-4.39-2.45l-.09,0a2.67,2.67,0,0,0-.28-.62.31.31,0,0,0-.26-.16H150a2,2,0,0,0-.39-.76c-.06-.07-.2-.24-1-.32,0,0,0,0,0-.06a.29.29,0,0,0,0-.09,7,7,0,0,0-3.57-3.36h0c-1.68-.69-3.73-1.33-4.27-1.1a.36.36,0,0,0-.22.33,4.63,4.63,0,0,0,.82,1.79h-.74c-1.78.14-3.89.49-4.29.94a.35.35,0,0,0-.06.39,5.84,5.84,0,0,0,2.89,1.82l-.15.13a.26.26,0,0,0-.09.19.52.52,0,0,0,0,.11.92.92,0,0,0,.43.53,10.29,10.29,0,0,0-2,1.8h0l-.17.34c0,.06,0,.07,0,.08s0,0,0,.07l.24.34a4.62,4.62,0,0,0,2.84.34,8.36,8.36,0,0,0,2.29-1c-.12.13-.22.26-.3.36a2.67,2.67,0,0,0-.58,1.24.45.45,0,0,0,0,.2,0,0,0,0,0,0,0c.19.34,1,.43,1.82.37a5.87,5.87,0,0,0-.91,3.7.35.35,0,0,0,.25.19c.57.12,2.6-1.18,3.53-2a12.63,12.63,0,0,0,1.06-1.29l.11-.16c-.77,1.41-1.53,4-1.27,4.48,0,.08,0,.06.07.09l.41.16a4.61,4.61,0,0,0,2.53-1.3.9.9,0,0,0,.09-.1,15.11,15.11,0,0,0-.26,2.63,2.63,2.63,0,0,0,.22,1.34.27.27,0,0,0,.08.07c.39.24.93,0,2.59-1.78l.15-.19.14-.25a4.77,4.77,0,0,0,.82,1.56c.15.11.3.15.43,0l.25-.27a6.46,6.46,0,0,0,1.06-4.64,4.87,4.87,0,0,0,2.38.4.37.37,0,0,0,.24-.31v0c0-.61-1.13-2.31-2.28-3.71Z"/><path class="cls-5" d="M93.14,95.43a1.14,1.14,0,0,1,.18.19,6.1,6.1,0,0,1,1,4.5l0,.07a6.42,6.42,0,0,0-1.48.93,9.11,9.11,0,0,0-.43-4A4.86,4.86,0,0,1,93.14,95.43ZM88,102.15l.26.29.1.09c.32-1.43,1.89-3.94,2.5-3.89s.83,1.45.7,2.78c0,.41-.13,1-.25,1.67a10.6,10.6,0,0,1,1-1.4l.15-.17A9.28,9.28,0,0,0,92,97.28l0,0,0,0a2.75,2.75,0,0,0-.32-.58,1.13,1.13,0,0,0-.1-.13c-.45-.47-1.79-1.92-2.14-1.71a10.25,10.25,0,0,0,.32,4.49.17.17,0,0,1-.1.21.18.18,0,0,1-.23-.06,4.16,4.16,0,0,0-.55-.75,4.25,4.25,0,0,0-2.28-1.19.25.25,0,0,0-.17.06A10.55,10.55,0,0,0,88,102.15Zm-4.23.11h0a8.71,8.71,0,0,1,2.47.71c.69.31,1.52.82,1.67,1.58a1.37,1.37,0,0,1,0,.35h0l.42.15a7.75,7.75,0,0,1-.11-1,.21.21,0,0,1,.07-.15l0,0h0c-.44-.71-.9-1.38-1.31-1.93a10.83,10.83,0,0,0-1-1.24,8.5,8.5,0,0,0-3.21-1.94A6.05,6.05,0,0,0,83.72,102.26Zm-1.42,1.62a4.69,4.69,0,0,0,1,1.05h0a.13.13,0,0,1,.1.1l.31.18a5.1,5.1,0,0,0,3.32.41,1.17,1.17,0,0,0,.42-1c-.09-.47-.61-.94-1.45-1.31a9,9,0,0,0-2.37-.69.2.2,0,0,1-.11,0,2.86,2.86,0,0,0-1.81.16h0A1.9,1.9,0,0,0,82.3,103.88Zm-2.87,2.28h0a5.79,5.79,0,0,1,2.08-.54,6.81,6.81,0,0,1,1.92.32,1.85,1.85,0,0,1-.27-.52,11.8,11.8,0,0,0-3.2-1.66,4.34,4.34,0,0,0-2.57.27.22.22,0,0,0-.11.14.51.51,0,0,0,.1.2A10.14,10.14,0,0,0,79.43,106.16Zm-.37.84a1.29,1.29,0,0,0,.31.28s0,0,0,0,0,0,0,0l0,0a10.54,10.54,0,0,0,4.4,1.66,8,8,0,0,0,3.49-1,5.35,5.35,0,0,1-1.77-.34,4.87,4.87,0,0,1-1.77-1.29h-.08a7.58,7.58,0,0,0-2.18-.43,5.7,5.7,0,0,0-1.94.51h0a.19.19,0,0,1-.07.06c-.45.26-.49.4-.49.44Zm9,1h-.27c-.15.84-3.36,1.29-3.85,1.33-1.09.08-3.57-1-4.64-1.73l0,0a5.77,5.77,0,0,0-2.86,1.69c.2.23,1.71.63,4.05.82a6.06,6.06,0,0,0,1,0,.19.19,0,0,1,.16.08h0a.18.18,0,0,1,0,.2,4.82,4.82,0,0,0-.94,1.87c.28.12,1.8-.2,4-1.1A6.68,6.68,0,0,0,88,108.05Zm1.39-1.35s0,0,0,0v0c0-.54-.6-1-1.6-1.37h0a2,2,0,0,1-.44.62c-.4.41-2.52.29-3.75-.34h0a4.73,4.73,0,0,0,2.1,1.84,6,6,0,0,0,2.31.31.11.11,0,0,1,.07,0,2,2,0,0,0,1-.2A1.3,1.3,0,0,0,89.4,106.7Zm.92-1.14a4.46,4.46,0,0,1,.28-1.09,26.26,26.26,0,0,0,.54-3.08,3.93,3.93,0,0,0-.26-2.3.22.22,0,0,0-.1-.08,8.06,8.06,0,0,0-2.15,3.84,0,0,0,0,1,0,0v0c0,.25,0,.54,0,.84a.2.2,0,0,1-.07.15.17.17,0,0,1,.07.14,5.86,5.86,0,0,0,.15,1.25,1.69,1.69,0,0,1,1,1.29h.16A3.18,3.18,0,0,0,90.32,105.56Zm6.6-5.57a5.15,5.15,0,0,0-2.44.51h0a5.09,5.09,0,0,0-2,1.42A10.05,10.05,0,0,0,91,104.57c-.08.38-.17.74-.26,1.06a1,1,0,0,0,0,.18,6.5,6.5,0,0,0,4-2.32C96.21,101.66,97,100.29,96.92,100Zm-9,18.55a9,9,0,0,1-.44-4,6.12,6.12,0,0,1-1.47.92l0,.08a6,6,0,0,0,1,4.5,1.22,1.22,0,0,0,.17.19A4.57,4.57,0,0,0,87.9,118.54Zm4.4-5.06a2.62,2.62,0,0,0-.26-.29l-.11-.09c-.31,1.43-1.88,3.94-2.49,3.89s-.83-1.45-.7-2.79c0-.4.13-1,.25-1.66a10.7,10.7,0,0,1-1,1.4l-.15.17a9.5,9.5,0,0,0,.34,4.23s0,0,0,0a.08.08,0,0,1,0,0,3.53,3.53,0,0,0,.33.57.41.41,0,0,0,.1.13c.44.48,1.79,1.93,2.14,1.71a10.36,10.36,0,0,0-.32-4.48.18.18,0,0,1,.09-.22.17.17,0,0,1,.23.07,4.59,4.59,0,0,0,.55.74,4.33,4.33,0,0,0,2.29,1.2.25.25,0,0,0,.17-.06A10.51,10.51,0,0,0,92.3,113.48Zm4.22-.11h0a8.77,8.77,0,0,1-2.46-.72c-.69-.3-1.53-.82-1.67-1.57a1.09,1.09,0,0,1,0-.36h0l-.41-.16a6.55,6.55,0,0,1,.1,1,.16.16,0,0,1-.07.15l0,0h0c.45.71.91,1.37,1.31,1.92a10.14,10.14,0,0,0,1,1.24,8.65,8.65,0,0,0,3.22,2A6,6,0,0,0,96.52,113.37ZM98,111.75a4.69,4.69,0,0,0-1-1h0a.18.18,0,0,1-.11-.1,2.38,2.38,0,0,0-.3-.18,5.1,5.1,0,0,0-3.32-.41,1.18,1.18,0,0,0-.43,1c.09.47.61.93,1.47,1.31a8.4,8.4,0,0,0,2.35.68l.11,0c1.14.13,1.75-.06,1.81-.17h0A2,2,0,0,0,98,111.75Zm2.86-2.29a0,0,0,0,1,0,0,6,6,0,0,1-2.08.54,6.5,6.5,0,0,1-1.91-.33,3.27,3.27,0,0,1,.27.52,11.1,11.1,0,0,0,3.2,1.66,4.24,4.24,0,0,0,2.56-.26.39.39,0,0,0,.12-.14.51.51,0,0,0-.11-.2A10.12,10.12,0,0,0,100.81,109.46Zm.38-.84a1.29,1.29,0,0,0-.31-.28.08.08,0,0,1,0,0h0s0,0,0,0a10.85,10.85,0,0,0-4.41-1.67,8.43,8.43,0,0,0-3.5,1,6,6,0,0,1,1.78.34,5,5,0,0,1,1.77,1.3h.07a7.77,7.77,0,0,0,2.18.44,5.76,5.76,0,0,0,2-.51h0l.07-.06c.44-.25.48-.39.49-.43Zm-9-1.05h.27c.14-.84,3.35-1.29,3.85-1.33,1.09-.09,3.56,1,4.64,1.73l0,0a5.89,5.89,0,0,0,2.87-1.69,10.47,10.47,0,0,0-4.05-.82,5.28,5.28,0,0,0-1,0,.21.21,0,0,1-.16-.08s0,0,0,0a.18.18,0,0,1,0-.2,4.67,4.67,0,0,0,.95-1.86c-.28-.12-1.81.19-4,1.1A6.67,6.67,0,0,0,92.24,107.57Zm-1.4,1.35V109c0,.53.59,1,1.6,1.37h0a2.36,2.36,0,0,1,.43-.63c.4-.4,2.52-.29,3.75.34h0a4.81,4.81,0,0,0-2.09-1.83,6.08,6.08,0,0,0-2.31-.31l-.08,0a2,2,0,0,0-1,.21A1.45,1.45,0,0,0,90.84,108.92Zm-.91,1.14a4.9,4.9,0,0,1-.28,1.1,29,29,0,0,0-.55,3.08,4.14,4.14,0,0,0,.26,2.3.22.22,0,0,0,.1.08,8,8,0,0,0,2.16-3.85h0v0c0-.24,0-.53,0-.84a.19.19,0,0,1,.07-.14.17.17,0,0,1-.07-.14,6.44,6.44,0,0,0-.16-1.25,1.69,1.69,0,0,1-1-1.29h-.17A3.8,3.8,0,0,0,89.93,110.06Zm-6.61,5.58a5.25,5.25,0,0,0,2.44-.51h0a5.14,5.14,0,0,0,2-1.43,9.68,9.68,0,0,0,1.55-2.65c.09-.37.18-.73.27-1a.77.77,0,0,0,0-.18,6.44,6.44,0,0,0-4,2.32C84,114,83.29,115.34,83.32,115.64Z"/><path class="cls-5" d="M148.11,97.09a9.26,9.26,0,0,0-.43,4,6.15,6.15,0,0,0-1.47-.93l0-.07a6,6,0,0,1,1-4.5.86.86,0,0,1,.17-.19A4.86,4.86,0,0,1,148.11,97.09Zm6,.46a.27.27,0,0,0-.17-.06,4.25,4.25,0,0,0-2.28,1.19,3.73,3.73,0,0,0-.55.75.19.19,0,0,1-.24.06.17.17,0,0,1-.09-.21,10.36,10.36,0,0,0,.31-4.49c-.34-.21-1.69,1.24-2.13,1.71l-.11.13a3.28,3.28,0,0,0-.32.58s0,0,0,0l0,0a9.56,9.56,0,0,0-.34,4.24,1.22,1.22,0,0,1,.15.17,10.7,10.7,0,0,1,1,1.4,15.16,15.16,0,0,1-.25-1.67c-.13-1.33.07-2.72.7-2.78s2.18,2.46,2.5,3.89l.09-.09a1.84,1.84,0,0,0,.26-.29A10.46,10.46,0,0,0,154.07,97.55Zm3.68,1.18a8.5,8.5,0,0,0-3.21,1.94,10.67,10.67,0,0,0-1,1.24c-.4.55-.86,1.22-1.3,1.93h0l0,0a.19.19,0,0,1,.08.15,9.87,9.87,0,0,1-.11,1l.42-.15h0a1.37,1.37,0,0,1,0-.35c.15-.76,1-1.27,1.68-1.58a8.74,8.74,0,0,1,2.46-.71h0A6.14,6.14,0,0,0,157.75,98.73Zm.92,4.08h0c-.06-.1-.67-.29-1.81-.16a.17.17,0,0,1-.1,0,8.8,8.8,0,0,0-2.37.69c-.85.37-1.36.84-1.45,1.31a1.15,1.15,0,0,0,.41,1,5.13,5.13,0,0,0,3.33-.41l.3-.18a.16.16,0,0,1,.11-.1h0a4.91,4.91,0,0,0,1-1.05A1.94,1.94,0,0,0,158.67,102.81Zm4.4,1.56a.58.58,0,0,0,.11-.2.26.26,0,0,0-.11-.14,4.35,4.35,0,0,0-2.57-.27,11.66,11.66,0,0,0-3.2,1.66,1.85,1.85,0,0,1-.27.52,6.8,6.8,0,0,1,1.91-.32,5.73,5.73,0,0,1,2.08.54h0A10.14,10.14,0,0,0,163.07,104.37ZM161.42,107s0-.18-.48-.44a.13.13,0,0,1-.07-.06h0a5.7,5.7,0,0,0-2-.51,7.58,7.58,0,0,0-2.18.43h-.07a4.83,4.83,0,0,1-1.78,1.29,5.3,5.3,0,0,1-1.77.34,8.13,8.13,0,0,0,3.5,1,10.59,10.59,0,0,0,4.4-1.66l0,0s0,0,0,0a.08.08,0,0,0,0,0,1.23,1.23,0,0,0,.32-.28A0,0,0,0,0,161.42,107Zm-5.59,4.19c2.19.9,3.71,1.22,4,1.1a4.75,4.75,0,0,0-.95-1.87.18.18,0,0,1,0-.2h0a.21.21,0,0,1,.16-.08,6.07,6.07,0,0,0,1,0,10.7,10.7,0,0,0,4.06-.82,5.82,5.82,0,0,0-2.87-1.69l0,0c-1.07.74-3.55,1.81-4.64,1.73-.5,0-3.7-.49-3.86-1.33h-.26A6.64,6.64,0,0,0,155.83,111.18Zm-4.42-3.72a2,2,0,0,0,1,.2.13.13,0,0,1,.08,0,6.08,6.08,0,0,0,2.31-.31,4.85,4.85,0,0,0,2.1-1.84h0c-1.23.63-3.34.75-3.74.34a1.87,1.87,0,0,1-.44-.62h0c-1,.33-1.59.83-1.6,1.37a0,0,0,0,1,0,0,.08.08,0,0,1,0,0A1.44,1.44,0,0,0,151.41,107.46Zm-.88-.91h.16a1.7,1.7,0,0,1,1-1.29,7.51,7.51,0,0,0,.15-1.25.17.17,0,0,1,.07-.14.2.2,0,0,1-.07-.15c0-.3,0-.59,0-.84v0a0,0,0,0,1,0,0A8.06,8.06,0,0,0,149.68,99a.22.22,0,0,0-.1.08,4,4,0,0,0-.26,2.3c.07.69.29,2,.54,3.08a4.57,4.57,0,0,1,.29,1.09A3.4,3.4,0,0,0,150.53,106.55Zm-4.79-3.06a6.53,6.53,0,0,0,4,2.32.77.77,0,0,0,0-.18c-.09-.32-.18-.68-.27-1.06a10,10,0,0,0-1.55-2.65,5.09,5.09,0,0,0-2-1.42h0a5.16,5.16,0,0,0-2.45-.51C143.51,100.29,144.25,101.66,145.74,103.49Zm7.62,16.71a.66.66,0,0,0,.17-.19,6.06,6.06,0,0,0,1-4.5l0-.08a6.4,6.4,0,0,1-1.48-.92,9,9,0,0,1-.43,4A4.86,4.86,0,0,0,153.36,120.2Zm-6.74-2.12a.25.25,0,0,0,.17.06,4.31,4.31,0,0,0,2.28-1.2,3.65,3.65,0,0,0,.55-.74.18.18,0,0,1,.23-.07.17.17,0,0,1,.1.22,10.36,10.36,0,0,0-.32,4.48c.35.22,1.7-1.23,2.14-1.71a.64.64,0,0,0,.1-.13,3.53,3.53,0,0,0,.33-.57.06.06,0,0,1,0,0l0,0a9.52,9.52,0,0,0,.35-4.23l-.16-.17a11.65,11.65,0,0,1-1-1.4c.12.66.21,1.26.25,1.66.13,1.34-.07,2.73-.7,2.79s-2.19-2.46-2.5-3.89l-.1.09a1.89,1.89,0,0,0-.26.29A10.51,10.51,0,0,0,146.62,118.08Zm-3.68-1.18a8.56,8.56,0,0,0,3.21-2,9.28,9.28,0,0,0,1-1.24c.41-.55.87-1.21,1.31-1.92h0l0,0a.21.21,0,0,1-.07-.15,10.21,10.21,0,0,1,.1-1,3.19,3.19,0,0,1-.41.16h0a1.09,1.09,0,0,1,0,.36c-.15.75-1,1.27-1.67,1.57a8.77,8.77,0,0,1-2.46.72h0A6,6,0,0,0,142.94,116.9Zm-.93-4.09h0c0,.11.67.3,1.81.17l.1,0a8.36,8.36,0,0,0,2.36-.68c.86-.38,1.37-.84,1.46-1.31a1.17,1.17,0,0,0-.42-1,5.1,5.1,0,0,0-3.32.41,2.48,2.48,0,0,0-.31.18s0,.09-.1.1h0a4.69,4.69,0,0,0-1,1A2,2,0,0,0,142,112.81Zm-4.4-1.55a.6.6,0,0,0-.1.2c0,.05.07.1.11.14a4.29,4.29,0,0,0,2.57.26,11.23,11.23,0,0,0,3.2-1.66,2.51,2.51,0,0,1,.26-.52,6.38,6.38,0,0,1-1.9.33,6.06,6.06,0,0,1-2.09-.54,0,0,0,0,0,0,0A10.74,10.74,0,0,0,137.61,111.26Zm1.65-2.62s0,.18.49.43l.06.06h0a5.76,5.76,0,0,0,2,.51,7.89,7.89,0,0,0,2.18-.44H144a5,5,0,0,1,1.77-1.3,6,6,0,0,1,1.77-.34,8.32,8.32,0,0,0-3.49-1,10.8,10.8,0,0,0-4.41,1.67l0,0h0a.08.08,0,0,1,0,0,1.84,1.84,0,0,0-.32.28S139.27,108.64,139.26,108.64Zm5.6-4.19c-2.19-.91-3.72-1.22-4-1.1a4.74,4.74,0,0,0,.94,1.86.17.17,0,0,1,0,.2s0,0,0,0a.19.19,0,0,1-.16.08,5.17,5.17,0,0,0-1,0c-2.34.18-3.85.59-4.05.82a5.84,5.84,0,0,0,2.87,1.69s0,0,0,0c1.07-.74,3.55-1.82,4.64-1.73.5,0,3.7.49,3.85,1.33h.27A6.72,6.72,0,0,0,144.86,104.45Zm4.41,3.72s-.26-.15-1-.21l-.07,0a6,6,0,0,0-2.31.31,4.9,4.9,0,0,0-2.1,1.83h0c1.23-.63,3.35-.74,3.75-.34a2,2,0,0,1,.43.63h0c1-.34,1.6-.84,1.61-1.37v0s0,0,0,0A1.31,1.31,0,0,0,149.27,108.17Zm.89.9H150a1.71,1.71,0,0,1-1,1.29,7.38,7.38,0,0,0-.15,1.25.21.21,0,0,1-.07.14.18.18,0,0,1,.06.14c0,.31,0,.6,0,.84v0h0a8,8,0,0,0,2.15,3.85.18.18,0,0,0,.1-.08,4,4,0,0,0,.26-2.3,26.26,26.26,0,0,0-.54-3.08,4.41,4.41,0,0,1-.28-1.1A3.8,3.8,0,0,0,150.16,109.07Zm4.78,3.07a6.43,6.43,0,0,0-4-2.32,1,1,0,0,0,0,.18l.26,1a10,10,0,0,0,1.55,2.65,5.22,5.22,0,0,0,2,1.43h0a5.3,5.3,0,0,0,2.45.51A10.54,10.54,0,0,0,154.94,112.14Z"/><path class="cls-6" d="M120,175.58c-18.08,0-29.95,3.89-35.42,6.22,0,0-2.9,1.43-3.56,1.79-.14-.52-4.38-16.82-4.55-17.51,2.73-1.69,16.84-9.52,43.53-9.52s40.8,7.83,43.53,9.52c-.17.69-4.41,17-4.55,17.51-.66-.36-3.56-1.79-3.56-1.79C150,179.47,138.08,175.58,120,175.58Zm43.47-2.46-3.6,13.4c-2.52-2-4.76-1.51-4.87-.21-.13,1.7,1.74,1.62,4,3.66,1.51,1.38,2.54,3.27,2.4,4.42l5.17-16.22A9.49,9.49,0,0,0,163.47,173.12Zm-4,21.22a6,6,0,0,0-1.79-3l-.31.53a8.4,8.4,0,0,0,1.42,2.8C159.68,195.66,159.44,194.34,159.44,194.34Zm-86-16.17,5.18,16.22c-.14-1.15.88-3,2.39-4.42,2.25-2,4.12-2,4-3.66-.11-1.3-2.35-1.75-4.87.21l-3.6-13.4A9.49,9.49,0,0,0,73.44,178.17Zm7.8,16.46a8.4,8.4,0,0,0,1.42-2.8l-.31-.53a6,6,0,0,0-1.79,3S80.32,195.66,81.24,194.63Zm108.19-48.06c-6.64-5.31-13.62-1.45-15-.58a1.34,1.34,0,0,1,.24.12,2.13,2.13,0,1,1-2.55.72,2.2,2.2,0,0,1,1.7-1c-1.09-.74-4.64-2.42-11.41.74,0,0,3.48,1.32,2.6,4,0,0-1,4-9.31,9.92,2.37.88,4.3,1.73,5.81,2.47a97.43,97.43,0,0,0,15-9.74C184.44,147.16,189.43,146.57,189.43,146.57ZM75,150.64c-.88-2.71,2.6-4,2.6-4-6.77-3.16-10.32-1.48-11.41-.74a2.2,2.2,0,0,1,1.7,1,1.69,1.69,0,1,1-2.55-.72,1.34,1.34,0,0,1,.24-.12c-1.39-.87-8.37-4.73-15,.58,0,0,5,.59,12.91,6.72a97.43,97.43,0,0,0,15,9.74c1.51-.74,3.44-1.59,5.81-2.47C76,154.61,75,150.64,75,150.64Z"/><path d="M81.68,166.54c.63-.21,1.28-.4,1.93-.57q2.94-.76,3.27-.87c.85-.28,1.66-.57,2.42-.88l2.42-1c.27-.09.44,0,.51.2l1.15,3.75-.66.21c-.52-1.08-1.41-2.34-2.22-2.46a7,7,0,0,0-2.67.5l-1.4.45,1.51,4.64,1.13-.37a1.53,1.53,0,0,0,1.15-1,6.91,6.91,0,0,0-.41-2.27l.72-.24c.08.28.43,1.38.61,2s.27,1,.29,1L91.9,171c.23.64.57,1.63.59,1.69l-.79.26a7.56,7.56,0,0,0-.94-2,1.45,1.45,0,0,0-1.5-.16l-1.13.37,1.15,3.56c.24.73.48,1.15.71,1.25a3.54,3.54,0,0,0,1.78-.31l.19.59c-.37.12-.92.28-1.66.48s-1.29.36-1.66.48-.91.31-1.63.58-1.26.47-1.62.59l-.19-.59a4.19,4.19,0,0,0,1.4-.63q.21-.24,0-.81l-2.95-9.1a.37.37,0,0,0-.39-.25,7.88,7.88,0,0,0-1.41.21Z"/><path d="M105.41,165.8a5.88,5.88,0,0,0-1.84-3.09,3.3,3.3,0,0,0-2.45-.55,3.57,3.57,0,0,0-2.87,2.21,8,8,0,0,0-.19,4.39,6.6,6.6,0,0,0,1.54,3.34,3.47,3.47,0,0,0,5.58-.35,10.53,10.53,0,0,0,.77-3.5h.53c0,.75.15,2,.17,2.5a11.77,11.77,0,0,0,.2,1.55s-1,.39-2.75,1.14a8.44,8.44,0,0,1-1.85.58,6.59,6.59,0,0,1-4.94-.87A6,6,0,0,1,94.68,169a5.92,5.92,0,0,1,1-4.83,6.68,6.68,0,0,1,4.33-2.56,7.11,7.11,0,0,1,2.06-.08l2.08.21a.52.52,0,0,0,.48-.49h.53c0,.2.08.51.13.93s.09.74.13,1,.11.5.21.91.29,1.4.33,1.63Z"/><path d="M125.16,171.82a4.52,4.52,0,0,0,1.45,0,.58.58,0,0,0,.35-.54l.69-9.57a.59.59,0,0,0-.31-.58,3.89,3.89,0,0,0-1.29-.37l0-.62c.55.12,1.1.21,1.65.3s1.06.14,1.52.17,1.09.06,1.58.06l1.61,0,0,.63a4.1,4.1,0,0,0-1.36.17.55.55,0,0,0-.38.54l-.69,9.53a.59.59,0,0,0,.26.59,4.79,4.79,0,0,0,1.49.25l0,.62c-.36,0-.91-.09-1.63-.18s-1.28-.14-1.65-.16-.91,0-1.64-.07-1.29,0-1.66-.07Z"/><path d="M134.31,160.77c.66.1,1.32.22,2,.37l3.31.69c.89.14,1.74.24,2.56.31l2.6.21c.28,0,.41.18.37.41l-.67,3.87-.68-.11c0-1.21-.2-2.73-.88-3.2a7,7,0,0,0-2.6-.76l-1.45-.22-.75,4.81,1.18.19a1.54,1.54,0,0,0,1.49-.4,7,7,0,0,0,.65-2.21l.75.11c0,.29-.24,1.43-.36,2.06s-.18,1-.19,1c-.05.29-.11.76-.19,1.43s-.23,1.71-.24,1.77l-.82-.12a7.33,7.33,0,0,0,.08-2.24,1.45,1.45,0,0,0-1.26-.82l-1.18-.18-.58,3.69c-.11.76-.09,1.24.07,1.44a3.46,3.46,0,0,0,1.73.52l-.1.62c-.38-.06-.94-.17-1.69-.32s-1.32-.26-1.7-.32-1-.13-1.72-.21-1.34-.15-1.71-.21l.09-.61a4.17,4.17,0,0,0,1.53.07c.2-.08.34-.32.4-.71l1.46-9.45a.38.38,0,0,0-.23-.41,8.07,8.07,0,0,0-1.36-.45Z"/><path d="M146.11,162.69c.51.23,1,.44,1.55.63s1,.35,1.45.48,1,.28,1.53.38l1.59.29-.17.57a4.33,4.33,0,0,0-1.36-.11.6.6,0,0,0-.49.45l-1.76,6.18a4.13,4.13,0,0,0,0,2.74,2.43,2.43,0,0,0,1.7,1.48,2.61,2.61,0,0,0,2.53-.55,5,5,0,0,0,1.47-2.47l1.47-5.16a1.24,1.24,0,0,0,0-1,3.21,3.21,0,0,0-1.34-.8l.19-.68c.33.16.67.31,1,.46a8.05,8.05,0,0,0,1,.36,9.7,9.7,0,0,0,1.05.24l1.08.14-.2.68a2.82,2.82,0,0,0-1.43,0,1.33,1.33,0,0,0-.57.87l-1.24,4.33a6.84,6.84,0,0,1-2.41,3.9,4.58,4.58,0,0,1-4,.43,4.26,4.26,0,0,1-2.74-2.31,5.27,5.27,0,0,1-.27-3.95l1.63-5.68a.6.6,0,0,0-.17-.63,4.13,4.13,0,0,0-1.2-.63Z"/><path d="M123,165a5.84,5.84,0,0,0-1.23-3.33,3.25,3.25,0,0,0-2.28-1,3.5,3.5,0,0,0-3.18,1.63,7.86,7.86,0,0,0-1,4.22,6.67,6.67,0,0,0,.91,3.55,3.18,3.18,0,0,0,2.81,1.7,2.44,2.44,0,0,0,1.48-.38,1.22,1.22,0,0,0,.52-1v-3.34a.7.7,0,0,0-.31-.68,3.23,3.23,0,0,0-1.37-.18v-.61q.48,0,1.44.06c.64,0,1.12,0,1.44.06s.79,0,1.43-.05,1.12,0,1.44,0v.61a2.06,2.06,0,0,0-1,.15.78.78,0,0,0-.23.66V171c-.44.12-1.1.34-2,.67a10.49,10.49,0,0,1-3.33.78,6.67,6.67,0,0,1-4.76-1.73,6.39,6.39,0,0,1,0-9,6.56,6.56,0,0,1,4.66-1.71,7.24,7.24,0,0,1,2,.29l2,.58a.53.53,0,0,0,.55-.39l.53.09c0,.2,0,.51,0,.92s0,.74,0,1,0,.51,0,.93,0,1.4,0,1.63Z"/><path class="cls-5" d="M124.69,116.91a1.13,1.13,0,0,1,.25.27,8.88,8.88,0,0,1,1.41,6.59l0,.11a8.85,8.85,0,0,0-2.16,1.37,13.39,13.39,0,0,0-.63-5.92A7.17,7.17,0,0,1,124.69,116.91Z"/><path class="cls-5" d="M114.81,120a.39.39,0,0,1,.25-.08,6.27,6.27,0,0,1,3.34,1.75,5.59,5.59,0,0,1,.8,1.09.28.28,0,0,0,.35.1.26.26,0,0,0,.14-.32c-.74-2.41-.79-6.19-.46-6.57.5-.31,2.47,1.81,3.12,2.51a1,1,0,0,1,.16.19,4.27,4.27,0,0,1,.46.84l0,0,.06.06a13.63,13.63,0,0,1,.5,6.2l-.22.26a15.59,15.59,0,0,0-1.41,2c.18-1,.31-1.84.36-2.44.19-2-.1-4-1-4.08s-3.19,3.6-3.67,5.7l-.14-.13a3.4,3.4,0,0,1-.38-.43C115.78,125,114.55,120.49,114.81,120Z"/><path class="cls-5" d="M109.42,121.74c.47-.1,3.1,1.36,4.7,2.85a14.27,14.27,0,0,1,1.5,1.81c.6.81,1.27,1.79,1.91,2.82h0l.06.05a.27.27,0,0,0-.11.22,13.15,13.15,0,0,0,.16,1.52c-.19-.08-.39-.16-.61-.23h0a1.82,1.82,0,0,0,0-.52c-.22-1.1-1.45-1.86-2.45-2.31a13,13,0,0,0-3.62-1h-.05A8.86,8.86,0,0,1,109.42,121.74Z"/><path class="cls-5" d="M108.06,127.72h0c.09-.15,1-.43,2.65-.24a.29.29,0,0,0,.16,0,12.66,12.66,0,0,1,3.47,1c1.23.55,2,1.23,2.13,1.91a1.7,1.7,0,0,1-.62,1.48c-.28.28-3,.36-4.86-.6a4.83,4.83,0,0,1-.45-.26.28.28,0,0,0-.15-.15h-.07a7.57,7.57,0,0,1-1.52-1.53A3,3,0,0,1,108.06,127.72Z"/><path class="cls-5" d="M101.62,130a1,1,0,0,1-.16-.29.39.39,0,0,1,.17-.21,6.35,6.35,0,0,1,3.76-.39,16.55,16.55,0,0,1,4.69,2.44,2.89,2.89,0,0,0,.39.76,9.56,9.56,0,0,0-2.8-.48,8.6,8.6,0,0,0-3,.79h0A14.74,14.74,0,0,1,101.62,130Z"/><path class="cls-5" d="M104,133.83c0-.05,0-.26.71-.63,0,0,.07,0,.09-.09s0,0,0,0a8.23,8.23,0,0,1,2.85-.74,11.22,11.22,0,0,1,3.19.63.14.14,0,0,0,.11,0,7.41,7.41,0,0,0,2.61,1.9,8.33,8.33,0,0,0,2.59.5c-.35.44-3,1.25-5.12,1.42-1.42.11-5-1.43-6.45-2.45l0,0s0,0,0,0,0,0-.06,0a2.66,2.66,0,0,1-.47-.41A0,0,0,0,1,104,133.83Z"/><path class="cls-5" d="M112.23,140c-3.21,1.33-5.43,1.78-5.84,1.62a7,7,0,0,1,1.38-2.74.26.26,0,0,0,0-.29l0,0a.26.26,0,0,0-.24-.1,9.57,9.57,0,0,1-1.5,0c-3.44-.27-5.64-.87-5.94-1.2a8.5,8.5,0,0,1,4.19-2.47l.06,0c1.57,1.08,5.19,2.66,6.79,2.53.73-.06,5.43-.71,5.65-1.94h.39A9.78,9.78,0,0,1,112.23,140Z"/><path class="cls-5" d="M118.7,134.53a2.87,2.87,0,0,1-1.39.29l-.11,0a8.6,8.6,0,0,1-3.39-.46,7,7,0,0,1-3.07-2.68h0c1.8.92,4.91,1.09,5.49.49a3.08,3.08,0,0,0,.65-.91h0c1.47.49,2.32,1.22,2.33,2,0,0,0,0,0,0a.11.11,0,0,0,0,.07A2,2,0,0,1,118.7,134.53Z"/><path class="cls-5" d="M120,133.2h-.24a2.48,2.48,0,0,0-1.5-1.89,10.67,10.67,0,0,1-.22-1.84.26.26,0,0,0-.1-.2.28.28,0,0,0,.1-.21c0-.45,0-.88,0-1.23,0,0,0,0,0,0s0,0,0,0c.19-2,2.64-5.48,3.15-5.63a.31.31,0,0,1,.15.11,6,6,0,0,1,.38,3.38,44.41,44.41,0,0,1-.79,4.51,6.34,6.34,0,0,0-.42,1.6A5.44,5.44,0,0,1,120,133.2Z"/><path class="cls-5" d="M127,128.7c-2.09,2.58-5.4,3.53-5.9,3.4a.87.87,0,0,1,0-.26c.13-.46.27-1,.39-1.54a14.57,14.57,0,0,1,2.28-3.88,7.74,7.74,0,0,1,2.88-2.1h0a7.66,7.66,0,0,1,3.59-.74C130.27,124,129.18,126,127,128.7Z"/><path class="cls-5" d="M115.84,153.19a2,2,0,0,1-.25-.28,8.89,8.89,0,0,1-1.41-6.59s0-.11,0-.12a9.11,9.11,0,0,0,2.16-1.35,13.1,13.1,0,0,0,.64,5.91A7,7,0,0,1,115.84,153.19Z"/><path class="cls-5" d="M125.72,150.09a.49.49,0,0,1-.25.08,6.36,6.36,0,0,1-3.35-1.76,6.44,6.44,0,0,1-.8-1.08.26.26,0,0,0-.34-.1.26.26,0,0,0-.14.32c.74,2.41.8,6.19.47,6.57-.51.31-2.49-1.81-3.13-2.51a.9.9,0,0,1-.15-.19,4.94,4.94,0,0,1-.48-.84s0,0,0-.06l-.06-.05a13.92,13.92,0,0,1-.51-6.2,2.68,2.68,0,0,0,.23-.26,15.59,15.59,0,0,0,1.41-2c-.18,1-.31,1.84-.36,2.43-.19,2,.1,4,1,4.08s3.2-3.59,3.66-5.69l.15.12c.12.12.25.27.38.43C124.75,145.12,126,149.6,125.72,150.09Z"/><path class="cls-5" d="M131.11,148.35c-.47.1-3.1-1.37-4.71-2.85a15.34,15.34,0,0,1-1.49-1.81c-.6-.81-1.27-1.79-1.92-2.82h0s0,0,0-.05a.24.24,0,0,0,.1-.22,11.34,11.34,0,0,0-.15-1.52c.19.08.39.16.61.23h0a1.53,1.53,0,0,0,0,.52c.21,1.1,1.44,1.86,2.44,2.3a12.79,12.79,0,0,0,3.61,1.05h0A8.82,8.82,0,0,1,131.11,148.35Z"/><path class="cls-5" d="M132.47,142.37h0c-.08.15-1,.43-2.65.24a.45.45,0,0,0-.16,0,12.71,12.71,0,0,1-3.45-1c-1.25-.56-2-1.24-2.14-1.93a1.68,1.68,0,0,1,.62-1.47c.28-.28,3-.36,4.86.6.15.07.3.17.45.26a.25.25,0,0,0,.15.15h.06a7.38,7.38,0,0,1,1.53,1.53C132.27,141.55,132.55,142.2,132.47,142.37Z"/><path class="cls-5" d="M138.91,140.09a1,1,0,0,1,.16.29c0,.08-.11.15-.17.21a6.29,6.29,0,0,1-3.76.38,16.3,16.3,0,0,1-4.68-2.43,4.59,4.59,0,0,0-.39-.76,9.78,9.78,0,0,0,2.78.48,8.6,8.6,0,0,0,3.06-.79h0A15.2,15.2,0,0,1,138.91,140.09Z"/><path class="cls-5" d="M136.5,136.26c0,.05-.07.26-.71.63a.43.43,0,0,0-.1.09h0a8.35,8.35,0,0,1-2.87.74,11.1,11.1,0,0,1-3.19-.64h-.1a7.23,7.23,0,0,0-2.6-1.9,8.22,8.22,0,0,0-2.6-.5c.34-.44,3-1.25,5.12-1.42,1.42-.11,5,1.43,6.46,2.45,0,0,0,0,0,0h0a.17.17,0,0,0,.06.06,2.37,2.37,0,0,1,.46.41Z"/><path class="cls-5" d="M128.3,130.12c3.2-1.33,5.44-1.79,5.84-1.62a6.91,6.91,0,0,1-1.38,2.73.27.27,0,0,0,0,.3l0,0a.24.24,0,0,0,.23.11,8.71,8.71,0,0,1,1.52,0c3.43.27,5.63.86,5.93,1.2a8.55,8.55,0,0,1-4.2,2.47l0,0c-1.58-1.08-5.21-2.66-6.8-2.53-.74.06-5.43.71-5.64,1.94h-.4A9.82,9.82,0,0,1,128.3,130.12Z"/><path class="cls-5" d="M121.83,135.56a2.88,2.88,0,0,1,1.39-.3.2.2,0,0,0,.11,0,8.6,8.6,0,0,1,3.39.46,7,7,0,0,1,3.07,2.68h0c-1.81-.92-4.91-1.09-5.49-.5a3,3,0,0,0-.64.92h0c-1.48-.49-2.34-1.23-2.35-2v-.05s0,0,0-.06A2,2,0,0,1,121.83,135.56Z"/><path class="cls-5" d="M120.54,136.89a1,1,0,0,1,.24,0,2.48,2.48,0,0,0,1.49,1.89,10.61,10.61,0,0,1,.23,1.84.26.26,0,0,0,.1.2.27.27,0,0,0-.1.21c0,.45,0,.88,0,1.23v0a0,0,0,0,1,0,0c-.18,2-2.64,5.48-3.15,5.63a.25.25,0,0,1-.15-.12,5.89,5.89,0,0,1-.38-3.37,41.77,41.77,0,0,1,.79-4.51,6.34,6.34,0,0,0,.42-1.6A4.86,4.86,0,0,1,120.54,136.89Z"/><path class="cls-5" d="M113.53,141.39c2.09-2.58,5.4-3.53,5.9-3.41a1,1,0,0,1,0,.27c-.13.46-.26,1-.39,1.54a14.5,14.5,0,0,1-2.27,3.88,7.7,7.7,0,0,1-2.9,2.09h0a7.49,7.49,0,0,1-3.58.74C110.26,146.07,111.34,144.06,113.53,141.39Z"/><path class="cls-2" d="M138.12,92.52a18,18,0,1,1-18-18A18,18,0,0,1,138.12,92.52Z"/><path class="cls-7" d="M134.32,84.22l-2.16,1.66c-.19-.41-.34-.71-.44-.88s0-.23,0-.34a11.4,11.4,0,0,0-2.11-5.57A16.53,16.53,0,0,1,134.32,84.22Zm-20.55-7a16.41,16.41,0,0,1,12.61,0,23.51,23.51,0,0,1,2.22,3c-.34-.11-.74-.22-1.19-.33v-.82a.28.28,0,1,0-.55,0v.7c-.27-.06-.56-.12-.87-.17v-1a.28.28,0,0,0-.55,0v.85l-.87-.12v-1a.28.28,0,1,0-.55,0v.9l-.87-.08V78.27a.28.28,0,1,0-.55,0v1l-.87-.05V78.13a.28.28,0,1,0-.55,0v1.09h-.86V78a.28.28,0,0,0-.56,0v1.17h-.89V78.13a.28.28,0,0,0-.56,0v1.12l-.86,0v-1a.28.28,0,0,0-.56,0v1.07l-.86.08v-.91a.28.28,0,1,0-.56,0v1l-.86.13v-.87a.28.28,0,0,0-.56,0v1l-.86.18v-.72a.28.28,0,1,0-.56,0V80c-.4.1-.77.2-1.08.3A23.51,23.51,0,0,1,113.77,77.27Zm-3.2,5a12.73,12.73,0,0,1,2.06-.71v1a.28.28,0,0,0,.56,0V81.47l.86-.19v.89a.28.28,0,0,0,.56,0v-1l.86-.14v.89a.28.28,0,0,0,.56,0V81l.86-.09v.81a.28.28,0,0,0,.56,0v-.85c.28,0,.57,0,.86-.06v.77a.28.28,0,0,0,.56,0v-.79l.89,0v.72a.28.28,0,1,0,.56,0v-.72l.86,0v.79a.28.28,0,1,0,.55,0v-.77l.87,0v.86a.28.28,0,0,0,.55,0v-.82L124,81v1a.28.28,0,1,0,.55,0V81l.87.13v1a.28.28,0,1,0,.55,0v-.91l.87.18v1.15a.28.28,0,1,0,.55,0v-1a13.28,13.28,0,0,1,2.16.74l0-.07a6.22,6.22,0,0,1,.6,2.4,29.9,29.9,0,0,1-20.27,0,6.22,6.22,0,0,1,.6-2.4Zm-.06-3.23a11.4,11.4,0,0,0-2.11,5.57c0,.11,0,.22,0,.34a8.7,8.7,0,0,0-.44.88l-2.16-1.66A16.53,16.53,0,0,1,110.51,79.09Zm-6.88,14.83,2.25,1.63c0,.82-.08,1.68-.08,2.6s0,1.8.08,2.77A16.46,16.46,0,0,1,103.63,93.92Zm2.4-.16L103.59,92a16.43,16.43,0,0,1,1.51-6.39l2.31,1.77A29.07,29.07,0,0,0,106,93.76Zm8.67,14.36a16.67,16.67,0,0,1-7.07-4.77c-1.07-9.78,1.12-15.48,1.94-17.2a26.89,26.89,0,0,0,5.13,1.35Zm9.21.44a15.92,15.92,0,0,1-7.68,0V87.72a32.17,32.17,0,0,0,7.68,0Zm8.61-5.21a16.67,16.67,0,0,1-7.07,4.77V87.5a26.89,26.89,0,0,0,5.13-1.35C131.4,87.87,133.58,93.57,132.52,103.35Zm.22-16,2.31-1.77A16.43,16.43,0,0,1,136.56,92l-2.44,1.77A29.07,29.07,0,0,0,132.74,87.37Zm1.53,13.55c0-1,.08-1.89.08-2.77s0-1.78-.08-2.6l2.24-1.63A16.31,16.31,0,0,1,134.27,100.92Z"/></svg>
