<svg id="Layer_1" data-name="Layer 1" width="240" height="240" xmlns="http://www.w3.org/2000/svg" xmlns:xlink="http://www.w3.org/1999/xlink" viewBox="0 0 240 240"><defs><style>.cls-1{fill:none;}.cls-2{fill:#fff;}.cls-3{fill:#28355a;}.cls-4{fill:#9d9d9c;}.cls-5{fill:gray;}.cls-6{clip-path:url(#clip-path);}.cls-7{fill:#b1281e;}.cls-8{fill:#0093c8;}</style><clipPath id="clip-path"><path class="cls-1" d="M155.31,103H84.68a39.17,39.17,0,0,1,70.63,0ZM80.94,116.86c-.08,1-.14,2.08-.14,3.14a39.22,39.22,0,0,0,35,38.94c-5.44-7.58-5.56-14.46-5.56-14.92a.13.13,0,0,1,0-.06,9.71,9.71,0,0,1,19.41.06h0c0,.51-.12,7.49-5.79,14.95a39,39,0,0,0,21.18-8.91,5.38,5.38,0,0,1,4.16-8.8,4.54,4.54,0,0,1,2.94,1,39.06,39.06,0,0,0,7-22.29c0-1.06,0-2.1-.14-3.14Z"/></clipPath></defs><path class="cls-2" d="M52.18,120A67.82,67.82,0,1,1,120,187.82,67.82,67.82,0,0,1,52.18,120Z"/><path class="cls-3" d="M54,120a66,66,0,1,1,66,66A66,66,0,0,1,54,120Z"/><ellipse class="cls-4" cx="120.01" cy="120" rx="62.71" ry="62.69" transform="translate(-0.73 0.74) rotate(-0.35)"/><path class="cls-3" d="M59.13,120A60.88,60.88,0,1,1,120,180.87,60.86,60.86,0,0,1,59.13,120Z"/><path class="cls-4" d="M77.3,120A42.71,42.71,0,1,1,120,162.69,42.71,42.71,0,0,1,77.3,120Z"/><path class="cls-3" d="M78.49,120A41.52,41.52,0,1,1,120,161.52,41.51,41.51,0,0,1,78.49,120Z"/><path class="cls-2" d="M123.14,172.58h-4.33v2.3h5.09v2.78h-7.77V165.91h7.77l0,2.69h-5.07v2.11h4.33Z"/><polygon class="cls-2" points="90.21 154.94 84.43 161.38 83.97 161.41 82.67 160.24 82.66 159.78 88.43 153.36 86.42 151.54 79.88 158.85 80.03 161.61 82.9 164.18 85.65 164.04 92.21 156.74 90.21 154.94"/><path class="cls-2" d="M106.62,164.11l7.59,1.61-.56,2.63-2.48-.54-1.88,8.86-2.63-.56,1.87-8.85-2.46-.53Z"/><polygon class="cls-2" points="149.26 155.45 149.11 158.21 154.35 164.04 157.13 164.19 159.99 161.62 160.14 158.86 158.84 157.4 156.83 159.21 157.35 159.8 157.34 160.26 156.05 161.43 155.6 161.41 151.81 157.21 151.84 156.75 153.38 155.36 154.15 156.21 156.14 154.41 153.58 151.56 149.26 155.45"/><polygon class="cls-2" points="100.61 174.3 98.1 173.35 102.31 162.39 104.8 163.35 100.61 174.3"/><polygon class="cls-2" points="98.13 160.4 96.49 163.28 95.66 159.92 96.07 159.21 93.75 157.87 87.88 168.04 90.22 169.38 93.68 163.35 94.62 166.51 92.29 170.57 94.61 171.91 100.48 161.73 98.13 160.4"/><path class="cls-2" d="M125.87,165.71l7.62-1.65,2,9.58L134,176l-5.68,1.22Zm6.56,7.74.24-.37-1.26-5.81-2.33.51,1.3,6.11Z"/><path class="cls-2" d="M144.26,164.55l3.75-2.16.93,1.61-3.73,2.15,2.52,4.41-2.33,1.34-5.85-10.17,6.73-3.88,1.34,2.33-4.4,2.55Z"/><path class="cls-2" d="M121.24,62.32l5.8.32-.14,2.68-4.75-.25-.34.29-.09,1.47.32.33,4.72.26-.26,5-2.07,1.86-5.8-.32.16-2.79,4.75.26.33-.29.11-2-3.92-.21L119,67.7l.19-3.54Z"/><polygon class="cls-2" points="136.34 64.7 135.06 69.32 132.77 68.69 134.01 64.07 131.42 63.37 128.33 74.69 130.92 75.4 132.27 70.48 134.58 71.12 133.23 76.02 135.84 76.73 138.91 65.4 136.34 64.7"/><path class="cls-2" d="M82.74,75.8l.78,7L91.11,84,88.9,86.19l-3.79-.62,2.16,2.21-1.9,1.89-8.23-8.38,1.93-1.88,2.17,2.23-.42-4Z"/><path class="cls-2" d="M142.89,67.06l2.45,1.13-4.91,10.66L138,77.72Z"/><polygon class="cls-2" points="153.38 72.98 152.92 73.66 151.24 74.04 150.95 72.33 151.42 71.64 149.19 70.13 142.6 79.84 144.81 81.37 148.72 75.6 149.09 77.21 150.71 76.94 146.79 82.7 149.01 84.22 155.61 74.5 153.38 72.98"/><path class="cls-2" d="M150,85.07,152,87l1.6-1.16,1.24,1.28-1.18,1.6,1.92,2L162.5,81l-2.62-2.68Zm5.06-.3,3.16-2.24L156,85.62Z"/><path class="cls-2" d="M90.93,70.19l-3.19,2,4.5,11,2.33-1.46-.8-1.83,1.51-1L96.6,80.5,98.91,79Zm2.11,8-1.53-3.56,2.54,2.92Z"/><polygon class="cls-2" points="101.37 70.53 102.01 72.28 103.19 71.84 103.89 73.71 103.72 74.12 102.07 74.73 101.66 74.54 99.67 69.27 99.86 68.86 101.8 68.12 102.2 69.18 104.74 68.23 103.37 64.65 97.92 66.69 96.78 69.21 99.53 76.56 102.06 77.71 105.68 76.34 106.82 73.82 105.07 69.16 101.37 70.53"/><path class="cls-2" d="M115,62.42l-5.75.89-1.62,2.23,1.21,7.75,2.21,1.64,3.83-.59,1.63-2.23Zm-1.32,9-.28.36-1.73.26-.37-.26-.86-5.58.27-.37,2-.31Z"/><path class="cls-2" d="M127.41,144.05a7.41,7.41,0,1,1-7.4-7.4A7.4,7.4,0,0,1,127.41,144.05Z"/><path class="cls-5" d="M121.65,146.14c.62-1.73.93-2.95.93-2.95a15.11,15.11,0,0,0-2.57-1.9,14.41,14.41,0,0,0-2.56,1.9,22.14,22.14,0,0,0,.92,2.95,6.55,6.55,0,0,0,1.64.18A6.75,6.75,0,0,0,121.65,146.14Z"/><path class="cls-5" d="M113.55,144.48a9.28,9.28,0,0,1,1.53-2.08,5.4,5.4,0,0,1,0-2.52s-.82-.24-1.7.89a7.46,7.46,0,0,0-.59,1.62A2.33,2.33,0,0,0,113.55,144.48Z"/><path class="cls-5" d="M124.92,139.88a5.11,5.11,0,0,1,0,2.52,9.51,9.51,0,0,1,1.54,2.08,2.25,2.25,0,0,0,.76-2.06,7.22,7.22,0,0,0-.6-1.67C125.75,139.64,124.92,139.88,124.92,139.88Z"/><path class="cls-5" d="M117.54,138c2.27.17,2.47.79,2.47.79s.21-.62,2.44-.79a1.89,1.89,0,0,0-1-1.16,7.64,7.64,0,0,0-1.44-.14,7.19,7.19,0,0,0-1.47.15A1.89,1.89,0,0,0,117.54,138Z"/><path class="cls-5" d="M114.64,147.55a2.06,2.06,0,0,0,.36,2,7.51,7.51,0,0,0,1.49,1.07c.65.2,1.57.35,2.08-.17a8,8,0,0,1-1.53-2.12A4.31,4.31,0,0,1,114.64,147.55Z"/><path class="cls-5" d="M125.36,147.55a4.25,4.25,0,0,1-2.38.74,8.39,8.39,0,0,1-1.54,2.12,2.11,2.11,0,0,0,2.07.17A7.3,7.3,0,0,0,125,149.5,2.06,2.06,0,0,0,125.36,147.55Z"/><g class="cls-6"><path class="cls-2" d="M120,80.81a39.17,39.17,0,0,0-4.18,78.13c-5.44-7.58-5.56-14.46-5.56-14.92a.13.13,0,0,1,0-.06,9.71,9.71,0,0,1,19.41.06h0c0,.51-.12,7.49-5.79,14.95a39,39,0,0,0,21.18-8.91,5.38,5.38,0,0,1,4.16-8.8,4.54,4.54,0,0,1,2.94,1A39.17,39.17,0,0,0,120,80.81Z"/><path class="cls-7" d="M116,122.36a4.48,4.48,0,0,1,.37.49,5.3,5.3,0,0,1,.51.27,8.25,8.25,0,0,0,1,.53,1.58,1.58,0,0,0,.92.07,3.31,3.31,0,0,0,.3-.21s.33,0,.45,0a2.19,2.19,0,0,0,.47-.21V80.78a40.71,40.71,0,0,0-4.44.27v41.12A2,2,0,0,1,116,122.36Z"/><path class="cls-3" d="M144.5,133.74c-.14-.13-.32-.38-.53-.3.21.35.44.7,1,.55C144.94,133.8,144.73,133.75,144.5,133.74Z"/><path class="cls-3" d="M150,133.05a1,1,0,0,0-.73,0c.48.16.76.69,1.13.8,0-.16-.22-.34-.22-.44.39,0,.77.29,1.08.3C151,133.34,150.48,133.29,150,133.05Z"/><path class="cls-3" d="M155.08,133.23c-.33-.1-.74,0-1.16-.06s-.9-.4-1.36-.19c.48,0,.91.42,1.4.47s.87-.13,1.23.13a9.31,9.31,0,0,1-1.27.22,5,5,0,0,0,2.33-.19A3.22,3.22,0,0,1,155.08,133.23Z"/><path class="cls-3" d="M137,133.47c-.19,0-.24-.11-.4-.11-.64.26-.87-.69-1.52-.54a7.2,7.2,0,0,1,.72.74,8,8,0,0,0,1.11.18c.24.14.35.36.55.51,0-.51-.28-.69-.46-1C137,133.33,137.14,133.44,137,133.47Z"/><path class="cls-3" d="M144.37,133c-.14-.47-1.23-.55-1.6-.21a4.36,4.36,0,0,0,.82,0c.24.34.77.41,1.27.52A.68.68,0,0,0,144.37,133Z"/><path class="cls-3" d="M93.85,133.05a1.17,1.17,0,0,0,.37-.48c-.52.2-1.22.2-1.59.54C93,133.18,93.42,132.91,93.85,133.05Z"/><path class="cls-3" d="M117.19,132.61a2.92,2.92,0,0,0-1.11.19c0-.12.26-.36.1-.4-.35.31-.65.81-1.17,1-.26.14-.59.21-.84.35s-.59.19-.55.46a2.94,2.94,0,0,1,1.13-.26c.55-.07.75-.55,1.39-.52.09,0,0-.22.2-.21s.39.06.51.18c-.07.1-.22.14-.22.3.79-.11,1.35-.23,2.15-.38a11.53,11.53,0,0,1-2.24-.31C116.7,132.82,117,132.8,117.19,132.61Z"/><path class="cls-3" d="M98.1,132.21c.06-.15.3-.1.36-.23-.22-.39-.57.13-.81.19a1.82,1.82,0,0,0-1.16.44,5.91,5.91,0,0,0,1-.15c.25,0,.47.13.66.11.37,0,.54-.43.84-.54C98.68,131.91,98.37,132.28,98.1,132.21Z"/><path class="cls-3" d="M105.28,132.24c-.48.25-1.13.27-1.44.66a14.08,14.08,0,0,0,1.64-.44c.08-.31.47-.47.47-.74C105.56,131.72,105.45,132,105.28,132.24Z"/><path class="cls-3" d="M133,132.71c0,.23.21.29.24.52-.67.17-1.9.13-2.08-.62-.81.62-1.46-.07-2.16-.26a3,3,0,0,0-.47-.66c0,.44.28.59.37.94a1.9,1.9,0,0,0,.78.38,1.6,1.6,0,0,0,1.43.65c-.08-.28-.51-.19-.71-.35.22-.07.36-.21.68-.15.47.54,1.78.21,2.28.72.05.29.39.49.55.55C133.72,133.75,133.7,132.91,133,132.71Z"/><path class="cls-3" d="M148.72,131.72c.19.19.67.07.78.34-.18.08-.23.22-.44.26-.45-.41-1.34-.36-1.87-.66.16.54.81.48,1.35.66s.75.39,1.1.31c-.14-.06-.34-.1-.43-.21.89-.25,1.85.45,2.77.4a4.25,4.25,0,0,0-1.68-.61C150,131.72,149.47,131.58,148.72,131.72Z"/><path class="cls-3" d="M110.59,131.41a5.7,5.7,0,0,0-.85,0c-.12-.05-.29-.22-.47-.13a1,1,0,0,0,.86.42,5.44,5.44,0,0,0-2.2,1.11c.55,0,.79-.31,1.09-.42s.46,0,.67-.11.57-.43,1-.37c.33.33,1,.11,1.48,0C111.64,131.72,110.83,131.86,110.59,131.41Z"/><path class="cls-3" d="M91.83,131.72c.15,0,.3,0,.51,0a.13.13,0,0,0,0,.18c.34,0,.41-.32.51-.63A1.47,1.47,0,0,0,91.83,131.72Z"/><path class="cls-3" d="M88.63,131.91c.59-.3,1.7-.06,1.85-.8-.08,0-.09-.05-.16,0C89.84,131.42,88.9,131.48,88.63,131.91Z"/><path class="cls-3" d="M146.26,131.32c.28,0,.48-.29.71-.28a1.09,1.09,0,0,1,.8.55,1.33,1.33,0,0,0,.77-.18H148c-.08-.55-.88-.37-1.1-.77a.3.3,0,0,0,0,.22c-.31.25-.7.06-1.07.1-.13,0-.27.17-.4.18s-.52-.22-.62.08.29.1.47.1a2.66,2.66,0,0,0,1.57.45c-.22-.32-.83-.26-1.16-.48C145.9,131.14,146,131.37,146.26,131.32Z"/><path class="cls-3" d="M129.39,131.43c.17.2.19.53.61.48-.13.24.12.58.35.44-.12-.37-.27-.6-.4-1-.19,0,0,.24-.19.27s-.23-.12-.26-.27.29-.18.21-.31c-.25,0-.21.21-.45.16a1.23,1.23,0,0,0-.78-.56C128.71,131,128.8,131.47,129.39,131.43Z"/><path class="cls-3" d="M97.32,131.11c0-.15-.22-.18-.35-.25a3.61,3.61,0,0,0,.08-.66,1.09,1.09,0,0,0-.64.41c0,.16.13.21,0,.27a3.29,3.29,0,0,0-1.8.36c-.35,0-.73,0-.84.35.22,0,.46-.09.59,0-.21.24-.49.41-.69.68.53.17.75-.46,1.17-.65a4,4,0,0,1,1.85-.48C97,131.14,97.22,131.31,97.32,131.11Z"/><path class="cls-3" d="M89,130.33c.13-.13.4-.14.4-.42-.43.18-1,.08-1.46.24-.28.12-.49.39-.8.49s-.75.09-1.07.22c-.15.06-.3.22-.47.28a9.7,9.7,0,0,1-1.56.18c-.56.1-1.2-.18-1.61.16.19.12.35,0,.54,0a6.66,6.66,0,0,0,1.42.26,7,7,0,0,1,.89-.36,4.22,4.22,0,0,0,.73-.27,5,5,0,0,1,1-.1c-.15.28-.49.38-.69.65.68,0,.77-.66,1.47-.68a8.46,8.46,0,0,1,.54-.68c.19,0,.33-.09.51-.1S88.9,130.4,89,130.33Z"/><path class="cls-3" d="M144.23,130.33a1.06,1.06,0,0,0,.52.78c.09-.25.62-.16.84-.18-.06-.28-.44-.19-.61-.36.36-.17.48.07.87,0,0-.12-.24-.13-.13-.2.27.09.45.23.7,0-.52-.16-1.17-.59-1.67-.54.06.12.32.25.29.37-.16,0-.11,0-.26,0s-.08.26-.15.36c-.16-.1-.08-.32,0-.44A.63.63,0,0,0,144.23,130.33Z"/><path class="cls-3" d="M135.77,131c0-.4-.21-.82-.24-1.26-.11.22-.13.51-.28.66C135.37,130.67,135.42,131,135.77,131Z"/><path class="cls-3" d="M96.83,129.17c0,.18.08.15.07.3-.34.07-.7.12-.81.44.57-.32,1,.27,1.56-.07.09-.11,0-.28,0-.34.38,0,.3-.28.29-.61-.21-.18-.46-.23-.58.05C97.1,128.92,96.91,129,96.83,129.17Z"/><path class="cls-3" d="M143.46,129.13c.11.4.59.41.88.62,0-.18-.24-.4-.39-.54a2,2,0,0,0-1.12-.47c-.13-.17-.39-.4-.6-.36,0,.23.23.16.24.36s-.27.11-.31.28C142.65,129.13,143.09,128.9,143.46,129.13Z"/><path class="cls-3" d="M137,129.94c.16.2.34.57.55.58a4.58,4.58,0,0,0-.55-1c-.15,0-.17.06-.27.07a3.2,3.2,0,0,1-.81-1.12c-.15,0-.1.16-.21.18-.19-.15-.16-.52-.27-.73a1.24,1.24,0,0,0-.1.39c-.17-.1-.36-.33-.57-.29a13.27,13.27,0,0,1,1.42,1.84A7.46,7.46,0,0,0,137,129.94Z"/><path class="cls-3" d="M118.29,129.29a1.24,1.24,0,0,1,.42.43H119a9.32,9.32,0,0,0,1.83.73,2.49,2.49,0,0,0,0-.61c-.19,0-.17.19-.32.21a.41.41,0,0,1-.27-.11c.17,0,.23-.16.27-.29-.36.19-.64,0-1,.07-.17-.08-.25-.25-.44-.28.07,0,0-.12.09-.12a2.45,2.45,0,0,0,.42.07.31.31,0,0,0,0-.34c-.22.08-.36-.1-.58-.21,0,.23-.11.48-.25.48s-.23-.3-.33-.33c-.27-.1-.53.13-.58-.15.13-.08.42,0,.58-.08a.33.33,0,0,0-.27-.47c-.09.06.09.18,0,.23-.36,0-.43-.31-.77-.34,0,.21.27.21.28.45s-.27.18-.42.11a2.14,2.14,0,0,0-.78-1c0,.24.23.42.17.58-.46-.05-.56-.65-.89-.73A2.74,2.74,0,0,0,118.29,129.29Z"/><path class="cls-3" d="M99.52,127.85c.08.39-.06,1,.25,1.14.17,0,.13-.24.19-.36a1,1,0,0,0,.47-.11c0-.41.07-.93.07-1.28a1.3,1.3,0,0,0-.54.74c0,.19.26.12.26.31a.52.52,0,0,1-.33.09C99.77,128.2,99.74,127.92,99.52,127.85Z"/><path class="cls-3" d="M91.48,131.14a10,10,0,0,0,2.61-.53c.37-.23.52-.52.92-.59s.64.07.79-.3c-.74,0-1.58-.26-2.08.27,0,0,.2,0,.26.1-.23.46-.8.56-1.42.62a2.38,2.38,0,0,1,.68-.43c.21-.36.28-.8.67-.89s.72.15,1.16.18.79-.17,1.22-.18c.12-.11.06-.22.17-.34.26-.26,1.05-.31,1-.76,0-.17-.53-.45-.6-.54-.21.21-.29.55-.53.73-.33,0-.38.15-.57.22-.49-.36-.85.12-1.36.19,0-.13,0-.18,0-.26a6.13,6.13,0,0,0,.94-.37c.21.22.88.12.74-.28-.16,0-.39.2-.58.1.25-.12.29-.43.58-.55s.64,0,.84-.29c-.35,0-.7.05-1.06.06-.64.88-2,1.08-3.06,1.51-.35.12-.63.39-.9.44s-.7,0-1,.07a4.84,4.84,0,0,0-.94.52,4.92,4.92,0,0,1,1.89-.19c-.3.08-.43.4-.73.55s-.9.1-1.13.47c.39-.2.87-.09,1.32-.26s.57-.36.87-.47.65-.19,1-.29C93.1,130.66,91.84,130.61,91.48,131.14Z"/><path class="cls-3" d="M130,127.8c0-.35,0-.65-.24-.77a1.82,1.82,0,0,1-.26,1.12,3.14,3.14,0,0,1,.12.61c.2.1.3.26.5.34s.22.57.48.68c0-.23.59-.49.41-.79-.08.21-.26.27-.44.37.08-.31.52-1.1,0-1.25-.18.24,0,.74-.11,1C130.09,128.88,130.28,128.08,130,127.8Z"/><path class="cls-3" d="M118.27,127.12a.64.64,0,0,0-.47,0c0,.12-.07.22-.16.26-.08-.12,0-.33-.2-.35-.31.29,0,1,.36,1,.08-.13,0-.27,0-.41A4,4,0,0,1,118.27,127.12Z"/><path class="cls-3" d="M134.31,126.76a4.69,4.69,0,0,0,1.11.92C135.2,127.25,134.85,126.73,134.31,126.76Z"/><path class="cls-3" d="M116.34,127.45c.13,0,.18-.08.3-.07a.81.81,0,0,0,.55.52,2.73,2.73,0,0,0-1.09-1.28c-.1,0-.06.18-.17.18-.26,0,0-.37-.22-.4a1,1,0,0,0-.11.55c.13.14.45.11.61.14A.38.38,0,0,0,116.34,127.45Z"/><path class="cls-3" d="M98.61,127.17c-.08,0-.08.09-.07.18.43-.15.66.36,1,.25-.17-.19-.22-.51-.55-.54a.63.63,0,0,0-.08-.34c.29-.19,1-.08.92-.55-.18.28-.52.06-.81.11s-.27.22-.39.3-.54.16-.74.37C98.23,127,98.53,127,98.61,127.17Z"/><path class="cls-3" d="M110.51,126.51c0-.14.22-.23.1-.37a.8.8,0,0,1-.45.14.7.7,0,0,0-.11.37c-.2.15-.42.25-.36.65a.81.81,0,0,0-.24.6c.16.25.28.53.56.66.22-.3-.2-.45,0-.76,0-.11-.15-.06-.15-.16C110.23,127.41,109.94,126.51,110.51,126.51Z"/><path class="cls-3" d="M119.32,127.68a6.25,6.25,0,0,1-.59-1.61c-.18,0-.23.12-.39,0v.15C118.68,126.69,118.79,127.39,119.32,127.68Z"/><path class="cls-3" d="M138,126.69a1.86,1.86,0,0,1,.46.07c-.19-.23-.5-.34-.68-.62a3,3,0,0,1-.91-.22C137,126.36,137.73,126.28,138,126.69Z"/><path class="cls-3" d="M133.75,127.21c-.21-.47-.31-1-.51-1.53-.06.19,0,.46-.06.66C133.44,126.53,133.35,127.27,133.75,127.21Z"/><path class="cls-3" d="M103.18,125.67c-.17.49-.61.82-.73,1.39a8.69,8.69,0,0,0,0,.94,1.18,1.18,0,0,0-.26.84,3.93,3.93,0,0,1,.67-.84c-.35-.93.24-1.39.58-1.93C103.29,126,103.29,125.77,103.18,125.67Z"/><path class="cls-3" d="M114.9,126.62a1,1,0,0,1-.61-.76.81.81,0,0,0,.28-.23c0-.53-.12-.86-.53-.95.16.31.34.43.2.81,0,.15-.24.15-.25.32s.3.54.25.81a2.35,2.35,0,0,1-.46.28c.09.3.52.25.6.55a.75.75,0,0,0,.35,1.07.9.9,0,0,0,.17-.37C114.17,128.3,115,127,114.9,126.62Z"/><path class="cls-3" d="M102.27,125.33c-.38.3-.26,1-.6,1.36-.07-.07-.17-.11-.25-.18v-.44c-.22.07-.16.4-.22.62.5.28.22.9.19,1.36.75-.51.41-2.07,1.2-2.53,0-.17.06-.3.08-.47.4-.13.93-.61,1.35-.37.16-.18.34-.35.5-.5a2.57,2.57,0,0,0-2.11.87c-.82,0-1.08.59-1.79.73C101.52,126.06,101.62,125.29,102.27,125.33Z"/><path class="cls-3" d="M127.27,127.5c-.45.09-.06.6-.35.79,0-.12-.2-.16-.28-.24.47-.46.41-1.63.54-2.35s.75-1,.84-1.65c-.36.2-.5.64-.81.89,0-.32,0-.51,0-.8-.44.23-.16.81-.22,1.22,0,.14-.19.28-.23.45-.09.4,0,.61-.32.7a16.72,16.72,0,0,0-1,2c.51-.56.94-1.39,1.34-1.91.08,1.16-.83,1.51-1,2.24a1.07,1.07,0,0,0,.65-.6c.29.2.35.64.76.7,0-.32.18-.65.18-1.06C127.22,127.76,127.16,127.72,127.27,127.5Z"/><path class="cls-3" d="M113.81,125.45a1,1,0,0,1-.32-.55c.07-.1.29-.1.24-.33s-.22,0-.32,0c-.13-.38.1-.63.08-1a.32.32,0,0,0,.24-.47c-.15,0-.21.26-.29.19s0-.26-.08-.37a.51.51,0,0,0-.48.31c0,.19.23.31.24.49s-.13.51-.07.8.16.41.18.62.33.17.35.42a.35.35,0,0,1-.14.13s0-.13-.19-.09c0,.44.21.76.08,1.21A3.46,3.46,0,0,0,113.81,125.45Z"/><path class="cls-3" d="M107.46,131.37c.36-.08,1.1-.08,1.4-.41-.47,0-.89-.12-.86-.68-.3-.14-.4-.45-.76-.53,0-.22.13-.4.07-.58-.34.1-.39.48-.48.82.07.17.37.34.37.5-.55,0-.57-.46-.71-.81-.2.13-.12.55-.28.73-.26-.13-.39.13-.63.16.14-.37-.17-.58-.3-.79s-.06-.48-.24-.57c-.24.26-.08.73-.29,1,0,0,0,.07.07.15s.17-.15.37-.1.21.27.18.36c-.2,0-.32-.06-.52,0s-.11.14-.18.22c-.28-.15-.28-.59-.25-1.05.1-.16.28-.25.33-.46s-.28-.11-.33-.3c.13-.19.22-.44.62-.36.16.19.13.55.36.66.18-.2.08-.58,0-.8,0-.06.17-.24.21-.19,0,.25.13.41.34.43,0-.2-.07-.4-.1-.61.16-.18.61-.08.73-.33-.45-.23-1,.27-1.39.23.19-.69.88-.89.92-1.72.35-.36-.08-.78-.2-1.1,0-.15.2-.19.2-.4a.53.53,0,0,0-.41-.23c0,.15.07.15.07.27-.16.34-.49.46-.7.76a17.09,17.09,0,0,0-.4,1.75c.22-.15.26-.48.48-.62-.05-.36.16-.45.29-.66s0-.44.23-.47c0,.15.15.22.18.36a1.82,1.82,0,0,0-.15.66c-.72.7-1,1.88-1.89,2.34-.12,0-.14-.06-.27-.05s-.14.23-.31.23c-.34-.44.23-.78.25-1.12s-.29-.52-.36-.85c-.18.25,0,.64.06.88-.17.38-.61.48-.67,1,.06.14.21.15.31.24-.6.17-.9,1-1.66.76a.59.59,0,0,1,.51-.48c0-.21.09-.36.11-.58a3,3,0,0,1-1.2.55c-.17.58-1,.51-1.32,1-.14,0-.1-.11-.24-.08-.08.23-.4.41-.48.47,0-.19,0-.45-.14-.47-.19.14.06.69-.3.63-.13-.29-.15-.7-.51-.74.15.25.16.62.3.87-.07.12-.2.15-.24.31a1.32,1.32,0,0,1,1.26-.07c0-.17-.11-.18-.11-.3a.62.62,0,0,1,.28-.25c.17.12.17.36.13.62a2.17,2.17,0,0,0,.56.21,1,1,0,0,1,.89-.13c.13-.31.13-.73.54-.73,0,.17.13.25.19.39s-.28.25-.19.4a2.88,2.88,0,0,1,.47-.3c0-.2-.08-.24-.1-.39.13,0,.16-.16.27-.22s.24.27.36.43a2.52,2.52,0,0,0,1-.47c0-.17-.09-.28,0-.37.31-.07.28.17.45.27a.73.73,0,0,1,.37,0,.39.39,0,0,0,.12.32c.29,0,.68.41.86,0a6,6,0,0,0,1.34.15c.1-.3.73-.38,1-.23.13,0,.15-.21.26-.27a2.79,2.79,0,0,1,.37.4C107.78,131.12,107.54,131.17,107.46,131.37Zm-7.39-.15c-.2.07-.33.26-.55.1-.06-.46,0-.75.34-.91a.68.68,0,0,0,.26.11C100.12,130.79,100,131,100.07,131.22Z"/><path class="cls-3" d="M145.25,131.91c0,.08.06.14,0,.18-.41-.13-.53-.58-.87-.8-.1.1,0,.2,0,.33-.12,0-.16.07-.29,0a3.92,3.92,0,0,0,.29-.62,2.72,2.72,0,0,1-.31-.71c-.19-.09-.48.13-.62,0s.1-.14.05-.29-.57-.1-.79-.22c.24,0,.31-.12.51-.15a.41.41,0,0,0,.53.06c.2.24.63.38.82.06-.1-.1-.25,0-.34,0-.11-.34-.4-.12-.73-.22s-.46-.24-.66,0h-.25c-.09,0-.12.16-.25.19-.29,0-.51-.18-.78-.06.22.25.65.25.6.74a.46.46,0,0,1-.48,0c-.16-.46-.64-.57-.91-.92,0-.49-.43-.55-.61-.83a.79.79,0,0,0,.28.58c-.1,0-.15.12-.22.18s.15.14.15.28c-.32,0-.53-.05-.58-.28s.26-.15.29-.37a1.07,1.07,0,0,0-.6.37c-.09-.14,0-.47-.25-.51.1-.06.2-.1.22-.23s-.07-.13-.07-.24c-.24-.13-.39-.33-.76-.31-.09-.19-.09-.47-.23-.61-.21,0-.4-.15-.58,0,.18.11.53.19.44.43-1.2.05-1.25-1.09-2.41-1,0,.16.34.26.29.4-.15,0-.2-.14-.41-.11.06.47.46.27.81.19.19.16.36.33.55.5-.17,0-.18.17-.22.28h.37s0-.12,0-.13c.38.18.92.25,1.13.62.14,0,.14-.13.23,0,0,.64.49.77.91,1,0,.37.33.31.63.47s.35.36.54.4.33,0,.47,0c.58.13.88.61,1.21,1,.73.12,1.25.67,2.07.36.23.39,1.08.18,1.07.81-.23.09-.55,0-.62.26.35.07.53-.12.75-.12.56,0,.71.65,1.19.81-.19-.32-.4-.6-.59-.92C145.67,132.67,145.61,132.14,145.25,131.91ZM142.3,131c-.1-.07-.21-.12-.23-.26.16,0,.23-.13.35,0A1.51,1.51,0,0,1,142.3,131Zm.47-.81c.13,0,.3,0,.37.05s-.16.18-.25.24S142.81,130.32,142.77,130.23Zm.19.7v-.15a.3.3,0,0,1,.22,0A.2.2,0,0,1,143,130.93Zm.73.66a1.12,1.12,0,0,1-.55-.08c-.14-.36.27-.4.55-.44A.56.56,0,0,1,143.69,131.59Z"/><path class="cls-3" d="M141.5,131.91c-.09-.11-.08-.31-.26-.32s-.26.24-.48.28c-.24-.18-.12-.34.07-.55.15,0,.27.12.37,0-.3-.3-.8-.4-1-.8-.24,0-.18.38-.24.59-.06,0-.09-.05-.12,0a1.32,1.32,0,0,1,.06-.54c-.24-.12-.34-.56-.72-.34-.09-.1-.08-.31-.08-.51a1,1,0,0,1-.43-.25c-1,0-1.19-.81-2-.84.58.22.71.88,1.34,1.05.13.19.32.33.36.6.29.33.87.42,1,.89-.1.2-.31.07-.55.07s-.14.31-.27.42a.45.45,0,0,0-.29,0c-.11.07-.14.23-.3.25,0-.17.08-.22.05-.44a.58.58,0,0,0-.46-.06c0,.19.22.19.14.47-.24,0-.4,0-.43-.12-.12-.4.26-.48.36-.61-.46-.4-1.3,0-1.72-.44,0,.3.31.29.37.55-.4-.07-.37.33-.81.21-.07-.06-.13-.14-.21-.21-.57.09-.68-.32-1.18-.36.09.12.27.17.3.36-.1,0-.1.21-.26.21s-.11-.33-.32-.36c-.21.17-.48.42-.84.22.06-.17,0-.46.14-.54s.41.15.59,0c-.08-.61-.68-.17-.85.08-.15-.22-.65-.07-.92-.19-.06.15-.26.15-.28.37.31.13.91-.31,1.1.06-.17.24-.79,0-.92.36-.14-.11-.18-.29-.37-.36-.12.1-.19.3-.37.34a.34.34,0,0,1-.13-.17.69.69,0,0,0,.16-.41c-.31,0-.49.29-.9.18,0-.13.1-.13.06-.26-.54.25.16.54.24.84h.21c.16.17,0,.54.12.65s.13-.28.27-.29.07.31.24.32c.15-.18-.09-.64.18-.79.24.21.14.8,0,1,.59-.24.77.33,1.17.48.11-.33-.35-.41-.4-.7.15-.13,0-.34.11-.52.46.05.63.37,1.06.42.24-.25.28-.45.55-.48s.31.23.58.37a6,6,0,0,0,1,.14c-.2-.29-1.07-.26-.9-.66.36.23,1.07.12,1.17.63.27.06.25-.17.48-.16a.92.92,0,0,1,0,.52c.14.35.52.32.69,0a1.11,1.11,0,0,0,1,0,1.9,1.9,0,0,0,.83.48c-.1-.42-.91-.52-.68-1,.2,0,.21.19.4.23a1.74,1.74,0,0,1,1.64.42h.47c-.12-.21-.44-.17-.44-.49.11,0,.05-.16.15-.16.09.43.73.32,1,.52.19-.1.46-.1.62-.23-.11-.09-.36,0-.43-.18.29-.09.78.14,1.06,0A1.55,1.55,0,0,0,141.5,131.91Zm-3-2.07c.17-.1.36.1.36.31C138.59,130.15,138.58,130,138.48,129.84Zm-2.61,1.93a.6.6,0,0,1,.52-.36C136.41,131.69,136.07,131.83,135.87,131.77Zm1.35.4c.07-.17.32-.12.51-.14s.18.15.14.32C137.59,132.38,137.33,132.4,137.22,132.17Zm1.62-.3a.66.66,0,0,1,0-.25c.21,0,.45,0,.42.18S139,131.86,138.84,131.87Zm1.16.22c-.11,0-.09,0-.18,0-.07-.34.16-.28.31-.29C140.1,131.88,140,132,140,132.09Z"/><path class="cls-3" d="M133.86,128.48a.47.47,0,0,0-.53,0c.09.18-.07.36-.17.47.1-.28-.07-.46-.17-.66.14,0,.34,0,.43,0s-.29-.19-.33-.39a1.07,1.07,0,0,0,.07-.33c-.29,0-.47.12-.66-.07,0-.07,0-.22,0-.23.26,0,.06.33.31.3a.44.44,0,0,0-.24-.59,2.8,2.8,0,0,1,.16-1.41c-.27,0-.19.38-.33.53-.1-.06,0-.32-.15-.29a2.91,2.91,0,0,0,.08,1.22c-.24-.06-.1-.52-.42-.49,0,.36-.25.47-.21.91.09.14.26.39.21.55a1,1,0,0,1-.36-.2c0-.16,0-.23,0-.35s-.23-.15-.2-.28c-.25.06-.28.35-.4.55.24.39.69.93.37,1.53a.14.14,0,0,0-.15-.15c-.12.2-.07.56-.22.74.15.1.19.31.4.36.09-.13,0-.36,0-.52s.23,0,.2-.11.07-.68.28-.87a1.73,1.73,0,0,1,.41-.95c0,.13.1.16.11.3s-.2.12-.22.28.15.1.18.19-.17.23-.26.37.08.23.1.36c-.21.07,0,.48.16.53a.83.83,0,0,0,0-.86c0-.15.23-.13.27-.29s-.17-.52.1-.58c.08.14,0,.2,0,.43.34.18,0,.73.14,1,.28-.21.73-.5.65-.81C133.75,128.65,133.8,128.56,133.86,128.48Zm-1.72-.73c-.14-.2-.27-.5-.07-.72a3.35,3.35,0,0,0,.26.42C132.29,127.59,132.2,127.64,132.14,127.75Z"/><path class="cls-3" d="M121.58,128.05a1.06,1.06,0,0,0,.31-.75c-.08,0-.24,0-.31-.1.24-.48-.18-.7-.06-1.21-.1-.09-.15-.27-.29-.32-.38.23-.31.92-.59,1.23,0,.17.21.36.09.53a3.7,3.7,0,0,0-.6-.81c-.16.55.51.79.32,1.36l0,0c-.2,0-.2-.19-.41-.18.12.42.55.51.67.92.11,0,.24.14.35,0a7.51,7.51,0,0,1-.39-.68,1.13,1.13,0,0,0,.14-.63C121.07,127.62,121.25,127.91,121.58,128.05Zm-.12-.6c0,.27-.25,0-.17-.07S121.37,127.48,121.46,127.45Zm-.27-1.28a1.48,1.48,0,0,1,.18.7,2,2,0,0,0-.37-.05A1.17,1.17,0,0,1,121.19,126.17Z"/><path class="cls-3" d="M128.83,129.57c-.27,0-.36.39-.53.37a1.11,1.11,0,0,1,.34-.69c.16,0,.19,0,.3,0,.07-.2-.09-.2-.16-.26a2.81,2.81,0,0,0,.29-.54c-.24.07-.24.38-.46.47-.09-.26.13-.27.22-.47a6,6,0,0,1-.05-1c.33-.27-.08-.85.23-1.1.19.34-.11,1,.14,1.35.12-.13.07-.42.14-.59a.31.31,0,0,0,.19,0,3.74,3.74,0,0,1,.32-.73c0-.08-.22,0-.25-.08a.42.42,0,0,0-.18-.58c-.08.15-.08.37-.17.47A.34.34,0,0,1,129,126a1.28,1.28,0,0,0-.25-1.27c.05.24-.07.36-.11.55s.23.17.26.32-.05.68-.29.81a1.51,1.51,0,0,1,0-.87c-.27-.19-.14-.52-.25-.81-.16.14-.1.47-.27.6-.13-.07,0-.39-.23-.42.23.76-.23,1.73.3,2.26-.35.21,0,.91-.47,1.09a3.8,3.8,0,0,1,0,.76c-.07.16-.27.17-.34.31.07.37.47.63.73.39a.71.71,0,0,0,.09.45C128.48,130.07,128.85,129.9,128.83,129.57Zm-1,0c-.09-.17.15-.21.21-.36a1.49,1.49,0,0,0-.09-.88c.19-.2.09-.37.16-.61s.32-.34.34-.52-.26-.42-.27-.66.17-.57.14-.93c.11.28,0,1,.37,1.11.16.6-.54,1.12-.06,1.66,0,.15-.17.19-.23.32A.75.75,0,0,1,127.81,129.57Z"/><path class="cls-3" d="M106.72,127.6c0-.22-.11-.44,0-.54.4.08.38.56.66.76.07-.29,0-.77.28-.84.1,0,0,.14.17.11a.55.55,0,0,1,.42-.4c.14,0,.19.11.33.13.08-.2.25-.32.33-.54s-.13-.11-.09-.25a.46.46,0,0,1,.41,0,.59.59,0,0,1,.59-.5v-.31s.17,0,.22-.06c-.07-.37.16-.45.43-.49a1.05,1.05,0,0,1,0-.36c.11,0,.23.06.28,0a.48.48,0,0,0-.17-.66,1.37,1.37,0,0,1-.48.18c.1-.18.27-.29.38-.47-.12-.07-.05-.34,0-.47-.24-.07-.46-.17-.49-.45s.35-.14.57-.18h0c.12,0,.35.06.46.08l.32,0a2,2,0,0,1,.42.44,1.35,1.35,0,0,0,.9-.28c.09.09.1.27.31.25a.75.75,0,0,1,.24-.69c.16-.2.33-.13.51-.13a.49.49,0,0,1,.32.16h0a.25.25,0,0,0,.15.11c.09,0,.3-.14.4,0a.79.79,0,0,1,0,.35c.33.16,0,.76.33.91-.09,0-.17.09-.26.13.11.25,0,.5,0,.78.21-.18.41-.38.62-.6,0-.1-.05-.27,0-.28s.06.22.23.18c.08-.27,0-.42-.11-.66a1.47,1.47,0,0,0,.37-.62c.08,0,.14-.11.18,0a2,2,0,0,0-.08,1.25c0-.38.29-.67.38-1h0l.16.25h0c0,.35.16.81-.06,1.07-.24,0-.31-.24-.53-.08,0-.16-.1-.23-.28-.22,0,.14,0,.23,0,.41s-.23,0-.21.18.29.24.14.48a.28.28,0,0,0-.25,0c-.19.52.39.71.65,1-.12.52.31.52.58.66a.47.47,0,0,0,.47.4c0-.23-.19-.22-.21-.4.35-.3-.14-.7,0-1.16-.14-.07-.3-.11-.25-.34.11,0,.16.09.25,0-.07-.31-.13-.41-.19-.69.16,0,.2-.1.27-.17s-.22,0-.22-.14c.19-.1.12-.47.18-.73.07-.08.78.41,1,.51s.63.27.63.27h0a1.11,1.11,0,0,0,.55.45,1.28,1.28,0,0,1-.22-.55,1.41,1.41,0,0,0,.31-.34,3.58,3.58,0,0,0,.75,0c0,.14.17.13.17.29-.15,0-.47-.09-.47.11.29.26.81.3,1.14.52a.32.32,0,0,0,.14.29c.05-.28,0-.43.07-.71,0-.12-.19-.08-.21-.18s.12,0,.18-.08c-.13-.3.24-.43,0-.58a1,1,0,0,1,.54-.25c.2,0,.36.22.51.18a1.19,1.19,0,0,1,.34,0c.2.1.28.31.55.34a1.33,1.33,0,0,1,.18.31c.16,0,.14-.09.28-.06-.07.3-.1.64-.33.8a.6.6,0,0,0-.18-.21.41.41,0,0,0-.25.07c.17.15.17.49.48.51,0,.2-.08.3,0,.43-.12,0-.15.06-.23.09a.89.89,0,0,0-.06-.3c-.27-.1-.62-.1-.74-.36-.15.41.3.51.21,1,0,.16.32.09.26.34-.18,0-.2-.13-.32-.15,0,.46.48.59.25,1.06a.29.29,0,0,0,.29-.08v-.36c.16,0,.19-.18.34-.21.38.18,0,.51-.18.65a2.66,2.66,0,0,1-.47,1.4,1.46,1.46,0,0,1,.06.54c.19.09.33.25.63.21.06-.06.06-.2.17-.24s.29,0,.49,0,.09-.2.16-.26c.47.27.86-.17,1.28,0a1.07,1.07,0,0,1-.18-.7c-.18.1-.13.65-.51.45.12-.23.14-.54.31-.74.09,0,.1.08.2,0,.07-.2.09-.53.29-.65.11,0,0,.27.15.27.19-.39-.07-1,.09-1.16.23,0,.14.21.18.33.25,0,.18-.31.38-.33,0-.11-.2-.15-.25-.28.59-.5.64-1.52,1.22-2,.08,0,.13.1.27.11a.56.56,0,0,1,.07-.18h0c.15-.25.73-.26,1-.19a11.38,11.38,0,0,0,1.27.26,4.74,4.74,0,0,1,1,.23.63.63,0,0,1,.19.21c0,.19-.14.29-.06.4s.26,0,.31.08c.15.64-.3,1-.25,1.68.21.18.12.57.11.91.21,0,.2-.21.21-.4.45-.24.37-1.16.15-1.62a.7.7,0,0,0,.18-.68c.09-.12.27-.15.3-.33a1.8,1.8,0,0,1-.26-.29h0c0-.11.16-.16.31-.09s.48.26.74.17.5-.3.69.17a1.06,1.06,0,0,0,.79.55,1.35,1.35,0,0,1,.3.37,2,2,0,0,0,.07-.26c.17-.08.18,0,.31.06a3.4,3.4,0,0,1,.44.32.45.45,0,0,1,0,.2c0,.2-.41.09-.51.21a5.82,5.82,0,0,0,.73.08,3.22,3.22,0,0,0,1.5.91c0-.18-.11-.14-.07-.32-.54,0-.68-.49-1.22-.52-.07-.11-.26-.21-.13-.43.4,0,.65.41,1.17.22-.61-.22-1.11-.56-1.71-.77a.93.93,0,0,1-.32-.2h0a.61.61,0,0,0-.73-.2h0c-.26,0-.37-.57-.53-.75a1.69,1.69,0,0,0-.54-.27,6.25,6.25,0,0,1-1.17.13,1.7,1.7,0,0,1-.39,0h0a.78.78,0,0,0-.37-.35c-.22.19-.35.44-.8.37a9,9,0,0,1-1.62-.28,1.54,1.54,0,0,0-.9,0c-.58.3-1.65.06-2.43.21-.16,0-.18-.07-.18-.07,0-.16-.1-.27-.13-.43-.35,0-.8.06-.91-.26a1.27,1.27,0,0,0-1.28.32c-.2,0-.23-.17-.37-.21s-.13,0-.18.09h0a.35.35,0,0,1-.34-.06c-.35-.37-.51-.13-.9-.07-.11,0-.26,0-.37,0-.27.06-.64.38-1,.48a1.51,1.51,0,0,0-.62.24h-.63a2.42,2.42,0,0,1-1.12-.5,1.32,1.32,0,0,0-.62-.36.6.6,0,0,1-.18-.22c0-.19-.89-.65-1.14-.65s-.37.15-.55.14-.47-.3-.72-.19a2.43,2.43,0,0,1-.41,0,3.3,3.3,0,0,0-.56.16c0,.35-.44.36-.68.54a2.25,2.25,0,0,0-1-.26.85.85,0,0,1-.37-.07,4.26,4.26,0,0,1-1.29-.29.69.69,0,0,0-.31-.19,2.9,2.9,0,0,1-.5.19c-.11.39-.59.31-.92.47s-.7.64-1.09.83c.78,0,.83-.73,1.74-.61a2.16,2.16,0,0,0,.66-.61s0-.06.07-.09h0c.08-.07.17.1.27.12s.22.19.22.19a1.09,1.09,0,0,0,.3.68c-.44.29,0,1-.31,1.5-.11,0-.17.09-.32.08-.09-.36.16-.54.11-.74-.16,0-.19.11-.34.11-.23-.37,0-1,.44-.88,0-.11,0-.24-.19-.25a1,1,0,0,0-.56,1.32c.08.22.32.28.31.47s-.19.35-.36.3a1.59,1.59,0,0,1,0-.45c-.19,0-.26.27-.35.45a1.52,1.52,0,0,0-.3,1c0,.08.2.06.2.18-.24.29-.56.29-.73.66a.13.13,0,0,0-.18,0c-.09,0,0,.25-.09.3-.46-.08-.18-.22,0-.41s0-.13,0-.21c.14-.28.58-.54.65-.63a1.93,1.93,0,0,1,.08-.7c-.48-.34-.15-1.12.14-1.45-.92,0-.87,1.38-.56,2-.17.42-.55.64-.83,1,0-.43.31-.46.18-.86a1.31,1.31,0,0,0,.1-1.4c.07-.1.16-.16.13-.34s-.23-.15-.41-.18c0,.14.12.09.11.23-.25.42.2.74.17,1.2-.31.21-.34.72-.64.95a3.62,3.62,0,0,1-.11,1.13A4.51,4.51,0,0,0,106.72,127.6Zm24.37-1.16c-.22,0-.05-.53,0-.71,0,0,0,0,0,0C131.16,126,131,126.16,131.09,126.44ZM126.33,124c0,.1-.1.15-.11.26C126.13,124.15,126.19,123.89,126.33,124Zm-.16.73c.09.25-.24.67-.39.93-.23-.4.31-.41.22-.85C126.08,124.75,126.13,124.74,126.17,124.68Zm-2.25-1.47c.16,0,.55-.1.6.09,0,.35-.21.54-.15.94.15,0,.1-.19.1-.32s.14-.06.22-.08a1.7,1.7,0,0,0,0-.41.77.77,0,0,0,.32.26l.36.08s0,0,0,.07-.11.17-.11.3c.22,0,.38-.42.6-.19,0,.44-.21.63-.24,1a.84.84,0,0,0-.3.15c0,.17.09.26,0,.37-.36-.26.26-1.12-.32-1.28.14.37-.1.76-.1,1.21,0,.13.22.11.23.28s0,.51-.13.63c0,.11.21.27.13.39-.11,0-.09-.21-.23-.21a1.19,1.19,0,0,1-.34.29,9,9,0,0,1-.55-1.07c.12,0,.18-.09.26-.16-.06-.34,0-.86-.11-1-.29.17-.18.76-.55.83-.13,0-.17-.14-.3-.16a2.11,2.11,0,0,0,.51,1.38v.29c.12.18.31.25.45.4a.52.52,0,0,1-.18.53c0,.23.07.41,0,.58a4.48,4.48,0,0,0-.89-.4,1.67,1.67,0,0,1-.22-1,1.05,1.05,0,0,0,.31-.18c.13.11.18.32.39.37a3.33,3.33,0,0,0,0-.59c-.45-.25-.42-.77-.84-1.09.09,0,.13,0,.15,0,0-.37.3-.62,0-.88.09-.1.35-.06.43-.18-.11-.36.11-.42.21-.63s-.23-.11-.14-.21c.14.06.32.1.38.24-.51,0-.24,1,.14.6,0-.11-.27-.06-.23-.25.51-.32.14-.83-.4-.9-.11,0,0,.21-.17.19,0-.19-.37-.08-.48-.22A.79.79,0,0,1,123.92,123.21Zm-3.28,0c-.09.1,0,.31-.1.45a2.1,2.1,0,0,0-.36,0c0-.09,0-.11-.1-.14C120.41,123.57,120.35,123.21,120.64,123.21Zm-4.5,1.87c.17,0,.17.1.2.23C116.18,125.32,116.13,125.24,116.14,125.08Zm.33,1.09c-.13,0-.09-.25-.29-.21v-.33c0-.06.18,0,.18-.06A.65.65,0,0,1,116.47,126.17Zm-1.35-3.32c0,.11.06.31,0,.36s-.11-.2-.11-.36Zm-5.07.23c.13,0,.11.2.11.35A.2.2,0,0,1,110.05,123.08Z"/><path class="cls-3" d="M126.3,131.14c-.07-.37-.38-.5-.34-1a1.81,1.81,0,0,1-.6-1c-.08.07-.08.22-.16.26s-.25-.26-.44-.34c-.06.32.28.45.16.86.18,0,0-.25.2-.23s.39.11.35.41c0,0,.25-.06.28.11s.08.34.11.51c-.08-.05-.19-.17-.29-.07s.3.24.46.37c0,.41.46.55.45.83-.39-.08-.53-.45-.87-.6-.06-.16,0-.51-.19-.57a.63.63,0,0,1-1,.37c0-.5.8-.26,1-.63a2.16,2.16,0,0,0-.64,0c-.22-.11-.31-.31-.52-.36a1.81,1.81,0,0,1,.21-.18c.06.12.23.29.38.21-.07-.33-.48-.64-.52-1.1-.36-.06-.39.25-.73.11-.24.09-.31.38-.63.44s-1-.2-1.16.3a7,7,0,0,1,.92,0c-.3,0-.36.37-.59.54s-.45.09-.64.22-.09.17-.13.21c-.27.29-.82.07-1.16-.13a1,1,0,0,1-.92.26c.13-.13.27-.23.29-.44.17,0,.42,0,.38-.24-.17-.07-.45,0-.65.08,0,.24-.15.33-.35.37,0-.07.16-.31,0-.29s-.17.29-.3.39c0-.11-.2-.06-.25-.17.15-.14.36-.26.36-.56-.26.24-.57.43-.83.68a.54.54,0,0,0,.55.28c.3.77-.66.79-1.26.92a.87.87,0,0,1-.34-.37c.26-.23.69.15.89,0-.13-.12-.61-.38-.3-.58.19.06.15.38.43.37.11-.25-.12-.44-.26-.53s0-.3-.22-.31c-.07.25-.28.51-.27.72-.44,0-.86.32-1.16,0a1,1,0,0,0,1.13-.67c-.39,0-.43.44-1,.36,0-.19-.18-.28-.25-.44.47-.71-.74-.74-.63-1.55a.57.57,0,0,0,.27-.28c-.29.06-.58.14-.89.18.09.21.33.24.37.48a.65.65,0,0,1-.87-.48c-.33.06-.63.17-.89,0-.38.73-1.43.79-2.08,1.28a.44.44,0,0,1-.13-.44,1.5,1.5,0,0,0,.32-.08,2.51,2.51,0,0,1,.42-1.09c.25.06.23-.2.42-.22A.63.63,0,0,0,113,128a5.37,5.37,0,0,1,0-.57c-.09-.14-.31-.11-.44-.19.21-.55-.24-.86,0-1.25.06.08,0,.25.17.27a1.53,1.53,0,0,1,.33-.69c-.27-.24,0-.8-.39-.89,0,.07,0,.19-.08.22s-.3-.06-.45,0a10.05,10.05,0,0,1-.09,2.09c-.08,0-.08,0-.16,0-.12-.25.14-.35.12-.59s-.24,0-.33-.07.21-.28.1-.44c-.38.14-.47.57-.54,1-.62.22.06,1-.32,1.4-.05.16.09.17,0,.32-.25,0-.29.29-.28.62-.25.14-.48.26-.57.55.14.22.59.16.73.41a.69.69,0,0,0,0,.47c-.13.09-.35.09-.42.21a1.39,1.39,0,0,1,1.17.41c.61-.14.89.66,1.58.32-.2-.16-.42-.08-.62-.21s-.15-.27-.26-.34c-.28-.16-.67,0-.92-.28.2,0,.28.06.49,0a2.44,2.44,0,0,1,1.37-1.44,1.06,1.06,0,0,1,.37-.08c.47,0,.59.33.92.39s1.11-.18,1.13.48c-.25.13-.75.05-.94.22a1.72,1.72,0,0,0,.9.3c0,.11.13.17.14.29a3,3,0,0,0-1,.8,4,4,0,0,1,1.77,0c.26.16.34.44.65.47s.94-.31,1.38-.18a3.52,3.52,0,0,1,1.68-.92,2.18,2.18,0,0,1,.33.42c-.5.66-1.47.86-2.27,1.23a5.82,5.82,0,0,0,2.44-.55s-.19,0-.25-.06c.23-.15.31-.45.68-.49a1.21,1.21,0,0,1,.54-.58c.14.08.38.05.55.1-.18.23-.45.38-.6.63.43,0,.64-.46,1-.55s.5.11.66.11c.32,0,.58-.28.92-.14,0,.16-.35.18-.25.33a1.83,1.83,0,0,1,2.22.44,4.89,4.89,0,0,0,.87,0C126.92,131.62,126.48,131.51,126.3,131.14Zm-14.51-.65c-.15,0-.2-.07-.37,0,.09-.22.37-.25.52-.4C112.11,130.12,111.85,130.38,111.79,130.49Zm7.1,1.07c-.08-.05-.08-.14-.08-.27h.4C119.15,131.42,118.92,131.41,118.89,131.56Zm2.81-.68a.35.35,0,0,1,.55.13A2.62,2.62,0,0,1,121.7,130.88Zm2.59-1.2a4.07,4.07,0,0,1-.52.41C123.84,129.73,124,129.23,124.29,129.68Zm-.58-.21a.82.82,0,0,1-.1.25.55.55,0,0,0-.42.15C123.16,129.68,123.5,129.43,123.71,129.47ZM122.9,131c.22-.38.87-.29,1.11-.66.14,0,.32,0,.42.11A1.24,1.24,0,0,1,122.9,131Z"/><path class="cls-3" d="M135.13,92.29a1.08,1.08,0,0,0-1,0c.28-.39.89-.45,1.49-.53,0,.06,0,.19.13.2C135.72,92.05,135,91.78,135.13,92.29Z"/><path class="cls-3" d="M135.33,90.87a1.25,1.25,0,0,0,.85-.2c-.08.12-.11.29-.25.33a.61.61,0,0,0,.89.38c-.23.24-.2.44,0,.71.1,0,0-.3.19-.33.32.14.17.77.32,1a2.06,2.06,0,0,1-1-1.1c-.22-.17-.52-.28-.57-.64C135.29,91.25,135.12,90.28,135.33,90.87Z"/><path class="cls-3" d="M134.88,120.75c0,.55-.45.74-.92.85,0,.44,0,.9-.51.89a.9.9,0,0,0-.32-1.34c.17-.19.55.1.83.06S134.52,120.82,134.88,120.75Z"/><path class="cls-3" d="M130.5,121.42c-.47,0-.22.74-.72.71-.25-.37-1.06-.87-.52-1.42a1.2,1.2,0,0,1,.45.06c-.06-.71-1-.53-1.23-.12a1,1,0,0,0-1.17,1.48c-.25.26-.75,1.11-.18,1.42a.87.87,0,0,1,.39-.83,1.53,1.53,0,0,1,.91.43c.07-.53-.43-.51-.47-1a.75.75,0,1,1,1.35.64c.64-.4,1.56.16,1.88-.19C130.62,122.59,130.47,121.86,130.5,121.42Zm-2.14,0a1,1,0,0,0-.65.38c-.26-.31.14-.87.65-.82Z"/><path class="cls-3" d="M130.5,119.49c-.58-.43-.95.08-1.3.38C128.85,119.05,130.34,118.64,130.5,119.49Z"/><path class="cls-3" d="M144.51,111a.6.6,0,0,1-.15,1.17A1.27,1.27,0,0,0,144.51,111Z"/><path class="cls-3" d="M141.41,110.24c-.32-.08-1-.56-1.56-.13C139.72,109.23,141.66,109.35,141.41,110.24Z"/><path class="cls-3" d="M135.66,104.76c.15,0,.18.19.27.31.27.07.38-.08.56-.12,0,.22.16.22.26.32a.74.74,0,0,1-1-.06c-.26,0-.33.29-.39.51-.2-.24-.54-.36-.72-.65C135,105,135.58,105.22,135.66,104.76Z"/><path class="cls-3" d="M136.49,104.37a2.27,2.27,0,0,0,.79.12c-.27.08-.19.47-.46.53C136.83,104.69,136.51,104.69,136.49,104.37Z"/><path class="cls-3" d="M132,104.37c.27.09.27.43.64.39.16,0,0-.24.08-.33.39.06.52.38.91.46C133.23,105.12,131.92,105.17,132,104.37Z"/><path class="cls-3" d="M135.13,103.4c.33.29.84.4,1.05.83-.41-.08-.68,0-1.05-.06A3.3,3.3,0,0,1,135.13,103.4Z"/><path class="cls-3" d="M149.48,101.85c0,.22.16.59-.07.72-.17-.06-.12-.36-.46-.28.08.28.06.44-.25.45-.51-.47.43-.69.25-1.41a1.35,1.35,0,0,1-1.48.65c.15.22.49.24.78.31-.09.82.74.71.92,1.25-.09.41-1.29.48-1.44,0,.09-.38,0-.85-.26-1,.05.54-.1,1.19-1,1,.07.55,1.1.25,1.18.78,0,.3-.21.46-.66.52,0-.27-.12-.39-.39-.4,0,.29.22.41.08.65a1.85,1.85,0,0,1-1.31-.12,4.54,4.54,0,0,1-1,1.1c-.67-.15.08-.61-.27-1.05.1,0,.1-.09.18-.12s.29.23.4.12-.11-.27.12-.31h.52c.1-.42.54-.47.8-.71a1.72,1.72,0,0,1-.92-.27c0,.88-1.2.59-1.28,0a9.8,9.8,0,0,1,.36-.92c-.52-.12-.33-.7-.18-1.09a2.16,2.16,0,0,1-1.09.32c-.32-.28-.13-.91-.27-1.23-.1.09-.08.31-.17.39s-.29-.4-.48-.19a.81.81,0,0,1,.27,1.1c.24,0,.51.49.21.63a2.57,2.57,0,0,0-.4-.56c-.61,0-1.12-1.06-1.69-.33.19.09.28,0,.59,0a1,1,0,0,1,.12.65c.23-.06.42-.16.64-.21a.51.51,0,0,1,0,.92c-.43.15-.63-.38-.84-.13a5.09,5.09,0,0,1,1.73,1.81c0,.18-.16.22-.2.38.42,0,.58-.25.79-.44.51.29.49,1.13.65,1.8-.72.18-.45-.59-.78-.78a.77.77,0,0,0,.83,1.22c0,.36.18.48.27.73-.14.29-.49.37-.84.45-.24-.14-.3-.4-.52-.52-.26.46.28.69.52.89a6.11,6.11,0,0,1-1.61.27c-.22-.26-1.05-.56-1.24-.07a1.14,1.14,0,0,1,1.28.91.43.43,0,0,1,.39-.38c.19.09.41.14.46.38.32,0,.35-.29.77-.19,0,.09.11.11.14.19s-.25.27-.07.45a2.13,2.13,0,0,1,1.37-.39c.11.12.07.39.24.45.3-.3-.05-.65-.19-.89.13-.11.13-.37.26-.46.58-.07,1-.31,1-1a1.29,1.29,0,0,0,.91-.78,1,1,0,0,0,.85-1.29c1.09,0,1-.95,1.17-1.8a.85.85,0,0,0,.44-.91C150.21,103,150,102,149.48,101.85Zm-6.07,2.25c-.64.14-1.13,0-1.16-.51C142.19,102.7,143.71,102.86,143.41,104.1Zm.7,5.44a.94.94,0,0,0,0-1,1,1,0,0,1,.48-.14C144.68,108.89,144.63,109.51,144.11,109.54Z"/><path class="cls-3" d="M134.56,102.44a1.64,1.64,0,0,0,1.16.25C135.53,103.21,134.48,103.08,134.56,102.44Z"/><path class="cls-3" d="M146.06,100.81h.18c0,.66.73.67,1.18.65-.67.43-1.4.79-1.55,1.75a.6.6,0,0,0-.9.19c-.24-.08-.24-.38-.27-.66a.39.39,0,0,0,.32,0,3.72,3.72,0,0,0-.05-1c.37,0,.15.65.56.64.22-.11-.1-.41.08-.51s.35.2.59.26.12-.25.17-.39C146.28,101.42,146,101.3,146.06,100.81Z"/><path class="cls-3" d="M144.32,99.32c.33.08.09.74.56.66.28,0,.27-.21.52-.2,0,.56-1,.84-1.08.2-.37.09-.43.76-.91.38,0-.25.19,0,.32-.12s-.31-.08-.25-.33C144,99.9,144.23,99.73,144.32,99.32Z"/><path class="cls-3" d="M149.82,100.17c-.23-.34-.21-.9-.73-.91C149.63,98.75,150.35,99.77,149.82,100.17Z"/><path class="cls-3" d="M148.12,99.65a2.32,2.32,0,0,0-.79-.58A.55.55,0,0,1,148.12,99.65Z"/><path class="cls-3" d="M130.68,97.52a1.21,1.21,0,0,0-.77-.46C130.12,96.75,130.87,97,130.68,97.52Z"/><path class="cls-3" d="M148.12,97.47c-.36-.15-.5-.51-1-.53-.25,0-.28.18-.38.33a1.45,1.45,0,0,0-1.1-.46C146.37,96.39,148,96.44,148.12,97.47Z"/><path class="cls-3" d="M144.45,97.47c-.22-.2-.61-.19-.72-.46.11-.13,0-.33-.06-.53-.25.2-.26.61-.71.58-.25,0-.29-.24-.52-.25-.05.42-.39.55-.83.58-.44-.54-1.66-.1-2.21-.58.15-.27,0-.53,0-.83-.28.38-.32,1-1,1-.18,0-.08-.31-.34-.25s-.1.35-.44.25-.26-.26-.39-.39a1.38,1.38,0,0,1-1,.19c0-.2-.24-.26-.18-.57.49-.13-.07-1,.54-1.1.25,0,.25.24.51.25.24-.35.77-.23,1.21-.12-.25-.42.19-.49.25-.91-.36,0-.33.28-.62.27-.63,0-.34-.67-.73-1-.1.12,0,.39-.06.59a1.37,1.37,0,0,1-1.21.27c0,.26.19.31,0,.57a1,1,0,0,1-.64-.07c-.68,1.16-2.64-.77-3.62.27-.35-.17-.46-.57-.52-1,.45-.45,1.21-.57,1.69-1-.21,0-.43-.1-.34-.46-.16-.07-.68.35-.83-.06,0-.16.1-.19.14-.31a1.18,1.18,0,0,1-1-.14c-.09.2,0,.22,0,.45l-.51.28c-.08-.14-.26-.15-.33-.28a2,2,0,0,1,.2-.91c-.61-.1-.45,1.25-1.3.78,0,.37.29.51.08.86.26.09.49.22.51.56.65.12.9.62,1,1.24.19.2.25-.18.39,0a4.26,4.26,0,0,1,.21.71c-.44.64-1-.2-1.23-.52-.26.41.37.85.63,1.16.6-.14,1,.18,1.49,0,.11-.1-.05-.28,0-.52s.57,0,.66-.26c-.2-.21-.69,0-.8-.06.48-1,2.25-.25,2,1-.07.11-.39,0-.39.25.48.1,1,.52.53,1h-.32c-.19-.05-.26-.25-.33-.43-.75.35-1-.56-1.36-.6-.08.14.11.69-.14.84.14.11.38.07.48.19.17.76.75,1.1.84,1.94-.09,0-.07.12-.13.14-.55,0-.79,0-1.11-.2-.2-.43,0-.82,0-1.35-.18-.18-.33-.4-.51-.58-.08.19-.18.37-.27.58.24.1.48-.19.58.19a.62.62,0,0,1-.76.26c-.18.16.08.25.13.38-.14.08-.33.1-.33.32a9.16,9.16,0,0,0,2,.85c.47.07,1.2-.18,1.13.64.35-.2,1.34-.18,1.23.59-.1.13-.18.28-.44.26s-.24-.22-.21-.46c-.65.66.68,1.13,1,.46.14.15.57,0,.47.44a.82.82,0,0,1,1.16.58c-.27.12-.68.11-.73.46a8.88,8.88,0,0,1,.92-.12c.22.12.26.46.56.5.24-.16-.17-.46,0-.57.55.06.56.63.46,1.16a8.68,8.68,0,0,1,1.42-.45c.05-.37-.31-.41-.13-.71.4.16.88,0,.92-.4-.57.29-1.28,0-1-.7.18-.16.59-.09.64-.39-.71,0-.81-1.41-1.54-.71.2,0,.29,0,.44.06a.66.66,0,0,1-.06.78c-.13-.23-.33,0-.59-.06-.14-.26-.13-.65-.46-.72-.1.1,0,.33,0,.51-.21.25-1,.44-1.18,0,.29-.07.57-.16.53-.57-.27,0-.27.3-.6.25-.71-.07-.5-.92-.19-1.28-.43,0-.42.4-.9.33s-.17-.74-.33-1c-.41.18-.28.73-.83.65a.71.71,0,0,1-.46-.7c.46-.27,1.63-1.22,1.87-.14.47-.08.84-.19,1,.19-.11.06-.19.31,0,.32.24-.42,1.29-.4,1.68-.13,1-.6,2.08,1.16.58,1-.17-.1-.14-.37-.37-.4,0,1,1.36.61,1.8.26.74,0,1.37-.52,2.2,0-.16-.32-.34-.43-.06-.73-.14-.08-.32-.09-.31-.32s.43-.41.57-.7c.31.06.42.06.64.12.16-.22-.25-.32-.12-.71A1.24,1.24,0,0,1,144.45,97.47ZM135.84,101a2.17,2.17,0,0,1,.47.57,2,2,0,0,1-.72.08C135.63,101.39,135.66,101.12,135.84,101Zm-1.28-3.54c-.08-.25-.24-.38-.19-.73a.7.7,0,0,1,.58-.19A.68.68,0,0,1,134.56,97.47Zm2.19.24c-.16,0-.13.22-.13.39-.42,0-.81-.2-.83-.45-.07-.64.94-.47,1.41-.18a1,1,0,0,0,1.23.82C138,99,136.76,98.51,136.75,97.71Zm2.38-.06c-.41.31-1.25.34-1.47-.18.18-.62.87,0,1.42-.27C139,97.42,139.17,97.46,139.13,97.65Zm.21.25c.25-.25.68-.63,1.17-.43C140.56,98,139.8,98.06,139.34,97.9Z"/><path class="cls-3" d="M140.05,94.88c.07.42-.39.34-.46.64-.21,0-.28-.23-.46-.32s-.21.19-.49.12c0-.19.28-.23.38-.39C139.39,95.31,139.77,94.76,140.05,94.88Z"/><path class="cls-3" d="M133.08,94.09c0,.34-.41.34-.58.52-.26,0-.33-.27-.53-.38C132.14,94,132.71,94.23,133.08,94.09Z"/><path class="cls-3" d="M142.82,93.51c.91.35,1.88,1,1.94,1.94-.36-.25-.36-.87-1-.89-.2.11-.28.37-.52.51-.19-.15.42-.8,0-1.18C143.24,93.65,142.8,93.82,142.82,93.51Z"/><path class="cls-3" d="M141.54,93.4c.3.1,0,.42-.07.56a1.16,1.16,0,0,0,.7.73c-.43,0-.48.39-.76.56.07-.53-.31-1.41-.9-1,0-.27-.29-.34-.52-.39C140.3,93.49,141.3,94.15,141.54,93.4Z"/><path class="cls-3" d="M134.31,103.54c-1,.14-1.08-.49-1.62-.73.44-.17,1.2.07,1.21-.63-.26-.06-.15.26-.39.26-.42,0-.46-.37-.74-.46-.1.22.12.46,0,.52-.3,0-.43-.13-.6-.14-.4-.63.3-.92.44-1.43-.58.09-.66-.3-1-.5-.17.1-.09.46-.13.5-.43-.35-1.08-.45-1.23-1.09-.58.17-1.22,0-1.22-.63-.19,0-.14.21-.4.11-.29-.81.88-.7,1.16-1.16-.45-.1-1-.14-1-.64-.45,0-.79,0-.85-.39a4.6,4.6,0,0,0,.25-.65c-.55,0-.69.75-.38,1.11-.28.47-1,.17-1.27-.12-.19,0-.1.32-.39.24s-.19-.24-.27-.39c.13-.25.37-.4.52-.63.31,0,.4.16.71.12-.39-1.08,1.61-1.25,1.49-.07.16.14.81.38.9,0-1.14.06-.67-1-.21-1.35.34,0,.6-.19.6-.58-.22.12-.62.53-.9.19.06-.22.59-.3.38-.57-.13.23-1,.47-1.09,0s.32-.29.26-.66c-.39-.11-.9,0-.85-.58-.34,0-.76.18-.84-.19-.31,0-.37.33-.78.26.1.3.08.6-.25.63s-.25-.13-.46-.12c-.1.21-.45.19-.57.39.33,0,1,.23.64.58-.11,0-.09-.26-.33-.18s0,.35-.18.37c-.26-.21-.34-.58-.65-.7a.63.63,0,0,1-.58.46.45.45,0,0,1-.21-.2c0-1,.81-1,1.44-1.17,0,.17.12.17.25.19.6-.23.58-1.1,1.11-1.42.16,0,0,.31.18.2a1.11,1.11,0,0,1,1-.53c.11-.23-.34-.36-.52-.51v.4a2.44,2.44,0,0,1-.52.19c-.21,0-.09-.34-.31-.32s-.06.24-.27.18-.22-.38-.06-.58a3.77,3.77,0,0,1-1,.13c-.13-.08-.16-.26-.33-.32-.06.36.38.6.2,1.16.42,0,.25-.52.65-.52.12.21.26.37.38.58,0,.48-.49.4-.77.26-.08.31.19.28.12.59-.64,0-.75-.89-.64-1.3-.27-.18-.23.34-.52.34-.13-.15-.29-.44-.13-.66-.55.21-.09,1,.13,1.16-.21.17-.43-.05-.65-.06-.58.74.15,1.48-.06,2.13.12.11.16.31.31.39-.14,0-.27.07-.31.2.26.11.62-.07.78.25,0,.12.07.39-.07.39-.23-.15-.58,0-.77.14,0-.35-.68-.11-.86-.33.18.34.53.85.92.77.26-1,1.73.51.44.27-.16.63,1.11,0,1.05.7-.27,0-.35.31-.64.32a.81.81,0,0,1-.46-.39c-.25,0-.23.29-.59.2-.06-.29-.09-.55-.37-.71-.5.6,0,1.39.78,1.55,0,.55.64.62,1.08.52.12.44,1.1.51,1.42.19,0,.43.29.62.78.58,0,.93,1.18,1,1.68.71-.29.76-.1,1.59,1,1.56a1.57,1.57,0,0,0,.64-.07c0,.19.07.22.07.38-.67,0-.55,1.35,0,1.42-.07.46.24.56.32.84-.47,1,.67,1.36,1.43,1.49-.23-.34-.57-.59-.26-1a5,5,0,0,1-.78.38c-.19-.17-.37-.58-.06-.77.26,0,.41.14.58-.07-.05-.18-.25-.55-.07-.76.15,0,.12.22.33.19s.1-.33.3-.33c.28.32.48-.07.8,0,.13.61.75,0,1.09.44,0,.36.08.62.45.58A.76.76,0,0,1,134.31,103.54Zm-5.43-8.34c0,.36-.17.48-.45.51a.87.87,0,0,1-.27-.71C128.37,95.1,128.75,95,128.88,95.2Zm-2.2-1.8c.19.07.26.29.26.56h-.34C126.49,93.76,126.46,93.54,126.68,93.4Zm-2.53,1.67c0-.19.15-.19.14-.38C124.68,94.7,124.49,95.31,124.15,95.07Zm2.27,3.66c-.31-.23,0-.67.39-.63C126.91,98.54,126.6,98.59,126.42,98.73Zm.64,1c0-.46.87-.55,1.1-.07A.55.55,0,0,1,127.06,99.72Zm1.15-1c-.94,0-.18-1.53.46-.52C128.54,98.43,128.48,98.68,128.21,98.68Z"/><path class="cls-3" d="M138.49,93.77a1.15,1.15,0,0,0-.83-.26C137.84,93.05,138.74,93.34,138.49,93.77Z"/><path class="cls-3" d="M135.26,93.07a3.25,3.25,0,0,1-.44.38c0,.21.21.21.2.44a.52.52,0,0,0-.85.34c-.34-.26.08-.7.39-.72C134.71,93.27,134.93,92.9,135.26,93.07Z"/><path class="cls-3" d="M138.76,92.87c.28.2.44.55.9.58-.09.18-.4.14-.64.19C139,93.34,138.68,93.07,138.76,92.87Z"/><path class="cls-3" d="M136.36,92.87c.16.13.39.44.32.58C136.41,93.42,136.34,93.22,136.36,92.87Z"/><path class="cls-3" d="M133.46,92.15c0,.25-.28.25-.2.58,0,.08.13,0,.13.14.36,0,.39-.21.72-.2-.22.82-1.34.36-1.34-.31C133.08,92.55,133.08,92.11,133.46,92.15Z"/><path class="cls-3" d="M140,92c.19,0,.14.32.19.5C139.91,92.59,139.85,92.18,140,92Z"/><path class="cls-3" d="M137.54,91.7c.14.36.65.38,1.1.45-.16.26-.56.29-1,.26A2.84,2.84,0,0,1,137.54,91.7Z"/><path class="cls-3" d="M139,91.57h.27c0,.28.08.27,0,.47h-.53C138.83,91.86,139.1,91.9,139,91.57Z"/><path class="cls-3" d="M133.33,91.19a.67.67,0,0,0,.71.06C134.05,91.88,133.12,91.59,133.33,91.19Z"/><path class="cls-3" d="M132.61,91c.26.14,0,.59.16.9-.5,0-.77-.23-1.25-.06.31-.25-.23-.24-.19-.59C131.7,91.24,132.44,91.6,132.61,91Z"/><path class="cls-3" d="M126.6,90.42c.35.15-.24.22-.12.58-.15,0-.23,0-.26.12-.13-.11-.32-.42-.19-.57C126.3,90.74,126.42,90.6,126.6,90.42Z"/><path class="cls-3" d="M134.11,90.1c.2.28.45.14.77.06C134.85,90.57,134.05,90.58,134.11,90.1Z"/><path class="cls-3" d="M140.69,89.11c.93-.18.75.87,1.1,1.44.91,0,1.72,1,1.24,1.67a1.32,1.32,0,0,0-1.83-1.35c0-.32.31-.27.21-.65s-.42-.08-.59-.2.25-.18.45-.19C141.37,89.33,141,89.28,140.69,89.11Z"/><path class="cls-3" d="M130.54,89.44c-.24-.11-.26-.42-.63-.39C130.12,88.77,130.59,89.08,130.54,89.44Z"/><path class="cls-3" d="M128.67,90.22c.27-.41,1.42.39,1.5-.52-.52.15-1.26.25-1.24-.46-.23-.06-.12.23-.26.27-.23-.18-.8-.06-.89-.4-.21.16.14.41-.12.47a2.55,2.55,0,0,0-.85-.53c.16-.1.35-.39.71-.65,0,0,.26,0,.31-.06.24-.19.1-.39.38-.45s.8,0,.8.51c.36,0,.07-.59.25-.76-.54-.44-1.57-.06-1.87-.77-.16.16.09.32-.08.44s-.2-.11-.44,0a.71.71,0,0,1-1.1.44c-.07.3.18.25.13.51.35-.08,1-.18,1,.26-.1,0-.11.1-.21.13-.44-.31-.83.39-1.28,0-.15-.13.1-.2.06-.39a8,8,0,0,1-1.18-.19V87.7c-.29,0-.38.29-.75.26-.17-.33,0-.58.19-.78-.84,0-.47,1-.37,1.29-.38.07-.28-.32-.53-.39-.23.31.09.58.26.73-.07.12-.34,0-.33.24s.46.28.65.13a2.5,2.5,0,0,1,.26,1.42c.35-.09.35.06.71.07.39-.24.78-1,1.35-.51.07-.89,1.55-1,1.68-.14-.37,0,.12.43-.18.65.93-.22.56.86,1,1.09a.43.43,0,0,1,.71-.44c-.08-.53.47-.43.82-.53-.29-.74-.93.27-1.35,0-.1-.31.3-.31.14-.51-.33,0-.66-.12-.59-.58C128.64,89.56,128.56,90.05,128.67,90.22Zm-3-.71c-.41,0-.53-.16-.59-.46C125.24,88.62,125.75,89.07,125.65,89.51Z"/><path class="cls-3" d="M133.26,89.44c-.39-.36-.86-1-1.55-.51-.16-.17.24-.31.46-.33.07-.59-.28-.75-.71-.84.87-.54.85.91,1.54,1A2.22,2.22,0,0,1,133.26,89.44Z"/><path class="cls-3" d="M125.12,87.38c.26,0,.24.2.53.13C125.65,87.92,125.06,87.73,125.12,87.38Z"/><path class="cls-3" d="M135.39,87.26c-.13.16-.41.17-.51.38a1,1,0,0,0,.14.64c-.33-.08-.88-.13-1.05.12-.19-.25.17-.52.46-.51C134.61,87.58,134.93,87.06,135.39,87.26Z"/><path class="cls-3" d="M129.39,87.13c.39-.24.6.7.32,1,.2.13.59.07.58.39-.19,0-.56-.17-.71,0-.29-.2-.14-.55.06-.71C129.48,87.64,129.5,87.3,129.39,87.13Z"/><path class="cls-3" d="M126,86.34c.24.14.3.07.65.07a.64.64,0,0,1-.83.32C125.93,86.64,126.11,86.6,126,86.34Z"/><path class="cls-3" d="M124.48,86.22c.2.15.13.59.33.77-.29,0-.34-.19-.48-.32A.71.71,0,0,1,124.48,86.22Z"/><path class="cls-3" d="M128.3,86c.27.06.23.46.51.52-.34.12-.79-.24-1-.44A.4.4,0,0,0,128.3,86Z"/><path class="cls-3" d="M127.71,85.57a2.16,2.16,0,0,0-1.11.25C126.53,85.32,127.57,85.11,127.71,85.57Z"/><path class="cls-3" d="M144.36,110.18a.71.71,0,0,1-1,.26c-.09.83-1.29.74-1.69.39-.34.4-.84,0-1.29,0,0,.17,0,.37-.12.38h-.59c0-.15,0-.33-.26-.32,0,.36-.91.67-.85,0,.34,0,.72-.25.53-.58-.32,0-.35.29-.78.2-.22-.06-.16-.4-.46-.4,0,.38.24.5.34.78-.58.34-.8-.23-.9-.71.32-.14.4-.58.75-.71a.39.39,0,0,1,.4.2c.34-.36.74.08,1-.26-.27-.18-.61-.25-.58-.71.52.19,1.18,0,1.29-.45-.43.06-.89.37-1.29.25,0-.39,0-.71-.4-.7,0,.27.2.35.15.7-.56.13-.48-.34-.71-.51a.43.43,0,1,1-.47-.72c.26,0,.31.08.51.07a.6.6,0,0,1,.72-.52c.2.22.39.53.85.32.26.65,1.46.13,1.49,1.11.31-.12.88.09,1.14-.19-.37-.12-.75-.25-.83-.65s.32-.28.27-.66c-.34.07-.51.27-1,.2-.44-.38.09-1.19.52-1.29s.92.52,1.35.25c-.25-.21-.59-.33-.71-.7,0-.13.26.1.26-.14-.26-.07-.17-.51-.44-.58s-.06.3-.2.34c-.69.07-.48-.62-.38-1a4.57,4.57,0,0,1-.85.07c-.05.31.45.11.45.38a1.5,1.5,0,0,0,.31.91.87.87,0,0,1-1.22.52c-.08-.11,0-.41-.18-.39a1,1,0,0,1-1.3.58.36.36,0,0,0-.06-.31c-.26.43-1,.31-1.31.12,0,.6.51.62.79.9a1.47,1.47,0,0,1-1.35.39c-.28-.14-.28-.57-.52-.77-.09.42.14.55.14.89-.09.08-.25.07-.34.15v-.4c-.4,0-.35.42-.71.45-.45-.5-1.51-.39-1.55-1.29a5.07,5.07,0,0,0,1.74.2c-.14-.3-.66-.23-.64-.71a.92.92,0,0,1-1.35.12c-.05.13.18.22,0,.26-.5.11-.59-.19-1-.19,0,.53.58.46.5.9s-1.09.54-1.55.19c-.05.35.31.27.33.52a.52.52,0,0,1-.58.2c0,.23,0,.51-.13.59s-.33-.25-.51-.33-.19.19-.46.12a.59.59,0,0,1-.13-.71c-.74.32-.47,1.62.06,1.94a4.25,4.25,0,0,0,.27,2.39,6.3,6.3,0,0,0-.71,2.52.66.66,0,0,0,0,1.23c.45.14,1-.29,1.16.25-.1.63-.73.65-1.22.39-.12,0,0,.32-.13.33s-.17,0-.2,0c-.23-.11.12-.58-.14-.51s0,.5-.11.58c.16.19.48.23.64.44.11.61.33,1.7,1.22,1.75,0,.08-.08.08-.06.2.18.09.55,0,.7.12-.35.35-.09.93.13,1.23-.09.34-.42.43-.83.45-.18,0-.18-.45-.38-.26a1.16,1.16,0,0,0,1.28,1,.17.17,0,0,1,.13.2c.4-.39,1.11-.47,1.3-1.1-.31.11-1.26.38-1.1-.32.32,0,.44-.14.65-.26.51.63,1-.09,1.54-.14s.63.26,1.24.4c0-.15-.13-.13-.07-.32a.56.56,0,0,0,.51-.53c-.39.42-1.38.34-1.15-.58a1,1,0,0,1,.82,0c0-.32.09-.7.4-.78.68-.17.81.71.91,1.35-.13.17-.41.21-.4.51a1.44,1.44,0,0,1,1.24-.06c0-.22.46-.35.44-.77-1.47,1-1.37-1.62.46-1a.63.63,0,0,1,.65-.91c.07-.28-.3-.08-.28-.32,0-.46.58-.24.74-.53-.09-.14-.37-.06-.46-.19.17-.14.27-.37.57-.39.13.12.17.28.4.26a1.63,1.63,0,0,1,1.35-2,1.93,1.93,0,0,1,.64,1.16c-.1.12-.18.28-.45.26,0-.14.16-.19.13-.4a1.22,1.22,0,0,1-1,.14c-.1.36.29.21.26.45.06.58-.32.73-.77.77.07.22.36.21.38.46,0,.54-.68.9-1,.51a1,1,0,0,1-.92,1.16.73.73,0,0,0,1.17-.64,1.25,1.25,0,0,0,1.15-1c.95,0,.72-1.27,1.43-1.54a.72.72,0,0,0,.64.18c.76-.52.48-1.65.77-2.57-.16-.1-.16-.36-.37-.4-.12.15.14.37.06.71a1.55,1.55,0,0,1-.32.2c-.13-.09-.35-.09-.4-.26.22-.13.27-.7.15-1,.22-.1.31-.33.57-.38s.29.45.57.52c.26-.51-.48-.54-.31-1.17C144,110.88,144.47,110.83,144.36,110.18Zm-14.72,4.65a.1.1,0,0,0-.12.07.42.42,0,0,1-.38-.52,1,1,0,0,1,.57-.19C129.71,114.41,129.76,114.71,129.64,114.83Zm5-6.91c.27.14.56-.09.78.14.29-.06,0-.32.14-.46a1.13,1.13,0,0,1,.83,0c.16.49.78.51.73,1.22.21,0,.14-.36.31-.44.35-.11.24.28.53.24,0,.49-.39.54-.53.85-.39.07-.54-.1-.82-.12-.05-.3.1-.4.17-.59-.5.19-1,.25-1.22-.26-.33.26-.41.75-1.05.72-.28-.36.11-.72.08-1.16-.7,0-1.29.62-1.68-.07C133,107.27,134.89,106.74,134.61,107.92Zm-1.61-.51a.82.82,0,0,1-.57.25C132.27,107.09,133,106.89,133,107.41Zm-1.35-.07a.37.37,0,0,1,.46.26c-.07.28-.4.29-.46.59a3.57,3.57,0,0,0,.78-.2c.07.69.2,1.33,1,1.29a1.22,1.22,0,0,1-.46.58c-.29-.19-.94,0-1-.45-.26,0-.23.21-.51.13a5.88,5.88,0,0,0-.51-1.16C131.11,107.93,131.56,107.81,131.65,107.34Zm-.51,3.62c.38-.68,1.39-.23,2.07-.13C133.15,111.61,131.33,111.86,131.14,111Zm2.07.71v.64h-.33C132.81,112,132.8,111.67,133.21,111.67Zm0,4.06a6.29,6.29,0,0,1-.71.2.55.55,0,0,1-.13-.71,2.55,2.55,0,0,0,.76.06C133.09,115.48,133.26,115.5,133.21,115.73ZM132,114.45c-.05-.4.72-.71,1.16-.39C133.15,114.73,132.06,115,132,114.45Zm-.91-4.66c.27-.14.31.08.59.07C131.62,110.08,131,110,131.06,109.79Zm-1.35-1a.54.54,0,0,1-.19-.45c.13.12.49,0,.65,0C130.1,108.55,130,108.76,129.71,108.76Zm.52,4.07c-.52-.31-.11-1.18.19-1.43a1,1,0,0,1,1,1.31.57.57,0,0,1-.64-.27C130.5,112.49,130.44,112.75,130.23,112.83Zm.91,4.2c-.31,0-.31-.35-.6-.39s-.2.14-.18.32a.71.71,0,0,1-.78-.38c.18-.23.66-.16.78-.46.37.37.65-.05,1.1,0,.06-.26-.18-.25-.27-.39,0-.45.17-.75.58-.76-.1.72.26.94.52,1.29.42,0,.7-.16.92,0,.11.72-1,.74-1,.14a1,1,0,0,1-.91-.14C131,116.42,131.43,116.88,131.14,117Zm1,.58c-.42,0-.47-.35-.59-.65.27.06.29-.12.51-.12C132.14,117,132,117.35,132.11,117.61Zm-.78,1.93c-.12-.72.38-.7.64-.31S131.56,119.69,131.33,119.54Zm.7-.71s-.08,0-.14-.06a.5.5,0,0,1,.72-.65c0,.09,0,.12.08.13A.58.58,0,0,1,132,118.83Zm.78.91c-.21-.11-.4-.2-.44-.45C132.91,118.12,134,119.37,132.81,119.74Zm-.38-2.58c.38.23,1-.34,1,.32C133.09,117.76,132.37,117.75,132.43,117.16Zm.38-3.75c-.14-.25,0-.47.07-.7.35,0,.56,0,.63.25A.6.6,0,0,1,132.81,113.41Zm5.16,2.32c-.16,0-.37,0-.43,0s0-.2-.08-.21c0-.26.38-.21.47-.44C138.14,115.05,138.05,115.6,138,115.73Zm0-1.28c-.14,0-.13.21-.13.38a1.1,1.1,0,0,1-1,0c-.25.12-.32.43-.83.33a.76.76,0,0,1,.06-.71.85.85,0,0,0,.91-.53c-.33,0-1.14.37-1.22-.32-.21,0-.21.64,0,.65a1,1,0,0,1-.77.39c-.17-.12-.09-.46-.27-.58-.23.16-.32.45-.78.39a.53.53,0,0,1-.07-.53c.66.06.86-.18,1.36,0a.28.28,0,0,0,.2-.18c-.16-.18-.53-.16-.71-.33-.06.37-.7.41-.89.14s.08-.27,0-.46a4.4,4.4,0,0,1,2-.13c.14.13.69.59.82.13-.29-.14-.65-.22-.78-.52-.38.3-.95-.08-.95-.58.15,0,.29,0,.31-.13-.35-.15-.74-.25-.9-.58,0,.62.39.66.39,1.29a6.65,6.65,0,0,1-1.1-.18c-.23-.33-.08-.8-.08-1.24.36,0,.35-.27.33-.58a1.08,1.08,0,0,1,1-.26c0-.23-.2-.23-.34-.33.34-.79,1.82,0,1.18.72-.4-.1-.91-.33-1.23,0,.39.11.86.15,1.1.45-.13.44.08.64.27.91.39-.13.53-.54,1-.59.43.29.06.93.19,1.36.81-.2,1.48.18,1.5,1,.21,0,.25-.12.38,0C139.4,114.82,138.3,115.32,138,114.45Zm4.85.06a.5.5,0,0,1-.43.39v-.39Z"/><path class="cls-8" d="M123.4,98.36c-.73-.16-1.28-1-.78-1.55a.34.34,0,0,1,.09-.56,2.43,2.43,0,0,1-.44-.6.94.94,0,0,1,.92-1c.21-.65-.52-1.39.06-2.13-.17-.51.27-.59.27-.59v0a.39.39,0,0,1,.25-.48c-.48-.49-.06-.78-.06-.78a2.5,2.5,0,0,0-.26-1.42c-.19.15-.51,0-.65-.13a.12.12,0,0,1,.1-.13h0c-.16-.27,0-.38,0-.38a.39.39,0,0,1,0-.46c0-.44.35-.33.35-.33v0c0-.3.1-.56.54-.55.1-.63.56-.51.56-.51a.49.49,0,0,1,.09-.34V81.05a40.16,40.16,0,0,0-4.41-.27v42.49a2.52,2.52,0,0,1,.5-.24c.13,0,.34,0,.52-.07a.79.79,0,0,1,.57,0,.55.55,0,0,0,.46.12.39.39,0,0,1,.39.06c.13.08.19.1.4,0a1,1,0,0,1,1-.16l.18.13.4,0V98.89C124,99,123.39,98.88,123.4,98.36Z"/></g></svg>
