<svg id="Layer_1" data-name="Layer 1" width="240" height="240" xmlns="http://www.w3.org/2000/svg" viewBox="0 0 240 240"><defs><style>.cls-1{fill:#1d1d1b;}.cls-2{fill:#d5121e;}.cls-3{fill:#ce7717;}.cls-4{fill:#ffd500;}</style></defs><path class="cls-1" d="M188.72,119.65l-.3-1.17c-5.15-20.57-18.37-26.56-29-25.31a29.68,29.68,0,0,0-15.6,7.2,46.22,46.22,0,0,0,3.41-18c0-26.14-24.11-48.08-25.13-49l-1.93-1.73a.21.21,0,0,0-.28,0l-1.92,1.73c-1,.93-25.14,22.87-25.14,49a46.22,46.22,0,0,0,3.41,18,29.64,29.64,0,0,0-15.6-7.2c-10.66-1.25-23.89,4.74-29,25.31l-.29,1.17a.2.2,0,0,0,0,.17l.63,1,24.77,40.5a.21.21,0,0,0,.23.09.2.2,0,0,0,.15-.2V151c0-11.53,5.65-15.84,10.93-16,4.49-.16,9.54,2.68,10.37,7.7H89.57a.21.21,0,0,0-.21.21v11.63a.22.22,0,0,0,.21.21h19.9C108.87,167,98.32,174,98.22,174l-2.36,1.53c-.17.1-.08.24,0,.44l.28.46,1,1.63,3,5,4.39,7.21a.19.19,0,0,0,.23.1,19,19,0,0,0,6-2.89c.5,2.76,2.74,13.2,9.06,20.91a.22.22,0,0,0,.32,0c5-6.14,8-15,9.06-20.91a19,19,0,0,0,6,2.89.19.19,0,0,0,.23-.1l4.39-7.21,3-5,1-1.63.28-.46c.11-.2.2-.34,0-.45L141.79,174c-.11-.07-10.66-7.05-11.26-19.31h19.9a.22.22,0,0,0,.21-.21V142.88a.21.21,0,0,0-.21-.21h-8.82c.83-5,5.88-7.86,10.37-7.7,5.28.19,10.93,4.5,10.93,16v10.24a.21.21,0,0,0,.15.2.21.21,0,0,0,.23-.09l24.77-40.5.63-1A.25.25,0,0,0,188.72,119.65Z"/><path class="cls-2" d="M187.71,120.63l-24.39,39.88V151c0-11.83-5.85-16.25-11.33-16.44-4.74-.17-10.09,2.88-10.83,8.29a.18.18,0,0,0,.05.16.21.21,0,0,0,.15.07h8.87v11.23H130.31a.22.22,0,0,0-.15.06.25.25,0,0,0,0,.15c.49,12.61,11.34,19.79,11.45,19.86l2.19,1.42c-.9,1.47-7.79,12.78-8.6,14.12a18.37,18.37,0,0,1-5.94-3,.2.2,0,0,0-.2,0,.2.2,0,0,0-.13.16c-1,5.78-3.9,14.65-8.88,20.84-5-6.18-7.89-15.06-8.88-20.84a.2.2,0,0,0-.13-.16.21.21,0,0,0-.2,0,18.1,18.1,0,0,1-5.94,3c-.81-1.34-7.7-12.65-8.6-14.12l2.19-1.42c.11-.07,11-7.25,11.46-19.86a.21.21,0,0,0-.21-.21H89.77V143.08h8.87a.2.2,0,0,0,.15-.07.18.18,0,0,0,0-.16c-.74-5.41-6.09-8.46-10.83-8.29-5.48.19-11.33,4.61-11.33,16.44v9.51L52.29,120.63l-.58-1,.27-1.08c5.08-20.32,18.1-26.24,28.59-25a29.51,29.51,0,0,1,16,7.66.2.2,0,0,0,.26,0,.2.2,0,0,0,.07-.24,45.88,45.88,0,0,1-3.7-18.67c0-26,24-47.79,25-48.7L120,32l1.79,1.61c1,.91,25,22.74,25,48.7a46.08,46.08,0,0,1-3.7,18.67.19.19,0,0,0,.07.24.2.2,0,0,0,.25,0,29.5,29.5,0,0,1,16-7.66c10.48-1.23,23.5,4.69,28.58,25l.27,1.08Z"/><path class="cls-1" d="M127.41,153.63H112.6c0,14.86-12.71,23-12.71,23l6.08,10c3.78-1.46,7.35-5.53,7.35-5.53s-.66,9.6,6.68,21.76c7.35-12.16,6.68-21.76,6.68-21.76s3.57,4.07,7.35,5.53l6.08-10S127.41,168.49,127.41,153.63Z"/><rect class="cls-1" x="92.45" y="145.76" width="55.09" height="5.87"/><path class="cls-1" d="M54.58,119.23,74,151c0-26,26.36-22.27,27.57-7.92h8.7C109.62,94.25,64.68,78.82,54.58,119.23Z"/><path class="cls-1" d="M129.73,143.08h8.7C139.64,128.73,166,125,166,151l19.42-31.77C175.32,78.82,130.38,94.25,129.73,143.08Z"/><path class="cls-1" d="M120,35.63S95.89,57.28,95.89,82.34c0,24.78,16.59,28,16.94,60.74h14.34c.35-32.73,16.94-36,16.94-60.74C144.11,57.28,120,35.63,120,35.63Z"/><path class="cls-1" d="M163.4,168.43a.19.19,0,0,0-.17-.1h-3.67l1.56-2.56s0,0,0,0a2.59,2.59,0,0,0-.9-3.15C150.41,155,137.63,151.3,120,151c-17.63.31-30.41,4-40.22,11.61a2.59,2.59,0,0,0-.91,3.15l0,0,1.55,2.56H76.78a.2.2,0,0,0-.18.1.23.23,0,0,0,0,.2l6.19,10.48a.19.19,0,0,0,.17.1h6.31c2.09,0,3-.73,3.49-1.35a2.08,2.08,0,0,0,.31-1.85,1.6,1.6,0,0,0-.27-.46l-2.4-4c3.72-2.25,13.14-6.66,29.6-6.66s25.87,4.41,29.6,6.66l-2.4,4a1.43,1.43,0,0,0-.26.45,2,2,0,0,0,.31,1.85c.43.62,1.39,1.35,3.48,1.35H157a.19.19,0,0,0,.17-.1l6.19-10.48A.18.18,0,0,0,163.4,168.43Z"/><path class="cls-3" d="M92.06,175.11h0a6.36,6.36,0,0,0-3.51.45c-.18.07-.4.18-.64.29-.83.39-2,.92-2.32.34-.65-1,2.11-3,4.25-4.34l.21-.13h0Z"/><path class="cls-3" d="M150,171.73h0l.21.13c2.14,1.36,4.9,3.3,4.25,4.34-.36.58-1.49.05-2.31-.33-.24-.12-.47-.23-.65-.3a6.35,6.35,0,0,0-3.51-.45Z"/><path class="cls-4" d="M92.42,177.62a3.73,3.73,0,0,1-3.15,1.19H83.08l-6-10.08h3.56l4.56,7.68h0c.55.89,1.87.27,2.83-.18l.62-.28a5.07,5.07,0,0,1,3.45-.38.94.94,0,0,1,.52.57A1.62,1.62,0,0,1,92.42,177.62Z"/><path class="cls-4" d="M120,164.46c-17.44,0-27,4.93-30.37,7.06-2.06,1.31-4.07,2.76-4.46,4l-5.93-9.9a2.17,2.17,0,0,1,.79-2.67c9.74-7.55,22.44-11.21,40-11.51,17.53.3,30.23,4,40,11.52a2.16,2.16,0,0,1,.79,2.66l-5.93,9.9c-.38-1.2-2.4-2.65-4.46-4C147.05,169.39,137.44,164.46,120,164.46Z"/><path class="cls-4" d="M156.92,178.81h-6.19a3.75,3.75,0,0,1-3.15-1.19,1.62,1.62,0,0,1-.26-1.48,1,1,0,0,1,.19-.33h0a1.14,1.14,0,0,1,.33-.23,5.08,5.08,0,0,1,3.45.38l.62.28c1,.45,2.27,1.07,2.83.18h0l4.56-7.68h3.56Z"/><path class="cls-1" d="M92,165.6l-.28.14-3.51,2-.16.09.56-2.51.83-.44.24-.12.21-.09.21-.07.2,0a.11.11,0,0,0,.07-.08l0-.62v-.07h0a.2.2,0,0,1,0-.07v-.06h0v0a.43.43,0,0,1,0-.05v0l0-.13a1.2,1.2,0,0,0,0-.23.07.07,0,0,0,0-.09.08.08,0,0,0-.1,0l-.07.09,0,0-.07.08s0,0-.07.05l-.08,0-.33.23-.05,0-.27.18-.29.17-.31.16.72-3.83a.07.07,0,0,0,0-.08.07.07,0,0,0-.09,0l-.57.38-.12.07-.45.29-.63.36-.72.38-.38.21-2.8,1.39a.1.1,0,0,0,0,0,.08.08,0,0,0,0,.07l.31.59.27.58a.12.12,0,0,0,0,0h.08l.2-.14,1.84-1.05,1.71-1,.12-.06-.43,2.19-.8.42-.27.14-.23.11-.23.09-.25.08a.1.1,0,0,0-.07.08L86,166.88A.09.09,0,0,0,86,167s.08,0,.1,0,0,0,0,0a0,0,0,0,0,0,0v0l0-.05.07-.08.13-.13.18-.15.24-.17.31-.2.34-.2.17-.08,0,.18-.86,3.64-.06.28a.08.08,0,0,0,0,.09.09.09,0,0,0,.1,0c.23-.17.45-.32.65-.45l.61-.39.64-.37.77-.42.48-.24.5-.24.49-.2a4.72,4.72,0,0,1,.45-.16.12.12,0,0,0,0-.05l.69-1.77a.12.12,0,0,0,0-.1A.09.09,0,0,0,92,165.6Z"/><path class="cls-1" d="M97.75,162.74q0-.26-.06-.48a3.73,3.73,0,0,0-.08-.44,4.17,4.17,0,0,0-.13-.42,2.67,2.67,0,0,0-.21-.48,2.85,2.85,0,0,0-.26-.41,2,2,0,0,0-.32-.33,1.31,1.31,0,0,0-.36-.21,2.3,2.3,0,0,0-.34-.12,1.87,1.87,0,0,0-.32,0h-.38l-.29,0a.11.11,0,0,0-.07.06L94.55,161c-.09-.07-.18-.15-.26-.2a1.5,1.5,0,0,0-.38-.15,2.58,2.58,0,0,0-.42,0,3.32,3.32,0,0,0-.5.07.08.08,0,0,0-.07,0l-.43,1.16a2.52,2.52,0,0,0-.44-.31,2.17,2.17,0,0,0-.63-.24.09.09,0,0,0-.1,0l-.52,1.39a.08.08,0,0,0,0,.11L91,163a.1.1,0,0,0,.09,0l.11-.08a.3.3,0,0,1,.16,0,.25.25,0,0,1,.14.06.74.74,0,0,1,.12.13.38.38,0,0,1,.09.13l0,.06a.24.24,0,0,0,0,.07l0,.12.64,1.71c0,.11.08.2.11.27a.71.71,0,0,0,.13.22.64.64,0,0,0,.18.19,2,2,0,0,0,.26.16,1.75,1.75,0,0,0,.32.12l.34.07a2,2,0,0,0,.34,0l.38,0a.07.07,0,0,0,.07-.06c.07-.18.15-.38.24-.59s.15-.33.24-.5a1.91,1.91,0,0,0,.27.16,2.29,2.29,0,0,0,.37.12,1.43,1.43,0,0,0,.37.07,2,2,0,0,0,.43,0,.08.08,0,0,0,.08,0c0-.08.09-.16.14-.23l.14-.25.16-.23.15-.23,0,0,.13-.18.16-.18,0,0,.15-.17a1.26,1.26,0,0,0,.13-.17l0,0a.11.11,0,0,0,0-.06l0-.24c0-.19,0-.39,0-.56m-3,2.07a1,1,0,0,1-.24.07,1.55,1.55,0,0,1-.31,0,1.43,1.43,0,0,1-.28,0,.46.46,0,0,1-.17-.09l-.11-.12a.36.36,0,0,1-.07-.1.56.56,0,0,0,0-.12,1.31,1.31,0,0,0,0-.15l-.77-2.07h0l.08-.05.08,0h0l.09,0,.11,0,.17,0h0a.43.43,0,0,1,.16,0,.48.48,0,0,1,.18.08h0a.46.46,0,0,1,.17.17,1,1,0,0,1,.13.28l.67,1.77v0a.88.88,0,0,0,.05.15.75.75,0,0,0,.06.13l.06.13,0,.05-.06.06m.35-3.62h.26a1,1,0,0,1,.24,0,.54.54,0,0,1,.2.1h0a.86.86,0,0,1,.18.16,1.77,1.77,0,0,1,.16.23c0,.07.08.16.13.27s.1.25.14.36a3.31,3.31,0,0,1,.13.41,2.66,2.66,0,0,1,.08.44c0,.19.05.33.07.47s0,.27,0,.39l-.26,0a1.33,1.33,0,0,1-.28,0l-.23-.09c-.07,0-.09-.05-.1-.07h0a.44.44,0,0,1-.06-.1.87.87,0,0,1-.08-.14l-.91-2.36.09,0Z"/><path class="cls-1" d="M94.69,164.58s0,0,0,0h0A0,0,0,0,0,94.69,164.58Z"/><path class="cls-1" d="M101.52,162.27a.08.08,0,0,0-.07,0,.1.1,0,0,0,0,0,.6.6,0,0,1-.07.14l-.08.08-.13,0-.11,0h0a1.11,1.11,0,0,1-.29.07l-.29,0-.27,0a.87.87,0,0,1-.25-.1.6.6,0,0,1-.21-.14.69.69,0,0,1-.17-.17l-.15-.24c0-.09-.08-.17-.12-.26l1.59-2.35a.11.11,0,0,0,0-.08.1.1,0,0,0,0-.05l-1.44-.74a.09.09,0,0,0-.1,0l-1.57,1.82a.24.24,0,0,0,0,.08l.2,1.08a5.8,5.8,0,0,0,.46,1.22,2.56,2.56,0,0,0,.62.79,2,2,0,0,0,.87.36,3.88,3.88,0,0,0,1.18,0,.08.08,0,0,0,.07,0l.3-.66,0,0a.67.67,0,0,0,.06-.12l.09-.16,0,0,0-.08a.75.75,0,0,0,.07-.12l.07-.16a.08.08,0,0,0,0-.11l-.18-.09M99,161.06h0v0a3,3,0,0,1-.08-.32c0-.11,0-.22-.07-.36s0-.24,0-.35v-.2l.86.42-.64.92Z"/><path class="cls-1" d="M101.3,157.74a.06.06,0,0,0,.06,0s0,0,.06,0l.69-1.2a.09.09,0,0,0,0-.12l-.46-.27a.08.08,0,0,0-.07,0,.1.1,0,0,0,0,0l-.69,1.18a.09.09,0,0,0,0,.12Z"/><path class="cls-1" d="M104,161.91a.07.07,0,0,0-.07,0,.07.07,0,0,0-.06,0h0l0,0h0s0,0,0,0h0l0,0h0a.22.22,0,0,1-.16,0,.23.23,0,0,1-.11-.11c0-.07-.06-.14-.09-.23a1.81,1.81,0,0,1-.09-.31s-.48-2.17-.48-2.17l0-.18c0-.12-.06-.21-.08-.29s-.07-.17-.1-.22a1.15,1.15,0,0,0-.14-.17l-.18-.17-.13-.08,0,0L102,158l-.08,0-.06,0-.17-.07a.09.09,0,0,0-.11,0l-.68,1.2a.08.08,0,0,0,0,.11l.11.11a.11.11,0,0,0,.11,0l0,0a.07.07,0,0,1,.06,0h.09l.1,0a.1.1,0,0,1,0,.05.23.23,0,0,1,.05.07l0,0,0,0,0,.09,0,.09,0,.25.47,2.09.06.25a1.76,1.76,0,0,0,.07.27.75.75,0,0,0,.07.18.61.61,0,0,0,.13.16,1.66,1.66,0,0,0,.19.18.83.83,0,0,0,.3.14,1.66,1.66,0,0,0,.41.08.09.09,0,0,0,.08,0l.67-1.09a.08.08,0,0,0,0-.11Z"/><path class="cls-1" d="M108,161.75l-.37-1.69a2.05,2.05,0,0,0-.07-.31v0l0-.07-.11-.46c-.05-.18-.09-.36-.14-.55a3.35,3.35,0,0,1-.07-.37c0-.16-.06-.32-.09-.5s0-.32,0-.46,0-.08-.08-.08l-1.86-.11a.07.07,0,0,0-.07,0l-1.32,1.7s0,0,0,0l0,.24.11,1a5,5,0,0,0,.28,1,2.37,2.37,0,0,0,.41.71,1.88,1.88,0,0,0,.65.45,4.2,4.2,0,0,0,1,.27.1.1,0,0,0,.09-.05s0-.1.07-.14l0-.06,0-.08h0a.49.49,0,0,0,.06-.13.35.35,0,0,0,0-.08v0l0-.08a.94.94,0,0,1,.09-.12l.07-.11h0l.17.77c0,.08,0,.17,0,.29l0,.29a1.93,1.93,0,0,1,0,.26c0,.05,0,.1,0,.15l-1.22-.44a.08.08,0,0,0-.09,0l-.9.95a.08.08,0,0,0,0,.08.09.09,0,0,0,.06.06l.18,0,.27.07.25.07.19.06.59.26a.07.07,0,0,0,.09,0l.21-.2.08-.08.13-.13.1-.09.11-.1.21-.18.07,0,0,0,.12-.08,0,0,.08-.06.1-.06.23-.14.19-.12,0,0a.21.21,0,0,0,0-.06,3,3,0,0,0,0-.4,2.16,2.16,0,0,0,0-.36,2.36,2.36,0,0,0,0-.35,3.92,3.92,0,0,0-.06-.4m-1.45-.37h-.16l-.17,0-.24-.08a2.75,2.75,0,0,1-.36-.15.6.6,0,0,1-.31-.3,2,2,0,0,1-.21-.64h0v-.05h0a.06.06,0,0,1,0,0s0,0,0,0a.08.08,0,0,1,0,0v0a1.3,1.3,0,0,0,0-.13l0-.11h0c0-.11,0-.23,0-.34h0l0-.33s0-.11,0-.11v-.26c0-.09,0-.2,0-.32l1.12.12,0,.25.52,2.38a1.63,1.63,0,0,1,.05.21Z"/><path class="cls-1" d="M111.44,160.42a.09.09,0,0,0-.07,0s0,0-.06,0a.34.34,0,0,1-.09.12.14.14,0,0,1-.08.05l-.14,0-.13,0a1.55,1.55,0,0,1-.3,0,1.67,1.67,0,0,1-.3,0,1.25,1.25,0,0,1-.25-.09,1.47,1.47,0,0,1-.24-.13,1,1,0,0,1-.18-.17.8.8,0,0,1-.15-.21l-.11-.26a2,2,0,0,1-.08-.26l1.9-2.09a.07.07,0,0,0,0-.07.07.07,0,0,0,0-.06l-1.32-1a.08.08,0,0,0-.1,0l-1.81,1.55a.06.06,0,0,0,0,.07l0,1.1a5.91,5.91,0,0,0,.28,1.29,2.77,2.77,0,0,0,.5.87,2,2,0,0,0,.81.49,4,4,0,0,0,1.17.18.09.09,0,0,0,.07,0l.4-.61,0,0,.08-.11,0-.06.09-.13.11-.14,0,0,.09-.15a.09.09,0,0,0,0-.11l-.17-.12m-2.34-1.59h0c0-.12,0-.24,0-.35s0-.24,0-.37,0-.24,0-.35,0-.14,0-.2l.79.55-.75.81,0-.09m2.06,2.34,0,0,0,0Z"/><path class="cls-1" d="M116.24,160.13s0,0-.06,0a.1.1,0,0,0-.07,0l-.32.22-.21-3a1.62,1.62,0,0,0-.14-.62,1,1,0,0,0-.33-.4,1.86,1.86,0,0,0-.49-.19A4.86,4.86,0,0,0,114,156a.09.09,0,0,0-.07,0l-.74.88,0-.94a.08.08,0,0,0,0-.08.07.07,0,0,0-.09,0l-1.54,1.29a.11.11,0,0,0,0,.08v.11a.07.07,0,0,0,.08.08.82.82,0,0,1,.25.07.29.29,0,0,1,.11.11,1.49,1.49,0,0,1,.07.25,1.53,1.53,0,0,1,0,.35l.19,2.67,0,.39v.24a.14.14,0,0,0,0,.06s0,0,.07,0l.59-.08h.55a.09.09,0,0,0,.07,0,.08.08,0,0,0,0-.07q0-.22-.06-.39a1.43,1.43,0,0,1,0-.23v-.16a.45.45,0,0,1,0-.12v-.06s-.18-2.65-.21-3.11l.21-.05a1.35,1.35,0,0,1,.28,0,1.07,1.07,0,0,1,.44.1.73.73,0,0,1,.13.09.5.5,0,0,1,.05.13,1.6,1.6,0,0,1,0,.21,1.45,1.45,0,0,1,0,.25l0,.16v.21l.22,3.07a.09.09,0,0,0,0,.08.1.1,0,0,0,.09,0l1.6-1.13a.08.08,0,0,0,0-.12Z"/><path class="cls-1" d="M124,154l-1,0-.69,0a.09.09,0,0,0-.08,0c0,.11-.09.22-.14.31s-.1.2-.16.3l-.23.34-.32.44,0,0,0,0-.37.47c-.13.18-.25.32-.36.46l-.18.21a1.11,1.11,0,0,1-.18.19c0,.07-.11.13-.16.19l0,0,0,0v-.2a1.16,1.16,0,0,1,0-.17,1.42,1.42,0,0,1,0-.19v-.16c0-.13,0-.26,0-.39v-.32l.1-1.42,0-.31a.08.08,0,0,0,0-.07.09.09,0,0,0-.07,0l-1.37.28a.1.1,0,0,0-.07.09v.34l0,2.26,0,1.91c0,.22,0,.44,0,.65s0,.42,0,.67,0,.45,0,.64,0,.4,0,.55a.08.08,0,0,0,0,.08l.06,0,.68,0,.65,0,.06,0a.11.11,0,0,0,0-.07l-.05-2s0-1.06,0-1.37h.24a1.57,1.57,0,0,1,.53.11,2,2,0,0,1,.49.31,2.73,2.73,0,0,1,.39.44,2.26,2.26,0,0,1,.25.49,5.43,5.43,0,0,1,.17.53q.06.21.12.48c0,.18.07.34.09.49s0,.33.08.52,0,.08.09.07l.67,0,.67,0a.08.08,0,0,0,.07,0,.07.07,0,0,0,0-.07l-.19-.83-.09-.34-.09-.3-.08-.26a6.37,6.37,0,0,0-.21-.66c-.09-.22-.18-.42-.28-.61a3.43,3.43,0,0,0-.35-.55,2.79,2.79,0,0,0-.46-.45,2.66,2.66,0,0,0-.57-.33,4,4,0,0,0-.52-.17l1.42-1.33.72-.61c.23-.19.32-.28.37-.31l.23-.17.11-.07.18-.13a.08.08,0,0,0,0-.1A.1.1,0,0,0,124,154Z"/><path class="cls-1" d="M128.17,160.64a.06.06,0,0,0-.06,0s0,0-.07,0l-.06,0h-.06a.09.09,0,0,1-.07,0l-.08-.07s0,0,0-.09a.19.19,0,0,1,0-.1.43.43,0,0,1,0-.16V160c0-.05,0-.09,0-.13v-.07l.13-1.92a4,4,0,0,0,0-.49,1.43,1.43,0,0,0-.09-.43,1.22,1.22,0,0,0-.18-.36.71.71,0,0,0-.29-.25,1.52,1.52,0,0,0-.3-.17,1.13,1.13,0,0,0-.28-.09,1.51,1.51,0,0,0-.28-.05l-.32,0h-.27s-.07,0-.08,0a4.07,4.07,0,0,1-.33.47,5.54,5.54,0,0,1-.37.45l-.16.18a.14.14,0,0,0,0,.06v2.41l-.72.66a.09.09,0,0,0,0,.06.09.09,0,0,0,0,.07l1.36,1.17.06,0a.09.09,0,0,0,.06,0,.89.89,0,0,1,.14-.13.73.73,0,0,1,.09-.08l.12-.09.11-.1.15-.12.22-.17a1.42,1.42,0,0,0,.08.18.87.87,0,0,0,.16.26,1.28,1.28,0,0,0,.2.22,2.06,2.06,0,0,0,.25.18.11.11,0,0,0,.08,0l.1-.07.17-.15a.92.92,0,0,1,.14-.14l0,0,.07-.07.35-.26.16-.12a.09.09,0,0,0,0-.12l-.09-.14m-2.8-2.22c0-.33,0-.62,0-.9,0,0,0-.14,0-.23h.28a.06.06,0,0,1,.06,0h.13a1.42,1.42,0,0,1,.31.06,1.13,1.13,0,0,1,.22.11.3.3,0,0,1,.11.17.71.71,0,0,1,0,.26v.21l-1.18,1.1c0-.27,0-.52,0-.75m1,2.09-.06,0h-.07l-.12-.05s-.08,0-.1-.06h0l-.1-.07-.09-.1a0,0,0,0,0,0,0l-.47-.4,1.14-1.07Z"/><path class="cls-1" d="M132.89,161.13a.08.08,0,0,0-.11,0l-.36.15.39-3a1.85,1.85,0,0,0,0-.63.93.93,0,0,0-.24-.46,1.66,1.66,0,0,0-.45-.29,3.53,3.53,0,0,0-.61-.24.08.08,0,0,0-.08,0l-.9.7.16-.92a.12.12,0,0,0,0-.09.07.07,0,0,0-.09,0l-1.76.93s0,0,0,.06l0,.12a.09.09,0,0,0,.06.09.79.79,0,0,1,.23.12.24.24,0,0,1,.09.14,1,1,0,0,1,0,.25,2,2,0,0,1,0,.35l-.34,2.66-.06.39,0,.23a.08.08,0,0,0,0,.07.06.06,0,0,0,.06,0l.58.05h.09l.07,0h.13l.12,0,.14,0a.08.08,0,0,0,.07,0,.07.07,0,0,0,0-.06v-.4c0-.1,0-.18,0-.23s0-.06,0-.09,0,0,0-.07v0s0-.08,0-.13.34-2.64.4-3.08h.22a1.52,1.52,0,0,1,.29,0,1,1,0,0,1,.22.08l.19.11a.53.53,0,0,1,.1.12.36.36,0,0,1,0,.15,1.25,1.25,0,0,1,0,.21,2.29,2.29,0,0,1,0,.25v.09s0,.07,0,.1,0,.11,0,.16v0l-.4,3a.09.09,0,0,0,0,.08.06.06,0,0,0,.08,0l1.79-.76a.12.12,0,0,0,.05-.05.08.08,0,0,0,0-.07Z"/><path class="cls-1" d="M136.4,163l.17-.13a.22.22,0,0,0,.1-.09l0,0,.38-.22.17-.1a.07.07,0,0,0,0-.05.08.08,0,0,0,0-.07l-.08-.16a.1.1,0,0,0-.12,0l-.06,0h-.07a.1.1,0,0,1-.07,0h0a.46.46,0,0,1-.07-.07l0-.1h0a.28.28,0,0,1,0-.1.71.71,0,0,1,0-.15.5.5,0,0,0,0-.12l0-.05a.69.69,0,0,1,0-.13v-.07l.37-1.89a2.9,2.9,0,0,0,.05-.48,1.29,1.29,0,0,0,0-.44,1.14,1.14,0,0,0-.13-.38.73.73,0,0,0-.26-.29,1.26,1.26,0,0,0-.27-.2,1,1,0,0,0-.28-.13l-.27-.09-.3-.09h0l-.26,0a.08.08,0,0,0-.08,0,4.88,4.88,0,0,1-.38.43c-.14.15-.29.28-.42.4l-.18.16a.05.05,0,0,0,0,.05l-.29,2.39-.79.56s0,0,0,.06a.1.1,0,0,0,0,.07l1.21,1.34.06,0,.07,0a.65.65,0,0,1,.15-.12l.23-.15.17-.1.12-.07a2,2,0,0,1,.23-.14c0,.06,0,.14.06.19a1.11,1.11,0,0,0,.12.27,1.6,1.6,0,0,0,.18.25l.22.21a.08.08,0,0,0,.08,0l.11,0,.17-.12h0m-1-1.13h-.13l-.12-.07-.09-.07h0a.45.45,0,0,1-.1-.09.3.3,0,0,1-.07-.1h0l-.42-.47,1.25-.91-.3,1.73m-.65-3.1s0-.14.06-.23h.33a0,0,0,0,0,0,0h.08a.94.94,0,0,1,.31.1,1.1,1.1,0,0,1,.21.14.26.26,0,0,1,.09.17.63.63,0,0,1,0,.27l0,.21-1.3.93c0-.25,0-.49.07-.75S134.73,159,134.79,158.75Z"/><path class="cls-1" d="M140,161.11a2,2,0,0,0-.23-.25l-.17-.14-.06-.05h0l-.21-.15.34-.22.33-.18h0l.3-.17.4-.21a0,0,0,0,0,0,0l.5-.86a.11.11,0,0,0,0-.08.08.08,0,0,0-.06,0l-.83-.16c-.28-.06-.54-.12-.8-.2l-1.46-.43a.07.07,0,0,0-.1,0c-.08.19-.15.38-.24.57l-.1.21-.13.27a.06.06,0,0,0,0,.08.07.07,0,0,0,.05,0l1.18.34.25.06h.08l.26.05.34.07h0l-2.1,1.4a.09.09,0,0,0,0,.1l0,.13a.1.1,0,0,0,.09.06h.39l.11,0,.1,0,.14.06.07,0a.52.52,0,0,1,.22.18,1.62,1.62,0,0,1,.19.35,1.22,1.22,0,0,1,.09.46,1.66,1.66,0,0,1,0,.44,2.41,2.41,0,0,1-.15.43c-.06.14-.12.27-.19.4a4.68,4.68,0,0,1-.27.4l-.23.31-.64-.88a.09.09,0,0,0-.11,0l-.07,0-.21.09-.2.09-.07,0-.15.07-.33.13a.12.12,0,0,0-.05.05.11.11,0,0,0,0,.08l.78,1.13a.09.09,0,0,0,.1,0l.31-.12.26-.09.23-.06.05,0,.21-.06.28-.08.3-.06a1.29,1.29,0,0,1,.24-.05l.14,0s0,0,0,0a6.57,6.57,0,0,0,.67-.95q.13-.26.24-.51a4.84,4.84,0,0,0,.17-.54,2.52,2.52,0,0,0,.07-.7,1.42,1.42,0,0,0-.17-.55A4.2,4.2,0,0,0,140,161.11Z"/><path class="cls-1" d="M144.55,160.12a2.94,2.94,0,0,0-.25-.24,1.53,1.53,0,0,0-.26-.16l-.25-.12-.3-.13h0l-.26-.08a.11.11,0,0,0-.08,0,5.31,5.31,0,0,1-.42.38,4.62,4.62,0,0,1-.47.34l-.19.14a.07.07,0,0,0,0,0l-.55,2.33-.86.46s0,0,0,.06a.08.08,0,0,0,0,.07l1,1.49.06,0h.07a.49.49,0,0,1,.16-.1l.24-.12.31-.14.26-.11a1.36,1.36,0,0,0,0,.2,1,1,0,0,0,.1.29,1,1,0,0,0,.15.26,1.49,1.49,0,0,0,.19.24.11.11,0,0,0,.08,0l.11,0,.2-.11.19-.1.09-.06.39-.17.19-.07a.07.07,0,0,0,.05,0,.09.09,0,0,0,0-.07l-.07-.17a.09.09,0,0,0-.11-.05l-.07,0-.06,0-.06-.05-.06-.08a.38.38,0,0,1,0-.1h0a.2.2,0,0,1,0-.11.4.4,0,0,1,0-.15l0-.1,0-.07,0-.11,0-.07.58-1.83c.05-.18.08-.34.11-.48a1.62,1.62,0,0,0,0-.44,1,1,0,0,0-.08-.38.86.86,0,0,0-.23-.33m-1.1,1.46-1.39.77c0-.26.1-.5.16-.74s.14-.55.24-.86c0,0,0-.13.09-.21h.27l.06,0h.06l.06,0a1,1,0,0,1,.29.14.57.57,0,0,1,.18.16.26.26,0,0,1,.08.19.5.5,0,0,1,0,.26l-.06.2m-.69,2.33h-.13l0,0-.06,0a.76.76,0,0,1-.09-.09h0l-.09-.1-.07-.11h0l-.36-.52,1.34-.75Z"/><path class="cls-1" d="M150.72,165.83a3,3,0,0,0,.24-.38c.06-.13.13-.26.19-.4a4.16,4.16,0,0,0,.16-.5,2.67,2.67,0,0,0,.08-.48,2.38,2.38,0,0,0,0-.47,1.23,1.23,0,0,0-.12-.41,2,2,0,0,0-.17-.33,1.47,1.47,0,0,0-.2-.26l-.23-.22-.18-.15-.1-.09a.09.09,0,0,0-.09,0l-1,.51a1.72,1.72,0,0,0-.06-.34,1.33,1.33,0,0,0-.17-.38,1.94,1.94,0,0,0-.28-.32,4.54,4.54,0,0,0-.41-.33.07.07,0,0,0-.09,0l-1.07.52a3.09,3.09,0,0,0-.11-.56,2.88,2.88,0,0,0-.29-.62.09.09,0,0,0-.11,0l-1.3.62a.08.08,0,0,0,0,.11l0,.13a.09.09,0,0,0,.07.06h.12a.39.39,0,0,1,.14.1.39.39,0,0,1,.06.15,1.28,1.28,0,0,1,0,.19.49.49,0,0,1,0,.14,1.23,1.23,0,0,1,0,.16.76.76,0,0,0,0,.11l-.67,1.71a2.33,2.33,0,0,0-.1.27c0,.08,0,.15-.06.25a.82.82,0,0,0,0,.27,1.67,1.67,0,0,0,.08.3,2.89,2.89,0,0,0,.15.31c.06.11.14.22.19.3a3,3,0,0,0,.23.27l.29.26a.09.09,0,0,0,.09,0l.56-.25.5-.19c0,.1.06.21.1.31a1.51,1.51,0,0,0,.18.36,1.66,1.66,0,0,0,.22.32,2.3,2.3,0,0,0,.31.32.07.07,0,0,0,.07,0l.26-.07h0l.24-.06h0l.24,0,.18,0h.08l.25,0,.23,0h.24l.27,0s0,0,.05,0l.16-.19c.1-.13.21-.27.33-.44s.19-.26.27-.38m-3.81-.32a1.27,1.27,0,0,1-.23-.12,2.28,2.28,0,0,1-.23-.22,1.24,1.24,0,0,1-.16-.24.44.44,0,0,1-.07-.19.85.85,0,0,1,0-.16.27.27,0,0,1,0-.13l0-.12h0a1,1,0,0,0,0-.1l0,0,.81-2.05.09,0,.09,0,.11,0,.11.06a1.1,1.1,0,0,1,.14.09.55.55,0,0,1,.14.12.52.52,0,0,1,.06.2,0,0,0,0,0,0,0,.49.49,0,0,1,0,.24,1.11,1.11,0,0,1-.08.3l-.7,1.76c0,.05,0,.1,0,.14l0,0a.88.88,0,0,0,0,.15h0a.88.88,0,0,0-.05.15v0h-.07m2.34-2.52.09,0a1,1,0,0,1,.19.12l.2.18a1,1,0,0,1,.16.2,1.23,1.23,0,0,1,.08.23,1.1,1.1,0,0,1,0,.25,2.4,2.4,0,0,1,0,.28c0,.08-.05.17-.08.27v0c0,.13-.09.24-.13.35a3.39,3.39,0,0,1-.18.39l-.23.38c-.09.14-.19.27-.27.38s-.15.21-.23.3l-.21-.16a1.08,1.08,0,0,1-.18-.24,2.4,2.4,0,0,1-.11-.23c0-.07,0-.1,0-.13s0-.07,0-.12l0-.16Z"/><path class="cls-1" d="M155,165.31a1.12,1.12,0,0,0-.16-.37l-.21-.28a1.51,1.51,0,0,0-.23-.21l-.23-.17-.08-.05-.19-.13-.24-.13a.1.1,0,0,0-.09,0c-.17.11-.33.21-.48.29l-.52.25-.22.09-.05,0-.95,2.2-.91.28a.1.1,0,0,0-.06.05.06.06,0,0,0,0,.07l.77,1.66s0,0,0,0,0,0,.07,0a.85.85,0,0,1,.17-.06l.26-.07.33-.08.27-.06c0,.07,0,.13,0,.21a1.17,1.17,0,0,0,.05.3,1,1,0,0,0,.1.29,1.54,1.54,0,0,0,.15.27.07.07,0,0,0,.07,0l.12,0,.13,0,.08,0,.07,0,.14,0,.09,0,.42-.09.19,0s0,0,.06,0a.15.15,0,0,0,0-.07l0-.17a.08.08,0,0,0-.1-.07h-.07l-.06,0a.13.13,0,0,1,0-.06h0a.25.25,0,0,1,0-.09.31.31,0,0,1,0-.1s0-.08,0-.11,0-.09.06-.15l.05-.08,0-.07,0-.08.05-.09.88-1.69a2.88,2.88,0,0,0,.19-.45,1.58,1.58,0,0,0,.09-.42,1.73,1.73,0,0,0,0-.4m-1.5.86-1.51.48c.09-.23.18-.46.29-.69s.25-.54.39-.8l.12-.19.07,0,.05,0,.09,0h0l.08,0,.05,0h.06l0,0h0a.92.92,0,0,1,.26.19.54.54,0,0,1,.16.19.35.35,0,0,1,0,.2.73.73,0,0,1-.09.26l-.09.18m-1.09,2.16h-.06s-.06,0-.06,0l-.06-.06,0,0a.61.61,0,0,1-.07-.1h0L152,168a.56.56,0,0,1,0-.12h0l-.26-.58,1.44-.48Z"/><path class="cls-3" d="M117.4,92.41l-1.82-.75-3.78,1.11a17.53,17.53,0,0,0,.68,3.24,13.79,13.79,0,0,0,3.88,1.7C116.53,96.67,116.9,94.5,117.4,92.41Z"/><path class="cls-3" d="M128.62,76.32l-4.07,1.19a.5.5,0,0,1-.36,0l-2.32-.95h-3.74l-2.32.95a.47.47,0,0,1-.35,0l-4.07-1.19a20.85,20.85,0,0,0-3,4.05l.23,1.11A49.35,49.35,0,0,1,120,80.42a49.35,49.35,0,0,1,11.4,1.06l.23-1.11A20.67,20.67,0,0,0,128.62,76.32Z"/><path class="cls-3" d="M131.28,85.56v-3A48.66,48.66,0,0,0,120,81.48a48.66,48.66,0,0,0-11.28,1.06v3A47.79,47.79,0,0,0,120,86.63,47.79,47.79,0,0,0,131.28,85.56Z"/><path class="cls-3" d="M122.6,92.41c.5,2.09.88,4.26,1.05,5.3A14.13,14.13,0,0,0,127.52,96a17.51,17.51,0,0,0,.68-3.25l-3.77-1.11Z"/><path class="cls-3" d="M131.4,86.63A50.08,50.08,0,0,1,120,87.69a49.35,49.35,0,0,1-11.4-1.06l-.23,1.11a20.57,20.57,0,0,0,3,4l4.07-1.19a.47.47,0,0,1,.35,0l2.32,1h3.74l2.32-1a.5.5,0,0,1,.36,0l4.07,1.19a20.4,20.4,0,0,0,3-4Z"/><path class="cls-3" d="M121.56,92.63h-3.12c-.5,2.11-.88,4.31-1,5.31a14.31,14.31,0,0,0,5.22,0C122.44,96.94,122.06,94.73,121.56,92.63Z"/><path class="cls-3" d="M110.72,92.62a21.59,21.59,0,0,1-3.38-4.55.48.48,0,0,1,0-.35l.37-1.8V82.19l-.37-1.8a.56.56,0,0,1,0-.36,21.66,21.66,0,0,1,3.38-4.54,18.49,18.49,0,0,1,.39-2.43,14.14,14.14,0,0,0,0,22A18.6,18.6,0,0,1,110.72,92.62Z"/><path class="cls-3" d="M128.89,73.06a18.49,18.49,0,0,1,.39,2.43A21.25,21.25,0,0,1,132.66,80a.56.56,0,0,1,.05.36l-.37,1.8v3.73l.37,1.8a.53.53,0,0,1-.05.35,21.19,21.19,0,0,1-3.38,4.55,18.32,18.32,0,0,1-.39,2.42,14.13,14.13,0,0,0,0-22Z"/><path class="cls-3" d="M122.6,75.69l1.83.75,3.77-1.1a18,18,0,0,0-.68-3.25,13.83,13.83,0,0,0-3.87-1.69C123.48,71.44,123.1,73.6,122.6,75.69Z"/><path class="cls-3" d="M117.4,75.69c-.5-2.09-.87-4.25-1-5.29a13.77,13.77,0,0,0-3.88,1.69,17.3,17.3,0,0,0-.68,3.25l3.78,1.1Z"/><path class="cls-3" d="M118.45,75.47h3.11c.5-2.1.88-4.3,1-5.31a14.31,14.31,0,0,0-5.22,0C117.56,71.17,117.94,73.37,118.45,75.47Z"/><path class="cls-2" d="M144.58,123.28a1.25,1.25,0,0,0-.16.17l-.13.14-.11.16-.09.16c0,.12-.09.23-.13.32s-.08.17-.11.23l-2.69-.1-.37,0-.41,0-.41,0c-.14,0-.28,0-.41.06,0-.19,0-.39.06-.61s0-.43,0-.66h.3a2.3,2.3,0,0,0,.6,0A1.38,1.38,0,0,0,141,123a2.1,2.1,0,0,0,.43-.28c.14-.12.28-.26.44-.42s.28-.34.42-.53a6.8,6.8,0,0,0,.41-.66,3.7,3.7,0,0,0,.3-.69,2.65,2.65,0,0,0,.1-.67,2.21,2.21,0,0,0-.62-1.57,2.23,2.23,0,0,0-.76-.48,3.09,3.09,0,0,0-1-.15,2.33,2.33,0,0,0-.4,0,1,1,0,0,0-.32.1l-.25.11-.2.1-.08-.12.72-.7c.25-.24.48-.48.72-.72h.31l.34,0a2.21,2.21,0,0,1,.43.09l.56.2a3.38,3.38,0,0,1,.63.36,4.25,4.25,0,0,1,.64.58,2.14,2.14,0,0,1,.48.8,3.62,3.62,0,0,1,.16,1.09,5,5,0,0,1-.13,1.12,3.25,3.25,0,0,1-.41.93,4.43,4.43,0,0,1-.66.81,6.14,6.14,0,0,1-.93.77h.76l.19,0h.27l.83-.08,0,.07,0,.05,0,0,0,.06Z"/><path class="cls-2" d="M149.42,118.71c.06.14.13.29.19.44a3,3,0,0,1,.14.48,3.12,3.12,0,0,1,.08.52,5.12,5.12,0,0,1,0,.56,3.71,3.71,0,0,1-.05.67,3.93,3.93,0,0,1-.12.67,4.13,4.13,0,0,1-.48,1.24l-.08,0H149l-.37,0a4,4,0,0,1-.43-.08,2.45,2.45,0,0,1-.39-.15,1,1,0,0,1-.26-.18,3.23,3.23,0,0,1-.4-.45A1.34,1.34,0,0,1,147,122a3.3,3.3,0,0,1-.1-.57c0-.23,0-.5,0-.82s0-.44,0-.66a3.66,3.66,0,0,1,.07-.59c0-.18.07-.34.1-.49l.1-.36a2.08,2.08,0,0,0,.13-.3c0-.1.08-.21.13-.33l.11,0h.12l.1,0h.11a2.15,2.15,0,0,1,.53.06,1.7,1.7,0,0,1,.44.18,1.28,1.28,0,0,1,.36.29,1.81,1.81,0,0,1,.28.34v0m.47,4.88c.17-.17.33-.33.49-.46s.32-.25.47-.36a3,3,0,0,0,.24-.51,3.5,3.5,0,0,0,.17-.55c0-.19.07-.37.1-.54a2.71,2.71,0,0,0,0-.47,6.66,6.66,0,0,0-.05-.78,6.54,6.54,0,0,0-.13-.75,4.43,4.43,0,0,0-.28-.82,7.59,7.59,0,0,0-.49-.92,2.05,2.05,0,0,0-.79-.76,2.47,2.47,0,0,0-1.12-.25h-.21l-.26,0-.27,0-.22,0c-.12.19-.25.38-.38.57l-.4.54c-.14.16-.29.34-.45.51s-.32.35-.5.52l-.12.14c0,.21-.1.4-.14.6s-.07.38-.09.55a4.93,4.93,0,0,0-.05.54c0,.19,0,.38,0,.57a5.06,5.06,0,0,0,.22,1.54,2.61,2.61,0,0,0,.65,1.07,2.8,2.8,0,0,0,1,.62,4,4,0,0,0,1.29.2h.09l.1,0H149l.23-.25.22-.22a2.23,2.23,0,0,1,.22-.21l.25-.26Z"/><path class="cls-2" d="M156.05,118.71c.06.14.13.29.19.44a3,3,0,0,1,.14.48,4.71,4.71,0,0,1,.09.52c0,.18,0,.37,0,.56a4.92,4.92,0,0,1,0,.67,5.28,5.28,0,0,1-.13.67,3.61,3.61,0,0,1-.19.64,4.73,4.73,0,0,1-.29.6l-.08,0h-.11l-.37,0a3.43,3.43,0,0,1-.42-.08,1.67,1.67,0,0,1-.39-.15.91.91,0,0,1-.27-.18,3.23,3.23,0,0,1-.4-.45,1.56,1.56,0,0,1-.22-.45,4.67,4.67,0,0,1-.1-.57c0-.23,0-.5,0-.82s0-.44,0-.66a5.3,5.3,0,0,1,.07-.59c0-.18.07-.34.1-.49s.07-.26.11-.36.08-.19.12-.3.08-.21.13-.33l.11,0h.12l.11,0h.11a2.06,2.06,0,0,1,.52.06,1.7,1.7,0,0,1,.44.18,1.48,1.48,0,0,1,.37.29,2.24,2.24,0,0,1,.27.34v0m.47,4.88c.17-.17.33-.33.49-.46a5,5,0,0,1,.48-.36,2.94,2.94,0,0,0,.23-.51,3.5,3.5,0,0,0,.17-.55c0-.19.08-.37.1-.54a2.71,2.71,0,0,0,0-.47,6.68,6.68,0,0,0,0-.78,6.58,6.58,0,0,0-.14-.75,4.43,4.43,0,0,0-.28-.82,7.59,7.59,0,0,0-.49-.92,2.1,2.1,0,0,0-.78-.76,2.51,2.51,0,0,0-1.13-.25H155l-.26,0-.27,0-.21,0-.38.57-.41.54c-.14.16-.29.34-.45.51s-.32.35-.49.52l-.13.14c-.05.21-.1.4-.13.6s-.07.38-.1.55,0,.36,0,.54,0,.38,0,.57a5.08,5.08,0,0,0,.21,1.54,2.72,2.72,0,0,0,.65,1.07,2.89,2.89,0,0,0,1,.62,4,4,0,0,0,1.29.2h.09l.1,0h.19l.23-.25.22-.22a2.23,2.23,0,0,1,.22-.21l.25-.26Z"/><path class="cls-2" d="M163.27,121.93c0,.14,0,.28,0,.41s0,.25-.07.37-.05.22-.08.34a2.24,2.24,0,0,1-.11.34l-.07,0-.08,0h-.15a1.7,1.7,0,0,1-.67-.15,3.1,3.1,0,0,1-.72-.43,2.45,2.45,0,0,1-.61-.71,3.39,3.39,0,0,1-.38-1l.21-.22a1,1,0,0,1,.24-.16,1.85,1.85,0,0,1,.31-.11,1.54,1.54,0,0,1,.4,0,2.31,2.31,0,0,1,.64.1,2,2,0,0,1,.59.29,1.42,1.42,0,0,1,.43.41.78.78,0,0,1,.14.46h0m.45-3.9a.67.67,0,0,1,0-.16v-1.18l-.5-.11-.48-.09-.5,0a4.07,4.07,0,0,0-.5,0,2.63,2.63,0,0,0-.41,0,2.21,2.21,0,0,0-.32.07,1.44,1.44,0,0,0-.32.12,3.44,3.44,0,0,0-.39.19c-.1.21-.19.39-.29.56s-.19.34-.28.48-.21.29-.34.45-.28.32-.45.49a3.73,3.73,0,0,0-.08.44c0,.15,0,.29,0,.43s0,.3,0,.45,0,.31,0,.48a5.77,5.77,0,0,0,.09,1,2.75,2.75,0,0,0,.28.78c.13.22.24.41.35.57a4.31,4.31,0,0,0,.34.43,3.89,3.89,0,0,0,.36.34c.12.11.26.21.39.31s.28.18.41.24a1.09,1.09,0,0,0,.37.13l.38,0a3.17,3.17,0,0,0,.44,0l.45-.34.47-.35.52-.34.57-.35a5.78,5.78,0,0,0,.24-.81,4.67,4.67,0,0,0,.08-.83,1.94,1.94,0,0,0-.05-.49,1.45,1.45,0,0,0-.13-.4,1.36,1.36,0,0,0-.24-.35,1.61,1.61,0,0,0-.36-.31,2.44,2.44,0,0,0-.43-.28,2.64,2.64,0,0,0-.47-.17,3.88,3.88,0,0,0-.49-.11,4,4,0,0,0-.5,0,1.58,1.58,0,0,0-.34,0l-.25.06a1.2,1.2,0,0,1-.2.11l-.23.1-.61,1.28-.05-.34c0-.1,0-.21,0-.3s0-.21,0-.31a2.85,2.85,0,0,1,0-.31c0-.12,0-.23,0-.35a3.86,3.86,0,0,1,.05-.61,2.94,2.94,0,0,1,.14-.53,3.73,3.73,0,0,1,.34-.24,1.5,1.5,0,0,1,.23-.13,1.33,1.33,0,0,1,.3-.07h.49l.57,0,.52.07a4.59,4.59,0,0,1,.51.1l.5.15Z"/><path class="cls-2" d="M81.15,117.93a4.71,4.71,0,0,0-.59-.22,4.4,4.4,0,0,0-.65-.15,5,5,0,0,0-.69-.09c-.24,0-.48,0-.74,0l-.63,0a4.54,4.54,0,0,0-.57.06,5.23,5.23,0,0,0-.54.12,4.89,4.89,0,0,0-.58.19,3.22,3.22,0,0,0-.14.44,3.63,3.63,0,0,0-.1.45,3.47,3.47,0,0,0-.06.45c0,.14,0,.29,0,.43v.23l3.39,0,2-.08,0,.68,0,.81-.4,0h-.78l-.26,0h-.5l-3.3,0a2.08,2.08,0,0,0,.14.63,2.48,2.48,0,0,0,.29.56,2.18,2.18,0,0,0,.46.45,2.71,2.71,0,0,0,.63.35,4.68,4.68,0,0,0,.73.21,5.29,5.29,0,0,0,.8.07h.7l.61,0,.47-.08a1.46,1.46,0,0,0,.35-.1l.24-.11.15-.08.11-.07,0,0,.12.11-.65.83-.57.92-.25,0-1.09,0a9,9,0,0,1-1.06,0,6.77,6.77,0,0,1-1-.14,3.8,3.8,0,0,1-.84-.3,3.16,3.16,0,0,1-.72-.49,3.2,3.2,0,0,1-.58-.68,3.75,3.75,0,0,1-.41-.88,6.67,6.67,0,0,1-.31-2c0-.31,0-.61,0-.92s.07-.62.12-.94l.8-.66.3-.27.27-.27.31-.33q.16-.18.33-.39l.17-.19a7.72,7.72,0,0,1,1-.25,6,6,0,0,1,1-.08h.53l.44,0,.41,0a3,3,0,0,1,.43.09l.46.12v.7Z"/><path class="cls-2" d="M84.35,118.81c0,.09,0,.17-.07.24l-.06.23a2,2,0,0,0,0,.49,2.09,2.09,0,0,0,0,.38,1.07,1.07,0,0,0,.09.27,1.37,1.37,0,0,0,.21.2,1.27,1.27,0,0,0,.35.18,1.25,1.25,0,0,1,.12.08l.1.05.14,0h.19l.77-1a5.51,5.51,0,0,1,.57.06,4.7,4.7,0,0,1,.6.14,1.72,1.72,0,0,1,.56.27,1.24,1.24,0,0,1,.38.41,1.63,1.63,0,0,1,.23.54,2.62,2.62,0,0,1,.07.64,2.17,2.17,0,0,1,0,.26,1.12,1.12,0,0,1,0,.2l-.06.29c0,.14-.08.33-.14.56l0,.14-.27.17a2.36,2.36,0,0,0-.23.13l-.24.14-.34.2-.29.17a.8.8,0,0,1-.14.08s0,0-.1.09a3.11,3.11,0,0,1-.24.22c-.12,0-.26,0-.42,0l-.54,0h-.29l-.28,0h-.84a4,4,0,0,0-.44,0l-.44,0h-.48a1.17,1.17,0,0,0,.12-.25c.05-.11.09-.23.15-.37s.11-.28.16-.41.11-.26.15-.39l3.77.05c0-.1,0-.18,0-.26a.71.71,0,0,0,0-.2v-.32a1.06,1.06,0,0,0,0-.27c0-.08,0-.15,0-.22a.7.7,0,0,0-.1-.19.86.86,0,0,0-.16-.18,1.64,1.64,0,0,0-.22-.14,1.09,1.09,0,0,0-.27-.11l-.28-.07h-.32l-.07,0-.06,0a.77.77,0,0,1-.1.14l-.23.29c-.09.12-.17.23-.23.33a2,2,0,0,0-.16.25c-.35-.07-.62-.14-.83-.2a2.28,2.28,0,0,1-.44-.14,1.42,1.42,0,0,1-.25-.12,2,2,0,0,1-.23-.18,1.06,1.06,0,0,1-.19-.24.93.93,0,0,1-.12-.29,3,3,0,0,1-.07-.32c0-.12,0-.23,0-.36a3,3,0,0,1,0-.43c0-.14,0-.27,0-.39l.06-.36c0-.11,0-.22.07-.34l.24-.16a1.74,1.74,0,0,0,.22-.18,1.68,1.68,0,0,0,.21-.18l.22-.19.25-.2.28-.23a3,3,0,0,0,.25-.23l.19-.2c.12,0,.25,0,.39.06l.41,0,.42,0h.82l.53,0,.45,0H88l.18,1.45Z"/><path class="cls-2" d="M93,119V117.9H91.56l.1-1.74-1.23,1.49L89.19,119h.87v3.69a2.53,2.53,0,0,0,.12.8,1.58,1.58,0,0,0,.38.62,2,2,0,0,0,.59.42,3.67,3.67,0,0,0,.81.28l1.27-1.43-.13-.16,0,0,0,0,0,0,0,0-.08,0h-.06a.08.08,0,0,1-.06,0h-.09a1,1,0,0,1-.24,0,1,1,0,0,1-.23-.08L92,123.1a1.07,1.07,0,0,1-.19-.18,1.2,1.2,0,0,1-.13-.21.78.78,0,0,1-.08-.23q0-.12,0-.27c0-.11,0-.22,0-.35V119Z"/><path class="cls-2" d="M95.68,121.2c0-.21,0-.42,0-.62a5.58,5.58,0,0,1,.09-.59c0-.18.08-.38.14-.59a6.91,6.91,0,0,1,.19-.67l1.57.7v3.46l0,.25-.3.07-.16,0h-.17a1.55,1.55,0,0,1-.59-.12.85.85,0,0,1-.39-.33,3.87,3.87,0,0,1-.24-.41c-.05-.12-.1-.22-.13-.31s0-.21,0-.35a4.19,4.19,0,0,1,0-.53h0m1.21-3.56-2.18,1.29c-.1.25-.19.5-.26.74a7.08,7.08,0,0,0-.17.7,5,5,0,0,0-.11.69q0,.36,0,.75a4.07,4.07,0,0,0,.08.79,5.31,5.31,0,0,0,.24.74,2.8,2.8,0,0,0,.36.6,1.34,1.34,0,0,0,.44.36,3.61,3.61,0,0,0,.44.22l.38.12.37.06a1.47,1.47,0,0,1,.35.08l.44-.71.12-.19.12-.15.13-.15a1.14,1.14,0,0,1,.15-.17,2.19,2.19,0,0,0,.17.38,1.81,1.81,0,0,0,.22.32l.22.22a1.24,1.24,0,0,0,.19.16l.22.12.35.16c.1-.15.19-.28.27-.42s.18-.27.28-.4.19-.26.29-.38l.29-.37-.08-.18-.14,0a1.08,1.08,0,0,1-.41,0,.5.5,0,0,1-.25-.23,3.21,3.21,0,0,1-.12-.31,1.68,1.68,0,0,1-.06-.27c0-.07,0-.17,0-.29s0-.26,0-.4v-4l0-1.62,0-.31-.39,0-.38,0h-.21l-.21,0h-.2l-.21,0,.06,1.17v1.33Z"/></svg>
