<svg id="Layer_1" data-name="Layer 1" width="240" height="240" xmlns="http://www.w3.org/2000/svg" viewBox="0 0 240 240"><defs><style>.cls-1{fill:none;}.cls-2{fill:#fdc300;}.cls-3{fill:#ffed00;}.cls-4{fill:#e30613;}.cls-5{fill:#ea5b0c;}.cls-6{fill:#bd1d1d;}.cls-7{fill:#fff;}</style></defs><path class="cls-1" d="M209.51,117.93l-21-11.56,15-18.71a2.37,2.37,0,0,0-1.58-3.83l-23.83-2.64,6.68-23a2.36,2.36,0,0,0-2.93-2.93l-23,6.68-2.64-23.82a2.36,2.36,0,0,0-3.83-1.59l-15,12L122.2,29.85a2.83,2.83,0,0,0-4.4,0L102.7,48.54l-15-12a2.37,2.37,0,0,0-3.83,1.59L81.19,61.91l-23-6.68a2.37,2.37,0,0,0-2.93,2.93l6.68,23L38.1,83.82a2.37,2.37,0,0,0-1.59,3.83l15,18.71-21,11.56a2.36,2.36,0,0,0,0,4.14l21,11.56-15,18.71a2.37,2.37,0,0,0,1.58,3.83l23.83,2.64-6.68,23a2.36,2.36,0,0,0,2.93,2.93l23-6.68,2.64,23.82a2.36,2.36,0,0,0,3.83,1.59l15-12,15.1,18.7a2.84,2.84,0,0,0,4.41,0s11-13.66,15.1-18.7l15,12a2.37,2.37,0,0,0,3.83-1.59l2.64-23.82,23,6.68a2.37,2.37,0,0,0,2.93-2.93l-6.68-23,23.82-2.64a2.37,2.37,0,0,0,1.59-3.83l-15-18.71,21-11.56a2.36,2.36,0,0,0,0-4.14Z"/><polygon class="cls-2" points="159.82 159.81 182.49 182.49 175.03 156.76 161.03 158.31 159.82 159.81"/><polygon class="cls-2" points="81.76 78.23 83.23 64.97 57.51 57.5 80.19 80.18 81.76 78.23"/><path class="cls-2" d="M191.74,119.71a.45.45,0,0,1,.1.29h16.53l-23.46-12.91-1.68,2.09Z"/><path class="cls-2" d="M48.26,119.71l8.51-10.54-1.68-2.09L31.63,120H48.16A.42.42,0,0,1,48.26,119.71Z"/><polygon class="cls-2" points="80.18 159.81 57.51 182.49 83.23 175.02 81.76 161.77 80.18 159.81"/><polygon class="cls-2" points="161.02 81.68 175.03 83.23 182.49 57.51 159.81 80.18 161.02 81.68"/><polygon class="cls-3" points="158.24 161.77 156.77 175.02 182.49 182.49 159.82 159.81 158.24 161.77"/><polygon class="cls-3" points="80.19 80.18 57.51 57.5 64.97 83.22 78.98 81.67 80.19 80.18"/><path class="cls-3" d="M191.74,120.29l-8.5,10.53,1.67,2.09L208.37,120H191.84A.45.45,0,0,1,191.74,120.29Z"/><path class="cls-3" d="M48.26,120.29a.47.47,0,0,1-.1-.3H31.63L55.09,132.9l1.67-2.08Z"/><polygon class="cls-3" points="159.81 80.18 182.49 57.51 156.77 64.97 158.24 78.23 159.81 80.18"/><polygon class="cls-3" points="78.97 158.31 64.97 156.76 57.51 182.49 80.18 159.81 78.97 158.31"/><polygon class="cls-4" points="158.24 78.23 156.77 64.97 153.82 38.35 144.4 61.09 158.24 78.23"/><polygon class="cls-4" points="86.18 201.64 103.05 188.13 95.6 178.9 86.18 201.64"/><polygon class="cls-4" points="136.94 188.13 153.82 201.64 144.4 178.9 136.94 188.13"/><polygon class="cls-4" points="95.6 61.09 86.18 38.35 83.23 64.97 81.76 78.23 95.6 61.09"/><polygon class="cls-4" points="173.93 142.34 161.03 158.31 175.03 156.76 201.64 153.82 173.93 142.34"/><polygon class="cls-4" points="66.07 97.66 38.36 86.17 55.09 107.08 56.77 109.17 66.07 97.66"/><polygon class="cls-4" points="56.76 130.82 55.09 132.9 38.35 153.81 66.06 142.33 56.76 130.82"/><polygon class="cls-4" points="173.93 97.66 201.65 86.18 175.03 83.23 161.02 81.68 173.93 97.66"/><polygon class="cls-5" points="81.76 161.77 83.23 175.02 86.18 201.64 95.6 178.9 81.76 161.77"/><polygon class="cls-5" points="153.82 38.35 136.94 51.86 144.4 61.09 153.82 38.35"/><polygon class="cls-5" points="103.06 51.86 86.18 38.35 95.6 61.09 103.06 51.86"/><polygon class="cls-5" points="144.4 178.9 153.82 201.64 156.77 175.02 158.24 161.77 144.4 178.9"/><polygon class="cls-5" points="78.98 81.67 64.97 83.22 38.36 86.17 66.07 97.66 78.98 81.67"/><polygon class="cls-5" points="173.93 142.34 201.64 153.82 184.91 132.91 183.24 130.82 173.93 142.34"/><polygon class="cls-5" points="183.23 109.18 184.91 107.09 201.65 86.18 173.93 97.66 183.23 109.18"/><polygon class="cls-5" points="66.06 142.33 38.35 153.81 64.97 156.76 78.97 158.31 66.06 142.33"/><path class="cls-6" d="M191.74,119.71,120.36,31.33a.47.47,0,0,0-.72,0L48.26,119.71a.45.45,0,0,0,0,.58l71.38,88.38a.48.48,0,0,0,.36.17.49.49,0,0,0,.36-.17l71.38-88.38A.48.48,0,0,0,191.74,119.71Z"/><polygon class="cls-2" points="108.86 172.41 108.86 172.41 86.87 145.18 86.86 145.17 77.62 133.73 66.69 120.2 49.38 120.2 119.8 207.39 119.8 185.96 108.86 172.41"/><polygon class="cls-2" points="153.13 94.82 153.14 94.83 162.39 106.28 162.39 106.28 173.31 119.8 190.62 119.8 120.21 32.62 120.21 54.05 153.13 94.82"/><polygon class="cls-3" points="108.86 67.59 108.86 67.59 119.8 54.05 119.8 32.62 49.38 119.8 66.69 119.8 108.86 67.59"/><polygon class="cls-3" points="120.21 185.94 120.21 207.38 190.62 120.2 173.3 120.2 120.21 185.94"/><polygon class="cls-7" points="114.7 75.08 109.02 68.04 89.01 92.81 94.69 99.84 114.7 75.08"/><polygon class="cls-7" points="87.28 145.04 109.02 171.96 114.7 164.93 92.96 138.01 87.28 145.04"/><path class="cls-7" d="M78.54,120.16a.27.27,0,0,1,0-.32l4.91-6.08-5.68-7L67.05,120l10.72,13.27,5.68-7Z"/><polygon class="cls-7" points="125.3 75.08 130.98 68.04 150.98 92.81 145.3 99.84 125.3 75.08"/><polygon class="cls-7" points="152.72 145.04 130.98 171.96 125.3 164.93 147.04 138.01 152.72 145.04"/><path class="cls-7" d="M161.45,120.16a.24.24,0,0,0,0-.32l-4.91-6.08,5.69-7L172.94,120l-10.71,13.27-5.68-7Z"/><path class="cls-4" d="M120.2,171.24a.27.27,0,0,1-.2.09.25.25,0,0,1-.2-.09l-4.84-6-5.68,7L120,185.55l10.72-13.27-5.69-7Z"/><path class="cls-4" d="M119.8,68.76a.27.27,0,0,1,.4,0l4.84,6,5.68-7L120,54.45,109.28,67.72l5.68,7Z"/><polygon class="cls-4" points="78.03 106.41 83.72 113.44 94.43 100.17 88.75 93.13 78.03 106.41"/><polygon class="cls-4" points="78.03 133.59 87.02 144.72 92.7 137.69 83.71 126.56 78.03 133.59"/><polygon class="cls-4" points="160.93 120 120 69.33 79.07 120 120 170.68 160.93 120"/><polygon class="cls-4" points="161.96 106.41 156.28 113.44 145.56 100.17 151.25 93.13 161.96 106.41"/><polygon class="cls-4" points="161.96 133.59 152.98 144.72 147.3 137.69 156.28 126.56 161.96 133.59"/><polygon class="cls-4" points="79.07 120 120 69.33 160.93 120 120 170.68 79.07 120"/><path class="cls-6" d="M74.73,104.24c.24.36.46.58.66.5a.18.18,0,0,1,.1.16,3.73,3.73,0,0,0-.29.52,11.83,11.83,0,0,1-1.22,2,3.57,3.57,0,0,1-3,1.67,3.25,3.25,0,0,1-2.24-1.54,5.88,5.88,0,0,1-1-3.25,6.47,6.47,0,0,1,1.49-4.11,7.06,7.06,0,0,1,1.07-1.06,4.3,4.3,0,0,0,.52-.49c.22.3.62.76,1.2,1.52,0,.14-.11.36-.21.31a1.47,1.47,0,0,0-2.41.26c-1.27,1.6-1,3.67.19,5.42a3.72,3.72,0,0,0,2.12,1.7,2.12,2.12,0,0,0,2-.88,1.71,1.71,0,0,0,.48-1.05,2.05,2.05,0,0,0-.37-.73l-.26-.36c-.49-.73-.54-.79-1.1-.29l-.31.27a.32.32,0,0,1-.19-.31c.29-.33.65-.76,1.15-1.39.32-.41.57-.73.86-1.14.11,0,.24.13.22.28l-.11.2c-.23.39-.22.53.21,1.16Z"/><path class="cls-6" d="M76.71,101c.74,1.09.82,1,1.21.67l.18-.16c.1,0,.21.2.18.31-.33.38-.66.78-1,1.18s-.65.84-1,1.26c-.08,0-.22-.15-.21-.28l.14-.23c.29-.49.34-.6-.4-1.69l-2.6-3.82c-.74-1.09-.82-1-1.21-.67l-.18.17a.31.31,0,0,1-.19-.32c.34-.38.67-.77,1-1.19s.64-.82,1-1.24c.08,0,.21.14.21.28l-.13.23c-.3.49-.35.6.39,1.69Z"/><path class="cls-6" d="M75.89,95.06c-.67-1-.76-1.1-1.13-.73l-.21.21a.28.28,0,0,1-.19-.3c.41-.63,1-1.44,1.6-2.19a4.06,4.06,0,0,1,1.62-1.37,1.37,1.37,0,0,1,1.65.7,3.13,3.13,0,0,1,.24,2.71c0,.08,0,.15.11.17a9.38,9.38,0,0,0,3.09,1,1,1,0,0,0,.72-.31c.06,0,.14.11.16.19a4,4,0,0,1-.44.66,1.82,1.82,0,0,1-2.44.55c-.48-.19-1.07-.5-1.52-.68s-.45-.09-.69.21-.21.3-.07.51l.9,1.32c.74,1.08.82,1,1.21.67l.18-.17c.1,0,.22.2.19.31-.34.38-.67.78-1,1.18s-.64.82-1,1.26c-.08,0-.23-.13-.21-.28l.14-.23c.3-.49.34-.6-.4-1.69Zm1.85.42c.22.32.24.35.58-.09a2.12,2.12,0,0,0,0-2.77c-.55-.81-1.4-1.05-2-.26-.38.47-.36.51,0,1Z"/><path class="cls-6" d="M83.64,90.37c-.19.23-.18.22,0,.58l.54,1.61c.26.78.31.77.62.49l.24-.21a.31.31,0,0,1,.19.32c-.25.27-.49.57-.79.93s-.46.59-.69.93c-.09,0-.2-.13-.22-.29l.19-.32a1.07,1.07,0,0,0,.07-1c-.09-.38-.27-1-.49-1.7l-1.5-4.9a2.7,2.7,0,0,0-.37-.92,2.87,2.87,0,0,0,.17-1.13.16.16,0,0,1,.18-.07c.43.31.86.68,1.29,1l4,3c.64.48.71.5,1.15.14l.13-.11c.11,0,.23.17.21.29-.31.35-.58.68-1,1.15s-.62.81-.86,1.14c-.09,0-.23-.15-.22-.27l.13-.23c.23-.38.22-.49-.18-.78l-1.29-1c-.25-.19-.28-.16-.48.1Zm.56-1.55c.2-.26.22-.32,0-.49l-1.14-.85a6.31,6.31,0,0,0-.76-.56v0c0,.11.13.45.33,1.08l.52,1.59c.13.39.14.37.32.15Z"/><path class="cls-6" d="M89.3,83.21c.34,1.31.82,2.93,1.06,3.6a.37.37,0,0,1-.1.21.28.28,0,0,1-.17.12,12.3,12.3,0,0,0-1.25-.93l-4.2-2.72c-.67-.44-.84-.5-1.18-.21l-.21.16a.26.26,0,0,1-.17-.31c.29-.34.61-.72.89-1.07s.57-.73.94-1.24c.11,0,.23.14.21.29L85,81.4c-.12.25-.15.38-.09.46a7.18,7.18,0,0,0,1.28.92L87.93,84c.45.3,1.06.66,1.29.8-.49-1.78-1-3.74-1.58-5.62-.16-.55-.24-.61-.51-.41l-.26.19c-.1,0-.21-.19-.19-.31.32-.35.57-.65.8-.94s.49-.64.68-.92c.09,0,.2.15.22.28l-.15.28a1.44,1.44,0,0,0-.16,1c.13.74.4,1.68.77,3.14Z"/><path class="cls-6" d="M91.77,80.17c-.19.23-.18.22-.06.58l.54,1.61c.27.78.31.77.62.49l.25-.21a.31.31,0,0,1,.19.32c-.25.27-.49.57-.79.93s-.46.59-.7.93c-.09,0-.2-.13-.21-.29l.18-.32a1.06,1.06,0,0,0,.08-1c-.09-.38-.27-1-.5-1.7l-1.49-4.9a2.93,2.93,0,0,0-.37-.92,3.09,3.09,0,0,0,.17-1.13.16.16,0,0,1,.18-.07c.43.31.85.68,1.28,1l4,3c.63.48.71.5,1.15.14l.13-.11c.11,0,.23.18.21.29-.31.35-.59.68-1,1.15s-.62.81-.87,1.14c-.09,0-.22-.15-.22-.27l.14-.23c.22-.38.22-.49-.18-.78l-1.29-1c-.25-.19-.29-.16-.49.1Zm.55-1.55c.21-.26.22-.32,0-.49l-1.15-.85a5.83,5.83,0,0,0-.75-.56v0c0,.11.12.45.33,1.08l.51,1.59c.13.38.15.37.32.15Z"/><path class="cls-6" d="M100.39,70.78c.21.3,1.06,1.57,1.25,1.78a.64.64,0,0,1-.15.45c-.27-.07-.71-.16-1.8-.34l-3.56-.61a13.61,13.61,0,0,0-1.71-.26s.06.14.43.68l1.36,2a7.65,7.65,0,0,0,1.5,1.86c.17.07.34,0,.55-.21l.18-.16c.11,0,.24.19.19.31-.29.31-.58.66-.85,1s-.5.64-.74,1c-.09,0-.22-.13-.21-.28l.12-.25a.89.89,0,0,0,.16-.64A11.62,11.62,0,0,0,95.83,75l-1.65-2.44c-.55-.8-.65-1-1.1-1a1.43,1.43,0,0,0-.53.28l-.12.1c-.1,0-.23-.21-.18-.33a13.28,13.28,0,0,0,.88-1c.15-.19.32-.42.48-.66a10.2,10.2,0,0,0,2.61.66l1.48.2c.62.09,2,.33,2.15.3s0-.11-.15-.27l-1.36-2A7.13,7.13,0,0,0,96.83,67c-.17-.07-.34,0-.54.2l-.18.17c-.12,0-.24-.19-.19-.31.29-.33.57-.66.85-1s.49-.64.74-1c.09,0,.23.13.22.28l-.13.26a.86.86,0,0,0-.16.63,11.3,11.3,0,0,0,1.28,2.14Z"/><path class="cls-6" d="M101.14,60.51a11.88,11.88,0,0,0,.79-1.07c.06,0,.13,0,.18.09,0,.45.21,2.25.39,3.6l.53,4c.06.4.26,2,.34,2.07s.2,0,.34-.14.32-.36.85-1a4.83,4.83,0,0,0,1.09-1.81,3.67,3.67,0,0,0-.21-1.75c0-.14.2-.28.29-.21a8.64,8.64,0,0,1,.8,2.12c-.42.48-.85,1-1.36,1.65l-1.89,2.36c-.39.5-.62.81-.74,1-.05,0-.12,0-.15-.1,0-.33-.11-1.55-.25-2.62l-.72-5.41a13.89,13.89,0,0,0-.3-1.8c-.05-.07-.16.06-.3.24l-.87,1.1a3,3,0,0,0-.84,1.69,4.71,4.71,0,0,0,.2,1.2c0,.16-.18.29-.28.22-.3-.73-.56-1.45-.86-2.12,0-.08.07-.16.12-.15.21.17.36,0,.94-.7Z"/><path class="cls-6" d="M129.65,183.49c.19.25.32.41.44.26a2.46,2.46,0,0,0,.17-1.27l0-2c0-.24,0-.83,0-1.09s-.07-.47-.19-.38l-.3.21c-.11,0-.19-.15-.18-.3.33-.38.6-.68.88-1s.55-.72.82-1.07c.11-.07.27.1.23.24a4.52,4.52,0,0,0-.73,2.77c0,.81-.06,1.58-.09,2.31,0,.22,0,.3.21.33,1.33.23,2.88.45,4,.55a1,1,0,0,0,.83-.34l.21-.2c.08,0,.22.19.18.29-.28.31-.6.68-1,1.19s-.72.9-1,1.33c-.11.07-.25-.12-.22-.25l.18-.29c.11-.17,0-.3-.13-.32-.69-.1-2.72-.48-3.27-.49a.34.34,0,0,0-.29.09c-.19.23,0,.44.19.71l.88,1.19c.73,1,.83.94,1.23.55l.21-.21c.09,0,.22.18.19.29-.38.43-.73.85-1.07,1.26s-.69.87-1,1.23c-.09,0-.24-.14-.22-.25l.1-.15c.31-.51.36-.63-.38-1.62L128,183.54c-.74-1-.82-.92-1.23-.55l-.17.16a.25.25,0,0,1-.18-.29c.33-.37.68-.79,1-1.22s.68-.86,1-1.25c.09,0,.23.14.21.26l-.11.19c-.3.52-.36.61.37,1.6Z"/><path class="cls-6" d="M136.83,179.31c.74,1,.83.93,1.23.54l.19-.18c.1,0,.22.18.19.29-.35.4-.71.82-1.05,1.24s-.69.87-1,1.3c-.09,0-.22-.12-.22-.25l.15-.24c.32-.5.37-.61-.37-1.61l-2.58-3.48c-.74-1-.82-.94-1.23-.55l-.19.18a.25.25,0,0,1-.18-.29c.35-.4.7-.82,1.05-1.25s.68-.86,1-1.29c.08,0,.22.12.21.25l-.15.24c-.31.5-.36.61.37,1.61Z"/><path class="cls-6" d="M136.75,171.65c-.29-.39-.31-.4-.51-.15l-.43.53a2.09,2.09,0,0,0-.56,2.34c0,.12-.19.29-.29.24-.25-.67-.56-1.39-.75-1.79a.17.17,0,0,1,0-.14.14.14,0,0,1,.11-.06c.21.19.33.07.85-.58l3.13-3.86c.38-.47.47-.64.4-1a.69.69,0,0,1,.07-.15c.05-.05.1-.08.13-.07a9,9,0,0,0,1,1.63.32.32,0,0,1-.22.32c-.64-.61-.91-.61-1.74.41l-.43.54c-.21.25-.2.27.09.67l3,4.05c.74,1,.83.93,1.22.54l.31-.3c.1,0,.22.17.18.28-.46.53-.81,1-1.15,1.37s-.69.87-1.17,1.5c-.09,0-.23-.14-.22-.25l.29-.45c.32-.5.39-.6-.35-1.59Z"/><path class="cls-6" d="M143.21,169.63c-.2.25-.19.24-.08.58l.52,1.51c.26.75.3.72.63.43l.25-.23a.25.25,0,0,1,.19.29c-.26.28-.51.6-.84,1s-.48.62-.73,1c-.09,0-.2-.11-.21-.26l.19-.33a1,1,0,0,0,.11-.95c-.09-.36-.26-.9-.47-1.61l-1.42-4.64a2.39,2.39,0,0,0-.36-.86,2.85,2.85,0,0,0,.2-1.11.2.2,0,0,1,.19-.09c.44.27.86.59,1.29.86l4,2.56c.64.41.72.42,1.18,0l.14-.11c.11,0,.22.15.2.26-.32.37-.61.71-1,1.2s-.66.85-.92,1.19c-.1,0-.23-.13-.23-.25l.15-.23c.25-.39.24-.5-.16-.74l-1.31-.84c-.25-.16-.28-.13-.5.14Zm.6-1.56c.22-.26.24-.32,0-.47l-1.15-.73a6,6,0,0,0-.77-.47v0c0,.1.12.42.31,1l.49,1.5c.13.36.14.35.33.12Z"/><path class="cls-6" d="M147.12,161.94c.19.26.32.41.44.26a2.66,2.66,0,0,0,.17-1.26l0-2c0-.24,0-.83,0-1.09s-.07-.47-.18-.38l-.3.2c-.11,0-.19-.14-.19-.29.34-.38.6-.68.88-1s.56-.72.83-1.07c.1-.08.26.1.22.24a4.66,4.66,0,0,0-.73,2.77c0,.81,0,1.58-.08,2.31,0,.22,0,.3.2.33,1.33.23,2.89.45,4,.55a.94.94,0,0,0,.83-.34l.21-.2c.09,0,.23.18.19.29-.28.31-.6.68-1,1.19s-.71.89-1,1.33c-.11.07-.25-.12-.21-.26l.18-.29c.11-.17,0-.29-.14-.31-.68-.1-2.72-.49-3.27-.49a.35.35,0,0,0-.28.08c-.2.24,0,.44.19.72l.88,1.19c.73,1,.82.93,1.23.55l.21-.21c.09,0,.22.17.18.28-.37.43-.72.85-1.06,1.27s-.69.87-1,1.22c-.1,0-.24-.13-.22-.25l.09-.15c.31-.51.36-.62-.37-1.61L145.46,162c-.74-1-.82-.93-1.23-.55l-.17.16a.25.25,0,0,1-.18-.29c.33-.38.68-.79,1-1.23s.68-.85,1-1.24c.09,0,.24.14.22.25l-.11.19c-.31.52-.37.62.37,1.61Z"/><path class="cls-6" d="M154,157a2,2,0,0,0-1.1-.86l-2.57-1.09c-.47-.19-.61-.22-1,.11l-.24.19c-.1,0-.21-.2-.17-.31.34-.38.67-.77,1-1.16s.79-1,1-1.24c.09,0,.23.11.22.25l-.2.33c-.1.18-.13.25-.07.32s.15.15.5.32c.89.44,1.74.84,2.55,1.15-.21-1.1-.41-2.11-.63-3.18A3.24,3.24,0,0,0,153,151c-.07-.1-.16,0-.28.07l-.28.22a.25.25,0,0,1-.18-.3c.35-.4.6-.68.83-1s.48-.6.71-.92c.1,0,.21.11.21.25l-.17.33c-.29.51-.26.79-.05,2.11.14.86.29,1.66.44,2.48a3.06,3.06,0,0,0,.69,1.67l.42.56c.74,1,.83.94,1.24.52l.32-.32c.1,0,.21.18.18.29-.49.57-.84,1-1.18,1.4s-.69.87-1.09,1.41c-.09,0-.22-.13-.22-.26l.22-.34c.32-.5.37-.61-.36-1.6Z"/><path class="cls-6" d="M155.55,149.55c-.74-1-.82-.93-1.24-.56l-.15.14c-.1,0-.21-.17-.18-.28.32-.36.68-.78,1-1.2s.69-.86,1-1.3c.09,0,.22.12.21.25l-.14.23c-.33.5-.37.63.37,1.62L158,150.6c1,1.29,2.08,2,3.15.67s.74-2.69-.32-4.11L160,146c-.52-.71-1.17-1.57-1.51-1.67-.17-.06-.34,0-.56.23l-.18.16c-.12,0-.23-.16-.18-.28.28-.31.58-.65.87-1s.53-.66.8-1c.1,0,.22.1.21.25l-.13.25a.94.94,0,0,0-.18.64,8.64,8.64,0,0,0,1.26,2l.83,1.12a4.67,4.67,0,0,1,1.09,2.79,4.16,4.16,0,0,1-1,2.56,2.93,2.93,0,0,1-2,1.35c-.64,0-1.29-.43-2-1.38Z"/><path class="cls-6" d="M164,147.92a3,3,0,0,1-1.28-1.14.31.31,0,0,1,.21-.33,1.79,1.79,0,0,0,2.4-.13,1.7,1.7,0,0,0,.17-2.13,1.36,1.36,0,0,0-1.79-.4l-.49.19a1.93,1.93,0,0,1-2.42-.48,3.06,3.06,0,0,1,.42-3.8,7.62,7.62,0,0,1,1.2-1.1,4.27,4.27,0,0,1,1.09,1.07.34.34,0,0,1-.22.33,1.23,1.23,0,0,0-1.86.16,1.63,1.63,0,0,0-.14,2.06c.29.39.82.54,1.57.24l.7-.28a1.91,1.91,0,0,1,2.42.55,3.77,3.77,0,0,1-2,5.19"/><path class="cls-6" d="M167.24,138.64c-.39.49-.4.53-.22.79l1,1.37c.73,1,.81.93,1.22.54l.26-.24c.1,0,.21.17.18.29-.41.47-.76.89-1.1,1.3s-.68.86-1,1.24c-.09,0-.22-.12-.21-.25l.09-.16c.31-.51.36-.62-.37-1.62l-2.58-3.48c-.74-1-.83-.94-1.24-.55l-.18.18c-.09,0-.22-.18-.19-.29.35-.4.72-.84,1.06-1.26s.68-.85,1-1.23c.09,0,.24.14.22.25l-.11.19c-.31.52-.37.62.37,1.61l.84,1.13c.19.27.23.25.62-.23l1.8-2.22c.39-.48.4-.53.2-.79l-.84-1.13c-.73-1-.82-.94-1.22-.55l-.19.18c-.09,0-.23-.18-.19-.29.37-.42.72-.84,1.06-1.26s.67-.85,1-1.24c.09,0,.23.13.21.25l-.11.2c-.31.52-.37.61.36,1.61l2.58,3.48c.74,1,.83.94,1.23.55l.19-.18c.1,0,.22.18.19.29-.35.4-.71.82-1,1.24s-.69.87-1,1.3c-.09,0-.22-.12-.22-.25l.15-.24c.32-.5.37-.61-.37-1.61l-1-1.37c-.18-.26-.22-.25-.61.23Z"/><path class="cls-6" d="M170.59,131c-.73-1-.81-.92-1.23-.55l-.16.13a.24.24,0,0,1-.17-.28c.32-.36.67-.78,1-1.2s.68-.86,1-1.3c.09,0,.21.12.21.25l-.15.24c-.32.5-.36.62.37,1.61l1.59,2.15c1,1.29,2.08,2,3.15.67s.74-2.68-.32-4.11l-.87-1.17c-.51-.7-1.17-1.57-1.51-1.67-.17-.05-.34,0-.56.23l-.18.16c-.11,0-.23-.15-.17-.28.27-.3.57-.65.87-1s.52-.66.79-1c.1,0,.22.1.21.24l-.13.25a1,1,0,0,0-.18.65,9.38,9.38,0,0,0,1.27,2l.82,1.11a4.7,4.7,0,0,1,1.1,2.79,4.17,4.17,0,0,1-1,2.56,3,3,0,0,1-2,1.36c-.65,0-1.3-.44-2-1.39Z"/><polygon class="cls-3" points="120 79.74 87.48 120 120 160.26 152.51 120 120 79.74"/><rect class="cls-3" x="86.96" y="125.16" width="3.2" height="3.2"/><rect class="cls-3" x="93.2" y="132.84" width="3.2" height="3.2"/><rect class="cls-3" x="99.44" y="140.52" width="3.2" height="3.2"/><rect class="cls-3" x="105.67" y="148.21" width="3.2" height="3.2"/><rect class="cls-3" x="111.91" y="155.89" width="3.2" height="3.2"/><rect class="cls-3" x="149.84" y="125.16" width="3.2" height="3.2"/><rect class="cls-3" x="143.6" y="132.84" width="3.2" height="3.2"/><rect class="cls-3" x="137.36" y="140.52" width="3.2" height="3.2"/><rect class="cls-3" x="131.13" y="148.21" width="3.2" height="3.2"/><rect class="cls-3" x="124.89" y="155.89" width="3.2" height="3.2"/><polygon class="cls-3" points="120 162.08 122.24 164.85 120 167.62 117.76 164.85 120 162.08"/><rect class="cls-3" x="86.96" y="111.65" width="3.2" height="3.2"/><rect class="cls-3" x="93.2" y="103.96" width="3.2" height="3.2"/><rect class="cls-3" x="99.44" y="96.28" width="3.2" height="3.2"/><rect class="cls-3" x="105.67" y="88.6" width="3.2" height="3.2"/><rect class="cls-3" x="111.91" y="80.91" width="3.2" height="3.2"/><rect class="cls-3" x="149.84" y="111.65" width="3.2" height="3.2"/><rect class="cls-3" x="143.6" y="103.96" width="3.2" height="3.2"/><rect class="cls-3" x="137.36" y="96.28" width="3.2" height="3.2"/><rect class="cls-3" x="131.13" y="88.6" width="3.2" height="3.2"/><rect class="cls-3" x="124.89" y="80.91" width="3.2" height="3.2"/><polygon class="cls-3" points="120 77.92 122.24 75.15 120 72.38 117.76 75.15 120 77.92"/><polygon class="cls-3" points="156.58 122.77 158.82 120 156.58 117.23 154.35 120 156.58 122.77"/><polygon class="cls-3" points="83.41 122.77 81.18 120 83.41 117.23 85.65 120 83.41 122.77"/><polygon class="cls-4" points="101.18 105.03 110.67 104.14 113.7 89.26 118.81 82.82 118.81 140.57 110.21 146.22 101.22 135.16 105.85 130.07 108.27 118.67 94.82 112.96 101.18 105.03"/><polygon class="cls-4" points="138.82 105.03 129.33 104.14 126.3 89.26 121.18 82.82 121.18 140.57 129.79 146.22 138.77 135.16 134.14 130.07 131.73 118.67 145.18 112.96 138.82 105.03"/></svg>
