<svg width="240" height="240" viewBox="0 0 240 240" fill="none" xmlns="http://www.w3.org/2000/svg">
<path d="M205.051 144.424L203.899 139.075C203.899 138.918 203.984 138.776 204.013 138.62C205.261 133.797 204.715 128.686 202.476 124.236L200.229 119.627C200.229 119.485 200.229 119.342 200.229 119.2C200.298 114.531 198.699 109.991 195.719 106.396L192.518 102.384C192.511 102.266 192.511 102.147 192.518 102.028C191.597 97.7155 189.19 93.8633 185.717 91.145L181.563 87.8871C180.67 85.9774 179.436 84.2466 177.921 82.7797L178.291 80.7595C178.628 78.6632 178.25 76.5146 177.218 74.6593C176.185 72.8039 174.559 71.3497 172.6 70.5305C170.893 69.7907 168.759 68.9229 166.17 68.0408C167.762 67.6037 169.306 67.0079 170.779 66.2625C173.008 65.1067 174.969 63.4968 176.538 61.5365C178.106 59.5762 179.246 57.309 179.884 54.8811C180.612 52.2331 180.789 49.4637 180.402 46.7448C180.015 44.0258 179.074 41.4153 177.637 39.0753C174.917 34.6676 170.56 31.5193 165.521 30.3216C160.482 29.1239 155.174 29.9748 150.762 32.6875C147.248 34.8499 144.787 38.1221 141.671 42.2478C140.491 43.8127 139.324 45.6764 137.973 47.8531C137.019 49.3754 135.981 51.0541 134.828 52.7613C135.497 50.8976 136.137 49.0055 136.735 47.0707C140.087 36.5558 142.226 25.6918 143.108 14.6907L143.379 11.0629L126.008 9L126.193 13.4672C126.536 23.2892 125.821 33.1197 124.059 42.7884C123.065 48.443 121.74 54.0342 120.09 59.5333C118.428 54.0363 117.098 48.4446 116.106 42.7884C114.344 33.1197 113.628 23.2892 113.972 13.4672L114.157 9L96.7862 11.0771L97.0565 14.6907C97.9511 25.7228 100.109 36.6159 103.487 47.156C104.099 49.0624 104.725 50.9403 105.408 52.8467C104.269 51.168 103.231 49.5034 102.235 47.91C100.898 45.7476 99.7312 43.8839 98.5503 42.3189C95.4347 38.179 92.9735 34.9211 89.4595 32.7586C85.0476 30.046 79.7395 29.1951 74.7008 30.3927C69.6621 31.5904 65.3047 34.7387 62.5852 39.1464C61.1478 41.4865 60.2066 44.0969 59.8199 46.8159C59.4332 49.5348 59.6094 52.3042 60.3374 54.9523C60.9758 57.3801 62.1159 59.6473 63.6841 61.6076C65.2524 63.5679 67.214 65.1778 69.4425 66.3336C70.9156 67.0791 72.4599 67.6748 74.052 68.112C71.4627 68.994 69.3287 69.8618 67.6357 70.6016C65.6731 71.424 64.0445 72.8831 63.0122 74.7439C61.9799 76.6046 61.604 78.7587 61.945 80.8591L62.4999 83.804L62.258 83.9036C58.5681 85.7414 55.6312 88.804 53.9496 92.5677L52.5269 95.7118C51.7714 96.1574 51.0487 96.6566 50.3645 97.2056C46.9184 99.9465 44.5505 103.816 43.6779 108.132L42.5825 113.282C42.426 113.452 42.2979 113.623 42.1557 113.794C39.2326 117.467 37.7188 122.063 37.8877 126.754L38.0015 130.453C37.4161 131.326 36.9022 132.244 36.465 133.199C34.412 137.711 34.0435 142.808 35.4265 147.568L36.6642 151.921C36.459 152.642 36.2928 153.374 36.1662 154.112C35.2611 159.259 36.2194 164.56 38.8693 169.065L41.3021 173.176C41.3021 173.959 41.3021 174.727 41.3021 175.452C41.7616 180.967 44.2145 186.126 48.202 189.964L51.7587 193.392C51.9408 194.119 52.1592 194.836 52.4131 195.541C54.4313 200.992 58.3799 205.512 63.51 208.245L68.1621 210.749C68.6 211.488 69.0748 212.205 69.5848 212.897C73.2476 217.818 78.606 221.204 84.6224 222.401L90.2277 223.524C90.7968 224.022 91.3943 224.506 91.9918 224.947C96.3925 228.162 101.708 229.882 107.157 229.855C108.054 229.855 108.95 229.855 109.804 229.713L116.277 229.13C116.832 229.357 117.344 229.557 117.842 229.727C120.561 230.664 123.416 231.145 126.292 231.15C130.01 231.142 133.686 230.367 137.09 228.874L144.204 225.9H144.545C150.728 225.883 156.696 223.629 161.347 219.555L165.772 215.444L166.255 215.316C172.12 213.703 177.186 209.986 180.482 204.873L183.868 199.766C183.982 199.713 184.091 199.651 184.195 199.581C189.161 196.573 192.847 191.843 194.552 186.293L196.658 180.09C200.315 176.088 202.424 170.912 202.604 165.494L202.804 159.803L202.932 159.575C205.437 154.944 206.19 149.565 205.051 144.424ZM153.039 50.9119C155.073 48.223 156.994 45.6764 158.217 44.9224C159.391 44.222 160.792 44.0085 162.121 44.3276C163.451 44.6466 164.602 45.4728 165.33 46.6296C166.128 48.012 166.347 49.653 165.942 51.1964C165.245 53.9706 159.825 57.3992 146.992 58.452C149.468 55.6636 151.403 53.1028 153.039 50.9119ZM74.7917 46.6439C75.5174 45.4841 76.6692 44.6555 77.9995 44.3363C79.3297 44.017 80.7321 44.2326 81.9051 44.9367C83.1428 45.6907 85.0492 48.2373 87.0836 50.9403C88.7339 53.117 90.6687 55.692 93.0588 58.4663C80.2548 57.4135 74.806 53.9848 74.1089 51.2106C73.7168 49.6553 73.9572 48.008 74.7775 46.6296L74.7917 46.6439Z" fill="#1D1D1B"/>
<path d="M203.629 144.737L202.335 139.046C202.335 138.79 202.491 138.534 202.548 138.264C203.698 133.79 203.193 129.051 201.125 124.919L198.721 119.968C198.721 119.712 198.721 119.47 198.721 119.214C198.793 114.869 197.31 110.64 194.538 107.292L191.067 103.024L190.939 102.327C190.071 98.3782 187.852 94.856 184.665 92.3685L180.397 88.9541H180.312C179.371 86.8484 177.994 84.9668 176.271 83.4341L176.783 80.5888C177.062 78.8209 176.741 77.0106 175.872 75.4458C175.004 73.8811 173.637 72.6517 171.989 71.9532C164.278 68.5672 147.277 62.8623 120.118 62.777C92.9597 62.6916 76.0157 68.5672 68.2621 71.9532C66.6112 72.6506 65.2424 73.8825 64.3756 75.4511C63.5087 77.0197 63.194 78.8341 63.482 80.603L64.236 84.7003C63.8139 84.8524 63.4006 85.0282 62.9982 85.2267C59.6103 86.9189 56.915 89.7349 55.3727 93.1937L53.7509 96.7646C51.5662 97.983 49.6716 99.6607 48.198 101.682C46.7243 103.703 45.7065 106.02 45.2149 108.473L44.0767 113.894V114.007C43.8633 114.249 43.6499 114.491 43.4508 114.747C40.7414 118.148 39.343 122.409 39.51 126.754L39.638 130.923C37.9905 133.249 36.8839 135.913 36.399 138.722C35.914 141.531 36.0631 144.412 36.8353 147.156L38.258 151.936C38.0088 152.719 37.8092 153.517 37.6605 154.326C36.7825 159.144 37.6662 164.118 40.1502 168.339L42.7963 172.835C42.7467 173.678 42.7467 174.524 42.7963 175.367C43.2244 180.527 45.5211 185.353 49.2553 188.939L53.0965 192.653C53.2951 193.466 53.5373 194.269 53.822 195.057C55.7157 200.172 59.4214 204.415 64.236 206.979L69.1726 209.597H69.2864C69.7583 210.417 70.276 211.21 70.8372 211.972C74.2768 216.567 79.2928 219.729 84.9216 220.85L91.2098 222.273C91.7362 222.742 92.3053 223.212 92.8886 223.695C97.0178 226.751 102.021 228.397 107.158 228.39C108.111 228.39 108.965 228.39 109.676 228.262L116.505 227.636C117.102 227.892 117.714 228.148 118.34 228.362C120.909 229.242 123.606 229.694 126.321 229.699C129.848 229.685 133.334 228.949 136.565 227.536L143.948 224.435H144.574C150.376 224.409 155.976 222.299 160.352 218.488L165.061 214.106L165.872 213.907C171.397 212.384 176.168 208.88 179.273 204.062L182.858 198.67L183.456 198.329C188.124 195.496 191.588 191.045 193.187 185.824L195.378 179.322C198.893 175.535 200.915 170.602 201.068 165.437L201.282 159.362L201.581 158.836C203.937 154.535 204.664 149.53 203.629 144.737ZM61.8032 162.435C61.7974 159.507 62.2388 156.595 63.1121 153.799C62.984 155.108 62.9129 156.446 62.9129 157.797C62.9014 168.551 67.1287 178.877 74.6784 186.535C70.7169 183.886 67.4696 180.3 65.2239 176.097C62.9782 171.893 61.8033 167.201 61.8032 162.435ZM67.878 165.793C67.6309 161.75 68.0735 157.694 69.1869 153.799C69.0444 156.097 69.0444 158.402 69.1869 160.699C69.8351 171.735 73.8022 182.317 80.5682 191.059C76.8456 187.932 73.8001 184.079 71.6181 179.734C69.4361 175.39 68.1634 170.646 67.878 165.793ZM159.64 191.102C166.402 182.357 170.368 171.776 171.022 160.742C171.164 158.444 171.164 156.14 171.022 153.842C172.92 160.489 172.856 167.543 170.836 174.154C168.817 180.765 164.929 186.65 159.64 191.102ZM165.487 186.535C173.037 178.877 177.264 168.551 177.253 157.797C177.253 156.374 177.253 155.108 177.054 153.799C178.908 159.772 178.785 166.183 176.7 172.079C174.616 177.976 170.683 183.041 165.487 186.521V186.535ZM184.75 142.589C184.233 141.13 183.624 139.704 182.929 138.321C182.127 136.679 180.975 135.232 179.555 134.081C178.134 132.931 176.48 132.106 174.706 131.663C170.609 130.581 167.92 132.445 167.749 134.337C167.642 134.788 167.67 135.26 167.83 135.696C167.989 136.131 168.273 136.509 168.646 136.784C169.029 137.202 169.522 137.503 170.068 137.652L170.41 137.78C172.288 138.392 174.151 137.78 174.564 136.542C174.642 136.283 174.666 136.01 174.634 135.741C174.602 135.472 174.516 135.212 174.379 134.977C175.878 135.523 177.184 136.498 178.133 137.781C179.081 139.063 179.631 140.597 179.714 142.19C180.326 150.271 177.04 152.96 173.269 144.922C171.312 140.882 168.305 137.442 164.563 134.963C152.954 127.025 139.879 129.273 140.377 134.778C140.377 136.542 142.469 137.979 145.029 137.979C147.59 137.979 149.667 136.557 149.667 134.778C149.626 134.226 149.433 133.695 149.109 133.246C148.785 132.797 148.343 132.446 147.832 132.232C150.471 131.924 153.144 132.157 155.69 132.915C158.236 133.673 160.601 134.941 162.642 136.642C160.559 136.057 158.372 135.945 156.24 136.315C154.462 136.685 152.171 138.577 152.911 140.711C153.153 142.134 155.045 143.016 157.179 142.66C159.313 142.304 160.75 140.839 160.508 139.402C160.453 139.126 160.341 138.865 160.181 138.634C161.874 138.804 166.697 139.971 169.599 147.326C171.918 153.188 165.573 150.371 163.681 148.749C158.986 144.737 149.027 146.017 147.761 149.588C147.62 149.92 147.576 150.285 147.633 150.641C147.889 152.064 149.767 152.96 151.901 152.59C154.035 152.22 155.472 150.783 155.216 149.346C155.172 149.121 155.09 148.905 154.974 148.706C160.11 148.45 165.672 154.155 166.071 157.626C166.305 159.201 166.138 160.81 165.583 162.303C165.028 163.795 164.104 165.123 162.898 166.162C162.898 166.162 165.928 167.912 164.733 173.119C163.096 180.379 159.686 187.121 154.808 192.741C149.93 198.362 143.735 202.686 136.778 205.329C132.347 205.28 127.954 206.147 123.874 207.875L121.029 209.027C117.963 207.214 114.532 206.106 110.985 205.784C108.745 205.541 106.489 205.499 104.241 205.656C97.1184 203.083 90.757 198.759 85.7425 193.084C80.7281 187.408 77.2217 180.562 75.5462 173.176C74.3654 167.969 77.3814 166.219 77.3814 166.219C76.1755 165.18 75.2532 163.852 74.7008 162.359C74.1484 160.866 73.984 159.257 74.2231 157.683C74.6215 154.112 80.1272 148.422 85.32 148.706C85.204 148.905 85.1222 149.121 85.0781 149.346C84.8362 150.769 86.3158 152.192 88.4071 152.59C90.4985 152.988 92.3764 152.078 92.6752 150.641C92.7374 150.286 92.6979 149.921 92.5613 149.588C91.2809 146.017 81.3222 144.737 76.6274 148.749C74.7353 150.371 68.3902 153.188 70.7233 147.326C73.5687 139.971 78.4342 138.79 80.1272 138.634C79.9656 138.863 79.8585 139.125 79.8142 139.402C79.5581 140.825 81.0519 142.247 83.129 142.66C85.2061 143.072 87.0983 142.148 87.397 140.711C88.1226 138.577 85.8321 136.685 84.0538 136.315C81.9221 135.945 79.7346 136.057 77.6518 136.642C79.6814 134.939 82.0352 133.665 84.5708 132.898C87.1065 132.13 89.7715 131.884 92.4049 132.175C91.8956 132.391 91.4553 132.743 91.1318 133.192C90.8083 133.641 90.6138 134.17 90.5696 134.721C90.5696 136.486 92.6467 137.922 95.2075 137.922C97.7683 137.922 99.8596 136.5 99.8596 134.721C100.4 129.23 87.3401 126.968 75.6742 134.906C71.9247 137.381 68.9119 140.822 66.9533 144.865C63.1832 152.903 59.9111 150.214 60.5086 142.134C60.6102 140.544 61.175 139.02 62.1332 137.748C63.0914 136.477 64.4011 135.513 65.9005 134.977C65.7584 135.209 65.6672 135.469 65.6328 135.739C65.5985 136.008 65.6218 136.282 65.7013 136.542C66.1281 137.837 67.9918 138.392 69.8555 137.78L70.197 137.652C70.7436 137.503 71.2368 137.202 71.6196 136.784C71.991 136.507 72.2744 136.129 72.436 135.695C72.5975 135.261 72.6302 134.79 72.5301 134.337C72.3594 132.445 69.6848 130.581 65.5591 131.663C63.7866 132.108 62.1326 132.934 60.7124 134.084C59.2921 135.234 58.1399 136.68 57.336 138.321C56.641 139.704 56.0328 141.13 55.515 142.589C54.7041 135.219 56.7243 130.069 59.1713 127.281C60.3471 125.94 61.8748 124.954 63.5815 124.435C63.3232 124.905 63.2618 125.457 63.4108 125.972C63.8376 127.267 65.7013 127.821 67.565 127.21C69.4287 126.598 70.6238 125.047 70.2112 123.753C69.5568 120.907 65.2176 120.111 60.6366 122.045C59.0401 122.752 57.6886 123.915 56.7527 125.389C56.7527 125.232 56.7527 125.076 56.7527 124.933L56.8523 121.306C59.8304 118.528 61.9153 114.928 62.8418 110.963L64.1933 106.296C65.4624 105.317 66.5962 104.174 67.565 102.896L71.1502 122.33C71.3091 122.653 71.4331 122.991 71.52 123.34C71.6524 123.817 71.6767 124.318 71.5912 124.805L72.9143 131.919C73.4132 132.5 73.7386 133.21 73.8532 133.967C73.8599 134.062 73.8599 134.157 73.8532 134.252L74.7211 133.626L75.6742 133.014L65.9005 80.0482C65.723 78.8491 65.9514 77.6251 66.5494 76.5708C67.1475 75.5165 68.0808 74.6923 69.2011 74.2294C75.8876 71.2845 92.7036 65.352 120.033 65.2524C147.363 65.1528 164.136 71.2845 170.865 74.2294C171.981 74.6968 172.91 75.5223 173.505 76.5759C174.1 77.6294 174.328 78.8511 174.151 80.0482L164.42 133.085L165.374 133.697L166.241 134.323C166.235 134.228 166.235 134.133 166.241 134.039C166.356 133.281 166.681 132.571 167.18 131.99L168.503 124.877C168.418 124.379 168.447 123.868 168.589 123.383C168.676 123.034 168.8 122.695 168.959 122.373L172.601 103.167C173.293 104.077 174.049 104.937 174.863 105.742L177.95 108.843C178.313 112.454 179.656 115.898 181.834 118.802L184.068 122.031V121.889C183.776 123.153 183.647 124.448 183.683 125.744C182.721 124.12 181.28 122.833 179.558 122.06C174.977 120.125 170.637 120.907 169.997 123.767C169.57 125.061 170.751 126.612 172.629 127.224C174.507 127.836 176.371 127.224 176.783 125.986C176.86 125.732 176.885 125.465 176.856 125.2C176.826 124.936 176.744 124.681 176.613 124.45C178.324 124.967 179.856 125.953 181.037 127.295C183.541 130.069 185.576 135.219 184.75 142.589Z" fill="white"/>
<path d="M165.203 142.987C164.553 142.242 163.79 141.603 162.941 141.095L162.03 146.074C162.871 146.445 163.66 146.924 164.378 147.497L165.203 142.987Z" fill="white"/>
<path d="M120.09 186.293C116.078 186.327 112.128 187.294 108.553 189.116C104.978 190.938 101.875 193.566 99.4898 196.793C94.1534 192.648 89.2703 187.951 84.9216 182.779L79.3448 152.547L78.9607 152.86C78.2962 153.45 77.6911 154.102 77.1539 154.809L82.5173 183.988L82.9584 184.515C87.4318 189.792 92.443 194.589 97.9106 198.827L100.045 200.477L101.595 198.301C103.714 195.379 106.495 193.002 109.71 191.362C112.924 189.723 116.481 188.868 120.09 188.868C123.699 188.868 127.256 189.723 130.471 191.362C133.685 193.002 136.466 195.379 138.585 198.301L140.135 200.477L142.255 198.827C147.728 194.563 152.744 189.743 157.222 184.444L157.649 183.917L163.026 154.824C162.485 154.12 161.88 153.468 161.219 152.875L160.85 152.562L155.244 182.793C150.895 187.96 146.012 192.652 140.676 196.793C138.292 193.568 135.192 190.941 131.619 189.119C128.047 187.297 124.1 186.33 120.09 186.293Z" fill="white"/>
<path d="M74.963 142.959L75.8592 147.497C76.5699 146.921 77.3546 146.442 78.1924 146.074L77.2819 141.109C76.4209 141.606 75.6393 142.23 74.963 142.959Z" fill="white"/>
<path d="M114.684 43.0303C112.91 33.2623 112.19 23.332 112.536 13.4103L112.649 10.6361L98.3232 12.3433L98.4939 14.5911C99.3834 25.5168 101.522 36.3046 104.867 46.7435C106.433 51.7194 108.257 56.6105 110.331 61.397C106.795 57.4927 103.677 53.23 101.026 48.6783C99.7032 46.5443 98.5508 44.6948 97.3984 43.1726C94.3539 39.1606 91.9923 36.0307 88.6633 33.9679C84.5759 31.4553 79.6585 30.6673 74.9906 31.7769C70.3228 32.8865 66.286 35.8031 63.7665 39.8862C62.4471 42.0586 61.5859 44.478 61.2361 46.9955C60.8862 49.5131 61.055 52.0756 61.7321 54.5255C62.328 56.7619 63.3868 58.8482 64.8401 60.6495C66.2934 62.4508 68.1087 63.9268 70.1685 64.9821C72.2231 66.0092 74.4045 66.7603 76.6559 67.2157C85.9602 64.3703 100.045 61.3827 119.18 61.2262C117.298 55.2621 115.796 49.1846 114.684 43.0303ZM72.7578 51.5663C72.2607 49.6403 72.5418 47.596 73.5403 45.8756C74.1423 44.909 74.9807 44.1118 75.9764 43.5592C76.9721 43.0066 78.0922 42.7168 79.2309 42.7173C80.4569 42.7151 81.6591 43.0551 82.7023 43.6989C84.1249 44.5952 86.074 47.1276 88.2791 50.0583C90.8406 53.5578 93.5904 56.9155 96.5164 60.1166C83.0579 59.5048 73.9528 56.3038 72.7578 51.5521V51.5663Z" fill="white"/>
<path d="M170.054 64.9821C172.103 63.9206 173.908 62.4418 175.351 60.6409C176.794 58.8399 177.844 56.7568 178.434 54.5255C179.112 52.0689 179.278 49.499 178.92 46.9756C178.563 44.4523 177.69 42.0294 176.357 39.8577C173.84 35.7756 169.806 32.8593 165.14 31.7496C160.475 30.64 155.559 31.4275 151.474 33.9394C148.174 36.0308 145.783 39.1606 142.725 43.1441C141.572 44.6664 140.434 46.5158 139.097 48.6498C136.484 53.203 133.409 57.4747 129.921 61.397C131.984 56.6078 133.802 51.717 135.37 46.7435C138.715 36.3046 140.854 25.5168 141.743 14.5911L141.914 12.3433L127.516 10.6361L127.63 13.4814C127.976 23.4032 127.256 33.3334 125.482 43.1014C124.388 49.2545 122.906 55.332 121.043 61.2974C140.178 61.4681 154.263 64.3846 163.567 67.2868C165.822 66.8088 168.003 66.0338 170.054 64.9821ZM151.887 50.0583C154.106 47.1276 155.998 44.5668 157.464 43.6989C158.507 43.0551 159.709 42.7151 160.935 42.7173C162.074 42.7128 163.196 43.0008 164.192 43.5537C165.189 44.1067 166.027 44.9062 166.626 45.8756C167.624 47.596 167.905 49.6403 167.408 51.5663C166.227 56.318 157.122 59.519 143.649 60.1023C146.575 56.9059 149.325 53.5529 151.887 50.0583Z" fill="white"/>
<path d="M54.2773 124.805C52.8696 125.442 51.408 125.951 49.9097 126.328L48.3021 126.783C46.4446 127.48 44.7479 128.546 43.3148 129.918C41.8818 131.29 40.7422 132.939 39.9653 134.764C38.2901 138.455 37.9923 142.624 39.1259 146.515C41.0698 143.316 43.902 140.75 47.2778 139.132C53.2245 136.144 54.1635 128.419 54.2773 124.805Z" fill="#95841F"/>
<path d="M60.4517 110.251C59.0436 110.509 57.615 110.637 56.1837 110.636H54.6045C52.7482 110.856 50.9561 111.451 49.337 112.385C47.718 113.319 46.3058 114.573 45.1864 116.07C42.802 119.048 41.5698 122.786 41.7151 126.598C44.2251 124.14 47.3833 122.447 50.8202 121.718C56.895 120.338 59.5127 113.581 60.4517 110.251Z" fill="#95841F"/>
<path d="M52.0437 140.782C50.7555 141.822 49.3744 142.741 47.918 143.528L46.3957 144.41C44.6749 145.607 43.2151 147.14 42.1049 148.918C40.9946 150.696 40.257 152.681 39.9368 154.753C39.1763 159.007 39.9797 163.393 42.1989 167.101C43.3389 163.3 45.5699 159.916 48.6151 157.37C53.9786 152.69 52.8689 144.467 52.0437 140.782Z" fill="#95841F"/>
<path d="M103.701 208.032C104.868 209.901 105.823 211.896 106.546 213.978C106.817 214.661 107.087 215.401 107.371 216.027C109.178 220.295 113.674 224.222 119.108 226.085C124.506 227.928 130.4 227.664 135.611 225.346C130.879 223.283 126.902 219.804 124.23 215.387C121.612 211.261 117.046 208.786 110.672 208.06C108.355 207.814 106.019 207.804 103.701 208.032Z" fill="#95841F"/>
<path d="M144.389 205.812C146.199 206.639 147.915 207.654 149.511 208.843L151.175 209.981C153.288 211.192 155.625 211.96 158.044 212.239C160.463 212.518 162.913 212.301 165.246 211.602C170.206 210.242 174.487 207.095 177.267 202.768C172.674 203.574 167.945 202.979 163.695 201.061C155.97 197.603 147.69 203.18 144.389 205.812Z" fill="#95841F"/>
<path d="M161.646 196.465C163.497 196.752 165.314 197.229 167.067 197.888L168.902 198.5C171.156 199.054 173.499 199.144 175.789 198.762C178.078 198.381 180.266 197.536 182.218 196.28C186.39 193.756 189.48 189.778 190.896 185.112C186.913 187.008 182.455 187.672 178.092 187.019C170.111 185.952 164.065 193.136 161.646 196.465Z" fill="#95841F"/>
<path d="M177.324 182.907C178.263 182.907 179.216 182.907 180.169 183.007C180.781 183.007 181.393 183.007 182.019 183.092C184.224 183.028 186.393 182.516 188.394 181.587C190.395 180.657 192.185 179.33 193.656 177.686C196.807 174.334 198.628 169.949 198.778 165.351C195.556 168.091 191.596 169.818 187.397 170.317C179.928 171.341 176.172 179.379 174.82 183.121C175.649 182.989 176.485 182.917 177.324 182.907Z" fill="#95841F"/>
<path d="M201.282 145.249C199.009 148.514 195.821 151.034 192.12 152.491C185.576 155.222 184.025 163.402 183.669 167.158C185.217 166.571 186.818 166.132 188.449 165.849L190.171 165.494C192.18 164.897 194.047 163.898 195.659 162.558C197.27 161.218 198.593 159.564 199.546 157.698C201.617 153.896 202.234 149.472 201.282 145.249Z" fill="#95841F"/>
<path d="M198.991 125.958C197.634 129.44 195.303 132.458 192.276 134.65C186.941 138.648 187.382 146.43 187.923 150.001C189.194 149.123 190.542 148.361 191.949 147.725L193.457 146.985C195.162 145.974 196.642 144.626 197.809 143.024C198.976 141.422 199.804 139.599 200.243 137.666C201.237 133.739 200.793 129.586 198.991 125.958Z" fill="#95841F"/>
<path d="M192.717 108.786C192.215 112.266 190.735 115.532 188.449 118.204C184.48 122.97 186.529 129.927 187.809 133.142C188.768 132.073 189.826 131.097 190.968 130.226L192.177 129.216C193.516 127.912 194.577 126.349 195.293 124.622C196.01 122.895 196.368 121.041 196.345 119.172C196.408 115.389 195.122 111.707 192.717 108.786Z" fill="#95841F"/>
<path d="M183.2 94.1753C183.451 97.4431 182.781 100.716 181.265 103.622C178.676 108.8 181.919 114.676 183.783 117.379C184.443 116.23 185.195 115.136 186.031 114.107L186.941 112.912C187.883 111.442 188.516 109.797 188.805 108.076C189.093 106.354 189.031 104.593 188.62 102.896C187.901 99.4401 185.98 96.3505 183.2 94.1753Z" fill="#95841F"/>
<path d="M124.771 210.023C126.357 211.389 127.788 212.926 129.039 214.604C129.48 215.145 129.921 215.7 130.376 216.24C133.221 219.683 138.499 221.931 144.005 222.045C149.421 222.174 154.689 220.271 158.772 216.71C153.877 216.167 149.268 214.131 145.57 210.877C138.869 205.172 128.811 208.359 124.771 210.023Z" fill="#95841F"/>
<path d="M94.3539 221.803C89.9294 218.531 86.9276 213.722 86.515 209.241C86.515 208.53 86.4012 207.818 86.3585 207.121C86.2984 205.028 86.0073 202.948 85.4907 200.918C89.7587 201.871 99.817 205.016 102.079 213.594C103.257 218.351 105.851 222.637 109.52 225.886C104.132 226.47 98.7206 225.013 94.3539 221.803Z" fill="#95841F"/>
<path d="M72.7436 210.607C71.2399 208.695 70.1416 206.496 69.5154 204.146C68.8892 201.795 68.7484 199.342 69.1015 196.935C69.2438 196.266 69.3861 195.612 69.5426 194.957C70.0663 193.043 70.3812 191.078 70.4815 189.096C72.3298 190.139 74.0693 191.364 75.6743 192.752C80.0703 196.608 82.2186 200.819 82.0621 205.272C81.7987 209.934 82.9545 214.567 85.3769 218.559C80.3242 217.569 75.8208 214.735 72.7436 210.607Z" fill="#95841F"/>
<path d="M65.9859 191.856C64.4945 196.034 64.2913 200.564 65.4026 204.859C61.096 202.579 57.7827 198.79 56.0983 194.217C55.2405 192.062 54.8308 189.755 54.8944 187.436C54.958 185.117 55.4935 182.836 56.4682 180.731C56.767 180.161 57.0942 179.592 57.4072 179.038C58.3907 177.458 59.2061 175.779 59.8399 174.03C62.6568 176.875 68.5467 184.301 65.9859 191.856Z" fill="#95841F"/>
<path d="M50.9483 187.204C47.6422 184.012 45.6181 179.721 45.2576 175.139C45.022 172.944 45.2347 170.724 45.8827 168.614C46.5308 166.503 47.6007 164.546 49.0277 162.862L50.3223 161.553C51.6203 160.352 52.7929 159.022 53.8221 157.584C54.6911 159.244 55.4009 160.982 55.9418 162.776C57.4783 167.855 57.1084 172.123 54.8322 175.481C52.4105 178.92 51.0592 182.999 50.9483 187.204Z" fill="#95841F"/>
<path d="M64.7909 86.9197L64.0084 87.2753C61.1152 88.727 58.8132 91.1346 57.4926 94.0899C60.245 93.1782 63.1888 93.0065 66.0286 93.592L64.7909 86.9197Z" fill="#95841F"/>
<path d="M178.078 89.765C177.456 88.36 176.599 87.0708 175.546 85.9522L173.028 99.6668C173.984 101.242 175.152 102.678 176.499 103.935C176.892 102.783 177.367 101.661 177.922 100.577C178.14 100.151 178.339 99.7237 178.519 99.2969C179.094 97.7609 179.352 96.1241 179.276 94.4857C179.2 92.8473 178.793 91.2413 178.078 89.765Z" fill="#95841F"/>
<path d="M66.8253 97.9311C65.8863 97.8315 64.9331 97.6466 63.9799 97.4617L62.5573 97.1771C62.0497 97.0909 61.5356 97.0481 61.0208 97.0491C58.0041 97.1601 55.1065 98.2543 52.7693 100.165C50.0174 102.35 48.1194 105.431 47.4058 108.871C50.2039 107.204 53.4104 106.347 56.6674 106.396H56.7528C61.6752 106.396 65.175 102.37 67.0671 99.3965L66.8253 97.9311Z" fill="#95841F"/>
<path d="M133.051 45.9894C136.349 35.7433 138.449 25.1497 139.31 14.4204L129.992 13.268C130.346 23.3616 129.611 33.4639 127.801 43.4002C126.75 49.4251 125.325 55.3786 123.533 61.2262C124.799 61.2262 126.051 61.2262 127.275 61.34C129.479 56.3325 131.407 51.2079 133.051 45.9894Z" fill="#95841F"/>
<path d="M112.365 43.4428C110.559 33.4917 109.824 23.3757 110.174 13.268L100.841 14.3777C101.725 25.1226 103.845 35.7299 107.158 45.9894C108.81 51.2133 110.748 56.3426 112.962 61.3543C114.186 61.3543 115.438 61.2689 116.704 61.2405C114.896 55.4019 113.447 49.4583 112.365 43.4428Z" fill="#95841F"/>
<path d="M70.4673 52.1211C70.151 50.8614 70.0875 49.5515 70.2804 48.267C70.4733 46.9826 70.9188 45.7491 71.5912 44.6379C72.8558 42.6254 74.8616 41.1913 77.1749 40.6456C79.4883 40.0998 81.9235 40.4863 83.9542 41.7214C85.7895 42.8596 87.7101 45.4204 90.1713 48.6783C93.677 53.5215 97.5944 58.0529 101.88 62.2221C103.658 62.0372 105.493 61.8807 107.386 61.7384C101.994 55.6494 98.5081 48.6071 95.5205 44.6663C92.5329 40.7256 90.3705 37.7664 87.454 36.0307C83.9153 33.8678 79.6657 33.1894 75.6295 34.1432C71.5932 35.097 68.0968 37.6058 65.9005 41.1239C64.7326 43.0181 63.9681 45.1329 63.6547 47.336C63.3414 49.5391 63.486 51.7832 64.0795 53.9279C64.5784 55.8355 65.4683 57.6186 66.6929 59.1639C67.9174 60.7093 69.4498 61.9833 71.1929 62.905C74.6128 64.495 78.2984 65.4357 82.0621 65.6792C87.5452 64.2961 93.1091 63.2556 98.7215 62.5635C85.8179 62.2506 72.331 59.5902 70.4673 52.1211Z" fill="#95841F"/>
<path d="M150.009 48.6356C152.456 45.3777 154.376 42.8169 156.212 41.6787C158.252 40.4296 160.705 40.0396 163.033 40.5942C165.36 41.1487 167.373 42.6027 168.632 44.6379C169.304 45.7491 169.749 46.9826 169.942 48.267C170.135 49.5515 170.072 50.8614 169.755 52.1211C167.892 59.5902 154.391 62.2506 141.487 62.5493C147.104 63.2402 152.673 64.2807 158.161 65.665C161.924 65.4214 165.61 64.4807 169.03 62.8908C170.773 61.9691 172.305 60.6951 173.53 59.1497C174.754 57.6043 175.644 55.8213 176.143 53.9137C176.737 51.769 176.881 49.5249 176.568 47.3218C176.255 45.1186 175.49 43.0039 174.322 41.1097C172.123 37.5704 168.61 35.048 164.553 34.0959C160.496 33.1437 156.228 33.8396 152.683 36.0307C149.838 37.8233 147.505 40.8394 144.617 44.6521C141.729 48.4649 138.172 55.6067 132.766 61.6388C134.658 61.7811 136.493 61.9376 138.272 62.1225C142.563 57.9711 146.49 53.4589 150.009 48.6356Z" fill="#95841F"/>
<path d="M69.258 74.2294C68.1272 74.6826 67.1814 75.5027 66.5725 76.5579C65.9636 77.6131 65.727 78.8423 65.9005 80.0482L75.6885 133.085C79.4409 130.663 83.6818 129.099 88.1084 128.504C91.5963 127.865 95.1974 128.363 98.3801 129.927C99.2794 130.369 100.029 131.067 100.535 131.932C101.041 132.797 101.281 133.792 101.225 134.793C101.225 137.382 98.4939 139.388 95.1079 139.388C91.722 139.388 89.0047 137.339 89.0047 134.721C89.0073 134.32 89.0745 133.921 89.2039 133.541C87.253 133.625 85.3297 134.033 83.5132 134.75L84.1961 134.878C85.0264 135.061 85.8124 135.406 86.5083 135.894C87.2043 136.383 87.7965 137.004 88.2507 137.723C88.5598 138.219 88.7569 138.776 88.8281 139.356C88.8994 139.936 88.8431 140.525 88.6632 141.081C88.208 143.257 85.633 144.595 82.7734 144.097C81.7725 143.987 80.8232 143.596 80.0352 142.969C79.2472 142.342 78.6527 141.505 78.3204 140.554C77.9301 140.716 77.55 140.901 77.1823 141.109L78.0928 146.074C81.4586 144.692 85.1808 144.432 88.7059 145.335C91.409 146.06 93.23 147.383 93.8418 149.09C94.06 149.666 94.1238 150.289 94.0267 150.897C93.9027 151.503 93.6314 152.069 93.2369 152.546C92.8425 153.022 92.3368 153.394 91.7647 153.629C90.6145 154.129 89.341 154.272 88.1084 154.041C87.0729 153.939 86.0918 153.529 85.2907 152.865C84.4897 152.201 83.9054 151.312 83.6128 150.314C82.0373 150.728 80.5775 151.497 79.3448 152.562L84.9216 182.793C89.271 187.96 94.1542 192.652 99.4898 196.793C101.874 193.563 104.976 190.932 108.551 189.108C112.126 187.283 116.076 186.315 120.09 186.279V65.2524C92.7605 65.352 75.9446 71.2845 69.258 74.2294Z" fill="#B51F1F"/>
<path d="M140.676 196.793C146.012 192.648 150.896 187.951 155.244 182.779L160.835 152.547C159.599 151.488 158.14 150.72 156.567 150.3C156.28 151.319 155.692 152.229 154.88 152.909C154.068 153.59 153.069 154.009 152.015 154.112C150.782 154.342 149.509 154.199 148.358 153.7C147.788 153.463 147.283 153.09 146.889 152.614C146.495 152.138 146.223 151.573 146.096 150.968C145.997 150.339 146.07 149.695 146.31 149.105C146.907 147.44 148.714 146.131 151.417 145.406C154.942 144.496 158.666 144.756 162.03 146.145L162.941 141.166C162.579 140.956 162.204 140.77 161.817 140.611C161.479 141.561 160.881 142.397 160.091 143.023C159.302 143.65 158.352 144.041 157.35 144.154C154.504 144.652 151.915 143.329 151.46 141.138C151.29 140.593 151.237 140.02 151.303 139.454C151.369 138.888 151.553 138.342 151.844 137.851C152.765 136.403 154.223 135.379 155.899 135.006L156.582 134.878C154.792 134.171 152.898 133.762 150.976 133.669C151.101 134.05 151.163 134.448 151.161 134.849C151.161 137.467 148.487 139.516 145.058 139.516C141.629 139.516 138.997 137.51 138.955 134.921C138.897 133.92 139.137 132.924 139.643 132.058C140.149 131.193 140.899 130.496 141.8 130.055C144.983 128.491 148.584 127.993 152.072 128.632C156.48 129.239 160.7 130.808 164.435 133.228L174.223 80.1904C174.399 78.9933 174.171 77.7717 173.576 76.7181C172.981 75.6646 172.052 74.839 170.936 74.3717C164.235 71.4268 147.42 65.4942 120.104 65.3947V186.435C124.1 186.457 128.036 187.404 131.605 189.201C135.174 190.998 138.279 193.596 140.676 196.793Z" fill="#005531"/>
<path d="M89.4173 168.723H89.7445C89.7585 168.708 89.7662 168.687 89.7662 168.666C89.7662 168.645 89.7585 168.625 89.7445 168.609C89.7445 168.609 89.7445 168.481 89.6165 168.368C89.4884 168.254 89.4884 168.14 89.3888 167.998L89.0758 167.528L88.7486 167.03L88.4783 166.632L88.3076 166.404L87.326 167.286V168.567C87.3117 168.603 87.3117 168.644 87.326 168.681C87.4531 168.702 87.5829 168.702 87.7101 168.681H85.4196C85.5467 168.702 85.6766 168.702 85.8037 168.681C85.818 168.644 85.818 168.603 85.8037 168.567V163.73C85.818 163.693 85.818 163.652 85.8037 163.616C85.6762 163.6 85.5471 163.6 85.4196 163.616H87.7954C87.6679 163.6 87.5389 163.6 87.4113 163.616C87.397 163.652 87.397 163.693 87.4113 163.73V165.608L88.0658 164.996L88.706 164.427L89.1897 163.957C89.2888 163.871 89.3793 163.776 89.46 163.673C89.46 163.673 89.46 163.587 89.46 163.573H89.1043H92.035H91.722H91.6082L91.4802 163.659L91.2525 163.858L89.4884 165.494L91.594 168.638C91.594 168.723 91.6936 168.766 91.7505 168.78H92.0635H89.4173V168.723Z" fill="white"/>
<path d="M94.8803 163.346C95.2943 163.343 95.7064 163.4 96.1038 163.516C96.4678 163.63 96.806 163.814 97.0997 164.057C97.3955 164.285 97.6301 164.583 97.7825 164.925C97.9511 165.306 98.0382 165.717 98.0382 166.134C98.0382 166.55 97.9511 166.962 97.7825 167.343C97.6262 167.682 97.3923 167.979 97.0997 168.211C96.8081 168.451 96.4685 168.625 96.1038 168.723C95.7064 168.839 95.2943 168.897 94.8803 168.894C94.471 168.897 94.0635 168.84 93.671 168.723C93.3013 168.626 92.9577 168.448 92.665 168.202C92.3723 167.956 92.1377 167.648 91.9781 167.301C91.8095 166.92 91.7224 166.508 91.7224 166.091C91.7224 165.675 91.8095 165.263 91.9781 164.882C92.1402 164.547 92.3732 164.251 92.6609 164.014C92.9598 163.771 93.3027 163.587 93.671 163.474C94.0656 163.372 94.4731 163.328 94.8803 163.346ZM94.8803 164.612C94.6675 164.609 94.4558 164.643 94.2543 164.711C94.0628 164.78 93.8847 164.881 93.7279 165.01C93.5746 165.14 93.4488 165.3 93.358 165.48C93.2705 165.686 93.2269 165.909 93.23 166.134C93.2254 166.354 93.2691 166.573 93.358 166.774C93.445 166.96 93.5712 167.125 93.7279 167.258C93.8847 167.387 94.0628 167.488 94.2543 167.557C94.4558 167.625 94.6675 167.659 94.8803 167.656C95.0978 167.66 95.3144 167.626 95.5205 167.557C95.712 167.488 95.8901 167.387 96.0469 167.258C96.1985 167.124 96.3198 166.959 96.4026 166.774C96.503 166.576 96.5519 166.356 96.5448 166.134C96.5502 165.908 96.5014 165.683 96.4026 165.48C96.318 165.3 96.1969 165.14 96.0469 165.01C95.8901 164.881 95.712 164.78 95.5205 164.711C95.3144 164.642 95.0978 164.608 94.8803 164.612Z" fill="white"/>
<path d="M110.715 168.553C110.7 168.589 110.7 168.63 110.715 168.666C110.842 168.688 110.972 168.688 111.099 168.666H108.766C108.893 168.688 109.023 168.688 109.15 168.666C109.164 168.63 109.164 168.589 109.15 168.553V166.618H106.56V168.553C106.546 168.589 106.546 168.63 106.56 168.666C106.688 168.688 106.817 168.688 106.945 168.666H104.611C104.739 168.688 104.868 168.688 104.996 168.666C105.01 168.63 105.01 168.589 104.996 168.553V163.715C105.01 163.679 105.01 163.638 104.996 163.602C104.868 163.586 104.739 163.586 104.611 163.602H106.987C106.86 163.586 106.731 163.586 106.603 163.602C106.589 163.638 106.589 163.679 106.603 163.715V165.38H109.235V163.715C109.249 163.679 109.249 163.638 109.235 163.602C109.108 163.586 108.978 163.586 108.851 163.602H111.141C111.014 163.586 110.885 163.586 110.757 163.602C110.743 163.638 110.743 163.679 110.757 163.715L110.715 168.553Z" fill="white"/>
<path d="M111.995 168.723C112.122 168.745 112.252 168.745 112.379 168.723C112.393 168.687 112.393 168.646 112.379 168.609V163.772C112.393 163.736 112.393 163.695 112.379 163.659C112.252 163.642 112.123 163.642 111.995 163.659H114.371C114.243 163.642 114.114 163.642 113.987 163.659C113.973 163.695 113.973 163.736 113.987 163.772V168.609C113.973 168.646 113.973 168.687 113.987 168.723C114.114 168.745 114.244 168.745 114.371 168.723H111.995Z" fill="white"/>
<path d="M121.612 163.715C121.627 163.679 121.627 163.638 121.612 163.602C121.485 163.586 121.356 163.586 121.228 163.602H123.604C123.477 163.586 123.347 163.586 123.22 163.602C123.206 163.638 123.206 163.679 123.22 163.715V166.561C123.23 166.946 123.157 167.33 123.007 167.685C122.873 167.974 122.667 168.223 122.409 168.41C122.141 168.6 121.835 168.731 121.513 168.794C121.156 168.858 120.794 168.891 120.432 168.894C120.064 168.891 119.698 168.858 119.336 168.794C119.018 168.731 118.717 168.6 118.454 168.41C118.196 168.223 117.99 167.974 117.856 167.685C117.7 167.331 117.623 166.947 117.629 166.561V163.715C117.643 163.679 117.643 163.638 117.629 163.602C117.501 163.586 117.372 163.586 117.245 163.602H119.621C119.493 163.587 119.364 163.587 119.236 163.602C119.222 163.638 119.222 163.679 119.236 163.715V166.561C119.222 166.718 119.245 166.876 119.305 167.022C119.364 167.168 119.458 167.298 119.578 167.4C119.853 167.588 120.185 167.674 120.517 167.642C120.848 167.665 121.177 167.58 121.456 167.4C121.571 167.294 121.66 167.164 121.717 167.018C121.773 166.873 121.796 166.716 121.783 166.561L121.612 163.715Z" fill="white"/>
<path d="M124.429 163.715C124.443 163.679 124.443 163.638 124.429 163.602C124.302 163.586 124.173 163.586 124.045 163.602H126.748H126.364C126.364 163.602 126.364 163.602 126.364 163.687C126.411 163.774 126.469 163.855 126.535 163.929L126.876 164.341L127.36 164.882L127.9 165.48L128.427 166.049L128.854 166.504V163.744C128.854 163.63 128.64 163.573 128.498 163.559H130.646C130.519 163.543 130.39 163.543 130.262 163.559C130.248 163.596 130.248 163.636 130.262 163.673V168.51C130.248 168.546 130.248 168.587 130.262 168.624C130.389 168.645 130.519 168.645 130.646 168.624H128.398C128.497 168.641 128.598 168.641 128.697 168.624C128.703 168.596 128.703 168.566 128.697 168.538L128.498 168.339L128.199 168.026L127.687 167.471L126.89 166.603L125.752 165.323V168.567C125.738 168.603 125.738 168.644 125.752 168.681C125.879 168.702 126.009 168.702 126.136 168.681H124.002C124.13 168.702 124.259 168.702 124.387 168.681C124.401 168.644 124.401 168.603 124.387 168.567L124.429 163.715Z" fill="white"/>
<path d="M141.003 163.047C141.016 163.17 141.016 163.294 141.003 163.417C140.962 163.432 140.917 163.432 140.875 163.417H135.754C135.717 163.43 135.677 163.43 135.64 163.417C135.627 163.294 135.627 163.17 135.64 163.047V165.138C135.626 165.01 135.626 164.882 135.64 164.754C135.676 164.74 135.717 164.74 135.754 164.754H137.56V167.599H134.715C134.382 167.627 134.049 167.536 133.776 167.343C133.656 167.241 133.562 167.111 133.503 166.965C133.443 166.819 133.42 166.661 133.435 166.504V163.758C133.42 163.722 133.42 163.681 133.435 163.644C133.562 163.63 133.691 163.63 133.819 163.644H131.457C131.585 163.628 131.714 163.628 131.841 163.644C131.856 163.681 131.856 163.722 131.841 163.758V166.504C131.828 166.891 131.906 167.276 132.069 167.628C132.232 167.924 132.473 168.17 132.766 168.339C133.027 168.532 133.329 168.663 133.648 168.723C134.01 168.787 134.376 168.82 134.744 168.823H139.453C139.326 168.846 139.195 168.846 139.068 168.823C139.054 168.786 139.054 168.746 139.068 168.709V164.868H140.861C140.902 164.851 140.948 164.851 140.989 164.868C141.002 164.995 141.002 165.124 140.989 165.252V163.161L141.003 163.047Z" fill="white"/>
<path d="M145.741 166.988C145.727 166.884 145.699 166.784 145.655 166.689C145.582 166.662 145.501 166.662 145.428 166.689H143.493V167.628H146.794C146.813 167.638 146.835 167.643 146.858 167.643C146.88 167.643 146.902 167.638 146.922 167.628C146.936 167.5 146.936 167.371 146.922 167.244H146.993V169.264C147.006 169.16 147.006 169.055 146.993 168.951H146.865H141.544C141.671 168.972 141.801 168.972 141.928 168.951C141.942 168.914 141.942 168.874 141.928 168.837V164C141.942 163.963 141.942 163.923 141.928 163.886C141.801 163.87 141.671 163.87 141.544 163.886H146.794C146.835 163.901 146.88 163.901 146.922 163.886C146.934 163.763 146.934 163.639 146.922 163.516H146.993V165.565C147.006 165.442 147.006 165.318 146.993 165.195C146.973 165.185 146.951 165.18 146.929 165.18C146.906 165.18 146.885 165.185 146.865 165.195H143.493V165.494H145.428C145.51 165.5 145.591 165.474 145.655 165.423C145.701 165.324 145.729 165.218 145.741 165.11V166.973V166.988Z" fill="white"/>
<path d="M148.06 163.715C148.074 163.679 148.074 163.638 148.06 163.602C147.932 163.586 147.803 163.586 147.676 163.602H151.19C151.602 163.589 152.013 163.656 152.399 163.801C152.72 163.923 153.011 164.112 153.252 164.356C153.478 164.601 153.647 164.892 153.75 165.209C153.867 165.548 153.925 165.904 153.921 166.262C153.923 166.603 153.86 166.941 153.736 167.258C153.62 167.575 153.441 167.865 153.21 168.111C152.954 168.365 152.649 168.563 152.314 168.695C151.921 168.856 151.5 168.934 151.076 168.922H147.633C147.76 168.944 147.89 168.944 148.017 168.922C148.031 168.886 148.031 168.845 148.017 168.809L148.06 163.715ZM150.905 167.599C151.118 167.623 151.334 167.598 151.536 167.526C151.738 167.455 151.921 167.339 152.072 167.187C152.313 166.89 152.439 166.516 152.427 166.134C152.439 165.747 152.313 165.369 152.072 165.067C151.92 164.917 151.736 164.804 151.534 164.735C151.332 164.666 151.117 164.643 150.905 164.669H149.625V167.599H150.905Z" fill="white"/>
<path d="M101.61 168.794C101.197 168.794 100.786 168.742 100.386 168.638C100.023 168.535 99.685 168.361 99.3902 168.126C99.1038 167.905 98.8704 167.623 98.7073 167.301C98.5296 166.938 98.4418 166.538 98.4512 166.134C98.4418 165.748 98.5299 165.367 98.7073 165.024C98.8697 164.693 99.1028 164.402 99.3902 164.171C99.6838 163.931 100.022 163.752 100.386 163.644C100.783 163.528 101.196 163.471 101.61 163.474H103.587C103.624 163.487 103.664 163.487 103.701 163.474C103.713 163.351 103.713 163.227 103.701 163.104V165.195C103.714 165.067 103.714 164.939 103.701 164.811C103.664 164.797 103.624 164.797 103.587 164.811H101.61C101.392 164.808 101.176 164.842 100.969 164.91C100.781 164.969 100.606 165.066 100.457 165.195C100.298 165.261 100.157 165.363 100.045 165.494C99.9508 165.694 99.9023 165.913 99.9024 166.134C99.9039 166.35 99.9524 166.564 100.045 166.76C100.131 166.934 100.258 167.085 100.415 167.201C100.567 167.326 100.74 167.422 100.927 167.485C101.133 167.554 101.349 167.588 101.567 167.585H103.544C103.562 167.594 103.582 167.598 103.601 167.598C103.621 167.598 103.641 167.594 103.658 167.585C103.673 167.457 103.673 167.329 103.658 167.201V169.193C103.671 169.089 103.671 168.984 103.658 168.88H103.544L101.61 168.794Z" fill="white"/>
<path d="M135.483 171.184C135.483 171.184 135.483 171.184 135.483 171.099H135.227H136.835H136.565C136.554 171.126 136.554 171.157 136.565 171.184V173.048C136.575 173.307 136.527 173.565 136.422 173.802C136.334 173.999 136.197 174.171 136.024 174.3C135.837 174.422 135.63 174.508 135.412 174.556C135.171 174.579 134.928 174.579 134.687 174.556C134.441 174.579 134.193 174.579 133.947 174.556C133.734 174.506 133.532 174.419 133.349 174.3C133.176 174.171 133.039 173.999 132.951 173.802C132.842 173.566 132.788 173.308 132.795 173.048V171.184C132.795 171.184 132.795 171.184 132.795 171.099H132.538H134.146H133.89C133.882 171.112 133.879 171.127 133.879 171.142C133.879 171.157 133.882 171.171 133.89 171.184V173.048C133.883 173.154 133.9 173.26 133.939 173.358C133.979 173.457 134.04 173.545 134.118 173.617C134.312 173.73 134.533 173.789 134.758 173.789C134.983 173.789 135.203 173.73 135.398 173.617C135.474 173.545 135.533 173.456 135.57 173.357C135.607 173.259 135.621 173.153 135.611 173.048L135.483 171.184Z" fill="white"/>
<path d="M99.8881 174.585H98.4654H98.3801C98.3757 174.651 98.3757 174.717 98.3801 174.784V173.489C98.3801 173.575 98.3801 173.731 98.3801 173.759H98.4654H99.8881C100.149 173.779 100.412 173.74 100.656 173.646C100.813 173.646 100.87 173.518 100.87 173.361C100.861 173.308 100.836 173.258 100.798 173.22C100.759 173.181 100.71 173.156 100.656 173.148C100.489 173.1 100.318 173.071 100.144 173.062H99.4613C99.2354 173.038 99.0118 172.995 98.7926 172.934C98.5978 172.874 98.4183 172.772 98.2663 172.636C98.1945 172.572 98.1381 172.492 98.1012 172.404C98.0642 172.315 98.0477 172.219 98.0529 172.123C98.0566 171.963 98.0986 171.806 98.1753 171.665C98.252 171.524 98.3612 171.403 98.4939 171.312C98.6483 171.201 98.8219 171.119 99.006 171.071C99.2565 171.04 99.5096 171.04 99.7601 171.071H101.183C101.196 171.077 101.211 171.08 101.225 171.08C101.24 171.08 101.255 171.077 101.268 171.071C101.273 170.99 101.273 170.909 101.268 170.829V172.081C101.273 172 101.273 171.919 101.268 171.839C101.255 171.833 101.24 171.829 101.225 171.829C101.211 171.829 101.196 171.833 101.183 171.839H99.7601C99.5524 171.824 99.3441 171.853 99.1483 171.924C99.0345 171.924 99.006 172.038 99.006 172.123C99.0077 172.16 99.0192 172.194 99.0393 172.225C99.0593 172.255 99.0872 172.279 99.1199 172.294C99.2233 172.341 99.3339 172.37 99.4471 172.379H99.9023H100.414C100.592 172.394 100.768 172.423 100.941 172.465C101.097 172.503 101.246 172.565 101.382 172.65C101.511 172.731 101.622 172.838 101.709 172.963C101.787 173.112 101.826 173.278 101.823 173.446C101.823 173.593 101.794 173.738 101.738 173.873C101.663 174.027 101.557 174.163 101.425 174.272C101.242 174.395 101.04 174.486 100.827 174.542C100.517 174.598 100.202 174.613 99.8881 174.585Z" fill="white"/>
<path d="M120.929 174.585H119.507H119.421C119.411 174.651 119.411 174.718 119.421 174.784V173.489C119.411 173.579 119.411 173.67 119.421 173.759H119.507H120.929C121.191 173.78 121.453 173.741 121.698 173.646C121.854 173.646 121.911 173.518 121.911 173.361C121.904 173.309 121.88 173.261 121.845 173.223C121.809 173.185 121.763 173.159 121.712 173.148C121.54 173.1 121.364 173.071 121.185 173.062H120.517C120.286 173.036 120.058 172.993 119.834 172.934C119.639 172.874 119.46 172.772 119.308 172.636C119.24 172.569 119.187 172.489 119.153 172.401C119.119 172.313 119.103 172.218 119.108 172.123C119.109 171.96 119.148 171.799 119.222 171.654C119.299 171.518 119.406 171.401 119.535 171.312C119.691 171.204 119.864 171.122 120.047 171.071C120.298 171.041 120.551 171.041 120.801 171.071H122.224C122.237 171.078 122.252 171.082 122.267 171.082C122.282 171.082 122.296 171.078 122.309 171.071C122.314 170.99 122.314 170.909 122.309 170.829V172.081C122.314 172 122.314 171.919 122.309 171.839C122.296 171.831 122.282 171.827 122.267 171.827C122.252 171.827 122.237 171.831 122.224 171.839H120.801C120.594 171.824 120.385 171.853 120.19 171.924C120.076 171.924 120.047 172.038 120.047 172.123C120.05 172.161 120.064 172.197 120.087 172.227C120.109 172.258 120.14 172.281 120.175 172.294C120.273 172.343 120.379 172.372 120.488 172.379H120.944H121.456C121.633 172.393 121.809 172.421 121.982 172.465C122.138 172.503 122.287 172.565 122.423 172.65C122.552 172.731 122.663 172.838 122.75 172.963C122.835 173.109 122.874 173.278 122.864 173.446C122.865 173.593 122.836 173.738 122.779 173.873C122.71 174.03 122.602 174.167 122.466 174.272C122.284 174.395 122.081 174.486 121.868 174.542C121.559 174.598 121.243 174.613 120.929 174.585Z" fill="white"/>
<path d="M103.359 174.428C103.444 174.447 103.531 174.447 103.616 174.428H102.051C102.136 174.428 102.292 174.428 102.307 174.428V171.184C102.318 171.157 102.318 171.126 102.307 171.099H102.051H104.597C104.786 171.095 104.973 171.124 105.152 171.184C105.303 171.246 105.443 171.332 105.565 171.441C105.678 171.539 105.762 171.667 105.806 171.81C105.865 171.945 105.894 172.091 105.892 172.237C105.893 172.388 105.864 172.538 105.806 172.678C105.758 172.816 105.675 172.938 105.565 173.034C105.445 173.142 105.305 173.224 105.152 173.276C104.976 173.348 104.787 173.382 104.597 173.375H103.359V174.428ZM104.398 172.55C104.547 172.564 104.697 172.529 104.825 172.451C104.87 172.413 104.906 172.365 104.928 172.31C104.951 172.256 104.959 172.196 104.953 172.138C104.957 172.083 104.947 172.029 104.925 171.979C104.903 171.929 104.868 171.886 104.825 171.853C104.693 171.788 104.545 171.758 104.398 171.768H103.359V172.607L104.398 172.55Z" fill="white"/>
<path d="M108.268 170.914C108.546 170.916 108.824 170.954 109.093 171.028C109.336 171.111 109.562 171.236 109.761 171.398C109.955 171.556 110.111 171.755 110.217 171.981C110.33 172.237 110.388 172.513 110.388 172.792C110.388 173.071 110.33 173.348 110.217 173.603C110.111 173.833 109.955 174.037 109.761 174.2C109.564 174.358 109.337 174.475 109.093 174.542C108.824 174.616 108.546 174.654 108.268 174.656C107.989 174.656 107.711 174.618 107.443 174.542C107.194 174.475 106.962 174.359 106.76 174.2C106.57 174.033 106.415 173.83 106.304 173.603C106.191 173.348 106.133 173.071 106.133 172.792C106.133 172.513 106.191 172.237 106.304 171.981C106.415 171.758 106.57 171.56 106.76 171.398C106.964 171.236 107.195 171.111 107.443 171.028C107.711 170.952 107.989 170.914 108.268 170.914ZM108.268 171.768C108.127 171.738 107.982 171.738 107.841 171.768C107.709 171.808 107.588 171.876 107.485 171.967C107.382 172.055 107.295 172.161 107.229 172.28C107.171 172.42 107.142 172.57 107.144 172.721C107.141 172.872 107.17 173.023 107.229 173.162C107.298 173.283 107.384 173.393 107.485 173.489C107.592 173.575 107.712 173.642 107.841 173.688C107.982 173.711 108.126 173.711 108.268 173.688C108.409 173.71 108.553 173.71 108.694 173.688C108.82 173.636 108.94 173.569 109.05 173.489C109.151 173.396 109.233 173.285 109.292 173.162C109.351 173.023 109.381 172.872 109.377 172.721C109.379 172.57 109.35 172.42 109.292 172.28C109.236 172.159 109.153 172.052 109.05 171.967C108.943 171.882 108.823 171.814 108.694 171.768C108.553 171.74 108.409 171.74 108.268 171.768Z" fill="white"/>
<path d="M111.938 174.428C111.938 174.428 112.109 174.428 112.194 174.428H110.629C110.714 174.447 110.801 174.447 110.885 174.428V171.184C110.896 171.157 110.896 171.126 110.885 171.099H110.629H113.219C113.604 171.066 113.989 171.161 114.314 171.369C114.434 171.478 114.527 171.613 114.586 171.763C114.645 171.914 114.669 172.076 114.655 172.237C114.665 172.37 114.645 172.504 114.599 172.629C114.552 172.754 114.479 172.868 114.385 172.963C114.194 173.155 113.952 173.288 113.688 173.347L114.513 174.528C114.596 174.601 114.702 174.641 114.812 174.642H113.176C113.261 174.642 113.475 174.642 113.446 174.528V174.428L113.275 174.186L113.105 173.944L112.906 173.688L112.749 173.461L112.664 173.333H111.995L111.938 174.428ZM113.076 172.508C113.149 172.518 113.224 172.514 113.295 172.494C113.366 172.475 113.432 172.44 113.489 172.394C113.525 172.362 113.554 172.322 113.574 172.278C113.594 172.234 113.604 172.186 113.604 172.138C113.604 172.089 113.594 172.041 113.574 171.997C113.554 171.953 113.525 171.914 113.489 171.882C113.432 171.835 113.366 171.8 113.295 171.781C113.224 171.761 113.149 171.757 113.076 171.768H111.938V172.508H113.076Z" fill="white"/>
<path d="M116.107 174.542C116.192 174.542 116.348 174.542 116.363 174.542V171.938H115.153C115.14 171.932 115.125 171.929 115.111 171.929C115.096 171.929 115.081 171.932 115.068 171.938C115.063 172.024 115.063 172.109 115.068 172.195V170.772C115.063 170.852 115.063 170.933 115.068 171.014C115.081 171.02 115.096 171.023 115.111 171.023C115.125 171.023 115.14 171.02 115.153 171.014H118.596C118.609 171.021 118.624 171.025 118.639 171.025C118.654 171.025 118.669 171.021 118.682 171.014C118.682 171.014 118.682 170.843 118.682 170.772V172.195C118.682 172.109 118.682 171.967 118.682 171.938C118.669 171.931 118.654 171.927 118.639 171.927C118.624 171.927 118.609 171.931 118.596 171.938H117.387V174.542C117.471 174.56 117.559 174.56 117.643 174.542H116.107Z" fill="white"/>
<path d="M126.577 174.585C126.304 174.588 126.031 174.555 125.766 174.485C125.518 174.418 125.286 174.302 125.084 174.144C124.895 173.992 124.74 173.803 124.628 173.589C124.511 173.34 124.452 173.067 124.458 172.792C124.452 172.531 124.51 172.272 124.628 172.038C124.74 171.819 124.894 171.625 125.084 171.469C125.289 171.312 125.52 171.191 125.766 171.113C126.03 171.039 126.303 171 126.577 170.999H127.915H128C128.011 170.919 128.011 170.838 128 170.758V172.18C128.01 172.095 128.01 172.009 128 171.924C127.972 171.914 127.942 171.914 127.915 171.924H126.577C126.441 171.903 126.301 171.903 126.165 171.924C126.033 171.965 125.912 172.033 125.809 172.123C125.703 172.192 125.615 172.284 125.553 172.394C125.497 172.529 125.468 172.674 125.468 172.821C125.468 172.967 125.497 173.112 125.553 173.247C125.614 173.365 125.702 173.467 125.809 173.546C125.913 173.633 126.034 173.696 126.165 173.731C126.301 173.759 126.441 173.759 126.577 173.731H127.915H128C128.01 173.641 128.01 173.551 128 173.461V174.798C128.01 174.732 128.01 174.665 128 174.599H127.915L126.577 174.585Z" fill="white"/>
<path d="M132.297 173.759C132.314 173.68 132.314 173.597 132.297 173.518V174.94C132.297 174.94 132.297 174.727 132.297 174.713H128.598C128.682 174.731 128.769 174.731 128.854 174.713V171.184C128.865 171.157 128.865 171.126 128.854 171.099H128.598H130.191H129.935C129.935 171.099 129.935 171.099 129.935 171.184V173.774L132.297 173.759Z" fill="white"/>
<path d="M137.361 171.184C137.372 171.157 137.372 171.126 137.361 171.099H137.105H139.794C139.964 171.075 140.136 171.075 140.306 171.099C140.455 171.124 140.596 171.182 140.719 171.27C140.829 171.339 140.918 171.437 140.975 171.554C141.046 171.69 141.08 171.842 141.074 171.995C141.08 172.085 141.066 172.174 141.034 172.257C141.002 172.341 140.953 172.416 140.889 172.479C140.765 172.613 140.6 172.703 140.42 172.735C140.633 172.782 140.83 172.885 140.989 173.034C141.066 173.106 141.127 173.195 141.166 173.293C141.205 173.392 141.223 173.497 141.217 173.603C141.217 173.74 141.188 173.876 141.131 174.001C141.076 174.123 140.994 174.23 140.889 174.314C140.764 174.418 140.619 174.495 140.463 174.542C140.255 174.566 140.045 174.566 139.837 174.542H137.034C137.119 174.542 137.276 174.542 137.29 174.542L137.361 171.184ZM139.31 172.365H139.68C139.75 172.383 139.824 172.383 139.894 172.365C139.947 172.349 139.993 172.313 140.022 172.266C140.031 172.214 140.031 172.161 140.022 172.109C140.031 172.053 140.031 171.995 140.022 171.938C139.991 171.895 139.945 171.865 139.894 171.853C139.824 171.836 139.75 171.836 139.68 171.853H138.457V172.479L139.31 172.365ZM139.552 173.873C139.727 173.886 139.903 173.856 140.064 173.788C140.116 173.755 140.158 173.708 140.186 173.653C140.213 173.598 140.225 173.536 140.221 173.475C140.225 173.412 140.213 173.348 140.185 173.291C140.158 173.234 140.116 173.184 140.064 173.148C139.903 173.079 139.727 173.05 139.552 173.062H138.457V173.873H139.552Z" fill="white"/>
<path d="M132.652 163.061C132.85 162.692 133.152 162.391 133.52 162.193C133.152 161.996 132.85 161.694 132.652 161.325C132.45 161.69 132.15 161.991 131.784 162.193C132.15 162.395 132.45 162.696 132.652 163.061Z" fill="white"/>
<path d="M101.937 111.631C102.876 112.528 103.758 113.509 104.441 114.235C105.124 114.961 105.465 115.416 105.863 115.771C103.072 116.281 100.414 117.356 98.0529 118.93C98.8594 116.267 100.179 113.788 101.937 111.631Z" fill="white"/>
<path d="M140.747 128.163C141.204 127.887 141.679 127.645 142.17 127.437C141.28 126.631 140.213 126.046 139.054 125.73C139.563 124.461 139.806 123.1 139.766 121.732C139.775 121.537 139.834 121.348 139.936 121.181C140.038 121.015 140.18 120.877 140.349 120.779C140.479 116.141 139.942 111.508 138.755 107.022C137.388 106.717 135.969 106.717 134.601 107.022C138.869 104.547 146.153 104.362 146.153 104.362C144.731 103.508 134.345 100.321 121.712 102.583C126.512 100.954 131.612 100.401 136.65 100.961C136.357 100.371 136.128 99.7511 135.967 99.112C135.938 98.618 136.047 98.1257 136.28 97.6893C136.556 97.1779 136.89 96.7005 137.276 96.2666C139.289 94.3887 141.614 92.8769 144.147 91.7994C138.235 89.6386 131.724 89.7961 125.923 92.2405C125.923 92.2405 115.31 80.475 92.0634 81.5562C92.8853 84.8635 93.2727 88.2639 93.2158 91.6714C94.1587 91.5393 95.1091 91.468 96.0611 91.458C96.0611 91.458 96.7298 87.7875 92.8886 82.1537C94.2674 83.1862 95.3829 84.5297 96.1443 86.0748C96.9058 87.6199 97.2916 89.323 97.2704 91.0454C97.2704 92.7384 96.6729 93.9761 97.8252 94.2037C98.9776 94.4314 99.4755 94.1184 99.4755 94.1184C99.3005 94.4941 99.0103 94.8043 98.647 95.0038C98.2838 95.2034 97.8663 95.2819 97.4553 95.2281C95.1791 94.9435 96.0327 92.4681 96.0327 92.4681C94.4251 92.1266 90.7261 93.6916 85.9602 92.2262C84.9074 91.9132 84.3668 94.1184 85.9602 94.9435C86.4296 95.1712 91.1102 96.8926 92.8174 98.3579C94.5246 99.8233 101.752 106.211 104.953 106.012C108.154 105.813 110.942 104.803 114.912 101.402C117.415 99.2258 118.013 93.5209 118.013 93.5209C118.013 93.5209 118.411 99.5814 116.206 101.943C113.391 105.341 109.398 107.551 105.024 108.132C103.914 108.388 99.3333 105.742 95.8193 102.142C94.3278 100.817 92.755 99.5866 91.1102 98.4575C93.8418 101.104 106.916 115.017 107.386 115.53C108.808 116.952 106.447 119.556 107.556 124.578L109.534 122.102L109.847 119.257L112.237 120.495C114.061 121.261 115.691 122.425 117.008 123.902C118.325 125.379 119.295 127.131 119.848 129.031C119.427 129.247 119.057 129.55 118.763 129.921C118.469 130.291 118.257 130.72 118.141 131.179C119.948 131.051 120.047 131.848 120.062 132.089C120.073 132.209 120.056 132.329 120.011 132.441C119.966 132.552 119.896 132.651 119.805 132.73C119.706 132.815 119.805 133.028 119.805 133.156C119.885 133.192 119.953 133.25 120.001 133.323C120.049 133.396 120.075 133.482 120.076 133.569C120.081 133.674 120.052 133.779 119.993 133.866C119.934 133.953 119.848 134.019 119.749 134.053C119.7 134.108 119.665 134.175 119.648 134.247C119.63 134.319 119.631 134.394 119.649 134.465C119.702 134.508 119.745 134.562 119.775 134.624C119.804 134.685 119.82 134.753 119.82 134.821C119.824 134.886 119.814 134.952 119.793 135.014C119.771 135.076 119.738 135.133 119.694 135.182C119.651 135.231 119.598 135.27 119.539 135.299C119.48 135.327 119.416 135.344 119.35 135.347H119.251C119.137 135.347 118.938 135.532 118.952 135.66C118.96 135.726 118.96 135.793 118.952 135.86C118.943 135.983 118.899 136.102 118.824 136.201C118.539 136.429 117.714 137.183 116.818 136.599C114.94 135.362 110.914 132.431 105.437 133.142C105.437 133.142 107.485 133.427 109.861 136.599C112.706 140.441 114.912 140.725 114.912 140.725C114.573 141.107 114.353 141.58 114.28 142.086C114.206 142.592 114.283 143.108 114.499 143.57C115.155 145.232 115.459 147.011 115.393 148.796C115.327 150.581 114.892 152.333 114.115 153.942C114.115 153.942 117.06 153.074 119.18 144.694C119.18 144.438 119.436 142.731 120.118 142.39C120.317 142.302 120.534 142.266 120.75 142.283C120.966 142.301 121.174 142.371 121.356 142.489C121.523 142.5 121.688 142.455 121.826 142.361C121.927 142.063 122.118 141.805 122.373 141.621C122.628 141.437 122.934 141.338 123.248 141.337C123.548 141.316 123.847 141.391 124.102 141.55C124.21 141.584 124.324 141.588 124.434 141.563C124.544 141.538 124.645 141.485 124.728 141.408C124.789 141.22 124.885 141.046 125.012 140.896C125.148 140.738 125.313 140.61 125.499 140.517C125.684 140.424 125.887 140.369 126.094 140.355C126.371 140.344 126.646 140.408 126.89 140.54C126.989 140.538 127.087 140.514 127.175 140.47C127.264 140.425 127.341 140.362 127.403 140.284C127.443 139.929 127.608 139.599 127.868 139.354C128.129 139.109 128.468 138.965 128.825 138.947C129.049 138.932 129.274 138.971 129.48 139.061C129.583 139.053 129.683 139.024 129.774 138.975C129.864 138.926 129.944 138.858 130.006 138.776C129.99 138.378 130.13 137.989 130.395 137.692C130.661 137.394 131.031 137.212 131.429 137.183C131.633 137.173 131.837 137.206 132.026 137.282C132.145 137.24 132.252 137.17 132.339 137.079C132.425 136.987 132.489 136.877 132.524 136.756C132.368 136.457 132.254 136.144 132.524 135.831C133.541 134.812 134.491 133.728 135.37 132.587C135.592 132.329 135.891 132.147 136.223 132.067C136.555 131.988 136.904 132.016 137.219 132.146C137.885 130.442 139.136 129.03 140.747 128.163ZM102.25 85.9523C102.699 85.9409 103.142 86.0639 103.522 86.3055C103.901 86.5471 104.2 86.8963 104.38 87.3085C104.56 87.7207 104.613 88.1772 104.532 88.6197C104.451 89.0622 104.24 89.4705 103.926 89.7926C103.612 90.1147 103.21 90.3358 102.769 90.4278C102.329 90.5198 101.871 90.4785 101.455 90.309C101.038 90.1396 100.681 89.8499 100.43 89.4767C100.179 89.1036 100.045 88.6641 100.045 88.2143C100.044 87.6241 100.275 87.0572 100.687 86.6346C101.099 86.212 101.66 85.9671 102.25 85.9523ZM104.398 104.12C103.054 101.913 101.464 99.8661 99.6605 98.0165C99.6605 98.0165 101.709 98.5287 104.512 102.171C105.633 101.817 106.67 101.236 107.556 100.463C107.553 98.6888 107.333 96.9211 106.902 95.1996C108.11 97.0277 108.835 99.1326 109.007 101.317C108.168 102.896 104.398 104.12 104.398 104.12ZM122.324 135.177C124.695 132.428 125.999 128.919 125.999 125.289C125.999 121.659 124.695 118.15 122.324 115.402C123.9 116.524 125.186 118.006 126.073 119.727C126.96 121.447 127.423 123.354 127.423 125.289C127.423 127.224 126.96 129.132 126.073 130.852C125.186 132.572 123.9 134.055 122.324 135.177ZM125.269 135.86C128.109 132.556 129.671 128.344 129.671 123.987C129.671 119.631 128.109 115.419 125.269 112.115C127.162 113.462 128.707 115.242 129.772 117.308C130.838 119.373 131.394 121.663 131.394 123.987C131.394 126.311 130.838 128.602 129.772 130.667C128.707 132.732 127.162 134.513 125.269 135.86ZM128.598 136.557C131.792 132.859 133.55 128.135 133.55 123.248C133.55 118.361 131.792 113.637 128.598 109.938C130.723 111.447 132.457 113.442 133.653 115.757C134.85 118.073 135.474 120.641 135.474 123.248C135.474 125.854 134.85 128.422 133.653 130.738C132.457 133.053 130.723 135.049 128.598 136.557Z" fill="white"/>
</svg>
