<svg id="Layer_1" data-name="Layer 1" width="240" height="240" xmlns="http://www.w3.org/2000/svg" viewBox="0 0 240 240"><defs><style>.cls-1{fill:#fff;}.cls-2{fill:#a13122;}.cls-3{fill:#e0e0e0;}.cls-4{fill:#1d1d1b;}.cls-5{fill:#c4c4c4;}</style></defs><path class="cls-1" d="M191.74,112.8s-4.87-.31-11.68-.59l.48-3.66-13.7.2.29-.43,0,0,.06-.08.09-.14.22-.3c.12-.18.25-.34.38-.5l.09-.12c.11-.14.23-.27.35-.41l.29-.3h0c.16-.16.33-.32.51-.47.5-.43,1.41-.94,1.67-1.6.43-1.12-.1-2.87,0-4.08a20.67,20.67,0,0,0,.24-4,2.51,2.51,0,0,0,0-.27,3.15,3.15,0,0,0-.15-.64,2.7,2.7,0,0,0-.26-.54c-.58-.83-1.25-.77-1.36-1.73,0-.07,0-.14,0-.21a6.47,6.47,0,0,1,.09-1.08,7.45,7.45,0,0,0,.13-1.07,3.3,3.3,0,0,0-.08-.75,8.45,8.45,0,0,0-.68-1.68c-.08-.17-.17-.35-.24-.52-1.54-3.67-.54-7.8-2.07-11.36a8.66,8.66,0,0,0-.47-.91c-.77-1.25-1.83-2.27-2.56-3.53A5.46,5.46,0,0,0,161,69.42a2.52,2.52,0,0,0-.93-.17,3.78,3.78,0,0,0-.71.1,10.38,10.38,0,0,1-2.34.33l-.86,0a3.94,3.94,0,0,0-2.87.9c-.64.74-.83,1.78-1.59,2.55a3,3,0,0,1-.32.3l-.07.06a5.33,5.33,0,0,1-.69.48h0l-.38.19c-.7-5.49-1.19-9.08-1.19-9.08a3.33,3.33,0,0,0-3.15-2.84H125.41a2.72,2.72,0,0,1-.52-1.9c0-.1,0-.21,0-.33a13.82,13.82,0,0,0-.66-2.81l-.12-.41a7.21,7.21,0,0,1-.31-3,3,3,0,0,1,.51-1.26,1.77,1.77,0,0,1,.16-.22c.27-.37.59-.71.89-1.05l.26-.3a3.46,3.46,0,0,0,.86-1.69,12.73,12.73,0,0,0,.14-1.83,5.94,5.94,0,0,0-.67-3,2.63,2.63,0,0,0-.69-.79,1.17,1.17,0,0,0-.25-.13c-.44-.17-1.14-.31-1.3-.57a.61.61,0,0,1-.07-.14c-.09-.35.17-.71.17-1.11a3.76,3.76,0,0,0-.29-1.35,4.53,4.53,0,0,0-.73-1.19c-1.61-1.94-2.77-2.09-4.79-.9-.49.28-1.32.61-2.15,1l-.36.15-.68.33a3.33,3.33,0,0,0-1.39,1.06,24.21,24.21,0,0,0-.83,3,9.41,9.41,0,0,1-1.73,3.67,8.84,8.84,0,0,1-1.22,1l-.49.37c-.63.5-1.16,1.05-1.09,1.63h-.29a2.23,2.23,0,0,0-1.23.43,2.57,2.57,0,0,0-.39.35,3.26,3.26,0,0,0-.41.63,2.9,2.9,0,0,0-.15.44s0,.1,0,.16c-.2.69-.46,1.77-.56,2.36a2.12,2.12,0,0,0,0,.37s0,0,0,.06a0,0,0,0,0,0,0h-.4l-.36,0c-.84-.06-1.69-.22-2.52-.23h0c-.6,0-1.22,0-1.84,0s-1.24.07-1.84.12a8.58,8.58,0,0,1,.6,1.25c.07.15.13.3.19.45s.15.39.22.57c.22.6.6,1.12.83,1.71a10.4,10.4,0,0,1,.45,1.91c-.39-.16-.78-.34-1.17-.53-.7-.36-.59,0-.59.71a7.48,7.48,0,0,0,.07,1h-6a3.31,3.31,0,0,0-3.15,2.84s-2,15-3.8,30.65v0c-1.33,1.89-.86,4.1-1.7,6a3.32,3.32,0,0,1-.36-.26,4.54,4.54,0,0,1-.63-.61,9.15,9.15,0,0,1-1.84-5.07l0-.35c0-.34,0-.67-.08-1a25.41,25.41,0,0,0-1.34-6.28c-.46-1.39-.68-3.36-1.86-4.27a3.26,3.26,0,0,0-.25.61l-.06.25c-.14.56-.21,1.16-.4,1.73A28.52,28.52,0,0,1,75.62,90c-.07.16-.15.33-.23.49l-.23.5c-.15.33-.3.67-.44,1a14.11,14.11,0,0,0-.82,2.56,26.55,26.55,0,0,0-.16,4.65l0,.66c-.29-.53-.6-1.06-.92-1.58s-.74-1.18-1.11-1.71c.25.36-.52,3.27-.52,3.89a3.55,3.55,0,0,1-.57-.53c-.13-.14-.26-.3-.39-.45a5.8,5.8,0,0,0-1.28-1.29,21.61,21.61,0,0,0-4-1.65h0c1.93,1.11,2.06,3.77,2.29,5.78.07.53,1.12,6.12,1,6.12-.36,0-1.44-.27-1.65-.61.17.27.33.56.49.86-1.09-.07-2.84-.08-8.1.06l.62,3.93-11.28.18,2.18,9.7-1.13,8.38s15.6-.64,21.91-.85l0-.07.14.07.72-3.7h1.48l.25.24,0,0,.26.25v0c.52.51,1.06,1.08,1.56,1.6l1.08,1.17,0,0a1.49,1.49,0,0,0,.17.18l0,.06.12.13,0,0,.13.13.21.21.06.06.15.16.06.06.15.16,0,.06.17.18,0,0,.18.22h0c1.71,2,3.3,4.57,5.7,5.32a54,54,0,0,0,11.86,24,6.67,6.67,0,0,0-.27,1.63h0c0,.15,0,.31,0,.47v0c0,.14,0,.29,0,.44v.08c0,.14,0,.28,0,.43s0,.08,0,.12,0,.26,0,.39l0,.16c0,.11,0,.23.07.35s0,.13,0,.2.05.21.08.31l.06.23.09.28c0,.08.06.16.08.24s.06.17.1.25a1.89,1.89,0,0,0,.11.25,1.47,1.47,0,0,0,.1.22c0,.09.09.18.14.27l.1.19c.05.09.11.17.17.26l.11.16a3.76,3.76,0,0,0,.25.31.24.24,0,0,0,.06.08c.38,1.36.65,2.09.93,3,.17.54.34,1.14.53,2,.69,3,1.32,5.71,2.2,8.64.08.25.15.48.22.68a31.76,31.76,0,0,1,1.45,3.62c-.22.71.16,2.07.56,3.56a14.18,14.18,0,0,0-.48,5,6.27,6.27,0,0,0,2.06,3.72,6.12,6.12,0,0,0,1.64.81,20.05,20.05,0,0,0,9,.61c1-.24,2.37-.38,2.86-1.49a3.84,3.84,0,0,0,.3-2.33,5.53,5.53,0,0,0-.12-.73c-.06-.26-.13-.54-.21-.83a3,3,0,0,1-.1-.32,21.19,21.19,0,0,0-2.09-4.63c-1-1.45-2.46-1.73-2.39-3.49.05-1.17-.88-2.62-1.82-3.67l-.19-.21a8.37,8.37,0,0,0-.94-.85,1.22,1.22,0,0,1-.35-.46,1,1,0,0,1-.07-.15,14,14,0,0,1-.56-3.27l0-.26,0-.25a6.67,6.67,0,0,1,1,.76,2.28,2.28,0,0,1,.22.22,11.51,11.51,0,0,1,1.28,1.49c.19.25.35.48.47.65s.43.6.63.91c.62.92,1.2,1.88,1.76,2.84s.94,1.76,1.46,2.59c.17.28.36.55.55.81a17.86,17.86,0,0,1,1.61,2,3.9,3.9,0,0,1,.19.35,13.34,13.34,0,0,0-.24,2.15,7.81,7.81,0,0,0,3.11,5.8c.91.57.77-.54,1.11.5a7.49,7.49,0,0,0,1.37,2.65,1.7,1.7,0,0,0,.22.24,4.83,4.83,0,0,0,2.24,1.17l.87.2a19.68,19.68,0,0,0,4.53.45,15.73,15.73,0,0,0,1.81-.13,16,16,0,0,0,4-.78,2.37,2.37,0,0,0,1.17-1.11,1.62,1.62,0,0,0,.1-.18.14.14,0,0,0,0-.06,1.72,1.72,0,0,0,.11-.29v0a2.13,2.13,0,0,0,.1-.64h0a9.77,9.77,0,0,0-1.59-3.9,25.48,25.48,0,0,1-1.72-2.38l-.23-.37c-.19-.33-.37-.66-.52-1-.71-1.49-2.47-2.07-3.51-3.48-.08-1.49-1.71-1.93-3-2.9l-.25-.21a2.33,2.33,0,0,1-.35-.44c-.64-1.08-.13-2.5-.27-3.92a2.73,2.73,0,0,0-.65-1.58,3.12,3.12,0,0,0-.46-.43c-.76-.59-1.77-.94-2.66-1.58l0,0-.32-.23-.06,0-.34-.23c5.94-3.34,31.35-19.34,31.94-48.92,4.05-.08,7.78,0,11,.11l-.19,3c7.27,0,24.11,1.38,24.11,1.38l-1.18-8.76Zm-34-3.94a13.71,13.71,0,0,0,.29-5.21,7.6,7.6,0,0,0-.21-1.15c-.12-.46-.25-.9-.35-1.4a2.63,2.63,0,0,1,0-.49c0-.45.06-.94.06-1.42a2.55,2.55,0,0,0-.13-.87,4.71,4.71,0,0,0-.84-1.41l-.14-.19a3,3,0,0,1-.58-1.39c-.38-2.77.19-5.6-.2-8.37a6.41,6.41,0,0,0-1.13-2.75c.5-.36.95-.83,1.44-1.2L156,83l.08,0c.75-.09,1.86,2.45,2.17,3.39a3.1,3.1,0,0,1,.09.31,33.9,33.9,0,0,1,.48,7,4.22,4.22,0,0,0-.12,1.4.82.82,0,0,0,.4.4,1,1,0,0,1,.42.38c.39.8-.06,1.65-.25,2.47a7,7,0,0,0-.16,2.24q0,.33.06.66c0,.34.11.67.18,1s.11.44.17.67l.09.33c.54,1.88,1.38,3.73,2,5.33l0,.06c0,.06,0,.13.07.2Z"/><path class="cls-2" d="M144.84,63.92H127.71c.75.55,1.68,1.26,2.68,2h12.35a1.62,1.62,0,0,1,1.5,1.37s.5,3.33,1.24,8.44c1.17-.44,2.31-.77,3.53-1.14-.57-4.63-1-7.64-1-7.75A3.37,3.37,0,0,0,144.84,63.92Z"/><path class="cls-2" d="M148.88,113.21c-1.09-1.63-.82-3.73-.85-5.59,0-1.46.59-2.5.06-3.92a1.83,1.83,0,0,0-1.09,0c-.8,1.4-1.49,3.14-2.34,5a38.32,38.32,0,0,0-2.17,4.76,36.45,36.45,0,0,1-2.65,5.48c-.92,1.78-.83,3.74-1.79,5.47s-2.36,3.08-3,5a5.07,5.07,0,0,1-.42,1c3.71,3.79,6,7.7,6.85,11.65,1.22,5.9-.81,12-6,18.2a65,65,0,0,1-14.71,11.32,3.42,3.42,0,0,1-1.56.38,9.06,9.06,0,0,0,.77,1.56,7.64,7.64,0,0,0,1.77,1.83l1.08-.55a66.13,66.13,0,0,0,15.63-12,57.87,57.87,0,0,0,10.74-15.24,49.47,49.47,0,0,0,4.89-21.56c0-2.76-.28-7-.71-12.09C151.79,115.15,150.2,115.17,148.88,113.21Z"/><path class="cls-2" d="M96.17,156.69a44.63,44.63,0,0,1-.38-5.05,50.56,50.56,0,0,1-6.42-13.26,2.77,2.77,0,0,1-1.51-.38c-.41-.24-.56-.55-.89-.77a49.19,49.19,0,0,0,3.6,10.25A54.74,54.74,0,0,0,96.17,156.69Z"/><path class="cls-2" d="M91.72,66.85c0,.27-2.24,17.14-4,33.26,1.64,2.58,3.8,5.47,4.78,7.94.15-1,2.08-2.61,3.92-3a18.77,18.77,0,0,0-.74,4.32c2.37.81,4.67,1.64,6.87,2.48a12.76,12.76,0,0,1,1-1.29,10.32,10.32,0,0,1,4-2.15,7.7,7.7,0,0,0,3.43-2.63c.28-.37,1.77-2.95,3.24-3.93-3.4.47-6,0-8.94.79,1.41-.91,1.45-1.77,2.52-2.5-.75-.18-1.3.37-2.25.59.69-1.29.42-4.59,1.19-6.45-.35.26-.84.14-1.32,1.08,0-2.29.48-4.41,1.36-5.52a11.16,11.16,0,0,1-12.38,1c1.77-.49,3.82-1.48,4.43-2.26a8.51,8.51,0,0,0,1.58-3.08,15,15,0,0,0,.3-1.76c.12-.9.26-1.8.45-2.68a9.06,9.06,0,0,1,.82-2.55,2.36,2.36,0,0,1,.28-.42H95.15a2.23,2.23,0,0,1-2.42-1.81C93.5,70.84,94,67.3,94,67.3a1.6,1.6,0,0,1,1.49-1.37h5.18a5.28,5.28,0,0,1-1.63-2H94.91A3.37,3.37,0,0,0,91.72,66.85Z"/><path class="cls-3" d="M95.67,110a16.3,16.3,0,0,0-.08,3.82,5.8,5.8,0,0,1-.25,3.6c-.29.74-1.92,2.61-1,3.15,1.19-1.19,1.79-2.86,2.91-4.09s2.47-1.28,3.47-2.31a20.18,20.18,0,0,0,1.86-2.39c-2.2-.84-4.5-1.67-6.87-2.48C95.69,109.59,95.68,109.83,95.67,110Z"/><path class="cls-3" d="M95.78,151.31c0-1.21.2-1.64-.53-2.46a16,16,0,0,1-2-2.18,10.4,10.4,0,0,1-1-2.9c-.15-.62-1-5.77-.52-6.1a4.61,4.61,0,0,1-2.3.71,50.56,50.56,0,0,0,6.42,13.26C95.79,151.53,95.78,151.42,95.78,151.31Z"/><path class="cls-3" d="M135.46,160.22c5.23-6.2,7.26-12.3,6-18.2-.82-4-3.14-7.86-6.85-11.65a22.71,22.71,0,0,1-2.85,3.41c-1,1.18-.18,3-1.58,5.58-.95,1.76-2.47,2.75-3.24,4.65-1.39,3.44-2.37,6.77-4.68,9.71-2.47,3.14-3.52,6.76-6.62,9.44.8,1.55,1.52,3.31,2.19,5,.47,1.17.83,2.55,1.32,3.8a3.42,3.42,0,0,0,1.56-.38A65,65,0,0,0,135.46,160.22Z"/><path class="cls-3" d="M142.74,65.93H130.39l6.39,4.88a6.41,6.41,0,0,1,2.74,4.53c.88.37,1.53.12,2.33.69,1.15.82,1.15.77,2.56.15.36-.16.72-.3,1.07-.44-.74-5.11-1.24-8.44-1.24-8.44A1.62,1.62,0,0,0,142.74,65.93Z"/><path class="cls-3" d="M94,67.3s-.54,3.54-1.31,8.92A2.23,2.23,0,0,0,95.15,78h7.17a1.35,1.35,0,0,1,.32-.31c.18-.13.5-.24.14-.39a5.62,5.62,0,0,0-2.58-.15c-.47,0-.93.13-1.39.21a7.13,7.13,0,0,1-2.48.08A3.51,3.51,0,0,1,95.21,77s-.77-.53-.76-.55a9.33,9.33,0,0,0,1.66-1.29c-.48-.08-.9-.57-1.5-1.09A8.79,8.79,0,0,0,98,71.6a7.79,7.79,0,0,1,.8-1c.2-.2,1.48-1,.84-1.34s-1.21-.49-1.79-.79a13.12,13.12,0,0,1-1.53-.91c-.26-.18-.5-.37-.75-.57s4.49-.46,5.4-.84l-.3-.22H95.53A1.6,1.6,0,0,0,94,67.3Z"/><path class="cls-4" d="M117.27,173.09a44.77,44.77,0,0,1-3.78-9.45c-.06-1.86-.66,0,.6-2.34s4-2.14,6.37-9.53c2.26-2.48,2.39-3.59,3.32-5.17s2.06-6.42,2.06-6.42c0-.44,1.51-1.6,2.19-2.69,1.2-1.37.68-3.26.95-3.54a18.18,18.18,0,0,0,1.65-2.37,11.2,11.2,0,0,1,1.94-2.1,7.65,7.65,0,0,0,1.44-2.76c.54-1.26,1.37-2.25,1.89-3.54.8-2,2-3.54,2.77-5.52.66-1.71,1.58-3.3,2.24-5s.82-3.27,1.91-4.76,1.92-2.89,2.79-4.36a9,9,0,0,0,1.71-4.16c0-.73.15-1.49.19-2.2.08-1.65-.42-3.29.68-4.59.38-.45,1.27-.52,1.32.21a14.91,14.91,0,0,1,.54,6.08,4.18,4.18,0,0,0,.21,2.48c.32.32.76.83.76.83l0,1.22a3.68,3.68,0,0,0-1.2.71,15.85,15.85,0,0,0-.4,5.24c.13,2.12,1.06,3.91,1.77,4.05s1.68-1.38,2.43-2,1.8-1.43,1.95-1.66a29,29,0,0,0,.69-3,16.9,16.9,0,0,0,.24-3,9.45,9.45,0,0,0-.93-2.25c-.35-.92.45-.46.27-2.44-.09-1-1-1.63-1.16-2.3-.23-.85-.35-5.61-.61-7,.15-1.56.8-2.62-.4-4.28s-3-.68-2.65-1.79c.35-1.28,4.65-3.4,4.65-3.4a8.09,8.09,0,0,1,2.65.91l1.06,1.11.66,3s.53,2.19.82,3.36a14.87,14.87,0,0,1,.55,1.72c0,.55-.19,1.24-.18,1.84a3,3,0,0,0,.67,1.9c.36.44.88.59,1,1.22.06.38-.07,1.29-.06,1.75s-.18,1.1-.18,1.67c-.46,0-1.15-.17-1.31.3s.92,3.33,1.2,5a10.08,10.08,0,0,0,.75,2.43c.31.63.79,2.28,1.51,2,.54-.19,1-1,1.47-1.41a8.8,8.8,0,0,0,1.57-1.43c1.06-1.34,1-2.58,1-4.28a32.75,32.75,0,0,0,.15-4.33c-.2-1.59-1.9-2.45-1.82-3.81.09-1.57.27-2.45-.4-3.95a29.75,29.75,0,0,1-1.16-4.55c-.36-1.36-.35-2.79-.64-4.12a25.56,25.56,0,0,0-.95-4c-.4-1-1.24-1.39-1.78-2.21a19.08,19.08,0,0,1-1.41-3.09,9.64,9.64,0,0,1-2.71.27,6.36,6.36,0,0,0-2.68.45c-.5.34-.65,1.11-1,1.63a7.74,7.74,0,0,1-1.21,1.35,9.09,9.09,0,0,1-3,1.42c-1.19.4-2.32.85-3.49,1.34s-2.49,1.85-3.77,2.23a12,12,0,0,0-2-2.26c-.75-.58-1.83-.05-2.6-.59s-.76-1.76-1.34-2.49a21.83,21.83,0,0,0-2.34-2.37c-2-1.89-6.28-5.11-6.28-5.11-1-.79-1.92-1.58-2.92-2.35-.45-.35-.89-.75-1.34-1s-1-.39-1.19-1-.06-1.54-.2-2.21a40,40,0,0,1-.93-4.24,13.41,13.41,0,0,1,.22-4.24c.41-1.64,1.48-1.73,2.55-2.67.63-.55.39-.84.18-1.71-.16-.69-.33-1.33-.45-2.05-.28-1.6-1.87-1-3-1.15.49-.88.8-1,.71-2.07a3.27,3.27,0,0,0-.47-2,3.72,3.72,0,0,0-1.63-1.11c-.72-.19-1.32.43-1.91.87a21.87,21.87,0,0,1-2,1.39c-.74.41-1,.44-1.08,1.29a17.07,17.07,0,0,1-.78,4.18c-.63,1.55-1.74,1.86-2.68,3.06a10.1,10.1,0,0,0-1.6,3.1c-1.18-.09-1.55.45-2.13,1.57a6,6,0,0,0-.12,3.11c-.86,0-2.57-.45-3.7-.58a8.17,8.17,0,0,0-1.53-.18c-.5,0-1,.29-1.48.1l-.24.07c.31.61.78,1,1.08,1.66s.44,1.12.71,1.63c1.1,2,2,2.29,2.25,2.33A5.42,5.42,0,0,1,99.48,62c.82,1.14,1.15,2.48,2.77,3.2a6.1,6.1,0,0,0,1.7.53c.32,0,.64.11,1,.13.16,0,.79.08.91-.06a2.66,2.66,0,0,1-.93.52,11.18,11.18,0,0,1-1.77.6c-.38.07-.75.18-1.13.23s-.74.07-1.11.13c-.91.15-1.81.3-2.73.38,1.81.38,3.54,1.84,5.53,1.49-1.58.42-3.13.63-4.23,2.09s-1.14,2.28-3.12,2.94a5.89,5.89,0,0,0,3.42-.86c-1.39.73-2.09,2.62-3.94,3.26,1.37.22,3.27-.64,4.65-.56,2.44.14,4.22,1.08,6.77.44a5.09,5.09,0,0,0-3.4,2.63,13.86,13.86,0,0,0-1.49,5.14c-.43,2.8-2.34,6-3.89,6.44,6,.55,7-3.31,10.88-3-1.16,1.7-1.41,3.88-2.06,5.38,1.13-.83,1.53-1.39,2.58-1.5-2.9,2.67-1.76,5.63-2.72,7.51,1.86-.61,2.52-3.51,6.2-3.46-1.35.6-1.51,3.46-5,5.13,1.67-.09,3.72-.67,5.43-.61.53,0,3.53.37,4.7-.09-1.77,1.06-2.35,2.14-4.37,5.09a22,22,0,0,1-2.87,3.64c-.83.74-2.17.92-3.15,1.31a10.28,10.28,0,0,0-2.39,1,15.55,15.55,0,0,0-1.91,2.47,11.21,11.21,0,0,1-2,2c-.71.51-1.53.71-2.24,1.2-2.2,1.52-3,4.25-4.36,6.58-.36.62-.53,1.17-1.18.93-.45-.17-.81-.92-1-1.38a8.19,8.19,0,0,1,0-5.29c.25-.81.92-1.74,1.07-2.55a11.1,11.1,0,0,0,.47-3.12,8.89,8.89,0,0,1,.47-4.86c-1.65.92-2.41,3.18-2.82,4.23.18-3.22-2.67-4.53-4.21-6.91a21.73,21.73,0,0,1-2.26-5.06c.08,1.89.46,3.23.41,4.82,0,1-.59,2.59-.33,3.65.06.23,0,.19-.11,0-.33-.64.08-.81-.46-1.85-1-2-3.66-2.08-4.66-4.23a20.61,20.61,0,0,1-1.42-4.79c-.72-3.17-.87-6.1-1.34-9.36-.16,3.2-.88,8.4-1.56,12.48-.62,3.7.29,6.12,1.65,9.55,1.22,3.06,2.74,7,1.61,10.28a9.3,9.3,0,0,0-.93-5.45c-.53-1-1.57-1.69-2.18-2.66a22,22,0,0,1-1.39-3.08c-1.14-2.61-2.21-5.19-2.2-8.12-.87,2.7-1.12,6.85.18,9.49-3-1.76-2.29-7.26-4.34-9.65,1,1.51.88,6.06,1.42,8.08.74,2.78,2.35,4.57,3.8,6.92a22.87,22.87,0,0,1-5-4.75C72.16,115,72.1,120,77.1,122.81c-2-.59-4.07.84-5.91.24,3,1,8.75,1.88,8.75,5.06,0,.33-2.66-.48-3.52-.93,1.6,1.31,2.71,3.82,5.41,6a12.35,12.35,0,0,0,3.11,2c.73.26,1.49.11,2.22.34s1.49,1,2.37,1.17,1.23-.32,2-.62c.63-.25,1.39-.1,2-.43s.88-1,1.31-1.5c-.12,1.22-1,2.35-1,3.57,0,.55.24,1,.25,1.59a17.56,17.56,0,0,0-.18,1.92,7.83,7.83,0,0,0,1.55,3.84c1.86,2.48,3.12,2.62,3.12,2.62a51.45,51.45,0,0,0-.2,6.35c.13,2.9.46,6.07.46,6.07a6.82,6.82,0,0,0-.73,3.31A4.87,4.87,0,0,0,99.75,167c2.13,13.87,4.5,15.68,4.9,16.92-.26,4.63,1,4.92.62,5.52a5.89,5.89,0,0,0-.79,1.93c.59-.27.79-.13.79-.13a2.54,2.54,0,0,0-.59,1.58c.73-.75-.14.9.13,1.94s.66.27.66.27.6.26.53,1.24c1.66,2.21,10.62,1.66,10.75.28s-1.06-4-1.06-4,.4.27,0-1a8.36,8.36,0,0,0-4.11-4.69c.73-3.24-1.27-3.46-2.07-4.35-1.51-1.67-2.19-9.26-2.45-11.05a24.88,24.88,0,0,1-.2-3.87l1,1.45a12.76,12.76,0,0,0,2.66,4.69c1.72,1.66,8.08,11.34,8.87,13,.4,1.21,1.64,1.3,1.73,1.59.69.17-1.22,2.5-1,3.18.59-1,1-.76.92-.56s-.8,1.34-.4,1.73c.07-1.18.47.41.67.13-.08.12,0,.59,0,.73a1.14,1.14,0,0,0,.12.41,2.35,2.35,0,0,0,.43.6,1.44,1.44,0,0,0,.22-.27,1.84,1.84,0,0,0,.16.6c.05.16.28.45.27.6.13-1.66.48-1.84.48-1.84a1.83,1.83,0,0,0,.67,1.93c.88.74.53-.09,1.32.28,0,0,.36,2.12.53,2.76,0,2.3,13.15,2.48,11.82,0-1.73-2.76-2.13-4.69-3.32-5.38a4.3,4.3,0,0,0-3.72-3c-.53-1.79-.73-.83-1.92-2.41-.38-.54-1.28-.34-1.87-1.38-.79-1.4.66-3.26-.26-4.64s-2.26-.83-5.51-3.66C119.53,177.3,118.27,175,117.27,173.09Z"/><path class="cls-4" d="M189.33,114.82l-.32,0c-.08,0-4.71-.3-10.26-.56l.34-3.49,0-.31h-.31c-.31,0-30.52.46-38.13.18-6.68-.24-25.85-.2-35.06-.19h-4.15c-6.45,0-15.18.13-20.33.3a22.94,22.94,0,0,1-3.33-.15c-2.45-.24-6.16-.59-16.84-.31h-.29l0,.29.21,3.42-10.16.61-.35,0,.1.33,2,7-.79,6.56,0,.33H52l17.34-.55.37,0,.29.12L70,128l.46-2.59c5.26,0,11.52,0,14.4-.07,2.17-.07,5.91.05,10.24.18,6.59.2,14.8.45,21.41.16,6.06-.26,14.82-.2,23.3-.15,6.89.05,13.39.09,18.37,0,3.52-.09,6.69,0,9.4.07l-.22,2.88h0l0,.39.34-.09c4.08,0,20.06,1.09,20.22,1.11l.33,0,0-.34-.79-6.66,1.85-7.78Z"/><path class="cls-5" d="M177.56,126.41l-.29,0-.23,0-7.4,2c5.24.19,16,.9,18,1l-.75-6.39v-.09l1.78-7.5c-1.15-.08-5.22-.33-9.95-.55l-1.1,11.33Z"/><path class="cls-5" d="M53,121.84V122l-.76,6.3,16-.51L62,125.39H61.6v-.26l-.65-10.56-9.81.59Z"/><path class="cls-3" d="M153.72,111.26l-.14.12a4,4,0,0,1-2.43,1.34,2.23,2.23,0,0,1-1.35-1.44c-3.91,0-7.23,0-9.14-.09-6.67-.24-25.83-.21-35-.19h-4.16c-6.44,0-15.17.14-20.31.31a23.77,23.77,0,0,1-3.4-.16c-2.42-.23-6.07-.58-16.49-.31l.85,14c2.18,0,17.68.17,22.74,0,2.19-.07,5.94,0,10.28.17,6.58.2,14.77.45,21.36.17,6.08-.27,14.85-.21,23.33-.15,6.88,0,13.39.08,18.36,0a131,131,0,0,1,18.87.8L178.51,111C176.41,111,164.07,111.22,153.72,111.26Z"/><path class="cls-4" d="M75.55,121a.49.49,0,0,1-.29-.11,3.35,3.35,0,0,1-.42-.51s-.78-1.09-1-1.44a1.61,1.61,0,0,0,1.51-1.68,1.91,1.91,0,0,0-.16-.8,1.44,1.44,0,0,0-.54-.63,2.21,2.21,0,0,0-.72-.28,6.06,6.06,0,0,0-1.07-.07H69.17a.1.1,0,0,0-.1.09v.13a.1.1,0,0,0,.08.1.36.36,0,0,1,.16.08.18.18,0,0,1,0,.13v4.79a.17.17,0,0,1,0,.12s-.06.06-.16.08a.1.1,0,0,0-.08.1v.13a.1.1,0,0,0,.1.09H71a.09.09,0,0,0,.09-.09v-.13A.1.1,0,0,0,71,121c-.1,0-.14,0-.16-.08s0-.06,0-.12V119h1.41l1.15,1.62c.17.23.18.3.18.31s0,0-.13,0a.1.1,0,0,0-.08.1v.13a.09.09,0,0,0,.09.09h2.11a.1.1,0,0,0,.1-.09v-.13A.09.09,0,0,0,75.55,121Zm-1.7-3.75a.53.53,0,0,1-.27.52,1,1,0,0,1-.3.1l-.6,0H70.81v-1.29h1.87a3.77,3.77,0,0,1,.6,0,.75.75,0,0,1,.3.09A.55.55,0,0,1,73.85,117.24Z"/><path class="cls-4" d="M81.86,116.19a3.64,3.64,0,0,0-2.48-.82,3.32,3.32,0,0,0-3,1.42,3,3,0,0,0-.23,2.74,2.74,2.74,0,0,0,.75,1.06,3.55,3.55,0,0,0,2.46.82,3.3,3.3,0,0,0,3-1.41,3,3,0,0,0-.51-3.81Zm-.66,3a1.79,1.79,0,0,1-.48.67,2.19,2.19,0,0,1-2.66,0,1.91,1.91,0,0,1,0-2.83,2,2,0,0,1,1.33-.46,2.07,2.07,0,0,1,1.34.46,1.8,1.8,0,0,1,.62,1.44A1.78,1.78,0,0,1,81.2,119.14Z"/><path class="cls-4" d="M89.9,121a.45.45,0,0,1-.24-.11,1.48,1.48,0,0,1-.22-.35l-2.23-4.36a.65.65,0,0,1-.07-.23s0-.1.19-.15a.1.1,0,0,0,.07-.1v-.13a.1.1,0,0,0-.1-.09H85.23a.09.09,0,0,0-.09.09v.13a.1.1,0,0,0,.06.1c.18.06.18.15.18.18a.61.61,0,0,1-.09.29l-2.14,4.34a1.19,1.19,0,0,1-.19.3.41.41,0,0,1-.21.09.1.1,0,0,0-.08.1v.13a.09.09,0,0,0,.1.09H84.7a.09.09,0,0,0,.09-.09v-.13a.1.1,0,0,0-.07-.1c-.21,0-.21-.13-.21-.16a.47.47,0,0,1,.07-.21s.28-.57.36-.75h2.53l.38.75a.61.61,0,0,1,.07.21s0,.13-.2.16a.11.11,0,0,0-.08.1v.13a.09.09,0,0,0,.1.09h2.14a.09.09,0,0,0,.1-.09v-.13A.11.11,0,0,0,89.9,121ZM87,118.91H85.42l.8-1.7Z"/><path class="cls-4" d="M94.93,117.31a.1.1,0,0,0,0,.08l.12.07h.07a.1.1,0,0,0,.06,0l.7-1.33a.1.1,0,0,0-.05-.13l-.11-.06a.09.09,0,0,0-.11,0,.25.25,0,0,1-.15.07l-.26-.09a9.68,9.68,0,0,0-1.22-.41,5.17,5.17,0,0,0-1.07-.11,3,3,0,0,0-2.06.64,1.66,1.66,0,0,0-.54,1.26,1.56,1.56,0,0,0,.87,1.42,2.88,2.88,0,0,0,.56.2c.19,0,.5.08.95.13l.66.06a4.46,4.46,0,0,1,.85.15.32.32,0,0,1,.25.31.53.53,0,0,1-.11.3.89.89,0,0,1-.32.25,2.34,2.34,0,0,1-.93.17,3.5,3.5,0,0,1-1.07-.17,2.23,2.23,0,0,1-.82-.39.34.34,0,0,1-.15-.27v-.06a.1.1,0,0,0-.06-.08l-.12-.06a.11.11,0,0,0-.08,0s0,0,0,0l-.63,1.38a.1.1,0,0,0,0,.13l.13.06a.09.09,0,0,0,.1,0c.08-.07.11-.07.11-.07a1,1,0,0,1,.25.1,5.39,5.39,0,0,0,2.32.54,5,5,0,0,0,1.24-.15,2.25,2.25,0,0,0,1.16-.66,1.66,1.66,0,0,0,.42-1.12,1.62,1.62,0,0,0-.67-1.32,2.48,2.48,0,0,0-.68-.31,5.93,5.93,0,0,0-1-.18l-.67-.06a6.44,6.44,0,0,1-.86-.13c-.29-.08-.33-.23-.33-.34a.45.45,0,0,1,.13-.29.81.81,0,0,1,.37-.22,2.55,2.55,0,0,1,.77-.11,3,3,0,0,1,1.73.5c.18.12.2.2.2.22v.07Z"/><path class="cls-4" d="M101.32,117.39l.12.07h.08a.12.12,0,0,0,0,0l.7-1.33a.09.09,0,0,0,0-.07.07.07,0,0,0,0-.06l-.12-.06a.08.08,0,0,0-.1,0,.3.3,0,0,1-.16.07,1.29,1.29,0,0,1-.26-.09,9.68,9.68,0,0,0-1.22-.41,5.17,5.17,0,0,0-1.07-.11,3,3,0,0,0-2.06.64,1.68,1.68,0,0,0-.54,1.26,1.59,1.59,0,0,0,.22.82,1.51,1.51,0,0,0,.65.6,3.23,3.23,0,0,0,.57.2c.18,0,.49.08.94.13l.66.06a4.46,4.46,0,0,1,.85.15.31.31,0,0,1,.25.31.53.53,0,0,1-.11.3,1,1,0,0,1-.32.25,2.34,2.34,0,0,1-.93.17,3.55,3.55,0,0,1-1.07-.17,2.23,2.23,0,0,1-.82-.39.38.38,0,0,1-.15-.27v-.06a.08.08,0,0,0-.06-.08l-.12-.06a.11.11,0,0,0-.08,0s0,0-.05,0l-.63,1.38a.11.11,0,0,0,0,.13l.12.06a.09.09,0,0,0,.1,0l.12-.07a1,1,0,0,1,.25.1,5.39,5.39,0,0,0,2.32.54,5,5,0,0,0,1.24-.15,2.25,2.25,0,0,0,1.16-.66,1.66,1.66,0,0,0,.42-1.12,1.63,1.63,0,0,0-.18-.75,1.51,1.51,0,0,0-.49-.57,2.12,2.12,0,0,0-.68-.31,5.93,5.93,0,0,0-1-.18l-.67-.06a6.44,6.44,0,0,1-.86-.13c-.29-.08-.33-.23-.33-.34a.45.45,0,0,1,.13-.29.81.81,0,0,1,.37-.22,2.55,2.55,0,0,1,.77-.11,3,3,0,0,1,1.73.5c.19.12.21.2.21.22a.35.35,0,0,0,0,.06A.11.11,0,0,0,101.32,117.39Z"/><path class="cls-4" d="M106.31,115.37a3.32,3.32,0,0,0-3,1.42,3,3,0,0,0-.46,1.6,2.94,2.94,0,0,0,.23,1.14,2.67,2.67,0,0,0,.75,1.06,3.55,3.55,0,0,0,2.46.82,3.27,3.27,0,0,0,3-1.41,3,3,0,0,0-.5-3.81A3.65,3.65,0,0,0,106.31,115.37Zm1.82,3.77a1.91,1.91,0,0,1-.48.67,2,2,0,0,1-1.33.45,2,2,0,0,1-1.34-.45,1.77,1.77,0,0,1-.62-1.42A1.79,1.79,0,0,1,105,117a1.94,1.94,0,0,1,1.33-.46,2.07,2.07,0,0,1,1.34.46,1.8,1.8,0,0,1,.62,1.44A2,2,0,0,1,108.13,119.14Z"/><path class="cls-4" d="M119.27,121a.72.72,0,0,1-.31-.12,3.58,3.58,0,0,1-.43-.46l-2.18-2.54,1.9-1.49.33-.26.36-.28.18,0a.1.1,0,0,0,.08-.1v-.13a.09.09,0,0,0-.09-.09h-2.39a.09.09,0,0,0-.09.09v.13a.1.1,0,0,0,.08.1c.13,0,.16.06.16.07s0,0-.12.14l-2.25,1.78V116a.26.26,0,0,1,0-.14.3.3,0,0,1,.17-.07.1.1,0,0,0,.07-.1v-.13a.09.09,0,0,0-.1-.09h-1.81a.09.09,0,0,0-.1.09v.13a.1.1,0,0,0,.07.1.36.36,0,0,1,.17.08.19.19,0,0,1,0,.12v4.79a.19.19,0,0,1,0,.13.36.36,0,0,1-.17.08.1.1,0,0,0-.07.1v.13a.09.09,0,0,0,.1.09h1.81a.09.09,0,0,0,.1-.09v-.13a.1.1,0,0,0-.07-.1.4.4,0,0,1-.17-.07.24.24,0,0,1,0-.14v-1.47l.77-.6c.29.36,1.65,2,1.65,2a2,2,0,0,1,.19.25s0,0-.15.06a.1.1,0,0,0-.08.1v.13a.09.09,0,0,0,.1.09h2.27a.09.09,0,0,0,.1-.09v-.13A.11.11,0,0,0,119.27,121Z"/><path class="cls-4" d="M126.11,115.47H124.4a.1.1,0,0,0-.1.09v.13a.1.1,0,0,0,.07.1.36.36,0,0,1,.17.08.21.21,0,0,1,0,.13v2.82a3.12,3.12,0,0,1,0,.7.69.69,0,0,1-.18.35,2.46,2.46,0,0,1-2.66,0,.64.64,0,0,1-.19-.35,3.71,3.71,0,0,1,0-.7V116a.2.2,0,0,1,0-.14.39.39,0,0,1,.16-.07.1.1,0,0,0,.07-.1v-.13a.09.09,0,0,0-.1-.09H119.8a.09.09,0,0,0-.1.09v.13a.1.1,0,0,0,.07.1.36.36,0,0,1,.17.08.21.21,0,0,1,0,.13v3.17a3.06,3.06,0,0,0,.17,1.06,1.48,1.48,0,0,0,.64.74,4.47,4.47,0,0,0,2.18.44,3.17,3.17,0,0,0,2.61-.84,2.29,2.29,0,0,0,.36-1.4V116a.2.2,0,0,1,0-.13.36.36,0,0,1,.17-.08.1.1,0,0,0,.07-.1v-.13A.1.1,0,0,0,126.11,115.47Z"/><path class="cls-4" d="M134.48,115.47h-2.2a.1.1,0,0,0-.1.09v.13a.1.1,0,0,0,.09.1c.13,0,.13.06.13.1a.68.68,0,0,1-.1.23l-1.52,2.71-1.51-2.76a.29.29,0,0,1,0-.15s0-.1.13-.13a.1.1,0,0,0,.07-.1v-.13a.1.1,0,0,0-.1-.09h-2.24a.1.1,0,0,0-.1.09v.13a.1.1,0,0,0,.07.1.36.36,0,0,1,.17.08.19.19,0,0,1,0,.12v4.79a.26.26,0,0,1,0,.14.4.4,0,0,1-.17.07.1.1,0,0,0-.07.1v.13a.1.1,0,0,0,.1.09h1.71a.09.09,0,0,0,.09-.09v-.13a.1.1,0,0,0-.07-.1.28.28,0,0,1-.16-.07.2.2,0,0,1,0-.14v-3.1l2,3.58a.09.09,0,0,0,.08,0,.1.1,0,0,0,.09,0l2.08-3.6v3.11a.26.26,0,0,1,0,.14.39.39,0,0,1-.17.07.1.1,0,0,0-.07.1v.13a.09.09,0,0,0,.1.09h1.81a.09.09,0,0,0,.1-.09v-.13a.1.1,0,0,0-.07-.1.28.28,0,0,1-.17-.08.21.21,0,0,1,0-.13V116a.19.19,0,0,1,0-.12.43.43,0,0,1,.17-.08.1.1,0,0,0,.07-.1v-.13A.09.09,0,0,0,134.48,115.47Z"/><path class="cls-4" d="M142.22,121a.45.45,0,0,1-.24-.11,1.29,1.29,0,0,1-.23-.35l-2.22-4.36a.65.65,0,0,1-.07-.23s0-.1.19-.15a.1.1,0,0,0,.07-.1v-.13a.1.1,0,0,0-.1-.09h-2.07a.09.09,0,0,0-.09.09v.13a.1.1,0,0,0,.06.1c.16,0,.18.12.18.18a.61.61,0,0,1-.09.29l-2.14,4.34a1.14,1.14,0,0,1-.19.3.51.51,0,0,1-.21.09.1.1,0,0,0-.08.1v.13a.09.09,0,0,0,.09.09H137a.09.09,0,0,0,.09-.09v-.13a.1.1,0,0,0-.07-.1c-.14,0-.22-.09-.22-.16a.66.66,0,0,1,.08-.22s.28-.56.36-.74h2.53l.38.74a.7.7,0,0,1,.07.22s0,.13-.2.16a.1.1,0,0,0-.08.1v.13a.09.09,0,0,0,.1.09h2.14a.09.09,0,0,0,.1-.09v-.13A.11.11,0,0,0,142.22,121Zm-2.89-2.08h-1.6l.81-1.7Z"/><path class="cls-4" d="M150.14,115.47h-2.21a.09.09,0,0,0-.09.09v.13a.09.09,0,0,0,.08.1c.13,0,.13.06.13.1a.68.68,0,0,1-.1.23l-1.52,2.71-1.5-2.76a.26.26,0,0,1-.05-.15c0-.06,0-.11.12-.13a.1.1,0,0,0,.08-.1v-.13a.1.1,0,0,0-.1-.09h-2.24a.1.1,0,0,0-.1.09v.13a.1.1,0,0,0,.07.1.36.36,0,0,1,.17.08.19.19,0,0,1,0,.12v4.79a.26.26,0,0,1,0,.14.4.4,0,0,1-.17.07.1.1,0,0,0-.07.1v.13a.1.1,0,0,0,.1.09h1.71a.09.09,0,0,0,.09-.09v-.13a.1.1,0,0,0-.07-.1.39.39,0,0,1-.16-.07.18.18,0,0,1,0-.14v-3.1l2,3.58a.1.1,0,0,0,.08,0,.1.1,0,0,0,.09,0l2.08-3.6v3.11a.26.26,0,0,1,0,.14.4.4,0,0,1-.16.07.1.1,0,0,0-.08.1v.13a.1.1,0,0,0,.1.09h1.82a.09.09,0,0,0,.09-.09v-.13a.1.1,0,0,0-.07-.1.39.39,0,0,1-.17-.07.26.26,0,0,1,0-.14V116a.25.25,0,0,1,0-.13.39.39,0,0,1,.17-.07.1.1,0,0,0,.07-.1v-.13A.09.09,0,0,0,150.14,115.47Z"/><path class="cls-4" d="M154.44,115.37a3.32,3.32,0,0,0-3,1.42,3,3,0,0,0-.46,1.6,3.12,3.12,0,0,0,.22,1.14,2.91,2.91,0,0,0,.76,1.06,3.52,3.52,0,0,0,2.46.82,3.27,3.27,0,0,0,3-1.41,3,3,0,0,0-.5-3.81A3.65,3.65,0,0,0,154.44,115.37Zm1.82,3.77a1.88,1.88,0,0,1-.48.67,2,2,0,0,1-1.33.45,2,2,0,0,1-1.34-.45,1.81,1.81,0,0,1-.62-1.42,1.79,1.79,0,0,1,.62-1.41,1.94,1.94,0,0,1,1.33-.46,2.05,2.05,0,0,1,1.34.46,1.8,1.8,0,0,1,.62,1.44A2,2,0,0,1,156.26,119.14Z"/><path class="cls-4" d="M164,115.2h-.13a.11.11,0,0,0-.1.07c0,.11-.06.15-.08.16s-.07,0-.14,0h-4.88c-.06,0-.11,0-.13,0s-.05-.06-.09-.16a.1.1,0,0,0-.09-.07h-.13a.09.09,0,0,0-.1.1v1.46a.09.09,0,0,0,.1.1h.13a.09.09,0,0,0,.09-.07c0-.11.07-.15.09-.16s.07,0,.13,0h1.71v4.19a.24.24,0,0,1,0,.14.4.4,0,0,1-.17.07.1.1,0,0,0-.07.1v.13a.09.09,0,0,0,.1.09H162a.09.09,0,0,0,.1-.09v-.13a.1.1,0,0,0-.07-.1.48.48,0,0,1-.17-.07.26.26,0,0,1,0-.14v-4.19h1.7a.21.21,0,0,1,.14,0s.05.05.08.16a.11.11,0,0,0,.1.07H164a.1.1,0,0,0,.1-.1V115.3A.1.1,0,0,0,164,115.2Z"/><path class="cls-4" d="M170.26,116.19a3.62,3.62,0,0,0-2.48-.82,3.31,3.31,0,0,0-3,1.42,2.9,2.9,0,0,0-.46,1.6,2.93,2.93,0,0,0,.22,1.14,2.85,2.85,0,0,0,.75,1.06,3.56,3.56,0,0,0,2.47.82,3.28,3.28,0,0,0,3-1.41,2.91,2.91,0,0,0,.47-1.57A2.87,2.87,0,0,0,170.26,116.19Zm-.66,3a1.74,1.74,0,0,1-.47.67,2.21,2.21,0,0,1-2.67,0,1.92,1.92,0,0,1,0-2.83,2,2,0,0,1,1.33-.46,2.07,2.07,0,0,1,1.34.46,1.92,1.92,0,0,1,.47,2.16Z"/></svg>
