<svg id="Layer_1" data-name="Layer 1" width="240" height="240" xmlns="http://www.w3.org/2000/svg" viewBox="0 0 240 240"><defs><style>.cls-1{fill:none;}.cls-2{fill:#b19e60;}.cls-3{fill:#fff;}.cls-4{fill:#003e22;}.cls-5{fill:#007c32;}</style></defs><path class="cls-1" d="M211.72,94.46h0a33.08,33.08,0,0,0-1.59-7l-.08-.2a45,45,0,0,0-2.45-4.87,22.35,22.35,0,0,0-1.25-2,12.53,12.53,0,0,0-1.21-1.48,6.09,6.09,0,0,0-4.49-2.06h-.12a3.36,3.36,0,0,0-.4,0,6,6,0,0,0-4.62,2.73l-2,3.08a45.16,45.16,0,0,1-9.29,10.35,15.73,15.73,0,0,0-6.73-4,16.92,16.92,0,0,0-4.81-.73h-.05a14.63,14.63,0,0,0-6.23,1.4V50.6a6.06,6.06,0,0,0-6-6.07h-.09a6,6,0,0,0-4,1.53l-4.12,3.63s0,0,0,.05a15.36,15.36,0,0,1-2.47,1.44,12.59,12.59,0,0,1-5.2,1.29h-.21a12.36,12.36,0,0,1-6.92-2.24C134.53,48.44,131,45.08,127.25,39l-2.12-3.45a6.06,6.06,0,0,0-4.95-2.88h-.3a6.06,6.06,0,0,0-5,2.87L112.75,39c-3.77,6.13-7.28,9.49-10.08,11.29a12.31,12.31,0,0,1-6.93,2.23h-.18a12.87,12.87,0,0,1-5.33-1.34,15.46,15.46,0,0,1-1.81-1l-.5-.34-.06,0L83.7,46.05a6.06,6.06,0,0,0-10.07,4.54V89.75a14.63,14.63,0,0,0-6.19-1.4h-.11a16.85,16.85,0,0,0-4.77.73,15.78,15.78,0,0,0-6.75,4,45.23,45.23,0,0,1-9.28-10.33l-2-3.11a6.06,6.06,0,0,0-4.79-2.73h-.28A6.09,6.09,0,0,0,34.84,79a11.77,11.77,0,0,0-1.18,1.45A39.52,39.52,0,0,0,30,87.22l-.08.19a32.81,32.81,0,0,0-1.61,7,53.92,53.92,0,0,0-.45,6.47c0,.66,0,1.25.07,1.84.49,5.18,1.55,12.07,5.51,17.83,4.71,6.74,9.77,10.47,13.91,12.41l.06,0a10.31,10.31,0,0,1-1.53.57,4.75,4.75,0,0,1-.51.14l-.13,0h0l-.09,0-2.51.44a6,6,0,0,0-4,2.68,6.11,6.11,0,0,0-1,3.29,5.79,5.79,0,0,0,.2,1.5l.66,2.6a11.57,11.57,0,0,0,2.6,4.86,12.44,12.44,0,0,0,3.55,2.71,13.9,13.9,0,0,0,3.45,1.23,11.45,11.45,0,0,0,4.48,1.59,15.65,15.65,0,0,0-1.91,2.17h0a12.57,12.57,0,0,0-2.51,7.27h0v.15a11.48,11.48,0,0,0,3.33,7.95,64.71,64.71,0,0,0,5.11,5.1A12.78,12.78,0,0,0,64,180.89a12.58,12.58,0,0,0,3.23,4.46c6.26,5.8,13.6,9.1,21.72,11.71l.11,0,.08,0A96.09,96.09,0,0,0,108,201a54.89,54.89,0,0,0,8.06,5.13l1.15.6a6.18,6.18,0,0,0,2.57.67h.29a6.22,6.22,0,0,0,2.64-.67l1.15-.6A54.37,54.37,0,0,0,132,201a96.62,96.62,0,0,0,19-3.88h0l.11,0c8.16-2.62,15.51-5.92,21.79-11.74a12.53,12.53,0,0,0,3.2-4.45,12.86,12.86,0,0,0,7.44-3.6,64.37,64.37,0,0,0,5.09-5.1,11.4,11.4,0,0,0,3.3-7.88v-.15a12.6,12.6,0,0,0-2.47-7.25l0-.06a15.06,15.06,0,0,0-1.9-2.15,11.39,11.39,0,0,0,4.48-1.59,14.11,14.11,0,0,0,3.46-1.23,12.59,12.59,0,0,0,3.54-2.71,11.57,11.57,0,0,0,2.6-4.86l.67-2.61a5.8,5.8,0,0,0,.19-1.49,6.06,6.06,0,0,0-5-6l-2.56-.45h0a11.2,11.2,0,0,1-2.15-.73l0,0,.05,0c4.14-1.93,9.2-5.66,13.9-12.4,4-5.76,5-12.65,5.52-17.83.05-.59.07-1.19.07-1.83A53.65,53.65,0,0,0,211.72,94.46Z"/><path class="cls-2" d="M209.91,94.69a31,31,0,0,0-1.49-6.6l-.06-.14A43.75,43.75,0,0,0,206,83.3a20.83,20.83,0,0,0-1.17-1.83,8.65,8.65,0,0,0-1.06-1.29,4.21,4.21,0,0,0-3.19-1.49h-.29A4.23,4.23,0,0,0,197,80.62l-2,3.08a46.2,46.2,0,0,1-11.08,11.84,13.4,13.4,0,0,0-7-4.71,14.74,14.74,0,0,0-4.28-.65h-.05a12.58,12.58,0,0,0-6.4,1.72,5.84,5.84,0,0,0-.73-.05h-.2l-.72,0V50.6a4.23,4.23,0,0,0-4.24-4.24,4.18,4.18,0,0,0-2.81,1.06l-4.14,3.64-.06.06a16.11,16.11,0,0,1-2.9,1.72,14.25,14.25,0,0,1-6,1.45h-.18a14.19,14.19,0,0,1-7.89-2.52c-3.08-2-6.76-5.56-10.64-11.86l-2.12-3.46a4.26,4.26,0,0,0-3.46-2h-.24a4.24,4.24,0,0,0-3.45,2l-2.13,3.46c-3.87,6.3-7.56,9.88-10.64,11.86a14.18,14.18,0,0,1-7.9,2.52h-.17a14.42,14.42,0,0,1-6.15-1.52,18.21,18.21,0,0,1-2-1.14l-.58-.41-.15-.11,0,0L82.5,47.41a4.28,4.28,0,0,0-4.57-.67,4.24,4.24,0,0,0-2.48,3.86V91.88l-.69,0h-.21a5.87,5.87,0,0,0-.74.05,12.73,12.73,0,0,0-6.38-1.72h-.11a14.82,14.82,0,0,0-4.24.65,13.36,13.36,0,0,0-7,4.71A46.29,46.29,0,0,1,45,83.71l-2-3.1a4.22,4.22,0,0,0-3.36-1.91h-.19a4.2,4.2,0,0,0-3.22,1.49,9.32,9.32,0,0,0-1.06,1.29A37.35,37.35,0,0,0,31.64,88l-.06.14a31,31,0,0,0-1.49,6.6,50.26,50.26,0,0,0-.44,6.24c0,.61,0,1.16.06,1.67.48,5.07,1.54,11.66,5.2,17,4.54,6.49,9.34,10,13.19,11.8a23.5,23.5,0,0,0,2.72,1.08l-.22.38,0,.07a3.33,3.33,0,0,1-.78.82,8.36,8.36,0,0,1-1.63,1l0,0a11.94,11.94,0,0,1-1.74.65c-.25.08-.46.13-.61.17l-.18,0H45.5l-2.57.45a4.25,4.25,0,0,0-3.5,4.18,4,4,0,0,0,.13,1.05l.66,2.6a9.74,9.74,0,0,0,2.2,4.09,10.46,10.46,0,0,0,3,2.31,12.43,12.43,0,0,0,3.32,1.13,9.86,9.86,0,0,0,5.4,1.61h0a10.61,10.61,0,0,0,1.69-.14c.11.29.24.59.36.89L53.86,156h0a12.64,12.64,0,0,0-1.76,2l0,0A10.75,10.75,0,0,0,50,164.15v0h0v.1A9.73,9.73,0,0,0,52.77,171a62.54,62.54,0,0,0,5,5,10.79,10.79,0,0,0,7.37,3.16h.1A10.62,10.62,0,0,0,68.4,184c6,5.56,13.06,8.76,21.07,11.33l.1,0h0a94.55,94.55,0,0,0,19.15,3.86,52.31,52.31,0,0,0,8.19,5.27l1.15.6a4.2,4.2,0,0,0,1.8.47h.23a4.23,4.23,0,0,0,1.8-.47l1.14-.6a52.4,52.4,0,0,0,8.2-5.27,94.59,94.59,0,0,0,19.14-3.86h0l.08,0c8-2.58,15.07-5.78,21.08-11.34a10.69,10.69,0,0,0,3.15-4.86h.08a10.78,10.78,0,0,0,7.38-3.16,60.94,60.94,0,0,0,5-5,9.64,9.64,0,0,0,2.82-6.66v-.1h0v0a10.74,10.74,0,0,0-2.13-6.19l0,0a12.64,12.64,0,0,0-1.76-2h0l-2.38-2.22c.13-.3.25-.6.36-.89a10.61,10.61,0,0,0,1.69.14h0a9.89,9.89,0,0,0,5.41-1.61,12.55,12.55,0,0,0,3.32-1.13,10.59,10.59,0,0,0,3-2.31,9.73,9.73,0,0,0,2.19-4.09l.66-2.6a4.16,4.16,0,0,0-.54-3.35,4.22,4.22,0,0,0-2.84-1.88l-2.56-.45h-.05a13.66,13.66,0,0,1-2.56-.87l0,0a8.27,8.27,0,0,1-1.62-1,3.24,3.24,0,0,1-.79-.82l0-.07-.22-.38a22.82,22.82,0,0,0,2.72-1.08c3.86-1.81,8.65-5.31,13.19-11.8,3.66-5.29,4.73-11.88,5.2-17,0-.52.06-1.06.06-1.67A50.26,50.26,0,0,0,209.91,94.69Z"/><path class="cls-3" d="M205.39,89.23c-1.36-3.13-3.08-6-4-6.87a1,1,0,0,0-1.65,0l-2,3.09c-3.73,5.72-9.16,11.39-15.09,14.77a8.23,8.23,0,0,0-.89-2.16A9.84,9.84,0,0,0,176,93.93a11.65,11.65,0,0,0-3.34-.51h0a9.37,9.37,0,0,0-5.79,2,4.26,4.26,0,0,0-1.46-.3h-.09a3.82,3.82,0,0,0-2.08.65,4,4,0,0,0-1.28,1.38,3.86,3.86,0,0,0-.4,1.1c0,.1,0,.15-.11.15s-.09-.15-.09-.15V50.6a1,1,0,0,0-1.66-.75l-4.14,3.65,0,0a19.12,19.12,0,0,1-11.12,4h-.11a17.39,17.39,0,0,1-9.64-3C131,52.19,127,48.21,122.94,41.61l-2.12-3.46a1,1,0,0,0-.82-.47,1,1,0,0,0-.81.47l-2.13,3.46C113,48.21,109,52.19,105.42,54.5a17.44,17.44,0,0,1-9.65,3h-.11a19.15,19.15,0,0,1-11.12-4l0,0-4.15-3.65a1,1,0,0,0-1.07-.16,1,1,0,0,0-.59.91V98.21s0,.13-.09.15-.08,0-.1-.15a4.23,4.23,0,0,0-.41-1.1,4,4,0,0,0-1.28-1.38,3.77,3.77,0,0,0-2.08-.65h-.08a4.27,4.27,0,0,0-1.47.3,9.35,9.35,0,0,0-5.79-2h0a11.66,11.66,0,0,0-3.35.51,9.87,9.87,0,0,0-5.75,4.16,8.19,8.19,0,0,0-.88,2.16c-5.93-3.38-11.37-9-15.1-14.77l-2-3.09a1,1,0,0,0-1.65,0c-.91.82-2.63,3.74-4,6.87-1.41,3.73-1.89,10.64-1.68,13.08.43,4.82,1.54,11,4.63,15.38,8.81,12.6,18,12.35,18,12.35a27.84,27.84,0,0,1-2.14,4.4,8.64,8.64,0,0,1-3.91,3.19,16.7,16.7,0,0,1-3.35,1.12h0l-2.62.46a1,1,0,0,0-.79,1.24l.67,2.6a6.72,6.72,0,0,0,3.54,4.3,8.65,8.65,0,0,0,3.12.94l.38.29a6.47,6.47,0,0,0,3.75,1.16h0a9.45,9.45,0,0,0,3.69-.82,48.52,48.52,0,0,0,2.29,5.6l-4.1,3.82a9.15,9.15,0,0,0-1.34,1.5,7.46,7.46,0,0,0-1.53,4.34v.09a6.45,6.45,0,0,0,1.91,4.44A60.48,60.48,0,0,0,60,173.58a7.64,7.64,0,0,0,5.19,2.31h0a6.8,6.8,0,0,0,2.92-.68,9.35,9.35,0,0,0-.08.95v.12a7.23,7.23,0,0,0,2.49,5.28c5.54,5.15,12.08,8.16,19.91,10.67l.09,0h0A93.27,93.27,0,0,0,110,196.09a50.57,50.57,0,0,0,8.42,5.53l1.15.59a1,1,0,0,0,.42.11,1.09,1.09,0,0,0,.43-.11l1.14-.59a50.57,50.57,0,0,0,8.42-5.53,93.37,93.37,0,0,0,19.45-3.82h0l.08,0c7.84-2.51,14.37-5.52,19.91-10.67a7.23,7.23,0,0,0,2.49-5.28v-.12a9.35,9.35,0,0,0-.08-.95,6.83,6.83,0,0,0,2.92.68h.05a7.62,7.62,0,0,0,5.19-2.31,60.48,60.48,0,0,0,4.87-4.87,6.46,6.46,0,0,0,1.92-4.44v-.09a7.53,7.53,0,0,0-1.53-4.34,10.23,10.23,0,0,0-1.34-1.5l-4.11-3.82a48.52,48.52,0,0,0,2.29-5.6,9.49,9.49,0,0,0,3.69.82h0a6.47,6.47,0,0,0,3.75-1.16,3.8,3.8,0,0,0,.38-.29,8.64,8.64,0,0,0,3.13-.94,6.75,6.75,0,0,0,3.54-4.3l.66-2.6a1,1,0,0,0-.79-1.24l-2.62-.46h0a16.29,16.29,0,0,1-3.35-1.12,8.62,8.62,0,0,1-3.92-3.19,28.76,28.76,0,0,1-2.14-4.4s9.16.25,18-12.35c3.09-4.41,4.21-10.56,4.63-15.38C207.27,99.87,206.8,93,205.39,89.23Z"/><path class="cls-4" d="M120,43.44C101.61,73.28,82.12,56.12,82.12,56.12v54.46s0,68.33,37.85,87.94c37.85-19.61,37.85-87.94,37.85-87.94V56.12S138.32,73.28,120,43.44"/><path class="cls-3" d="M120,55.89s-13.62,18.49-34,11v44.35A171.18,171.18,0,0,0,91,148.54c2.37,9.28,5.85,18.94,10.85,27.3,4.53,7.57,10.25,14,17.49,18.38l.55.33.07,0,.06,0,.56-.33c7.23-4.36,12.95-10.81,17.48-18.38,5-8.36,8.48-18,10.85-27.3A170.49,170.49,0,0,0,154,111.21V66.86C133.58,74.38,120,55.89,120,55.89Z"/><path class="cls-4" d="M151.84,111.06v.14a169,169,0,0,1-5,36.81c-2.33,9.14-5.76,18.62-10.61,26.72-4.28,7.16-9.6,13.18-16.2,17.31l-.06,0-.07,0c-6.6-4.13-11.92-10.15-16.2-17.31-4.85-8.1-8.28-17.58-10.61-26.72a169,169,0,0,1-5-36.81V96.78A197.47,197.47,0,0,1,120,94.33a197.34,197.34,0,0,1,31.87,2.45Z"/><path class="cls-4" d="M120,61.18a2,2,0,1,1-2,2A2,2,0,0,1,120,61.18Z"/><path class="cls-4" d="M151.84,85.55h-6.66s-4.6,0-7-3.2a9,9,0,0,0-6.61-3.82H108.41a9,9,0,0,0-6.61,3.82c-2.45,3.21-7,3.2-7,3.2H88.09V75.8c13.22,0,21.94-5.06,26.86-9.21a1.68,1.68,0,0,0,2.61,1.21,2.47,2.47,0,0,0,4.81,0,1.71,1.71,0,0,0,.94.29,1.68,1.68,0,0,0,1.67-1.5c4.93,4.15,13.64,9.21,26.86,9.21Z"/><rect class="cls-3" x="121.28" y="71.3" width="2.75" height="5.37"/><rect class="cls-3" x="115.9" y="71.3" width="2.74" height="5.37"/><path class="cls-5" d="M115.9,98.67v83.38H124V98.67c-1.35,0-2.71,0-4.07,0s-2.73,0-4.07,0m16.28.3v74.16l.36-.6a87.62,87.62,0,0,0,7.78-17.47V99.6c-2.63-.26-5.35-.47-8.14-.63M99.61,155.06a88.19,88.19,0,0,0,7.78,17.47l.36.6V99q-4.19.24-8.14.63Z"/><path class="cls-4" d="M130.41,166a1,1,0,0,0-.28-.23v-.48c0-.05,0-.19,0-.52a1,1,0,0,0,.36-.71,6,6,0,0,1,.09-.73,1,1,0,0,0-.13-.73l0,0a1,1,0,0,0-.76-.47,5.79,5.79,0,0,0-.61,0l-1.83,0-1.09,0a1,1,0,0,0-.57.16,4.56,4.56,0,0,0-.53-.13,5.86,5.86,0,0,0-1-.09,4.37,4.37,0,0,0-2,.44l-.09-.1a1,1,0,0,0-.73-.28c-.25,0-.42,0-.74,0a5.43,5.43,0,0,1-.57,0,1,1,0,0,0-.73.28,1,1,0,0,0-.31.62c-.17-.22-.3-.4-.4-.51a1,1,0,0,0-.83-.38h-.58l-.63,0a1.26,1.26,0,0,0-.27,0,.73.73,0,0,0-.3,0l-1,0-.91,0a1,1,0,0,0-.58.16,3.86,3.86,0,0,0-.58-.17,4.76,4.76,0,0,0-.86-.07,2.86,2.86,0,0,0-2.1.72,2.41,2.41,0,0,0-.74,1.76,2.27,2.27,0,0,0,.3,1.15h0a1,1,0,0,0-.25.64h0v0c0,.27,0,.48,0,.61s0,.15,0,.27a1,1,0,0,0,.51,1.14,4.78,4.78,0,0,0,.93.35,4.43,4.43,0,0,0,1,.1h.2a1,1,0,0,0-.24.64V170a1,1,0,0,0,.37.78,1.08,1.08,0,0,0,.4.2v0c0,.6,0,1.29,0,2.07v.06a1,1,0,0,0-.65.35l0,.05a1,1,0,0,0-.23.64v.24a1,1,0,0,0,.23.64l0,.05a1,1,0,0,0,.8.36c.59,0,.93,0,1.42,0l1,0h.38a.78.78,0,0,0,.26,0,1,1,0,0,0,.61.22h.06a4.13,4.13,0,0,0,3-1.45,2.68,2.68,0,0,0,2.37,1.35h0a2.73,2.73,0,0,0,1.67-.58,1.06,1.06,0,0,0,.37.29,3.46,3.46,0,0,0,.69.22,3.38,3.38,0,0,0,.72.07h0a3.44,3.44,0,0,0,2.38-.92,3.09,3.09,0,0,0,1-2.28,2.55,2.55,0,0,0-.73-1.87,1,1,0,0,0,.33-.65l.11-1a.49.49,0,0,0,0-.17H129c.21,0,.43,0,.65,0a1,1,0,0,0,.92-1,7.26,7.26,0,0,1,.07-.92A1,1,0,0,0,130.41,166Z"/><path class="cls-3" d="M116.39,167.65l.72,0,.66,0v-.28a.81.81,0,0,1-.37-.06s-.05,0-.06-.06a3.71,3.71,0,0,1,0-.62c0-.49,0-.91,0-1.26v-1.28c.25.33,2.32,2.94,2.89,3.56a3.35,3.35,0,0,1,.56,0l0,0c0-.36,0-.62,0-1V164q0-.42,0-.51a.16.16,0,0,1,0-.07.18.18,0,0,1,.07-.05.88.88,0,0,1,.34,0V163l-.78,0-.61,0v.28a1.09,1.09,0,0,1,.36,0,.09.09,0,0,1,.07.05,1.18,1.18,0,0,1,0,.39c0,.36,0,.79,0,1.28v1.31c-.31-.33-2.18-2.71-2.68-3.36l-.62,0-.67,0v.28c.29,0,.36,0,.4.08a.09.09,0,0,1,.06.07,2.38,2.38,0,0,1,0,.64v1.39c0,.26,0,.66,0,1.19a2.17,2.17,0,0,1,0,.56.14.14,0,0,1-.07.08s-.1,0-.37.05Z"/><path class="cls-3" d="M125.56,164h-.28c0-.17-.11-.24-.22-.33a1.2,1.2,0,0,0-.44-.2,2.23,2.23,0,0,0-.6-.08,1.68,1.68,0,0,0-1.26.49,1.9,1.9,0,0,0-.47,1.36,2.13,2.13,0,0,0,.56,1.53,1.89,1.89,0,0,0,1.43.54,2.7,2.7,0,0,0,.65-.07,3.45,3.45,0,0,0,.68-.26l.08.08a2.07,2.07,0,0,0-.15.34,3.58,3.58,0,0,1-.74.28,3.4,3.4,0,0,1-.82.08,3.25,3.25,0,0,1-1.46-.3,2.23,2.23,0,0,1-.92-.85,2.52,2.52,0,0,1-.32-1.27,2.19,2.19,0,0,1,.73-1.68,2.91,2.91,0,0,1,2-.65,4.76,4.76,0,0,1,.84.07,6.42,6.42,0,0,1,.83.23l0,.05Z"/><path class="cls-3" d="M126.21,167.65v-.18a1.13,1.13,0,0,0,.32-.19,19.44,19.44,0,0,0,.07-2.16c0-.75,0-1.24,0-1.49s0-.21-.07-.24-.12-.07-.4-.09V163l1.14,0,1.81,0,.52,0,0,0a6.59,6.59,0,0,0-.1.87h-.26a1.6,1.6,0,0,0,0-.42s-.06,0-.15-.06a4.24,4.24,0,0,0-.84-.06l-.64,0c0,.68,0,1.22,0,1.63l.66,0a2.75,2.75,0,0,0,.55,0s.06-.05.08-.1a1.46,1.46,0,0,0,.05-.32h.28c0,.37,0,.52,0,.64l0,.62h-.28a1,1,0,0,0-.06-.38.15.15,0,0,0-.09-.06,5.56,5.56,0,0,0-.75,0,3.25,3.25,0,0,0-.42,0c0,.12,0,.23,0,.35,0,.63,0,1.11,0,1.45h.65a8,8,0,0,0,1-.06,5,5,0,0,0,.15-.59h.27a9.49,9.49,0,0,0-.08,1l-.57,0h-.72l-.91,0Z"/><path class="cls-3" d="M113.93,167.65v-.28c.3,0,.38,0,.42-.08s.06-.12.07-.26c0-.29,0-.83,0-1.62,0-.3,0-.74,0-1.32a3.29,3.29,0,0,0,0-.65.1.1,0,0,0-.06-.08s-.12-.05-.41-.06V163l.94,0,1,0v.28c-.3,0-.37,0-.41.06a.3.3,0,0,0-.08.21c0,.21,0,.64,0,1.28v1.8a2.25,2.25,0,0,0,.06.6.17.17,0,0,0,.09.07,1.17,1.17,0,0,0,.36.05v.28h-.29l-.66,0Z"/><path class="cls-3" d="M110.15,166.25h.29a3.42,3.42,0,0,0,0,.57.64.64,0,0,0,.19.22,1.28,1.28,0,0,0,.42.23,1.89,1.89,0,0,0,.53.08,1.08,1.08,0,0,0,.75-.25.8.8,0,0,0,.27-.62.71.71,0,0,0-.18-.52,1.34,1.34,0,0,0-.72-.26,3.87,3.87,0,0,1-1-.24,1,1,0,0,1-.43-.4,1.19,1.19,0,0,1-.16-.64,1.44,1.44,0,0,1,.44-1,1.93,1.93,0,0,1,1.4-.44,3.4,3.4,0,0,1,.67.06,2.7,2.7,0,0,1,.59.19l0,.07c0,.15-.11.61-.11.7h-.28a.65.65,0,0,0,0-.3.77.77,0,0,0-.33-.23,1.34,1.34,0,0,0-.58-.12,1,1,0,0,0-.71.22.72.72,0,0,0-.25.56.62.62,0,0,0,.11.37.55.55,0,0,0,.28.24,6,6,0,0,0,.79.16,3.53,3.53,0,0,1,.75.17.93.93,0,0,1,.48.39,1.26,1.26,0,0,1,.17.67,1.48,1.48,0,0,1-.54,1.17,2.15,2.15,0,0,1-1.46.46,3,3,0,0,1-.76-.08,3.37,3.37,0,0,1-.7-.26,2.37,2.37,0,0,0,.08-.42,6.41,6.41,0,0,0,0-.7"/><path class="cls-3" d="M118,171.58a2.8,2.8,0,0,1-.65.57,1.27,1.27,0,0,1-.62.13,1.17,1.17,0,0,1-1-.43,1.7,1.7,0,0,1-.37-1.18,2.06,2.06,0,0,1,.52-1.47,1.87,1.87,0,0,1,2.31-.3,1.71,1.71,0,0,1,.65.77,3.26,3.26,0,0,1,.23,1.34,4.37,4.37,0,0,1-.37,1.9,3.14,3.14,0,0,1-1.08,1.21,3.24,3.24,0,0,1-1.64.51l-.34-.28.09-.15.35,0a1.57,1.57,0,0,0,.89-.29,1.93,1.93,0,0,0,.67-.81A4.64,4.64,0,0,0,118,171.58Zm-.72-.05a.69.69,0,0,0,.55-.22,1.15,1.15,0,0,0,.2-.74,2.07,2.07,0,0,0-.24-1.15.72.72,0,0,0-.62-.35.63.63,0,0,0-.54.28,1.4,1.4,0,0,0-.21.85,1.82,1.82,0,0,0,.25,1.05A.7.7,0,0,0,117.28,171.53Z"/><path class="cls-3" d="M120.72,171.53a3.62,3.62,0,0,1,.65-.57,1.43,1.43,0,0,1,.62-.12,1.19,1.19,0,0,1,1,.42,1.74,1.74,0,0,1,.37,1.18,2.2,2.2,0,0,1-.55,1.54,1.68,1.68,0,0,1-1.3.55,1.7,1.7,0,0,1-1.62-1.05,3.2,3.2,0,0,1-.24-1.35,4.09,4.09,0,0,1,.39-1.85,3.12,3.12,0,0,1,1.12-1.19,3,3,0,0,1,1.58-.46l.35.31-.13.14a2,2,0,0,0-.36,0,1.49,1.49,0,0,0-.83.29,1.89,1.89,0,0,0-.67.78A4.18,4.18,0,0,0,120.72,171.53Zm.74.05a.71.71,0,0,0-.56.23,1.09,1.09,0,0,0-.2.72,2.31,2.31,0,0,0,.23,1.2.72.72,0,0,0,.62.36.66.66,0,0,0,.54-.28,1.5,1.5,0,0,0,.21-.89,1.77,1.77,0,0,0-.25-1A.69.69,0,0,0,121.46,171.58Z"/><path class="cls-3" d="M127,169.71c-.5,0-.88,0-1.37,0h-1l0,1.36a1.87,1.87,0,0,1,.53-.24,1.84,1.84,0,0,1,.55-.07,1.75,1.75,0,0,1,1.27.43,1.49,1.49,0,0,1,.44,1.16,2.06,2.06,0,0,1-.7,1.55,2.45,2.45,0,0,1-1.74.65,3,3,0,0,1-.52-.05,1.92,1.92,0,0,1-.48-.15,9.71,9.71,0,0,0-.27-1.17v0L124,173a2.15,2.15,0,0,0,.64.8,1.27,1.27,0,0,0,.72.21,1,1,0,0,0,.77-.33,1.24,1.24,0,0,0,.3-.88,1.21,1.21,0,0,0-.31-.89,1.07,1.07,0,0,0-.83-.33,1.34,1.34,0,0,0-.46.08,2,2,0,0,0-.5.28l-.16-.1c0-.68.07-1.24.07-1.68a12.64,12.64,0,0,0-.07-1.46l.06-.05c.61,0,1.16.05,1.67.05s.87,0,1.26-.05Z"/><path class="cls-3" d="M115.16,174.11a2,2,0,0,1-.68-.1.21.21,0,0,1-.1-.15,8.4,8.4,0,0,1,0-1.18c0-.94,0-1.73,0-2.38s0-1.18.08-1.56l-.11-.06a17.9,17.9,0,0,1-1.88.66V170l.56-.12a.24.24,0,0,1,.11,0s.07,0,.08.08a9,9,0,0,1,0,1.09q0,.91,0,2.1a3.69,3.69,0,0,1-.07.81.22.22,0,0,1-.11.1,2.61,2.61,0,0,1-.7.11l0,0v.24l0,0c.59,0,1,0,1.45,0h1.4l0,0v-.24Z"/><path class="cls-4" d="M108.54,85.08v-.27a1,1,0,0,0,.39,0s.09-.1.09-.32,0-.25,0-.72V82a7.2,7.2,0,0,0,0-1,.13.13,0,0,0-.06-.07s-.11-.05-.4-.07V80.6l.92,0,1,0v.26a1.16,1.16,0,0,0-.37.06s0,0-.06.06a1.46,1.46,0,0,0,0,.37c0,.31,0,.62,0,.93v.27h2q0-1,0-1.38a.3.3,0,0,0-.06-.22c-.05,0-.12-.07-.4-.09V80.6l1,0,.92,0v.26a1.12,1.12,0,0,0-.38.06.17.17,0,0,0-.06.06,2.72,2.72,0,0,0,0,.52c0,.47,0,.84,0,1.13l0,1.45a4.74,4.74,0,0,0,0,.57.21.21,0,0,0,.08.1s.08,0,.36.06v.27h-.86c-.32,0-.6,0-1,0v-.27c.28,0,.34,0,.38-.07a.39.39,0,0,0,.08-.26c0-.24,0-.76,0-1.55h-2v.21c0,.56,0,1,0,1.26s0,.3.08.33.11.05.39.07v.27l-.92,0Z"/><path class="cls-4" d="M113.94,85.08v-.27c.29,0,.36,0,.4-.07a.41.41,0,0,0,.07-.25c0-.28,0-.81,0-1.58,0-.29,0-.72,0-1.27a5.2,5.2,0,0,0,0-.63.16.16,0,0,0-.07-.09,1.22,1.22,0,0,0-.39-.06V80.6l.91,0,1,0v.26c-.29,0-.36,0-.39.07a.29.29,0,0,0-.08.2c0,.21,0,.62,0,1.25,0,.83,0,1.41,0,1.73a2,2,0,0,0,0,.59.23.23,0,0,0,.09.06,1,1,0,0,0,.34,0v.27h-.92Z"/><path class="cls-4" d="M116.37,85.09l.7,0,.64,0v-.27a1,1,0,0,1-.37-.06.07.07,0,0,1,0-.06,2.34,2.34,0,0,1,0-.6c0-.48,0-.89,0-1.23V81.62c.25.32,2.26,2.85,2.8,3.46a3.24,3.24,0,0,1,.55,0l0,0c0-.35,0-.6,0-1V81.53a3.23,3.23,0,0,1,0-.5.16.16,0,0,1,0-.07.09.09,0,0,1,.06,0,1,1,0,0,1,.34-.06V80.6h-1.36v.26a1.41,1.41,0,0,1,.35,0,.1.1,0,0,1,.07,0,.92.92,0,0,1,0,.38c0,.35,0,.77,0,1.25v1.27c-.3-.32-2.11-2.64-2.6-3.26h-1.25v.26a1,1,0,0,1,.39.08.22.22,0,0,1,.06.07,3.17,3.17,0,0,1,0,.62V83c0,.26,0,.64,0,1.16a2.93,2.93,0,0,1,0,.54.19.19,0,0,1-.07.08.94.94,0,0,1-.36,0Z"/><path class="cls-4" d="M130.43,80.92a.19.19,0,0,1,.08.07.91.91,0,0,1,.05.3c0,.47,0,.77,0,.88v1.44a1.67,1.67,0,0,0,.18.86,1.36,1.36,0,0,0,.6.48,2.59,2.59,0,0,0,1.07.2,2.25,2.25,0,0,0,1-.21,1.28,1.28,0,0,0,.6-.51,1.73,1.73,0,0,0,.21-.75c0-.12,0-.37,0-.76q0-.9,0-1.62a.57.57,0,0,1,.1-.36s.09-.07.3-.07V80.6l-.65,0-.66,0v.27c.26,0,.32,0,.37.07a.11.11,0,0,1,.07.06,2.53,2.53,0,0,1,0,.48v1.18a5.65,5.65,0,0,1-.09,1.3.82.82,0,0,1-.37.47,1.74,1.74,0,0,1-1.48,0,.75.75,0,0,1-.33-.35,1.71,1.71,0,0,1-.12-.74c0-.41,0-.81,0-1.2,0-.57,0-.91,0-1a.37.37,0,0,1,0-.15.13.13,0,0,1,.07,0,.57.57,0,0,1,.32,0V80.6l-.79,0-1,0v.27Z"/><path class="cls-4" d="M121.33,83.73h.28a2.6,2.6,0,0,0,0,.55.61.61,0,0,0,.18.22,1.31,1.31,0,0,0,.41.21,1.47,1.47,0,0,0,.51.08,1,1,0,0,0,.72-.24.75.75,0,0,0,.27-.59.69.69,0,0,0-.18-.51,1.27,1.27,0,0,0-.69-.24,4.21,4.21,0,0,1-1-.24.91.91,0,0,1-.41-.39,1.15,1.15,0,0,1-.15-.61,1.39,1.39,0,0,1,.42-1,1.85,1.85,0,0,1,1.35-.41,3.24,3.24,0,0,1,.65,0,3.39,3.39,0,0,1,.57.18l0,.08a4.65,4.65,0,0,0-.11.67h-.28a.71.71,0,0,0,0-.3.85.85,0,0,0-.31-.22,1.32,1.32,0,0,0-.57-.12,1,1,0,0,0-.68.22.68.68,0,0,0-.24.54.61.61,0,0,0,.1.36.53.53,0,0,0,.27.22,4,4,0,0,0,.77.17,3.83,3.83,0,0,1,.72.15,1,1,0,0,1,.47.38,1.3,1.3,0,0,1,.15.65A1.46,1.46,0,0,1,124,84.7a2.16,2.16,0,0,1-1.42.45,3.17,3.17,0,0,1-.72-.08,2.87,2.87,0,0,1-.68-.26,3.53,3.53,0,0,0,.08-.4,6.13,6.13,0,0,0,0-.68"/><path class="cls-4" d="M124.78,85.08v-.27a1,1,0,0,0,.38,0s.1-.1.1-.32,0-.25,0-.72V82c0-.59,0-.91,0-1a.13.13,0,0,0-.06-.07s-.11-.05-.4-.07V80.6l.92,0,1,0v.26a1.16,1.16,0,0,0-.37.06s0,0-.06.06a1.27,1.27,0,0,0-.05.37c0,.31,0,.62,0,.93v.27h2q0-1,0-1.38c0-.12,0-.2-.07-.22s-.11-.07-.4-.09V80.6l1,0,.93,0v.26a1.12,1.12,0,0,0-.38.06.17.17,0,0,0-.06.06,2.72,2.72,0,0,0,0,.52c0,.47,0,.84,0,1.13l0,1.45a4.74,4.74,0,0,0,0,.57.16.16,0,0,0,.08.1s.08,0,.36.06v.27h-.87c-.31,0-.59,0-1,0v-.27c.29,0,.35,0,.39-.07s.06-.12.07-.26,0-.76,0-1.55h-2v.21c0,.56,0,1,0,1.26s0,.3.08.33.1.05.39.07v.27l-.93,0Z"/><path class="cls-4" d="M105,83.73h.28a2.6,2.6,0,0,0,0,.55.61.61,0,0,0,.18.22,1.21,1.21,0,0,0,.41.21,1.44,1.44,0,0,0,.51.08,1,1,0,0,0,.72-.24.75.75,0,0,0,.27-.59.69.69,0,0,0-.18-.51,1.27,1.27,0,0,0-.69-.24,4.21,4.21,0,0,1-1-.24,1,1,0,0,1-.42-.39A1.15,1.15,0,0,1,105,82a1.4,1.4,0,0,1,.43-1,1.85,1.85,0,0,1,1.35-.41,3.08,3.08,0,0,1,.64,0,3.13,3.13,0,0,1,.57.18l0,.08a6.43,6.43,0,0,0-.1.67h-.28a.65.65,0,0,0,0-.3.71.71,0,0,0-.3-.22,1.32,1.32,0,0,0-.57-.12.94.94,0,0,0-.68.22.74.74,0,0,0-.15.9.56.56,0,0,0,.28.22,3.85,3.85,0,0,0,.76.17,3.48,3.48,0,0,1,.72.15,1,1,0,0,1,.47.38,1.21,1.21,0,0,1,.16.65,1.44,1.44,0,0,1-.52,1.13,2.11,2.11,0,0,1-1.41.45,3.26,3.26,0,0,1-.73-.08,3,3,0,0,1-.67-.26,3.53,3.53,0,0,0,.08-.4c0-.17,0-.4,0-.68"/><path class="cls-4" d="M96.16,87l-1,0h-.05l-1.9,5.47-1.76-5.47H88.86v.48h.06a3.92,3.92,0,0,1,.59.06.14.14,0,0,1,.07.06,2.4,2.4,0,0,1,0,.6c0,.56,0,5.32,0,6a1.65,1.65,0,0,1-.08.59.59.59,0,0,1-.35.15l-.31.07v.49s.8-.16,1.23-.23l.93-.1v-.49l-.46,0a.41.41,0,0,1-.2,0s-.07-.16-.08-.4c0-.6,0-6.55,0-6.55l.09.24L92.54,95l.37-.06,2.24-6.4s0,4.93,0,5.13a.81.81,0,0,1-.08.35.79.79,0,0,1-.34.11l-.31.05v.49s1.2-.19,1.57-.23l1.3-.12v-.49l-.44,0h-.23s0,0-.06-.06,0-5.53,0-5.89a.68.68,0,0,1,.08-.35,1.67,1.67,0,0,1,.6-.08h.06v-.49h-.07Z"/><path class="cls-4" d="M130.23,92.71a.12.12,0,0,1-.07-.07,6.6,6.6,0,0,1,0-1c0-.57,0-3.51,0-3.86a.69.69,0,0,1,.08-.36,2,2,0,0,1,.57,0h.06v-.49l-1.12,0-1,0,0,0c-.38.9-1,2.32-2,4.23l-1.51-3.15q-.25-.54-.48-1.08l0,0h-2.25v.48h.06a3.71,3.71,0,0,1,.59.06.14.14,0,0,1,.07.06,2.4,2.4,0,0,1,.05.6c0,.56,0,1.06,0,1.5,0,.83,0,2.35,0,2.35a1.15,1.15,0,0,1-.07.45s-.15.08-.35.09h-.32V93l.82,0h.41l.95.06v-.49h-.06a1.57,1.57,0,0,1-.6-.11.75.75,0,0,1-.09-.42l0-3.6,1.38,2.83c.36.75.65,1.38.87,1.87v0h.37v0c.16-.37.38-.85.67-1.45.62-1.32,1.15-2.4,1.58-3.26,0,3.64,0,3.64,0,3.87a.68.68,0,0,1-.08.33.72.72,0,0,1-.33,0H128v.48H128c.63,0,1.14,0,1.5,0s.78.05,1.25.1h.07v-.48S130.23,92.72,130.23,92.71Z"/><path class="cls-4" d="M109.76,86.93h0c-1.06,0-2,.06-2.87.06s-1.74,0-2.65-.06h0l-.07,0,0,0v0c0,.34,0,.73,0,1.18v.3h.49v-.06a6.51,6.51,0,0,1,.07-.74l0,0a1,1,0,0,1,.26,0,9.13,9.13,0,0,1,1,0h.21s0,5,0,5.14a.31.31,0,0,1-.06.16A.27.27,0,0,1,106,93a3.05,3.05,0,0,1-.5.08h-.06v.49L107,93.4c.48,0,1.41-.05,1.41-.05v-.49h-.06a3.14,3.14,0,0,1-.65,0s-.06-.11-.07-.29,0-4.74,0-4.74,0-.16,0-.19h.05a10.15,10.15,0,0,1,1.39.06.26.26,0,0,1,.1,0,4.81,4.81,0,0,1,.07.76v.06h.48s.06-1.05.12-1.44v0l-.06-.08Z"/><path class="cls-4" d="M137.49,88.24a2.73,2.73,0,0,0-1.1-1,4.77,4.77,0,0,0-3.73,0,2.76,2.76,0,0,0-1.17,1.1,3.4,3.4,0,0,0-.42,1.74,4.82,4.82,0,0,0,0,.77,3.07,3.07,0,0,0,.82,1.8,3.74,3.74,0,0,0,2.49,1h.39a3.47,3.47,0,0,0,1.45-.29,2.56,2.56,0,0,0,1.19-1.06,3.3,3.3,0,0,0,.43-1.74v-.72A3,3,0,0,0,137.49,88.24Zm-1.58,4.3a1.44,1.44,0,0,1-1.17.52h-.16a2.17,2.17,0,0,1-1.1-.36,2.12,2.12,0,0,1-.69-.94,5.85,5.85,0,0,1-.27-1.87A2.89,2.89,0,0,1,133,88a2,2,0,0,1,2.83,0,3.23,3.23,0,0,1,.57,2.07v.6A2.81,2.81,0,0,1,135.91,92.54Z"/><path class="cls-4" d="M151,89.79h0a3.07,3.07,0,0,0-.35-1.49,2.69,2.69,0,0,0-1.08-1.06,4,4,0,0,0-1.82-.41h-.15a3.81,3.81,0,0,0-1.74.34,2.74,2.74,0,0,0-1.19,1.07,3.68,3.68,0,0,0-.46,1.79s0,1.52,0,1.56A4.19,4.19,0,0,0,145,94a3.52,3.52,0,0,0,2.3,1,8.11,8.11,0,0,0,1,0,3,3,0,0,0,1.05-.17,2.36,2.36,0,0,0,1.22-1,4.07,4.07,0,0,0,.46-2Zm-3.45-2.33h.05a1.71,1.71,0,0,1,1.38.59,3.5,3.5,0,0,1,.51,2l0,2a3.12,3.12,0,0,1-.53,1.92,1.61,1.61,0,0,1-1.28.41h-.12a1.45,1.45,0,0,1-1-.37,2.11,2.11,0,0,1-.67-1,4.43,4.43,0,0,1-.22-1.52s0-1.65,0-1.75a2.73,2.73,0,0,1,.53-1.81A1.63,1.63,0,0,1,147.5,87.46Zm2,4.62Z"/><path class="cls-4" d="M143.85,86.93h0c-1.06,0-2,.06-2.87.06s-1.74,0-2.64-.06h0l-.06,0,0,0v0c0,.34.05.73.05,1.18v.3h.49v-.06c0-.46.07-.73.07-.74s0,0,0,0a.87.87,0,0,1,.25,0,10.28,10.28,0,0,1,1,0h.25c0,.14,0,5.61,0,5.72a.31.31,0,0,1-.06.14.28.28,0,0,1-.14,0h-.57V94h.06c.38,0,.89.06,1.52.13.47,0,.92.11,1.34.18h.07v-.49h-.05a3.46,3.46,0,0,1-.65-.15.53.53,0,0,1-.08-.32c0-.18,0-5.54,0-5.54a.4.4,0,0,1,0-.18s0,0,0,0a9.69,9.69,0,0,1,1.37.06l.09,0a4.62,4.62,0,0,1,.07.76v.06h.48v-.06q0-.8.12-1.38v0l-.06-.08Z"/><path class="cls-4" d="M103.92,93l-2.31-6.15h-.72L98.5,93.33a1.25,1.25,0,0,1-.19.32,4.38,4.38,0,0,1-.52.13v.52s.69-.14,1.09-.18l1-.09v-.51s-.62,0-.65,0,0,0,0-.07h0a.59.59,0,0,1,0-.14l.39-1.15c.3,0,.67-.07,1-.1s.86-.06,1.21-.08l.4,1.11s0,.14-.12.13l-.57.08v.52s1.14-.15,1.64-.18l1.25-.07v-.52h-.07C104,93.12,104,93.07,103.92,93Zm-3.22-1.55-.84.05,1-2.88.85,2.72C101.38,91.42,101,91.47,100.7,91.49Z"/><path class="cls-4" d="M120.92,87h-.07l-1,0h-.07v.49h.06a2.53,2.53,0,0,1,.61.09.17.17,0,0,1,.06.06,2.56,2.56,0,0,1,.05.62v1.6a7.55,7.55,0,0,1-.12,1.74,1.07,1.07,0,0,1-.47.6,2,2,0,0,1-1,.22h0a2,2,0,0,1-.91-.21.86.86,0,0,1-.42-.44,2.27,2.27,0,0,1-.15-1c0-.55,0-1.09,0-1.62,0-.76,0-1.23,0-1.38a.41.41,0,0,1,.06-.18.15.15,0,0,1,.06,0,1.54,1.54,0,0,1,.54-.07h.06v-.49h-.06l-1.2,0h-1.61v.49h.06a3.49,3.49,0,0,1,.53.06.19.19,0,0,1,.08.07.87.87,0,0,1,0,.37c0,.64,0,2.35,0,3.13a2.28,2.28,0,0,0,.26,1.19,1.76,1.76,0,0,0,.84.67,3.79,3.79,0,0,0,1.44.25h0a3.5,3.5,0,0,0,1.43-.28,1.86,1.86,0,0,0,.83-.72,2.39,2.39,0,0,0,.3-1c0-.17,0-.51,0-1,0-.81,0-1.54.06-2.19a.78.78,0,0,1,.1-.44.85.85,0,0,1,.46-.08h.1v-.5h-.07Z"/><path class="cls-4" d="M114.07,89.58a4.52,4.52,0,0,0-1-.18,5.58,5.58,0,0,1-1-.19.71.71,0,0,1-.35-.26.78.78,0,0,1-.12-.44.9.9,0,0,1,.31-.71,1.38,1.38,0,0,1,.88-.31h.08a1.69,1.69,0,0,1,.66.13.84.84,0,0,1,.39.26,3.27,3.27,0,0,1,0,.47h.51c0-.22,0-.41,0-.52a3.56,3.56,0,0,1,.1-.49v0a.42.42,0,0,0,0-.1v0h0a3.84,3.84,0,0,0-.78-.23,4.72,4.72,0,0,0-.68,0h-.21a2.72,2.72,0,0,0-1.88.65,2,2,0,0,0-.59,1.45,1.54,1.54,0,0,0,.22.85,1.24,1.24,0,0,0,.59.52,5.28,5.28,0,0,0,1.4.27,1.5,1.5,0,0,1,.89.29.79.79,0,0,1,.23.62,1,1,0,0,1-.35.78,1.44,1.44,0,0,1-.93.34h-.09a2.39,2.39,0,0,1-.59-.08,1.64,1.64,0,0,1-.53-.26.9.9,0,0,1-.23-.25,5.9,5.9,0,0,1,0-.73v-.06h-.07l-.38,0h-.06v.06a7.54,7.54,0,0,1,0,.92c0,.13-.1.39-.11.52a.11.11,0,0,0,0,.07c.1.16.65.26,1,.33a4.74,4.74,0,0,0,.79.07h.21a3,3,0,0,0,2-.69A2,2,0,0,0,115,91a1.59,1.59,0,0,0-.23-.9A1.28,1.28,0,0,0,114.07,89.58Z"/><path class="cls-4" d="M165.55,98.66a6.35,6.35,0,0,1,.18,6.37s2.62,4.69-6.14,9.63c0,0,.06-10.27,5.48-9.87,0,0,1.72-3.08-.12-5.73,0,0-.11-.23.2-.43a.36.36,0,0,1,.4,0"/><path class="cls-4" d="M197.22,110.33c-.62.21-1.25.41-1.88.6l-1.31.38h0c-.82.22-1.64.44-2.45.63l-.2,0h0a.34.34,0,0,1-.34-.34.34.34,0,0,1,.23-.32l.54-.15a59.41,59.41,0,0,0,6.13-2.33,15.05,15.05,0,0,0,3.43-2.1,6.64,6.64,0,0,0,2.18-5.17,47.15,47.15,0,0,1-7.6,4.58c-.59.29-1.19.57-1.79.84-.42.18-.83.37-1.25.54h0c-.78.33-1.57.65-2.35,1a1.06,1.06,0,0,0-.19.06h0a.35.35,0,0,1-.2-.65s.38-.15.52-.22a59,59,0,0,0,6.18-3.35c.53-.34,1.05-.68,1.53-1a16,16,0,0,0,3.35-3.08,6.44,6.44,0,0,0,1.18-5.78,47.27,47.27,0,0,1-12.41,10.22,23.26,23.26,0,0,1-2.1,1h0a.34.34,0,0,1-.41-.25.33.33,0,0,1,.14-.37l.48-.28a53.82,53.82,0,0,0,8.49-6.4,17.8,17.8,0,0,0,3.27-3.93c1.13-2,1.6-5.22.34-7-4.31,6.57-10.6,13-17.82,16.7-2.29,1-4.13,3.69-2.52,6.17.84,1.3,1.81,2.42.33,3.22-1.32.71-3.18,1.39-3.77,1a9,9,0,0,1-.11-4.52,18.46,18.46,0,0,1,1.84-4.52,5.84,5.84,0,0,0,.15-5.59A6.46,6.46,0,0,0,175,97.28c-5.08-1.52-7.24,2.18-7.24,2.18a1.21,1.21,0,0,0-1.38.51c-1.36,0-2.64,1.45-1.74,3.7,0,0,3.52-2,3.65,2.93a2.77,2.77,0,0,1,1.11,3.64c-.82,1.59-2.27,1.48-4,1.31,0,0,.71,2.35-3.22,6.71-3.05,3.39-2.77,10.42-1.24,13.64,3.62,7.65-1.46,8.92,1,11.51,1.61,1.67,2.28,2.58,2.24,3.13-.09,1.16-.62,1.34-1.66,2-.5.29.71,1.33.22,1.62-.18.11-1.14-.76-1.29-1-.8-1.51.24-1.8,0-2.34-.08-.22-.73,0-.76-.24,1.38-1.76.62-3.15-.47-3.57a1.84,1.84,0,0,0-1.39,0,1.7,1.7,0,0,0-2.8.62s1.38-.38,1.81.57c-.84.75.64,1.48.76,2.47-1.88-.58-2.79-.42-3,.73a1.4,1.4,0,0,0-1.7,1.46c.85-.45,1.67-.37,1.77.24.28,1.24,2.19.43,3-.14a.41.41,0,0,1,.09.5s-2.37.41-2.24,2a1.88,1.88,0,0,0-.25,2.78s.12-1.37.89-1.47c1-.16,2.22-.34,2.54-1.52,1.35,2.11-.28,1.16-.08,2.87-.05.36.45,1.19-.67,1.92a2,2,0,0,0,2.41-.91c1.21-.74.32-1.28.81-1.95a6.25,6.25,0,0,1,2-1.56c.24-.09-1.12,1.8,1.77,1.47a3.54,3.54,0,0,1,.33-2.55c.21-.08.11,1.14,1.81,1.41-.27-1.68.26-2.66.85-2.84.92-.29,1.15-.78.75-1.74-.17-.43-2.77-4.91-2.88-5.21a.28.28,0,0,1,.42-.33c.81.64,2.86,5,3.1,5.31.9,1.23,1.25,4.24,1.36,5.66a8.93,8.93,0,0,0-1.75.36c-11.33,3.57-19.18,9-24.28,14.13a44.87,44.87,0,0,0-6.14,7.58A82.34,82.34,0,0,1,120,177h0a82.6,82.6,0,0,1-19.38-2.23,44.13,44.13,0,0,0-6.15-7.59c-5.1-5.09-13-10.56-24.27-14.13a9.1,9.1,0,0,0-1.76-.36c.12-1.42.46-4.43,1.36-5.66.24-.33,2.29-4.67,3.1-5.31a.28.28,0,0,1,.42.33c-.1.3-2.71,4.78-2.88,5.21-.4,1-.16,1.45.75,1.74.59.18,1.12,1.16.85,2.84,1.7-.27,1.6-1.49,1.81-1.41a3.54,3.54,0,0,1,.34,2.55c2.88.33,1.52-1.56,1.76-1.47a6.12,6.12,0,0,1,2,1.56c.49.67-.4,1.21.81,1.95a2,2,0,0,0,2.41.91c-1.12-.73-.62-1.56-.67-1.92.2-1.71-1.43-.76-.08-2.87.32,1.18,1.57,1.36,2.54,1.52.77.1.89,1.47.89,1.47a1.88,1.88,0,0,0-.25-2.78c.13-1.57-2.24-2-2.24-2a.41.41,0,0,1,.09-.5c.76.57,2.67,1.38,3,.14.1-.61.93-.69,1.77-.24a1.4,1.4,0,0,0-1.7-1.46c-.24-1.15-1.15-1.31-3-.73.12-1,1.6-1.72.77-2.47.42-.95,1.81-.57,1.81-.57a1.71,1.71,0,0,0-2.81-.62,1.82,1.82,0,0,0-1.38,0c-1.1.42-1.86,1.81-.48,3.57,0,.23-.68,0-.76.24-.26.54.78.83,0,2.34-.15.28-1.1,1.15-1.29,1-.49-.29.72-1.33.22-1.62-1-.61-1.57-.79-1.66-2,0-.55.63-1.46,2.24-3.13,2.5-2.59-2.58-3.86,1-11.51,1.53-3.22,1.81-10.25-1.24-13.64-3.92-4.36-3.22-6.71-3.22-6.71-1.78.17-3.22.28-4-1.31a2.77,2.77,0,0,1,1.11-3.64c.13-4.89,3.65-2.93,3.65-2.93.9-2.25-.37-3.68-1.74-3.7a1.21,1.21,0,0,0-1.38-.51s-2.16-3.7-7.24-2.18a6.46,6.46,0,0,0-3.75,2.59,5.84,5.84,0,0,0,.15,5.59A18.55,18.55,0,0,1,63.19,110a9,9,0,0,1-.12,4.52c-.59.38-2.45-.3-3.77-1-1.48-.8-.51-1.92.33-3.22,1.61-2.48-.23-5.13-2.52-6.17C49.89,100.45,43.6,94,39.29,87.4c-1.26,1.81-.79,5,.34,7a17.8,17.8,0,0,0,3.27,3.93,54.28,54.28,0,0,0,8.49,6.4c.12.08.45.26.48.28a.35.35,0,0,1,.15.37.36.36,0,0,1-.42.25h0a23.26,23.26,0,0,1-2.1-1A47.27,47.27,0,0,1,37.06,94.42a6.44,6.44,0,0,0,1.18,5.78,16,16,0,0,0,3.35,3.08c.49.35,1,.69,1.53,1a59,59,0,0,0,6.18,3.35c.14.07.48.21.52.22a.37.37,0,0,1,.19.35.36.36,0,0,1-.39.3h0l-.18-.06c-.79-.3-1.57-.62-2.36-1h0c-.43-.17-.84-.36-1.26-.54-.6-.27-1.19-.55-1.79-.84a47.15,47.15,0,0,1-7.6-4.58,6.64,6.64,0,0,0,2.18,5.17,15.14,15.14,0,0,0,3.44,2.1,59.27,59.27,0,0,0,6.12,2.33l.54.15a.34.34,0,0,1-.11.66h0l-.19,0c-.82-.19-1.64-.41-2.46-.63h0l-1.31-.38c-.63-.19-1.26-.39-1.88-.6a48.82,48.82,0,0,1-5-2.07l-.3-.14a5.55,5.55,0,0,0,3.22,4.47c1.81,1,6.44,1.89,7.68,2.12.17,0,.42,0,.42.31s-.32.25-.42.25a50.08,50.08,0,0,1-8.83-1.37,5.59,5.59,0,0,0,3.72,3.5,30,30,0,0,0,5.54.35.22.22,0,0,1,.23.17c0,.17-.17.23-.17.23a57.12,57.12,0,0,1-6.19.46,4.36,4.36,0,0,0,3.5,2,13.15,13.15,0,0,0,3.36-.46.14.14,0,0,1,.18.08.15.15,0,0,1-.08.18h0a26.16,26.16,0,0,1-3.66,1.21,4.24,4.24,0,0,0,4.53.94.1.1,0,0,1,.15,0,.11.11,0,0,1,0,.15A14.7,14.7,0,0,1,49.32,124a3.84,3.84,0,0,0,3.45.16c.07,0,.13,0,.1.12a3.27,3.27,0,0,0-.49,1.37c1.23.72,2.79-.11,3.17,0s-.12.66.52,1c.87.2,2.32-.34,2.56-.24.9.38,1.91,2.54-2.26,9.81-2.75,4.79-9.69,6-9.69,6,.63,2.48,4.17,2.93,4.86,2.53.36.95,1.85,2.3,4.89,1-.12-2.09,1-2.92,1.52-2.63a12.78,12.78,0,0,0,6.44,2.15c1.52,0,.18,6.11-1.77,6.67.48,1.53,2.3.95,2.71,2.53l-7,6.48s-3.31,2.86-.79,5.38A55.91,55.91,0,0,0,62.31,171a3.62,3.62,0,0,0,5.81-.26l.94-1.06a50,50,0,0,1,4.72,2.17l-1.3,1.52s-2.53,3,.34,5.6c5,4.66,11,7.46,18.6,9.91h0a94.59,94.59,0,0,0,28.47,4.15h.1a94.59,94.59,0,0,0,28.47-4.15h0c7.62-2.45,13.57-5.25,18.6-9.91,2.87-2.59.34-5.6.34-5.6l-1.29-1.5a48,48,0,0,1,4.74-2.19l.94,1.06a3.63,3.63,0,0,0,5.82.26,57.3,57.3,0,0,0,4.74-4.74c2.52-2.52-.79-5.38-.79-5.38l-7-6.48c.41-1.58,2.23-1,2.71-2.53-1.95-.56-3.29-6.7-1.77-6.67a12.78,12.78,0,0,0,6.44-2.15c.48-.29,1.65.54,1.52,2.63,3.05,1.31,4.53,0,4.9-1,.68.4,4.22-.05,4.85-2.53,0,0-6.94-1.23-9.68-6-4.18-7.27-3.17-9.43-2.27-9.81.24-.1,1.69.44,2.56.24.64-.3.2-.89.52-1s1.94.76,3.17,0a3.4,3.4,0,0,0-.48-1.37.08.08,0,0,1,.09-.12,3.84,3.84,0,0,0,3.45-.16,14.7,14.7,0,0,1-1.21-1.28.11.11,0,0,1,0-.15.11.11,0,0,1,.16,0,3.83,3.83,0,0,0,.66.2,4.32,4.32,0,0,0,3.86-1.14,26.16,26.16,0,0,1-3.66-1.21h0a.15.15,0,0,1-.08-.18.14.14,0,0,1,.18-.08,13.15,13.15,0,0,0,3.36.46,4.36,4.36,0,0,0,3.5-2,57.32,57.32,0,0,1-6.19-.46s-.21-.06-.17-.23a.22.22,0,0,1,.23-.17,30,30,0,0,0,5.54-.35,5.59,5.59,0,0,0,3.72-3.5,49.93,49.93,0,0,1-8.83,1.37c-.1,0-.4,0-.42-.25s.25-.28.42-.31c1.24-.23,5.87-1.16,7.68-2.12a5.53,5.53,0,0,0,3.22-4.47l-.3.14A48.82,48.82,0,0,1,197.22,110.33Z"/><path class="cls-3" d="M167.84,102.66c-1-.46-1.3-.75-2-.55,0,0-.31-1.28,1.42-1.15,0,0-.37.78.29,1a.55.55,0,0,0,.79-.41s.66,1.68-.54,1.11m7-2.23c0-.66-.49-.77-.77-.63-.47.22-.88.12-1-.19a.57.57,0,0,0-.95-.18.63.63,0,0,1-.91-.07.54.54,0,0,0-.92.32c-.1.43-1,.53-1.12.48s-.16-.16,0-.33c1.45-2,4.3-1.57,4.69-1.48.85.2,3.79,1,4.15,4.2,0,.18-.07,4.74-4.09,3.31a2.16,2.16,0,0,1-2.26,1.65c.49-1.3-1.71-1.57-2.15-2.09a.81.81,0,0,1,.12-1.23.88.88,0,0,0,.22-1.46c-.47-.36-.49-1-.07-.85a2.15,2.15,0,0,1,1,.84c.22.32.69,1,1,.74a.88.88,0,0,1,.93-.34,2.3,2.3,0,0,0,3-2s-.85-.07-.83-.73"/><path class="cls-3" d="M171.93,101.06a.68.68,0,1,1-.68-.68.67.67,0,0,1,.68.68"/><path class="cls-3" d="M169,115.6c.59-.15,1.47-1.92,1.59-2.83.35-2.65,3.76-2.39,3.76-2.39S170,114,174,117.12a4.38,4.38,0,0,1-1.55,2.72c-3.77-1.57-3.63,2.18-4.53,2-1.35-.32-1.28-2.51-1.28-2.51a6.57,6.57,0,0,1-1.61,2c-1.45,1.39-2.32,3.93-1.16,8.14.68,2.44-1,.14-1.05,0-2.15-7.38.54-9.66,1.44-10.68a12.1,12.1,0,0,0,2.65-4.26c1-2.36,1.14,1.32,2.11,1.08"/><path class="cls-3" d="M72.1,102.66c-1.21.57-.55-1.11-.55-1.11a.55.55,0,0,0,.79.41c.66-.22.3-1,.3-1,1.72-.13,1.41,1.15,1.41,1.15-.66-.2-1,.09-2,.55m-7-2.23c0,.66-.83.73-.83.73a2.3,2.3,0,0,0,3,2,.88.88,0,0,1,.93.34c.34.3.81-.42,1-.74a2.13,2.13,0,0,1,1-.84c.42-.13.4.49-.07.85a.89.89,0,0,0,.22,1.46.8.8,0,0,1,.12,1.23c-.44.52-2.64.79-2.15,2.09a2.16,2.16,0,0,1-2.26-1.65c-4,1.43-4.11-3.13-4.09-3.31.36-3.23,3.3-4,4.15-4.2.39-.09,3.25-.47,4.69,1.48.12.17.08.27,0,.33s-1,0-1.13-.48a.54.54,0,0,0-.92-.32.63.63,0,0,1-.91.07.57.57,0,0,0-.95.18c-.14.31-.55.41-1,.19-.28-.14-.79,0-.77.63"/><path class="cls-3" d="M68,101.06a.68.68,0,1,0,.68-.68.67.67,0,0,0-.68.68"/><path class="cls-3" d="M71,115.6c-.59-.15-1.47-1.92-1.6-2.83-.35-2.65-3.76-2.39-3.76-2.39s4.3,3.66.37,6.74a4.44,4.44,0,0,0,1.55,2.72c3.78-1.57,3.63,2.18,4.53,2,1.35-.32,1.28-2.51,1.28-2.51a6.57,6.57,0,0,0,1.61,2c1.45,1.39,2.32,3.93,1.16,8.14-.68,2.44,1,.14,1,0,2.15-7.38-.54-9.66-1.44-10.68a12.1,12.1,0,0,1-2.65-4.26c-1-2.36-1.13,1.32-2.1,1.08"/><path class="cls-2" d="M158,169.14c-.24.21-.49.41-.74.61l7.06,8.09.66-.54Zm-76.1,0-7,8.16.66.54,7.07-8.09C82.4,169.55,82.15,169.35,81.92,169.14Zm60.91,7.46a82.86,82.86,0,0,1-22.86,3,82.93,82.93,0,0,1-22.87-3,46.15,46.15,0,0,1-12.92-5.74L77.09,179a54.92,54.92,0,0,0,17,7.92,98.06,98.06,0,0,0,51.71,0,55,55,0,0,0,17-7.92l-7.1-8.13A46.15,46.15,0,0,1,142.83,176.6Z"/><path class="cls-2" d="M173.05,156.65l-.56.6,7.83,7.33c.2-.2.4-.41.59-.62ZM167.59,162l7.16,8c1.46-1.31,2.88-2.68,4.27-4.08l-7.84-7.34Q169.43,160.37,167.59,162Z"/><path class="cls-2" d="M165.59,163.81l-1.79-2h0s-1.16-1.13.48-3.05a.37.37,0,0,0-.07-.43.57.57,0,0,0-.47-.18,56.56,56.56,0,0,0-12.39,7.41.77.77,0,0,0-.12,1,.8.8,0,0,0,1.05.22,26.88,26.88,0,0,1,4.45-2.25c2.5-.89,3.05-.05,3.05-.05l4.58,5.34a51,51,0,0,1,4.61-2.2Z"/><path class="cls-2" d="M59,164c.19.21.39.42.59.62l7.84-7.33-.57-.6Zm9.73-5.36-7.84,7.34c1.39,1.4,2.81,2.77,4.27,4.08l7.17-8Q70.51,160.37,68.75,158.6Z"/><path class="cls-2" d="M74.35,163.81l1.78-2h0s1.15-1.13-.49-3.05a.39.39,0,0,1,.07-.43.57.57,0,0,1,.47-.18,56.32,56.32,0,0,1,12.39,7.41.75.75,0,0,1,.12,1,.8.8,0,0,1-1,.22,27.24,27.24,0,0,0-4.44-2.25c-2.51-.89-3-.05-3-.05l-4.58,5.34c-1.41-.76-3-1.5-4.62-2.2Z"/><path class="cls-4" d="M90,183.5a1.86,1.86,0,0,0,.67.09,1.37,1.37,0,0,0,.37-.33c.37-.4.84-1,1.44-1.69l3.33-4.1.8.24.7,6.53a6.72,6.72,0,0,0,.23,1.38,1.48,1.48,0,0,0,.64.35l-.15.49q-.87-.3-1.65-.54c-.63-.19-1.23-.36-1.8-.5l.15-.49a3.62,3.62,0,0,0,.76.15.16.16,0,0,0,.15-.13,3.25,3.25,0,0,0,0-.75l-.08-1-1.5-.47-1.32-.38-.43.53c-.11.15-.26.37-.46.67a1.07,1.07,0,0,0-.09.19.18.18,0,0,0,0,.2,3.92,3.92,0,0,0,.73.33l-.14.5c-.35-.14-.79-.28-1.32-.44s-.9-.26-1.2-.33Zm5.14-4.16-2,2.43c.33.12.69.24,1.1.36s.82.24,1.21.34Z"/><path class="cls-4" d="M98.78,186.67l.07-.46.34,0a.76.76,0,0,0,.53-.06,1.63,1.63,0,0,0,.25-.77c.18-.91.35-1.9.53-3,.09-.57.19-1.21.31-1.94a2.88,2.88,0,0,0,0-.81.26.26,0,0,0-.1-.14,4.58,4.58,0,0,0-.78-.22l.07-.47c.45.09.89.16,1.33.23s1,.16,1.45.22c.12.51.26,1,.4,1.51.1.35.55,1.86,1.34,4.53,1.69-2.33,2.88-4.05,3.59-5.16.44.09.86.17,1.26.23s.93.15,1.38.2l-.08.47a2.21,2.21,0,0,0-.85,0c-.07,0-.14.21-.21.49-.1.46-.26,1.35-.47,2.66-.11.65-.22,1.35-.33,2.09a7.6,7.6,0,0,0-.12,1.25.24.24,0,0,0,.09.15,3.56,3.56,0,0,0,.76.24l-.07.46c-.6-.12-1.14-.23-1.61-.3s-1.13-.17-2-.28l.08-.47.33.05a1,1,0,0,0,.51,0,.94.94,0,0,0,.2-.47c.07-.26.18-.87.33-1.84l.55-3.36q-1.14,1.59-2.93,4.15c-.5.7-.88,1.28-1.17,1.73l-.36-.06c-.18-.69-.42-1.56-.73-2.61l-1.29-4.27-.13.76c-.34,2.08-.57,3.53-.68,4.32a1,1,0,0,0,0,.61,1.84,1.84,0,0,0,.81.28l-.08.47c-.38-.09-.75-.17-1.13-.23-.57-.09-1.08-.16-1.52-.21"/><path class="cls-4" d="M110.11,187.9a1.79,1.79,0,0,0,.67-.07,1.57,1.57,0,0,0,.29-.41c.25-.48.59-1.13,1-2l2.28-4.77.83.05,2.22,6.18a7.3,7.3,0,0,0,.54,1.29,1.48,1.48,0,0,0,.71.19l0,.51c-.61-.06-1.19-.1-1.74-.13s-1.27-.06-1.86-.07l0-.51a4,4,0,0,0,.78,0,.17.17,0,0,0,.11-.17,3.45,3.45,0,0,0-.19-.72l-.32-1-1.57-.11-1.37-.06-.29.62c-.08.17-.17.42-.29.76a.84.84,0,0,0-.05.2.2.2,0,0,0,.1.19,3.87,3.87,0,0,0,.79.15l0,.51-1.37-.12-1.25,0Zm4-5.25-1.36,2.83c.35,0,.73.07,1.15.09s.86,0,1.26,0Z"/><path class="cls-4" d="M123.51,186l0-.46,1.85,0,1.61-.07v.36a2.76,2.76,0,0,0-.47.2,6.87,6.87,0,0,0,0,1c0,.19,0,.57.1,1.13a12.59,12.59,0,0,1-1.87.6,7.93,7.93,0,0,1-1.56.18,4.87,4.87,0,0,1-3.45-1,3.77,3.77,0,0,1-1.32-2.9,3.72,3.72,0,0,1,1.18-3,5.38,5.38,0,0,1,3.6-1.21,10.44,10.44,0,0,1,1.6.09,7.18,7.18,0,0,1,1.47.36l0,.08a12.44,12.44,0,0,0-.2,1.78l-.47,0a7.72,7.72,0,0,0-.1-.95,2.28,2.28,0,0,0-1-.6,4,4,0,0,0-1.35-.17,3.14,3.14,0,0,0-2.3.94,3.31,3.31,0,0,0-.8,2.44,3.74,3.74,0,0,0,1,2.59,2.94,2.94,0,0,0,2.27.94,3.72,3.72,0,0,0,1.5-.39,7.66,7.66,0,0,0,0-.82,2.08,2.08,0,0,0-.13-1,4.54,4.54,0,0,0-1.21-.11"/><path class="cls-4" d="M127.74,188.09a1.79,1.79,0,0,0,.64-.19,1.31,1.31,0,0,0,.21-.45c.17-.52.38-1.22.64-2.13l1.4-5.09.83-.1,3.27,5.7a7.51,7.51,0,0,0,.76,1.18,1.54,1.54,0,0,0,.73.06l.06.5-1.74.17c-.65.08-1.26.17-1.84.26l-.06-.5a3.45,3.45,0,0,0,.76-.17.16.16,0,0,0,.08-.18,3,3,0,0,0-.32-.68l-.48-.89-1.56.17-1.37.18-.17.66c0,.18-.1.44-.15.8a.5.5,0,0,0,0,.21.18.18,0,0,0,.13.16,3.45,3.45,0,0,0,.8,0l.06.51c-.37,0-.82.06-1.37.13s-.94.13-1.24.19Zm3-5.87-.84,3,1.15-.11,1.25-.18Z"/><path class="cls-4" d="M139.49,186.91l-.11-.46a1.8,1.8,0,0,0,.78-.3c.05-.06.06-.2,0-.41-.12-.73-.3-1.56-.53-2.49-.17-.69-.36-1.42-.57-2.21a6.83,6.83,0,0,0-.43-1.34.19.19,0,0,0-.12-.1,3.35,3.35,0,0,0-.8.09l-.11-.46c.65-.13,1.2-.26,1.67-.37l2.12-.54,1.23-.31.69-.15.08.1a11.88,11.88,0,0,0,.25,1.65l-.46.11-.19-.57a.74.74,0,0,0-.16-.33,1.09,1.09,0,0,0-.44,0,7.57,7.57,0,0,0-1,.18c-.32.08-.65.18-1,.3.11.63.19,1.07.26,1.32l.3,1.18.05.26.8-.18a8.1,8.1,0,0,0,1-.29.19.19,0,0,0,.1-.12,2.54,2.54,0,0,0-.07-.71l.48-.12c.07.33.14.65.22,1s.19.77.36,1.43l-.47.11a3.75,3.75,0,0,0-.31-.81.23.23,0,0,0-.16-.05,4.38,4.38,0,0,0-1.09.19l-.72.19.54,2.09a3.39,3.39,0,0,0,.29.86.22.22,0,0,0,.14.09,4.05,4.05,0,0,0,.95-.13l.11.46c-.6.12-1.15.24-1.66.37s-1.13.29-2,.53"/><path class="cls-4" d="M146.13,183.42a.83.83,0,0,1,.69.06.86.86,0,0,1,.44.53.83.83,0,0,1-.06.69.86.86,0,0,1-.53.44.92.92,0,0,1-.69-.06.84.84,0,0,1-.45-.53.88.88,0,0,1,.07-.69.83.83,0,0,1,.53-.44"/><path class="cls-4" d="M154.8,180.67l.17.07c0,.21,0,.42,0,.63a4.94,4.94,0,0,1-1,.92,5.63,5.63,0,0,1-1.25.66,5.48,5.48,0,0,1-2.53.46,3.75,3.75,0,0,1-2-.76,4.19,4.19,0,0,1-1.31-1.8,3.68,3.68,0,0,1,.08-3.13,5,5,0,0,1,2.78-2.32,7.67,7.67,0,0,1,2.86-.59l.07.06a3.45,3.45,0,0,0,.09.6,10.69,10.69,0,0,0,.35,1.17l-.45.18a5.47,5.47,0,0,0-.43-.88.92.92,0,0,0-.4-.16,2.14,2.14,0,0,0-.82,0,3.44,3.44,0,0,0-1,.27,2.85,2.85,0,0,0-1.69,1.58,3.2,3.2,0,0,0,.12,2.45,3.64,3.64,0,0,0,1.87,2.06,3.22,3.22,0,0,0,2.61-.06,5,5,0,0,0,1-.53,5.75,5.75,0,0,0,.92-.84"/><path class="cls-4" d="M156,179.4a.88.88,0,0,1,.69-.07.83.83,0,0,1,.53.44.88.88,0,0,1,.07.69.85.85,0,0,1-.45.53.88.88,0,0,1-.69.07.86.86,0,0,1-.53-.44.83.83,0,0,1-.06-.69.86.86,0,0,1,.44-.53"/><path class="cls-4" d="M91.89,176.24l-.17.45c.21.08.1.25,0,.32-1.19.88-2.76,2-2.76,2,0-.85-.35-2.57-.54-3.61,0-.1,0-.27.27-.17l.19-.44a27.46,27.46,0,0,1-2.55-1.2l-.18.4a1.3,1.3,0,0,1,.61.8c0,.2.37,1.93.51,2.86a12.09,12.09,0,0,1,.21,1.72,3.51,3.51,0,0,1-.31.9l-.17.38c-.29.62-.45,1-.48,1a.31.31,0,0,1-.26.17,2.22,2.22,0,0,1-.78-.22l-.19.43c.69.27,1.33.53,1.9.78s1,.46,1.53.7l.19-.43a3.16,3.16,0,0,1-.78-.44.48.48,0,0,1,0-.39,17,17,0,0,1,.68-1.74,2.93,2.93,0,0,1,.43-.76c.18-.17.93-.7,2.24-1.58l.91-.6a1.11,1.11,0,0,1,.93-.17l.2.07.19-.43C93.55,176.93,92.7,176.62,91.89,176.24Z"/></svg>
