<svg id="Layer_1" data-name="Layer 1" width="240" height="240" xmlns="http://www.w3.org/2000/svg" viewBox="0 0 240 240"><defs><style>.cls-1{fill:#fff;}.cls-2{fill:#302e57;}.cls-3{fill:#da632c;}.cls-4{fill:#ebd871;}.cls-5{fill:#009749;}</style></defs><path class="cls-1" d="M60.18,47.92V124.4c0,46.55,33.34,58.32,55.4,66.12l4.41,1.56,4.43-1.57c22.06-7.79,55.4-19.56,55.4-66.11V47.92Z"/><path class="cls-2" d="M172.44,50.07H62.32V124.4c0,45,32.48,56.51,54,64.1l3.69,1.31,3.71-1.31c21.49-7.59,54-19.06,54-64.1V50.07Z"/><path class="cls-1" d="M172.44,52.68H64.94V124.4c0,19.13,5.91,33.58,18.06,44.2,10.31,9,23,13.48,34.17,17.43l2.83,1,2.83-1C134,182.08,146.69,177.6,157,168.6c12.15-10.62,18.06-25.07,18.06-44.2V52.68Z"/><path class="cls-3" d="M120,55.3H67.56v69.1c0,42.6,30.74,52.15,52.44,59.85,21.7-7.7,52.44-17.25,52.44-59.85V55.3Z"/><path class="cls-2" d="M67.56,114.55v9.85c0,42.6,30.74,52.15,52.44,59.85v-69.7Z"/><rect class="cls-2" x="120" y="55.3" width="52.44" height="59.25"/><path class="cls-4" d="M100.09,148.35a3,3,0,0,0,1.84.71c.39,0,.92-.13.92-.65,0-1.12-2.67-.89-2.67-3a1.7,1.7,0,0,1,.65-1.33,2.52,2.52,0,0,1,1.52-.44,4.08,4.08,0,0,1,1.47.27V145a2.21,2.21,0,0,0-1.23-.43c-.34,0-.76.16-.76.59s.51.62.83.76a4.4,4.4,0,0,1,1.16.69,1.79,1.79,0,0,1,.65,1.4,1.85,1.85,0,0,1-.7,1.49,2.66,2.66,0,0,1-1.7.48,4.7,4.7,0,0,1-1.69-.33Z"/><path class="cls-4" d="M105.91,145.65a1,1,0,0,0,.59-.14h0v3.36c0,.43,0,.69.3,1v0h-2.12v0c.33-.3.31-.56.31-1v-2.21c0-.43,0-.7-.3-1v0Zm-1-1a.87.87,0,0,1,.83-.92.86.86,0,0,1,.83.87.87.87,0,0,1-.86.89A.84.84,0,0,1,104.89,144.62Z"/><path class="cls-4" d="M109,146a1.27,1.27,0,0,1,1.08-.49,1.5,1.5,0,0,1,1.23.52,1.85,1.85,0,0,1,.3,1.3v1.52c0,.44,0,.71.3,1v0h-2.12v0c.33-.28.3-.55.3-1v-1.55a1,1,0,0,0-.12-.59.52.52,0,0,0-.45-.26.5.5,0,0,0-.4.21,1.09,1.09,0,0,0-.12.64v1.55c0,.44,0,.71.31,1v0h-2.13v0c.33-.28.31-.55.31-1v-2.21c0-.42,0-.69-.31-1v0h1.17a1.43,1.43,0,0,0,.62-.14h0Z"/><path class="cls-4" d="M115.83,146.68h0a1.57,1.57,0,0,0-.9-.3.83.83,0,0,0-.66.32,1.48,1.48,0,0,0-.23.91,1.82,1.82,0,0,0,.37,1.15,1,1,0,0,0,.79.33,1.93,1.93,0,0,0,1.16-.44h0l-.29,1a3.25,3.25,0,0,1-1.5.36,2.15,2.15,0,0,1-2.25-2.18,2.25,2.25,0,0,1,2.47-2.3c.34,0,.69.06,1,.09Z"/><path class="cls-4" d="M118.2,147c0-.37.26-.67.64-.67s.59.31.59.67Zm2.76,1.68a3.3,3.3,0,0,1-1.47.47,1.27,1.27,0,0,1-1.29-1.37h2.72c0-1.41-.69-2.25-2.08-2.25a2.12,2.12,0,0,0-2.14,2.22,2.19,2.19,0,0,0,.79,1.8,2.85,2.85,0,0,0,1.75.46,3.41,3.41,0,0,0,1.38-.29Z"/><path class="cls-4" d="M124.46,148.61c0,.48,0,1,.45,1.25v0h-2.52v0c.51-.33.53-.73.53-1.29v-3.15l-.87-.24v0a4.53,4.53,0,0,0,2.38-1.47h0Z"/><path class="cls-4" d="M125.92,149.31a2.93,2.93,0,0,0,2.27-3.11c0-.56-.13-1.6-.82-1.6s-.69.73-.69,1.19.18,1.26.81,1.26a.8.8,0,0,0,.36-.09h0l-.63.92-.2,0a1.76,1.76,0,0,1-1.28-.47,2.07,2.07,0,0,1-.61-1.53,2.13,2.13,0,0,1,2.23-2.22,2.33,2.33,0,0,1,2.36,2.6,3.53,3.53,0,0,1-1.26,2.74,4.17,4.17,0,0,1-2.73,1.06h-.16Z"/><path class="cls-4" d="M131,149.31a2.94,2.94,0,0,0,2.26-3.11c0-.56-.13-1.6-.82-1.6s-.69.73-.69,1.19.19,1.26.82,1.26a.72.72,0,0,0,.35-.09h0l-.64.92-.19,0a1.8,1.8,0,0,1-1.29-.47,2.06,2.06,0,0,1-.6-1.53,2.13,2.13,0,0,1,2.23-2.22,2.32,2.32,0,0,1,2.35,2.6,3.5,3.5,0,0,1-1.26,2.74,4.17,4.17,0,0,1-2.73,1.06h-.15Z"/><path class="cls-4" d="M137.61,148.9c-.7,0-.76-1.45-.76-1.93a5.05,5.05,0,0,1,.17-1.56c.1-.28.31-.65.63-.65.73,0,.74,1.41.74,1.92S138.33,148.9,137.61,148.9Zm0,1.11a2.18,2.18,0,0,0,1.77-1.08,4.1,4.1,0,0,0,.52-2.13,3.89,3.89,0,0,0-.57-2.19,2,2,0,0,0-1.7-.93,2.15,2.15,0,0,0-1.84,1.1,4.45,4.45,0,0,0-.49,2.08,4.22,4.22,0,0,0,.54,2.15A2.13,2.13,0,0,0,137.64,150Z"/><path class="cls-4" d="M91.39,94a6.39,6.39,0,0,1,1.23,4s.14,5-5,5.26c0,0-2.42.25-3-3a.68.68,0,0,0-.77-.57A7.69,7.69,0,0,1,81,99.06s-.4-.26.1-.33a2.53,2.53,0,0,0,1.7-3.08,1.71,1.71,0,0,0-1.7-1.72,2.48,2.48,0,0,0-1.58.55,2.56,2.56,0,0,1-3.19-.38s-.53-.47.11-.37c0,0,1.94.1,1.94-1.7,0,0,.12-1.33-1.66-1.4a2.88,2.88,0,0,0-1.93.71s-.33.43-.24-.22a3.46,3.46,0,0,1,1.54-2.53,5.39,5.39,0,0,1,1.52-.84,1.51,1.51,0,0,0,.89-1.68,1.54,1.54,0,0,0-1.65-1.3,1.88,1.88,0,0,0-1.56.65s-.36.52-.34-.08a3,3,0,0,1,3-2.89,2.78,2.78,0,0,1,2.47,1.93,3.45,3.45,0,0,1,.73-.74,1.47,1.47,0,0,0-.24-1.84s-.56-.35,0-.38a2.49,2.49,0,0,1,2.87,2.35,3.27,3.27,0,0,1-1.2,2.39,5.65,5.65,0,0,0,1.72,4.54.6.6,0,0,0,.81,0,1.26,1.26,0,0,0-.18-1.57s-.32-.35.27-.35c0,0,4,0,3.63,4.85A1.26,1.26,0,0,0,90.25,95s.63-.05.65-.88C90.9,94.16,90.9,93.41,91.39,94Z"/><path class="cls-4" d="M128.41,120c1.33-1.8,2.22-1.53,2.22-1.53.64.14.76,1.36.76,1.36a.21.21,0,0,0,.27.23c1.61-.6,2.7-3.49,2.7-3.49.14-.28.6-.25.6-.25a3.1,3.1,0,0,0,3.38-2c.14-.36-.33-.2-.33-.2-3.49.87-3.49-2.75-3.49-2.75.06-2.85,2.25-3,2.25-3a2.74,2.74,0,0,1,1.8.54c.47.38.37-.37.37-.37-.27-4.33-7-4.29-7-4.29-11.7.27-14.87,4.8-14.87,4.8-.27.43.2.26.2.26,2.09-.57,2.52,2.14,2.52,2.14.16,2.22-1.54,2.08-1.54,2.08-1.61.11-2.92-1.86-2.92-1.86a2.4,2.4,0,0,0-2-1,4.31,4.31,0,0,0-3.56,2.56c-.17.49.33.19.33.19,1-.77,1.61-.53,1.61-.53a.56.56,0,0,1,.34.61,1.58,1.58,0,0,1-1.19,1,4,4,0,0,0-2.87,2.58c-.11.45.19.31.19.31a1.84,1.84,0,0,1,2.07-.24c1.21,1,.31,1.87.31,1.87-.54.43-1.61.14-1.61.14-.42-.14-.13.29-.13.29a3.34,3.34,0,0,0,2.46,1.56,3.72,3.72,0,0,0,3.7-2c.47-.84.94-.58.94-.58.52.23.25,1.12.25,1.12-.11.31.11.29.11.29,1.07,0,1.65-1.32,1.65-1.32a.75.75,0,0,1,.92-.38c.7.34.22,1.36.22,1.36-.19.4.14.29.14.29a2.87,2.87,0,0,0,1.79-1.9c.53-1.36,1.27-1.29,1.27-1.29.89,0,1,1.07,1,1.07,0,1.17-.8,1.21-.8,1.21-.79,0-.36.36-.36.36,1.94,1.41,4.12-1.46,4.12-1.46a1.13,1.13,0,0,1,1.76,0c.45.44,0,1.89,0,1.89s-.12.38,0,.5C128,120.14,128.18,120.25,128.41,120Z"/><path class="cls-4" d="M163,93.58c-1.34-.87-1.32-1.81-1.32-1.81-.18-2.42,1.7-2.28,1.7-2.28,1.91.2,2.12,2.46,2.12,2.46,0,.44.44.13.44.13a3,3,0,0,0,.23-3.68c-1.43-2.09-5.35-1.23-5.35-1.23l-.27-.38a1.92,1.92,0,0,1,1.07-1.37A2.4,2.4,0,0,1,164,86c.62.54.51-.26.51-.26a3.71,3.71,0,0,0-5.2-2.92c-1.78.64-1.71,3.09-1.71,3.09a14.13,14.13,0,0,0-7.13-2.25,17.77,17.77,0,0,0-11.31,4.13,14,14,0,0,1-3.48-2,39.07,39.07,0,0,0-5.56-3.45,18.45,18.45,0,0,0-14.25-.2c-6.69,2.92-5.41,8.82-5.41,8.82,1.46,7.24,9.43,6.5,9.43,6.5A31.88,31.88,0,0,0,133.19,94a11,11,0,0,0,7.43,2.84s5.27.16,7.88-3.29c0,0,.48-.54-.26-.35,0,0-7.77,2.35-11.57-.81,1.34-.7,2.38-1.31,2.38-1.31v0a13.3,13.3,0,0,0,4.05,1.19c10.28,1.47,12-2.85,12-2.85.4-.57-.4-.24-.4-.24a29.88,29.88,0,0,1-12.37-.29C150.11,83.52,156,88,156,88c2.88,1.94,1.87,6,1.87,6-1.27,5.7-13.6,4.23-13.6,4.23-7.71-.68-19.15.33-19.15.33a80.85,80.85,0,0,1-8.89.24c-5.23-.49-6.75-3.32-6.75-3.32a3.59,3.59,0,0,1,.22-3.45c.21-.26-.09-.29-.09-.29a2.09,2.09,0,0,1-1.83-2.7c.13-.67,1.5-2,1.5-2,.43-.39,0-.44,0-.44A4.21,4.21,0,0,1,107,85.38c-1.18-1.28-.79-3.54-.79-3.54,2.06-1.18,2-2.6,2-2.6,0-.52-.39-.08-.39-.08l-.62.5c-.42.35-1.32.1-1.32.1a11.06,11.06,0,0,1-2-.77,7.29,7.29,0,0,0-5.54,0,3.4,3.4,0,0,1-2.75,0l-.42-.22c-.47-.27-.18.31-.18.31.76,1.63,1.54,1.81,1.54,1.81a4.79,4.79,0,0,1-3.17,5c-.49.13,0,.39,0,.39a3.15,3.15,0,0,1,1,2.56A2.64,2.64,0,0,1,93,91.37c-.25.08,0,.35,0,.35,1.68,2.25,1.31,5.7,1.31,5.7-.71,4.36-3.49,5.9-3.49,5.9a25.85,25.85,0,0,0-6,5.78,2.43,2.43,0,0,1-2,.71c-.5-.09-.7-.68-.7-.68a5.05,5.05,0,0,0-1.7-3.58,5.23,5.23,0,0,0-4.87-.53c-.46.24.08.29.08.29,1.78-.1,2,.94,2,.94a6,6,0,0,1,.12,2.83,3.11,3.11,0,0,0-3.84,3.07,3.86,3.86,0,0,0,1,2.72c.47.42.43-.17.43-.17a2.71,2.71,0,0,1,.29-1.48,2,2,0,0,1,1.75-.75c1.12.08,1.31.65,1.31.65.28.72-.21.89-.21.89a3.31,3.31,0,0,0-1.67,2.41,3.44,3.44,0,0,0,.93,2.54c.84.65.54-.19.54-.19-.13-2.71,3.15-2.55,3.15-2.55,1.41,0,.94.74.94.74a4.27,4.27,0,0,1-1.54.57c-.47.07,0,.4,0,.4a3.33,3.33,0,0,0,2.27,1c1.91,0,3.39-2.84,3.39-2.84a1,1,0,0,1,1.44-.34,1.21,1.21,0,0,1,.57,1.34c-.07,2.71,1.47,3.62,1.47,3.62.64.5.54-.14.54-.14a1.41,1.41,0,0,1,1.2-1.4c1.27-.21,1.61,1.34,1.61,1.34.34.6.5-.07.5-.07,2.15-3.72,3-3.11,3-3.11.67.1.6,1.3.6,1.3.11.57.51,0,.51,0a51.4,51.4,0,0,1,6.37-8.12c1.73-1.73,2.91-1.6,2.91-1.6C108.42,109,109,111,109,111c.18.48.64.1.64.1a37.18,37.18,0,0,1,23.4-7.77c6.5.26,8.27,2.84,8.27,2.84,2.08,2.82.6,6.34.6,6.34a6.43,6.43,0,0,0-.37,5.62c1.88,3.93,5.3,3.76,5.3,3.76,1,0,.34-.41.34-.41-2.35-1.57-1.78-4.69-1.78-4.69.11-1.6,2-1.6,2-1.6a6.27,6.27,0,0,0,1.29,0c2.53,0,5.75-1.88,5.75-1.88a6.9,6.9,0,0,1,2.77-.58c2.3.06,2.27,1.53,2.27,1.53a1.94,1.94,0,0,1-.61,1.4.71.71,0,0,1-1.08-.16,2,2,0,0,0-1.72-.86,2.76,2.76,0,0,0-2.59,2c-.17.69.1.46.1.46.73-.59,1.18-.4,1.18-.4.53.17,0,.42,0,.42-2.07,1.22-1,4.05-1,4.05.49,1,.54.13.54.13a.79.79,0,0,1,.39-.77,1.33,1.33,0,0,1,1.49.42,1.87,1.87,0,0,1-.09,2.4c-.48.53,0,.61,0,.61a4.86,4.86,0,0,0,3.75-1.52A8.64,8.64,0,0,0,161,119c.15-.5.45-.13.45-.13.46.56.13,1.72.13,1.72,0,.35.33.07.33.07a2.74,2.74,0,0,0,.68-3.38.85.85,0,0,1,.24-1,3.67,3.67,0,0,0,1.84-3.23c-.06-.21-.39,0-.39,0-1.69.94-2.21-.62-2.21-.62-.27-.83.29-1.1.29-1.1a5,5,0,0,0,2.64-5.21c-.1-.61-.43,0-.43,0-1.8,2.51-5-.13-5-.13.51-3.28-2.17-3.39-2.17-3.39-.54-.06-.22.33-.22.33a1.93,1.93,0,0,1,.58,1.57c-.07,1.42-2,1.2-2,1.2-4.38,0-5.48-4.51-5.48-4.51,7.47.76,10.24-1.83,10.24-1.83,1.65-1.5,2.75-1.28,2.75-1.28a2.55,2.55,0,0,1,2.39,1.44c.26.35.38,0,.38,0A5,5,0,0,0,163,93.58Zm-43.57.9c-5.47.19-6.06-4.1-6.06-4.1a4,4,0,0,1,1.36-3.78c.22.88,1.05,2.7,4.06,2.75a4.19,4.19,0,0,0,2.56-.95s.35-.3-.11-.3c0,0-3.31-.06-3.2-2.43a1.3,1.3,0,0,1,.7-1.22,11.3,11.3,0,0,1,1.09-.3c.44-.1.87-.17,1.31-.23a3.11,3.11,0,0,0,2.78,2.35A3,3,0,0,0,125.3,86s.32-.23-.12-.31A1.37,1.37,0,0,1,124,84.4s-.17-.52.78-.5h.09c.6.09,4.62.94,3.12,4.1,0,0-.42.6-.1.51a1.3,1.3,0,0,1,1,.29A15.6,15.6,0,0,1,131.38,92,37.47,37.47,0,0,1,119.44,94.48Zm15.34-4a24.88,24.88,0,0,1-2.7-3.62,36.69,36.69,0,0,0,4.19,2.82C135.77,90,135.27,90.22,134.78,90.47Zm-30.57-7.7a1.55,1.55,0,0,1-2.09.83S102.46,82.45,104.21,82.77Zm-3.82.84a1.55,1.55,0,0,1-2-1C100.13,82.44,100.39,83.61,100.39,83.61ZM103.27,91A2.65,2.65,0,0,1,101,92.42,2.5,2.5,0,0,1,98.93,91c-.88-1.58-1.82-3.4-1.82-3.4a7.58,7.58,0,0,0,.81.19,10.16,10.16,0,0,0,.82,1.43s.2.25.27-.08A2.51,2.51,0,0,1,99.78,88c.44,0,.91,0,1.39,0l1.18,0a2,2,0,0,1,.59,1.25c.08.45.4.05.4.05a8.29,8.29,0,0,0,.79-1.46c.38-.06.71-.12,1-.18C105.1,87.65,103.69,90.08,103.27,91Z"/><path class="cls-1" d="M77.84,68.7H75.59l1.09-3.43h0Zm.55,1.62L78.93,72a1.53,1.53,0,0,1,.13.66,1.17,1.17,0,0,1-.67,1.06v.06h5v-.06A4.75,4.75,0,0,1,82,71.3l-3.13-9h-4v0a1.24,1.24,0,0,1,.63,1,6.89,6.89,0,0,1-.37,1.4l-2.28,7a4.2,4.2,0,0,1-1.15,2v.06H75v-.06a1.21,1.21,0,0,1-.6-1,4.56,4.56,0,0,1,.3-1.25l.4-1.19Z"/><path class="cls-1" d="M92.13,64.71a4.76,4.76,0,0,0-2.77-.91c-2.27,0-2.91,1.92-2.91,4,0,2.4,1.11,4.36,3.57,4.36a7.27,7.27,0,0,0,3.58-1.14l-.83,2.55a11.79,11.79,0,0,1-3.29.42,6.11,6.11,0,0,1-4.59-10.43A6.9,6.9,0,0,1,89.51,62l2.5.23Z"/><path class="cls-1" d="M109.15,74.15a5.49,5.49,0,0,1-2-.69,6.06,6.06,0,0,1-2.35-2.36l-3.18-4.46h0v4.61a3.06,3.06,0,0,0,.73,2.48v.06h-3.2v-.06a3,3,0,0,0,.75-2.48v-6a3.42,3.42,0,0,0-1-2.86v0h3.44v0l5.09,7V64.87a3.09,3.09,0,0,0-.73-2.5v0h3.18v0a3.06,3.06,0,0,0-.73,2.5Z"/><path class="cls-1" d="M116.25,68.7H114l1.09-3.43h0Zm.55,1.62.54,1.69a1.54,1.54,0,0,1,.14.66,1.18,1.18,0,0,1-.68,1.06v.06h5v-.06a4.75,4.75,0,0,1-1.43-2.43l-3.13-9h-4v0a1.24,1.24,0,0,1,.63,1,6.89,6.89,0,0,1-.37,1.4l-2.28,7a4.27,4.27,0,0,1-1.14,2v.06h3.39v-.06a1.21,1.21,0,0,1-.6-1,4.56,4.56,0,0,1,.3-1.25l.4-1.19Z"/><path class="cls-1" d="M131.24,73.48a12.86,12.86,0,0,1-3.53.54c-3.45,0-6.23-2.06-6.23-5.93A5.84,5.84,0,0,1,127.64,62a9.32,9.32,0,0,1,2.57.35v2.42h-.09a3.78,3.78,0,0,0-2.43-.92c-2.15,0-3.08,1.59-3.08,3.69s.71,4.62,3.11,4.62a3,3,0,0,0,.67,0V69.57a1.78,1.78,0,0,0-.63-1.69v0h3.48Z"/><path class="cls-1" d="M138.1,68.7h-2.25l1.1-3.43h0Zm.55,1.62L139.2,72a1.53,1.53,0,0,1,.13.66,1.18,1.18,0,0,1-.68,1.06v.06h5v-.06a4.73,4.73,0,0,1-1.42-2.43l-3.13-9H135v0a1.24,1.24,0,0,1,.63,1,6.86,6.86,0,0,1-.36,1.4l-2.29,7a4.18,4.18,0,0,1-1.14,2v.06h3.39v-.06a1.2,1.2,0,0,1-.59-1,4.94,4.94,0,0,1,.29-1.25l.4-1.19Z"/><path class="cls-1" d="M154.18,74.15a5.49,5.49,0,0,1-2-.69,6.13,6.13,0,0,1-2.35-2.36l-3.18-4.46h0v4.61a3.06,3.06,0,0,0,.73,2.48v.06h-3.19v-.06a3,3,0,0,0,.74-2.48v-6a3.39,3.39,0,0,0-1-2.86v0h3.45v0l5.08,7V64.87a3.09,3.09,0,0,0-.73-2.5v0h3.18v0a3.09,3.09,0,0,0-.73,2.5Z"/><path class="cls-1" d="M158.91,67.55c0-1.8.87-3.77,2.82-3.77,2.27,0,3,2.84,3,4.83a4.12,4.12,0,0,1-.61,2.44,2.5,2.5,0,0,1-4.44-.28A7.71,7.71,0,0,1,158.91,67.55ZM155.7,68a5.76,5.76,0,0,0,6,6c3.36,0,6.23-2.22,6.23-6s-2.55-6-6-6A5.91,5.91,0,0,0,155.7,68Z"/><path class="cls-1" d="M78.48,136.71a3.69,3.69,0,0,0,.89,3v.06H74v-.06c1-.66.85-1.87.85-3v-7.89c0-1.1.14-2.3-.85-3v-.06h4.75a8.28,8.28,0,0,1,3.61.5,3.61,3.61,0,0,1,1.91,3.31c0,3-2.42,4.18-4.93,4.18a3.54,3.54,0,0,1-.73-.05,3.21,3.21,0,0,0,2-3.09c0-1.51-.5-2.7-2.07-2.76Z"/><path class="cls-1" d="M90.08,133.59H87.34l1.33-4.17h0Zm.66,2,.67,2.06a1.85,1.85,0,0,1,.16.8,1.45,1.45,0,0,1-.83,1.3v.06h6.08v-.06a5.94,5.94,0,0,1-1.73-3l-3.8-10.91H86.35v.06a1.49,1.49,0,0,1,.77,1.23,7.82,7.82,0,0,1-.45,1.69l-2.77,8.46a5.27,5.27,0,0,1-1.39,2.44v.06h4.12v-.06a1.52,1.52,0,0,1-.72-1.19,5.71,5.71,0,0,1,.36-1.52l.49-1.45Z"/><path class="cls-1" d="M101.92,127.89a1.84,1.84,0,0,1,1.16.3,2.22,2.22,0,0,1,.81,1.8,2.7,2.7,0,0,1-2.17,2.69v-4.79Zm-.2,5.91,2.33,4.62a2.31,2.31,0,0,0,2.7,1.43l2.78-.2a9.33,9.33,0,0,1-1.93-2.54l-2.4-4.22a3.71,3.71,0,0,0,2.4-3.35,3.5,3.5,0,0,0-1.8-3.22,4.92,4.92,0,0,0-2.69-.48h-6v.06c1,.66.85,1.86.85,3v7.89c0,1.1.14,2.31-.85,3v.06h5.42v-.06c-1-.66-.84-1.87-.84-3Z"/><path class="cls-1" d="M119.94,128.74a5.82,5.82,0,0,0-3.36-1.1c-2.76,0-3.55,2.33-3.55,4.89,0,2.93,1.35,5.3,4.35,5.3a8.93,8.93,0,0,0,4.35-1.38l-1,3.1a14.2,14.2,0,0,1-4,.5,7.37,7.37,0,0,1-5.4-1.82A7.29,7.29,0,0,1,109,132.7a7.44,7.44,0,0,1,2.19-5.32,8.34,8.34,0,0,1,5.62-1.88l3,.27Z"/><path class="cls-1" d="M126.68,137.43a5.66,5.66,0,0,0,2.12.32,3.42,3.42,0,0,0,2.94-1.17h.1l-.81,3.2h-8.92v-.06c1-.66.85-1.84.85-2.95v-7.93c0-1.1.14-2.31-.85-2.94v-.06h7a2.07,2.07,0,0,0,.85-.11h.06v3.07H130c-.55-1-1.69-.89-2.68-.89h-.65v3.44h1.88a2,2,0,0,0,.74-.11h.1v3h-.1c-.28-.85-1.21-.76-2-.76h-.67Z"/><path class="cls-1" d="M136.79,136.77c0,1.11-.14,2.29.85,2.95v.06h-5.42v-.06c1-.66.85-1.84.85-2.95v-7.91c0-1.1.14-2.3-.85-3v-.06h5.42v.06c-1,.66-.85,1.86-.85,3Z"/><path class="cls-1" d="M143.8,127.89a1.87,1.87,0,0,1,1.17.3,2.24,2.24,0,0,1,.8,1.8,2.7,2.7,0,0,1-2.17,2.69v-4.79Zm-.2,5.91,2.33,4.62a2.31,2.31,0,0,0,2.7,1.43l2.78-.2a9.53,9.53,0,0,1-1.93-2.54l-2.4-4.22a3.71,3.71,0,0,0,2.4-3.35,3.49,3.49,0,0,0-1.79-3.22,5,5,0,0,0-2.7-.48h-6v.06c1,.66.84,1.86.84,3v7.89c0,1.1.15,2.31-.84,3v.06h5.42v-.06c-1-.66-.85-1.87-.85-3Z"/><path class="cls-1" d="M154.85,132.19c0-2.18,1.05-4.58,3.43-4.58,2.76,0,3.66,3.46,3.66,5.88a5.08,5.08,0,0,1-.74,3,3.32,3.32,0,0,1-2.68,1.49,3.28,3.28,0,0,1-2.72-1.83A9.35,9.35,0,0,1,154.85,132.19Zm-3.9.58a7,7,0,0,0,7.33,7.28c4.09,0,7.57-2.69,7.57-7.31s-3.1-7.24-7.33-7.24S151,128.25,151,132.77Z"/><path class="cls-1" d="M137.71,161.55a6.82,6.82,0,0,0-5.38-.7c.37-1.59,0-3.92-4-6a3.49,3.49,0,0,0-.32,2.59c-.95-1-1.63-.93-1.63-.93a7.35,7.35,0,0,0,.22,4.28,6.23,6.23,0,0,0-4.94-.54,5,5,0,0,0,2.81,4.54c-2.53,1.63-2.47,5.55-2.47,5.55,4.21.62,5.93-1.8,6.54-3.06a6,6,0,0,0,1.74,3.42,5.54,5.54,0,0,0,4.6,1.19s1.78-4.46-1.12-6.75C137.67,164.28,137.71,161.55,137.71,161.55Z"/><path class="cls-5" d="M140.68,155.81a18.61,18.61,0,0,1-.69-2.68,5.46,5.46,0,0,1-1.29.67s-3.86,1.06-4.46,6a14.92,14.92,0,0,1,3.44.9C138.59,160.25,141.81,158.85,140.68,155.81Z"/><path class="cls-5" d="M144.55,161.62c-3.68-2.63-6-.25-6-.21a4.81,4.81,0,0,1-3.49,4.1,4.49,4.49,0,0,1,1,1.63,9,9,0,0,0,1.88,1.13l.13.09c5,2.12,9.1-3.49,9.1-3.49a3.66,3.66,0,0,1,1.22-1.18A21,21,0,0,1,144.55,161.62Z"/><path class="cls-1" d="M105.5,165.12c-2.9,2.29-1.12,6.75-1.12,6.75a5.52,5.52,0,0,0,4.6-1.19,5.94,5.94,0,0,0,1.74-3.42c.61,1.26,2.33,3.68,6.54,3.06,0,0,.07-3.92-2.47-5.55a4.93,4.93,0,0,0,2.81-4.54,6.24,6.24,0,0,0-4.94.54,7.3,7.3,0,0,0,.23-4.28s-.69-.12-1.64.93a3.5,3.5,0,0,0-.31-2.59c-4,2.1-4.38,4.43-4,6a6.84,6.84,0,0,0-5.39.7S101.59,164.28,105.5,165.12Z"/><path class="cls-5" d="M129.26,164.31a2,2,0,0,0,1.51,1.47,2.16,2.16,0,0,0-.72-1.89c.36-.09,1.31.2,1.84-1a2.82,2.82,0,0,0-2.09.29c0-.36.13-1.57-.68-1.83,0,0-.48.55-.16,1.9a2,2,0,0,0-1.89-.35,2.15,2.15,0,0,0,1.52,1c-.37.31-1.48.87-1.22,1.78C127.37,165.65,128.9,165.28,129.26,164.31Z"/><path class="cls-5" d="M111.9,165.65c.25-.91-.86-1.47-1.23-1.78a2.18,2.18,0,0,0,1.53-1,2,2,0,0,0-1.9.35c.32-1.35-.16-1.9-.16-1.9-.81.26-.69,1.47-.67,1.83a2.85,2.85,0,0,0-2.1-.29c.53,1.23,1.48.94,1.84,1a2.16,2.16,0,0,0-.72,1.89,2,2,0,0,0,1.52-1.47C110.36,165.28,111.9,165.65,111.9,165.65Z"/><path class="cls-4" d="M129.74,163.67a.41.41,0,0,1-.37.47.43.43,0,0,1-.48-.37.43.43,0,0,1,.85-.1Z"/><path class="cls-4" d="M109.52,163.67a.43.43,0,1,0,.48-.37A.43.43,0,0,0,109.52,163.67Z"/><path class="cls-5" d="M98.59,155.81a18.83,18.83,0,0,0,.68-2.68,5.46,5.46,0,0,0,1.29.67s3.87,1.06,4.47,6a14.9,14.9,0,0,0-3.45.9C100.67,160.25,97.45,158.85,98.59,155.81Z"/><path class="cls-5" d="M94.71,161.62c3.69-2.63,6-.25,6-.21a4.83,4.83,0,0,0,3.49,4.1,4.49,4.49,0,0,0-1,1.63,8.93,8.93,0,0,1-1.87,1.13l-.13.09c-5,2.12-9.1-3.49-9.1-3.49a3.76,3.76,0,0,0-1.22-1.18A21.15,21.15,0,0,0,94.71,161.62Z"/></svg>
