<svg width="240" height="240" viewBox="0 0 240 240" fill="none" xmlns="http://www.w3.org/2000/svg">
<path d="M117.782 208.682C93.7265 195.272 76.0393 177.908 63.654 155.62C49.5155 129.994 42.6145 98.4205 42.6145 59.0766V56.65L44.6203 55.2474C67.3289 38.6963 93.4459 30 120.152 30C146.858 30 172.961 38.6963 195.67 55.1492L197.676 56.5519V59.0345C197.676 98.3784 190.775 129.952 176.636 155.578C164.265 177.908 146.564 195.272 122.565 208.682L120.208 210L117.782 208.682Z" fill="#C51315"/>
<path d="M120.152 34.8391C93.502 34.8391 68.6895 43.6897 47.4536 59.0766C47.4536 140.051 77.8346 180.853 120.152 204.446C162.456 180.853 192.837 140.051 192.837 59.0766C171.657 43.6897 146.732 34.8391 120.152 34.8391Z" fill="#C51315"/>
<path d="M140.953 123.359C140.953 123.121 140.953 122.882 140.953 122.63C140.953 120.316 140.034 118.097 138.398 116.461C136.762 114.825 134.543 113.906 132.229 113.906C130.753 113.914 129.304 114.3 128.021 115.028C127.126 113.782 125.947 112.768 124.583 112.068C123.218 111.368 121.707 111.003 120.173 111.003C118.64 111.003 117.128 111.368 115.763 112.068C114.399 112.768 113.22 113.782 112.325 115.028C111.042 114.3 109.593 113.914 108.117 113.906C106.969 113.894 105.83 114.11 104.766 114.54C103.701 114.97 102.732 115.606 101.914 116.411C101.095 117.216 100.444 118.175 99.9971 119.233C99.5501 120.29 99.3163 121.426 99.3089 122.574C99.2946 122.817 99.2946 123.06 99.3089 123.303C101.056 124.421 102.89 125.397 104.793 126.221C104.664 125.827 104.598 125.415 104.597 125C104.565 124.471 104.642 123.942 104.822 123.443C105.003 122.945 105.283 122.489 105.647 122.104C106.01 121.718 106.448 121.41 106.935 121.2C107.421 120.99 107.945 120.882 108.475 120.882C109.005 120.882 109.529 120.99 110.016 121.2C110.502 121.41 110.941 121.718 111.304 122.104C111.667 122.489 111.948 122.945 112.128 123.443C112.309 123.942 112.385 124.471 112.353 125C112.351 125.4 112.29 125.797 112.171 126.179C111.909 127 111.381 127.71 110.67 128.198C111.764 128.465 112.872 128.703 114.009 128.886L115.313 129.054C118.493 129.465 121.713 129.465 124.893 129.054L126.197 128.886C127.334 128.703 128.442 128.465 129.55 128.198C128.839 127.71 128.311 127 128.049 126.179C127.919 125.799 127.853 125.401 127.853 125C127.912 124.012 128.346 123.084 129.067 122.405C129.788 121.726 130.741 121.348 131.731 121.348C132.721 121.348 133.674 121.726 134.394 122.405C135.115 123.084 135.55 124.012 135.609 125C135.608 125.415 135.542 125.827 135.413 126.221C137.332 125.414 139.184 124.457 140.953 123.359Z" fill="#D8C264"/>
<path d="M143.408 173.433C142.166 172.504 140.869 171.651 139.522 170.881C138.274 170.129 136.982 169.455 135.651 168.861C134.389 168.314 133.098 167.823 131.78 167.458C130.461 167.093 129.213 166.729 127.895 166.462C126.598 166.191 125.287 165.995 123.967 165.873C122.691 165.747 121.4 165.677 120.096 165.677C118.792 165.677 117.487 165.677 116.211 165.873C114.91 165.998 113.618 166.194 112.339 166.462C111.021 166.729 109.731 167.065 108.454 167.458C107.178 167.851 105.845 168.37 104.583 168.861C103.254 169.436 101.961 170.092 100.712 170.824C99.3655 171.595 98.0679 172.448 96.8263 173.377C95.4657 174.406 94.1726 175.521 92.955 176.715C92.6885 176.968 92.4361 177.234 92.1696 177.515C92.4361 177.767 92.6885 178.034 92.955 178.3C94.2174 179.549 95.5078 180.769 96.8263 181.975L97.8082 182.831C98.7619 183.673 99.7298 184.514 100.712 185.328C101.974 186.38 103.264 187.418 104.583 188.427V177.529C105.859 176.83 107.181 176.216 108.538 175.692V191.303C109.815 192.215 111.105 193.112 112.424 193.982V174.471C113.695 174.135 114.989 173.892 116.295 173.742V196.591C117.571 197.39 118.862 198.162 120.18 198.933C121.485 198.162 122.775 197.39 124.051 196.591V173.686C125.357 173.842 126.65 174.086 127.923 174.415V194.052C129.241 193.182 130.532 192.285 131.808 191.373V175.692C133.14 176.235 134.433 176.867 135.679 177.585V188.498C136.998 187.488 138.288 186.45 139.551 185.398C140.546 184.584 141.5 183.743 142.454 182.901L143.436 182.046C144.754 180.839 146.045 179.619 147.307 178.371C147.574 178.104 147.826 177.838 148.093 177.585C147.84 177.305 147.574 177.052 147.307 176.786C146.081 175.585 144.778 174.466 143.408 173.433Z" fill="#D8C264"/>
<path d="M79.4757 88.7423L91.328 93.1185L93.2636 93.8198C93.521 94.1296 93.7554 94.4578 93.9649 94.8017C95.0141 96.5659 95.3213 98.674 94.8192 100.664C94.317 102.654 93.0465 104.364 91.2859 105.42C90.3134 105.827 89.2414 105.935 88.207 105.73C87.1726 105.526 86.2228 105.017 85.479 104.269L81.748 100.496L79.5599 98.3083L74.2299 92.9783C73.2011 91.9466 71.8214 91.3404 70.3656 91.2806C68.9099 91.2208 67.485 91.7118 66.3751 92.6557L66.0105 92.9783C65.4701 93.5176 65.0415 94.1582 64.749 94.8634C64.4566 95.5686 64.306 96.3246 64.306 97.088C64.306 97.8514 64.4566 98.6074 64.749 99.3126C65.0415 100.018 65.4701 100.658 66.0105 101.198L66.3331 100.847C66.8724 100.307 67.513 99.8781 68.2182 99.5856C68.9234 99.2932 69.6793 99.1426 70.4428 99.1426C71.2062 99.1426 71.9622 99.2932 72.6673 99.5856C73.3725 99.8781 74.0131 100.307 74.5525 100.847L84.4831 110.792C85.4391 111.819 86.588 112.647 87.8642 113.23C89.1404 113.813 90.5189 114.139 91.921 114.189C93.3231 114.239 94.7213 114.013 96.0359 113.522C97.3505 113.032 98.5556 112.288 99.5825 111.332C100.609 110.376 101.438 109.227 102.021 107.951C102.604 106.674 102.93 105.296 102.98 103.894C103.03 102.492 102.803 101.094 102.313 99.779C101.823 98.4644 101.078 97.2593 100.123 96.2324L104.204 97.7192C104.543 98.6485 104.946 99.5531 105.41 100.426C106.905 103.302 108.988 105.83 111.526 107.846C113.459 106.544 115.659 105.691 117.964 105.349C118.711 105.237 119.466 105.18 120.222 105.181C120.974 105.18 121.724 105.237 122.466 105.349C124.777 105.688 126.982 106.541 128.919 107.846C131.452 105.826 133.535 103.299 135.034 100.426C135.487 99.5475 135.89 98.6437 136.24 97.7192L140.308 96.2324C138.629 98.3247 137.8 100.973 137.988 103.65C138.175 106.326 139.365 108.833 141.32 110.671C143.274 112.509 145.85 113.542 148.533 113.564C151.215 113.587 153.808 112.597 155.793 110.792L165.738 100.847C166.277 100.307 166.918 99.8781 167.623 99.5856C168.328 99.2932 169.084 99.1426 169.847 99.1426C170.611 99.1426 171.367 99.2932 172.072 99.5856C172.777 99.8781 173.418 100.307 173.957 100.847L174.28 101.198C174.82 100.658 175.249 100.018 175.541 99.3126C175.834 98.6074 175.984 97.8514 175.984 97.088C175.984 96.3246 175.834 95.5686 175.541 94.8634C175.249 94.1582 174.82 93.5176 174.28 92.9783L173.929 92.6557C172.816 91.7068 171.386 91.2129 169.924 91.2727C168.463 91.3326 167.078 91.9416 166.046 92.9783L160.716 98.3083L158.528 100.496L154.825 104.213C154.079 104.962 153.127 105.471 152.09 105.676C151.053 105.881 149.979 105.772 149.004 105.364C147.244 104.308 145.973 102.598 145.471 100.608C144.969 98.6178 145.276 96.5097 146.325 94.7456C146.535 94.4017 146.769 94.0735 147.027 93.7637L148.976 93.0624L160.828 88.7423C160.961 85.6079 160.459 82.479 159.353 79.5434C158.246 76.6077 156.558 73.9257 154.39 71.6582L149.215 82.3182L148.163 82.697L139.537 85.8389L137.39 86.6103L131.499 88.7563C130.925 91.7052 129.507 94.424 127.418 96.583C126.455 96.2916 125.476 96.0575 124.486 95.8817C121.621 95.3581 118.684 95.3581 115.818 95.8817C114.828 96.0575 113.849 96.2916 112.886 96.583C110.793 94.4273 109.374 91.7071 108.805 88.7563L102.928 86.6103L100.782 85.8389L92.1555 82.697L91.1176 82.3182L85.9138 71.6582C83.9552 73.7199 82.3869 76.1199 81.2851 78.7415C79.9489 81.9 79.3309 85.3159 79.4757 88.7423Z" fill="#D8C264"/>
<path d="M166.243 86.7786L176.538 83.0336C176.21 78.7403 177.111 74.4423 179.135 70.6421C181.159 66.8418 184.223 63.6963 187.969 61.5733C182.869 59.279 177.209 58.5267 171.686 59.4089C166.163 60.2912 161.019 62.7695 156.887 66.5386C159.718 69.1174 162.004 72.2368 163.611 75.7128C165.218 79.1889 166.113 82.9514 166.243 86.7786Z" fill="#D8C264"/>
<path d="M63.7662 83.0336L74.0616 86.7786C74.1935 82.9538 75.0892 79.194 76.6959 75.7204C78.3026 72.2469 80.5878 69.1298 83.4171 66.5526C79.2854 62.7784 74.1395 60.2958 68.6138 59.411C63.0882 58.5262 57.4244 59.2778 52.3207 61.5733C56.0682 63.6957 59.1343 66.8407 61.161 70.6408C63.1877 74.4408 64.0913 78.7391 63.7662 83.0336Z" fill="#D8C264"/>
<path d="M112.396 67.1417V40.2252C111.091 40.3935 109.787 40.6039 108.51 40.8564C107.234 41.1089 105.915 41.4455 104.639 41.7962V68.0675C105.929 67.8524 107.22 67.6701 108.51 67.5205C109.801 67.3662 111.091 67.2399 112.396 67.1417Z" fill="#D8C264"/>
<path d="M120.152 66.8332C121.443 66.8332 122.733 66.8612 124.023 66.9173V39.8184C122.747 39.7343 121.457 39.6782 120.152 39.6782C118.848 39.6782 117.557 39.6782 116.267 39.8184V66.9173C117.557 66.8612 118.848 66.8332 120.152 66.8332Z" fill="#D8C264"/>
<path d="M135.651 68.0675V41.7962C134.375 41.4455 133.084 41.1229 131.78 40.8564C130.475 40.5899 129.199 40.3935 127.895 40.2252V67.1417C129.199 67.2399 130.489 67.3662 131.78 67.5205C133.07 67.6747 134.375 67.8711 135.651 68.0675Z" fill="#D8C264"/>
<path d="M145.343 70.1294L147.279 64.8134L151.164 54.1534L152.777 49.707C152.244 49.3423 151.697 49.0057 151.164 48.655C149.902 47.8696 148.612 47.1121 147.279 46.4108C146.648 46.0742 146.003 45.7376 145.343 45.4149C144.684 45.0923 144.053 44.8258 143.408 44.5453C142.201 44.0263 140.799 43.4793 139.522 43.0164V68.7688C140.827 69.0353 142.117 69.3299 143.408 69.6384L145.343 70.1294Z" fill="#D8C264"/>
<path d="M96.8824 73.4817L96.2372 73.65L96.8824 75.4173L98.5095 79.8777L100.768 79.3867C102.044 79.1202 103.335 78.8958 104.639 78.6854C105.943 78.475 107.22 78.2927 108.51 78.1384C109.801 77.9841 111.091 77.8579 112.396 77.7597C113.7 77.6615 114.976 77.5773 116.267 77.5353C117.557 77.4932 118.848 77.4511 120.152 77.4511C121.457 77.4511 122.733 77.4511 124.023 77.5353C125.314 77.6194 126.618 77.6475 127.895 77.7597C129.171 77.8719 130.49 77.9841 131.78 78.1384C133.07 78.2927 134.375 78.475 135.651 78.6854C136.928 78.8958 138.246 79.1202 139.522 79.3867L141.781 79.8777L143.408 75.4173L144.053 73.65L143.408 73.4817C142.117 73.1591 140.827 72.8645 139.522 72.598C138.218 72.3315 136.956 72.1071 135.651 71.8967C134.347 71.6863 133.07 71.518 131.78 71.3637C130.49 71.2094 129.199 71.0691 127.895 70.9709C126.59 70.8728 125.37 70.8447 123.967 70.7886C122.565 70.7325 121.443 70.6764 120.152 70.6764C118.862 70.6764 117.557 70.6764 116.267 70.7605C114.976 70.8447 113.672 70.8868 112.396 70.985C111.119 71.0832 109.801 71.2234 108.51 71.3777C107.22 71.532 105.929 71.7143 104.639 71.9107C103.349 72.1071 102.044 72.3596 100.768 72.612C99.4913 72.8645 98.1728 73.2011 96.8824 73.4817Z" fill="#D8C264"/>
<path d="M91.0755 59.4553L93.0111 64.7853L94.9468 70.1013L96.8824 69.5964C98.1728 69.2878 99.4633 68.9932 100.768 68.7267V43.0164C99.4492 43.4793 98.1588 43.9843 96.8824 44.5453C96.2372 44.8258 95.592 45.1064 94.9468 45.4149C94.3016 45.7235 93.6564 46.0742 93.0111 46.4108C92.3659 46.7474 91.7067 47.1262 91.0755 47.4908C90.4443 47.8555 89.7711 48.2623 89.1399 48.655C88.5087 49.0478 88.0458 49.3423 87.5128 49.707L89.1399 54.1534L91.0755 59.4553Z" fill="#D8C264"/>
<path d="M169.974 119.769C169.719 119.516 169.447 119.282 169.16 119.067C167.68 117.911 165.865 117.264 163.987 117.224C162.108 117.184 160.268 117.751 158.739 118.843C158.344 119.12 157.973 119.43 157.63 119.769L157.21 120.231C146.967 129.245 133.79 134.218 120.145 134.218C106.501 134.218 93.3237 129.245 83.0805 120.231L82.6597 119.769C82.3187 119.433 81.953 119.124 81.5656 118.843C80.0336 117.752 78.1907 117.185 76.3107 117.226C74.4306 117.266 72.6138 117.912 71.13 119.067C70.8457 119.285 70.5741 119.519 70.3165 119.769C68.9268 121.159 68.0485 122.979 67.8244 124.933C67.6003 126.886 68.0436 128.857 69.0822 130.527C69.4328 131.095 69.8469 131.622 70.3165 132.098L70.6672 132.392C78.0659 141.589 82.6797 152.709 83.9641 164.442C83.9666 164.692 83.9901 164.94 84.0343 165.186C84.1526 165.755 84.3761 166.298 84.6935 166.785C84.8607 167.029 85.0484 167.259 85.2546 167.472C85.7554 167.973 86.3715 168.344 87.0488 168.552C87.7262 168.76 88.4441 168.798 89.1399 168.664C89.5608 168.593 89.9678 168.455 90.3461 168.258H90.4724C99.5976 163.278 109.827 160.669 120.222 160.669C130.618 160.669 140.847 163.278 149.972 168.258H150.098C150.472 168.455 150.874 168.593 151.291 168.664C151.977 168.785 152.682 168.738 153.346 168.528C154.01 168.318 154.614 167.951 155.106 167.458C155.312 167.245 155.5 167.015 155.667 166.771C155.97 166.294 156.183 165.767 156.298 165.214C156.319 164.967 156.319 164.718 156.298 164.471C157.597 152.72 162.236 141.588 169.665 132.392L169.974 132.112C170.447 131.64 170.862 131.113 171.208 130.541C172.25 128.87 172.695 126.896 172.471 124.939C172.247 122.983 171.367 121.16 169.974 119.769ZM162.301 135.787C157.225 143.051 153.772 151.322 152.174 160.038C152.09 160.473 152.034 160.936 151.95 161.441C151.57 156.365 149.524 151.557 146.129 147.765C146.129 148.396 146.213 149.028 146.213 149.673C146.214 153.749 145.145 157.753 143.113 161.287C128.204 156.349 112.1 156.349 97.191 161.287C95.1486 157.757 94.0744 153.751 94.0771 149.673C94.0771 149.028 94.0771 148.396 94.1613 147.765C90.7666 151.557 88.7202 156.365 88.3404 161.441C88.2702 160.992 88.2001 160.529 88.1159 160.038C86.5185 151.322 83.0647 143.051 77.9889 135.787C77.9029 135.679 77.8233 135.567 77.7505 135.45C77.5974 135.2 77.466 134.937 77.3577 134.665C76.9924 133.742 76.9193 132.73 77.1483 131.765C77.3774 130.8 77.8976 129.928 78.6385 129.268C79.3793 128.609 80.3051 128.192 81.2903 128.076C82.2755 127.96 83.2726 128.15 84.1465 128.619C84.1915 130.092 84.3747 131.557 84.6935 132.995C85.5239 136.618 87.2178 139.987 89.6308 142.814C89.4191 139.185 90.0629 135.558 91.5103 132.224C100.551 136.092 110.283 138.086 120.117 138.086C129.951 138.086 139.683 136.092 148.724 132.224C150.185 135.574 150.833 139.222 150.617 142.87C153.03 140.043 154.724 136.674 155.555 133.052C155.89 131.615 156.082 130.149 156.13 128.675C157.004 128.206 158.001 128.016 158.986 128.132C159.971 128.249 160.897 128.665 161.638 129.324C162.379 129.984 162.899 130.856 163.128 131.821C163.357 132.786 163.284 133.798 162.918 134.721C162.816 134.996 162.684 135.259 162.526 135.506C162.459 135.606 162.384 135.7 162.301 135.787Z" fill="#D8C264"/>
<path d="M97.4855 154.834C97.7884 155.871 98.1682 156.884 98.6217 157.864C112.643 153.525 127.648 153.525 141.669 157.864C142.121 156.882 142.505 155.869 142.819 154.834C128.093 150.009 112.211 150.009 97.4855 154.834Z" fill="#D8C264"/>
<path d="M185.543 92.291C185.43 92.284 185.317 92.3165 185.225 92.383C185.133 92.4495 185.067 92.5458 185.038 92.6556L184.968 92.7959C183.266 96.9706 180.674 100.724 177.372 103.793C174.07 106.862 170.138 109.174 165.85 110.567H165.682C165.583 110.598 165.497 110.659 165.436 110.743C165.375 110.826 165.343 110.927 165.345 111.03C165.341 111.151 165.384 111.268 165.466 111.357C165.547 111.446 165.659 111.5 165.78 111.507H165.934C169.148 111.992 172.106 113.541 174.336 115.906C176.566 118.271 177.939 121.315 178.235 124.552C178.235 124.679 178.285 124.802 178.374 124.894C178.463 124.985 178.584 125.039 178.712 125.042C178.798 125.04 178.882 125.015 178.955 124.971C179.029 124.927 179.09 124.864 179.133 124.79V124.622C182.304 114.268 184.562 103.656 185.88 92.9081C185.88 92.9081 185.88 92.6697 185.88 92.6697C185.863 92.5819 185.823 92.5003 185.764 92.4335C185.705 92.3668 185.628 92.3175 185.543 92.291Z" fill="#D8C264"/>
<path d="M74.5104 111.563C74.6319 111.556 74.7461 111.503 74.8296 111.414C74.9131 111.325 74.9594 111.208 74.9592 111.086C74.9599 110.981 74.9259 110.879 74.8625 110.795C74.7991 110.712 74.7098 110.651 74.6086 110.623H74.4402C70.148 109.223 66.2133 106.902 62.9112 103.822C59.6091 100.743 57.0191 96.98 55.3223 92.7959V92.6556C55.2883 92.546 55.219 92.4508 55.1251 92.3848C55.0312 92.3188 54.918 92.2858 54.8034 92.291C54.6807 92.305 54.5678 92.3648 54.4872 92.4584C54.4066 92.552 54.3642 92.6725 54.3686 92.7959V93.0344C55.6928 103.781 57.9502 114.393 61.1152 124.748V124.916C61.1698 125.007 61.2525 125.078 61.3508 125.118C61.4491 125.158 61.5577 125.166 61.6604 125.139C61.7631 125.112 61.8544 125.052 61.9205 124.969C61.9865 124.886 62.0239 124.784 62.0269 124.678C62.3231 121.441 63.6958 118.397 65.9258 116.032C68.1558 113.667 71.1141 112.119 74.328 111.633L74.5104 111.563Z" fill="#D8C264"/>
</svg>
