<svg id="Layer_1" data-name="Layer 1" width="240" height="240" xmlns="http://www.w3.org/2000/svg" viewBox="0 0 240 240"><defs><style>.cls-1{fill:#fff;}.cls-2{fill:#c2a712;}.cls-3{fill:#398c40;}</style></defs><path class="cls-1" d="M204.21,119.13l-42.06,73.8H77.85l-42.06-73.8L77.92,47.07h84.15Z"/><polyline points="78.15 51.45 38.57 119.13 79.25 190.5 160.74 190.5 201.42 119.13 160.67 49.47 79.31 49.47 78.15 51.45"/><polyline class="cls-2" points="81.02 54.45 80.44 55.44 43.18 119.16 81.57 186.51 158.41 186.51 196.81 119.16 158.38 53.47 81.6 53.46 81.02 54.45"/><polyline class="cls-1" points="82.17 56.45 45.49 119.17 82.73 184.51 157.25 184.51 194.5 119.17 157.24 55.47 82.74 55.47 82.17 56.45"/><polyline points="192.19 119.19 156.09 57.46 83.89 57.46 47.79 119.18 83.89 182.51 156.09 182.51 192.19 119.19"/><polyline class="cls-2" points="119.56 103.35 120.87 107.36 125.08 107.36 121.67 109.83 122.97 113.84 119.56 111.36 116.15 113.84 117.46 109.83 114.05 107.36 118.26 107.36 119.56 103.35"/><polyline class="cls-2" points="99.88 103.35 101.18 107.36 105.4 107.36 101.99 109.83 103.29 113.84 99.88 111.36 96.47 113.84 97.77 109.83 94.36 107.36 98.58 107.36 99.88 103.35"/><polyline class="cls-2" points="80.2 103.35 81.5 107.36 85.71 107.36 82.31 109.83 83.6 113.84 80.2 111.36 76.78 113.84 78.09 109.83 74.68 107.36 78.89 107.36 80.2 103.35"/><polyline class="cls-2" points="139.25 103.35 137.94 107.36 133.73 107.36 137.14 109.83 135.84 113.84 139.25 111.36 142.66 113.84 141.35 109.83 144.76 107.36 140.55 107.36 139.25 103.35"/><polyline class="cls-2" points="158.93 103.35 157.63 107.36 153.41 107.36 156.82 109.83 155.52 113.84 158.93 111.36 162.34 113.84 161.04 109.83 164.45 107.36 160.24 107.36 158.93 103.35"/><path class="cls-1" d="M88.71,91.93h-.89c-.33,0-.43-.17-.43-.35s.18-.42.53-.42h1.66v-.57H87.81c-.84,0-1.1.37-1.12,1s.33.93,1.07.93h.79c.44,0,.48.16.48.31s-.09.42-.52.42H86.83v.57h1.79c.85,0,1.09-.36,1.12-1s-.24-.9-1-.9"/><path class="cls-1" d="M91.7,90.59H90.24v3.2h.67V92.67h.82c.9,0,1.36-.23,1.36-1s-.34-1-1.39-1m0,1.51h-.82v-.94h.78c.5,0,.65.17.65.48S92.14,92.1,91.73,92.1Z"/><path class="cls-1" d="M94.93,90.53c-.89,0-1.59.37-1.59,1.66,0,1.11.5,1.67,1.6,1.67s1.61-.68,1.61-1.67c0-1.36-.76-1.66-1.62-1.66m0,2.78c-.67,0-.87-.51-.87-1.12s.27-1.11.87-1.11c.78,0,.87.65.87,1.12C95.81,92.86,95.57,93.31,94.94,93.31Z"/><path class="cls-1" d="M99.77,91.56c0-.7-.38-1-1.12-1H97v3.2h.67V92.54h.79l.71,1.25h.75l-.78-1.34a.83.83,0,0,0,.64-.89M98.49,92h-.83v-.82h.83c.61,0,.6.21.6.4S98.93,92,98.49,92Z"/><polyline class="cls-1" points="100 91.16 101.03 91.16 101.03 93.79 101.73 93.79 101.73 91.16 102.76 91.16 102.76 90.6 100 90.6 100 91.16"/><path class="cls-1" d="M104.93,91.93H104c-.33,0-.43-.17-.43-.35s.18-.42.53-.42h1.66v-.57H104c-.84,0-1.1.37-1.12,1s.33.93,1.07.93h.79c.44,0,.47.16.47.31s-.08.42-.51.42H103v.57h1.8c.85,0,1.1-.36,1.11-1s-.23-.9-1-.9"/><path class="cls-1" d="M107.37,92.25a1.35,1.35,0,0,0,1.49,1.54H110v-.56h-1.1c-.45,0-.79-.06-.79-.93s.32-1.16.79-1.16H110v-.55h-1.11c-1.17,0-1.51.68-1.51,1.66"/><path class="cls-1" d="M111.08,92.35V90.59h-.66V92.5c0,1.14.55,1.29,1.34,1.29h.86v-.53h-.81c-.72,0-.73-.28-.73-.91"/><path class="cls-1" d="M115.07,92.51c0,.66-.23.81-.71.81-.66,0-.72-.35-.72-.81V90.59H113v1.94c0,.83.25,1.3,1.4,1.3s1.38-.5,1.38-1.3V90.59h-.67v1.92"/><path class="cls-1" d="M118.74,92.19a.81.81,0,0,0,.48-.72c0-.83-.64-.87-1.18-.88h-1.65v3.2h1.76c.61,0,1.08-.16,1.08-.89a.75.75,0,0,0-.49-.71m-1.68-1h1c.29,0,.44.13.44.38s-.18.36-.44.36h-1Zm1,2.07h-1v-.76h1c.29,0,.44.13.44.38S118.28,93.23,118.06,93.23Z"/><path class="cls-1" d="M122.71,91.93h-.88c-.34,0-.43-.17-.43-.35s.17-.42.52-.42h1.66v-.57h-1.76c-.85,0-1.11.37-1.13,1s.33.93,1.07.93h.79c.44,0,.47.16.47.31s-.07.42-.51.42h-1.68v.57h1.79c.85,0,1.1-.36,1.12-1s-.24-.9-1-.9"/><path class="cls-1" d="M125.16,90.59l-1.35,3.2h.72l.27-.77h1.4l.29.77h.75l-1.37-3.2h-.71M125,92.46l.47-1.23.49,1.23Z"/><path class="cls-1" d="M127.26,92.25c0,1.17.62,1.54,1.51,1.54h1.44V91.9h-1.58v.56h.9v.75h-.76c-.59,0-.76-.38-.76-1,0-.85.32-1.06.76-1.06h1.44v-.56h-1.44c-.94,0-1.51.42-1.51,1.66"/><path class="cls-1" d="M131.69,90.59l-1.35,3.2h.71l.28-.77h1.39l.3.77h.75l-1.37-3.2h-.71m-.14,1.87.47-1.23.48,1.23Z"/><polyline class="cls-1" points="135.8 93.05 134.99 90.59 133.99 90.59 133.99 93.79 134.69 93.79 134.61 91.28 135.45 93.79 136.17 93.79 136.99 91.3 136.93 93.79 137.6 93.79 137.6 90.59 136.61 90.59 135.8 93.05"/><rect class="cls-1" x="138.26" y="90.59" width="0.7" height="3.21"/><polyline class="cls-1" points="141.54 91.88 140.31 91.88 140.31 90.59 139.63 90.59 139.63 93.79 140.31 93.79 140.31 92.45 141.54 92.45 141.54 93.79 142.21 93.79 142.21 90.59 141.54 90.59 141.54 91.88"/><path class="cls-1" d="M143.79,90.59l-1.35,3.2h.71l.28-.77h1.39l.3.77h.75l-1.37-3.2h-.71m-.14,1.87.47-1.23.49,1.23Z"/><path class="cls-1" d="M148.87,91.56c0-.7-.37-1-1.12-1H146.1v3.2h.67V92.54h.79l.7,1.25H149l-.78-1.33a.82.82,0,0,0,.64-.89m-1.28.42h-.82v-.82h.82c.61,0,.6.21.6.4S148,92,147.59,92Z"/><path class="cls-1" d="M151.06,90.59h-.71L149,93.78h.71L150,93h1.4l.29.77h.75l-1.37-3.2m-.85,1.87.47-1.23.49,1.23Z"/><path class="cls-1" d="M102.07,74H94.75a2,2,0,0,1,0-3.92h7.78c1.26,0,2.56,0,3.36,1.44h.72v-5H94.44a5.48,5.48,0,0,0,0,11h7.16a2,2,0,0,1,2,2v.85a2.05,2.05,0,0,1-2,2H94.66c-1.26,0-3.47.14-4.26-1.52l-.78,0V85.9h12.45a5.53,5.53,0,0,0,5.48-5.56v-.85A5.49,5.49,0,0,0,102.07,74"/><path class="cls-1" d="M126.5,80.84c-.62,1.3-2.15,1.49-3.39,1.52h-4.44a4.5,4.5,0,0,1-4.49-4.49V74.09c0-2.47,2-4,4.49-4h4.46c1.26,0,2.56,0,3.35,1.44h.73v-5h-8.93c-4.42,0-8,3.13-8,7.54v3.78a8,8,0,0,0,8,8h5v0h3.89V80.82l-.73,0"/><path class="cls-1" d="M144.28,74H137a2,2,0,0,1,0-3.92h7.78c1.26,0,2.57,0,3.36,1.44h.73v-5H136.65a5.48,5.48,0,0,0,0,11h7.16a2,2,0,0,1,2,2v.85a2.06,2.06,0,0,1-2,2h-6.94c-1.25,0-3.47.14-4.26-1.52l-.78,0V85.9h12.45a5.53,5.53,0,0,0,5.48-5.56v-.85A5.49,5.49,0,0,0,144.28,74"/><path class="cls-3" d="M69.51,123.56q-4.82,8.28-9.72,16.67l8.88,15.58,13.9-32.25H69.51"/><path class="cls-3" d="M91.16,123.56q-7.35,22.32-15,45.41l7.71,13.54h9.89q5.32-30.13,10.44-58.95H91.16"/><path class="cls-3" d="M156.39,123.56q7.06,16.42,14.34,33.28l9-15.72-10.25-17.56H156.39"/><path class="cls-3" d="M134.73,123.56q5.11,28.83,10.45,58.95h10.91l7.07-12.39q-7.83-23.68-15.37-46.56H134.73"/><path class="cls-3" d="M112.82,123.56q-2.2,28.92-4.5,58.95h22.32q-2.31-30.13-4.5-58.95H112.82"/><path d="M124,120.65l-.11-.07c-.75-.37-5-1.33-7.49-.57a13.42,13.42,0,0,0-1.68.9c-.33.12-.65.26-1,.4a1.72,1.72,0,0,0-.47-.15l-.21,0-.28.12a18.29,18.29,0,0,0-2.85,2l-.17.19a3,3,0,0,0-.81,1.27v.06c-.26.28-.5.56-.74.85l-.53.51a2.57,2.57,0,0,0-.49,1,15.57,15.57,0,0,0-2.33,8.25,14.88,14.88,0,1,0,29.74,0A15.3,15.3,0,0,0,124,120.65Z"/><path class="cls-1" d="M111.56,129.63a4.13,4.13,0,0,0,1,1.23l.29.28a1.1,1.1,0,0,0,.88.37.67.67,0,0,0,.51-.43,37.15,37.15,0,0,1,2.82-5,14.1,14.1,0,0,1,4.73-3.58c1.66-.73,2-.66,2-.66a.14.14,0,0,0,.11,0,.28.28,0,0,0,.15-.26c0-.16-.14-.31-.44-.46-.67-.33-4.79-1.23-7.05-.52h0a9.19,9.19,0,0,0-2.51,1.61,14,14,0,0,0-2.51,4.48,4.74,4.74,0,0,0,0,3"/><path class="cls-1" d="M117.2,126.75a28,28,0,0,0-2,3.48l-.07.19c-.23.55-.46,1.13-.26,1.48s.76.58,1.77.86a4.47,4.47,0,0,0,2.36.11,7.88,7.88,0,0,0,1.26-1.6l.8-1.13a10.17,10.17,0,0,1,3.67-2.54,9.43,9.43,0,0,1,2.81-.61h0c.52,0,1,0,1.08-.68a4.73,4.73,0,0,0-1-3,3.18,3.18,0,0,0-2.29-1.1h0a22.35,22.35,0,0,0-3.64.84,16.09,16.09,0,0,0-4.5,3.69"/><path class="cls-1" d="M129.72,127.42l.43.29c.37.27,1.06.59,1.29.46a.17.17,0,0,0,.09-.16,5.38,5.38,0,0,0-1.1-1.81l-1.27-1.34-.09,0a.14.14,0,0,0-.1.05c-.42.46,0,1.71.13,2a1.48,1.48,0,0,0,.62.55"/><path class="cls-1" d="M132.7,132.31c-.21-2.06-.85-3.32-2.06-4.06a3.48,3.48,0,0,0-2.58-.62H128c-.11,0-.44.06-.51.3a.22.22,0,0,0,0,.11c0,.17.16.38.46.66a15.47,15.47,0,0,1,2.22,3l.44.92a7.63,7.63,0,0,1,.84,2.29c.11.76.15,1.3.17,1.62s0,.3,0,.31h0a.14.14,0,0,0,0,.06c.05.1.25.42.47.39s.26-.29.28-.37a17.6,17.6,0,0,0,.31-4.61"/><path class="cls-1" d="M129.17,131.29c-1.59-2.06-2.43-2.95-2.9-3.08a1.74,1.74,0,0,0-1.49.13l-.36.16c-.5.22-1.11.49-1.17.93a.86.86,0,0,0,.39.75,12.94,12.94,0,0,1,2.59,4.39,18.61,18.61,0,0,1,1,6.11,12.74,12.74,0,0,1-.68,3.06c-.06.19-.18.64,0,.8a.27.27,0,0,0,.33,0,36.92,36.92,0,0,0,3.22-3.13l.05-.06a4,4,0,0,0,1.19-3.63,14.46,14.46,0,0,0-2.24-6.41"/><path class="cls-1" d="M126.63,138a14.53,14.53,0,0,0-3.27-7.13l-.2-.19c-.33-.34-.7-.71-1.34-.4l0,0a21,21,0,0,0-1.46,1.72,1.73,1.73,0,0,0,0,1.56l.24.49a8.43,8.43,0,0,1,1,2.94,10.46,10.46,0,0,1-.38,4.68,13.37,13.37,0,0,1-1,2.19,1.55,1.55,0,0,0,.21,1.38,3.29,3.29,0,0,0,1.61,1c.52.07,2.79.11,3.47-1.14a11,11,0,0,0,1.17-7.11"/><path class="cls-1" d="M119.34,144.52c1-1.32.8-1.61.73-1.71s-.57-.11-.7-.07h0a11.48,11.48,0,0,1-3.4.65,8.45,8.45,0,0,1-3.66-.22c-.56-.23-1.94-.68-2-.71h-.08a.28.28,0,0,0-.2.24c0,.18.12.38.46.6s.55.42.89.69a8.83,8.83,0,0,0,2,1.38l.28.11a4.88,4.88,0,0,0,3.09.4,3.64,3.64,0,0,0,2.6-1.37"/><path class="cls-1" d="M116.82,142.78a13.6,13.6,0,0,0,3.47-1h0c.64-.19.72-1.17.78-2l.07-.64a.48.48,0,0,0-.09-.45c-.18-.19-.51-.14-.78-.1l-.18,0-.17,0a17.09,17.09,0,0,1-2.88,0c-2-.14-2.11-.16-5.23-1.33l-.07,0a8.28,8.28,0,0,1-4.29-2.92l-.3-.37c-.35-.41-.6-.55-.8-.48s-.27.62-.24,1.17a14.8,14.8,0,0,0,.59,3l.06.14a6.45,6.45,0,0,0,3.24,3.92,14.82,14.82,0,0,0,6.84,1"/><path class="cls-1" d="M114.06,137.49a16.88,16.88,0,0,0,5.3.52c.7,0,1.08-.13,1.31-.6a2.86,2.86,0,0,0-.28-2.21c-.42-1-1.45-1.16-2.77-1.33l-.5-.07a11.3,11.3,0,0,1-4.47-1.94,12.28,12.28,0,0,1-2.47-2.85c-.51-.79-.87-1.13-1.61-1h-.08a.58.58,0,0,0,.2-.3.72.72,0,0,1,.28-.36,1.76,1.76,0,0,0,.56-1,5.1,5.1,0,0,0,.22,1.3.67.67,0,0,0,.59.44.62.62,0,0,0,.58-.4,5,5,0,0,0,.23-.93,7.22,7.22,0,0,1,.62-2.09,5.93,5.93,0,0,1,1.24-1.78l.23-.21c.31-.27.51-.45.45-.65s-.26-.22-.47-.26a.11.11,0,0,0-.08,0,18.27,18.27,0,0,0-2.72,1.91l-.18.18a2.45,2.45,0,0,0-.68,1,3.59,3.59,0,0,0-.06,1,.91.91,0,0,0-.13-.26.14.14,0,0,0-.18,0,6.21,6.21,0,0,0-1,1,1.78,1.78,0,0,0-.43,1.28.43.43,0,0,1,0,0,.61.61,0,0,0,.3.25,2.05,2.05,0,0,0-1,.77,6.37,6.37,0,0,0-.6,1.68c-.3,1.15.19,2.3,1.49,3.49a14,14,0,0,0,6.06,3.45"/><path d="M160.28,138.33h-.1v0l-.27,0-.26,0-.12,0h0l-15.16,1.9-3.07.38-1.42.21h-.07c-.77.11-1.66.23-2.59.41h0l-1,.22-.36.09-.44.1-.29.1q-.33.09-.66.21l-.58.2-.58.24-.28.12-.2.1c-.28.14-.56.28-.84.44l-.33.21a8.17,8.17,0,0,0-.71.49,1.88,1.88,0,0,0-.18.12c-.27.21-.49.36-.7.5a11.34,11.34,0,0,0-1.08.84l-.1.08a27,27,0,0,1-6.45,4.59c-.07-.29-.11-.55-.11-.55s0-.2,0-.42-.46-.49-.81-.75a.55.55,0,0,1-.15-.7,1.65,1.65,0,0,0-.1-.95l-.52.57a3.35,3.35,0,0,0,.29-1.07l-.83.6c.35-.57.35-1.44.06-1.07a5.26,5.26,0,0,1-1.16.88l0-.69a10.78,10.78,0,0,1-1,.88,6,6,0,0,0-2.11,1.65,2.21,2.21,0,0,0-.47,1,33.77,33.77,0,0,1-5.22-4h0l-.1-.09c-.46-.39-.76-.6-1.08-.83s-.43-.29-.7-.5a1.88,1.88,0,0,0-.18-.12,8.17,8.17,0,0,0-.71-.49l-.33-.21c-.28-.16-.56-.3-.85-.44l-.19-.1-.28-.12-.58-.23a5.71,5.71,0,0,0-.58-.21q-.33-.12-.66-.21c-.1,0-.19-.07-.29-.09s-.29-.07-.44-.11l-.36-.09-1-.22h0c-.93-.18-1.82-.3-2.59-.4h-.07l-1.43-.21L79.6,138.43h0l-.12,0-.26,0-.28,0v0h-.11l.1,0,.68,1.7a1.61,1.61,0,0,0,.39.48l0,0a2.35,2.35,0,0,0,.78.8l0,.11s.41.8.73,1.31a1.19,1.19,0,0,0,.22.25c.07.11.13.23.19.33a2.75,2.75,0,0,0,1.15.82c.07.11.19.28.33.47s.51.77.89,1.27a3.71,3.71,0,0,0,1.41.8l.12.13-.1,0,.14.16c.47.56.79.92,1,1.12a4.89,4.89,0,0,0,1.67.78l0,0-.19.09.13.13c.13.13.58.59,1.05,1a3.73,3.73,0,0,0,1.61.58l.14.12-.25.16.22.19c.25.21.73.61,1.13.92a4.71,4.71,0,0,0,1.79.54l-.21.16.31.22,1.16.81a3.48,3.48,0,0,0,.91.39l-.09,0,.16.19a4.09,4.09,0,0,0,1.35.82,4.15,4.15,0,0,0,1.17.26l-.25.25L99,156s.71.39,1.25.66a3.34,3.34,0,0,0,1.08.28l-.16.18,1.41.64a3.57,3.57,0,0,0,1.12.3l-.1.14,1.49.6.13,0a2.8,2.8,0,0,0,.83.22l0,.07.26.09s.86.31,1.4.48l.13,0a5.3,5.3,0,0,0,.61.17v0l1.38.41a3,3,0,0,0,1.07.14l-.07.14,1.35.35a3.85,3.85,0,0,0,1.07.06l-.07.18,1.41.29a2.74,2.74,0,0,0,1,0l-.06.18.59.11-4.33,3.6-.08.07.09,0,.45.22-1.3.95s.58.27,1,.43a2.26,2.26,0,0,0,.63.23.7.7,0,0,0,.49-.07l-.22.22s.64.28,1,.43a1.76,1.76,0,0,0,.55.18.43.43,0,0,0,.34-.09l-.14.21.81.31a2.65,2.65,0,0,0,.47.13.61.61,0,0,0,.59-.15l-.14.35.76.27.29.07h.12a.62.62,0,0,0,.55-.1l-.06.32.77.25.18,0c.31.06.61,0,.68-.18.06.18.36.24.67.18l.18,0,.77-.25-.06-.32a.64.64,0,0,0,.56.1h.11l.29-.07.77-.27-.14-.35a.59.59,0,0,0,.58.15,2.54,2.54,0,0,0,.48-.13l.8-.31-.14-.21a.43.43,0,0,0,.34.09,1.68,1.68,0,0,0,.55-.18c.4-.15,1-.43,1-.43l-.22-.22a.7.7,0,0,0,.49.07,2.45,2.45,0,0,0,.64-.23l1-.43-1.3-.95.45-.22.09,0-.08-.07-4.32-3.6.61-.11s0-.13-.06-.18a2.74,2.74,0,0,0,1,0l1.41-.29-.07-.18A3.85,3.85,0,0,0,127,161l1.35-.35-.07-.14a3,3,0,0,0,1.07-.14l1.38-.41,0,0a4.91,4.91,0,0,0,.62-.17l.13,0c.53-.17,1.36-.46,1.39-.48l.27-.09-.05-.07a2.78,2.78,0,0,0,.84-.22l.13,0,1.49-.6-.11-.14a3.56,3.56,0,0,0,1.13-.3l1.41-.64-.16-.18a3.43,3.43,0,0,0,1.08-.28c.54-.27,1.22-.64,1.25-.66l.21-.14-.25-.25a4.31,4.31,0,0,0,1.18-.26,3.82,3.82,0,0,0,1.34-.82l.16-.19-.09,0a3.43,3.43,0,0,0,.92-.39l1.16-.81.31-.22-.22-.16a4.6,4.6,0,0,0,1.79-.54c.4-.31.89-.71,1.14-.92l.22-.19-.26-.16.15-.12a3.73,3.73,0,0,0,1.61-.58c.47-.42.92-.88,1.05-1l.12-.13-.18-.09,0,0a4.6,4.6,0,0,0,1.68-.78c.19-.2.51-.56,1-1.12l.13-.16-.09,0,.11-.13a3.76,3.76,0,0,0,1.42-.8c.41-.53.84-1.18.9-1.28l.32-.46a2.71,2.71,0,0,0,1.14-.82,2.59,2.59,0,0,0,.19-.33,1,1,0,0,0,.23-.25c.33-.53.72-1.3.72-1.31l.06-.11a2.44,2.44,0,0,0,.78-.8v0a1.46,1.46,0,0,0,.4-.48l.67-1.7Z"/><path class="cls-2" d="M112.65,165.84l.1,0c.31.15.64.3.92,0L117,162h-.07l-.69-.12-4.34,3.61Z"/><path class="cls-2" d="M117.14,162,113.79,166h0v0l-.24.28.85.37.1,0c.32.14.51.22.71-.13l.65-1.12h0l2-3.48A4.14,4.14,0,0,1,117.14,162Z"/><path class="cls-2" d="M119.37,168.26a.16.16,0,0,0,.08-.12V168l-.26-5.71-1,5.82.63.21A.73.73,0,0,0,119.37,168.26Z"/><path class="cls-2" d="M118,167.81a.2.2,0,0,0,.1-.15l.23-1.25h0l.85-4.76,0-.49a1.67,1.67,0,0,1-.28.31l-2.2,6.07.62.23A1.06,1.06,0,0,0,118,167.81Z"/><path class="cls-2" d="M115.78,167.2a1,1,0,0,0,.7.09.4.4,0,0,0,.23-.27l.39-1.07h0l1.56-4.32a2.49,2.49,0,0,1-.61.26l-2.92,5.05Z"/><path class="cls-2" d="M127.21,165.48l-4.34-3.61-.66.12h-.09l3.3,3.88c.29.31.61.16.92,0l.11,0Z"/><path class="cls-2" d="M123.32,167.2l.64-.26-.76-1.32-.08-.13h0L121,161.88a2.1,2.1,0,0,1-.61-.28L122,166h0l.38,1.07a.47.47,0,0,0,.23.28A1,1,0,0,0,123.32,167.2Z"/><path class="cls-2" d="M122.43,167.54l-2.21-6.1a1.51,1.51,0,0,1-.3-.36l0,0v.32l1.13,6.3a.2.2,0,0,0,.1.15,1,1,0,0,0,.7,0Z"/><path class="cls-2" d="M119.64,168.13a.17.17,0,0,0,.08.13.73.73,0,0,0,.59,0l.64-.21-.07-.39h0l-.23-1.26h0l-.8-4.47-.24,4.78v.07Z"/><path class="cls-2" d="M122,162a3.44,3.44,0,0,1-.73-.08l2.12,3.66.55.95c.2.35.4.27.72.13l.09,0,.86-.37-.24-.28,0,0h0Z"/><path class="cls-2" d="M114.78,150.17a34.68,34.68,0,0,1-5.44-4.11l-.06-.06-.11-.09c-.72-.63-1.4-1.21-2-1.72-2.64-2.05-5.5-2.44-8-2.78h0l-1.42-.21-.46-.06c-9.84-1.2-15.23-1.87-17-2.11l.3.78a3.3,3.3,0,0,0,2.74,1.32l16.34,1.38,1.41.12v0l-3.23.13h0l-14.63-.9a6.1,6.1,0,0,1-1.14-.21c.12.22.29.54.45.8a5.52,5.52,0,0,0,3.18,1.08l15.57.45h0l-3.34.41h0L85.6,144.3a7.11,7.11,0,0,1-1.42-.2c.18.26.41.58.62.84.36.46,2,.92,3.91.86l12.9-.31h0l-3.48.6h0l-9.38.43a15.86,15.86,0,0,1-2-.09l.6.67a4.11,4.11,0,0,0,3.09.69l11.84-.83h0l-3.82.83h0l-4,.36-2.72.25-.89.08-.26,0h-.08a7,7,0,0,1-1.12,0l.57.53a10.07,10.07,0,0,0,4.4.51l8.65-1.27h0l-3.69,1.14h0l-4.76.84a10.83,10.83,0,0,1-2.36,0c.19.16.45.36.71.56a6.23,6.23,0,0,0,3.91.16l5.86-1.22,1.39-.29h0L101,150.84h0l-3.81,1h0a10.76,10.76,0,0,1-1.86.25l0,0,.57.39c.25.16,1,.47,2.72,0l6.39-1.79h0l-2.1,1.2h0l-4.59,1.6a3.26,3.26,0,0,1-.68.13l.36.16a5,5,0,0,0,3.15-.17l5.19-1.76h0L105,153h0l-.09,0-3.21,1.41h0a7.8,7.8,0,0,1-1.78.39l.11.06.51.26a2.78,2.78,0,0,0,2.27-.18l3.68-1.54,1.24-.56h0l-1,1.17h0l-3.34,1.67a4.79,4.79,0,0,1-1,.31l.37.16a2.14,2.14,0,0,0,2-.12l4.52-2.28h0l-1,1.27h0s-2.94,1.73-3.42,2a2.9,2.9,0,0,1,.37.15l.15,0h0a1.28,1.28,0,0,0,.41.12h0a1.76,1.76,0,0,0,1-.35l4-2.45h0l-.81,1.35h0l-2.48,1.77h0a3.2,3.2,0,0,1-.36.19l.52.18.15,0h0c.35.11.48.16,1.14-.33l3.53-2.57h0v0l-.46,1.38h0s-2,1.65-2.47,2l.17,0a2.08,2.08,0,0,0,.46.09h.06a1.74,1.74,0,0,0,1.14-.52l2.89-2.51h0v0l-.48,1.46h0l0,.05s-1.46,1.54-1.47,1.56h0a3.3,3.3,0,0,1-.53.38l.28.08a2.2,2.2,0,0,0,.74,0l.1,0a1.48,1.48,0,0,0,.27-.1l.1-.07.1-.08.11-.12,1.51-1.56,1.1-1.13c0-.44-.11-1.07-.11-1.36v-.14a8.11,8.11,0,0,1,1.2,3.36c-.06,1.15.41,1.09,1.2,1.7a4.55,4.55,0,0,1,1.15,1.44,4.39,4.39,0,0,1,1.15-1.44c.79-.61,1.26-.55,1.19-1.7a8.18,8.18,0,0,1,1.2-3.34s0,.07,0,.12c0,.28-.12.87-.1,1.31l1.15,1.18,1.51,1.56.11.12a1.58,1.58,0,0,0,1.3.27l.29-.08a3.36,3.36,0,0,1-.54-.38h0l-1.47-1.56,0-.05h0l-.47-1.46v0h0l2.89,2.51a2,2,0,0,0,1,.51,1.72,1.72,0,0,0,.68-.08l.18,0c-.51-.37-2.46-2-2.48-2h0l-.46-1.38v0h0l3.53,2.57c.66.49.79.44,1.13.33h0l.14,0,.53-.18a3.2,3.2,0,0,1-.36-.19h0l-2.48-1.77h0l-.81-1.35h0l4,2.45c.8.48,1.07.38,1.44.23h0l.15,0a2.31,2.31,0,0,1,.37-.15c-.48-.25-3.39-2-3.42-2h0l-1-1.27h0l4.52,2.28a2.14,2.14,0,0,0,2,.12l.36-.16a5.26,5.26,0,0,1-.95-.31l-3.33-1.67h0l-1-1.17h0l1.24.56,3.68,1.54a2.78,2.78,0,0,0,2.27.18h0l.55-.28.07,0a7.8,7.8,0,0,1-1.78-.39h0L134.26,153l-.09,0h0l-1.38-1.1h0l5.19,1.76a5,5,0,0,0,3.15.17l.35-.16a3.78,3.78,0,0,1-.67-.13h0l-4.59-1.61h0l-2.1-1.2h0l6.4,1.79c1.71.48,2.47.17,2.72,0l.61-.41a11.25,11.25,0,0,1-1.87-.25h0l-3.81-1h0l-3.11-1.32h0l1.39.29L142.3,151a6.25,6.25,0,0,0,3.92-.16l.71-.56a10.83,10.83,0,0,1-2.36,0l-4.77-.84h0l-3.7-1.14h0l8.65,1.27a10,10,0,0,0,4.39-.51l.58-.53a7,7,0,0,1-1.12,0h-.09l-.25,0-.89-.08-2.72-.25-3.95-.36h0l-3.83-.83h0l11.84.83a4.14,4.14,0,0,0,3.1-.69s.34-.39.6-.67a15.86,15.86,0,0,1-2,.09L141,146.1h0l-3.47-.6h0l12.9.31c1.89.06,3.55-.4,3.91-.86.22-.28.46-.61.62-.84a7.21,7.21,0,0,1-1.42.2l-12.26.12h0l-3.34-.41h0l15.56-.45a5.59,5.59,0,0,0,3.19-1.08c.16-.26.33-.58.45-.8a6.25,6.25,0,0,1-1.14.21l-14.63.9h0l-3.24-.13v0l1.42-.12,16.34-1.38a3.28,3.28,0,0,0,2.73-1.32l.31-.78c-1.75.24-7.3.93-17,2.11l-.46.06-1.43.21h0c-2.53.34-5.4.73-8,2.78-.65.51-1.33,1.09-2.05,1.72l-.11.09-.06.06a29.48,29.48,0,0,1-6.28,4.54,1.29,1.29,0,0,1-.36.25,2.93,2.93,0,0,0,1.69.35,9.45,9.45,0,0,0-1.62.83c.25,0,.24.16.58.13a2.29,2.29,0,0,1-1.63,1l-.09.12a21.39,21.39,0,0,0-2.52,2.33,21.37,21.37,0,0,0-2.53-2.47h0a2.6,2.6,0,0,0-1-.68,1.59,1.59,0,0,1-.81-.45,18.56,18.56,0,0,1-3.4-.79s.2-.14,0-.07A24.12,24.12,0,0,1,114.78,150.17Z"/><path class="cls-2" d="M116,150.17c.33.08.22.58.22.58a15.39,15.39,0,0,0-3.21.3c.8,0,3.89,0,4.56.47,1.07.69,1.15,1.45,1.39,1.53a.54.54,0,0,0,.26,0,.43.43,0,0,1-.18-.23c-.06-.13,0-.21,0-.35a1.17,1.17,0,0,1,.48-.78c.45-.32.91-.13,1.28-.56a2.32,2.32,0,0,0-.38-.05,3.52,3.52,0,0,0,.81-.37.82.82,0,0,1-.38,0l.38-.22c-.88.14-2.25-.06-2.92.08-.36.07-.53-.21-1.11-.22a1,1,0,0,0-.6.36c0-.6.68-.91,1.2-1,.75,0,.88.21,1.7,0a4.36,4.36,0,0,1-.32.59,4,4,0,0,0,2-.25l.14-.09c.23-.14.42-.13.23-.42l-.06-.33a1.75,1.75,0,0,0-.19-.94l-.45.56a3.14,3.14,0,0,0,.18-1.06l-.75.59c.29-.56.21-1.42,0-1.05a4.56,4.56,0,0,1-1.05.86l0-.68a8.71,8.71,0,0,1-.87.87s-.56.15-1.43,1.36l-.2.18Z"/></svg>
