<svg id="Layer_1" data-name="Layer 1" width="240" height="240" xmlns="http://www.w3.org/2000/svg" viewBox="0 0 240 240"><defs><style>.cls-1{fill:#fff;}.cls-2{fill:#26436c;}.cls-3{fill:#fff9cd;}.cls-4{fill:#78abda;}.cls-5{fill:#9d9d9c;}.cls-6{fill:#eca935;}.cls-7{fill:#fddd3a;}.cls-8{fill:#d0ae39;}</style></defs><path class="cls-1" d="M189.34,166.19c-6.08-2.9-12.12-5.78-18.28-8v-3.57c-1.31-.46-2.64-.86-4-1.23a112.48,112.48,0,0,0,6.64-38.76c0-17.14-3.55-33.48-10.26-47.27l-1.08-2.21a1.27,1.27,0,0,0-.41-.23l-2,1.71a20.24,20.24,0,0,1-13.07,5.2c-10.27,0-19.93-9.31-24.62-23.71l-.48-1.46h0a1.64,1.64,0,0,0-3.25,0h0L118,48.09c-4.78,14.49-14.19,23.49-24.55,23.49a20.19,20.19,0,0,1-13-5.16l-2-1.7a1.17,1.17,0,0,0-.36.16l-1.11,2.27C70.15,81,66.57,97.38,66.57,114.6c0,21.25,5.47,41.26,15.4,56.34.17.26.34.51.52.76a56.12,56.12,0,0,1-14-2.83l0,3.54a186.43,186.43,0,0,1-17.82-7.08v0c2.9,4,5.79,8.07,8.71,12-2.79,1.63-5.59,3.18-8.39,4.73,8.85,3.88,17.63,7.65,26.63,9.36l0-3a49.76,49.76,0,0,0,16.65,0c1.25-.23,2.5-.51,3.74-.82a39.25,39.25,0,0,0,22.2,7.12c14.5,0,28.06-8.47,38.18-23.84.23-.35.44-.71.66-1.05,1.18.14,2.36.32,3.53.54V174c9.09,2.24,17.9,6.42,26.81,10.67-3.12-4.55-6.22-9.09-9.35-13.57,3.11-1.66,6.24-3.25,9.36-4.83Z"/><path class="cls-2" d="M172.38,115.11c0,20.8-5.33,40.39-15,55.15-9.88,15.05-23.11,23.34-37.25,23.34s-27.38-8.29-37.26-23.34c-9.69-14.76-15-34.35-15-55.15,0-16.86,3.49-32.92,10.1-46.45L79,66.44a1.26,1.26,0,0,1,.35-.17l2,1.67A19.66,19.66,0,0,0,94,73c10.11,0,19.29-8.81,24-23l.47-1.43h0a1.61,1.61,0,0,1,3.18,0h0l.47,1.44c4.57,14.09,14,23.2,24,23.2A19.75,19.75,0,0,0,159,68.12l2-1.67a1.09,1.09,0,0,1,.4.21l1.06,2.17c6.55,13.5,10,29.5,10,46.28"/><path class="cls-3" d="M70.56,104c-.35,3.64-.54,7.36-.54,11.15,0,42.13,22.42,76.29,50.08,76.29s50.08-34.16,50.08-76.29c0-3.79-.2-7.51-.55-11.15Z"/><path class="cls-4" d="M111.15,104v86.22a33.35,33.35,0,0,0,18.09-.06V104Z"/><path class="cls-4" d="M156.38,167.69V104H138.3V186.2C145.2,182.09,151.36,175.72,156.38,167.69Z"/><path class="cls-4" d="M83.75,104v63.63c5,8.06,11.18,14.45,18.08,18.57V104Z"/><path class="cls-2" d="M153.18,141.46a33,33,0,1,1-33-33,33,33,0,0,1,33,33"/><path class="cls-1" d="M147.48,141.46a27.28,27.28,0,1,1-27.28-27.27,27.28,27.28,0,0,1,27.28,27.27"/><path class="cls-5" d="M144.25,144.31l.06,0-.32-.15a1.46,1.46,0,0,0,.57-.48,2.19,2.19,0,0,0,.42-1.32,2.12,2.12,0,0,0-.21-.94,1.57,1.57,0,0,0-.51-.6,24.26,24.26,0,0,0-.89-6.84,22.76,22.76,0,0,0-7.81-12.19,12.42,12.42,0,0,0-9.77-2.42,14.67,14.67,0,0,0-2.33-.83,15.86,15.86,0,0,0-16.38,5.28,15,15,0,0,0-6,4.83,2.16,2.16,0,0,0-2.1-.33A1.94,1.94,0,0,0,98,130a2.24,2.24,0,0,0,0,.52,1.75,1.75,0,0,0-1.42.94,2,2,0,0,0-.27,1,1.41,1.41,0,0,0,.71,1.27h0l.24.18a1.44,1.44,0,0,0-.66.36,2.29,2.29,0,0,0-.71,1.67,2.07,2.07,0,0,0,.06.5,1.71,1.71,0,0,0,.38.69A24.73,24.73,0,0,0,95.9,144a22.74,22.74,0,0,0,5.27,13.48,12.45,12.45,0,0,0,9.11,4.29,16.74,16.74,0,0,0,2.12,1.27,15.86,15.86,0,0,0,17.09-2,14.49,14.49,0,0,0,9.12-6.39,14.13,14.13,0,0,0,1.85-4.88l.41.11a2.38,2.38,0,0,0,2.5.07,2,2,0,0,0,.68-1.83,1.93,1.93,0,0,0-.13-.5,1.75,1.75,0,0,0,1.21-1.21A1.63,1.63,0,0,0,144.25,144.31Zm-20.13-14.39a5,5,0,0,1,.51-.63c.06.19.11.39.15.58Zm-10.8,21.77.65.09a4.37,4.37,0,0,1-.62.5C113.33,152.09,113.33,151.89,113.32,151.69Z"/><path class="cls-3" d="M110.79,153.05h.34a4.47,4.47,0,0,0,1.5-.37c0-.37-.08-.74-.1-1.11a18.33,18.33,0,0,1-1.85-.44c0,.09,0,.18,0,.27,0,.33,0,.66.06,1,0,.15,0,.3,0,.44S110.78,153,110.79,153.05Z"/><path class="cls-3" d="M107.27,151.42v0c0-.37,0-.74,0-1.11l0-.32c0-.11,0-.22,0-.32-.54-.39-1-.8-1.54-1.23,0,.23-.07.47-.1.71a11.53,11.53,0,0,0,1.5,2.24Z"/><path class="cls-3" d="M110.92,140c.07-.11.15-.21.23-.32a3.71,3.71,0,0,1-.47-.16l-.59-.26a10.91,10.91,0,0,0,.7.94Z"/><path class="cls-3" d="M108.1,150.1c0,.49-.06,1-.06,1.48,0,.18,0,.36,0,.53A5.1,5.1,0,0,0,110,153a12.94,12.94,0,0,1-.1-1.65c0-.14,0-.28,0-.42A11.19,11.19,0,0,1,108.1,150.1Z"/><path class="cls-3" d="M111.37,140.77a4.21,4.21,0,0,0,1-.14,4.35,4.35,0,0,0,1-.44,9.38,9.38,0,0,1-1.5-.24c-.12.17-.25.33-.37.51S111.44,140.67,111.37,140.77Z"/><path class="cls-3" d="M116.5,161c.27.06.54.12.81.16l.07,0a12.42,12.42,0,0,0,4,0,29.48,29.48,0,0,1-4.25-1.08,12.47,12.47,0,0,1-1.42.7l.5.14Z"/><path class="cls-3" d="M123.52,161.45a13.3,13.3,0,0,1-9-.25,13.23,13.23,0,0,1-2.88.56c.35.21.71.41,1.08.59a15.07,15.07,0,0,0,15-1A19.57,19.57,0,0,1,123.52,161.45Z"/><path class="cls-3" d="M112.82,149.49l-.49-.21a12.64,12.64,0,0,1-4.89-.55c.2.15.39.32.61.46a15.4,15.4,0,0,0,6.51,1.87,2,2,0,0,0,.14-.25l-.17-.11A10.2,10.2,0,0,1,112.82,149.49Z"/><path class="cls-3" d="M108.34,138.39l-.74.2a4.22,4.22,0,0,0,2.53,2,11.52,11.52,0,0,1-1.3-1.94Z"/><path class="cls-3" d="M137.91,149.46a13.06,13.06,0,0,1-1.56,4c-1,1.86-5.38,7.66-16.71,4.73l-.06,0,0,0c-.25.23-.5.44-.76.65s-.52.39-.78.58c13.48,4.16,19-3.61,19.95-5.25a13.3,13.3,0,0,0,1.74-4.64l-.92-.15A5,5,0,0,0,137.91,149.46Z"/><path class="cls-3" d="M116,151.67a7.17,7.17,0,0,0-.6-.42,5,5,0,0,1-.56.83,5.3,5.3,0,0,1-3.61,1.75,5.71,5.71,0,0,1-4.54-2,13.36,13.36,0,0,1-2.62-4.83,12.91,12.91,0,0,1-2.24-2,16.5,16.5,0,0,0,3.61,8.26,7.53,7.53,0,0,0,6.15,2.4,6.55,6.55,0,0,0,4.52-2.22,6.17,6.17,0,0,0,.86-1.29c-.29-.15-.59-.29-.87-.46Z"/><path class="cls-3" d="M121.51,155.93a9.42,9.42,0,0,1-.8,1.08l-.25.33-.16.17,0,0c10.47,2.55,14.44-2.74,15.42-4.46a12.51,12.51,0,0,0,1.41-3.52,9.6,9.6,0,0,0-2.15.77c-.14.43-.29.86-.46,1.29a8.09,8.09,0,0,1-3.66,3.8l-.22.1c-.2.1-.4.21-.62.3l-.43.15c-.16.06-.32.13-.49.18s-.38.09-.57.14l-.46.11a6.73,6.73,0,0,1-.67.1c-.14,0-.28.05-.44.06s-.52,0-.79,0-.27,0-.42,0-.6,0-.91-.05c-.13,0-.26,0-.39,0-.35,0-.71-.1-1.08-.17l-.32-.05a12.08,12.08,0,0,1-1.25-.32Z"/><path class="cls-3" d="M111.59,156.49a8.32,8.32,0,0,1-6.79-2.67,17.68,17.68,0,0,1-3.94-9.91,12.83,12.83,0,0,1-1.74-3.54h0c-.05.56-.08,1.13-.08,1.7,0,.11,0,.22,0,.33,0,.43,0,.87,0,1.31v.07a20.88,20.88,0,0,0,.41,2.87,18.91,18.91,0,0,0,4.27,8.76,9.59,9.59,0,0,0,1,1,9.31,9.31,0,0,0,5.51,2.07,9.91,9.91,0,0,0,1.09,0,9.34,9.34,0,0,0,6.46-3.23,9.73,9.73,0,0,0,1.33-2c-.54-.19-1.07-.4-1.58-.63a6.87,6.87,0,0,1-1,1.44A7.27,7.27,0,0,1,111.59,156.49Z"/><path class="cls-3" d="M119.87,156.83a12,12,0,0,0,1.24-1.71l.08-.14a11.53,11.53,0,0,0,.56-1.11,17.72,17.72,0,0,1-1.81-.45,9.78,9.78,0,0,1-1.5,2.3,10.22,10.22,0,0,1-15.26.21,20.29,20.29,0,0,1-4.87-12.1q-.06-.78-.06-1.56a21.38,21.38,0,0,1,.39-4s0-.09,0-.13a7.15,7.15,0,0,1-1.46-.54l-.09,0a23,23,0,0,0-.47,4.63c0,.58,0,1.17.06,1.76a22,22,0,0,0,5.08,13,11.72,11.72,0,0,0,9.83,4A12,12,0,0,0,119.87,156.83Z"/><path class="cls-3" d="M133.76,151.35c.06-.17.13-.34.19-.5l-.43.22-1.64.84c-.58.28-1.34.61-2.18.93a8.1,8.1,0,0,1-4.07,1.11,11.43,11.43,0,0,1-2.79.13,2.84,2.84,0,0,0-.31-.06,12.55,12.55,0,0,1-.6,1.22C129.51,157.41,133.09,153.08,133.76,151.35Z"/><path class="cls-3" d="M115.11,130.64a10.42,10.42,0,0,0-1.25,0l.28.12,1-.08Z"/><path class="cls-3" d="M99.66,131.22a13,13,0,0,1,1-1.91,1.55,1.55,0,0,0-1.33-.27,1.24,1.24,0,0,0-.58,1,.85.85,0,0,0,.18.7A7,7,0,0,0,99.66,131.22Z"/><path class="cls-3" d="M107.12,136.22a4,4,0,0,0,.1,1.45,1.07,1.07,0,0,0,.07.19l.19-.05s-.07-.05-.08-.09l-.14-.43A4,4,0,0,1,107.12,136.22Z"/><path class="cls-3" d="M97.4,136.86l.11,0a5.48,5.48,0,0,0,1,.41,13.73,13.73,0,0,1,.09-2.39l-.69-.25a.74.74,0,0,0-.81.16,1.51,1.51,0,0,0-.41,1.4A.81.81,0,0,0,97.4,136.86Z"/><path class="cls-3" d="M97.44,133.05l0,0a9.22,9.22,0,0,0,1.32.89,15.85,15.85,0,0,1,.57-2,5.65,5.65,0,0,1-.84-.54.92.92,0,0,0-1.26.44C97.09,132.18,97,132.78,97.44,133.05Z"/><path class="cls-3" d="M127.48,129.88s0-.07,0-.11a14.06,14.06,0,0,0-.47-1.72l-.33.06a4.63,4.63,0,0,0-1.4.66c.12.35.22.71.31,1.07.62,0,1.26,0,1.91.06Z"/><path class="cls-3" d="M122.36,142.89a11.27,11.27,0,0,1-.8,1.23,9.22,9.22,0,0,0,1.6.49,17,17,0,0,0,2.7-4c.18-.35.35-.72.5-1.09.07-.16.12-.32.18-.47a9,9,0,0,0-1.77-.26s0,0,0,0a15,15,0,0,1-2.29,3.8A1.24,1.24,0,0,1,122.36,142.89Z"/><path class="cls-3" d="M132.73,130.89a11.83,11.83,0,0,0-1.91-1.9l0,0a17.14,17.14,0,0,1,.25,1.75c.61.28,1.19.58,1.75.9C132.76,131.37,132.75,131.13,132.73,130.89Z"/><path class="cls-3" d="M130.77,141.85a10.33,10.33,0,0,0-1.26-1.22l-.09.22c-.17.41-.36.82-.56,1.22s-.38.75-.59,1.11v0c-.18.32-.37.63-.57.94a20.32,20.32,0,0,0,2.52-1.12C130.41,142.64,130.59,142.25,130.77,141.85Z"/><path class="cls-3" d="M129.84,128.42a5.12,5.12,0,0,0-2-.45,14.72,14.72,0,0,1,.48,2,11.14,11.14,0,0,1,1.92.43A18.37,18.37,0,0,0,129.84,128.42Z"/><path class="cls-3" d="M128.85,140.18a9.19,9.19,0,0,0-1.47-.82l-.1,0c-.07.18-.12.36-.2.54a18.06,18.06,0,0,1-3,4.86,9,9,0,0,0,2.43-.23,21.94,21.94,0,0,0,2.19-3.95C128.76,140.43,128.8,140.3,128.85,140.18Z"/><path class="cls-3" d="M120.23,121.39c-.14,0-.28,0-.42,0h-.91c-.27,0-.53,0-.79.06H118a12,12,0,0,0-3.08.75,29.94,29.94,0,0,1,4.51.23,12.24,12.24,0,0,1,1.27-1Z"/><path class="cls-3" d="M121.71,120.79a12.82,12.82,0,0,1,2.72-1.11c-.39-.14-.78-.26-1.18-.37a15.05,15.05,0,0,0-14.49,3.87,19.78,19.78,0,0,1,4-.87A13.14,13.14,0,0,1,121.71,120.79Z"/><path class="cls-3" d="M123.51,132.68a13.58,13.58,0,0,1,6,.52h0c.42.17.81.36,1.19.55l.22.12c.37.19.71.39,1,.6l.16.11c.32.21.62.42.91.64l.06.05c.31.24.6.49.88.74l.08.07a15.58,15.58,0,0,1,1.65,1.76,16.17,16.17,0,0,0-.35-1.65,15.61,15.61,0,0,0-.92-2.48,18.33,18.33,0,0,0-4.05-2.42,15.42,15.42,0,0,0-6.75-.55A3.74,3.74,0,0,0,123.51,132.68Z"/><path class="cls-3" d="M112.44,130.81a7.5,7.5,0,0,0-2.44,1h0A10.78,10.78,0,0,0,112.3,133l.52.22a7.66,7.66,0,0,0,2.29.48A11.85,11.85,0,0,1,115,132c0-.07,0-.14,0-.21a5.65,5.65,0,0,1-1.16-.34C113.27,131.24,112.82,131,112.44,130.81Z"/><path class="cls-3" d="M115,138.59a4.06,4.06,0,0,0,.45-1.2,10.86,10.86,0,0,1-2.82-.34l-.61-.17-.4-.14-.19-.07a12.67,12.67,0,0,1-3.41-2,1.8,1.8,0,0,0-.06.22,8.27,8.27,0,0,0-.12,1.23,3.37,3.37,0,0,0,.13,1s0,.13.08.24a19.75,19.75,0,0,0,2.9,1.51,8.72,8.72,0,0,0,3.38.63A4.38,4.38,0,0,0,115,138.59Z"/><path class="cls-3" d="M132,142.1c.62-.32,1.25-.63,1.9-.9a12.66,12.66,0,0,0-5.61-4.59l-.36-.11-.6-.18h-.06a10,10,0,0,0-2.89-.23,3.16,3.16,0,0,0-.32,0,14.13,14.13,0,0,1-.07,1.95,9.63,9.63,0,0,1,3.71.58A10.6,10.6,0,0,1,132,142.1Z"/><path class="cls-3" d="M115.6,136.5a4.09,4.09,0,0,0-.15-1.09q-.12-.45-.21-.9a8,8,0,0,1-2.73-.56l-.51-.22a10.18,10.18,0,0,1-2.59-1.41,6.05,6.05,0,0,0-1.06,1.52,11.07,11.07,0,0,0,4.5,2.46,10.5,10.5,0,0,0,2.74.32S115.6,136.54,115.6,136.5Z"/><path class="cls-3" d="M135.93,140.46c0-.35,0-.71,0-1.07a14.51,14.51,0,0,0-6.63-5.47,12.92,12.92,0,0,0-5.63-.47,12.14,12.14,0,0,1,.33,1.88,10.54,10.54,0,0,1,4.57.56,13.42,13.42,0,0,1,6,5C135,140.74,135.49,140.59,135.93,140.46Z"/><path class="cls-3" d="M99.72,139.73a12,12,0,1,0,23.11-6.4,4.9,4.9,0,0,1,3.63-6,5.73,5.73,0,0,1,4.84,1,14.3,14.3,0,0,1,4.86,7.6,15.77,15.77,0,0,1,.56,4.11c0,.06,0,.12,0,.18a10.81,10.81,0,0,1,1.79-.22,1.48,1.48,0,0,1,0-.21,4.87,4.87,0,0,0,0-.54c0-.26,0-.52-.07-.77a4.23,4.23,0,0,0-.05-.5,8.55,8.55,0,0,0-.14-.86l-.06-.4c-.09-.42-.19-.84-.3-1.25a16.87,16.87,0,0,0-5.61-8.79,6.31,6.31,0,0,0-1.4-.83,7.86,7.86,0,0,0-5.1-.32,6.46,6.46,0,0,0-4.86,6.2,7.1,7.1,0,0,0,.11,1.37q.06.34.15.69a10.16,10.16,0,0,1-1,7.78,10.83,10.83,0,0,1-.81,1.19,10.05,10.05,0,0,1-5.36,3.6,10.22,10.22,0,0,1-7.77-1,10.07,10.07,0,0,1-2.26-1.75l-.06-.06a9.79,9.79,0,0,1-1-1.17,10.4,10.4,0,0,1-1.53-3.2h0a9.49,9.49,0,0,1-.22-1.06l0-.25a9.81,9.81,0,0,1-.07-1.09v-.06a1.62,1.62,0,0,1,0-.22c0-.21,0-.42,0-.62s0-.24,0-.35,0-.4.08-.61l.06-.36c0-.21.09-.43.15-.65s0-.22.08-.34q.12-.45.27-.93a.19.19,0,0,0,0-.07c.68-2,3.78-8.58,15.47-7.92a12.41,12.41,0,0,1,1.36-1.62c-14-1.44-17.91,7.26-18.55,9.06A12.51,12.51,0,0,0,99.72,139.73Z"/><path class="cls-3" d="M125.53,124.83a8.35,8.35,0,0,1,7.19,1.29,17.65,17.65,0,0,1,5.88,9.19,19.34,19.34,0,0,1,.68,4.77,4.91,4.91,0,0,1,.53,0l1.23.11v-.09q0-.45,0-.9l0-.45c0-.3,0-.59-.09-.89s0-.29,0-.44c-.05-.31-.1-.63-.16-1,0-.12-.05-.24-.07-.36-.09-.44-.19-.87-.31-1.3a19.6,19.6,0,0,0-6.87-10.5,9.17,9.17,0,0,0-2.5-1.3,9.46,9.46,0,0,0-12.52,8.63c0,.31,0,.62,0,.93a8.9,8.9,0,0,0,.32,1.89,7.56,7.56,0,0,1,.26,2.16,7.48,7.48,0,0,1-.64,2.82c-.1.23-.22.45-.34.67a7.73,7.73,0,0,1-4.74,3.65,8.05,8.05,0,0,1-2.27.3,7.44,7.44,0,0,1-3.57-1,7.28,7.28,0,0,1-3.45-4.46,6.72,6.72,0,0,1-.24-1.71,15.51,15.51,0,0,1,.28-2.87,4.73,4.73,0,0,1,.26-.9.15.15,0,0,1,0-.07,3.67,3.67,0,0,1,.2-.47c0-.09.09-.18.14-.27l.16-.31c1.38-2.37,4.64-5.33,11.09-4.74a12,12,0,0,1,.91-1.83c-10.77-.44-13.63,5.52-14.25,7.39a10.53,10.53,0,0,0-.4,6.18,9.48,9.48,0,0,0,7,6.7c.3.07.6.12.9.16a9.44,9.44,0,0,0,10.34-11.87,7.76,7.76,0,0,1-.11-3.73A7.29,7.29,0,0,1,125.53,124.83Z"/><path class="cls-3" d="M116.45,128.11l-.09.27a12.14,12.14,0,0,0-.59,3.66,11.91,11.91,0,0,0,.43,3.16,4.85,4.85,0,0,1,.18,1.3,5.1,5.1,0,0,1-3.75,4.88,5,5,0,0,1-6.16-3.5,5.9,5.9,0,0,1,0-2.54c.29-1.91,2.89-5.86,8.75-5.48a14.45,14.45,0,0,1,.44-1.72.09.09,0,0,1,0,0c-7.85-.63-10.52,4.3-10.83,6.12a15,15,0,0,0-.28,2.54,6.1,6.1,0,0,0,.22,1.7,6.52,6.52,0,0,0,3.08,4,6.89,6.89,0,0,0,5.26.61,7,7,0,0,0,4.26-3.3,6.54,6.54,0,0,0,.3-.59,6.62,6.62,0,0,0,.35-4.47,10.24,10.24,0,0,1,12.83-12.51,9.9,9.9,0,0,1,3.06,1.54A20.25,20.25,0,0,1,141,134.64a21.39,21.39,0,0,1,.78,5.65,7.29,7.29,0,0,1,1.56.24l.11,0a24.22,24.22,0,0,0-.86-6.35,22.08,22.08,0,0,0-7.54-11.79,11.78,11.78,0,0,0-10.43-2A12.11,12.11,0,0,0,116.45,128.11Z"/><path class="cls-3" d="M143,147.59h0a7.67,7.67,0,0,0-2.26-.65l-.73-.1-.57-.07c-2.24-.32-5.66,1-7.41,2.06-.36.2-1,.54-1.8.91a14.72,14.72,0,0,1-6.93,1.49c-.33,0-.65-.09-1-.15s-.58-.12-.87-.19h-.06a14.92,14.92,0,0,1-5.19-2.42,10.6,10.6,0,0,1-1.49.53c-.32.09-.67.14-1,.21.31.22.85.57,1.27.85a17.58,17.58,0,0,1,1.53,1,17.32,17.32,0,0,0,6.45,2.2c3.1.29,6.73-1.18,8.61-2.09l1.62-.83c2-1,3.69-1.94,5.72-1.65a12.88,12.88,0,0,1,2.26.46c.8.37,1.41.42,1.77.16a1.22,1.22,0,0,0,.37-1.11A.87.87,0,0,0,143,147.59Z"/><path class="cls-3" d="M143.19,141.28a8.86,8.86,0,0,0-1.9-.25l-1.59-.14c-2.85-.4-5.8,1-8.35,2.41-2.32,1.26-4.82,2.46-7.68,2.19a10.33,10.33,0,0,1-2.54-.71,12.45,12.45,0,0,1-1.52,1.56,13.39,13.39,0,0,0,4,1.26c2.7.25,5.16-.9,7.66-2.21a19.42,19.42,0,0,1,5.37-2.15,10.34,10.34,0,0,1,1.89-.19,14,14,0,0,1,3.22.29l1.41.22a.74.74,0,0,0,.76-.32,1.52,1.52,0,0,0,.13-1.46.82.82,0,0,0-.77-.48Z"/><path class="cls-3" d="M144,145l-.05,0a11.57,11.57,0,0,0-5.38-1.2c-2.5,0-4.37.92-6.92,2.26s-5.18,2.56-8.11,2.29a14,14,0,0,1-4.6-1.48,11.86,11.86,0,0,1-1.93,1.18,14.47,14.47,0,0,0,6.34,2.39c2.68.25,6-1,8.26-2.31,1.59-.91,5.29-2.52,7.91-2.15l.56.07a9.85,9.85,0,0,1,3.17.8.9.9,0,0,0,1.14-.67C144.51,145.83,144.51,145.22,144,145Z"/><path class="cls-6" d="M120.11,130.76a10.57,10.57,0,1,0,10.57,10.57,10.58,10.58,0,0,0-10.57-10.57"/><path class="cls-7" d="M124.17,145.75l-.9,4.09a9.18,9.18,0,0,1-3.16.57,9,9,0,0,1-3-.53l-.93-4.1L112,145.4a8.81,8.81,0,0,1-.94-3.35l3.31-2.4-1.31-4a9.2,9.2,0,0,1,3.61-2.69l3.34,2.43,3.4-2.47a9.12,9.12,0,0,1,3.63,2.61h0l-1.33,4.1,3.46,2.51a9.15,9.15,0,0,1-.91,3.25Z"/><polygon class="cls-6" points="117.86 144.7 116.53 140.6 120.02 138.06 123.51 140.6 122.18 144.7 117.86 144.7"/><path class="cls-8" d="M169.88,171a51.29,51.29,0,0,0-25-2.47c-8.48,1.44-16.73,5.2-25,9.1s-16.55,7.73-25,9.28a50.78,50.78,0,0,1-25-2.12V169.93a50.66,50.66,0,0,0,25,2.13c8.48-1.55,16.72-5.38,25-9.29s16.55-7.65,25-9.09a51.17,51.17,0,0,1,25,2.46Z"/><path class="cls-8" d="M186,167.2c-5.07-2.39-10.09-4.75-15.23-6.58v11.72a64,64,0,0,0-6.73-2v3.15c7.44,1.81,14.66,5.18,21.95,8.6-2.55-3.67-5.09-7.33-7.66-10.94,2.55-1.34,5.11-2.62,7.67-3.89Z"/><path class="cls-8" d="M68.74,185.48V173.77a161.05,161.05,0,0,1-15.32-6.56v0q3.67,5.44,7.36,10.81c-2.44,1.39-4.89,2.72-7.34,4,7.61,3.58,15.15,7,22.91,8.71v-3.15a64.17,64.17,0,0,1-7.61-2.17"/><path d="M94.4,181.45c-.05,1.57,0,1.65.89,1.56l0,.57-3.71.76,0-.57c.77-.24.87-.36.92-1.94l.14-4.79c0-1.57,0-1.65-.87-1.57v-.57l3.71-.76v.57c-.79.25-.89.37-.94,1.94l-.06,2.27c.9-1.37,1.66-2.6,2.38-3.85.18-.29.31-.61,0-.59l-.46,0,0-.57,3.19-.65,0,.56a2.8,2.8,0,0,0-1.69,1.25c-.66.89-1.28,1.75-1.8,2.56.7,1.23,1.44,2.41,2.15,3.48.61.91.82,1,1.31,1l0,.57-2.73.56c-.43-.83-1.49-2.74-2.32-4.14h0Z"/><path d="M105.88,179.69l.42-.21c.52-.26.55-.41.37-.85l-.51-1.26-2.32.84-.42,1.51c-.18.68-.18.82.47.65l.41-.1v.55L101,182v-.55c.72-.36.94-.49,1.4-1.85l2.83-8.33,1-.55,1,2.32c.61,1.46,1.22,2.91,1.76,4.16.45,1.06.7,1,1.4.88v.55l-4.44,1.6Zm-1.8-2.41,1.81-.66-.89-2.38,0,0Z"/><path d="M118.61,169.13a1.78,1.78,0,0,0-2.51-1.49c-1.5.44-2.75,2.3-2.75,4.72,0,2.19.94,4,2.89,3.37.35-.1.58-.28.58-.95v-1.35c0-1-.06-1-1.54-.7v-.64l4.72-1.41v.64c-.72.34-.78.4-.78,1.39v1a6.42,6.42,0,0,0,.08,1.26,15.76,15.76,0,0,1-3.19,1.52c-3.38,1-5.38-.22-5.38-3.1,0-3.23,2.57-5.67,5.58-6.57a11.51,11.51,0,0,1,2.7-.44c0,.47.11,1.18.22,2.5Z"/><path d="M125,171.83l.42-.22c.53-.27.56-.42.37-.86l-.51-1.24-2.31.9-.43,1.52c-.18.68-.18.82.47.64l.41-.12V173l-3.29,1.28v-.55c.72-.38.93-.52,1.39-1.88l2.83-8.41,1-.58,1,2.3c.61,1.44,1.21,2.87,1.75,4.11.45,1,.71,1,1.4.84v.55L125,172.39Zm-1.79-2.36,1.8-.71-.89-2.35h0Z"/><path d="M132.08,160.65l-.45.24c-.52.27-.56.39-.39.9l1.34,4.22h0l1.85-6.74,1-.39,2.15,5.18h0c.5-1.85,1-4,1.22-4.94s.14-1-.47-.85l-.53.15v-.55l3.37-1.32v.55c-.79.42-.92.51-1.4,1.95-.07.21-1.15,3.88-2.29,8.22l-1.08.43-2.08-4.92h0l-1.89,6.48-1.09.42L129,163.19c-.38-1-.64-1-1.29-.81v-.55l4.41-1.73Z"/><path d="M145.21,165.29l.43-.1c.52-.12.55-.26.36-.75l-.5-1.39-2.32.23-.43,1.33c-.18.64-.18.78.47.73l.41,0v.55l-3.29.59v-.55c.72-.23.93-.32,1.4-1.59l2.82-7.6,1-.3,1,2.58c.61,1.62,1.21,3.22,1.75,4.61.45,1.18.71,1.23,1.4,1.25v.55l-4.44.44Zm-1.79-2.88,1.81-.19-.89-2.6h0Z"/><path class="cls-1" d="M125.6,81.48h0c-.55-1-2.43-1-4.29,0S118.44,84,119,85s2.44,1,4.29,0a4.77,4.77,0,0,0,2.39-2.49,1.4,1.4,0,0,0-.07-1.11m-2.47,3.32a6.93,6.93,0,0,1-1,.44l-.67-.53-1.44.68a1.2,1.2,0,0,1-.61-.36L120.3,84l-.82-.47a4.72,4.72,0,0,1,1-1.08l1.28-.16.85-1A4.72,4.72,0,0,1,124,81l0,1,1.45-.18a.84.84,0,0,1,0,.27,1.56,1.56,0,0,1-.06.41l-1.35.82.09.84a6.08,6.08,0,0,1-1,.65"/><path class="cls-6" d="M92.5,80.66c.63.46.42,1.35-.46,2a2.59,2.59,0,0,1-2.76.34c-.63-.46-.43-1.36.46-2a2.6,2.6,0,0,1,2.76-.33"/><path class="cls-1" d="M150.36,88.63a1.92,1.92,0,0,0-1.61-.61,7.36,7.36,0,0,0-1.25.1,4.81,4.81,0,0,0-1.18.33L146,89.68a4.47,4.47,0,0,1,.92-.35,4.42,4.42,0,0,1,.93-.1.73.73,0,0,1,.64.26.81.81,0,0,1,.07.68l-.16.6a.75.75,0,0,0-.36-.31,1.6,1.6,0,0,0-.65-.12,2.91,2.91,0,0,0-2.06.74,4.83,4.83,0,0,0-1.21,2.31,3.18,3.18,0,0,0,0,2.22,1.42,1.42,0,0,0,1.38.81,3.73,3.73,0,0,0,.93-.1,1.81,1.81,0,0,0,.67-.31l.11.34,1.9-.64,1.43-5.36a1.87,1.87,0,0,0-.19-1.72M147.25,95a1,1,0,0,1-.36.19,1.28,1.28,0,0,1-.46.08c-.28,0-.44-.11-.48-.34a4.35,4.35,0,0,1,.24-1.53,4.63,4.63,0,0,1,.59-1.44.89.89,0,0,1,.74-.42.57.57,0,0,1,.39.11.43.43,0,0,1,.15.32Zm14-6.15a1.53,1.53,0,0,0-1.59-.85,3.18,3.18,0,0,0-2.42,1.06,7.26,7.26,0,0,0-1.55,3.14,5.36,5.36,0,0,0-.16,3.15,1.65,1.65,0,0,0,1.72,1,3.2,3.2,0,0,0,1.91-.51,2.74,2.74,0,0,0,1-1.6h-1.5a1.35,1.35,0,0,1-.32.65.72.72,0,0,1-.51.19c-.31,0-.46-.16-.47-.49a11.69,11.69,0,0,1,.48-2.32h3l.25-.92a4.27,4.27,0,0,0,.11-2.55m-1.78,2.29h-1.31a7.28,7.28,0,0,1,.53-1.52.69.69,0,0,1,.62-.35c.29,0,.43.13.44.4a7,7,0,0,1-.28,1.47m-57.67-1.48a3.68,3.68,0,0,1,1.84-.45.75.75,0,0,1,.65.26.78.78,0,0,1,.06.68l-.16.6a.66.66,0,0,0-.36-.31,1.6,1.6,0,0,0-.65-.12,2.88,2.88,0,0,0-2,.74A4.75,4.75,0,0,0,100,93.39a3.12,3.12,0,0,0,0,2.22,1.4,1.4,0,0,0,1.37.81,3.68,3.68,0,0,0,.93-.1A1.86,1.86,0,0,0,103,96l.11.34,1.9-.64,1.43-5.36a1.65,1.65,0,0,0-1.8-2.33,7.28,7.28,0,0,0-1.25.1,4.81,4.81,0,0,0-1.18.33ZM103.08,95a1,1,0,0,1-.36.19,1.28,1.28,0,0,1-.46.08.42.42,0,0,1-.48-.34,4.46,4.46,0,0,1,.25-1.53,4.67,4.67,0,0,1,.58-1.44.91.91,0,0,1,.75-.42.57.57,0,0,1,.39.11.39.39,0,0,1,.14.32Zm13.31-6.51a1.89,1.89,0,0,0-1.46-.49,2.59,2.59,0,0,0-1,.2,2.8,2.8,0,0,0-.87.5,1.1,1.1,0,0,0-.47-.54,2.07,2.07,0,0,0-.93-.16,3.84,3.84,0,0,0-1,.12,3.38,3.38,0,0,0-.85.35l0-.37H108.1l-2.21,8.23,2.25-.64,1.69-6.25a1.11,1.11,0,0,1,.3-.08l.32,0a.67.67,0,0,1,.53.16.61.61,0,0,1,0,.55l-1.68,6.27a46.45,46.45,0,0,1-5.06,1,24,24,0,0,1-6,.26c-1.39-.21-1.82-1-1.6-2.11a10.71,10.71,0,0,1,2.07-3.82c2.12-2.79,1.08-4-1-4A17.63,17.63,0,0,0,92,88.81a7.74,7.74,0,0,0,.88-2.16l.45-.11c4.9-1.26,9-4.56,9.07-7.38.07-1.93-1.74-3.12-4.47-3.28a3.55,3.55,0,0,1,.79,2.45c-.09,2.56-2.46,5.35-5.74,7.09a2.77,2.77,0,0,0-1.15-2.08c-2.1-1.52-6.51-.92-11,1.23,2.68-.63,5-.54,6.36.45C90,87,87.69,92,82,96.1a28.15,28.15,0,0,1-4.27,2.55,25.83,25.83,0,0,0,8.88-4.23,19.83,19.83,0,0,0,5.2-5.3c1.74-.35,3.5-.62,4.18-.22,1.07.63-1.14,3.17-3.6,6.13a8.86,8.86,0,0,0-2.24,4c-.1,1.08.62,1.73,2.44,1.67A42.87,42.87,0,0,0,101,99.25c3.36-.84,7.18-2.5,10.61-3.48l1.47-5.6a2.2,2.2,0,0,0,.07-.37,1.58,1.58,0,0,0,0-.31l.44-.11.37,0a.5.5,0,0,1,.45.2.59.59,0,0,1,0,.51l-1.68,6.28,2.27-.64L116.58,90a1.48,1.48,0,0,0-.19-1.45m4.78-.49a7.36,7.36,0,0,0-1.25.1,4.74,4.74,0,0,0-1.17.33l-.34,1.23a4.47,4.47,0,0,1,.92-.35,4.42,4.42,0,0,1,.93-.1.73.73,0,0,1,.64.26.81.81,0,0,1,.07.68l-.16.6a.75.75,0,0,0-.36-.31,1.6,1.6,0,0,0-.65-.12,2.91,2.91,0,0,0-2.06.74,4.83,4.83,0,0,0-1.21,2.31,3.24,3.24,0,0,0,0,2.22,1.42,1.42,0,0,0,1.38.81,3.73,3.73,0,0,0,.93-.1,1.81,1.81,0,0,0,.67-.31l.12.34,1.9-.64L123,90.35a1.87,1.87,0,0,0-.19-1.72,1.92,1.92,0,0,0-1.61-.61m-1.5,7a1,1,0,0,1-.36.19,1.28,1.28,0,0,1-.46.08c-.28,0-.44-.11-.48-.34a4.21,4.21,0,0,1,.25-1.53A4.43,4.43,0,0,1,119.2,92a.89.89,0,0,1,.74-.42.61.61,0,0,1,.4.11.42.42,0,0,1,.14.32Zm7.17-5.84h1.3l.28-1.06h-1.29l.67-2.5h-2.13l-.67,2.5h-.8l-.28,1h.8l-1.4,5.22a1.65,1.65,0,0,0,.12,1.49,1.74,1.74,0,0,0,1.41.48l1.37-.64.13-.47a1.27,1.27,0,0,1-.85-.19c-.12-.13-.13-.38,0-.76ZM144,88.51a1.89,1.89,0,0,0-1.46-.49,2.55,2.55,0,0,0-1,.2,2.8,2.8,0,0,0-.87.5,1.1,1.1,0,0,0-.47-.54,2.07,2.07,0,0,0-.93-.16,4,4,0,0,0-1,.12,3.47,3.47,0,0,0-.84.35l0-.37h-1.73l-2.2,8.23,2.24-.64,1.7-6.25a1.11,1.11,0,0,1,.3-.08l.32,0a.67.67,0,0,1,.53.16.65.65,0,0,1,0,.55l-1.69,6.28,2.25-.64,1.5-5.54c0-.12.05-.24.07-.37a1.58,1.58,0,0,0,0-.31l.44-.11.37,0a.51.51,0,0,1,.45.2.63.63,0,0,1,0,.51l-1.68,6.28,2.26-.64L144.16,90a1.48,1.48,0,0,0-.19-1.45m11.92,1.38.46-1.71a1.43,1.43,0,0,0-.31-.12,1.5,1.5,0,0,0-.37,0,3.62,3.62,0,0,0-.89.11,2.54,2.54,0,0,0-.78.37l0-.38h-1.72l-2.2,8.23,2.26-.64,1.56-5.83a1,1,0,0,1,.45-.14,3.81,3.81,0,0,1,.59,0,2.1,2.1,0,0,1,.51,0,3.5,3.5,0,0,1,.46.14m-22.11-1.26a1.94,1.94,0,0,0-1.61-.61,7.48,7.48,0,0,0-1.26.1,4.86,4.86,0,0,0-1.17.33l-.33,1.23a3.68,3.68,0,0,1,1.84-.45.75.75,0,0,1,.65.26.85.85,0,0,1,.06.68l-.16.6a.66.66,0,0,0-.36-.31,1.6,1.6,0,0,0-.65-.12,2.88,2.88,0,0,0-2,.74,4.75,4.75,0,0,0-1.21,2.31,3.19,3.19,0,0,0,0,2.22,1.42,1.42,0,0,0,1.38.81,3.73,3.73,0,0,0,.93-.1,1.86,1.86,0,0,0,.68-.31l.11.34,1.88-.64L134,90.35a1.93,1.93,0,0,0-.19-1.72M130.66,95a1,1,0,0,1-.36.19,1.28,1.28,0,0,1-.46.08.42.42,0,0,1-.48-.34,7,7,0,0,1,.83-3,.9.9,0,0,1,.74-.42.58.58,0,0,1,.4.11.42.42,0,0,1,.14.32Z"/><path class="cls-2" d="M122.56,81.23h0l-.86,1-1.26.15a4.3,4.3,0,0,0-1,1.09h0l.81.48-.9,1.06h0a1.25,1.25,0,0,0,.61.38l1.45-.69.66.53h0a6.29,6.29,0,0,0,1-.45,5.43,5.43,0,0,0,1-.64h0s-.08-.81-.09-.84c1.35-.82,1.35-.82,1.35-.83a1.18,1.18,0,0,0,.07-.41.75.75,0,0,0,0-.26v0L124,82s.05-1,.05-1h0a4.55,4.55,0,0,0-1.42.22"/><polygon class="cls-1" points="121.08 83.75 121.88 84.22 123.27 83.48 123.32 82.54 121.97 82.71 121.08 83.75"/><path class="cls-1" d="M118.92,98.63h-1.07a.23.23,0,0,0-.09-.2.43.43,0,0,0-.28-.07.61.61,0,0,0-.32.07.21.21,0,0,0-.11.14.1.1,0,0,0,0,.12.8.8,0,0,0,.35.14l.41.1a1.25,1.25,0,0,1,.75.39.65.65,0,0,1,.09.58,1.13,1.13,0,0,1-.26.48,1.62,1.62,0,0,1-.4.35,2.34,2.34,0,0,1-.53.2,2.79,2.79,0,0,1-.64.07,2.22,2.22,0,0,1-.65-.09,1,1,0,0,1-.45-.24.78.78,0,0,1-.2-.38.89.89,0,0,1,0-.37h1.09a.3.3,0,0,0,.1.24.64.64,0,0,0,.36.08.68.68,0,0,0,.35-.07.27.27,0,0,0,.11-.15.17.17,0,0,0,0-.16.92.92,0,0,0-.34-.13l-.37-.09a2.22,2.22,0,0,1-.53-.19.64.64,0,0,1-.32-.31.68.68,0,0,1,0-.47,1.11,1.11,0,0,1,.25-.48,1.53,1.53,0,0,1,.42-.34,2.21,2.21,0,0,1,.51-.18,3.29,3.29,0,0,1,.54,0,2.43,2.43,0,0,1,.57.06,1.2,1.2,0,0,1,.39.16.72.72,0,0,1,.2.23.79.79,0,0,1,.08.26,1.4,1.4,0,0,1,0,.3"/><path class="cls-1" d="M120.81,99.83h-.72l.66-1.16Zm-1.35,1.08.24-.42h1.13l0,.42H122l-.37-3.21h-1.15l-2.09,3.21Z"/><polygon class="cls-1" points="122.15 100.91 123.01 97.7 124.06 97.7 124.79 99.42 125.25 97.7 126.33 97.7 125.47 100.91 124.39 100.91 123.69 99.23 123.24 100.91 122.15 100.91"/><path class="cls-1" d="M126.67,97.7h1.12l-.52,2a.56.56,0,0,0,0,.3.24.24,0,0,0,.14.16.58.58,0,0,0,.28.06.7.7,0,0,0,.42-.12.68.68,0,0,0,.25-.4l.53-2H130l-.5,1.88a3.2,3.2,0,0,1-.21.55,1.76,1.76,0,0,1-.29.37,1.94,1.94,0,0,1-.41.27,1.61,1.61,0,0,1-.51.17,2.91,2.91,0,0,1-.6.06,2.68,2.68,0,0,1-.61-.06,1.36,1.36,0,0,1-.42-.17.91.91,0,0,1-.25-.27.87.87,0,0,1-.1-.42,2.26,2.26,0,0,1,.09-.51Z"/><polygon class="cls-1" points="129.49 100.91 130.35 97.7 131.44 97.7 131.16 98.76 132.46 97.7 133.79 97.7 132.21 98.91 133.06 100.91 131.71 100.91 131.23 99.63 130.85 99.91 130.59 100.91 129.49 100.91"/><polygon class="cls-1" points="133.34 100.91 134.2 97.7 135.33 97.7 134.47 100.91 133.34 100.91"/></svg>
