<svg width="200" height="200" viewBox="0 0 200 200" fill="none" xmlns="http://www.w3.org/2000/svg">
<path d="M138.562 65.212L144.314 58.6518L136.89 50.2299L125.639 63.1858H122.922L129.856 40.3225L125.094 40.8347C124.129 40.9383 123.21 41.1415 122.387 41.4322C122.125 40.4485 121.66 39.3735 120.997 38.2191L119.776 36.0994L117.416 36.7436C116.37 37.0302 115.465 37.331 114.718 37.6439C114.388 36.8107 113.91 35.8291 113.291 34.7073L111.866 32.1303L109.192 33.366C108.399 33.7318 106.919 34.4166 105.629 35.3739C104.653 33.2196 102.536 31.5552 101.56 30.8744L99.711 29.6001L97.8961 30.8724C96.9226 31.5532 94.8009 33.2156 93.8295 35.376C92.9129 34.7094 91.722 34.0367 90.273 33.366L87.6026 32.1324L86.1736 34.7012C85.5477 35.825 85.0685 36.8107 84.7392 37.6439C83.9954 37.331 83.105 37.0343 82.0421 36.7436L79.6828 36.0994L78.4613 38.2232C77.7987 39.3755 77.3332 40.4506 77.071 41.4322C76.2499 41.1436 75.3317 40.9403 74.3684 40.8366L69.6067 40.3246L76.5386 63.1879H73.8216L62.5706 50.232L55.1469 58.6538L60.898 65.2141C51.5433 76.7921 46.4 91.9082 46.4 107.864C46.4 124.323 51.8506 139.838 61.7499 151.548C66.6315 157.324 72.3341 161.866 78.7277 165.071C78.8842 165.174 78.9997 165.374 79.0363 165.599C79.4042 167.886 81.272 169.676 83.5787 169.954C88.8708 170.591 94.2564 170.918 99.583 170.924H99.8817C105.208 170.918 110.592 170.593 115.886 169.954C118.193 169.676 120.06 167.888 120.426 165.603C120.465 165.376 120.578 165.177 120.763 165.053C127.131 161.868 132.833 157.326 137.715 151.55C147.614 139.838 153.067 124.325 153.067 107.866C153.063 91.9042 147.917 76.788 138.562 65.212Z" fill="black"/>
<path d="M80.6475 145.851C83.0252 147.757 85.5659 149.357 88.2363 150.572V145.851H80.6475Z" fill="#9D77B2"/>
<path d="M99.8768 145.851V153.206C103.954 153.184 107.86 152.237 111.518 150.572V145.851H99.8768Z" fill="#9D77B2"/>
<path d="M60.9914 107.296C61.4141 112.8 62.7939 118.468 64.9542 123.864V84.167C62.3184 90.4549 60.3065 98.3869 60.9914 107.296Z" fill="#9D77B2"/>
<path d="M88.2358 70.7319H76.5947V135.444H88.2358V70.7319Z" fill="#9D77B2"/>
<path d="M111.518 70.7319H99.8768V135.444H111.518V70.7319Z" fill="#9D77B2"/>
<path d="M128.945 73.4512L126.481 70.7319H123.159V135.444H128.622C131.081 131.867 133.165 127.945 134.799 123.864V84.1654C132.915 79.674 130.713 76.018 128.945 73.4512Z" fill="#9D77B2"/>
<path d="M88.2367 145.851V150.572C91.8948 152.237 95.8009 153.184 99.8777 153.206V145.851H88.2367Z" fill="#5DB8E9"/>
<path d="M111.519 150.572C114.191 149.357 116.729 147.757 119.107 145.851H111.519V150.572Z" fill="#5DB8E9"/>
<path d="M73.2749 70.7319L70.8119 73.4512C69.0439 76.02 66.8407 79.6761 64.9547 84.1695V123.866C66.5887 127.947 68.6759 131.869 71.135 135.446H76.5977V70.7339L73.2749 70.7319Z" fill="#5DB8E9"/>
<path d="M99.8777 70.7319H88.2367V135.444H99.8777V70.7319Z" fill="#5DB8E9"/>
<path d="M123.16 70.7319H111.519V135.444H123.16V70.7319Z" fill="#5DB8E9"/>
<path d="M134.801 84.167V123.866C136.963 118.47 138.342 112.802 138.764 107.296C139.451 98.3849 137.439 90.4549 134.801 84.167Z" fill="#5DB8E9"/>
<path d="M135.55 66.5352L134.397 65.1532L140.094 58.656L136.906 55.0405L127.429 65.9539C127.183 66.2364 127.187 66.6613 127.439 66.9397L131.869 71.8314L131.969 71.9655C136.424 78.3692 143.705 91.569 142.439 108.02C141.572 119.287 136.737 131.491 129.504 140.665C121.273 151.103 110.705 156.871 99.7289 156.922C88.7525 156.869 78.1843 151.103 69.9535 140.665C62.7206 131.491 57.8837 119.287 57.018 108.02C55.7518 91.567 63.0357 78.3692 67.4905 71.9655L67.5903 71.8314L72.0205 66.9397C72.2725 66.6613 72.2763 66.2385 72.0304 65.9539L62.5542 55.0405L59.3653 58.656L65.0618 65.1532L63.9097 66.5352C54.6607 77.6356 49.5656 92.3129 49.5656 107.862C49.5656 123.576 54.7521 138.363 64.1677 149.502C68.7708 154.946 74.1379 159.224 80.1169 162.216C80.2389 162.277 80.3629 162.35 80.495 162.439C81.3791 163.035 81.9868 164.002 82.1636 165.093C82.3079 165.992 83.0459 166.697 83.9543 166.805C89.1224 167.426 94.3798 167.745 99.5825 167.752H99.8792C105.082 167.745 110.339 167.426 115.507 166.805C116.418 166.695 117.154 165.992 117.298 165.093C117.475 164.002 118.08 163.033 118.964 162.439C119.098 162.35 119.22 162.277 119.342 162.216C125.323 159.224 130.689 154.946 135.292 149.502C144.708 138.363 149.894 123.576 149.894 107.862C149.894 92.3129 144.799 77.6356 135.55 66.5352Z" fill="#D0A500"/>
<path d="M62.6045 72.4658C63.5638 72.4658 64.3421 73.2441 64.3421 74.2034C64.3421 75.1626 63.5638 75.941 62.6045 75.941C61.6453 75.941 60.8669 75.1626 60.8669 74.2034C60.8669 73.2441 61.6453 72.4658 62.6045 72.4658Z" fill="white"/>
<path d="M54.0139 115.061C55.0701 115.061 55.9266 114.205 55.9266 113.149C55.9266 112.093 55.0701 111.236 54.0139 111.236C52.9577 111.236 52.1017 112.093 52.1017 113.149C52.1017 114.205 52.9577 115.061 54.0139 115.061Z" fill="white"/>
<path d="M55.3516 93.0835C54.3923 93.0835 53.614 92.3052 53.614 91.346C53.614 90.3867 54.3923 89.6084 55.3516 89.6084C56.3108 89.6084 57.0897 90.3867 57.0897 91.346C57.0897 92.3052 56.3108 93.0835 55.3516 93.0835Z" fill="white"/>
<path d="M73.1946 154.571C71.7171 154.571 70.5183 153.374 70.5183 151.894C70.5183 150.417 71.7171 149.218 73.1946 149.218C74.6721 149.218 75.8714 150.415 75.8714 151.894C75.8714 153.374 74.6721 154.571 73.1946 154.571Z" fill="white"/>
<path d="M144.108 89.6084C145.067 89.6084 145.845 90.3867 145.845 91.346C145.845 92.3052 145.067 93.0835 144.108 93.0835C143.148 93.0835 142.37 92.3052 142.37 91.346C142.37 90.3867 143.148 89.6084 144.108 89.6084Z" fill="white"/>
<path d="M145.445 115.061C146.501 115.061 147.358 114.205 147.358 113.149C147.358 112.093 146.501 111.236 145.445 111.236C144.389 111.236 143.533 112.093 143.533 113.149C143.533 114.205 144.389 115.061 145.445 115.061Z" fill="white"/>
<path d="M136.854 75.941C135.894 75.941 135.116 75.1626 135.116 74.2034C135.116 73.2441 135.894 72.4658 136.854 72.4658C137.813 72.4658 138.592 73.2441 138.592 74.2034C138.592 75.1626 137.813 75.941 136.854 75.941Z" fill="white"/>
<path d="M126.263 149.22C127.741 149.22 128.94 150.417 128.94 151.896C128.94 153.374 127.741 154.573 126.263 154.573C124.786 154.573 123.587 153.376 123.587 151.896C123.587 150.417 124.786 149.22 126.263 149.22Z" fill="white"/>
<path d="M58.6396 133.395C57.1621 133.395 55.9628 132.198 55.9628 130.718C55.9628 129.239 57.1601 128.042 58.6396 128.042C60.1191 128.042 61.3159 129.239 61.3159 130.718C61.3159 132.198 60.1191 133.395 58.6396 133.395Z" fill="white"/>
<path d="M140.82 128.043C142.297 128.043 143.496 129.241 143.496 130.72C143.496 132.2 142.299 133.396 140.82 133.396C139.34 133.396 138.143 132.2 138.143 130.72C138.143 129.241 139.342 128.043 140.82 128.043Z" fill="white"/>
<path d="M121.594 46.0772C121.594 50.4731 120.267 51.6518 117.247 50.4568C114.388 49.3228 115.798 47.3271 117.278 45.7074C117.772 45.1729 119.076 44.4616 119.399 43.6588C119.853 42.5858 118.249 39.7974 118.249 39.7974C118.249 39.7974 114.936 40.6998 114.621 41.3867C114.136 42.4313 114.451 43.4922 114.329 45.0672C114.19 46.8271 112.758 49.4569 109.933 48.0424C107.318 46.7438 112.199 42.1934 112.103 39.9417C112.063 39.0353 110.516 36.2389 110.516 36.2389C110.516 36.2389 106.663 38.0213 106.354 39.1329C105.86 40.9782 107.998 48.0424 103.594 47.26C100.548 46.7153 100.371 44.7949 102.873 38.1168C103.594 36.1597 99.7409 33.4648 99.7409 33.4648L99.725 33.477L99.7086 33.4648C99.7086 33.4648 95.8552 36.1617 96.5828 38.1168C99.0845 44.7949 98.9059 46.7153 95.8554 47.26C91.4494 48.0424 93.5891 40.9782 93.0932 39.1329C92.7945 38.0192 88.9413 36.2389 88.9413 36.2389C88.9413 36.2389 87.3846 39.0353 87.3541 39.9417C87.2565 42.1934 92.1383 46.7438 89.5248 48.0424C86.6898 49.4569 85.267 46.8271 85.1288 45.0672C84.9987 43.4922 85.3138 42.4313 84.8281 41.3867C84.5131 40.6998 81.2086 39.7974 81.2086 39.7974C81.2086 39.7974 79.6069 42.5858 80.052 43.6588C80.3833 44.4616 81.6862 45.1729 82.1821 45.7074C83.6717 47.3271 85.0718 49.3228 82.2123 50.4568C79.1842 51.6497 77.8654 50.4731 77.8654 46.0772C77.8654 44.3965 74.0286 43.9839 74.0286 43.9839L81.1049 67.3187H118.359L125.435 43.9839C125.435 43.9839 121.594 44.3945 121.594 46.0772Z" fill="#D0A500"/>
<path d="M116.636 65.4922V65.921H102.723C102.731 65.8742 102.76 65.6913 102.816 65.4922C102.869 65.2991 102.947 65.0877 103.05 64.9739C103.278 64.7219 102.936 64.2403 102.621 64.2159C102.621 64.2159 103.834 61.4215 103.936 61.0414C103.936 61.0414 102.457 61.0171 101.534 60.3464C100.611 59.6758 99.6112 59.7896 99.6112 59.7896C99.6112 59.7896 99.5625 60.5598 98.6378 61.0536C97.7131 61.5474 97.2844 62.0027 97.3596 62.7994C97.4369 63.596 97.6377 64.4821 98.03 64.6711C98.4181 64.8601 98.8187 65.2484 98.8878 65.7381H96.8029C96.8761 65.6548 97.2479 65.2097 97.1443 64.9353C97.0305 64.6305 96.6769 64.468 96.6769 64.468L96.018 62.0779C96.018 62.0779 96.9675 61.5475 97.1443 60.952C97.3211 60.3586 97.8533 59.7002 98.3837 59.562C98.3837 59.562 97.5549 59.5193 97.057 60.6126C96.557 61.706 95.4004 62.0678 94.8436 62.1044C94.2867 62.143 93.2747 62.1429 93.2747 62.1429C93.2747 62.1429 92.2504 63.5716 92.2382 64.1285C92.226 64.6853 92.6812 64.85 92.9596 65.1142C93.0653 65.2158 93.1506 65.3561 93.2157 65.4943C93.3091 65.6894 93.3622 65.8763 93.3744 65.9231H82.8245V65.4943H91.0127L91.0881 65.3804C91.0881 65.3804 91.5694 64.7098 90.848 64.2932L92.3786 60.6005C92.3786 60.6005 93.364 60.8016 93.7684 60.4866C94.1728 60.1696 94.3133 59.6514 94.2239 59.2612C94.1344 58.869 93.5268 58.5397 93.5268 58.5397C93.5268 58.5397 93.4127 56.0624 95.6766 55.2027C97.9406 54.343 101.128 56.0238 102.329 54.9629C102.329 54.9629 101.9 55.0117 101.489 54.9731C101.666 54.78 101.892 54.3654 102.227 53.5871C102.268 53.4915 102.312 53.398 102.357 53.3066L102.648 53.4123L102.414 53.1968C102.76 52.4489 103.237 51.89 103.237 51.89L103.601 52.0628L103.34 51.7397C103.765 51.2357 104.334 50.7154 104.918 50.3476L105.233 50.6483L105.084 50.2439C105.509 50.0081 106.133 49.8212 106.702 49.7521L106.836 50.1464L106.869 49.7378C107.549 49.689 108.187 49.746 108.696 49.8558L108.673 50.2785L108.85 49.8862C109.639 50.0853 110.214 50.4166 110.588 50.6727L110.435 51.0222L110.732 50.7743C110.732 50.7743 110.732 50.7744 110.734 50.7764C110.765 50.8069 111.26 51.3108 111.636 51.4998C111.598 51.512 111.014 51.7336 110.726 51.9571C110.726 51.9571 110.645 52.4001 110.417 52.7273C110.19 53.0566 109.35 54.4324 109.149 54.845C109.149 54.847 109.147 54.847 109.147 54.849C109.129 54.8816 109.117 54.91 109.106 54.9344C108.879 55.479 108.6 55.7941 108.196 55.6802C107.791 55.5664 107.665 55.0726 107.866 54.7698C108.07 54.467 108.044 53.8858 107.918 53.6195C107.792 53.3533 107.702 52.7985 107.905 52.5566C107.905 52.5566 106.704 53.0241 107.474 55.0218C108.247 57.0196 107.297 58.5621 107.297 58.5621C107.297 58.5621 109.661 58.4097 109.838 58.8649C110.015 59.3201 109.952 61.4195 109.85 61.6857C109.748 61.9519 109.281 62.4458 108.041 62.8238C108.041 62.8238 107.763 62.0291 107.84 61.206C107.84 61.206 108.332 61.2304 108.472 61.3442C108.612 61.458 109.104 61.3199 109.104 61.3199L108.864 59.7266C108.864 59.7266 106.769 59.5538 105.671 61.1045C103.794 63.7627 104.078 64.3196 104.078 64.3196C104.078 64.3196 104.739 64.8033 104.983 65.3784L105.025 65.4922H116.636Z" fill="#776125"/>
<path d="M87.6412 61.3831C87.6412 61.3831 90.273 62.1289 91.8135 59.9685C91.8135 59.9685 91.6365 60.6494 90.7403 61.379C91.3276 61.1636 91.8683 60.7673 92.2179 60.0804C93.4068 57.7413 93.3782 55.6927 95.632 54.959C95.632 54.959 93.2805 53.8453 91.7624 56.2738C90.2443 58.7024 90.2709 59.3203 89.3604 60.2958C89.3604 60.2958 90.2708 60.2836 91.5227 58.044C91.5512 58.2412 90.6389 60.8385 87.6412 61.3831Z" fill="#776125"/>
<path d="M126.792 129.04L121.429 129.038C111.834 128.64 108.93 126.565 106.044 122.067C103.756 118.533 101.551 114.668 98.9029 109.534C98.3054 108.39 97.8864 107.776 97.5409 107.445V117.111C97.5409 118.304 97.541 120.785 97.919 121.293C98.2238 121.708 100.437 122.185 101.271 122.364L103.274 122.797V128.534H77.9845V122.797L79.9881 122.364C80.99 122.147 83.0731 121.698 83.3516 121.33C83.7153 120.846 83.7152 118.228 83.7152 117.111V88.2337C83.7152 87.0225 83.7155 84.4984 83.3253 83.9639C83.1261 83.6875 82.0467 83.3887 80.118 83.0757L77.9821 82.7303V76.8813H99.799C100.805 76.8813 101.777 76.8977 102.713 76.9424L103.943 77.0154C108.136 77.3365 111.131 78.2776 113.665 80.0701C117.126 82.4397 119.039 86.1791 119.039 90.5993C119.039 94.5034 117.618 99.8951 110.938 103.661C112.678 106.699 115.054 110.758 116.431 112.975C119.155 117.344 120.004 118.639 121.443 120.338C122.778 121.907 123.384 122.293 125.753 123.084L127.912 123.803L126.792 129.04Z" fill="black"/>
<path d="M119.506 121.986C117.929 120.122 116.998 118.689 114.275 114.32C112.269 111.095 108.47 104.504 107.395 102.569C110.978 101.063 116.496 97.8401 116.496 90.6031C116.496 86.949 114.919 84.0103 112.198 82.1467C109.259 80.0676 105.678 79.4233 99.8006 79.4233H80.5245V80.5696C85.8268 81.4293 86.2572 82.2177 86.2572 88.2354V117.112C86.2572 123.274 85.8268 123.705 80.5245 124.851V125.998H100.731V124.851C95.4291 123.705 94.9982 123.132 94.9982 117.112V104.5H96.0734C98.5101 104.5 99.585 105.36 101.16 108.369C103.452 112.812 105.674 116.826 108.182 120.695C110.619 124.494 112.911 126.14 121.51 126.499C122.369 126.499 124.377 126.499 124.735 126.499L124.95 125.498C122.156 124.565 121.154 123.921 119.506 121.986Z" fill="white"/>
<path d="M102.967 83.2545C102.896 82.72 102.967 82.1693 103.172 81.6714C103.276 81.9864 103.53 82.2485 103.843 82.3603C103.894 82.3786 103.951 82.3949 103.985 82.4396C104.002 82.4599 104.012 82.4863 104.022 82.5128C104.077 82.6672 104.134 82.8217 104.188 82.9762C104.209 83.029 104.227 83.0818 104.247 83.1367C104.264 83.1814 104.28 83.2261 104.288 83.2708C104.323 83.4354 104.294 83.6529 104.447 83.724C104.477 83.7382 104.514 83.7443 104.54 83.7667C104.613 83.8277 104.558 83.9415 104.53 84.0309C104.473 84.2158 104.562 84.413 104.672 84.5695C104.782 84.726 104.922 84.8702 104.983 85.0531C104.835 85.2381 104.457 85.0937 104.343 85.3031C104.29 85.4006 104.333 85.5226 104.377 85.6262C104.461 85.8172 104.542 86.0083 104.624 86.1973L104.583 86.1669C104.906 86.7075 105.229 87.246 105.55 87.7866C105.609 87.8842 105.676 87.9898 105.784 88.0305C105.855 88.0569 105.937 88.0508 106.014 88.0467C106.53 88.0203 107.052 88.1646 107.481 88.4511C107.676 88.5812 107.857 88.7458 107.965 88.9531C108.097 89.2031 108.117 89.4957 108.109 89.7782C108.093 90.3452 107.975 90.9082 107.761 91.4326C107.574 91.8919 107.31 92.3491 107.351 92.8429L107.343 92.8145C107.062 92.7454 106.792 92.9546 106.595 93.168C106.4 93.3814 106.197 93.6294 105.91 93.67C105.835 93.6802 105.755 93.6761 105.682 93.6965C105.55 93.733 105.457 93.8449 105.365 93.9465C104.845 94.5379 104.209 95.0155 103.579 95.487C103.307 95.6923 103.022 95.9015 102.686 95.9706C102.579 95.993 102.465 96.0011 102.374 96.062C102.291 96.1169 102.239 96.2064 102.178 96.2836C101.817 96.7348 101.136 96.7206 100.559 96.6637C100.579 96.8059 100.598 96.9543 100.551 97.0905C100.504 97.2266 100.368 97.3445 100.227 97.3201C100.329 97.1636 100.061 97.0009 99.8901 97.0741C99.6767 97.1676 99.5731 97.4542 99.6787 97.6635C99.7052 97.7144 99.744 97.7692 99.7318 97.8241C99.7074 97.9358 99.5489 97.9196 99.4351 97.9135C99.1506 97.8993 98.8987 98.1289 98.797 98.3951C98.6934 98.6614 98.7073 98.9561 98.7256 99.2406C98.7378 99.4357 98.7502 99.6369 98.6953 99.8239C98.6405 100.011 98.5004 100.188 98.3073 100.226C98.1996 100.249 98.0896 100.226 97.9818 100.204C97.6485 100.133 97.3192 100.047 96.992 99.9519C96.8863 99.9214 96.7664 99.8909 96.673 99.9478C96.5327 100.035 96.5575 100.259 96.4437 100.379C96.3096 100.521 96.0715 100.45 95.9049 100.348C95.7382 100.249 95.5495 100.121 95.3646 100.182C95.1817 100.243 95.1042 100.458 95.0798 100.651C95.0554 100.842 95.0534 101.051 94.9314 101.204C94.5717 101.106 94.1979 101.051 93.824 101.041L93.8096 101.007C93.4804 101.421 93.3542 101.99 93.4762 102.506C93.5575 102.848 93.7019 103.293 93.4052 103.48C93.2487 103.58 92.9905 103.573 92.9438 103.752C92.9214 103.838 92.9644 103.927 92.9522 104.016C92.938 104.118 92.8563 104.195 92.7791 104.262C92.4051 104.586 91.9848 104.929 91.8974 105.415C91.8344 105.764 91.9601 106.116 91.9946 106.467C92.0475 107.018 91.8751 107.561 91.7044 108.087C91.3792 107.484 90.8852 106.971 90.2938 106.626C90.1678 106.553 90.0317 106.48 89.9708 106.348C89.9139 106.226 89.9382 106.081 89.9727 105.951C90.1069 105.437 90.3671 104.964 90.6232 104.498C91.0663 103.695 91.5154 102.882 92.1474 102.218C92.4259 101.925 92.7589 101.624 92.7915 101.22C92.8219 100.86 92.6067 100.462 92.8058 100.161C92.8485 100.096 92.9075 100.043 92.9542 99.9804C93.1148 99.7548 93.0739 99.4418 92.9641 99.1878C92.8544 98.9337 92.6858 98.7061 92.5984 98.4439C92.3851 97.8017 92.7813 97.0234 93.4256 96.8161C93.643 96.747 93.8952 96.7267 94.0537 96.5621C94.1492 96.4625 94.1937 96.3243 94.2343 96.1922C94.4253 95.5622 94.6164 94.863 95.1651 94.4993C95.6163 94.1985 96.2889 94.1334 96.5023 93.6334C96.5795 93.4505 96.5756 93.2454 96.6243 93.0523C96.7381 92.5889 97.1932 92.2333 97.6707 92.2333C97.7988 92.2333 97.933 92.2556 98.0488 92.2027C98.246 92.1133 98.301 91.8614 98.4433 91.6988C98.6689 91.4427 99.1422 91.4833 99.321 91.7739C99.4104 91.4935 99.4655 91.2008 99.4818 90.9081C99.496 90.6785 99.4819 90.4388 99.3701 90.2376C99.2563 90.0384 99.0206 89.8921 98.797 89.951L98.7524 89.892C98.8479 89.581 98.6565 89.2518 98.4309 89.0181C98.2053 88.7844 97.9291 88.5812 97.7888 88.2865C97.671 88.0386 97.663 87.75 97.6772 87.4757C97.6792 87.4167 97.6855 87.3537 97.7139 87.3029C97.7505 87.2399 97.8173 87.2033 97.8722 87.1545C98.0795 86.9716 98.0854 86.6525 98.0508 86.3781C98.0163 86.1038 97.9614 85.8072 98.0915 85.5633C98.1586 85.4353 98.2708 85.3377 98.3703 85.2361C98.6183 84.9841 98.8151 84.6853 98.9533 84.3601C99.0041 84.2382 99.0511 84.1081 99.1548 84.0248C99.2564 83.9415 99.4372 83.9395 99.4981 84.0553C99.5225 84.1021 99.5244 84.1589 99.5244 84.2118C99.5305 84.5572 99.5775 84.9027 99.6629 85.2381C99.6791 85.3031 99.6993 85.3722 99.7522 85.4128C99.8904 85.5206 100.075 85.3519 100.159 85.1954C100.372 84.793 100.508 84.348 100.557 83.8927C100.567 83.8033 100.573 83.7098 100.62 83.6346C100.73 83.4578 100.982 83.4579 101.189 83.4782C101.252 83.4843 101.319 83.4924 101.37 83.531C101.406 83.5595 101.433 83.6001 101.451 83.6428C101.545 83.8419 101.548 84.0695 101.585 84.2869C101.622 84.5044 101.707 84.7341 101.9 84.8439C101.977 84.8865 102.071 84.9129 102.115 84.9901C102.16 85.0673 102.134 85.171 102.168 85.2543C102.231 85.4088 102.475 85.4047 102.589 85.2807C102.701 85.1568 102.713 84.9738 102.703 84.8052C102.687 84.545 102.634 84.2891 102.634 84.0289C102.634 83.7688 102.697 83.4944 102.88 83.3095" fill="#5DB8E9"/>
<path d="M87.6197 160.405C87.3717 160.179 87.1335 160.12 86.9588 160.12C86.8449 160.12 86.6847 160.136 86.5851 160.22C86.5018 160.285 86.4487 160.398 86.4487 160.504C86.4487 160.622 86.5018 160.705 86.5851 160.77C86.6685 160.841 86.7741 160.888 86.9692 160.978L87.2009 161.083C87.3899 161.173 87.5689 161.272 87.7233 161.461C87.8636 161.64 87.9223 161.823 87.9223 162.077C87.9223 162.492 87.7576 162.859 87.5259 163.089C87.2068 163.402 86.7965 163.473 86.3961 163.473C86.1055 163.473 85.8739 163.437 85.6097 163.296C85.4146 163.191 85.2255 163.03 85.0833 162.876L85.5913 162.223C85.6767 162.335 85.8048 162.461 85.9247 162.538C86.0487 162.616 86.215 162.668 86.3857 162.668C86.5219 162.668 86.711 162.628 86.8248 162.544C86.9305 162.461 86.9895 162.325 86.9895 162.177C86.9895 162.034 86.9247 161.951 86.8759 161.904C86.8474 161.874 86.7701 161.809 86.5628 161.725L86.3311 161.632C86.2661 161.608 85.9634 161.478 85.7764 161.282C85.5854 161.085 85.5139 160.862 85.5139 160.614C85.5139 160.205 85.6807 159.909 85.8697 159.72C86.1887 159.407 86.5991 159.346 86.9344 159.346C87.2738 159.346 87.6641 159.411 88.0766 159.738L87.6197 160.405Z" fill="white"/>
<path d="M89.7603 159.441L89.2746 163.39H88.3641L88.8499 159.441H89.7603Z" fill="white"/>
<path d="M90.0382 163.39L90.5299 159.441H91.3228L93.1392 162.01L93.4608 159.441H94.3712L93.8835 163.39H93.0906L91.2618 160.809L90.9487 163.39H90.0382Z" fill="white"/>
<path d="M97.574 163.266C97.446 163.331 97.125 163.479 96.6169 163.479C95.871 163.479 95.438 163.16 95.2246 162.953C94.9706 162.699 94.6923 162.272 94.6923 161.585C94.6923 160.898 94.9545 160.335 95.3224 159.969C95.6537 159.638 96.1797 159.354 96.9012 159.354C97.5109 159.354 97.8788 159.555 98.021 159.638L97.9094 160.603C97.7488 160.443 97.4479 160.207 96.9195 160.207C96.5395 160.207 96.2328 160.309 95.9828 160.581C95.7409 160.841 95.629 161.197 95.629 161.51C95.629 161.841 95.7573 162.144 95.9361 162.321C96.113 162.498 96.4094 162.628 96.7712 162.628C97.1614 162.628 97.4746 162.461 97.6941 162.284L97.574 163.266Z" fill="white"/>
<path d="M100.664 160.209H99.3731L99.2793 160.973H100.521L100.428 161.743H99.186L99.0783 162.619H100.393L100.3 163.39H98.0969L98.5847 159.441H100.763L100.664 160.209Z" fill="white"/>
<path d="M103.203 162.205C103.551 161.855 103.777 161.611 103.947 161.394C104.083 161.223 104.309 160.91 104.309 160.601C104.309 160.441 104.25 160.313 104.161 160.236C104.055 160.14 103.913 160.124 103.807 160.124C103.671 160.124 103.539 160.154 103.433 160.272C103.338 160.378 103.272 160.585 103.26 160.752H102.35C102.38 160.408 102.523 160.042 102.76 159.786C103.073 159.449 103.47 159.354 103.866 159.354C104.341 159.354 104.701 159.502 104.921 159.715C105.081 159.87 105.248 160.142 105.248 160.557C105.248 160.863 105.158 161.15 104.986 161.41C104.856 161.605 104.553 161.93 104.342 162.128L103.801 162.625H105.051L104.951 163.396H102.021L103.203 162.205Z" fill="white"/>
<path d="M106.043 163.111C105.647 162.725 105.555 162.199 105.555 161.731C105.555 160.868 105.87 160.215 106.242 159.837C106.592 159.482 106.988 159.352 107.427 159.352C107.711 159.352 108.096 159.406 108.417 159.725C108.807 160.118 108.872 160.673 108.872 161.087C108.872 161.548 108.789 162.449 108.179 163.052C107.829 163.396 107.51 163.479 107.065 163.479C106.712 163.477 106.362 163.418 106.043 163.111ZM107.51 162.512C107.843 162.174 107.949 161.528 107.949 161.073C107.949 160.878 107.927 160.423 107.695 160.232C107.618 160.173 107.523 160.13 107.399 160.13C107.256 160.13 107.096 160.177 106.95 160.313C106.622 160.616 106.482 161.219 106.482 161.721C106.482 161.904 106.488 162.278 106.694 162.51C106.82 162.652 106.972 162.693 107.078 162.693C107.256 162.697 107.392 162.638 107.51 162.512Z" fill="white"/>
<path d="M110.068 162.205C110.416 161.855 110.641 161.611 110.812 161.394C110.948 161.223 111.174 160.91 111.174 160.601C111.174 160.441 111.115 160.313 111.025 160.236C110.92 160.14 110.778 160.124 110.672 160.124C110.536 160.124 110.404 160.154 110.298 160.272C110.203 160.378 110.138 160.585 110.125 160.752H109.215C109.245 160.408 109.388 160.042 109.623 159.786C109.936 159.449 110.332 159.354 110.729 159.354C111.204 159.354 111.564 159.502 111.784 159.715C111.944 159.87 112.111 160.142 112.111 160.557C112.111 160.863 112.021 161.15 111.849 161.41C111.719 161.605 111.416 161.93 111.205 162.128L110.664 162.625H111.914L111.814 163.396H108.884L110.068 162.205Z" fill="white"/>
<path d="M112.735 160.624C112.775 160.311 112.918 159.955 113.143 159.729C113.462 159.404 113.889 159.357 114.186 159.357C114.784 159.357 115.078 159.583 115.192 159.689C115.362 159.855 115.499 160.103 115.499 160.465C115.499 160.648 115.464 160.849 115.328 161.028C115.286 161.081 115.173 161.217 114.96 161.3C115.06 161.353 115.186 161.443 115.292 161.607C115.393 161.762 115.434 161.914 115.434 162.109C115.434 162.465 115.316 162.831 115.06 163.093C114.747 163.418 114.373 163.483 113.958 163.483C113.578 163.483 113.153 163.418 112.822 163.087C112.603 162.867 112.424 162.512 112.395 162.099H113.308C113.32 162.229 113.379 162.418 113.473 162.53C113.603 162.678 113.781 162.703 113.918 162.703C114.054 162.703 114.225 162.678 114.357 162.538C114.45 162.436 114.499 162.284 114.499 162.146C114.499 161.985 114.434 161.857 114.344 161.78C114.208 161.66 114.017 161.66 113.889 161.66H113.834L113.918 161.032H113.977C114.125 161.032 114.302 161.014 114.426 160.924C114.525 160.847 114.602 160.711 114.602 160.546C114.602 160.382 114.525 160.286 114.46 160.233C114.383 160.168 114.277 160.126 114.129 160.126C114.003 160.126 113.875 160.162 113.773 160.262C113.686 160.355 113.625 160.498 113.609 160.622L112.735 160.624Z" fill="white"/>
<path d="M77.8177 138.172C78.2811 138.172 78.738 138.215 79.0998 138.607C79.2664 138.78 79.4476 139.09 79.4476 139.592C79.4476 140.048 79.289 140.411 79.0492 140.649C78.8378 140.852 78.5489 140.989 78.2786 141.041L79.5245 143.005H78.2201L77.0556 141.1L76.8239 143.005H75.708L76.3014 138.174L77.8177 138.172ZM77.1429 140.367H77.4173C77.5982 140.367 77.8747 140.344 78.0698 140.192C78.2649 140.039 78.3154 139.83 78.3154 139.627C78.3154 139.475 78.2787 139.279 78.0836 139.158C77.9373 139.064 77.7279 139.042 77.4739 139.042H77.3076L77.1429 140.367Z" fill="white"/>
<path d="M80.6403 141.59C80.6322 141.75 80.685 141.951 80.7703 142.075C80.9085 142.264 81.1038 142.299 81.2705 142.299C81.3944 142.299 81.5527 142.293 81.6828 142.205C81.7763 142.14 81.8659 142.016 81.9085 141.915L82.9594 142.002C82.8294 142.327 82.6057 142.632 82.372 142.807C82.0021 143.081 81.5607 143.112 81.264 143.112C80.8657 143.112 80.3863 143.061 80.0043 142.677C79.6933 142.366 79.5979 141.982 79.5979 141.547C79.5979 140.838 79.8884 140.366 80.1546 140.112C80.5448 139.742 81.0328 139.663 81.4352 139.663C81.986 139.663 82.3984 139.838 82.6444 140.076C83.0793 140.504 83.0934 141.206 83.0507 141.59H80.6403ZM82.0529 140.953C82.0387 140.801 81.9614 140.628 81.8435 140.533C81.7277 140.439 81.5469 140.403 81.4168 140.403C81.1628 140.403 81.01 140.511 80.9246 140.6C80.8454 140.687 80.7725 140.809 80.744 140.956H82.0529V140.953Z" fill="white"/>
<path d="M85.0002 139.773L84.6018 143.005H83.5593L83.9577 139.773H85.0002ZM84.6162 137.788C84.9556 137.788 85.2235 138.056 85.2235 138.395C85.2235 138.735 84.9556 139.003 84.6162 139.003C84.2768 139.003 84.0064 138.735 84.0064 138.395C84.0064 138.056 84.2768 137.788 84.6162 137.788Z" fill="white"/>
<path d="M87.215 137.722L86.5626 143.002H85.5201L86.1721 137.722H87.215Z" fill="white"/>
<path d="M90.2431 139.773H91.2856L90.8871 143.005H89.8447L89.9241 142.635C89.8082 142.773 89.6413 142.917 89.4686 142.996C89.243 143.098 88.9912 143.112 88.8692 143.112C88.4689 143.112 88.1515 143.011 87.869 142.714C87.6312 142.46 87.4343 142.084 87.4343 141.527C87.4343 140.934 87.6438 140.454 87.9568 140.137C88.2901 139.796 88.6965 139.666 89.1456 139.666C89.3346 139.666 89.5639 139.688 89.7733 139.789C89.8972 139.846 90.072 139.964 90.2163 140.165L90.2431 139.773ZM88.7492 140.802C88.6049 140.946 88.5031 141.178 88.5031 141.448C88.5031 141.716 88.6129 141.889 88.7124 141.999C88.8669 142.159 89.0518 142.216 89.2652 142.216C89.5619 142.216 89.7509 142.1 89.8586 141.999C90.0476 141.818 90.1355 141.543 90.1355 141.303C90.1355 141.072 90.0479 140.869 89.9097 140.747C89.8162 140.659 89.6474 140.566 89.3649 140.566C89.1048 140.562 88.9097 140.641 88.7492 140.802Z" fill="white"/>
<path d="M94.4273 140.821C94.34 140.742 94.0881 140.547 93.702 140.547C93.3402 140.547 93.1449 140.722 93.0738 140.793C92.9133 140.968 92.8342 141.22 92.8342 141.437C92.8342 141.697 92.9358 141.886 93.0679 142.01C93.2284 142.163 93.4156 142.228 93.631 142.228C93.9135 142.228 94.139 142.104 94.2914 141.968L94.1753 142.923C93.8359 143.09 93.5515 143.112 93.3219 143.112C92.8931 143.112 92.5314 143.018 92.1981 142.663C91.9359 142.38 91.7629 141.996 91.7629 141.496C91.7629 140.974 91.9438 140.511 92.271 140.177C92.5454 139.895 92.9725 139.663 93.6107 139.663C93.9379 139.663 94.2424 139.72 94.5534 139.872L94.4273 140.821Z" fill="white"/>
<path d="M99.5869 139.352C99.2821 139.078 98.9937 139.004 98.7762 139.004C98.64 139.004 98.4427 139.025 98.3207 139.128C98.2191 139.208 98.156 139.346 98.156 139.476C98.156 139.62 98.2191 139.722 98.3207 139.801C98.4223 139.889 98.5543 139.945 98.7921 140.055L99.0749 140.185C99.3066 140.293 99.522 140.417 99.711 140.649C99.8858 140.866 99.9566 141.092 99.9566 141.403C99.9566 141.909 99.7559 142.358 99.4713 142.64C99.0811 143.024 98.5808 143.112 98.089 143.112C97.7334 143.112 97.4511 143.069 97.126 142.894C96.8882 142.764 96.6542 142.569 96.4814 142.38L97.1056 141.583C97.2052 141.722 97.3657 141.872 97.51 141.968C97.6645 142.061 97.8658 142.128 98.0751 142.128C98.2418 142.128 98.4733 142.077 98.6115 141.976C98.7416 141.874 98.8149 141.707 98.8149 141.527C98.8149 141.352 98.7354 141.25 98.6785 141.193C98.6419 141.159 98.5485 141.077 98.2944 140.976L98.0121 140.86C97.9329 140.832 97.5646 140.671 97.3309 140.431C97.0992 140.193 97.0138 139.917 97.0138 139.612C97.0138 139.112 97.2153 138.75 97.449 138.519C97.8392 138.135 98.3393 138.063 98.7519 138.063C99.1645 138.063 99.6441 138.143 100.15 138.541L99.5869 139.352Z" fill="white"/>
<path d="M101.957 137.722L101.652 140.126C101.797 139.974 101.943 139.881 102.05 139.822C102.284 139.698 102.469 139.683 102.711 139.683C102.965 139.683 103.282 139.72 103.528 139.958C103.782 140.204 103.802 140.531 103.802 140.726C103.802 140.834 103.796 140.994 103.752 141.342L103.554 143H102.512L102.684 141.602C102.729 141.269 102.729 141.132 102.729 141.08C102.729 140.956 102.709 140.805 102.599 140.69C102.483 140.574 102.325 140.551 102.229 140.551C102.04 140.551 101.882 140.588 101.744 140.726C101.555 140.915 101.51 141.232 101.49 141.407L101.301 143H100.258L100.911 137.72H101.957V137.722Z" fill="white"/>
<path d="M105.581 139.773L105.183 143.005H104.14L104.539 139.773H105.581ZM105.199 137.788C105.538 137.788 105.807 138.056 105.807 138.395C105.807 138.735 105.538 139.003 105.199 139.003C104.86 139.003 104.589 138.735 104.589 138.395C104.589 138.056 104.86 137.788 105.199 137.788Z" fill="white"/>
<path d="M108.747 139.773H109.789L109.383 143.019C109.332 143.395 109.238 143.852 108.897 144.191C108.47 144.618 107.86 144.663 107.482 144.663C107.049 144.663 106.586 144.589 106.231 144.256C106.005 144.039 105.832 143.72 105.781 143.372H106.895C106.925 143.488 106.996 143.612 107.09 143.691C107.206 143.785 107.373 143.821 107.545 143.821C107.864 143.821 108.037 143.677 108.118 143.581C108.249 143.429 108.315 143.177 108.336 142.98L108.378 142.632C108.09 143.045 107.677 143.088 107.387 143.088C107.059 143.088 106.72 143.051 106.387 142.703C106.161 142.472 105.952 142.102 105.952 141.531C105.952 140.966 106.149 140.474 106.481 140.133C106.792 139.814 107.169 139.661 107.639 139.661C107.864 139.661 108.32 139.69 108.704 140.161L108.747 139.773ZM107.271 140.779C107.125 140.923 107.031 141.192 107.031 141.431C107.031 141.635 107.104 141.858 107.249 141.996C107.379 142.12 107.588 142.191 107.769 142.191C107.966 142.191 108.198 142.126 108.342 141.982C108.503 141.83 108.61 141.533 108.61 141.295C108.61 141.092 108.525 140.883 108.401 140.767C108.299 140.665 108.133 140.572 107.844 140.572C107.551 140.57 107.371 140.677 107.271 140.779Z" fill="white"/>
<path d="M112.788 139.773H113.83L113.432 143.005H112.389L112.468 142.635C112.353 142.773 112.186 142.917 112.013 142.996C111.788 143.098 111.536 143.112 111.414 143.112C111.014 143.112 110.696 143.011 110.414 142.714C110.176 142.46 109.979 142.084 109.979 141.527C109.979 140.934 110.188 140.454 110.499 140.137C110.832 139.796 111.239 139.666 111.688 139.666C111.877 139.666 112.107 139.688 112.318 139.789C112.442 139.846 112.617 139.964 112.761 140.165L112.788 139.773ZM111.294 140.802C111.15 140.946 111.048 141.178 111.048 141.448C111.048 141.716 111.158 141.889 111.257 141.999C111.412 142.159 111.599 142.216 111.81 142.216C112.107 142.216 112.296 142.1 112.403 141.999C112.592 141.818 112.68 141.543 112.68 141.303C112.68 141.072 112.593 140.869 112.454 140.747C112.361 140.659 112.192 140.566 111.91 140.566C111.652 140.562 111.455 140.641 111.294 140.802Z" fill="white"/>
<path d="M119.232 139.113H117.667L117.551 140.048H119L118.882 140.989H117.433L117.179 143.003H116.065L116.665 138.172H119.343L119.232 139.113Z" fill="white"/>
<path d="M123.163 142.85C123.002 142.929 122.612 143.11 121.99 143.11C121.079 143.11 120.549 142.717 120.287 142.465C119.976 142.155 119.635 141.632 119.635 140.793C119.635 139.952 119.953 139.265 120.403 138.815C120.809 138.409 121.454 138.062 122.338 138.062C123.083 138.062 123.532 138.307 123.707 138.409L123.569 139.59C123.374 139.393 123.004 139.104 122.36 139.104C121.897 139.104 121.519 139.228 121.216 139.561C120.919 139.88 120.781 140.315 120.781 140.697C120.781 141.104 120.941 141.472 121.159 141.689C121.376 141.907 121.738 142.065 122.179 142.065C122.658 142.065 123.041 141.864 123.309 141.646L123.163 142.85Z" fill="white"/>
</svg>
