<svg id="Layer_1" data-name="Layer 1" width="240" height="240" xmlns="http://www.w3.org/2000/svg" viewBox="0 0 240 240"><defs><style>.cls-1{fill:#fff;}.cls-2{fill:#005ca9;}.cls-3{fill:#00a13a;}.cls-4{fill:#ffed00;}</style></defs><path d="M189.46,138.64v-.12l-.15-11.37a.54.54,0,0,0-.29-.45.51.51,0,0,0-.52,0l-9.15,6.75-3.64,2.69-1.64-1.48-1.61-1.44c10.07-17,15.18-33.43,15.18-48.78,0-15-2.27-26.67-6.95-35.75l-3-5.83a.53.53,0,0,0-.31-.26.51.51,0,0,0-.4.05L171.29,46a38.28,38.28,0,0,1-19,4.92c-10.81,0-20.72-4.2-27.19-11.51l-4.7-5.32a.5.5,0,0,0-.38-.17.52.52,0,0,0-.38.17l-4.7,5.32c-6.47,7.31-16.38,11.51-27.19,11.51a38.3,38.3,0,0,1-19-4.92L63,42.7a.51.51,0,0,0-.4-.05.53.53,0,0,0-.31.26l-3,5.83c-4.67,9.08-7,20.77-7,35.75,0,15.35,5.11,31.76,15.18,48.78l-1.61,1.44-1.64,1.48-3.64-2.69-4.58-3.38-3.14-2.32c-1.68-1.23-1.68-1.23-2-1.09a.49.49,0,0,0-.27.45l-.16,11.36v.84a69.41,69.41,0,0,0,9.38,34.89l2.83,4.86a.52.52,0,0,0,.68.2l2.22-1.19a66.77,66.77,0,0,0,108.72,0l2.22,1.19a.52.52,0,0,0,.68-.2l2.83-4.86a69.4,69.4,0,0,0,9.38-34.88Z"/><path class="cls-1" d="M188.45,138.65v-.12l-.14-10.38L180,134.31l-4,2.93a.5.5,0,0,1-.64,0l-1.94-1.74-1.92-1.72a.49.49,0,0,1-.09-.63c10.11-17,15.24-33.35,15.24-48.63,0-14.81-2.24-26.35-6.84-35.28L177,43.84l-5.24,3a39.34,39.34,0,0,1-19.52,5c-11.1,0-21.28-4.32-27.94-11.85L120,35.15,115.67,40C109,47.57,98.83,51.89,87.73,51.89a39.36,39.36,0,0,1-19.52-5l-5.24-3-2.76,5.37c-4.6,8.92-6.83,20.47-6.83,35.28,0,15.28,5.12,31.64,15.23,48.63a.49.49,0,0,1-.09.63l-1.92,1.72-1.94,1.74a.5.5,0,0,1-.64,0l-4-2.93-8.36-6.16c0,2.76-.14,10.38-.14,10.38v.84a68.41,68.41,0,0,0,9.25,34.37l2.58,4.44L65.55,177a.51.51,0,0,1,.65.15,65.77,65.77,0,0,0,107.6,0,.51.51,0,0,1,.65-.15l2.18,1.16c.69-1.17,2.58-4.44,2.58-4.44a68.38,68.38,0,0,0,9.25-34.37Z"/><path class="cls-2" d="M71.13,149.17a50.32,50.32,0,0,1-1-9.73l-5.48,4.91-7.8-5.75c0,.26,0,.51,0,.77a62.89,62.89,0,0,0,8.52,31.69l2.41-1.28a60,60,0,0,1-7.14-19.05Z"/><path class="cls-2" d="M183.13,139.37c0-.26,0-.51,0-.77l-7.79,5.75-5.49-4.91a50.32,50.32,0,0,1-1,9.73l10.47,1.56a60,60,0,0,1-7.14,19.05l2.41,1.28A62.89,62.89,0,0,0,183.13,139.37Z"/><path class="cls-3" d="M168.87,149.17l-4.48-.66a45.32,45.32,0,0,1-88.77,0l-4.49.66-10.47,1.56a60.42,60.42,0,0,0,118.68,0Z"/><path class="cls-1" d="M68.05,157.53c-.64.22-1.08.36-1.23,1.07l0,0L66,156.38h0c.41.49,1.21.15,1.72,0l5-1.71-.33-1a2.07,2.07,0,0,0-.91-1.19v0l1.48-.06v0a2.53,2.53,0,0,0,.06.46l.1.28,1.42,4.2a1.34,1.34,0,0,0,.26.49v0l-1.46.09v0c.34-.28.24-.75.12-1.12l-.35-1Z"/><path class="cls-1" d="M75.49,167.68a4.25,4.25,0,0,1-5.75-1.92A4.17,4.17,0,0,1,71.37,160a4.24,4.24,0,0,1,5.71,2,4.11,4.11,0,0,1-1.59,5.65m-3.39-6.54a3.23,3.23,0,0,0-1.57,4.27,2.89,2.89,0,0,0,4.12,1.18,3.16,3.16,0,0,0,1.63-4.23A2.94,2.94,0,0,0,72.1,161.14Z"/><path class="cls-1" d="M82.1,172.42a4.15,4.15,0,0,0-.81-2.16,2.75,2.75,0,0,0-4-.42,3.14,3.14,0,0,0-.77,4.43,5.43,5.43,0,0,0,2.15,1.55l0,0-1.47.37A4.21,4.21,0,0,1,75.81,175c-1.72-2.22-1.54-4.56.48-6.12a3.94,3.94,0,0,1,5.8.8,9.44,9.44,0,0,1,1.09,1.9Z"/><path class="cls-1" d="M82.58,176.59l-1.47,1.58c-.36.39-1,1-.72,1.55l0,0-1.66-1.54,0,0c.59.24,1.12-.44,1.49-.84l3.06-3.3c.36-.39,1-1,.73-1.55l0,0L85.69,174l0,0c-.6-.23-1.13.45-1.51.85l-1,1.09,3.15,2.92,1-1.08c.37-.4,1-1,.73-1.56l0,0,1.66,1.55,0,0c-.6-.25-1.14.44-1.5.83l-3.06,3.31c-.37.39-1,1-.72,1.56l0,0L82.75,182l0,0c.6.25,1.13-.44,1.5-.84l1.46-1.58Z"/><path class="cls-1" d="M90.14,180c.32-.45.9-1.1.54-1.64l0,0,1.83,1.32,0,0c-.61-.16-1.07.59-1.38,1l-2.62,3.64c-.31.44-.88,1.1-.53,1.63l0,0-1.83-1.32,0,0c.61.18,1.06-.58,1.37-1Z"/><path class="cls-1" d="M98.52,184.74l0,0A2.92,2.92,0,0,0,97,183.08a3.06,3.06,0,0,0-4.38,1.17A3.34,3.34,0,0,0,94,188.84a5.79,5.79,0,0,0,1.56.6l.83-1.5c.26-.48.53-1,.17-1.45v0l1.6.88,0,0a1.67,1.67,0,0,0-.3.42l-1.31,2.4a1.37,1.37,0,0,0-.21.5,15.75,15.75,0,0,1-2.67-1.05c-2.67-1.47-3.45-3.8-2.3-5.9s3.79-2.66,6.32-1.28a9.68,9.68,0,0,1,1.54,1.08Z"/><path class="cls-1" d="M100.7,186c.2-.51.6-1.29.12-1.72v0l2.1.84v0c-.64,0-.9.83-1.1,1.33l-1.67,4.17c-.2.5-.59,1.28-.12,1.71v0l-2.1-.84v0c.64,0,.9-.83,1.1-1.32Z"/><path class="cls-1" d="M111.86,188.9a2.7,2.7,0,0,0-1.68-1.11c-.67-.14-1.56,0-1.72.75-.33,1.6,3.69,2.4,3.25,4.56-.26,1.24-1.8,2.14-3.62,1.77a5.93,5.93,0,0,1-2-.78l0-1.52a4.19,4.19,0,0,0,2.36,1.49c.66.13,1.75-.06,1.91-.87.38-1.82-3.7-2.32-3.2-4.79.3-1.47,1.92-1.72,3.34-1.43a5.89,5.89,0,0,1,1.69.61Z"/><path class="cls-1" d="M122.24,192.06a4.25,4.25,0,0,1-4.54,4,4.18,4.18,0,0,1-4.18-4.31,4.22,4.22,0,0,1,4.62-3.91,4.11,4.11,0,0,1,4.1,4.2m-7.36-.34a3.22,3.22,0,0,0,2.91,3.5,2.89,2.89,0,0,0,3.09-3,3.18,3.18,0,0,0-2.86-3.54A2.93,2.93,0,0,0,114.88,191.72Z"/><path class="cls-1" d="M129.57,188.75a4.18,4.18,0,0,0-2.28-.39,2.74,2.74,0,0,0-2.38,3.27,3.13,3.13,0,0,0,3.43,2.9,5.27,5.27,0,0,0,2.42-1.08h0l-.42,1.45a4.27,4.27,0,0,1-1.74.58c-2.79.37-4.72-1-5-3.5a3.94,3.94,0,0,1,3.62-4.6,10,10,0,0,1,2.19,0Z"/><path class="cls-1" d="M137,186.73a4.12,4.12,0,0,0-2.31,0,2.73,2.73,0,0,0-1.86,3.59,3.13,3.13,0,0,0,3.83,2.34,5.26,5.26,0,0,0,2.23-1.43l0,0-.2,1.5a4.18,4.18,0,0,1-1.63.85c-2.7.78-4.81-.24-5.52-2.69a4,4,0,0,1,2.87-5.11,9.31,9.31,0,0,1,2.16-.31Z"/><path class="cls-1" d="M142.13,190.35l1.44-.49a3,3,0,0,0,1.72-1.55l0,0,.16,1.65L141,192v0c.46-.45,0-1.22-.19-1.71l-1.85-4.09c-.23-.5-.52-1.32-1.17-1.28l0,0,3.48-1.58a1.13,1.13,0,0,0,.48-.28l0,0,.58,1.27,0,0a1.69,1.69,0,0,0-1.48.14,7.75,7.75,0,0,0-1.07.58l.91,2,1.29-.59a1,1,0,0,0,.45-.28h0l.53,1.15h0c-.31-.23-.76,0-1.1.14l-.8.36Z"/><path class="cls-1" d="M145.92,180.64c1.35-.85,2.53-.6,3.1.32a2.31,2.31,0,0,1-.49,2.78l2.6.92a8.55,8.55,0,0,0,2.52.38l-.93.59a1.56,1.56,0,0,1-1.49.22l-2.18-.75-1.82-.84c.73-.63,1.43-1.59.84-2.54a1.36,1.36,0,0,0-2-.3,5.11,5.11,0,0,0-.64.51l2.83,4.52c.29.46.69,1.24,1.32,1.1l0,0-1.93,1.21,0,0c.41-.51-.13-1.21-.42-1.66l-2.38-3.81c-.29-.46-.68-1.24-1.32-1.11l0,0Z"/><path class="cls-1" d="M157.42,173a4.23,4.23,0,0,0-2,1.07,2.73,2.73,0,0,0,.08,4,3.12,3.12,0,0,0,4.48.23A5.25,5.25,0,0,0,161.2,176l0,0,.54,1.41a4.36,4.36,0,0,1-1,1.52c-2,2-4.34,2.07-6.13.26a4,4,0,0,1,.09-5.85,10.11,10.11,0,0,1,1.75-1.31Z"/><path class="cls-1" d="M164.81,172.48a2.92,2.92,0,0,0,.7-2.12l0,0,.88,1.46-3,3.89,0,0c.2-.61-.55-1.09-1-1.41l-3.57-2.72c-.44-.33-1.08-.92-1.63-.57l0,0,1.38-1.81,0,0c-.19.62.56,1.09,1,1.41l4.12,3.15Z"/><path class="cls-1" d="M169.85,164.48a3.23,3.23,0,0,1-2,4,3.1,3.1,0,0,1-2.35-.59l-2.79-1.52c-.47-.26-1.19-.75-1.68-.33l0,0,1.09-2,0,0c-.09.63.71,1,1.18,1.24l2.79,1.52c1.39.76,2.35.53,2.94-.54a2.09,2.09,0,0,0,.1-1.93,1.55,1.55,0,0,0-.83-.74l-3.14-1.72c-.47-.25-1.2-.73-1.68-.32l0,0,1.08-2h0c-.09.64.7,1,1.18,1.25l3.94,2.16c.47.25,1.2.73,1.69.31l0,0-.84,1.53Z"/><path class="cls-1" d="M166.65,158.61c-.5-.19-1.29-.56-1.71-.06h0l1-2.66c.52-1.48,1.46-2.12,2.46-1.77a1.68,1.68,0,0,1,1.06,1.65,2.17,2.17,0,0,1,2.64-1.12,2.38,2.38,0,0,1,1.48,2,6,6,0,0,1-.55,2.64l-.66,1.85h0c0-.63-.86-.86-1.37-1l-4.24-1.51m5.77-.34a1.59,1.59,0,0,0-.74-2.35c-1.09-.39-1.94.5-2.24,1.5l-.23.81,2.77,1,.44-.95m-3.82-.68c.26-.73.38-1.86-.54-2.19a1.25,1.25,0,0,0-1.6,1l-.19.78,2.2.78Z"/><path class="cls-2" d="M129.51,148.74c0-10.29,6.88-17.48,16.73-17.48a33,33,0,0,1,8.15,1.19l1.47.37v10.41l-3.05-2.08a12,12,0,0,0-6.69-2.24,7.42,7.42,0,0,0-5.35,2.12,9.84,9.84,0,0,0-2.55,7,11.63,11.63,0,0,0,3.13,8.25,7.72,7.72,0,0,0,3.84,2.14c16.74-18.61,35.66-45.85,35.66-74,0-14.41-2.23-24.94-6.19-32.64a45.1,45.1,0,0,1-22.39,5.82c-13.16,0-24.85-5.42-32.27-13.8-7.42,8.38-19.11,13.8-32.27,13.8a45.1,45.1,0,0,1-22.39-5.82c-4,7.7-6.19,18.23-6.19,32.64,0,28.26,19.12,55.65,35.93,74.27a14.81,14.81,0,0,0,2.86.31c2,0,5-1.1,5-2.74,0-1.81-2.35-2.92-6.23-4.52C92,149.86,86.17,147.44,86.17,141c0-6,5.58-9.81,14.21-9.81a28.19,28.19,0,0,1,7.82,1.07l1.41.41v11.11l-3.3-3.13a9.62,9.62,0,0,0-6.32-2.3,6,6,0,0,0-3.94,1.12,1.35,1.35,0,0,0-.4,1c0,1.56,3.32,3,6.26,4.21,4.69,2,10.53,4.45,10.53,10.23a9.72,9.72,0,0,1-3,6.81,15.59,15.59,0,0,1-7.74,4A212.1,212.1,0,0,0,120,182.55a213.37,213.37,0,0,0,19.32-17.8,15.66,15.66,0,0,1-5.06-3.34C131.15,158.3,129.51,153.92,129.51,148.74Z"/><polygon class="cls-3" points="120 48.43 118.67 61.34 121.33 61.34 120 48.43"/><path class="cls-3" d="M114.67,84.1l1.16-.44-.32-6-4.42-10a3.29,3.29,0,0,0-1.72.74,3.81,3.81,0,0,1-.66.53h-.08l2.18,10.21,3.86,6Z"/><path class="cls-3" d="M107.27,62.49a7.8,7.8,0,0,1,.51-1.39h.37l-2.36-5.31,1.46,6.78Z"/><path class="cls-3" d="M90,58.19l9.49,16.38a36.41,36.41,0,0,1,6.83,4.82,31.33,31.33,0,0,1,3.31,3.42L107.76,78Z"/><polygon class="cls-3" points="134.21 55.79 131.85 61.1 133.07 61.1 134.21 55.79"/><path class="cls-3" d="M125.25,84.43v.87l3.93-6.08L131.37,69h-.81a11.92,11.92,0,0,1-1.33-.05l-.41-1-4.32,9.75-.33,6,.12.08A5.5,5.5,0,0,1,125.25,84.43Z"/><path class="cls-3" d="M149.07,91.17a8.41,8.41,0,0,1-.62,1.48l20.13-8.92-18.43,4q-.75.6-1.56,1.17A2.39,2.39,0,0,1,149.07,91.17Z"/><path class="cls-3" d="M143.7,97.21a18.6,18.6,0,0,1-5.62,2,26.8,26.8,0,0,0-3.29.82l7.34,2L166,99.51Z"/><path class="cls-3" d="M130.38,82.83a30.69,30.69,0,0,1,3.32-3.44,36.41,36.41,0,0,1,6.83-4.82L150,58.19,132.24,78Z"/><path class="cls-3" d="M90.93,91.17a2.39,2.39,0,0,1,.48-2.32q-.81-.57-1.56-1.17l-18.43-4,20.13,8.92A8.41,8.41,0,0,1,90.93,91.17Z"/><path class="cls-3" d="M149.19,139.39l-.61-.17,1.44,1.61Z"/><path class="cls-3" d="M128.41,111.08l3.83,9.94,9.66,10.76a18.6,18.6,0,0,1,2.62-.44l-7.85-13.54Z"/><path class="cls-3" d="M131.52,107.5c-.12.17-.24.33-.37.48l5.31,6.54,20.73,12-17.83-16Z"/><path class="cls-3" d="M128,117.91v2.65l-3-1.89a5.93,5.93,0,0,0-.65-.36l.16,3,1.62,3.65.09,0a3.58,3.58,0,0,1,.52-.26h3.48L129,127.38l-.83,1.88a1,1,0,0,0-.08.19l4.1,9.25a12.84,12.84,0,0,1,.79-1.14l-3.8-17.76Z"/><polygon class="cls-3" points="133.6 103.93 142.54 109.72 168.58 115.3 144.24 104.51 133.6 103.93"/><path class="cls-3" d="M120.83,132.53v-.62a13.68,13.68,0,0,1-1.62-.27v.94l-.87.33c0,.25,0,.6,0,.81v.66l0,.2h3.32l.06-.57v-.32a6.94,6.94,0,0,0,0-.78A5.78,5.78,0,0,1,120.83,132.53Z"/><polygon class="cls-3" points="119.2 142.88 120.8 142.88 121.11 139.9 118.89 139.9 119.2 142.88"/><path class="cls-3" d="M119.1,118.59a3.51,3.51,0,0,0-.61.89l-.42,1.57c0,.15,0,.3,0,.46a5,5,0,0,0,1.37,3.54,3.74,3.74,0,0,0,2.71,1.11l.41,0,.21-2L121,117.67A3.4,3.4,0,0,0,119.1,118.59Z"/><path class="cls-3" d="M107.76,121l3.83-9.94-8.26,6.72-8.07,13.91a22.49,22.49,0,0,1,3.32-.47Z"/><path class="cls-3" d="M100.64,110.53l-17.83,16,20.73-12,5.31-6.54c-.13-.15-.25-.31-.37-.48Z"/><polygon class="cls-3" points="106.4 103.93 95.76 104.5 71.42 115.3 97.46 109.72 106.4 103.93"/><path class="cls-3" d="M105.21,100a28.74,28.74,0,0,0-3.29-.82,18.6,18.6,0,0,1-5.62-2L74,99.51,97.87,102Z"/><path class="cls-3" d="M114,115a8.84,8.84,0,0,1,2-1.65l0-.49-.53-.17Z"/><polygon class="cls-3" points="105.79 143.23 106.75 141.06 106.34 140.67 105.79 143.23"/><path class="cls-3" d="M109.61,132.66v2l3.26-7.35a10.43,10.43,0,0,1-1.41-5.41,11.11,11.11,0,0,1,.91-4.47l-1.55,2.41-2.67,12.44h0Z"/><path class="cls-3" d="M107.66,139.23a11.61,11.61,0,0,0-7.67-2.85c-2.78,0-6.3,1-6.3,4.11,0,6.18,16.8,6.09,16.8,14.44,0,4.83-5.47,9.34-13.09,9.34a27.39,27.39,0,0,1-8.74-1.35l-1.41-5.64A17.72,17.72,0,0,0,97.94,161c2.78,0,7-1.53,7-4.69,0-7-16.79-5.78-16.79-15.34,0-5.69,6.29-7.86,12.25-7.86a26.37,26.37,0,0,1,7.28,1Z"/><path class="cls-3" d="M153.91,139.53a14,14,0,0,0-7.79-2.57c-5.81,0-9.86,4.56-9.86,11.1s4.21,12.55,10.7,12.55a17.61,17.61,0,0,0,9-2.85h.13L153.91,163a14.11,14.11,0,0,1-6.36,1.35c-9.94,0-16.09-5.95-16.09-15.61,0-9.34,6.15-15.53,14.78-15.53a31.6,31.6,0,0,1,7.67,1.13Z"/><path class="cls-4" d="M131,90.7a25.27,25.27,0,0,1,9.7-7.83c10.73-4.55,14.41-9.3,19-16.82.75-1.22.28-1.63-.89-.64C147.49,75,142.71,74,135,80.84a29.76,29.76,0,0,0-6.18,7.65,12.77,12.77,0,0,1,1,.92A15.22,15.22,0,0,1,131,90.7Z"/><path class="cls-4" d="M140.44,91c6.8-2.74,12.84-7.34,14.64-13.29.29-1,.2-1.27-.5-.59-6.81,6.55-11.38,7.08-16.93,10.66a29.09,29.09,0,0,0-5.52,4.64,13.91,13.91,0,0,1,1.09,2.5A37.45,37.45,0,0,1,140.44,91Z"/><path class="cls-4" d="M137.73,97.3c4.15-.76,8.42-3.14,9.48-6.69.17-.57-.26-.75-.68-.42-3.89,3-6,3.14-9.56,4.48a15.67,15.67,0,0,0-3.35,1.81,13.42,13.42,0,0,1,.23,1.8A28.58,28.58,0,0,1,137.73,97.3Z"/><path class="cls-4" d="M111.21,88.51A29.67,29.67,0,0,0,105,80.84C97.29,74,92.51,75,81.19,65.41c-1.17-1-1.64-.58-.89.64,4.64,7.52,8.32,12.27,19,16.82a25.13,25.13,0,0,1,9.7,7.84A13.62,13.62,0,0,1,111.21,88.51Z"/><path class="cls-4" d="M102.35,87.82c-5.55-3.58-10.12-4.11-16.93-10.66-.7-.68-.79-.37-.5.59,1.8,6,7.84,10.55,14.64,13.29A37.77,37.77,0,0,1,106.79,95a13.24,13.24,0,0,1,1.09-2.5A29.85,29.85,0,0,0,102.35,87.82Z"/><path class="cls-4" d="M103,94.67c-3.53-1.34-5.67-1.43-9.56-4.48-.42-.33-.85-.15-.68.42,1.06,3.55,5.33,5.93,9.48,6.69a28.58,28.58,0,0,1,3.88,1,13.07,13.07,0,0,1,.24-1.79A16.24,16.24,0,0,0,103,94.67Z"/><path class="cls-1" d="M122.12,128.09c-3.65,0-6-3.1-6-6.58s2.27-5.83,5.54-5.83A8.19,8.19,0,0,1,126,117v-2.72a18.89,18.89,0,0,0-4.31-.59c-4.85,0-8.31,3.24-8.31,8.14,0,5.07,3.46,8.2,9,8.2a8.38,8.38,0,0,0,3.57-.71l1.21-2.75h-.07A10.46,10.46,0,0,1,122.12,128.09Z"/><path class="cls-1" d="M122.77,131.24c1,.38.88,1.85.88,2.78v2.49h-7.26V134c0-.93-.12-2.4.88-2.78v-.06h-3.82v.06c1,.38.88,1.85.88,2.76v7.61c0,.9.12,2.37-.88,2.76v.06h3.82v-.06c-1-.39-.88-1.86-.88-2.76V138h7.26v3.65c0,.9.14,2.37-.88,2.76v.06h3.84v-.06c-1-.39-.9-1.86-.9-2.76V134c0-.91-.12-2.38.9-2.76v-.06h-3.84Z"/><path class="cls-1" d="M118.45,156v.05h3.25V156c-.85-.32-.75-1.57-.75-2.34v-6.45c0-.77-.1-2,.75-2.37v-.05h-3.25v.05c.87.33.75,1.58.75,2.37v6.45C119.2,154.46,119.31,155.73,118.45,156Z"/><path class="cls-1" d="M122.58,162.05c.66.26.67,1,.67,1.65v2.09a7.3,7.3,0,0,1-2,.28,4.1,4.1,0,0,1-4.16-4.12,3.75,3.75,0,0,1,4-3.83,3.56,3.56,0,0,1,2.59.88h0v-1.68a10.9,10.9,0,0,0-2.28-.24c-3.52,0-6,1.95-6,5.07,0,2.93,2.2,5,5.92,5a18.6,18.6,0,0,0,3.48-.43,1.64,1.64,0,0,1-.07-.66v-3.34a1.82,1.82,0,0,1,.07-.63v0h-2.23Z"/><path class="cls-1" d="M119,168.12c.63.23.55,1.14.55,1.7v4.67c0,.55.07,1.47-.55,1.69v0h2.35v0c-.62-.24-.54-1.14-.54-1.69v-4.67c0-.55-.08-1.47.54-1.7v0H119Z"/><path class="cls-1" d="M129.83,89.41a13.8,13.8,0,0,0-6.52-3.66v-.31c-1.79-1-1.76-2.37-1.76-4.3V65.71h6.1c1.11,0,2.47.17,2.91,1.36h.1l1.08-4h-.1a3.82,3.82,0,0,1-1.56.24H110.52a5.55,5.55,0,0,1-1.29-.24h-.1l-1.19,4h.11a5.81,5.81,0,0,1,4-1.36h6v15.1c0,1.52.2,4-1.49,4.63v.33a13.89,13.89,0,1,0,13.22,3.64Z"/><path d="M128.66,90.57a12.24,12.24,0,1,0,3.59,8.66A12.17,12.17,0,0,0,128.66,90.57Zm-8,.08,2.82-1.8a10.81,10.81,0,0,1,4.29,2.65,10.2,10.2,0,0,1,1.1,1.28L128,95.9l-4,1.29-3.43-2.49Zm-8.35.85a10.81,10.81,0,0,1,4.29-2.65l2.82,1.8v4L116,97.19l-4-1.29-.81-3.12A10.2,10.2,0,0,1,112.27,91.5Zm-1.13,14.14a11,11,0,0,1-2.08-6.34l2.58-2.13,4.13,1.34,1.2,3.72-2.62,3.6Zm12.18,4a11.06,11.06,0,0,1-6.64,0l-1.22-3.11,2.61-3.6h3.86l2.61,3.6Zm2.33-3.83-2.62-3.6,1.2-3.72,4.13-1.34,2.58,2.13a11,11,0,0,1-2.08,6.34Z"/></svg>
