<svg id="Layer_1" data-name="Layer 1" width="240" height="240" xmlns="http://www.w3.org/2000/svg" viewBox="0 0 240 240"><defs><style>.cls-1{fill:#ea580c;}.cls-2{fill:#fff;}.cls-3{fill:#ed6926;}.cls-4{fill:#fbb800;}.cls-5{fill:#af6d22;}.cls-6{fill:#d1c6ba;}</style></defs><path class="cls-1" d="M120,206.81s32.35-15.58,50.83-46.06c19.94-32.9,15.44-90.17,15.44-90.17L120,33.19,53.73,70.58s-4.5,57.27,15.44,90.17C87.65,191.23,120,206.81,120,206.81"/><path class="cls-2" d="M120,205.84s32-15.42,50.26-45.55c19.72-32.52,15.26-89.15,15.26-89.15L120,34.17l-65.52,37S50,127.77,69.74,160.29C88,190.42,120,205.84,120,205.84"/><path class="cls-1" d="M120,200.83s30.12-14.51,47.33-42.89C185.89,127.31,181.7,74,181.7,74L120,39.17,58.3,74s-4.19,53.32,14.37,84C89.88,186.32,120,200.83,120,200.83"/><path class="cls-3" d="M180.31,73.2,120,39.17,58.3,74s-4.06,51.66,13.52,82.5C98.51,109.6,161.75,80.85,180.31,73.2"/><polygon class="cls-4" points="178.72 75.22 120 46.18 61.28 75.22 120 55.19 178.72 75.22"/><polygon class="cls-2" points="178.72 75.22 120 51.68 61.28 75.22 120 55.19 178.72 75.22"/><path class="cls-4" d="M163.2,121.79c6.22-1.27,10.15-2.29,10.15-2.29s-3.08,23.56-15.32,40.29-38,30.66-38,30.66-25.78-13.94-38-30.66S66.65,119.5,66.65,119.5s3.67,1,9.78,2.27a123,123,0,0,1-13.91-6.4s3.32,27.78,16.51,45.8,41,33,41,33,27.77-15,41-33,16.51-45.8,16.51-45.8a153,153,0,0,1-14.28,6.42"/><path class="cls-2" d="M158,159.79c-12.25,16.72-38,30.66-38,30.66s-25.78-13.94-38-30.66c-9.89-13.5-13.79-31.46-14.93-37.88l-.39-.16S69.73,145.31,82,162s38,30.66,38,30.66,25.78-13.94,38-30.66,15.32-40.29,15.32-40.29l-.39.15c-1.13,6.42-5,24.38-14.93,37.89"/><path class="cls-4" d="M143.61,167.66,138,168.81s2.45-5.16,4.17-9.22,2.34-5.89,2.34-5.89a31.09,31.09,0,0,1-4.3,1.71l-2.47.74L142,143.61s-1.71.62-3.31,1.11l-2,.62s1-2.83,1.72-5.9a45.47,45.47,0,0,1,1.72-5.53s-.87,1.47-5.59,2.21c.42-1.27.69-2.12.76-2.43a36.51,36.51,0,0,1,1.43-4.59s-.8,1.36-5.31,1.94c-2.12.27-4.15.43-5.85.51-2,.1-3.52.11-4.19.11l.17-.64v-.63l-.28-.27.24-.23v-.67l-.22-.22.28-.27V128l-.33-.33.21-.2v-.61l-.28-.29.4-.39v-.34l-.31-.3.29-.29v-.42h-.32l.36-.36v-.55l-.39-.39.27-.27v-.47h-.35l.35-.35v-.47l-.47-.47.16-.16V121l-.3-.29.37-.38v-.59l-.5-.51v-.5l-.41-.41V118l.18-.18v-.44l-.28-.28h-.32l-.28.28v.44l.18.18v.3l-.41.41v.5l-.51.51v.59l.38.38-.3.29v.35l.16.16-.47.47v.47l.35.35h-.35v.47l.27.27-.39.39v.55l.35.36h-.31v.42l.29.29-.31.3v.34l.4.39-.28.29v.61l.2.2-.32.33v.76l.28.27-.22.22v.67l.23.23-.27.27V131l.16.64c-.59,0-1.84,0-3.51-.07-1.82-.08-4.11-.24-6.52-.55-4.51-.58-5.31-1.94-5.31-1.94a36.51,36.51,0,0,1,1.43,4.59c.07.31.34,1.16.76,2.43-4.72-.74-5.59-2.21-5.59-2.21a45.47,45.47,0,0,1,1.72,5.53c.74,3.07,1.72,5.9,1.72,5.9l-2-.62c-1.59-.49-3.31-1.11-3.31-1.11l4.17,12.54s-.36-.12-2.45-.74a30.5,30.5,0,0,1-4.3-1.71s.61,1.83,2.33,5.89,4.17,9.22,4.17,9.22l-5.58-1.15-3.53-1.15,1.56,4,4.41,6,10.29,7.37,10.86,6.49,10.8-6.56,10.79-7.44,3.93-5.88,1.56-4Z"/><path class="cls-5" d="M136.26,161.17A15.76,15.76,0,1,1,120.5,145.4a15.76,15.76,0,0,1,15.76,15.77"/><path class="cls-6" d="M134.76,160.42a14.26,14.26,0,1,1-14.26-14.27,14.26,14.26,0,0,1,14.26,14.27"/><path class="cls-2" d="M132.14,157.79a11.64,11.64,0,1,1-11.64-11.64,11.64,11.64,0,0,1,11.64,11.64"/><polygon class="cls-1" points="114.74 155.87 113.11 158.15 111.15 157.94 112.02 160.27 111.31 162.94 113.38 162.13 115.5 163.65 115.29 160.77 117.19 159.03 115.07 158.31 114.74 155.87"/><polygon class="cls-1" points="108.86 162.18 108.21 164.47 107.23 164.08 108.32 166.54 109.03 168.6 109.68 168.28 111.53 169.85 110.55 167.35 111.58 166.04 109.62 165.01 108.86 162.18"/><polygon class="cls-1" points="119.09 164.25 118.01 166.7 115.29 166.91 117.3 168.88 117.19 170.94 119.26 170.13 121.44 171.06 121.17 168.88 123.13 167.08 120.29 166.81 119.09 164.25"/><path class="cls-1" d="M115.94,148.14s-.55,1.74,4.68,1.74,4.85-1.74,4.85-1.74,6.42,2.39,4,3.81-5.39,1.68-8.49,1.68-7.84-.48-9.31-2,4.3-3.48,4.3-3.48"/><path class="cls-5" d="M120,185.8s10.58-5.49,20-11.5a120.52,120.52,0,0,0,16.54-12.78c-7,8.34-5.83,7.26-14,13.87C133.8,182.53,120,190.45,120,190.45s-13.81-7.92-22.57-15.06c-8.14-6.61-7-5.53-14-13.87A119.77,119.77,0,0,0,100,174.3c9.43,6,20,11.5,20,11.5Z"/><path class="cls-2" d="M106.93,68.71c0-1.34,1.21-1.95,2.38-2s2.64.44,2.68,1.93-1.15,1.94-2.47,2c-.52,0-1.36.18-1.34.86V72l3.92-.11,0,1.1-5.1.15c0-.55,0-1.09-.06-1.65,0-1.45,1.27-1.92,2.51-2,.48,0,1.35-.12,1.33-.85s-.65-1-1.47-1c-.62,0-1.25.36-1.24.92Z"/><path class="cls-2" d="M113.74,69.39a2.77,2.77,0,1,1,5.53,0v.91a2.77,2.77,0,1,1-5.53,0Zm1.18.9a1.59,1.59,0,1,0,3.18,0v-.91a1.59,1.59,0,1,0-3.17,0Z"/><path class="cls-2" d="M121,69.33a2.77,2.77,0,1,1,5.53,0v.91a2.77,2.77,0,1,1-5.53-.05Zm1.17.92a1.59,1.59,0,1,0,3.18,0v-.91a1.59,1.59,0,1,0-3.17,0Z"/><path class="cls-2" d="M129.4,68.69l0,1a1.86,1.86,0,0,1,1.48-.63c1.26,0,2.58.61,2.54,2.17,0,1.4-1.4,2-2.67,2s-2.61-.77-2.57-2.18l.06-2.35c0-1.41,1.36-2,2.66-2s2.57.61,2.53,1.94l-1.19,0c0-.56-.68-.85-1.35-.87s-1.45.33-1.46,1Zm2.81,2.46c0-.69-.6-1.08-1.39-1.1s-1.48.32-1.49,1,.64,1,1.42,1.07,1.44-.3,1.46-1"/><polygon class="cls-2" points="76.56 103.7 78.24 103.7 79.76 106.66 81.28 103.7 82.94 103.7 80.53 108.35 80.53 111.88 78.97 111.88 78.97 108.35 76.56 103.7"/><path class="cls-2" d="M85.47,103.7h1.58l3.15,8.18H88.59L88,110.21H84.6l-.66,1.67H82.32Zm.8,2.19-1.09,2.8h2.18Z"/><polygon class="cls-2" points="92.9 103.7 94.42 103.7 96.33 109.42 98.24 103.7 99.75 103.7 101.13 111.88 99.62 111.88 98.74 106.72 97.01 111.88 95.64 111.88 93.91 106.72 93.01 111.88 91.5 111.88 92.9 103.7"/><path class="cls-2" d="M105.07,103.7h1.57l3.15,8.18h-1.62l-.64-1.68h-3.34l-.67,1.68h-1.61Zm.79,2.18-1.09,2.8H107Z"/><path class="cls-2" d="M117.87,105l-1.09,1.09a3.3,3.3,0,0,0-2.43-1.09,2.84,2.84,0,0,0-2,.79,2.65,2.65,0,0,0-.82,2,2.71,2.71,0,0,0,.85,2,2.88,2.88,0,0,0,2.09.82,2.52,2.52,0,0,0,1.36-.34,2.41,2.41,0,0,0,.9-1.07h-2.37v-1.46h4.11l0,.35a4.07,4.07,0,0,1-.56,2,4,4,0,0,1-1.44,1.46,4.07,4.07,0,0,1-2.07.51,4.64,4.64,0,0,1-2.28-.56,4,4,0,0,1-1.58-1.57,4.37,4.37,0,0,1-.58-2.21,4.14,4.14,0,0,1,1.07-2.83,4.25,4.25,0,0,1,3.31-1.43,5.19,5.19,0,0,1,2,.4,4.65,4.65,0,0,1,1.53,1.13"/><path class="cls-2" d="M119.84,103.7h1.56V109a2.47,2.47,0,0,0,.12,1,.88.88,0,0,0,.4.45,1.14,1.14,0,0,0,.66.18,1.34,1.34,0,0,0,.71-.19,1,1,0,0,0,.41-.48,3.54,3.54,0,0,0,.11-1.12V103.7h1.56v4.87a7.45,7.45,0,0,1-.13,1.72,2.62,2.62,0,0,1-.53.92,2.42,2.42,0,0,1-.91.66,3,3,0,0,1-1.19.22,2.83,2.83,0,0,1-1.55-.42,2.42,2.42,0,0,1-.95-1,5.67,5.67,0,0,1-.28-2.09Z"/><path class="cls-2" d="M135,105.12l-1.09,1a3.38,3.38,0,0,0-2.5-1.18,2.72,2.72,0,0,0-2,.8,2.68,2.68,0,0,0-.81,2,2.93,2.93,0,0,0,.36,1.46,2.6,2.6,0,0,0,1,1,2.75,2.75,0,0,0,1.46.36,3,3,0,0,0,1.23-.25,4.65,4.65,0,0,0,1.23-.92l1,1.1a5.47,5.47,0,0,1-1.71,1.22,4.66,4.66,0,0,1-1.85.35,4.27,4.27,0,0,1-3.12-1.2,4.58,4.58,0,0,1-.66-5.28,4.13,4.13,0,0,1,1.59-1.54,4.51,4.51,0,0,1,2.22-.58,4.44,4.44,0,0,1,2,.44,4.51,4.51,0,0,1,1.61,1.2"/><polygon class="cls-2" points="136.64 103.7 138.22 103.7 138.22 106.77 140.96 106.77 140.96 103.7 142.53 103.7 142.53 111.88 140.96 111.88 140.96 108.28 138.22 108.28 138.22 111.88 136.64 111.88 136.64 103.7"/><rect class="cls-2" x="144.45" y="103.7" width="1.55" height="8.18"/><polygon class="cls-2" points="150.51 103.7 154.56 103.7 154.57 105.2 152.06 105.2 152.06 106.68 154.57 106.67 154.57 108.17 152.06 108.17 152.06 111.88 150.51 111.88 150.51 103.7"/><path class="cls-2" d="M164.31,105.11l-1.1,1a3.37,3.37,0,0,0-2.5-1.17,2.65,2.65,0,0,0-2,.8,2.62,2.62,0,0,0-.8,2,2.91,2.91,0,0,0,.35,1.45,2.53,2.53,0,0,0,1,1,2.81,2.81,0,0,0,1.44.37,3.17,3.17,0,0,0,1.25-.25,4.33,4.33,0,0,0,1.22-.93l1.06,1.1a5.58,5.58,0,0,1-1.71,1.23,4.64,4.64,0,0,1-1.84.35,4.16,4.16,0,0,1-4.35-4.31,4.33,4.33,0,0,1,.56-2.18,4.08,4.08,0,0,1,1.58-1.53,4.45,4.45,0,0,1,2.23-.59,4.87,4.87,0,0,1,3.57,1.65"/><path class="cls-2" d="M118.62,92a8.52,8.52,0,1,1,8.51,8.19A8.36,8.36,0,0,1,118.62,92m5.25.17a6.84,6.84,0,0,0,1.63.65,6.06,6.06,0,0,0-.18,1.45c0,2,.89,3.57,2,3.57s1.95-1.6,1.95-3.57a5.55,5.55,0,0,0-.23-1.68,6.88,6.88,0,0,0,1.4-.59c1.76-1,2.77-2.51,2.24-3.41s-2.42-.82-4.2.17a6.12,6.12,0,0,0-1.4,1,6.33,6.33,0,0,0-1.22-.87c-1.78-1-3.65-1.06-4.19-.16s.46,2.43,2.24,3.41"/><path class="cls-2" d="M76.48,83.58v16.71h4.23V94.82l3,5.47h4.62l-4-7.11A4.57,4.57,0,0,0,87,88.8a5.31,5.31,0,0,0-.8-2.89A4.65,4.65,0,0,0,84,84.09a11.55,11.55,0,0,0-4-.51Zm6.28,4.94a.69.69,0,0,1-.28.64c-.1.06-.35.23-1.77.23V87.68a5.78,5.78,0,0,1,1.56.12.71.71,0,0,1,.36.27.74.74,0,0,1,.13.45"/><polygon class="cls-2" points="100.24 96.26 100.24 100.29 89.93 100.29 89.93 83.56 100.24 83.56 100.24 87.43 94.27 87.44 94.27 90.18 100.24 90.18 100.24 93.73 94.27 93.73 94.27 96.26 100.24 96.26"/><path class="cls-2" d="M111.76,83.56v7.83l-5.36-7.83h-3.73v16.73H107V92.5l5.34,7.79H116V83.56Z"/><polygon class="cls-2" points="142.42 100.29 138.26 100.29 138.26 83.56 147.2 83.56 147.21 87.41 142.41 87.41 142.41 89.63 147.21 89.63 147.21 93.63 142.42 93.63 142.42 100.29"/><path class="cls-2" d="M154.49,83.54l-6.71,16.75h4.57l1.25-3.85h5.13l1.22,3.85h4.57l-6.69-16.75Zm.11,9.91,1.57-4.09,1.56,4.09Z"/></svg>
