<svg width="198" height="80" viewBox="0 0 198 80" fill="none" xmlns="http://www.w3.org/2000/svg">
<path fill-rule="evenodd" clip-rule="evenodd" d="M86.0618 49.2541L84.7061 50.8434C86.8397 53.3568 91.1156 51.9452 91.1156 48.2826V41.9761H92.6064V40.0703H87.527V41.9761H89.0212V48.2081C89.0366 50.0428 87.1303 50.5675 86.0618 49.2541Z" fill="#FFFFFE"/>
<path fill-rule="evenodd" clip-rule="evenodd" d="M123.331 46.2576V49.4734H127.588V47.5287H129.571V51.386H119.858V49.4734H121.344V41.9771H119.858V40.0713H129.571V43.4682H127.588V41.9771H123.331V44.4296H126.606V46.2576H123.331Z" fill="#FFFFFE"/>
<path fill-rule="evenodd" clip-rule="evenodd" d="M153.089 43.3364C152.263 42.4461 151.366 41.8199 150.068 41.8199C147.793 41.8199 146.002 43.416 146.002 45.7111C146.002 48.0062 147.741 49.6428 150.015 49.6428C151.725 49.6428 153.022 48.6781 153.549 47.2157H149.918V45.2371H155.869C155.874 45.4166 155.877 45.5096 155.877 45.5977C155.874 49.3314 153.092 51.6858 149.977 51.6858C146.355 51.6858 144 48.9692 144 45.5977C144 42.3141 146.717 39.7397 149.977 39.7397C151.184 39.7397 152.195 40.0478 153.089 40.691V40.0698H155.105V44.0879H153.089V43.3364Z" fill="#FFFFFE"/>
<path fill-rule="evenodd" clip-rule="evenodd" d="M140.686 40.0703V41.9761H139.407L142.457 49.4741H143.695V51.3867H138.999V49.4741H140.269L137.537 42.3959L134.803 49.4741H136.065V51.3867H131.372V49.4741H132.613L135.663 41.9761H134.381V40.0703H140.686Z" fill="#FFFFFE"/>
<path fill-rule="evenodd" clip-rule="evenodd" d="M163.332 51.7303C161 51.7303 158.663 49.9666 158.663 46.8862V41.9761H157.146V40.0703H162.116V41.9761H160.593V46.783C160.593 48.3909 161.764 49.6891 163.332 49.6891C164.905 49.6891 166.071 48.3909 166.071 46.783V41.9761H164.554V40.0703H169.524V41.9761H168.004V46.8862C168.004 50.0225 165.669 51.7303 163.332 51.7303Z" fill="#FFFFFE"/>
<path fill-rule="evenodd" clip-rule="evenodd" d="M174.776 46.2576V49.4734H179.036V47.5287H181.009V51.386H171.302V49.4734H172.794V41.9771H171.302V40.0713H181.009V43.4682H179.036V41.9771H174.776V44.4296H178.043V46.2576H174.776Z" fill="#FFFFFE"/>
<path fill-rule="evenodd" clip-rule="evenodd" d="M113.898 40.0703H108.873V41.9761H110.362V49.4741H108.873V51.3867H118.074V47.5277H116.091V49.4741H112.34V41.9761H113.898V40.0703Z" fill="#FFFFFE"/>
<path fill-rule="evenodd" clip-rule="evenodd" d="M0 0V43.8522C0 63.7837 16.3768 80 36.5062 80C45.699 80 54.1088 76.6166 60.5337 71.0447H198V0H0Z" fill="#007945"/>
<path fill-rule="evenodd" clip-rule="evenodd" d="M69.2908 43.8524C69.2908 61.7782 54.61 76.3104 36.5065 76.3104C18.4012 76.3104 3.72559 61.7782 3.72559 43.8524V3.68994H69.2908V43.8524Z" fill="#FFFFFE"/>
<path fill-rule="evenodd" clip-rule="evenodd" d="M30.0886 6.96143V37.5221C30.0493 37.5576 30.0117 37.5966 29.974 37.6338L7.07324 37.6321V43.8962C7.07324 59.9907 20.253 73.0368 36.51 73.0368C52.7654 73.0368 65.9468 59.9907 65.9468 43.8962V6.96143H30.0886Z" fill="#1A1919"/>
<path fill-rule="evenodd" clip-rule="evenodd" d="M49.3312 47.5752C44.3253 47.5752 40.2666 51.5916 40.2666 56.5491C40.2666 61.5049 44.3253 65.523 49.3312 65.523C54.3388 65.523 58.3975 61.5049 58.3975 56.5491C58.3975 51.5916 54.3388 47.5752 49.3312 47.5752Z" fill="#D8232A"/>
<path fill-rule="evenodd" clip-rule="evenodd" d="M36.5074 34.8794C31.5016 34.8794 27.4429 38.8975 27.4429 43.855C27.4429 48.8108 31.5016 52.8272 36.5074 52.8272C41.5133 52.8272 45.5737 48.8108 45.5737 43.855C45.5737 38.8975 41.5133 34.8794 36.5074 34.8794Z" fill="#FFFFFE"/>
<path fill-rule="evenodd" clip-rule="evenodd" d="M102.006 48.2261V51.3743H94.372V49.6428L98.3213 45.8667C98.9283 45.2828 100.045 44.5432 100.045 43.4684C100.045 42.3479 99.224 41.6777 98.229 41.6557C97.2545 41.6354 96.2561 42.3919 96.2561 43.7358H94.3293C94.3088 41.4712 95.962 39.7363 98.2598 39.7363C100.32 39.7363 101.973 41.3899 101.973 43.4532C101.973 45.1237 100.952 46.0529 99.8002 47.1023L97.0562 49.6394H100.096L100.101 48.2261H102.006Z" fill="#FFFFFE"/>
<path fill-rule="evenodd" clip-rule="evenodd" d="M84.7402 19.666L86.3695 25.8354C86.602 26.7223 86.6892 27.1454 86.8021 27.7852C86.9115 27.1454 87.0534 26.509 87.25 25.7812L88.9323 19.666H92.1208L93.2321 31.9878H90.7804L90.3103 25.4105C90.259 24.6336 90.2197 24.0091 90.2197 23.3541C90.0778 24.0616 89.9718 24.5033 89.7581 25.2497L87.7868 31.9878H85.6566L83.8803 25.5172C83.7179 24.9112 83.5059 24.0429 83.3828 23.3355C83.3828 24.0616 83.3434 24.7877 83.2904 25.551L82.8613 31.9878H80.3721L81.5346 19.666H84.7402Z" fill="#FFFFFE"/>
<path fill-rule="evenodd" clip-rule="evenodd" d="M102.977 19.666L102.652 21.6869H98.3899V24.5439H101.956V26.5598H98.4258V29.8619H103.136V31.9878H95.8818V19.666H102.977Z" fill="#FFFFFE"/>
<path fill-rule="evenodd" clip-rule="evenodd" d="M105.481 31.9878H108.099V19.666H105.481V31.9878Z" fill="#FFFFFE"/>
<path fill-rule="evenodd" clip-rule="evenodd" d="M113.595 19.666V29.5928C113.595 31.1906 113.542 31.5088 113.414 32.0047C113.058 33.5128 111.644 34.4707 110.514 34.8956L109.352 33.6194C109.994 33.2301 110.589 32.6276 110.8 32.1266C110.998 31.6899 111.053 31.1906 111.053 29.8619V19.666H113.595Z" fill="#FFFFFE"/>
<path fill-rule="evenodd" clip-rule="evenodd" d="M116.586 31.9878H119.202V19.666H116.586V31.9878Z" fill="#FFFFFE"/>
<path fill-rule="evenodd" clip-rule="evenodd" d="M125.935 19.666L127.534 23.0342C127.853 23.7078 128.016 24.1513 128.158 24.61C128.301 24.2579 128.551 23.6537 128.821 23.0697L130.433 19.666H133.386L129.409 26.9152V31.9878H126.797V26.9152L122.926 19.666H125.935Z" fill="#FFFFFE"/>
<path fill-rule="evenodd" clip-rule="evenodd" d="M136.13 19.6274L132.042 31.9881H134.656L135.538 29.06H139.188L140.067 31.9881H142.751L138.831 19.6274H136.13ZM136.144 27.0038C136.414 26.1879 136.576 25.604 136.807 24.7188C137.041 23.793 137.398 22.3408 137.398 22.3408C137.398 22.3408 137.776 23.9555 137.899 24.5225C138.166 25.7106 138.583 27.0038 138.583 27.0038H136.144Z" fill="#FFFFFE"/>
<path fill-rule="evenodd" clip-rule="evenodd" d="M151.297 22.3054C150.166 21.6335 149.326 21.3644 148.394 21.3644C147.375 21.3644 146.657 21.9517 146.657 22.7844C146.657 23.4225 146.999 23.7407 148.034 24.0268L149.538 24.4364C151.583 24.9864 152.691 26.2795 152.691 28.1058C152.691 30.604 150.649 32.2526 147.55 32.2526C146.138 32.2526 144.561 31.8463 143.305 31.1372L144.24 29.2043C145.399 29.8085 146.406 30.1944 147.663 30.1944C149.092 30.1944 149.842 29.6122 149.842 28.512C149.842 27.7131 149.326 27.2189 148.215 26.9159L146.837 26.5453C145.601 26.2085 144.831 25.7278 144.382 24.9864C144.04 24.4364 143.862 23.7932 143.862 23.1043C143.862 20.8515 145.691 19.291 148.324 19.291C149.842 19.291 151.384 19.7514 152.475 20.5333L151.297 22.3054Z" fill="#FFFFFE"/>
<path fill-rule="evenodd" clip-rule="evenodd" d="M157.44 19.666V27.7666C157.44 28.5282 157.511 28.9733 157.654 29.2391C157.945 29.7875 158.535 30.0938 159.357 30.0938C160.448 30.0938 161.145 29.5607 161.256 28.6551C161.291 28.3877 161.291 28.2117 161.291 27.555V19.666H163.836V27.9629C163.836 29.1341 163.816 29.3626 163.638 29.8958C163.317 30.8724 162.096 32.218 159.408 32.218C157.511 32.218 156.115 31.6493 155.416 30.5711C155.004 29.9279 154.879 29.4337 154.879 28.2455V19.666H157.44Z" fill="#FFFFFE"/>
<path fill-rule="evenodd" clip-rule="evenodd" d="M166.772 19.666V31.9878H169.797C170.53 31.9878 171.122 31.9539 171.594 31.9184C172.755 31.8287 173.864 31.1533 174.615 30.1429C175.459 29.0258 175.87 27.555 175.87 25.8709C175.87 23.6537 175.316 22.0762 174.168 20.9591C173.418 20.2144 172.502 19.8251 171.448 19.7337C170.944 19.6999 169.992 19.666 169.279 19.666H166.772ZM169.312 21.6164H170.46C171.449 21.6164 172.02 21.9701 172.43 22.6472C172.934 23.4596 173.057 24.663 173.057 26.1C173.057 28.7082 172.305 29.9657 170.661 29.9657H169.312V21.6164Z" fill="#FFFFFE"/>
<path fill-rule="evenodd" clip-rule="evenodd" d="M180.331 19.6274L176.245 31.9881H178.864L179.739 29.06H183.394L184.273 31.9881H186.957L183.035 19.6274H180.331ZM180.348 27.0038C180.617 26.1879 180.776 25.604 181.01 24.7188C181.243 23.793 181.603 22.3408 181.603 22.3408C181.603 22.3408 181.979 23.9555 182.104 24.5225C182.373 25.7106 182.786 27.0038 182.786 27.0038H180.348Z" fill="#FFFFFE"/>
<path fill-rule="evenodd" clip-rule="evenodd" d="M123.331 46.2576V49.4734H127.588V47.5287H129.571V51.386H119.858V49.4734H121.344V41.9771H119.858V40.0713H129.571V43.4682H127.588V41.9771H123.331V44.4296H126.606V46.2576H123.331Z" fill="#FFFFFE"/>
<path fill-rule="evenodd" clip-rule="evenodd" d="M153.089 43.3364C152.263 42.4461 151.366 41.8199 150.068 41.8199C147.793 41.8199 146.002 43.416 146.002 45.7111C146.002 48.0062 147.741 49.6428 150.015 49.6428C151.725 49.6428 153.022 48.6781 153.549 47.2157H149.918V45.2371H155.869C155.874 45.4166 155.877 45.5096 155.877 45.5977C155.874 49.3314 153.092 51.6858 149.977 51.6858C146.355 51.6858 144 48.9692 144 45.5977C144 42.3141 146.717 39.7397 149.977 39.7397C151.184 39.7397 152.195 40.0478 153.089 40.691V40.0698H155.105V44.0879H153.089V43.3364Z" fill="#FFFFFE"/>
<path fill-rule="evenodd" clip-rule="evenodd" d="M140.686 40.0703V41.9761H139.407L142.457 49.4741H143.695V51.3867H138.999V49.4741H140.269L137.537 42.3959L134.803 49.4741H136.065V51.3867H131.372V49.4741H132.613L135.663 41.9761H134.381V40.0703H140.686Z" fill="#FFFFFE"/>
<path fill-rule="evenodd" clip-rule="evenodd" d="M163.332 51.7303C161 51.7303 158.663 49.9666 158.663 46.8862V41.9761H157.146V40.0703H162.116V41.9761H160.593V46.783C160.593 48.3909 161.764 49.6891 163.332 49.6891C164.905 49.6891 166.071 48.3909 166.071 46.783V41.9761H164.554V40.0703H169.524V41.9761H168.004V46.8862C168.004 50.0225 165.669 51.7303 163.332 51.7303Z" fill="#FFFFFE"/>
<path fill-rule="evenodd" clip-rule="evenodd" d="M174.776 46.2576V49.4734H179.036V47.5287H181.009V51.386H171.302V49.4734H172.794V41.9771H171.302V40.0713H181.009V43.4682H179.036V41.9771H174.776V44.4296H178.043V46.2576H174.776Z" fill="#FFFFFE"/>
<path fill-rule="evenodd" clip-rule="evenodd" d="M113.898 40.0703H108.873V41.9761H110.362V49.4741H108.873V51.3867H118.074V47.5277H116.091V49.4741H112.34V41.9761H113.898V40.0703Z" fill="#FFFFFE"/>
<path fill-rule="evenodd" clip-rule="evenodd" d="M86.0618 49.2541L84.7061 50.8434C86.8397 53.3568 91.1156 51.9452 91.1156 48.2826V41.9761H92.6064V40.0703H87.527V41.9761H89.0212V48.2081C89.0366 50.0428 87.1303 50.5675 86.0618 49.2541Z" fill="#FFFFFE"/>
</svg>
