<svg xmlns="http://www.w3.org/2000/svg" width="177.07179mm" height="210.24304mm" viewBox="0 0 177.07179 210.24304"><g style="stroke-width:.272611"><g style="fill:#001c48;stroke-width:.395499"><path d="m0 0-9.619-11.773v-3.302H6.787v5.097h-8.419l6.89 8.502C7.017.817 6.787 2.607 6.787 2.607a8.418 8.418 0 0 1-16.837 0h5.267a3.151 3.151 0 0 0 6.303 0S1.529 1.872 0 0" style="fill:#001c48;fill-opacity:1;fill-rule:nonzero;stroke:none;stroke-width:.395499" transform="matrix(.9217 0 0 -.86323 170.807 196.537)"/></g><g style="stroke-width:.123118"><g style="stroke-width:.123118"><path d="m0 0-.18-10.887a.07.07 0 0 0-.027-.055c-3.236-2.427-12.203-9.381-19.205-25.235a.1.1 0 0 0-.147-.042c-1.175.825-8.032 5.477-8.69 6.074-.226.204-.205.35.073.61 5.417 5.102 13.841 9.67 14.291 9.905a.05.05 0 0 1 .028.029c.27.551 6.476 13.186 13.174 19.865C-.279.668 0 .58 0 0" style="fill:#ee2529;fill-opacity:1;fill-rule:nonzero;stroke:none;stroke-width:.123118" transform="matrix(2.8611 0 0 -2.86964 84.082 1.472)"/></g><path d="M0 0c-2.273-1.41-17.747-10.778-25.212-21.71a.14.14 0 0 1-.017-.126c3.863-11.578 14.524-24.192 18.151-27.92.382-.394.742-.739 1.062-1.056a.39.39 0 0 0 .088-.429c-.081-.161-.255-.22-.429-.19-.57.104-1.309.322-1.902.492-14.848 4.283-25.828 12.368-30.094 15.964a.06.06 0 0 1-.08 0c-5.01-4.044-9.522-11.383-10.565-13.325-.092-.168-.35-.117-.373.073-1.466 11.692 3.802 24.959 13.816 34.703C-26.075-4.302-13.261.698-.109.45.14.446.222.138 0 0" style="fill:#001c48;fill-opacity:1;fill-rule:nonzero;stroke:none;stroke-width:.123118" transform="matrix(2.8611 0 0 -2.86964 166.814 24.484)"/></g><path fill="#001948" d="m-103.68 551.667 7.727-8.701h-6.548s-5.243 5.726-6.213 6.8v-6.798h-4.303a1.44 1.447 0 0 0-1.502 1.504v13.332c0 .967-.789 1.8-1.307 2.24-.166.148-.227.333 0 .333h7.112v-6.814c.97 1.078 6.213 6.814 6.213 6.814h6.548zm59.05-.005c0-6.051 4.264-9.21 8.478-9.21 2.544 0 5.268.796 7.104 2.079l.149.095v7.868h-5.583v-3.207h2.107v-2.175c-.953-.621-2.094-.965-3.335-.965-2.549 0-5.118 1.878-5.118 5.474 0 3.36 1.91 5.623 4.768 5.623 2.523 0 4.602-1.272 5.383-1.816l.273-.2 1.535 3.54-.26.154c-.136.077-3.44 1.919-6.714 1.919-4.364 0-8.785-3.15-8.785-9.176m-40.892-5.218v13.925h-5.217c-.223 0-.169-.18-.003-.329.51-.436 1.31-1.277 1.31-2.237v-13.665c0-.734.386-1.178 1.172-1.178h10.89v3.484zm14.14 0v3.42h6.593v3.801h-6.593v3.217h7.41v3.49h-12.625c-.22 0-.158-.18 0-.332.51-.436 1.302-1.277 1.302-2.237v-13.665c0-.834.332-1.178 1.178-1.178h10.636v3.484zm55.829 13.927v-9.807c0-2.691-.485-4.379-3.366-4.379-2.822 0-3.728 1.406-3.728 4.29v9.896h-5.18c-.224 0-.168-.185 0-.33.511-.437 1.303-1.278 1.303-2.24v-7.91c0-4.973 2.204-7.487 7.58-7.487 5.362 0 7.262 2.324 7.262 7.488v10.48zm-34.759 0h-6.726c-.217 0-.156-.185 0-.33.51-.434.687-1.42.365-2.381l-5.107-14.697h4.155l1.144 3.573h6.915c.128-.387 1.144-3.573 1.144-3.573h4.163zm-5.007-10.192c.237.76 1.894 5.965 2.017 6.344h.56c.127-.38 1.787-5.584 2.035-6.344zm50.443-3.735v3.42H1.72v3.801h-6.596v3.217h7.41v3.49h-12.627c-.22 0-.164-.18 0-.332.51-.436 1.302-1.277 1.302-2.237v-13.665c0-.834.332-1.178 1.175-1.178H3.023v3.484z" style="fill:#001c48;stroke-width:.0667679" transform="matrix(1.29407 0 0 -1.29407 150.079 912.155)"/></g></svg>