<svg xmlns="http://www.w3.org/2000/svg" width="167.21298mm" height="204.33852mm" viewBox="0 0 167.21298 204.33852"><g style="stroke-width:.280489"><g style="stroke-width:.126676"><g style="stroke-width:.126676"><path d="m0 0-.18-10.887a.07.07 0 0 0-.027-.055c-3.236-2.427-12.203-9.381-19.205-25.235a.1.1 0 0 0-.147-.042c-1.175.825-8.032 5.477-8.69 6.074-.226.204-.205.35.073.61 5.417 5.102 13.841 9.67 14.291 9.905a.05.05 0 0 1 .028.029c.27.551 6.476 13.186 13.174 19.865C-.279.668 0 .58 0 0" style="fill:#ee2529;fill-opacity:1;fill-rule:nonzero;stroke:none;stroke-width:.126676" transform="matrix(2.78074 0 0 -2.78905 81.721 1.43)"/></g><path d="M0 0c-2.273-1.41-17.747-10.778-25.212-21.71a.14.14 0 0 1-.017-.126c3.863-11.578 14.524-24.192 18.151-27.92.382-.394.742-.739 1.062-1.056a.39.39 0 0 0 .088-.429c-.081-.161-.255-.22-.429-.19-.57.104-1.309.322-1.902.492-14.848 4.283-25.828 12.368-30.094 15.964a.06.06 0 0 1-.08 0c-5.01-4.044-9.522-11.383-10.565-13.325-.092-.168-.35-.117-.373.073-1.466 11.692 3.802 24.959 13.816 34.703C-26.075-4.302-13.261.698-.109.45.14.446.222.138 0 0" style="fill:#001c48;fill-opacity:1;fill-rule:nonzero;stroke:none;stroke-width:.126676" transform="matrix(2.78074 0 0 -2.78905 162.129 23.797)"/></g><g fill="#001948" style="fill:#001c48;stroke-width:.936838"><path d="m1141.607 341.26-15.78-5.119v-11.689l10.65 2.853v-42.998h13.282v56.953zM738.284 312.93l26.353-28.463h-22.33s-17.88 18.73-21.189 22.245v-22.237h-14.674a4.912 4.733 0 0 0-5.121 4.917v43.611c0 3.164-2.691 5.89-4.46 7.326-.565.486-.774 1.09 0 1.09h24.255v-22.287c3.31 3.524 21.19 22.288 21.19 22.288h22.33zm201.379-.016c0-19.796 14.544-30.126 28.914-30.126 8.674 0 17.966 2.602 24.228 6.797l.505.31v25.738h-19.038v-10.49h7.185v-7.116c-3.248-2.03-7.141-3.155-11.374-3.155-8.691 0-17.453 6.143-17.453 17.907 0 10.993 6.515 18.395 16.26 18.395 8.605 0 15.694-4.163 18.359-5.942l.932-.654 5.234 11.58-.889.504c-.461.251-11.73 6.277-22.896 6.277-14.883 0-29.959-10.305-29.959-30.017m-139.457-17.068v45.549H782.42c-.757 0-.575-.588-.009-1.074 1.742-1.427 4.468-4.18 4.468-7.318V288.31c0-2.4 1.315-3.852 3.997-3.852h37.136v11.396zm48.222 0v11.186h22.486v12.436h-22.486v10.523h25.273v11.412h-43.057c-.75 0-.54-.587 0-1.082 1.742-1.427 4.441-4.18 4.441-7.318V288.31c0-2.727 1.133-3.852 4.015-3.852h36.273v11.396zm190.396 45.557v-32.08c0-8.803-1.655-14.325-11.478-14.325-9.624 0-12.716 4.599-12.716 14.03v32.375h-17.661c-.767 0-.575-.604 0-1.082 1.741-1.427 4.441-4.18 4.441-7.326v-25.871c0-16.271 7.516-24.495 25.849-24.495 18.288 0 24.768 7.603 24.768 24.495v34.28zm-118.538 0h-22.94c-.74 0-.531-.604 0-1.082 1.742-1.418 2.343-4.64 1.246-7.788l-17.418-48.074h14.17l3.9 11.689h23.585a4236 4236 0 0 0 3.901-11.69h14.196zm-17.079-33.34c.81 2.485 6.462 19.511 6.88 20.753h1.908c.435-1.242 6.096-18.268 6.94-20.752zm172.03-12.217v11.186h22.495v12.436h-22.495v10.523h25.273v11.412h-43.066c-.749 0-.557-.587 0-1.082 1.742-1.427 4.442-4.18 4.442-7.318V288.31c0-2.727 1.132-3.852 4.006-3.852h36.282v11.396z" style="fill:#001c48;stroke-width:.229451" transform="matrix(.3688 0 0 -.38449 -256.815 313.01)"/></g></g></svg>