<svg xmlns="http://www.w3.org/2000/svg" width="302" height="262.81738" viewBox="0 0 301.99999 262.81737"><defs><clipPath id="b" clipPathUnits="userSpaceOnUse"><path d="M0 0h2048v1152H0V0Z"/></clipPath><clipPath id="a" clipPathUnits="userSpaceOnUse"><path d="M0 0h2048v1152H0V0Z"/></clipPath></defs><g clip-path="url(#a)" transform="matrix(4.38678 0 0 -4.38678 -4754.273 2870.244)"><path d="M0 0c.263.247.521.516.752.834.68 1.036.919 1.923.919 2.683a3.41 3.41 0 0 1-.411 1.611C.203 7.134-2.283 7.381-4.334 7.381h-5.598c-.75 0-1.408-.36-1.884-.919-.982.591-2.263.919-3.927.919h-5.663c-.328 0-.612-.114-.9-.211-.273.075-.524.211-.82.211h-3.682a2.5 2.5 0 0 1-2.087-1.104l-.024-.042c-.452.656-1.088 1.146-1.927 1.146h-2.137l13.434 19.792c.516.78.573 1.767.143 2.595a2.532 2.532 0 0 1-2.221 1.325h-21.942a2.501 2.501 0 0 1-2.376-1.728l-11.37-34.148a2.595 2.595 0 0 1 0-1.433c-3.77-1.863-6.94-5.384-8.167-9.534-.997-3.37-.541-6.676 1.243-9.095 1.661-2.241 4.24-3.494 7.282-3.517 6.039-.042 12.219 4.806 14.07 11.041.99 3.354.524 6.676-1.252 9.095-.07.091-.153.147-.221.237.492.098.925.312 1.274.679.46-.422 1.002-.743 1.653-.743h3.691c.838 0 1.62.419 2.083 1.113l.018.033c.459-.64 1.091-1.146 1.948-1.146h3.6c.317 0 .604.107.906.22.26-.1.516-.22.805-.22h3.847c.833 0 1.623.419 2.083 1.113 0 0 .787 1.156 1.438 2.124h.587c.432 0 .821.107 1.243.14-.251-.679-.287-1.4.052-2.056a2.535 2.535 0 0 1 2.215-1.321h5.719c2.422 0 4.421.516 6.09 1.441.783-.902 1.903-1.474 3.181-1.474 2.386 0 4.314 1.919 4.314 4.29C2.387-2.13 1.408-.698 0 0" style="fill:#fff;fill-opacity:1;fill-rule:nonzero;stroke:none" transform="translate(1150 622.973)"/></g><path d="m0 0 1.44 2.371 2.215 3.305h3.683L.37-4.732h-3.599l-.403 5.67-1.44-2.37-2.207-3.3h-3.69l6.976 10.408h3.61L0 0Z" style="fill:#231815;fill-opacity:1;fill-rule:nonzero;stroke:none" transform="matrix(4.38678 0 0 -4.38678 156.893 140.931)"/><g clip-path="url(#b)" transform="matrix(4.38678 0 0 -4.38678 -4754.273 2870.244)"><path d="m0 0 6.975 10.408h5.664c3.367 0 4.083-1.367 2.644-3.517-1.5-2.231-3.953-3.66-7.329-3.66H6.019L3.846 0H0Zm9.243 5.67c.907 0 1.759.328 2.361 1.205.658.984-.5 1.101-1.312 1.101H9.193L7.636 5.67h1.607z" style="fill:#231815;fill-opacity:1;fill-rule:nonzero;stroke:none" transform="translate(1121.619 617.436)"/><path d="m0 0 6.985 10.408h5.598c2.642 0 4.384-.549 3.006-2.634-.729-1.055-2.035-1.828-3.063-2.247 1.075-.292 1.119-1.26.358-2.387C11.333.799 8.777 0 5.718 0H0Zm6.772 4.342-1.3-1.923h1.685c.947 0 1.788.182 2.297.955.616.916-.241.968-1.464.968H6.772zm2.419 3.634L8.036 6.245h1.599c.777 0 1.513.302 1.935.916.534.805-.205.815-1.016.815H9.191z" style="fill:#231815;fill-opacity:1;fill-rule:nonzero;stroke:none" transform="translate(1133.083 617.436)"/><path d="M0 0c-4.912.036-10.12-4.098-11.638-9.245-1.509-5.131 1.238-9.323 6.152-9.359 4.896-.045 10.125 4.089 11.622 9.229C7.657-4.241 4.91-.042 0 0m-5.935-5.397c.374.828.991 1.591 1.757 2.247.688-.399.906-1.27.45-2.296-.45-1.01-1.406-1.867-2.419-2.318-.221.678-.168 1.484.212 2.367m.172-3.065c1.272.636 2.451 1.756 3.027 3.016.612 1.315.427 2.455-.315 3.069 1.005.601 2.153.958 3.228.945 1.041-.019 1.846-.344 2.343-.906C1.268-2.978.133-4.069-.458-5.322c-.615-1.351-.403-2.536.433-3.15-1.045-.617-2.218-1-3.333-1-1.086.022-1.929.396-2.405 1.01m8.517 2.984c-.351-.802-.945-1.553-1.666-2.173-.755.361-1.01 1.264-.53 2.329.431.99 1.377 1.861 2.374 2.295.271-.672.234-1.532-.178-2.451" style="fill:#d70c19;fill-opacity:1;fill-rule:nonzero;stroke:none" transform="translate(1098.556 615.737)"/><path d="m0 0 11.364 34.165h21.943L10.13 0H6.545l14.863 25.381c.676 1.104.286 2.77-1.508 3.131-2.806.574-4.54-.812-5.303-2.501L3.536 0H0Z" style="fill:#0091db;fill-opacity:1;fill-rule:nonzero;stroke:none" transform="translate(1095.067 617.394)"/><path d="M0 0c.992 0 1.773.786 1.773 1.782 0 .975-.781 1.761-1.773 1.761a1.762 1.762 0 0 1-1.767-1.761C-1.767.786-.976 0 0 0Z" style="fill:none;stroke:#231815;stroke-width:.032;stroke-linecap:butt;stroke-linejoin:miter;stroke-miterlimit:4;stroke-dasharray:none;stroke-opacity:1" transform="translate(1148.073 617.395)"/><path d="M0 0a.412.412 0 0 0 .107-.26.338.338 0 0 0-.13-.286C-.093-.63-.224-.662-.38-.662h-.518v.753h.586A.722.722 0 0 0 0 0m.279-.662a.619.619 0 0 1-.052.837.895.895 0 0 1-.563.172h-.832v-2.205h.27v.949h.484l.547-.936h.364l-.627.968c.197.042.332.117.409.215" style="fill:#231815;fill-opacity:1;fill-rule:nonzero;stroke:none" transform="translate(1148.565 619.936)"/></g></svg>