<svg id="Layer_1" data-name="Layer 1" width="240" height="240" xmlns="http://www.w3.org/2000/svg" viewBox="0 0 240 240"><defs><style>.cls-1{fill:#fff;}.cls-2{fill:#98b545;}.cls-3{fill:#823e78;}.cls-4{fill:#a87da3;}</style></defs><path class="cls-1" d="M84.55,43.82h-.19a2.24,2.24,0,0,0-1.19.35H76.92a2.27,2.27,0,0,0-2.27,2.27v.17A2.24,2.24,0,0,0,75,47.85v4.62a2.21,2.21,0,0,0-.38,1.23v.18a2.27,2.27,0,0,0,2.27,2.27h2.49a2.27,2.27,0,0,0,2.27-2.27V53.7a2.19,2.19,0,0,0-.14-.77,2.29,2.29,0,0,0,1.12.3h.19A2.27,2.27,0,0,0,85.12,51v-.75a2.27,2.27,0,0,0,1.7-2.2V46.09A2.27,2.27,0,0,0,84.55,43.82Z"/><path class="cls-1" d="M99.07,44.17H96.72a2.24,2.24,0,0,0-1.89,1,2.27,2.27,0,0,0-1.9-1H90.44a2.27,2.27,0,0,0-2.27,2.27v.17a2.24,2.24,0,0,0,.38,1.24v3.33a6,6,0,0,0,.38,2.18,4.1,4.1,0,0,0,1.81,2,8.08,8.08,0,0,0,4,.86c2.51,0,4.23-.62,5.25-1.92a5,5,0,0,0,1-3.17V47.85a2.31,2.31,0,0,0,.37-1.24v-.17A2.26,2.26,0,0,0,99.07,44.17Z"/><path class="cls-1" d="M111.29,44.17H108.8a2.26,2.26,0,0,0-2.27,2.27v.17a2.31,2.31,0,0,0,.37,1.24v2.07a2.22,2.22,0,0,0-.59-.31l-.18-.06a2.27,2.27,0,0,0-2.82,1.31l-.75,1.89a2.28,2.28,0,0,0,1.33,3l.17.06a2.31,2.31,0,0,0,1.35.07c.6.16,1,.27,1.36.33a8.24,8.24,0,0,0,1.27.09,6.25,6.25,0,0,0,2.42-.45,4.41,4.41,0,0,0,2-1.62,4.93,4.93,0,0,0,.7-2.81V47.85a2.31,2.31,0,0,0,.37-1.24v-.17A2.26,2.26,0,0,0,111.29,44.17Z"/><path class="cls-1" d="M120.53,44.17H118a2.26,2.26,0,0,0-2.27,2.27v.17a2.31,2.31,0,0,0,.37,1.24v4.62a2.28,2.28,0,0,0-.37,1.23v.18A2.27,2.27,0,0,0,118,56.15h2.49a2.27,2.27,0,0,0,2.27-2.27V53.7a2.21,2.21,0,0,0-.38-1.23V47.85a2.24,2.24,0,0,0,.38-1.24v-.17A2.27,2.27,0,0,0,120.53,44.17Z"/><path class="cls-1" d="M135.68,50.13A2.27,2.27,0,0,0,137.14,48V46.09a2.26,2.26,0,0,0-2.27-2.27h-.18a2.25,2.25,0,0,0-1.2.35h-6.3a2.27,2.27,0,0,0-2.27,2.27v.17a2.24,2.24,0,0,0,.38,1.24v4.62a2.21,2.21,0,0,0-.38,1.23v.18a2.27,2.27,0,0,0,2.27,2.27h6.43a2.3,2.3,0,0,0,1.2.35H135a2.27,2.27,0,0,0,2.27-2.27V52.3A2.28,2.28,0,0,0,135.68,50.13Z"/><path class="cls-1" d="M148.78,44.64a8.35,8.35,0,0,0-3.08-.47h-4.44A2.27,2.27,0,0,0,139,46.44v.17a2.24,2.24,0,0,0,.38,1.24v4.62A2.21,2.21,0,0,0,139,53.7v.18a2.27,2.27,0,0,0,2.27,2.27h4.44a9.57,9.57,0,0,0,2.37-.25,5.45,5.45,0,0,0,2.1-1,5.72,5.72,0,0,0,2.12-4.7,6.36,6.36,0,0,0-.68-3A5.38,5.38,0,0,0,148.78,44.64Zm-3.14,5.29.33,0a1.15,1.15,0,0,1,0,.2,1.22,1.22,0,0,1,0,.21l-.33,0Z"/><path class="cls-1" d="M165.68,51.76l-2.48-4.69a1.76,1.76,0,0,0,.06-.46v-.17A2.27,2.27,0,0,0,161,44.17h-2.82a2.27,2.27,0,0,0-2.27,2.27v.17a2.09,2.09,0,0,0,.07.51l-2.4,4.69a2.28,2.28,0,0,0-1,1.89v.18a2.27,2.27,0,0,0,2.27,2.27h2.62a2.29,2.29,0,0,0,2.08-1.35,2.26,2.26,0,0,0,2.07,1.35h2.93a2.27,2.27,0,0,0,2.27-2.27V53.7A2.28,2.28,0,0,0,165.68,51.76Z"/><path class="cls-1" d="M194.6,90l-2.48-3.41a38.58,38.58,0,0,0-11.89-10c2.5-4,3-9,3-13.07l.09-4.5a2.28,2.28,0,0,0-3.23-2.1l-4.08,1.9a59.18,59.18,0,0,0-5.78,3.12c-.19-.78-.48-1.93-.92-3.66a2.26,2.26,0,0,0-3.08-1.54l-4.66,2a49.55,49.55,0,0,1-19.14,4.25c-7.25,0-13.37-2.07-18.19-6.14l-.14-.13-.17-.13-2.67-1.86a2.25,2.25,0,0,0-2.6,0l-1.3.9-1.39,1-.19.15-.14.13c-4.79,4.05-10.9,6.11-18.16,6.11a49.58,49.58,0,0,1-19.13-4.25l-4.66-2a2.27,2.27,0,0,0-3.09,1.54l-.91,3.66A57.11,57.11,0,0,0,64,58.8l-4.08-1.9a2.25,2.25,0,0,0-2.19.16,2.28,2.28,0,0,0-1,1.94l.09,4.5c.08,4.08.54,9,3,13.07a38.58,38.58,0,0,0-11.89,10L45.4,90a2.26,2.26,0,0,0,1.31,3.54l4.1,1a40.34,40.34,0,0,0,14,.21c-.22,3.23-.33,6.21-.33,8.74v.06c0,15.82,4.19,32,11.48,44.45,1.68,2.86,3.57,5.78,5.63,8.7a9.48,9.48,0,0,0-2.78,1.84,7.32,7.32,0,0,0-1.61,2.3,6.8,6.8,0,0,1-.8-1.25,4.37,4.37,0,0,0-8.3,2.26c.57,6.45,4.78,17.34,9.58,24.8A4.36,4.36,0,0,0,79,188a20.65,20.65,0,0,0,15.85,2c3.16-1,4.46-2.9,5-4.28a10.12,10.12,0,0,0,.74-3.66,8.16,8.16,0,0,0-.27-2.06c.55.12,1.09.25,1.63.4,4.23,4.2,8.85,8.46,13.75,12.67l.57.49,0,0,2.34,2.09a2.27,2.27,0,0,0,3.06,0l2.2-2.06.51-.43c4.89-4.21,9.52-8.47,13.75-12.68.54-.15,1.08-.28,1.63-.4a8.16,8.16,0,0,0-.27,2.06,10.16,10.16,0,0,0,.74,3.66,7.44,7.44,0,0,0,5,4.28A20.65,20.65,0,0,0,161,188a4.36,4.36,0,0,0,1.34-1.33c4.81-7.46,9-18.35,9.58-24.8a4.37,4.37,0,0,0-8.3-2.26,6.8,6.8,0,0,1-.8,1.25,7.32,7.32,0,0,0-1.61-2.3,9.48,9.48,0,0,0-2.78-1.84c2.06-2.92,3.95-5.84,5.63-8.71,7.29-12.42,11.48-28.63,11.48-44.45v0c0-2.53-.11-5.51-.33-8.74a40.34,40.34,0,0,0,14-.21l4.1-1A2.26,2.26,0,0,0,194.6,90Z"/><path d="M79,50.61V53.3a.35.35,0,0,0,.08.26.56.56,0,0,0,.29.14v.18H76.92V53.7a.6.6,0,0,0,.29-.14.36.36,0,0,0,.09-.26V47a.36.36,0,0,0-.09-.26.7.7,0,0,0-.29-.14v-.17h7a.4.4,0,0,0,.26-.08.56.56,0,0,0,.15-.27h.19V48h-.19a.46.46,0,0,0-.15-.27.4.4,0,0,0-.26-.08H79v1.78h3.2a.41.41,0,0,0,.27-.08.56.56,0,0,0,.15-.27h.19V51h-.19a.68.68,0,0,0-.15-.27.41.41,0,0,0-.27-.08Z"/><path d="M98.7,47v4.17a2.8,2.8,0,0,1-.47,1.76c-.56.71-1.71,1.06-3.47,1.06a6,6,0,0,1-2.9-.57,1.74,1.74,0,0,1-.82-.9,3.67,3.67,0,0,1-.22-1.35V47a.4.4,0,0,0-.08-.26.84.84,0,0,0-.3-.14v-.17h2.49v.17a.65.65,0,0,0-.29.14.35.35,0,0,0-.08.26v3.71a4.46,4.46,0,0,0,.07,1,1,1,0,0,0,.29.51,3.54,3.54,0,0,0,3.82,0,1,1,0,0,0,.28-.51,4.32,4.32,0,0,0,.08-1V47a.4.4,0,0,0-.08-.26.84.84,0,0,0-.3-.14v-.17h2.35v.17a.78.78,0,0,0-.29.14A.4.4,0,0,0,98.7,47Z"/><path d="M104.67,53.59l.75-1.89.17.06v.11a.54.54,0,0,0,.29.42,3.44,3.44,0,0,0,.84.32,4.06,4.06,0,0,0,1,.13,1.61,1.61,0,0,0,1.13-.33.85.85,0,0,0,.25-.4,3.1,3.1,0,0,0,.06-.71V47a.4.4,0,0,0-.08-.26.78.78,0,0,0-.29-.14v-.17h2.49v.17a.76.76,0,0,0-.3.14.4.4,0,0,0-.08.26v4.38a2.87,2.87,0,0,1-.32,1.55,2.23,2.23,0,0,1-1,.79A4.09,4.09,0,0,1,108,54a5.61,5.61,0,0,1-.88-.06c-.25,0-.65-.14-1.22-.3a3.53,3.53,0,0,0-.74-.14.53.53,0,0,0-.36.15Z"/><path d="M118.41,53.3V47a.34.34,0,0,0-.08-.26.7.7,0,0,0-.29-.14v-.17h2.49v.17a.7.7,0,0,0-.3.14.38.38,0,0,0-.08.26V53.3a.36.36,0,0,0,.09.26.52.52,0,0,0,.29.14v.18H118V53.7a.6.6,0,0,0,.29-.14A.35.35,0,0,0,118.41,53.3Z"/><path d="M129.31,50.61v2h5.09a.41.41,0,0,0,.27-.07.61.61,0,0,0,.15-.28H135v1.93h-.19a.56.56,0,0,0-.15-.27.36.36,0,0,0-.27-.08h-7.21V53.7a.7.7,0,0,0,.3-.14.4.4,0,0,0,.08-.26V47a.4.4,0,0,0-.08-.26.84.84,0,0,0-.3-.14v-.17h7.08a.4.4,0,0,0,.26-.08.54.54,0,0,0,.16-.27h.18V48h-.18a.5.5,0,0,0-.16-.27.4.4,0,0,0-.26-.08h-5v1.77h3.22a.4.4,0,0,0,.26-.08.49.49,0,0,0,.16-.28h.18V51H133a.59.59,0,0,0-.16-.27.4.4,0,0,0-.26-.08Z"/><path d="M143.38,47.66h2.18a4.36,4.36,0,0,1,1.27.15,2,2,0,0,1,.82.5,2.6,2.6,0,0,1,.6,1.84,2.25,2.25,0,0,1-1.12,2.23,3.57,3.57,0,0,1-1.57.27h-2.18Zm-1.83,5.9a.6.6,0,0,1-.29.14v.18h4.44a7.55,7.55,0,0,0,1.81-.18,3.14,3.14,0,0,0,1.24-.61A3.51,3.51,0,0,0,150,50.16a4.06,4.06,0,0,0-.43-1.92,3.13,3.13,0,0,0-1.65-1.49,6.29,6.29,0,0,0-2.24-.31h-4.44v.17a.7.7,0,0,1,.29.14.36.36,0,0,1,.09.26V53.3A.36.36,0,0,1,141.55,53.56Z"/><path d="M158.21,51l1.3-2.63L160.79,51ZM161.85,53a1,1,0,0,1,.11.34c0,.19-.13.3-.38.34v.18h2.93V53.7a.71.71,0,0,1-.39-.18,1.82,1.82,0,0,1-.34-.5l-3-5.73a.78.78,0,0,1-.11-.36c0-.15.12-.26.35-.32v-.17h-2.82v.17c.23.07.34.19.34.36a1.09,1.09,0,0,1-.14.44l-2.92,5.71a1.66,1.66,0,0,1-.28.43.75.75,0,0,1-.36.15v.18h2.62V53.7c-.26-.06-.39-.17-.39-.34a.92.92,0,0,1,.11-.34l.55-1h3.6Z"/><path d="M59,63.45c.12,5.92,1.09,10.72,4.38,14.08-.18.06-.33.08-.51.15-5.82,2.14-11.47,7.94-13.16,10.25l-2.48,3.41,4.1,1c3.12.73,11.2,1.27,16.66-.74l.46-.19c0,.28-.07.56-.07.83,0,4.37,2.37,8.4,5.9,12.7l2.88,3.52L79,104.28c2.82-6.33,4.24-12.12,4.24-16.86A14.36,14.36,0,0,0,80.93,79C80.39,71.58,71.46,64.81,63,60.86L58.91,59Z"/><path d="M177,60.86c-8.47,4-17.4,10.72-17.94,18.14a14.36,14.36,0,0,0-2.31,8.42c0,4.74,1.42,10.53,4.24,16.86l1.84,4.15,2.88-3.52c3.53-4.3,5.9-8.33,5.9-12.7,0-.27-.05-.55-.07-.83l.46.19c5.46,2,13.54,1.47,16.66.74l4.1-1-2.48-3.41c-1.69-2.31-7.34-8.11-13.16-10.25h0c-.18-.07-.33-.09-.51-.15,3.29-3.36,4.26-8.16,4.38-14.08l.09-4.49Z"/><path d="M80.36,160.14a4.91,4.91,0,0,0-1.52,3.56,5,5,0,0,0,0,.66c0,.37.11.8.2,1.25a14.6,14.6,0,0,1-4.76-5.06,2.1,2.1,0,0,0-4,1.08c.53,6,4.67,16.7,9.23,23.77a2.06,2.06,0,0,0,.64.64,18.39,18.39,0,0,0,13.93,1.8,5.29,5.29,0,0,0,3.59-2.94,7.93,7.93,0,0,0,.58-2.84,6.47,6.47,0,0,0-1.23-3.68s-.4-.73-.69-1.23a31.33,31.33,0,0,1,8.13,1.68,40.32,40.32,0,0,0,15.37,2.71h.24a40.32,40.32,0,0,0,15.37-2.71,31.42,31.42,0,0,1,8.13-1.68l-.69,1.23a6.47,6.47,0,0,0-1.23,3.68,7.93,7.93,0,0,0,.58,2.84,5.29,5.29,0,0,0,3.59,2.94A18.39,18.39,0,0,0,159.8,186a2.2,2.2,0,0,0,.65-.64c4.55-7.08,8.69-17.74,9.22-23.77a2.1,2.1,0,0,0-4-1.08,14.6,14.6,0,0,1-4.76,5.06q.14-.69.21-1.26c0-.21,0-.43,0-.65a4.92,4.92,0,0,0-1.53-3.56c-3.47-3.39-11.7-2.81-16.29-2.17a73.7,73.7,0,0,0-10.89,2.69c-4.43,1.33-8.62,2.59-12.44,2.61s-8-1.28-12.47-2.62A75.39,75.39,0,0,0,96.65,158C92.06,157.33,83.83,156.75,80.36,160.14Z"/><path d="M168.38,63.72l-1.23-4.91-4.66,2a51.77,51.77,0,0,1-20,4.43c-7.81,0-14.42-2.25-19.65-6.68l-.15-.13L120,56.54l-1.3.9-1.39,1-.16.14C112,63,105.34,65.21,97.52,65.21a51.8,51.8,0,0,1-20-4.43l-4.67-2-1.22,4.91a191,191,0,0,0-4.9,39.75v.06c0,15.43,4.07,31.2,11.17,43.3,8.45,14.4,21.66,29.38,39.27,44.52l.57.5,2.33,2.06,2.24-2.09.54-.47c17.61-15.14,30.82-30.12,39.27-44.53,7.1-12.09,11.17-27.87,11.17-43.3v0A191,191,0,0,0,168.38,63.72Z"/><path class="cls-1" d="M159.57,145.33c6.84-11.65,10.76-26.89,10.76-41.81v0a190.52,190.52,0,0,0-4.81-39l-.39-1.57-1.49.63a54.78,54.78,0,0,1-21.17,4.66c-8.52,0-15.78-2.49-21.56-7.38l0,0-.87-.61c-.36.26-.84.59-.84.58l-.07.07c-5.78,4.89-13,7.37-21.56,7.38A54.82,54.82,0,0,1,76.36,63.5l-1.49-.63-.39,1.57a190.6,190.6,0,0,0-4.81,39v.06c0,14.92,3.92,30.15,10.76,41.8,8.29,14.13,21.29,28.86,38.65,43.78l.56.49.37.3.33-.29.58-.5C138.28,174.19,151.28,159.46,159.57,145.33Z"/><path d="M119.55,185.87l.45.39.45-.39c16.42-14.26,28.78-28.37,36.73-41.93,9-15.41,10.38-32,10.39-40.47a183.3,183.3,0,0,0-4.16-36.06l-.19-.75-.72.27a56.3,56.3,0,0,1-20,4,35.92,35.92,0,0,1-22.06-7l-.41-.31-.41.31a35.92,35.92,0,0,1-22.06,7,56.33,56.33,0,0,1-20-4l-.72-.28-.18.75a182.6,182.6,0,0,0-4.17,36.06h0c0,8.5,1.37,25.06,10.39,40.46C90.77,157.5,103.13,171.61,119.55,185.87Z"/><path class="cls-2" d="M152.58,148.71q1.83-2.75,3.43-5.46c8.85-15.13,10.19-31.42,10.19-39.78v0a182.55,182.55,0,0,0-4-35,64.43,64.43,0,0,1-9.66,2.77Z"/><path class="cls-2" d="M107.81,173.09q5.66,5.66,12.19,11.35,6.51-5.67,12.15-11.32V71A35.15,35.15,0,0,1,120,65.29,34.89,34.89,0,0,1,107.81,71Z"/><path class="cls-2" d="M87.39,148.66V71.23a65.28,65.28,0,0,1-9.63-2.77,182.55,182.55,0,0,0-4,35v0c0,8.36,1.34,24.65,10.19,39.78C85.05,145,86.18,146.85,87.39,148.66Z"/><path class="cls-1" d="M132.15,173.12a161.78,161.78,0,0,0,20.43-24.41V71.23a50.73,50.73,0,0,1-10.11,1.06A41.39,41.39,0,0,1,132.15,71Z"/><path class="cls-1" d="M87.39,148.66a161.18,161.18,0,0,0,20.42,24.43V71a41.07,41.07,0,0,1-10.28,1.27,51,51,0,0,1-10.14-1.06Z"/><path class="cls-1" d="M146.07,97.37c-.31-1-1.69-1.24-4.09-.76-.88.17-4.74,1.49-9.7,3.21l-4,1.36c-1.22,0-9.93-.6-10.77-.73l-1.18-.45c-4.34-1.72-7.49-2.88-8.76-3-3.72-.33-6.28.65-7.74,2.81-3.66.49-3.81,1.33-3.88,1.84a1.48,1.48,0,0,0,0,.21c0,1.16,1.39,1.48,3.87,1.83a21,21,0,0,0,2,2.38,30.77,30.77,0,0,0,2.13,4.6c1,1.73,2.84,3.92,7.28,5.58a11.4,11.4,0,0,0,5,1.42l-.71,1.17a2.73,2.73,0,0,0-1.93.36l-2.76,3.15,2.77-.09h.77l1.44,0,1.6,0,.45-.44c.49-.59,2.48-3.46,3.44-4.85a11.71,11.71,0,0,0,4.78-3.22,7.73,7.73,0,0,0,2-3.35v0c1.17,0,2.11,0,2.59.05l2.84.21-1.82-2.18a10.26,10.26,0,0,0-2.05-1.48c.45-.58.8-1.11,1-1.41.83-.47,3.79-1.91,13.82-6.25l.73-.32a1.33,1.33,0,0,0,.92-1.25A1.45,1.45,0,0,0,146.07,97.37Z"/><path class="cls-1" d="M104.75,143c.5-.3,1.22-.72,1.76-1l-.69-2.27a8,8,0,0,1-5.14-1.24c0-.45.32-.75.78-1.21a4.43,4.43,0,0,0,1.5-2.91,2.08,2.08,0,0,0-.17-.82,1.8,1.8,0,0,0-1.12-.91,2.42,2.42,0,0,0-1.3-1.39,2,2,0,0,0-.48-.09,1.82,1.82,0,0,0-1.1-.85,1.83,1.83,0,0,0-.14-.57,1.86,1.86,0,0,0-.83-.94c-.19-.83-.38-1.6-1.16-2h0a1.93,1.93,0,0,0-1.53-1.4h-.19a3.75,3.75,0,0,0,.69-2,2.43,2.43,0,0,0,0-.38,2.08,2.08,0,0,0-.66-1.19v-.09c0-1-.1-1.82-.82-2.33h0a2.28,2.28,0,0,0-.89-1.68,2,2,0,0,0-.39-.76v0c0-.2,0-.4,0-.59a2,2,0,0,0-.49-1.47,2,2,0,0,0-.9-1.81,2.68,2.68,0,0,0,.19-.42,2.27,2.27,0,0,0,.14-.81,2.49,2.49,0,0,0-.29-1.08l0-.11a6.64,6.64,0,0,0,.11-1,2,2,0,0,0-.34-1.18,3.14,3.14,0,0,0,.08-.4,2.15,2.15,0,0,0-.62-1.61,2.5,2.5,0,0,0,.09-.66,2.34,2.34,0,0,0-.25-1v-.07a6.11,6.11,0,0,0,.09-.93,2,2,0,0,0-.29-1.11c0-.11.07-.23.07-.33a2,2,0,0,0-.77-1.68A3.17,3.17,0,0,0,90,99.41a1.76,1.76,0,0,0-.49-1.27,1.78,1.78,0,0,0-.93-.42,1.62,1.62,0,0,0-1.29-1.14c-1-.15-1.85.74-2.34,1.85a1.75,1.75,0,0,0-.73.45,2.47,2.47,0,0,0-.6,1.69,3.86,3.86,0,0,0,.27,1.35,1.74,1.74,0,0,0-.85.22A2.31,2.31,0,0,0,82,104a2.19,2.19,0,0,0-.42.44,2.63,2.63,0,0,0-.3,1.28,3.49,3.49,0,0,0,.36,1.46,2,2,0,0,0-.26.91v.2a2.3,2.3,0,0,0,.53,1.27l-.15.13a2.65,2.65,0,0,0-.79,2c0,.07,0,.14,0,.21a2.15,2.15,0,0,0-.58,1,2.39,2.39,0,0,0-.08.66,3.63,3.63,0,0,0,.83,2.23,2.29,2.29,0,0,0-.19.77,2.33,2.33,0,0,0,.1.68,2.43,2.43,0,0,0,.71,1.06l-.12.14a2.73,2.73,0,0,0-.46,1.57,3.4,3.4,0,0,0,.12.83,2.29,2.29,0,0,0-.47,1.38v0a3.49,3.49,0,0,0,1.36,2.64,2.83,2.83,0,0,0-.1.47,2.15,2.15,0,0,0,.28,1.08,2.36,2.36,0,0,0,.83.86,1.51,1.51,0,0,0-.11.22,2.64,2.64,0,0,0-.2,1,3,3,0,0,0,.2,1.06,2.26,2.26,0,0,0-.37,1.25,2.46,2.46,0,0,0,.06.53,3,3,0,0,0,1.62,2v0a2,2,0,0,0,.27,1,2.47,2.47,0,0,0,1.29,1,2.3,2.3,0,0,0-.32,1v.11a2.43,2.43,0,0,0,.63,1.59,2.19,2.19,0,0,0-.12.49,2.09,2.09,0,0,0,.23.93,2.89,2.89,0,0,0,2.36,1.45,2,2,0,0,0,.35.58,2.36,2.36,0,0,0,1.65.66s0,.07,0,.1a2.33,2.33,0,0,0,0,.44,2.14,2.14,0,0,0,.87,1.28s0,0,0,0a1.86,1.86,0,0,0,.41,1.15,2.84,2.84,0,0,0,2.78.78,2.06,2.06,0,0,0,.3.3c1.15.83,2.93,0,3.79-.62l1.09-.88a14.79,14.79,0,0,1,2.16-1.61,10.3,10.3,0,0,0,1.1.25l.13,0,1.94,1.54Z"/><path class="cls-1" d="M158.8,120a2.74,2.74,0,0,0-.47-1.57.81.81,0,0,0-.12-.14,2.43,2.43,0,0,0,.71-1.06,2.35,2.35,0,0,0,.11-.68,2.31,2.31,0,0,0-.2-.77,3.63,3.63,0,0,0,.83-2.23,2.84,2.84,0,0,0-.07-.66,2.26,2.26,0,0,0-.59-1,1.55,1.55,0,0,0,0-.21,2.65,2.65,0,0,0-.79-2l-.14-.13a2.29,2.29,0,0,0,.52-1.27c0-.07,0-.13,0-.2a1.93,1.93,0,0,0-.27-.91,3.51,3.51,0,0,0,.37-1.46,2.63,2.63,0,0,0-.31-1.28A2.19,2.19,0,0,0,158,104a2.31,2.31,0,0,0-1.06-1.85,1.71,1.71,0,0,0-.85-.22,3.65,3.65,0,0,0,.27-1.35,2.47,2.47,0,0,0-.59-1.69,1.78,1.78,0,0,0-.74-.45c-.49-1.11-1.31-2-2.34-1.85a1.61,1.61,0,0,0-1.28,1.14,1.78,1.78,0,0,0-.94.42,1.76,1.76,0,0,0-.49,1.27,3,3,0,0,0,.34,1.32,2,2,0,0,0-.77,1.68c0,.1.05.22.06.33a2,2,0,0,0-.29,1.1,5.86,5.86,0,0,0,.09.93v.08a2.34,2.34,0,0,0-.25,1,2.5,2.5,0,0,0,.09.66,2.16,2.16,0,0,0-.62,1.61,3.14,3.14,0,0,0,.08.4,2,2,0,0,0-.34,1.18,6.51,6.51,0,0,0,.11,1s0,.07,0,.11a2.26,2.26,0,0,0-.15,1.89,2,2,0,0,0,.2.42,2,2,0,0,0-.91,1.81,2,2,0,0,0-.49,1.47c0,.19,0,.39,0,.59v0a2.2,2.2,0,0,0-.39.76,2.28,2.28,0,0,0-.89,1.68h0c-.73.51-.78,1.35-.83,2.33v.09a2,2,0,0,0-.67,1.19,2.43,2.43,0,0,0,0,.38,3.68,3.68,0,0,0,.7,2h-.2a1.9,1.9,0,0,0-1.52,1.4h0c-.78.35-1,1.12-1.16,2a1.91,1.91,0,0,0-.83.94,2.16,2.16,0,0,0-.14.57,1.85,1.85,0,0,0-1.1.85,1.86,1.86,0,0,0-.47.09,2.44,2.44,0,0,0-1.31,1.39,1.8,1.8,0,0,0-1.12.91,2.08,2.08,0,0,0-.17.82,4.4,4.4,0,0,0,1.51,2.91c.46.47.74.76.77,1.21a8,8,0,0,1-5.13,1.24l-.7,2.27c.54.25,1.26.67,1.76,1l-.63,2.1,1.95-1.55.13,0a10.3,10.3,0,0,0,1.1-.25,14.79,14.79,0,0,1,2.16,1.61l1.08.88c.87.62,2.65,1.45,3.8.62a1.66,1.66,0,0,0,.3-.3,2.84,2.84,0,0,0,2.78-.78,1.86,1.86,0,0,0,.41-1.15s0,0,0,0a2.14,2.14,0,0,0,.87-1.28,1.72,1.72,0,0,0,.05-.44v-.1a2.36,2.36,0,0,0,1.64-.66,2,2,0,0,0,.35-.58,2.89,2.89,0,0,0,2.36-1.45,2,2,0,0,0,.23-.93,2.19,2.19,0,0,0-.12-.49,2.43,2.43,0,0,0,.63-1.59v-.11a2.3,2.3,0,0,0-.32-1,2.43,2.43,0,0,0,1.29-1,2,2,0,0,0,.27-1v0a3,3,0,0,0,1.63-2,3.27,3.27,0,0,0,.05-.53,2.26,2.26,0,0,0-.37-1.25,3,3,0,0,0,.21-1.06,2.83,2.83,0,0,0-.2-1c0-.08-.08-.15-.11-.22a2.42,2.42,0,0,0,.82-.86,2.15,2.15,0,0,0,.28-1.08,2.08,2.08,0,0,0-.1-.47,3.49,3.49,0,0,0,1.36-2.64v0a2.29,2.29,0,0,0-.46-1.38A3.4,3.4,0,0,0,158.8,120Z"/><path class="cls-3" d="M106,141a9.45,9.45,0,0,1-6.45-1.68,2.67,2.67,0,0,1,1-2.8c1.4-1.4,1.59-2.87.18-2.79-.4-1.11-.78-1.63-1.72-1.1,0-1.43-1.14-1.39-1.48-.05s.3,3.52.73,4.85a9.77,9.77,0,0,1,.33,1.25,18.85,18.85,0,0,1-3-2.89,3.1,3.1,0,0,1,1-2.91c1.24-1.39,1.44-3,.22-3.12-.32-1.3-.34-2.07-1.15-1.61,0-1.61-1.08-2-1.4-.5a12.4,12.4,0,0,0,.09,5c.13.63.27,1.37.37,2a30.23,30.23,0,0,1-3-5.21c-.13-2.38.6-3,1.4-3.63,1.43-1.15,1.87-2.84.71-3.29-.11-1.48,0-2.31-.86-2,.27-1.7-.73-2.38-1.28-.91a14.83,14.83,0,0,0-.72,5.34c0,.91,0,2,0,2.89a46.22,46.22,0,0,1-1.68-4.92,2.82,2.82,0,0,1,1.46-2.61c1.3-.84,1.81-2.24.87-2.74,0-1.27.2-2-.55-1.83.38-1.42-.4-2.09-1-.9a12.54,12.54,0,0,0-1,4.47c0,.62-.11,1.35-.17,2a62.85,62.85,0,0,1-1.22-6.19c.36-1.38.92-1.51,1.52-1.64,1.24-.26,1.86-1.43,1.09-2.35.19-1.26.41-1.88-.26-2.08.49-1.24-.11-2.26-.75-1.34a10.87,10.87,0,0,0-1.47,4c-.09.56-.23,1.2-.36,1.78-.18-1.44-.34-3-.46-4.54.31-1.56.85-1.66,1.43-1.77,1.09-.2,1.64-1.22,1-2.08.16-1.12.36-1.66-.23-1.86.43-1.1-.1-2-.68-1.22a9.39,9.39,0,0,0-1.28,3.53c-.09.5-.21,1.07-.32,1.59,0-.42,0-.85-.07-1.28a9.19,9.19,0,0,1,.35-2.61,6.35,6.35,0,0,1,1.25-2.55c.77-1.09.62-2.39-.73-1.46,0-2.38-1.3-1.46-1.79.38-.9-.32-1.26.89-.75,2a11.93,11.93,0,0,1,.65,1.6,14,14,0,0,1,.44,2.8c0,1.4.11,2.77.21,4.09a6,6,0,0,1-.74-2.55c-.06-.84-.2-3.32-1.13-4.14s-1.49.32-1.31,1.32c-.85-.17-1,1.58-.1,2.55a1,1,0,0,0,.29,1.87,7.73,7.73,0,0,1,3.15,2.93q.28,3,.72,5.67a7.19,7.19,0,0,1-1.1-2.64c-.25-1-.94-3.9-2.35-4.59s-1.92.86-1.48,2c-1.17.07-1,2.23.4,3.08a1.16,1.16,0,0,0,.77,2.13,5.45,5.45,0,0,1,4.06,1.68,56.37,56.37,0,0,0,1.45,6A7.36,7.36,0,0,1,87.49,123c-.45-1-1.73-3.9-3.43-4.29s-2,1.41-1.29,2.51c-1.29.37-.74,2.62,1,3.16-1.06,1.08-.08,2.34,1.23,2a6.22,6.22,0,0,1,4.53.57,37.63,37.63,0,0,0,2.23,5.26,10.18,10.18,0,0,1-2.61-2.67c-.6-.82-1.51-2.58-3.37-2.53a1.58,1.58,0,0,0-1.15,2.76c-1.35.68-.56,2.72,1.34,2.81-1,1.31.45,2,1.8,1.82a15.06,15.06,0,0,1,5.07-.3,22.5,22.5,0,0,0,2.61,3.49,4,4,0,0,1-2.22-.81c-.8-.54-3.17-2.16-5-1.56s-1.49,2.15-.38,2.64c-1.17,1,.21,2.41,2.16,1.93-.67,1.38,1,1.54,2.32,1,1-.46,2.8-1.75,4.41-1.92a15.39,15.39,0,0,0,3.27,2.27,4.11,4.11,0,0,1-1.46-.19c-.92-.25-3.64-1-5.43,0s-1.13,2.35.1,2.48c-1,1.18.66,2.09,2.54,1.12-.43,1.41,1.32,1.08,2.54.21a24.06,24.06,0,0,1,3.79-2.81,12.16,12.16,0,0,0,1.47.37A27.23,27.23,0,0,1,106,141Z"/><path class="cls-3" d="M157.23,121.24c.7-1.1.45-2.9-1.29-2.51s-3,3.31-3.43,4.29a7.36,7.36,0,0,1-1.51,2.34,56.37,56.37,0,0,0,1.45-6,5.47,5.47,0,0,1,4.06-1.68,1.16,1.16,0,0,0,.77-2.13c1.43-.85,1.57-3,.4-3.08.44-1.14,0-2.71-1.48-2s-2.1,3.61-2.34,4.59a7.15,7.15,0,0,1-1.11,2.64q.45-2.7.72-5.67a7.85,7.85,0,0,1,3.15-2.93,1,1,0,0,0,.29-1.87c.92-1,.75-2.72-.1-2.55.18-1-.36-2.16-1.31-1.32s-1.07,3.3-1.13,4.14a5.92,5.92,0,0,1-.74,2.55c.1-1.33.17-2.69.21-4.09a14.61,14.61,0,0,1,.44-2.8,10.66,10.66,0,0,1,.66-1.6c.5-1.15.15-2.36-.75-2-.5-1.84-1.85-2.76-1.8-.38-1.35-.93-1.5.37-.72,1.46a6.5,6.5,0,0,1,1.24,2.55,9.19,9.19,0,0,1,.35,2.61c0,.43,0,.86-.07,1.28-.11-.52-.23-1.09-.31-1.59a9.57,9.57,0,0,0-1.29-3.53c-.57-.8-1.11.12-.67,1.22-.6.2-.4.74-.24,1.86-.68.86-.13,1.88,1,2.08.59.11,1.12.21,1.43,1.77-.12,1.58-.28,3.1-.46,4.54-.13-.58-.26-1.22-.36-1.78a10.87,10.87,0,0,0-1.47-4c-.64-.92-1.24.1-.75,1.34-.67.2-.44.82-.26,2.08-.77.92-.15,2.09,1.09,2.35.61.13,1.17.26,1.52,1.64a62.85,62.85,0,0,1-1.22,6.19c-.06-.65-.13-1.38-.16-2a12.54,12.54,0,0,0-1.06-4.47c-.58-1.19-1.35-.52-1,.9-.75-.14-.59.56-.55,1.83-.94.5-.42,1.9.87,2.74a2.8,2.8,0,0,1,1.46,2.61,46.22,46.22,0,0,1-1.68,4.92c0-.87,0-2,0-2.89a14.83,14.83,0,0,0-.72-5.34c-.54-1.47-1.55-.79-1.27.91-.87-.27-.76.56-.87,2-1.16.45-.71,2.14.71,3.29.8.65,1.53,1.25,1.4,3.63a30.23,30.23,0,0,1-3,5.21c.11-.67.24-1.41.38-2a12.58,12.58,0,0,0,.08-5c-.32-1.46-1.41-1.11-1.39.5-.82-.46-.84.31-1.16,1.61-1.22.11-1,1.73.22,3.12a3.11,3.11,0,0,1,1,2.91,18.89,18.89,0,0,1-3.05,2.89,11.76,11.76,0,0,1,.33-1.25c.43-1.33,1.08-3.52.74-4.85s-1.47-1.38-1.49.05c-.94-.53-1.31,0-1.72,1.1-1.41-.08-1.22,1.39.19,2.79a2.68,2.68,0,0,1,1,2.8A9.43,9.43,0,0,1,134,141a26.51,26.51,0,0,1,2.49,1.4A12.16,12.16,0,0,0,138,142a24.67,24.67,0,0,1,3.8,2.81c1.21.87,3,1.2,2.53-.21,1.89,1,3.55.06,2.54-1.12,1.23-.13,1.93-1.4.1-2.48s-4.5-.28-5.42,0a4.16,4.16,0,0,1-1.47.19,15.14,15.14,0,0,0,3.27-2.27c1.61.17,3.36,1.46,4.42,1.92,1.29.57,3,.41,2.31-1,1.95.48,3.33-1,2.16-1.93,1.11-.49,1.52-2-.38-2.64s-4.24,1-5,1.56a4,4,0,0,1-2.22.81,23.19,23.19,0,0,0,2.62-3.49,15,15,0,0,1,5.06.3c1.35.22,2.83-.51,1.8-1.82,1.9-.09,2.7-2.13,1.34-2.81a1.58,1.58,0,0,0-1.15-2.76c-1.85,0-2.77,1.71-3.37,2.53a10.54,10.54,0,0,1-2.6,2.67,38.87,38.87,0,0,0,2.22-5.26,6.22,6.22,0,0,1,4.53-.57c1.31.3,2.29-1,1.23-2C158,123.86,158.52,121.61,157.23,121.24Z"/><path class="cls-1" d="M97.82,141A22.18,22.18,0,1,0,120,118.8,22.21,22.21,0,0,0,97.82,141Z"/><path class="cls-3" d="M99.05,141a21,21,0,1,0,21-21A21,21,0,0,0,99.05,141Zm2.35,0a18.6,18.6,0,1,1,18.6,18.6A18.62,18.62,0,0,1,101.4,141Z"/><polygon class="cls-3" points="116.15 145.91 113.76 138.58 120 134.05 126.24 138.58 123.85 145.91 116.15 145.91"/><path class="cls-3" d="M116.53,123.4a7.88,7.88,0,0,0-2.61,3.2c1.51.18,4.32.55,6,2,1.72-1.32,5.28-1.88,6.2-1.88a7.85,7.85,0,0,0-2.59-3.27A17.73,17.73,0,0,0,116.53,123.4Z"/><path class="cls-3" d="M102.24,138.59a7.91,7.91,0,0,0,2.17,3.51c.67-1.37,1.94-3.9,3.82-5-.69-2.07,0-5.62.26-6.48a7.71,7.71,0,0,0-3.94,1.37A17.83,17.83,0,0,0,102.24,138.59Z"/><path class="cls-3" d="M137.76,138.59a7.91,7.91,0,0,1-2.17,3.51c-.67-1.37-1.94-3.9-3.82-5,.69-2.07,0-5.62-.26-6.48a7.71,7.71,0,0,1,3.94,1.37A17.83,17.83,0,0,1,137.76,138.59Z"/><path class="cls-3" d="M127.49,156.94a8,8,0,0,1-4-1.14c1.14-1,3.23-2.92,3.76-5,2.18.1,5.42-1.48,6.17-2a7.79,7.79,0,0,1-.26,4.17A17.82,17.82,0,0,1,127.49,156.94Z"/><path class="cls-3" d="M112.51,156.94a8,8,0,0,0,4-1.14c-1.14-1-3.23-2.92-3.76-5-2.18.1-5.42-1.48-6.17-2a7.79,7.79,0,0,0,.26,4.17A17.71,17.71,0,0,0,112.51,156.94Z"/><path class="cls-3" d="M142.22,97.78c-1.39.28-13.23,4.49-13.73,4.59s-10.84-.63-11.28-.75-8-3.26-9.75-3.42-5.41-.26-7,2.73c-1.21.14-3.29.55-3.33.87s3.35.78,3.35.78a16.89,16.89,0,0,0,2.37,2.81A31.22,31.22,0,0,0,105,110c1,1.69,2.68,3.6,6.72,5.1a11.1,11.1,0,0,0,6.66,1.28l-2.25,3.71a3.27,3.27,0,0,0-1.79,0,7.85,7.85,0,0,0-.8.93c.35,0,1.59,0,2.21,0a11,11,0,0,1,1.18,0c.49-.59,2.81-3.94,3.59-5.08a10.34,10.34,0,0,0,4.71-3.08,6.5,6.5,0,0,0,1.71-2.81,53.25,53.25,0,0,1-15.71-1.51c3.91,1,16.94.44,19.55.64-.81-1-8.16-4.83-10.3-5.75a16.14,16.14,0,0,1,7.85,3.25,17.29,17.29,0,0,0,1.45-2c1.55-1,14.08-6.41,14.94-6.78S143.61,97.51,142.22,97.78ZM104,102a1,1,0,0,1-1.25-.72A1.09,1.09,0,1,1,104,102Z"/><path class="cls-4" d="M89.62,180.46c-1.83,1.36-3,.69-3.72-1.1,0,.19-2.37-5.84-3.65-10-3.54-.76-8.21-4.5-9.83-7.92.48,5.45,4.33,15.71,8.9,22.81,4.81,3,13.36,2.66,14.44-.12a4.46,4.46,0,0,0-.5-4.71c0,.09.09.18.14.27C93.35,177.54,91.67,178.94,89.62,180.46Z"/><path class="cls-4" d="M157.76,169.37c-1.29,4.15-3.68,10.19-3.66,10-.74,1.79-1.89,2.46-3.72,1.1-2-1.52-3.73-2.92-5.78-.76l.15-.27a4.44,4.44,0,0,0-.51,4.71c1.08,2.78,9.63,3.16,14.44.12,4.57-7.1,8.42-17.36,8.9-22.81C166,164.87,161.29,168.61,157.76,169.37Z"/><path class="cls-1" d="M85.9,179.36c.74,1.79,1.89,2.46,3.72,1.1,2-1.52,3.73-2.92,5.78-.76-.05-.09-.1-.18-.14-.27-.78-1.47-1.68-3-2.47-4.39C88.51,175.39,85.65,177,85.9,179.36Z"/><path class="cls-1" d="M150.38,180.46c1.83,1.36,3,.69,3.72-1.1.25-2.4-2.61-4-6.89-4.32-.79,1.35-1.68,2.92-2.46,4.39l-.15.27C146.65,177.54,148.33,178.94,150.38,180.46Z"/><path class="cls-3" d="M154.1,179.36c0,.2,2.37-5.84,3.66-10a33.2,33.2,0,0,0,1.28-5.26c.48-4.06-6.38-5.33-15.4-4.06-8.09,1.14-16.29,5.29-23.61,5.32s-15.58-4.18-23.67-5.32c-9-1.27-15.88,0-15.4,4.06a33.39,33.39,0,0,0,1.29,5.26c1.28,4.15,3.67,10.18,3.65,10-.25-2.4,2.61-4,6.89-4.32a30.94,30.94,0,0,1,12.41,1.81,38.34,38.34,0,0,0,14.68,2.59h.24a38.34,38.34,0,0,0,14.68-2.59A30.94,30.94,0,0,1,147.21,175C151.49,175.39,154.35,177,154.1,179.36Z"/><path class="cls-1" d="M96.2,166.35a1.42,1.42,0,0,0-1.13-.88c-.81-.1-.9.47-.91.54,0,.47.39.72.8.92l.86.41a2.68,2.68,0,0,1,1.11.92,2,2,0,0,1,.25,1.22A1.89,1.89,0,0,1,96,171.12a3.18,3.18,0,0,1-1.39.17,2.57,2.57,0,0,1-2.44-1.66l1.29-.61a1.47,1.47,0,0,0,1.22,1.07c.34,0,1,0,1-.64s-.22-.65-1.23-1.16-1.89-1.07-1.73-2.38c.13-1.1,1.07-1.79,2.52-1.62a2.72,2.72,0,0,1,2.2,1.48Z"/><path class="cls-1" d="M97.67,171.54l.11-.58.81.15,1-5.43-.82-.15.11-.57,3.19.58-.11.58-.83-.15-1,5.41.83.15-.11.6Z"/><path class="cls-1" d="M103.4,165.81l1.46.31,1.14,3.43a4.67,4.67,0,0,1,.14.5c0,.06.06.32.08.37h0l.1-.67c.07-.45.08-.5.13-.75l.52-2.44,1.4.3L107,173.42l-1.25-.27-1.17-3.56a8.75,8.75,0,0,1-.29-1.19h0c0,.19-.17,1-.2,1.19l-.65,3.07-1.41-.29Z"/><path class="cls-1" d="M109.61,169.44a2.22,2.22,0,0,1,3-1.85,2.65,2.65,0,0,1,1.44.75,2.31,2.31,0,0,1,.36,1.94l-1.53-.31c0-.32.18-1-.58-1.2a1,1,0,0,0-.62.09,1,1,0,0,0-.4.67l-.5,2.49c-.07.36-.21,1,.63,1.22.63.13.92-.32,1.06-1l1.53.32a3.36,3.36,0,0,1-.23.79,1.76,1.76,0,0,1-1,1,2.67,2.67,0,0,1-1.61.13,2.51,2.51,0,0,1-1.68-.94c-.23-.32-.53-.77-.26-2.11Z"/><path class="cls-1" d="M115.75,168.42l4.75.46-.12,1.22-3.21-.31-.14,1.42,2.21.21-.12,1.22-2.18-.21-.15,1.57,3.41.33-.12,1.24-5-.47Z"/><path class="cls-1" d="M125,169.37a2.45,2.45,0,0,1,2-2,2.06,2.06,0,0,1,2.66,1.44,3,3,0,0,1-1,2.58l-.75.91a.92.92,0,0,0-.29.66l2.86-.61.25,1.18-4.51,1c-.14-1.3,0-1.85,1.07-3.32.77-1,1.09-1.43,1-2a.84.84,0,0,0-1.05-.71c-.86.18-.86,1.08-.86,1.43Z"/><path class="cls-1" d="M130.78,167.66a2.08,2.08,0,0,1,1.61-1.52,2,2,0,0,1,2,.64,5.6,5.6,0,0,1,1,2.29,6,6,0,0,1,.05,2.49,1.91,1.91,0,0,1-1.49,1.43c-2.32.51-2.87-2-3.07-3A4.76,4.76,0,0,1,130.78,167.66Zm3,1c-.28-1.29-.7-1.54-1.17-1.44s-.76.38-.46,1.76l.32,1.43c.33,1.56.79,1.65,1.22,1.56.64-.14.62-.86.36-2Z"/><path class="cls-1" d="M136.17,166.51a2.08,2.08,0,0,1,1.65-1.48,2,2,0,0,1,2,.69,5.44,5.44,0,0,1,.93,2.32,5.82,5.82,0,0,1,0,2.48,1.89,1.89,0,0,1-1.52,1.39c-2.33.45-2.82-2.11-3-3A4.78,4.78,0,0,1,136.17,166.51Zm3,1.05c-.25-1.29-.66-1.55-1.13-1.47s-.77.36-.5,1.75l.28,1.44c.3,1.56.75,1.66,1.18,1.58.64-.12.64-.84.42-2Z"/><path class="cls-1" d="M143.21,171.12a7.31,7.31,0,0,0,1.65-3.18,2,2,0,0,1-1.14.47,2.15,2.15,0,0,1-1.51-.43,2.21,2.21,0,0,1-.75-1.41,2.12,2.12,0,0,1,2-2.55,2.35,2.35,0,0,1,1.94.56,2.86,2.86,0,0,1,.83,1.9,7.8,7.8,0,0,1,0,1.32,9.49,9.49,0,0,1-1.14,3.1Zm-.29-4.75c0,.3.12,1.08,1,1,.67-.08.83-.57.74-1.27,0-.45-.24-1.13-1-1S142.88,166.05,142.92,166.37Z"/><path class="cls-1" d="M155.93,85.48a.79.79,0,0,0-.84-.17l-1.76.68a5,5,0,0,1-1.63.26h-4.61c0-.61,0-1.45.07-2.73l0-3h4.86a4.51,4.51,0,0,1,1.56.25l.72.27a.8.8,0,0,0,1.09-.72l.13-3.63a.77.77,0,0,0-.22-.58.81.81,0,0,0-.58-.25H143.94a4.72,4.72,0,0,0-3.42,1.21c0-.25,0-.41,0-.41a.78.78,0,0,0-.23-.55.79.79,0,0,0-.57-.25H117.3a.8.8,0,0,0-.8.76l0,.34a1.91,1.91,0,0,1-.27,1.08l-1.46,2.1L113.28,78s-.13-.23-.18-.32l.31-.67a.77.77,0,0,0,.07-.34.85.85,0,0,0-.12-.43.81.81,0,0,0-.68-.37H97.34a.83.83,0,0,0-.74.48l-2.07,4.5L93,76.43a.8.8,0,0,0-.75-.54H84.56a.81.81,0,0,0-.69.39.82.82,0,0,0,0,.79l.32.59a3,3,0,0,1,.24,1.5l-.13,8.54A2.91,2.91,0,0,1,84,89.25l-.45.76a.81.81,0,0,0,0,.81.78.78,0,0,0,.69.4h6.18A.8.8,0,0,0,91.12,90l-.32-.59L90.64,89a4.52,4.52,0,0,1-.1-1.07s0-.36,0-.88l1.31,3.61a.81.81,0,0,0,.75.53h3.46a.8.8,0,0,0,.75-.51l1.44-3.63c0,.14,0,.62,0,.62a3.06,3.06,0,0,1-.3,1.56l-.45.75a.87.87,0,0,0-.11.41.83.83,0,0,0,.11.4.79.79,0,0,0,.69.4h6.72a.79.79,0,0,0,.68-.39.78.78,0,0,0,.12-.41.75.75,0,0,0-.1-.38l-.31-.59a2.71,2.71,0,0,1-.26-1.38s.12-8.66.12-8.66c0-.73.17-1.37.35-1.39s.41.29.88,1a66.69,66.69,0,0,0,4.32,6.65l0,2.08a3,3,0,0,1-.3,1.56L110,90a.87.87,0,0,0-.11.41.83.83,0,0,0,.11.4.79.79,0,0,0,.69.4h7.88a.82.82,0,0,0,.69-.39.87.87,0,0,0,.11-.41.75.75,0,0,0-.1-.38l-.31-.59-.17-.42a4.16,4.16,0,0,1-.09-1s0-2,0-2.37l3.92-5.65c1.18-1.71,2-2.1,2.36-2.19a2.66,2.66,0,0,1,.25,1.24s-.12,8.6-.12,8.6a2.88,2.88,0,0,1-.3,1.55l-.44.76a.77.77,0,0,0-.11.41.82.82,0,0,0,.1.4.8.8,0,0,0,.7.4h7.87a.82.82,0,0,0,.69-.39.87.87,0,0,0,.11-.41.85.85,0,0,0-.09-.38l-.32-.59-.16-.42a3.62,3.62,0,0,1-.1-1s0-1.49,0-2.4h3.24a6.12,6.12,0,0,1,1.77.28l.57.16a.81.81,0,0,0,.51,0v.33a4.68,4.68,0,0,0,1.41,3.64A4.94,4.94,0,0,0,144,91.22h9.92a.8.8,0,0,0,.76-.55l1.46-4.36A.78.78,0,0,0,155.93,85.48Zm-18-4.76a6.35,6.35,0,0,1-1.8.29h-3v-.46h3.62a7.39,7.39,0,0,1,1.3.12l-.16,0Z"/><path class="cls-3" d="M125.31,76.89c.7.23.91,1.47.91,2.22,0,0-.12,8.61-.12,8.61a3.84,3.84,0,0,1-.44,2l-.26.46h7.19l-.16-.29-.25-.65a4.63,4.63,0,0,1-.13-1.2s0-3.22,0-3.22a.21.21,0,0,1,.2-.2h4a7,7,0,0,1,2.05.33l.32.09c0-.43.05-3.12.05-3.56l-.53.16a7.35,7.35,0,0,1-2.09.33h-3.77a.18.18,0,0,1-.14-.06.2.2,0,0,1-.06-.14l0-2.06a.2.2,0,0,1,.2-.2h4.41a7.38,7.38,0,0,1,2.22.32l.44.14c0-.43.08-2.78.09-3.12H125.31Z"/><path class="cls-3" d="M124.81,76.89h-7.32v.16a3.27,3.27,0,0,1-.23,1.19c0,.13-.6,1-2.34,3.46a.22.22,0,0,1-.17.09h0a.22.22,0,0,1-.16-.09s-2.13-3.11-2.12-3.11l-.37-.71,0-.15.09-.39.21-.45H97.46c-.1.23-2.85,6.2-2.85,6.2a.2.2,0,0,1-.19.11.21.21,0,0,1-.18-.13l-2.16-6.18H84.89l.16.3A3.66,3.66,0,0,1,85.41,79s-.13,8.7-.13,8.7a3.85,3.85,0,0,1-.43,2l-.27.46h5.5l-.16-.29-.25-.65a4.66,4.66,0,0,1-.13-1.21v-.13l.16-5.06a.2.2,0,0,1,.17-.2.21.21,0,0,1,.22.13l2.68,7.41H96c.09-.25,3-7.58,3-7.58a.2.2,0,0,1,.22-.12.2.2,0,0,1,.17.2l-.08,5a3.94,3.94,0,0,1-.44,2l-.27.46h6l-.16-.29a3.8,3.8,0,0,1-.37-1.86s.12-8.68.12-8.68c0-.79.28-2.3,1.24-2.39.68,0,1.36.76,1.81,1.4l4.47,6.86a.25.25,0,0,1,0,.11l0,2.35a3.91,3.91,0,0,1-.44,2l-.27.46h7.19l-.15-.29-.26-.65a5.26,5.26,0,0,1-.12-1.21s0-2.63,0-2.63a.2.2,0,0,1,0-.11l4.07-5.85C122.86,77.93,123.86,77.09,124.81,76.89Z"/><path class="cls-3" d="M153.69,86.92a5.89,5.89,0,0,1-2,.33h-5l-.43-.06c-.09,0-.11-.06-.12-.15l0-.23.1-6.62c0-.47.24-.64.84-.64h5a5.5,5.5,0,0,1,1.91.31l.47.18c0-.45.1-2.81.11-3.15H143.94c-2.41,0-3.66,1.25-3.7,3.7,0,0-.07,5.79-.07,5.83a3.71,3.71,0,0,0,1.09,2.9,4,4,0,0,0,2.74.9h9.77c.08-.23,1.07-3.18,1.29-3.82Z"/><path class="cls-1" d="M78.52,79.83v0s0,0,0,0v-.08C78.52,73.57,70.25,67,62,63.09l-.5-.24v.56c.15,7.66,1.6,12.65,8,15.12A26.9,26.9,0,0,0,63.72,80c-5,1.84-10.3,7-12,9.39l-.3.42.5.11c2.41.58,10.23,1.2,15.24-.65a25.58,25.58,0,0,0,5.34-2.69,11.78,11.78,0,0,0-1.64,5.68c0,3.67,2.07,7.12,5.34,11.11l.35.43.23-.51c2.26-5.09,4-11,4-16C80.79,84.28,80.12,81.66,78.52,79.83Z"/><path class="cls-3" d="M77.92,80.17l0-.06c-2.18,1-5.15,2.23-11,4.4C62.3,86.18,56.11,88.19,54.1,88.8c2-.88,7.78-3.27,12.47-5,5.87-2.16,9-3.17,11.26-3.82v-.06c0-.07,0-.14,0-.22,0-5.7-7.75-11.92-15.67-15.73.22,7.66,1.75,12.25,8.71,14.37l-.07.67A25.59,25.59,0,0,0,64,80.63c-4.6,1.7-9.41,6.27-11.35,8.72,2.79.52,9.72,1,14.29-.73a24,24,0,0,0,6.36-3.36l.5.47a11.84,11.84,0,0,0-2.24,6.54c0,3.32,1.85,6.47,4.83,10.18,2.47-5.72,3.76-11,3.76-15.07C80.11,84.26,79.39,81.77,77.92,80.17Zm-.49-.09C73,77,69.69,73.47,63.65,66.33A156.43,156.43,0,0,1,77.43,80.08ZM76,99.72c0-9.36.22-14.15,1.56-19.41A156.93,156.93,0,0,1,76,99.72Z"/><path class="cls-1" d="M159.17,87.29c0,4.94,1.77,10.9,4,16l.22.51.36-.43c3.27-4,5.33-7.44,5.33-11.11a11.76,11.76,0,0,0-1.63-5.68,25.34,25.34,0,0,0,5.34,2.69c5,1.85,12.82,1.23,15.24.65l.5-.11-.31-.42c-1.72-2.37-7-7.55-12-9.39a26.82,26.82,0,0,0-5.75-1.46c6.41-2.47,7.87-7.46,8-15.12v-.56l-.5.24c-8.3,3.87-16.58,10.48-16.58,16.62v.08s0,0,0,0v0C159.84,81.66,159.17,84.28,159.17,87.29Z"/><path class="cls-3" d="M159.85,87.38c0,4.12,1.29,9.35,3.77,15.07,3-3.71,4.83-6.86,4.83-10.18a11.91,11.91,0,0,0-2.24-6.54l.5-.47a24.08,24.08,0,0,0,6.35,3.36c4.58,1.68,11.51,1.25,14.3.73-1.94-2.45-6.76-7-11.35-8.72A25.59,25.59,0,0,0,169.16,79l-.08-.67c7-2.12,8.49-6.71,8.71-14.37-7.92,3.81-15.66,10-15.66,15.73V80c2.24.65,5.38,1.66,11.25,3.82,4.7,1.73,10.47,4.12,12.48,5-2-.61-8.21-2.62-12.74-4.29-5.88-2.17-8.86-3.43-11-4.4l-.06.06C160.58,81.77,159.85,84.26,159.85,87.38Zm16.47-21c-6,7.14-9.35,10.62-13.78,13.75A155.06,155.06,0,0,1,176.32,66.33Zm-13.87,14c1.34,5.26,1.6,10,1.57,19.41A155.21,155.21,0,0,1,162.45,80.31Z"/></svg>
