<svg id="Layer_1" data-name="Layer 1" width="240" height="240" xmlns="http://www.w3.org/2000/svg" viewBox="0 0 240 240"><defs><style>.cls-1{fill:#127c29;}.cls-2{fill:#f29100;}.cls-3{fill:#13a438;}.cls-4{fill:#00ace8;}.cls-5{fill:#fff;}.cls-6{fill:#096420;}.cls-7{fill:#1d1d1b;}</style></defs><path class="cls-1" d="M182,134c-3.08-4.06-6.41-9.1-7.77-15.72a162.48,162.48,0,0,1-1.76-21.4c0-8.72,1-14.5,3.36-18.77.74-1.35,2.46-4.88,3.4-6.9a4,4,0,0,0,.18-2.66A27.94,27.94,0,0,0,175,58.49a3.11,3.11,0,0,0-3.45-1.31,62.38,62.38,0,0,1-17.3,2.34c-6.41,0-17.14-2.57-24.4-5A47.65,47.65,0,0,1,122.74,51l-.27-.16a4.35,4.35,0,0,0-4.94,0l-.28.16a47.52,47.52,0,0,1-7.06,3.58c-7.25,2.38-18,5-24.41,5a62.36,62.36,0,0,1-17.29-2.34,3.09,3.09,0,0,0-3.44,1.31,27.8,27.8,0,0,0-4.49,10.06,4,4,0,0,0,.18,2.66c.93,2,2.66,5.55,3.4,6.9,2.32,4.27,3.36,10,3.36,18.77a162.48,162.48,0,0,1-1.76,21.4C64.39,124.9,61.05,129.94,58,134a3.41,3.41,0,0,0-.59,2.94,54.18,54.18,0,0,0,7.77,21.48A41.68,41.68,0,0,0,82.32,174c2.86,1.38,30.1,14.16,32.82,15.08a19.09,19.09,0,0,0,4.86.84,19,19,0,0,0,4.85-.84c2.73-.92,30-13.7,32.83-15.08a41.68,41.68,0,0,0,17.17-15.6,54.18,54.18,0,0,0,7.77-21.48A3.41,3.41,0,0,0,182,134Z"/><path class="cls-2" d="M173.39,118.46c-.86-4.19-1.78-16.25-1.78-21.58,0-8.87,1.07-14.78,3.47-19.19.73-1.34,2.45-4.85,3.37-6.85a3.11,3.11,0,0,0,.12-2.11A27.05,27.05,0,0,0,174.22,59a2.21,2.21,0,0,0-2.49-.94,63.51,63.51,0,0,1-17.52,2.36c-6.55,0-17.11-2.51-24.68-5a48.77,48.77,0,0,1-7.23-3.65L122,51.6a3.25,3.25,0,0,0-2-.65,3.2,3.2,0,0,0-2,.65l-.28.16a48.77,48.77,0,0,1-7.23,3.65c-7.57,2.49-18.13,5-24.69,5a63.54,63.54,0,0,1-17.51-2.36,2.21,2.21,0,0,0-2.49.94,27.05,27.05,0,0,0-4.35,9.74,3.11,3.11,0,0,0,.12,2.11c.92,2,2.64,5.51,3.37,6.85,2.4,4.41,3.47,10.32,3.47,19.19,0,5.33-.92,17.39-1.78,21.58-1.39,6.79-4.79,11.94-7.93,16.08a2.54,2.54,0,0,0-.41,2.28,53,53,0,0,0,7.63,21.12,40.82,40.82,0,0,0,16.81,15.28c2.85,1.38,30,14.12,32.72,15a18.38,18.38,0,0,0,4.57.79,18.38,18.38,0,0,0,4.57-.79c2.7-.91,29.87-13.66,32.72-15a40.82,40.82,0,0,0,16.81-15.28,53,53,0,0,0,7.63-21.12,2.54,2.54,0,0,0-.41-2.28C178.18,130.4,174.78,125.25,173.39,118.46Z"/><path class="cls-1" d="M177.24,136.74a48.61,48.61,0,0,1-6.89,18.82,36.57,36.57,0,0,1-15,13.66c-3.77,1.81-29.66,13.92-32.22,14.83a14.27,14.27,0,0,1-3.14.55,14.8,14.8,0,0,1-3.13-.54c-2.57-.92-28.46-13-32.22-14.84a36.53,36.53,0,0,1-15-13.66,48.61,48.61,0,0,1-6.89-18.82.42.42,0,0,1,.08-.33c2.75-3.72,6.59-9.53,8.13-17.06.93-4.53,1.87-16.89,1.87-22.47,0-9.65-1.24-16.23-4-21.32-.61-1.12-2-4-2.93-5.94a.42.42,0,0,1,0-.29A21.68,21.68,0,0,1,68.5,63a.43.43,0,0,1,.48-.19,66.1,66.1,0,0,0,16.8,2c7,0,18.17-2.63,26.08-5.23a47.75,47.75,0,0,0,7.91-3.93.47.47,0,0,1,.46,0,47.75,47.75,0,0,0,7.91,3.93c7.91,2.6,19,5.23,26.07,5.23a66.12,66.12,0,0,0,16.81-2,.43.43,0,0,1,.48.19,21.68,21.68,0,0,1,2.65,6.33.42.42,0,0,1,0,.29c-.92,2-2.32,4.82-2.93,5.94-2.78,5.09-4,11.67-4,21.32,0,5.58.94,17.94,1.87,22.47,1.54,7.53,5.38,13.34,8.13,17.06A.42.42,0,0,1,177.24,136.74Z"/><path class="cls-3" d="M112.14,60.48c-8,2.62-19.21,5.27-26.36,5.27a66.09,66.09,0,0,1-16.68-2,20.75,20.75,0,0,0-2.34,5.65c.92,1.94,2.25,4.67,2.84,5.75,2.85,5.23,4.12,11.93,4.12,21.74,0,5.62-.94,18.08-1.88,22.65a44.09,44.09,0,0,1-8.18,17.25,48,48,0,0,0,6.74,18.3A35.65,35.65,0,0,0,85,168.42c3.76,1.81,29.59,13.89,32.13,14.8a15.34,15.34,0,0,0,2.51.48v-127A42.07,42.07,0,0,1,112.14,60.48Z"/><path class="cls-4" d="M169.6,155.08a47.61,47.61,0,0,0,6.73-18.3,44.16,44.16,0,0,1-8.17-17.25c-.93-4.57-1.88-17-1.88-22.65,0-9.81,1.27-16.51,4.12-21.74.59-1.08,1.92-3.81,2.84-5.75a20.44,20.44,0,0,0-2.34-5.65,66.16,66.16,0,0,1-16.69,2c-7.14,0-18.38-2.65-26.35-5.27a42.07,42.07,0,0,1-7.53-3.75v127a14.26,14.26,0,0,0,2.52-.49c2.54-.9,28.37-13,32.12-14.79A35.65,35.65,0,0,0,169.6,155.08Z"/><path class="cls-5" d="M144.39,151.15s0,0,0,0h0S144.39,151.15,144.39,151.15Z"/><path class="cls-6" d="M169.89,154.63c0-.07-.13-.13-.3-.16a2.34,2.34,0,0,0-.72-.42,11.71,11.71,0,0,0-3.27-.64l-.44,0a11.17,11.17,0,0,0-4.54,1.42,5.72,5.72,0,0,1-1.59.68,1.08,1.08,0,0,0-.32-.09c-1.66,0-3.69.79-6.1,2.42a2.05,2.05,0,0,1,.37-.74,5.3,5.3,0,0,0,.79-2.38,1,1,0,0,0-.16-.61l-.17-.21a4.67,4.67,0,0,0-1.65-1.55,2.67,2.67,0,0,0-.69-.24.42.42,0,0,0-.28-.1c-.21,0-.47.09-.76.78l-.16.34a5.12,5.12,0,0,0-.68,2.06,1.12,1.12,0,0,0,.27.79,6.18,6.18,0,0,0,1.22,1,2.51,2.51,0,0,1,.74.64,2.94,2.94,0,0,1,.2.85,64.79,64.79,0,0,0-5.36,4.51,2.45,2.45,0,0,1,.37-.77,5.1,5.1,0,0,0,.79-2.38,1,1,0,0,0-.15-.6l-.17-.21a4.67,4.67,0,0,0-1.65-1.55,2.24,2.24,0,0,0-.69-.24.37.37,0,0,0-.28-.1c-.21,0-.46.09-.76.78l-.16.34a5.13,5.13,0,0,0-.68,2.05,1.15,1.15,0,0,0,.27.8,6.42,6.42,0,0,0,1.22,1,3.37,3.37,0,0,1,.75.64,3.47,3.47,0,0,1,.21,1.06l-.06.06a39.66,39.66,0,0,1-4.32,3.66,20.63,20.63,0,0,1-3.26,1.56.48.48,0,0,0,.05-.17,3.1,3.1,0,0,1,.62-1.86,6.49,6.49,0,0,0,1-2.93,1.26,1.26,0,0,0-.18-.73l-.22-.27a5.77,5.77,0,0,0-2-1.9,2.6,2.6,0,0,0-.86-.29.48.48,0,0,0-.31-.13c-.22,0-.52.12-.88.94l-.2.42a6.41,6.41,0,0,0-.84,2.54,1.43,1.43,0,0,0,.32,1,8.85,8.85,0,0,0,1.51,1.27,3,3,0,0,1,.93.81,3.69,3.69,0,0,1,.28,1.41,2.26,2.26,0,0,1,0,.26c-2.16.82-4.9,1.72-7.82,2.55a4,4,0,0,1,1.34-1.6c.66-.47,2.31-2.25,2.31-3.17a.47.47,0,0,0,0-.17l-.08-.3a4.19,4.19,0,0,0-1.13-2.22,2.25,2.25,0,0,0-.7-.46.34.34,0,0,0-.24-.18c-.21,0-.55,0-1.24.72l-.37.37c-.77.74-2,1.94-2,2.9a1.21,1.21,0,0,0,.06.34,5.93,5.93,0,0,0,.92,1.52,2.38,2.38,0,0,1,.55,1v0a3.88,3.88,0,0,1-.44,1.57c-2.27.64-4.44,1.18-6.11,1.52a15.44,15.44,0,0,0-9,5.81l-.09.23V180a1.09,1.09,0,0,0,.93,1.17c1,.19,1.84-.59,2.88-2l.07-.1.41-1.12s.25-.57.28-.66a12.44,12.44,0,0,1,5-2.31c2-.41,4.46-1,7-1.76l.07,0,.53.26c.37.17.38.35.4.64l0,.22c.05.44,1,1.31,1.21,1.47a3.21,3.21,0,0,0,1.72.51,3.81,3.81,0,0,0,2-.27l.21-.12a6.15,6.15,0,0,0,2.25-1.86,6.45,6.45,0,0,1,1-1.08l-.39-.3a15.11,15.11,0,0,1-5,.23,17.17,17.17,0,0,0-2.41-.21c3.14-.94,6-1.92,8.06-2.79l.51.11a.79.79,0,0,1,.67.53l.12.19a6,6,0,0,0,1.83,1.13,3.67,3.67,0,0,0,1.86.12,3.2,3.2,0,0,0,1.79-.71l.15-.16a4.5,4.5,0,0,0,1.29-2.26,4.54,4.54,0,0,1,.47-1.24l-.5-.19a13.57,13.57,0,0,1-4.69,1.31c-.34,0-.76.06-1.25.12.29-.15.57-.31.81-.46a39.59,39.59,0,0,0,4.53-3.81l.59-.55.45.09a.87.87,0,0,1,.74.55l.12.22a7.15,7.15,0,0,0,2,1.18,4.9,4.9,0,0,0,3.91-.63l.15-.15a4.79,4.79,0,0,0,1.39-2.37,5.41,5.41,0,0,1,.5-1.3l-.49-.2a15.15,15.15,0,0,1-5.06,1.38,17.81,17.81,0,0,0-2.7.36,60.89,60.89,0,0,1,4.87-4.06l.38.07c.54.1.63.23.79.44l.12.17a7.75,7.75,0,0,0,2.09,1,7.86,7.86,0,0,0,4.28-.18l.2-.11a3.89,3.89,0,0,0,1.81-1.62,2.63,2.63,0,0,1,.68-.88l-.39-.29a25.39,25.39,0,0,1-5.87.64c-.87,0-2,0-3.07.08a16.06,16.06,0,0,1,1.83-1.08l.08-.05.43-.25a14.09,14.09,0,0,1,2.87-.94h0l.11,0,.09,0s.22,0,.22,0l.52,0a6.44,6.44,0,0,1,1.45.32,15.13,15.13,0,0,0,2.24.52c1.47.21,3.32-.69,4.44-1.22l.49-.23c.79-.35,1-.56,1-.7A.22.22,0,0,0,169.89,154.63Z"/><path class="cls-6" d="M70.12,154.63c0-.07.13-.13.29-.16a2.65,2.65,0,0,1,.72-.42,11.86,11.86,0,0,1,3.27-.64l.44,0a11.12,11.12,0,0,1,4.55,1.42,5.59,5.59,0,0,0,1.59.68,1.28,1.28,0,0,1,.32-.09c1.68,0,3.7.79,6.11,2.42a2.05,2.05,0,0,0-.37-.74,5.42,5.42,0,0,1-.79-2.38,1,1,0,0,1,.16-.61l.17-.21a4.59,4.59,0,0,1,1.65-1.55,2.93,2.93,0,0,1,.68-.24.48.48,0,0,1,.29-.1c.21,0,.46.09.76.78l.16.34a5.13,5.13,0,0,1,.69,2.06,1.17,1.17,0,0,1-.27.79,6.81,6.81,0,0,1-1.22,1,2.33,2.33,0,0,0-.75.64,2.94,2.94,0,0,0-.2.85A66.57,66.57,0,0,1,93.74,163a2.29,2.29,0,0,0-.38-.77,5.21,5.21,0,0,1-.8-2.38,1,1,0,0,1,.17-.6l.16-.21a4.59,4.59,0,0,1,1.65-1.55,2.43,2.43,0,0,1,.69-.24.4.4,0,0,1,.28-.1c.21,0,.47.09.76.78l.17.34a5.13,5.13,0,0,1,.68,2.05,1.15,1.15,0,0,1-.27.8,6.74,6.74,0,0,1-1.22,1,3,3,0,0,0-.75.64,3.2,3.2,0,0,0-.21,1.06l.06.06a38.72,38.72,0,0,0,4.32,3.66,20.63,20.63,0,0,0,3.26,1.56.84.84,0,0,1,0-.17,3.1,3.1,0,0,0-.62-1.86,6.61,6.61,0,0,1-1-2.93,1.26,1.26,0,0,1,.19-.73l.21-.27a5.8,5.8,0,0,1,2-1.9,2.6,2.6,0,0,1,.86-.29.45.45,0,0,1,.3-.13c.23,0,.53.12.89.94l.21.42a6.4,6.4,0,0,1,.83,2.54,1.43,1.43,0,0,1-.32,1,8.85,8.85,0,0,1-1.51,1.27,3.11,3.11,0,0,0-.94.81,3.89,3.89,0,0,0-.28,1.41,2.28,2.28,0,0,0,0,.26c2.15.82,4.9,1.72,7.83,2.55a4,4,0,0,0-1.34-1.6c-.66-.47-2.32-2.25-2.32-3.17a.47.47,0,0,1,0-.17l.07-.3a4.21,4.21,0,0,1,1.14-2.22,2,2,0,0,1,.7-.46.3.3,0,0,1,.23-.18c.21,0,.55,0,1.25.72l.37.37c.78.74,2,1.94,2,2.9a1.21,1.21,0,0,1-.05.34,6.55,6.55,0,0,1-.92,1.52,2.38,2.38,0,0,0-.55,1,0,0,0,0,0,0,0,3.76,3.76,0,0,0,.45,1.57c2.27.64,4.44,1.18,6.12,1.52a15.44,15.44,0,0,1,9,5.81l.09.23V180a1.09,1.09,0,0,1-.94,1.17c-1,.19-1.83-.59-2.88-2l-.07-.1-.41-1.12s-.23-.57-.28-.66a12.38,12.38,0,0,0-5-2.31c-2-.41-4.47-1-7-1.76l-.08,0-.53.26a.57.57,0,0,0-.39.64l0,.22c-.06.44-1,1.31-1.22,1.47a3.18,3.18,0,0,1-1.72.51,3.83,3.83,0,0,1-2-.27l-.22-.12a6.4,6.4,0,0,1-2.25-1.86,7.52,7.52,0,0,0-1-1.08l.38-.3a15.22,15.22,0,0,0,5.06.23,17,17,0,0,1,2.41-.21c-3.14-.94-6-1.92-8.07-2.79l-.51.11a.79.79,0,0,0-.67.53l-.12.19a6,6,0,0,1-1.83,1.13,3.71,3.71,0,0,1-1.87.12,3.23,3.23,0,0,1-1.79-.71l-.14-.16a4.43,4.43,0,0,1-1.3-2.26,4.22,4.22,0,0,0-.47-1.24l.51-.19a13.51,13.51,0,0,0,4.68,1.31c.34,0,.77.06,1.26.12-.29-.15-.58-.31-.81-.46a39.53,39.53,0,0,1-4.54-3.81l-.58-.55-.46.09a.86.86,0,0,0-.73.55l-.13.22a7.2,7.2,0,0,1-2,1.18,4.88,4.88,0,0,1-3.9-.63l-.16-.15A4.71,4.71,0,0,1,84,162.93a4.91,4.91,0,0,0-.51-1.3l.5-.2a15.15,15.15,0,0,0,5.06,1.38,17.81,17.81,0,0,1,2.7.36,61,61,0,0,0-4.88-4.06l-.36.07c-.55.1-.65.23-.8.44l-.12.17a7.82,7.82,0,0,1-2.1,1,7.9,7.9,0,0,1-4.29-.18l-.19-.11a3.89,3.89,0,0,1-1.81-1.62,2.79,2.79,0,0,0-.67-.88l.4-.29a25.05,25.05,0,0,0,5.85.64c.88,0,2,0,3.07.08a16.9,16.9,0,0,0-1.82-1.08l-.08-.05-.43-.25a14.09,14.09,0,0,0-2.87-.94h0l-.1,0-.1,0s-.21,0-.21,0l-.53,0a6.62,6.62,0,0,0-1.46.32,14.7,14.7,0,0,1-2.23.52c-1.47.21-3.33-.69-4.44-1.22l-.49-.23c-.8-.35-1-.56-1-.7A.24.24,0,0,1,70.12,154.63Z"/><path class="cls-5" d="M127.23,162.66a4.22,4.22,0,0,0,0-.6,2.13,2.13,0,0,0-.23-1,1.3,1.3,0,0,0-1.22-.72,1.88,1.88,0,0,0-1.34.6l-.08-.13a1.43,1.43,0,0,0-1.15-.47,2,2,0,0,0-1.5.69,1.25,1.25,0,0,0-.19-.34,1.06,1.06,0,0,0-.85-.35,2.09,2.09,0,0,0-.36,0c0-.24.09-.51.09-.51l-.77.34-.43.19a1.14,1.14,0,0,1-.43.09h-.28a1.69,1.69,0,0,0,0-.22,1.35,1.35,0,0,0,.2-.42v-.06c0-.05,0-.11,0-.15a1.18,1.18,0,0,0-.11-.5l0,0v0a.85.85,0,0,0-.71-.37,1,1,0,0,0-.7.28,1.08,1.08,0,0,0-.36.68,1.24,1.24,0,0,0,0,.18.81.81,0,0,0,.2.54.55.55,0,0,0,.17.17,1.49,1.49,0,0,1-.39.05h-.35l-.14.63.08-1-.64.21-.16.05-.16-.05a1.65,1.65,0,0,0-2.2,1.19,1.48,1.48,0,0,0,0,.21,1.11,1.11,0,0,0,.31.79l-.62.11-.26,2.87s.95-.72,1-.77l.11.05a1.9,1.9,0,0,0,.63.19h.08a1.76,1.76,0,0,0,1.07-.45l0,0h0l.19-.21-.1.63h2.51v0h3.35l0-.23a1.72,1.72,0,0,0,1,.31h.07a2,2,0,0,0,1.16-.51l0,0,0,0,.09-.11a1.37,1.37,0,0,0,1.2.67,2.06,2.06,0,0,0,1.91-1.51l.23-.52-.07,0Zm-12.49,1a.33.33,0,0,1-.12.2l-.15.11c-.06,0-.16,0-.33-.23a1,1,0,0,1-.19-.62,1.53,1.53,0,0,1,0-.18l.61.38c.14.11.18.2.18.28A.13.13,0,0,1,114.74,163.63Zm.06-2-.1-.07,0,0v0a.21.21,0,0,1,.14,0,.24.24,0,0,1,.2.09,1.92,1.92,0,0,1,.09.3Zm1.56,2.26s0,0,0,.06h-.29a1.82,1.82,0,0,0,.11-.4c0-.1,0-.19,0-.28a1.23,1.23,0,0,0-.25-.77h.3l.07-.81h.44Zm1.77,0h-.21c0-.28.25-1.47.43-2.42h.21C118.45,162.09,118.16,163.75,118.13,163.89Zm1.7,0-.11,0h0c.08-.44.3-1.74.38-2.17a.67.67,0,0,1,.14-.11C120.22,161.73,119.86,163.73,119.83,163.89Zm3.8-1.27v0h-.08l-.12.34a2.26,2.26,0,0,1-.37.65.59.59,0,0,1-.3.2c-.14,0-.16-.07-.18-.12a.93.93,0,0,1-.06-.39,3.79,3.79,0,0,1,.07-.65,2.85,2.85,0,0,1,.38-1v.09a.76.76,0,0,0,.14.48.79.79,0,0,0,.53.31S123.63,162.6,123.63,162.62Zm2.06-1h0v.09c0,.08,0,.18,0,.3h-.2A2.84,2.84,0,0,1,125.69,161.6Zm.36,1.54a2.37,2.37,0,0,1-.39.56.67.67,0,0,1-.34.15h0s-.08-.09-.08-.43a2.73,2.73,0,0,1,0-.37h.84Zm-.31,2.23a2.12,2.12,0,0,0-1.7.89h0a3.67,3.67,0,0,0-.44.67,3.12,3.12,0,0,0-.13-.65,1.29,1.29,0,0,0-1.28-.92,1.77,1.77,0,0,0-1.43.8h0a4.44,4.44,0,0,0-.46.87,2.57,2.57,0,0,0-.14-.76,1.26,1.26,0,0,0-1.27-.92,1.74,1.74,0,0,0-1.43.8,3.92,3.92,0,0,0-.32.53,1.38,1.38,0,0,0-.33-.85,1.59,1.59,0,0,0-1.26-.48,2,2,0,0,0-1.16.36,1.71,1.71,0,0,0-.73,1.08,2,2,0,0,0,0,.34.87.87,0,0,0,.19.59.79.79,0,0,0,.63.3,1,1,0,0,0,.25,0h0a8.44,8.44,0,0,0-.61.66l0,0-.46.53a3.16,3.16,0,0,0-.39.56l0,.06-.27,1.27h3.28l.41-1.32a3.13,3.13,0,0,0,.1.44,1.33,1.33,0,0,0,1.24.95h0a2,2,0,0,0,1.42-.81v0h0a5,5,0,0,0,.46-.86,2.86,2.86,0,0,0,.13.75,1.32,1.32,0,0,0,1.23.95h0a1.93,1.93,0,0,0,1.42-.82h0a5,5,0,0,0,.4-.72,2.18,2.18,0,0,0,.16.71,1.36,1.36,0,0,0,1.25.85h0a2.19,2.19,0,0,0,1.33-.55h0v0a2.57,2.57,0,0,0,.72-1.37,3.14,3.14,0,0,0,.05-.51,1.82,1.82,0,0,0-.21-.88v0a2.57,2.57,0,0,0-.21-.24,1,1,0,0,0,.75-.83,2.46,2.46,0,0,0,0-.26,1,1,0,0,0-.34-.77A1.3,1.3,0,0,0,125.74,165.37Zm-10.43,1.14c.07,0,.1,0,.11,0s0,0,0,.08a.83.83,0,0,1,0,.2h0a.54.54,0,0,0-.14-.26h0l0,0Zm1.34,1.69c0,.16-.05.32-.07.47h-.69l-.13.22a3.37,3.37,0,0,1-.33.48.33.33,0,0,1-.14.09h-.4c.1-.1.22-.2.36-.32l1.07-.8h0l0,0a3,3,0,0,0,.34-.38Zm1.91,0a8.68,8.68,0,0,1-.46,1.68l0,0v0a8.2,8.2,0,0,1,.2-1.5,7.88,7.88,0,0,1,.46-1.71s0,0,0,0A8.22,8.22,0,0,1,118.56,168.2Zm3.31,0a9.33,9.33,0,0,1-.46,1.68l0,0v0a8.52,8.52,0,0,1,.2-1.5,8.38,8.38,0,0,1,.46-1.72,0,0,0,0,1,0,0h0A8.22,8.22,0,0,1,121.87,168.2Zm3,.86a3.91,3.91,0,0,1-.2.73,7.76,7.76,0,0,1,.18-1.22l.07-.06s0,0,0,0A3.6,3.6,0,0,1,124.9,169.06Zm.28-1.78.08-.21a.52.52,0,0,0,.09.2Z"/><path class="cls-5" d="M107,90.74l-.28,0c-.26,0-.38-.06-.47-.19a3.42,3.42,0,0,1-.29-.63l-.09-.23-1.6-4.27-.08-.2h-.71l-1.29,3.52-.38.92-.28.67c-.12.31-.2.37-.5.41h0c-.24,0-.37,0-.39-.08a4.48,4.48,0,0,1-.07-1V87.22a4.48,4.48,0,0,1,.07-1c0-.06.15-.07.39-.07h.31V85.3h-.52l-1,0-1,0h-.5v.83h.31c.24,0,.36,0,.39.08a4.58,4.58,0,0,1,.06,1v.67H96.81v-.67a4.71,4.71,0,0,1,.06-1c0-.07.16-.08.4-.08h.31V85.3h-.52l-1,0-1,0H94.6v.83h.31c.24,0,.37,0,.4.08a4.71,4.71,0,0,1,.06,1V89.6a4.58,4.58,0,0,1-.06,1c0,.07-.16.09-.4.09H94.6v.83l1.52,0,.56,0,.9,0V90.7h-.31c-.24,0-.37,0-.4-.09a4.58,4.58,0,0,1-.06-1v-.81H99v.81a3.88,3.88,0,0,1-.07,1c0,.06-.11.08-.38.08h-.31v.83l1.51,0,.57,0h.34v0h.55v0l.6,0,.42,0,.76,0v-.8l-.39,0a1.72,1.72,0,0,1-.26,0h0a4.08,4.08,0,0,1,.27-.93l.1-.25h1.53c.08.25.24.67.24.67a2.3,2.3,0,0,1,.14.53,1.13,1.13,0,0,1-.25,0H104v.82l1.48,0,.55,0,.89,0v-.79Zm-3.89-2.15c.13-.35.25-.66.44-1.18.2.52.31.83.44,1.18Zm24.44-2.77v-.53l-.59,0-.57,0-.65,0-.55,0v.79l.41.06c.28,0,.28,0,.32.24a8.38,8.38,0,0,1,.06,1.24v1.44L123,85.3h-.23l-.55,0-.6,0h-.45v0h-.32l-1,0-.93,0-.43,0h-.11l-.46,0-.93,0-1,0h-.51v.83h.3c.25,0,.37,0,.4.08a4.58,4.58,0,0,1,.06,1v.67h-2.23v-.67a3.88,3.88,0,0,1,.07-1c0-.07.15-.08.38-.08h.31V85.3h-.55l-1,0-1,0h-.45v.83h.31c.19,0,.37,0,.4.08a4.58,4.58,0,0,1,.06,1V89.6a3.88,3.88,0,0,1-.07,1c0,.06-.15.08-.39.08h-.22V88.93h-.7l0,.24c-.29,1.17-.7,1.62-1.47,1.62-1.42,0-1.57-1.62-1.57-2.32s.11-2.44,1.55-2.44a1.37,1.37,0,0,1,1.38,1.32l0,.27h.77l-.09-2.29h-.63l-.08.24a2.86,2.86,0,0,0-1.45-.37,3.08,3.08,0,0,0-3.1,3.27,3,3,0,0,0,4.66,2.67l.12.27h.53v.12l1.51,0,.58,0,.89,0V90.7h-.31c-.23,0-.36,0-.38-.08a3.92,3.92,0,0,1-.07-1v-.81h2.23v.81a4.76,4.76,0,0,1-.06,1c0,.06-.15.08-.4.08h-.3v.83l1.51,0,.56,0,.79,0h.12l1.41,0,.58,0,.8,0h0l1.2,0,.44,0,.79,0v-.8l-.4,0c-.25,0-.28,0-.33-.15a4.54,4.54,0,0,1-.09-1.11v-2l2.58,3.31s.24.32.24.32l.38.5h.71v-4a8.92,8.92,0,0,1,.08-1.39.33.33,0,0,1,0-.11l.19,0,.38,0Zm-8.36,3.78a4.58,4.58,0,0,1-.06,1c0,.07-.15.09-.4.09h-.51c-.24,0-.37,0-.39-.08a3.93,3.93,0,0,1-.07-1V87.22a4.48,4.48,0,0,1,.07-1c0-.06.16-.07.39-.07h.51c.24,0,.38,0,.4.08a4.71,4.71,0,0,1,.06,1Zm2.89-.17a7.74,7.74,0,0,1-.05,1.1c0,.1,0,.13-.37.17l-.26,0v0h-.31c-.24,0-.36,0-.39-.08a4.7,4.7,0,0,1-.06-1V87.22a4.76,4.76,0,0,1,.06-1c0-.07.2-.07.39-.07h.43a.56.56,0,0,1,.56.29Zm8.63-4.23a3.24,3.24,0,0,0-3.23,3.23,3.21,3.21,0,1,0,3.23-3.23Zm0,5.56c-1.49,0-1.65-1.63-1.65-2.33,0-1.09.42-2.37,1.6-2.37,1.5,0,1.58,2,1.58,2.35C132.23,89.11,132.08,90.76,130.7,90.76Zm14.71-1.24h-.79l0,.28c-.07.72-.33.83-1.17.85-.52,0-.7-.09-.76-.17a1.68,1.68,0,0,1-.09-.68V88.74c.49,0,.62.14.68.65l0,.27h.78l0-.5s0-.83,0-.86,0-.94,0-.94l0-.51h-.8l0,.28c0,.43-.1.71-.68.74V86.16H143c.8,0,1,0,1.11.78l0,.27h.75v-1.9H140l-1,0-.94,0h-.54v.83h.31c.24,0,.37,0,.4.08a4.89,4.89,0,0,1,.05,1v.67h-2.22v-.67a3.93,3.93,0,0,1,.07-1c0-.07.2-.07.39-.07h.31V85.3h-.55l-1,0-1.06,0h-.39v.83h.31c.24,0,.37,0,.39.08a3.88,3.88,0,0,1,.07,1V89.6a4.06,4.06,0,0,1-.06,1c0,.07-.16.09-.4.09h-.31v.83l1.52,0,.56,0,.9,0V90.7h-.31c-.2,0-.38,0-.4-.08a4.7,4.7,0,0,1-.06-1v-.81h2.22v.81a4.14,4.14,0,0,1-.06,1c0,.06-.15.08-.39.08h-.31v.83l1.51,0,.57,0,.9,0v0h4.79Zm-4.28.06a4.48,4.48,0,0,1-.07,1c0,.08-.2.08-.39.08h-.31v0h-.16c-.23,0-.36,0-.39-.09a4.58,4.58,0,0,1-.06-1V87.22a3.88,3.88,0,0,1,.07-1c0-.07.15-.08.38-.08h.16v0h.31c.19,0,.36,0,.39.08a4.42,4.42,0,0,1,.07,1Z"/><path class="cls-5" d="M158,93.79a3.8,3.8,0,1,1-3.8-3.81A3.8,3.8,0,0,1,158,93.79Z"/><path class="cls-5" d="M162.41,101.52a2.16,2.16,0,1,1-2.15-2.15A2.14,2.14,0,0,1,162.41,101.52Z"/><path class="cls-5" d="M160.23,108.86a2.52,2.52,0,1,1-2.51-2.51A2.52,2.52,0,0,1,160.23,108.86Z"/><path class="cls-5" d="M120.46,158.35c.89-1.26,7.05-9.47,16.25-9.39a17.24,17.24,0,0,1,7.1,1.72,3.24,3.24,0,0,1,.51.53l0-.06a.48.48,0,0,0,.55.33h.09a.43.43,0,0,0,.33-.41.34.34,0,0,0,0-.1l0-.06a18.6,18.6,0,0,0-2.49-5.75,10.56,10.56,0,0,0-8.89-5.14,15.77,15.77,0,0,0-6.21,1.3,3.72,3.72,0,0,1,1.9-2.22,14.6,14.6,0,0,1,2.47-.71,11,11,0,0,0,3.35-1.17,12.36,12.36,0,0,0,2.13-1.58c1.35-.26,3.76-.5,5.47.61l.6.38c2.19,1.41,3.19,2,3.44,4.77,0,0,0,.47,0,.47a28.69,28.69,0,0,0,1.1,6.44c.7,2,4.6,3.45,5.34,3.35,2-.26,6.95-1.28,9-5,1.95-3.5,2.25-5.73,2.25-6.75s-.08-3.52-.08-3.54v-.06A2.2,2.2,0,0,0,164,135a1,1,0,0,0-.76-.11,1.53,1.53,0,0,0-1.28,1.67l0,.49c.06,1.09.23,3.65-.73,4.85-1.24,1.58-3.51,3.22-4.89,3.17a5.28,5.28,0,0,1-4-3.41,13.55,13.55,0,0,0-3.56-5c-.16-.14-3.81-3.38-5.7-3.69a15.88,15.88,0,0,0-3.52-.26c.31-.56.64-1.15,1-1.7a20.85,20.85,0,0,1,4.89.52c1.51.56,3.42,1.63,4,3.62a5.23,5.23,0,0,0,4.12,3.59c1.09.07,4.46-.41,5.68-2.57a23.8,23.8,0,0,0,2.25-5.62c.16-.82-.11-1.88-.77-2.08-.21-.06-.74-.12-1.11.77l-.27.7a7.41,7.41,0,0,1-1.5,2.73,4.28,4.28,0,0,1-3.36.75,4.79,4.79,0,0,1-3-1.67c-.77-.95-3.08-3-5.37-3.11l-.8-.05-1.78-.11.2-.05a9.46,9.46,0,0,1,1.48-.17,6.07,6.07,0,0,1,1.65.23,2.83,2.83,0,0,0,.84.1,1.81,1.81,0,0,0,1.81-1.23c0-.44-.45-.47-.69-.49a2.48,2.48,0,0,1-.77-.12l-.22-.28a15,15,0,0,0-5.7-4.76c.73-.83,1.24-1.08,1.55-1.12a7.73,7.73,0,0,1,5,.46c1.8,1,6.72,2.73,9.66,1.54,3.36-1.35,5.24-2.87,5.6-4.49s.62-5.32-1-7.57a21.48,21.48,0,0,0-3-3.34l-.08,0c-.42-.22-1.47-.71-2-.22s-.17,1.14-.07,1.37l.4.91c.7,1.56,1.67,3.71.88,4.88a9.54,9.54,0,0,1-4.06,3.52l-1.05.52a3,3,0,0,1-2,.46,24.58,24.58,0,0,1-3.51-.52,23.42,23.42,0,0,0-3.36-.51c-1.49,0-4.11.87-4.94,1.84a4.67,4.67,0,0,1-.74.64,4.59,4.59,0,0,0-.89.82h-.24l-.22,0a11,11,0,0,0-1.72.1c-1.37.19-2.58.4-3.65.65l0,0a15.06,15.06,0,0,0,1.83-1.25,15.49,15.49,0,0,1,3.4-2.11l.91-.45a26.54,26.54,0,0,1,4.61-1.22c1.36-.29,2.77-.59,3.92-.91a7,7,0,0,0,5.43-6.5c0-2.67-3.77-6-5.8-7.8l-.77-.68a10.38,10.38,0,0,0-4.77-2.2h0c-.85-.22-1.5,0-1.67.45a.91.91,0,0,0,0,.23c0,.56.69,1.14,2.08,1.73h0c1.92.81,3,3.4,3,7,0,.26,0,.53,0,.8-.12,2.93-4.4,5.54-7,7.1l-.71.44c-1.23.76-2.42,1.37-3.69,2s-3,1.53-4.86,2.68a6.09,6.09,0,0,0-2.84,3.44c-.33.13-.71.26-1.08.37v-.09c0-1.7,1.42-3.21,4.34-4.57a12.63,12.63,0,0,1,1.59-.63,20.39,20.39,0,0,0,2.43-1,9.07,9.07,0,0,0,4.77-5.13,2,2,0,0,0,.06-.49c0-1.29-1.18-2.84-2.25-4.23a18.16,18.16,0,0,1-1.07-1.5c-1-1.69-5-2.67-6.22-2.29-.57.19-.86.45-.86.79a.22.22,0,0,0,0,.08c0,.46.6.72,1.62.77.7.05,2.11,2.47,2.74,4.72a3.26,3.26,0,0,1,.12.87,4.41,4.41,0,0,1-2.47,3.65c-.58.34-1.16.64-1.72.94a17.26,17.26,0,0,0-4.51,3c-1.09,1.07-1.39,3-1.39,4.83,0,.36,0,.71,0,1.05a10.43,10.43,0,0,1-1.45.33.38.38,0,0,0-.15,0l-.3.08-.29-.08a.49.49,0,0,0-.17,0h0a9.72,9.72,0,0,1-1.44-.32c0-.36,0-.72,0-1.09,0-1.8-.3-3.73-1.39-4.8a17.1,17.1,0,0,0-4.47-3c-.56-.29-1.14-.6-1.71-.94a4.41,4.41,0,0,1-2.47-3.65,3.26,3.26,0,0,1,.12-.87c.62-2.25,2-4.67,2.72-4.72,1,0,1.56-.31,1.62-.77,0,0,0-.06,0-.08,0-.34-.29-.6-.86-.79-1.19-.38-5.22.6-6.19,2.29-.24.4-.64.93-1.06,1.49-1.07,1.39-2.25,3-2.25,4.24a2,2,0,0,0,.06.49,9.06,9.06,0,0,0,4.75,5.13,22.59,22.59,0,0,0,2.41,1,12,12,0,0,1,1.58.63c2.91,1.36,4.33,2.86,4.33,4.57,0,0,0,.08,0,.12l-1.06-.37a6.14,6.14,0,0,0-2.83-3.47c-1.86-1.15-3.45-2-4.84-2.68s-2.44-1.26-3.66-2l-.7-.43c-2.56-1.56-6.83-4.18-7-7.11,0-.26,0-.51,0-.76,0-3.63,1.11-6.23,3-7,1.38-.59,2.07-1.17,2.07-1.73a.91.91,0,0,0,0-.23c-.17-.49-.82-.67-1.66-.45h0a10.47,10.47,0,0,0-4.77,2.2l-.79.71c-2,1.79-5.74,5.11-5.74,7.77a7,7,0,0,0,5.41,6.5c1.14.32,2.55.62,3.91.91a25.77,25.77,0,0,1,4.58,1.22l.92.46a15.17,15.17,0,0,1,3.38,2.1,16.29,16.29,0,0,0,1.81,1.25l.1.06c-1.11-.25-2.37-.48-3.76-.67a10.11,10.11,0,0,0-1.3-.1c-.25,0-.5,0-.8,0a4.25,4.25,0,0,0-.88-.82,3.81,3.81,0,0,1-.73-.63c-.84-1-3.45-1.85-4.93-1.85a23.22,23.22,0,0,0-3.34.51,24.28,24.28,0,0,1-3.5.52,3,3,0,0,1-2-.46l-1-.52a9.48,9.48,0,0,1-4-3.52c-.79-1.17.18-3.32.89-4.88l.39-.91c.09-.23.39-.93-.06-1.36s-.92-.3-1.78.1a1.22,1.22,0,0,0-.32.18h0a20.53,20.53,0,0,0-3,3.33c-1.62,2.24-1.4,5.81-1,7.57s2.24,3.14,5.58,4.49c2.93,1.19,7.83-.56,9.61-1.54a7.81,7.81,0,0,1,5-.47,2.87,2.87,0,0,1,1.52,1.1,14.83,14.83,0,0,0-5.8,4.79l-.22.28a2.43,2.43,0,0,1-.77.12c-.24,0-.69,0-.69.49a1.16,1.16,0,0,0,.37.65,2.11,2.11,0,0,0,1.51.58h0a2.69,2.69,0,0,0,.82-.11,6.32,6.32,0,0,1,1.63-.22,9.88,9.88,0,0,1,1.46.17,1.29,1.29,0,0,1,.21.06l-1.66.1-.81.05c-2.28.14-4.58,2.16-5.34,3.11a4.79,4.79,0,0,1-3,1.67,4.25,4.25,0,0,1-3.35-.75,7.6,7.6,0,0,1-1.49-2.74l-.27-.69c-.37-.89-.9-.83-1.11-.77-.64.19-.92,1.25-.76,2.07A23.35,23.35,0,0,0,81,136.09c1.2,2.14,4.62,2.64,5.66,2.57a5.19,5.19,0,0,0,4.1-3.6c.54-2,2.44-3.05,4-3.61a19.81,19.81,0,0,1,4.78-.52c.33.57.67,1.19.95,1.7a16.12,16.12,0,0,0-3.41.26c-1.85.3-5.29,3.34-5.68,3.69a13.33,13.33,0,0,0-3.55,5A5.34,5.34,0,0,1,83.87,145c-1.38.05-3.63-1.59-4.88-3.17-.94-1.2-.79-3.77-.72-4.86l0-.48A1.55,1.55,0,0,0,77,134.85a1,1,0,0,0-.77.11,2.2,2.2,0,0,0-.74,1.35v.07s-.07,2.43-.07,3.54.29,3.23,2.24,6.75c2.07,3.7,7,4.72,9,5,.73.1,4.62-1.3,5.32-3.35a29.49,29.49,0,0,0,1.11-6.64l0-.27c.26-2.74,1.25-3.38,3.44-4.78l.58-.37c1.67-1.08,4-.87,5.36-.62a12,12,0,0,0,2.15,1.59,11.11,11.11,0,0,0,3.37,1.17,14,14,0,0,1,2.47.71,3.06,3.06,0,0,1,1.28,1,5.14,5.14,0,0,1,.64,1.22l-.06,0-.12-.05a15.65,15.65,0,0,0-6.1-1.25c-8.34.13-10.94,9.1-11.38,10.91l0,0a.43.43,0,0,0,.33.51.35.35,0,0,0,.2,0,.44.44,0,0,0,.47-.31v.06a2.7,2.7,0,0,1,.5-.53,17.07,17.07,0,0,1,7.06-1.72,16.67,16.67,0,0,1,8.52,2.33,25.55,25.55,0,0,1,7.75,7.06.5.5,0,0,0,.91,0Z"/><path class="cls-5" d="M130.43,102.15A10.43,10.43,0,1,1,120,91.72,10.42,10.42,0,0,1,130.43,102.15Z"/><path class="cls-5" d="M156.46,74.06v-.14a2.81,2.81,0,0,0-.59-1.81,3.53,3.53,0,0,0-3-1.3h-9.82l-2.88,8.43A4,4,0,0,1,139,80.87a3.81,3.81,0,0,1-1.75.63A1.41,1.41,0,0,1,136,81a1.36,1.36,0,0,1-.2-.75,2.31,2.31,0,0,1,.13-.74l3-8.66h-3.83l-2.72,7.93a8.56,8.56,0,0,0-.36,1.43l-.44-9.36h-3.47l-9.37,12.7c-.39-1.49-1-4.06-1.15-4.45A8.38,8.38,0,0,0,120,77.68h0v0a6.85,6.85,0,0,0,1.63-2.33v0a4.7,4.7,0,0,0,.22-1.37,2.87,2.87,0,0,0-.59-1.81,3.55,3.55,0,0,0-3-1.3h-9.74l-2.35,6.86-1.71-6.86h-4.06L96.21,83.16l-.59-12.35H92.15L82,84.59h4.2s1.49-2.11,1.67-2.38h4.35c0,.51,0,2.38,0,2.38h7.31l2.4-7c.42,1.69,1.75,7,1.75,7h7.45l1.74-5.1h.89c.09.52.92,5.1.92,5.1h7.45l1.68-2.38h4.34c0,.51,0,2.38,0,2.38h4l-.12-2.34a4.15,4.15,0,0,0,.51,1.06,4.24,4.24,0,0,0,3.68,1.56A7.81,7.81,0,0,0,141,83.39a8.51,8.51,0,0,0,2.21-2.31L142,84.59h3.77l1.75-5.1h.89c.09.52.92,5.1.92,5.1h14.21l1.2-3.5h-6.9c.2-.57.56-1.64.67-2h5.24l1.2-3.5h-5.24c.16-.48.38-1.09.47-1.38H167l1.18-3.44H157.57ZM90.37,78.73,92,76.39c0,.94.08,1.92.1,2.34ZM117.47,75a2.07,2.07,0,0,1-.62.83,2.11,2.11,0,0,1-1,.29h-2c.19-.58.59-1.75.7-2.07h2.25a.85.85,0,0,1,.68.28.41.41,0,0,1,.08.29A1.34,1.34,0,0,1,117.47,75Zm8.88,3.72c.41-.6,1.06-1.52,1.64-2.34,0,.94.09,1.92.1,2.34ZM152.06,75a1.9,1.9,0,0,1-.62.83,2.08,2.08,0,0,1-1,.29h-2l.71-2.07h2.25a.85.85,0,0,1,.68.28.47.47,0,0,1,.08.29A1.12,1.12,0,0,1,152.06,75Zm1.23,8.31c-.38-1.51-1-3.89-1.09-4.26a8.51,8.51,0,0,0,2.39-1.38h0v0a7.58,7.58,0,0,0,1-1.25ZM87.75,67.42l-7,10.92c.08-2.07.41-10.92.41-10.92H76.36l.26,17.17h4.07S91.3,69.4,91.51,69.11h77.3l.58-1.69Z"/><path class="cls-7" d="M115.71,163.44a1.4,1.4,0,0,1-.43.83,1.37,1.37,0,0,1-.81.35,1.73,1.73,0,0,1-.49-.15.84.84,0,0,0-.3-.11.4.4,0,0,0-.23.08l-.24.18.14-1.52.16,0a1.46,1.46,0,0,0,.29.92.91.91,0,0,0,.66.4.71.71,0,0,0,.46-.24.78.78,0,0,0,.26-.46.77.77,0,0,0-.36-.77l-.78-.48a.72.72,0,0,1-.34-.75,1.11,1.11,0,0,1,.44-.69,1.26,1.26,0,0,1,.78-.26,1.35,1.35,0,0,1,.4.1,1.11,1.11,0,0,0,.31.08,1,1,0,0,0,.29-.08l-.1,1.16h-.16a2.3,2.3,0,0,0-.21-.74.66.66,0,0,0-.57-.29.61.61,0,0,0-.42.16.55.55,0,0,0-.23.35c0,.16.09.32.33.47.44.28.72.47.83.55A.92.92,0,0,1,115.71,163.44Z"/><path class="cls-7" d="M117.83,164.55H116.2l0-.2h0a.46.46,0,0,0,.51-.43l.4-2.32c0-.18,0-.29,0-.34a.65.65,0,0,0-.35-.06l0-.17a3.57,3.57,0,0,0,1.19-.27l-.56,3.16a.57.57,0,0,0,0,.34.41.41,0,0,0,.3.09h.08Zm.5-4.85a1,1,0,0,1-.21.4.61.61,0,0,1-.39.17.41.41,0,0,1-.33-.18.46.46,0,0,1-.08-.39.65.65,0,0,1,.21-.42.58.58,0,0,1,.4-.16.38.38,0,0,1,.34.19A.67.67,0,0,1,118.33,159.7Z"/><path class="cls-7" d="M121.18,164.54h-1.33l0-.2a.38.38,0,0,0,.39-.35l.41-2.3q.09-.6-.24-.6a1.13,1.13,0,0,0-.76.43l-.43,2.47c0,.22,0,.33.25.35l0,.2h-1.32l0-.2a.38.38,0,0,0,.39-.35l.47-2.64a.34.34,0,0,0,0-.22.37.37,0,0,0-.25-.07l0-.16a1.55,1.55,0,0,0,.6-.13l.45-.2-.13.66a1.32,1.32,0,0,1,1-.49c.55,0,.75.37.63,1.1L121,164c0,.22,0,.33.25.35Z"/><path class="cls-7" d="M124,163.18a3,3,0,0,1-.55,1,1.54,1.54,0,0,1-.91.41,1.18,1.18,0,0,1-1-.55,2,2,0,0,1-.16-1.4,2.63,2.63,0,0,1,.65-1.35,1.59,1.59,0,0,1,1.2-.58,1,1,0,0,1,.8.32.73.73,0,0,1,.17.58.86.86,0,0,1-.18.36.41.41,0,0,1-.32.13.31.31,0,0,1-.25-.13.43.43,0,0,1,0-.31.71.71,0,0,1,.11-.28.74.74,0,0,0,.07-.18c0-.17-.11-.26-.37-.26s-.42.16-.63.47a3.36,3.36,0,0,0-.45,1.17,2.53,2.53,0,0,0,0,1.28.64.64,0,0,0,.62.41,1,1,0,0,0,.61-.35,2.33,2.33,0,0,0,.45-.8Z"/><path class="cls-7" d="M126.79,162.61h-1.92c-.19,1.12,0,1.68.47,1.69A1.17,1.17,0,0,0,126,164a3.07,3.07,0,0,0,.49-.69l.17,0c-.36.83-.86,1.24-1.5,1.24a1,1,0,0,1-.9-.56,2,2,0,0,1-.15-1.36,2.75,2.75,0,0,1,.64-1.38,1.43,1.43,0,0,1,1.11-.58.87.87,0,0,1,.83.49A2.26,2.26,0,0,1,126.79,162.61Zm-.71-.17c.15-1,0-1.47-.29-1.47-.16,0-.31.13-.45.38a2.89,2.89,0,0,0-.44,1.09Z"/><path class="cls-7" d="M116.32,169.12l-.48,1.55h-2.4l.14-.68a3.37,3.37,0,0,1,.34-.48c.17-.18.33-.37.49-.55s.4-.45.6-.65.29-.31.31-.33a2.79,2.79,0,0,0,.52-1.09c.11-.55-.07-.83-.53-.83a.77.77,0,0,0-.44.14.51.51,0,0,0-.24.34c0,.08,0,.13.09.17s.2.11.2.13a.43.43,0,0,1,.07.33.82.82,0,0,1-.18.29.54.54,0,0,1-.35.14c-.33,0-.45-.26-.37-.71a1.23,1.23,0,0,1,.54-.79,1.59,1.59,0,0,1,.91-.29,1.15,1.15,0,0,1,.93.34,1,1,0,0,1,.21.88,2.12,2.12,0,0,1-.62.95c-.24.18-.62.45-1.09.82a5.39,5.39,0,0,0-1.09,1.1h1.45a.68.68,0,0,0,.42-.21,3.48,3.48,0,0,0,.39-.57Z"/><path class="cls-7" d="M119.75,168.28a4.89,4.89,0,0,1-.72,1.82,1.43,1.43,0,0,1-1.09.64.85.85,0,0,1-.83-.64,3.54,3.54,0,0,1,0-1.82,4.71,4.71,0,0,1,.72-1.85,1.32,1.32,0,0,1,1.07-.62.84.84,0,0,1,.85.62A3.64,3.64,0,0,1,119.75,168.28Zm-.75,0a8.6,8.6,0,0,0,.19-1.82q0-.42-.33-.42c-.21,0-.38.14-.52.42a8,8,0,0,0-.49,1.82,6.77,6.77,0,0,0-.2,1.78c0,.3.14.44.36.46s.34-.16.49-.46A9,9,0,0,0,119,168.28Z"/><path class="cls-7" d="M123.06,168.28a4.58,4.58,0,0,1-.72,1.82,1.45,1.45,0,0,1-1.1.64.84.84,0,0,1-.82-.64,3.54,3.54,0,0,1,0-1.82,4.87,4.87,0,0,1,.71-1.85,1.35,1.35,0,0,1,1.08-.62.85.85,0,0,1,.86.62A3.9,3.9,0,0,1,123.06,168.28Zm-.75,0a8,8,0,0,0,.19-1.82c0-.28-.14-.42-.33-.42s-.38.14-.52.42a8.48,8.48,0,0,0-.5,1.82,7.09,7.09,0,0,0-.19,1.78c0,.3.14.44.36.46s.34-.16.49-.46A9,9,0,0,0,122.31,168.28Z"/><path class="cls-7" d="M126.19,169.15a2.14,2.14,0,0,1-.6,1.15,1.6,1.6,0,0,1-1,.44.9.9,0,0,1-.86-.57,3.53,3.53,0,0,1,0-1.92,4.16,4.16,0,0,1,.3-1,3.32,3.32,0,0,1,.44-.72,1.73,1.73,0,0,1,1.36-.73.93.93,0,0,1,.63.22.65.65,0,0,1,.18.63.63.63,0,0,1-.19.37.56.56,0,0,1-.38.14.28.28,0,0,1-.25-.1.39.39,0,0,1,0-.3.49.49,0,0,1,.18-.29c.12-.11.2-.19.21-.26s0-.1-.09-.14a.32.32,0,0,0-.23-.09.79.79,0,0,0-.69.46,4.8,4.8,0,0,0-.52,1.59,1.36,1.36,0,0,1,.84-.33.81.81,0,0,1,.7.36A1.59,1.59,0,0,1,126.19,169.15Zm-.85,0c.14-.76,0-1.14-.28-1.14a1,1,0,0,0-.58.32,7.25,7.25,0,0,0-.22,1.66c0,.34.12.52.31.54C124.91,170.5,125.16,170,125.34,169.14Z"/><path class="cls-2" d="M96.5,89.6a5.05,5.05,0,0,0,.08,1.12c.11.29.43.29.69.29v.2l-1.16,0-1.2,0V91c.26,0,.58,0,.69-.29a5.05,5.05,0,0,0,.08-1.12V87.22a5.1,5.1,0,0,0-.08-1.12c-.11-.28-.43-.28-.69-.28v-.2c.37,0,.76,0,1.14,0s.81,0,1.22,0v.2c-.26,0-.58,0-.69.28a5.1,5.1,0,0,0-.08,1.12v1h2.85v-1a5.1,5.1,0,0,0-.08-1.12c-.11-.28-.42-.28-.68-.28v-.2l1.15,0c.41,0,.8,0,1.2,0v.2c-.26,0-.58,0-.69.28a5.1,5.1,0,0,0-.08,1.12V89.6a5.05,5.05,0,0,0,.08,1.12c.11.29.43.29.69.29v.2l-1.16,0-1.19,0V91c.26,0,.57,0,.68-.29a5.05,5.05,0,0,0,.08-1.12V88.47H96.5Z"/><path class="cls-2" d="M102.45,89.37a5.69,5.69,0,0,0-.39,1.28c0,.36.42.34.66.36v.2l-.88,0-.83,0V91a.77.77,0,0,0,.76-.6c.23-.54.44-1.07.67-1.61l1.22-3.31h.28l1.6,4.28a7.12,7.12,0,0,0,.42.93.84.84,0,0,0,.68.31v.2l-1.13,0-1.16,0V91c.23,0,.62,0,.62-.32a2.2,2.2,0,0,0-.16-.66l-.31-.87h-2Zm2-.47-.88-2.38-.9,2.38Z"/><path class="cls-2" d="M111.38,85.65h.11l.07,1.66h-.18a1.69,1.69,0,0,0-1.69-1.59c-1.42,0-1.86,1.49-1.86,2.75s.46,2.64,1.88,2.64c1.11,0,1.52-.85,1.77-1.86h.14v1.84h-.11l-.19-.42a2.74,2.74,0,0,1-4.48-2.2,2.79,2.79,0,0,1,2.79-3,2.64,2.64,0,0,1,1.62.53Z"/><path class="cls-2" d="M113.74,89.6a5.05,5.05,0,0,0,.08,1.12c.1.29.43.29.68.29v.2l-1.15,0-1.2,0V91c.26,0,.59,0,.69-.29a5.05,5.05,0,0,0,.08-1.12V87.22a5.1,5.1,0,0,0-.08-1.12c-.1-.28-.43-.28-.69-.28v-.2c.38,0,.76,0,1.15,0s.8,0,1.2,0v.2c-.25,0-.58,0-.68.28a5.1,5.1,0,0,0-.08,1.12v1h2.85v-1a5.1,5.1,0,0,0-.08-1.12c-.11-.28-.43-.28-.69-.28v-.2c.39,0,.78,0,1.17,0s.79,0,1.19,0v.2c-.26,0-.58,0-.69.28a5.81,5.81,0,0,0-.07,1.12V89.6a5.76,5.76,0,0,0,.07,1.12c.11.29.43.29.69.29v.2l-1.15,0-1.21,0V91c.26,0,.58,0,.69-.29a5.05,5.05,0,0,0,.08-1.12V88.47h-2.85Z"/><path class="cls-2" d="M119.47,87.22a4.54,4.54,0,0,0-.09-1.12c-.1-.28-.43-.28-.69-.28v-.2l1.16,0c.4,0,.8,0,1.2,0v.2c-.26,0-.59,0-.68.28a5.1,5.1,0,0,0-.08,1.12V89.6a5.05,5.05,0,0,0,.08,1.12c.09.29.42.29.68.29v.2l-1.15,0-1.21,0V91c.26,0,.59,0,.69-.29a4.5,4.5,0,0,0,.09-1.12Z"/><path class="cls-2" d="M122.35,86.32a.88.88,0,0,0-.87-.5v-.2c.26,0,.5,0,.75,0s.43,0,.64,0L126.25,90h0V87.62a8,8,0,0,0-.07-1.3c-.09-.47-.3-.44-.71-.5v-.2l.88,0c.28,0,.55,0,.84,0v.2c-.29,0-.5,0-.59.36a7.87,7.87,0,0,0-.11,1.48V91.3h-.24c-.18-.22-.34-.47-.53-.7l-3.11-4h0v2.83a5.07,5.07,0,0,0,.1,1.24c.15.32.41.31.7.34v.2l-.91,0-.88,0V91c.31,0,.6-.05.68-.41a7.52,7.52,0,0,0,.06-1.17Z"/><path class="cls-2" d="M127.75,88.43a2.94,2.94,0,0,1,2.92-2.92,2.9,2.9,0,1,1-2.92,2.92Zm1,0c0,1.33.5,2.65,2,2.65s1.84-1.42,1.84-2.67-.49-2.66-1.89-2.66S128.74,87.18,128.74,88.43Z"/><path class="cls-2" d="M135.77,89.6a5.05,5.05,0,0,0,.08,1.12c.1.29.43.29.69.29v.2l-1.16,0-1.2,0V91c.26,0,.58,0,.69-.29A5.05,5.05,0,0,0,135,89.6V87.22a5.1,5.1,0,0,0-.08-1.12c-.11-.28-.43-.28-.69-.28v-.2c.37,0,.76,0,1.14,0s.81,0,1.22,0v.2c-.26,0-.59,0-.69.28a5.1,5.1,0,0,0-.08,1.12v1h2.85v-1a5.1,5.1,0,0,0-.08-1.12c-.1-.28-.43-.28-.69-.28v-.2c.39,0,.78,0,1.17,0s.79,0,1.18,0v.2c-.25,0-.58,0-.68.28a5.1,5.1,0,0,0-.08,1.12V89.6a5.05,5.05,0,0,0,.08,1.12c.1.29.43.29.68.29v.2l-1.16,0-1.19,0V91c.26,0,.59,0,.69-.29a5.05,5.05,0,0,0,.08-1.12V88.47h-2.85Z"/><path class="cls-2" d="M141.43,87.26a5.19,5.19,0,0,0-.08-1.13c-.1-.28-.43-.28-.68-.28v-.23h4V86.9h-.17c-.16-1-.58-1.05-1.42-1.05h-.57c-.11,0-.18,0-.2,0a1.13,1.13,0,0,0,0,.31v2c1.09,0,1.25-.42,1.3-1h.19c0,.38,0,.76,0,1.14s0,.7,0,1h-.19c-.11-.88-.54-.93-1.3-.93V89.8a1.76,1.76,0,0,0,.14.86c.21.29.71.31,1,.3.83,0,1.37-.13,1.47-1.13h.19L145,91.19h-4.34V91c.25,0,.58,0,.68-.29a5.05,5.05,0,0,0,.08-1.12Z"/><path class="cls-2" d="M95.91,84.23H92.59l0-2.38H87.68L86,84.23H82.69l9.64-13.07h3ZM92.5,79.08l-.16-3.74-2.65,3.74Z"/><path class="cls-2" d="M107.42,84.23H104l-2-7.88-2.7,7.88H96.22l4.47-13.07h3.53l1.94,7.76,2.65-7.76h3.08Z"/><path class="cls-2" d="M118.56,84.23H115l-.92-5.09h-1.44l-1.75,5.09h-3l4.47-13.07h6a3.19,3.19,0,0,1,2.7,1.17,3,3,0,0,1,.31,2.86,6.44,6.44,0,0,1-1.55,2.22,8.19,8.19,0,0,1-2.58,1.44Zm-.75-9.11a1.06,1.06,0,0,0-.07-1,1.22,1.22,0,0,0-1-.41h-2.5l-1,2.79h2.51a2.38,2.38,0,0,0,1.22-.36A2.27,2.27,0,0,0,117.81,75.12Z"/><path class="cls-2" d="M131.87,84.23h-3.31l0-2.38h-4.88L122,84.23h-3.31l9.64-13.07h2.95Zm-3.4-5.15-.16-3.74-2.65,3.74Z"/><path class="cls-2" d="M143.86,78.85a8.54,8.54,0,0,1-3.11,4.25,7.47,7.47,0,0,1-4.43,1.42,3.9,3.9,0,0,1-3.39-1.42q-1.11-1.57-.2-4.25l2.63-7.69h3.08l-2.8,8.19a2,2,0,0,0,.1,1.8,1.72,1.72,0,0,0,1.49.7,4.1,4.1,0,0,0,2-.7,4.36,4.36,0,0,0,1.33-1.8l2.8-8.19h3.16Z"/><path class="cls-2" d="M153.16,84.23H149.6l-.93-5.09h-1.44l-1.74,5.09h-3l4.47-13.07h6a3.17,3.17,0,0,1,2.69,1.17,3,3,0,0,1,.32,2.86,6.58,6.58,0,0,1-1.55,2.22,8.3,8.3,0,0,1-2.58,1.44Zm-.76-9.11a1.06,1.06,0,0,0-.07-1,1.2,1.2,0,0,0-1-.41h-2.51l-1,2.79h2.5a2.36,2.36,0,0,0,1.22-.36A2.2,2.2,0,0,0,152.4,75.12Z"/><path class="cls-2" d="M163.26,84.23h-9.9l4.46-13.07h9.91l-.94,2.74h-6.9L159.18,76h5.24l-.95,2.79h-5.24l-.91,2.66h6.89Z"/><polygon class="cls-2" points="87.94 67.78 80.35 79.63 80.81 67.78 76.72 67.78 76.97 84.23 80.5 84.23 91.33 68.75 168.55 68.75 168.89 67.78 87.94 67.78"/><path class="cls-2" d="M120,92.16a10,10,0,1,0,10,10A10,10,0,0,0,120,92.16Zm2.45,19.22,1.34-2.32h-2.74l-1-1.82-1,1.82h-2.74l1.34,2.32a9.63,9.63,0,0,1-3.88-2.09H116l-1.37-2.37,1.37-2.38h-2.74l-1.05-1.81-1,1.81h-.43a9.37,9.37,0,0,1-.3-2.39,9.51,9.51,0,0,1,.3-2.4h.43l1,1.83,1.05-1.83H116l-1.37-2.37L116,95h-2.36a9.49,9.49,0,0,1,3.88-2.08l-1.34,2.31H119l1,1.83,1-1.83h2.74l-1.34-2.31A9.39,9.39,0,0,1,126.32,95H124l1.37,2.37L124,99.75h2.73l1.06,1.83,1-1.83h.43a9.51,9.51,0,0,1,.3,2.4,9.37,9.37,0,0,1-.3,2.39h-.43l-1-1.81-1.06,1.81H124l1.37,2.38L124,109.29h2.36A9.63,9.63,0,0,1,122.45,111.38Z"/><polygon class="cls-2" points="121.05 99.78 120 97.96 118.95 99.78 116.21 99.78 117.58 102.15 116.21 104.52 118.95 104.52 120 106.35 121.05 104.52 123.79 104.52 122.42 102.15 123.79 99.78 121.05 99.78"/><path class="cls-2" d="M98.9,99.2h0a9.48,9.48,0,0,0-4.37,2l-.81.73c-1.77,1.57-5.44,4.84-5.44,7.1A6.12,6.12,0,0,0,93,114.67c1.12.31,2.51.6,3.86.9a23.9,23.9,0,0,1,4.82,1.3l.88.43a16.73,16.73,0,0,1,3.55,2.21,14.31,14.31,0,0,0,1.72,1.19,6.38,6.38,0,0,1,1.87,1.52.44.44,0,0,1,0,.52.44.44,0,0,1-.51.17,35.34,35.34,0,0,0-5.64-1.18,8.42,8.42,0,0,0-1.18-.08,6.43,6.43,0,0,0-1,0,.45.45,0,0,1-.42-.22,3,3,0,0,0-.82-.79,5.22,5.22,0,0,1-.87-.77,7.58,7.58,0,0,0-4.25-1.53,23.55,23.55,0,0,0-3.17.49,24.39,24.39,0,0,1-3.67.54,3.78,3.78,0,0,1-2.37-.56l-1-.51a10.19,10.19,0,0,1-4.4-3.83,2.79,2.79,0,0,1-.45-1.6,11.06,11.06,0,0,1,1.26-4.14l.39-.88a1.56,1.56,0,0,0,.11-.35,2.86,2.86,0,0,0-.91.31,20.63,20.63,0,0,0-2.8,3.15,7.51,7.51,0,0,0-1.12,4.33,12.42,12.42,0,0,0,.25,2.51c.29,1.31,2,2.64,5,3.87,2.49,1,7-.48,8.84-1.5a8.6,8.6,0,0,1,5.6-.57,4.35,4.35,0,0,1,2.45,1.89.48.48,0,0,1,.1.28.5.5,0,0,1,0,.12.45.45,0,0,1-.28.29,13.77,13.77,0,0,0-6,4.73,1.85,1.85,0,0,1-.4.46,1.39,1.39,0,0,1-.46.19,1.87,1.87,0,0,0,.35,0h0a1.91,1.91,0,0,0,.56-.07,6.9,6.9,0,0,1,1.87-.26,11.15,11.15,0,0,1,1.61.18,5.21,5.21,0,0,1,2.06.93h0a.43.43,0,0,1,.18.49.45.45,0,0,1-.42.33c-1,0-2.28.1-3.38.17l-.82,0c-2,.12-4,2-4.69,2.77a5.72,5.72,0,0,1-3.54,2,5,5,0,0,1-4.07-.95,7.78,7.78,0,0,1-1.76-3.1l-.27-.67a.42.42,0,0,0-.07-.15,1.58,1.58,0,0,0-.12.62c0,.11,0,.21,0,.33a22.9,22.9,0,0,0,2.14,5.35c1,1.79,4,2.18,4.82,2.12a4.26,4.26,0,0,0,3.3-2.94c.64-2.34,2.8-3.59,4.5-4.21a20.6,20.6,0,0,1,5.32-.59.44.44,0,0,1,.4.22c.56.95,1.17,2.09,1.48,2.68a.43.43,0,0,1,0,.46.44.44,0,0,1-.41.19,13.91,13.91,0,0,0-4,.18C96,134,93.4,136,92,137.24a12.64,12.64,0,0,0-3.3,4.63c-.61,2-2.93,4-4.76,4s-4.43-2-5.61-3.49-1-4.28-.92-5.47l0-.43c0-.5-.13-.68-.62-.81,0,0,0,0,0,0a1.35,1.35,0,0,0-.34.74c0,.31-.07,2.45-.07,3.47s.27,3,2.12,6.32,6.46,4.29,8.34,4.53c.51,0,3.82-1.19,4.36-2.76a28.76,28.76,0,0,0,1.07-6.42l0-.27c.29-3.18,1.55-4,3.84-5.46l.57-.36c2-1.29,4.7-1,6.14-.74a.48.48,0,0,1,.22.12,11.81,11.81,0,0,0,2.08,1.57,10.87,10.87,0,0,0,3.12,1.06,14.74,14.74,0,0,1,2.62.76,3.93,3.93,0,0,1,1.65,1.32,6,6,0,0,1,1,2.52.42.42,0,0,1-.21.37.44.44,0,0,1-.43,0l-.88-.39-.12,0a14.58,14.58,0,0,0-5.74-1.19c-6.42.1-9.18,6-10.15,8.91a17.83,17.83,0,0,1,7.27-1.74,17.56,17.56,0,0,1,9,2.45,26.89,26.89,0,0,1,7.77,6.94c1.56-2.08,7.74-9.46,16.71-9.39a18,18,0,0,1,7.28,1.72c-1-3.13-3.77-8.81-10.15-8.89a15.66,15.66,0,0,0-6.7,1.59.43.43,0,0,1-.45-.06.41.41,0,0,1-.17-.42c0-.12.49-2.84,2.68-3.74a14.41,14.41,0,0,1,2.61-.76,10.54,10.54,0,0,0,3.1-1.06,11.35,11.35,0,0,0,2.07-1.56.51.51,0,0,1,.22-.11c1.47-.29,4.22-.6,6.24.72l.6.38c2.22,1.42,3.56,2.27,3.85,5.43l0,.47A28.52,28.52,0,0,0,149,148c.54,1.57,3.86,2.76,4.4,2.76,1.88-.24,6.48-1.19,8.36-4.54s2.12-5.38,2.12-6.31-.05-3.16-.06-3.47a1.5,1.5,0,0,0-.34-.74s0,0-.05,0c-.54.14-.62.36-.62.81l0,.43c.07,1.2.24,4-.92,5.47s-3.72,3.57-5.63,3.49-4.17-2-4.79-4a12.77,12.77,0,0,0-3.3-4.63c-1.45-1.29-4-3.28-5.26-3.48a13.48,13.48,0,0,0-4.09-.17.45.45,0,0,1-.45-.65c.43-.81,1-1.85,1.49-2.7a.45.45,0,0,1,.4-.21,21.44,21.44,0,0,1,5.43.59c1.71.62,3.88,1.86,4.52,4.21a4.28,4.28,0,0,0,3.32,2.94c.78.06,3.84-.33,4.84-2.12a22.94,22.94,0,0,0,2.15-5.36,1.82,1.82,0,0,0,0-.32,1.41,1.41,0,0,0-.13-.63l-.08.16-.27.68a7.51,7.51,0,0,1-1.76,3.09,5,5,0,0,1-4.08.95,5.74,5.74,0,0,1-3.56-2c-.66-.81-2.75-2.65-4.72-2.77l-.81,0c-1.14-.07-2.43-.16-3.51-.18a.45.45,0,0,1-.23-.82l.1-.07a5.43,5.43,0,0,1,2-.86,10.7,10.7,0,0,1,1.63-.18,7.39,7.39,0,0,1,1.89.25,1.56,1.56,0,0,0,.58.08h0l.29,0a1.42,1.42,0,0,1-.45-.19,1.85,1.85,0,0,1-.4-.46,13.79,13.79,0,0,0-5.88-4.7.47.47,0,0,1-.28-.29s0-.08,0-.12a.47.47,0,0,1,.09-.28,4.42,4.42,0,0,1,2.49-1.92,8.62,8.62,0,0,1,5.61.57c1.43.78,6.2,2.59,8.9,1.5,3-1.23,4.77-2.56,5.06-3.87a11.75,11.75,0,0,0,.26-2.52,7.48,7.48,0,0,0-1.14-4.32,19.34,19.34,0,0,0-2.81-3.15,2.74,2.74,0,0,0-.9-.31,1.56,1.56,0,0,0,.11.35l.38.88a10.9,10.9,0,0,1,1.27,4.14,2.79,2.79,0,0,1-.45,1.6,10.31,10.31,0,0,1-4.42,3.83l-1,.51a3.79,3.79,0,0,1-2.38.56,24.68,24.68,0,0,1-3.68-.54,24,24,0,0,0-3.19-.49,7.65,7.65,0,0,0-4.27,1.53,5.65,5.65,0,0,1-.87.77,2.87,2.87,0,0,0-.83.79.41.41,0,0,1-.41.22H138a9.38,9.38,0,0,0-1.6.08,35.71,35.71,0,0,0-5.56,1.15.44.44,0,0,1-.48-.7,7,7,0,0,1,1.84-1.48,14.36,14.36,0,0,0,1.74-1.19,16.75,16.75,0,0,1,3.57-2.21l.89-.44a25.07,25.07,0,0,1,4.83-1.3c1.36-.29,2.75-.58,3.87-.89a6.13,6.13,0,0,0,4.78-5.65c0-2.27-3.71-5.55-5.5-7.13l-.79-.7a9.44,9.44,0,0,0-4.37-2h0a1.85,1.85,0,0,0-.46-.06,5.12,5.12,0,0,0,1.39.79h0c3.49,1.47,3.65,6.54,3.56,8.65-.14,3.41-4.5,6.07-7.39,7.83l-.71.44c-1.25.77-2.46,1.4-3.74,2.05-1.46.74-3,1.52-4.8,2.65a5.13,5.13,0,0,0-2.51,3.14.46.46,0,0,1-.28.3c-.55.21-1.27.45-1.85.64a.46.46,0,0,1-.36,0,.44.44,0,0,1-.21-.3,4,4,0,0,1-.07-.77c0-2.06,1.63-3.87,4.86-5.37a13.33,13.33,0,0,1,1.68-.68,18.22,18.22,0,0,0,2.33-.94,8.14,8.14,0,0,0,4.29-4.56,1.24,1.24,0,0,0,0-.27c0-1-1.18-2.52-2.06-3.68-.45-.59-.87-1.14-1.14-1.59-.61-1-2.93-1.76-4.3-1.91,1.6.56,2.92,4.25,3.21,5.29a4.11,4.11,0,0,1,.16,1.09,5.34,5.34,0,0,1-2.91,4.44c-.6.35-1.19.65-1.76,1a16.87,16.87,0,0,0-4.3,2.9c-.73.72-1.11,2.19-1.11,4.19,0,.43,0,.89,0,1.36v0a.46.46,0,0,1-.33.43,10.85,10.85,0,0,1-2,.45l-.35.09a.45.45,0,0,1-.23,0l-.33-.09a11.15,11.15,0,0,1-2-.45.44.44,0,0,1-.32-.43v0c0-.4.06-.87.06-1.38,0-1.5-.22-3.29-1.12-4.18a16.52,16.52,0,0,0-4.27-2.89c-.57-.31-1.15-.61-1.74-1a5.34,5.34,0,0,1-2.91-4.44,4.09,4.09,0,0,1,.15-1.09c.29-1,1.62-4.72,3.19-5.29-1.36.15-3.66.87-4.27,1.91a17.35,17.35,0,0,1-1.12,1.57c-.88,1.17-2.06,2.72-2.06,3.7a1.24,1.24,0,0,0,0,.27,8.13,8.13,0,0,0,4.27,4.56,20.09,20.09,0,0,0,2.31.94,13.33,13.33,0,0,1,1.68.68c3.22,1.5,4.85,3.3,4.85,5.37a4.32,4.32,0,0,1-.08.79.41.41,0,0,1-.21.3.45.45,0,0,1-.36,0c-.8-.25-1.39-.45-1.84-.63a.43.43,0,0,1-.27-.3,5.18,5.18,0,0,0-2.51-3.16c-1.83-1.13-3.33-1.91-4.78-2.65-1.27-.66-2.47-1.28-3.72-2.06l-.7-.42c-2.88-1.77-7.23-4.43-7.37-7.84,0-.21,0-.46,0-.74,0-2.38.46-6.59,3.56-7.91a5.12,5.12,0,0,0,1.39-.79A1.79,1.79,0,0,0,98.9,99.2Z"/></svg>
