<svg width="240" height="240" viewBox="0 0 240 240" fill="none" xmlns="http://www.w3.org/2000/svg">
<path d="M228.08 75.1544C223.933 73.7383 220.397 70.9421 218.064 67.233C217.931 67.0043 203.617 42.7224 192.698 36.0169L192.53 35.9206C192.53 35.9206 187.389 33.1999 183.152 31.5265V31.3219C183.014 30.5361 182.705 29.7906 182.245 29.139C181.784 28.4875 181.186 27.946 180.491 27.5538C180.331 27.4709 180.167 27.3985 179.998 27.3371C179.44 27.1218 178.849 27.0076 178.252 27C177.249 27.04 176.278 27.3601 175.448 27.9239C174.619 28.4878 173.963 29.2729 173.557 30.1902L141.33 70.8446L134.696 64.0548L134.359 63.7177L134.167 63.5131H131.277C131.979 61.9236 132.343 60.2062 132.349 58.4689C132.365 55.0503 131.024 51.765 128.62 49.3342C126.216 46.9034 122.946 45.5256 119.528 45.5033H119.455C116.054 45.5095 112.793 46.8567 110.379 49.2525C107.965 51.6484 106.594 54.8995 106.562 58.3004C106.549 60.09 106.914 61.8623 107.634 63.501H104.732L104.54 63.7057L104.203 64.0428L97.5692 70.8325L65.3419 30.1902C64.9355 29.2729 64.2803 28.4878 63.4504 27.9239C62.6206 27.3601 61.6494 27.04 60.6469 27C60.0977 27.0039 59.5528 27.0974 59.0337 27.2769L58.516 27.4936C57.8219 27.8923 57.2239 28.4386 56.7641 29.0939C56.3044 29.7491 55.9942 30.4974 55.8555 31.2857C55.8497 31.3538 55.8497 31.4223 55.8555 31.4904C51.4855 33.1999 46.4413 35.8845 46.3932 35.9086L46.2005 36.0169C35.2815 42.6863 20.9195 67.0163 20.8232 67.2571C18.4922 70.9583 14.9604 73.7464 10.8191 75.1544C10.036 75.3419 9.3381 75.7857 8.83617 76.4154C8.33424 77.045 8.05711 77.8243 8.0488 78.6294C8.0405 79.4346 8.30151 80.2194 8.79035 80.8593C9.2792 81.4991 9.96784 81.9572 10.7469 82.1609C13.7806 83.0637 16.0198 86.9763 16.5134 87.9033C17.2042 90.1048 18.3651 92.1299 19.9157 93.8386C21.4664 95.5472 23.3698 96.8985 25.4942 97.799C27.2277 98.7862 27.324 101.483 27.324 101.952C26.9267 105.118 27.8056 108.646 29.9364 112.438C30.9702 114.242 32.18 115.94 33.548 117.506C33.868 117.865 34.2565 118.156 34.6906 118.363C35.1247 118.57 35.5958 118.688 36.0761 118.71H36.365C39.5552 118.71 45.1171 116.086 47.3683 114.954L47.585 114.834C60.8274 107.358 69.3508 94.0309 69.6999 93.4651C72.6934 89.1001 75.9922 84.9524 79.5715 81.0533C82.2462 78.5101 85.5227 76.6875 89.0941 75.7563L90.7554 77.827L74.8283 94.1152L74.5153 94.4523L74.3227 94.6449V123.538L74.5033 123.73L74.8283 124.055L81.0523 130.532C75.6947 127.693 71.2278 123.426 68.1469 118.204C67.8319 117.567 67.3447 117.031 66.7404 116.656C66.136 116.282 65.4389 116.084 64.7279 116.086H64.5594C63.8137 116.109 63.0909 116.349 62.4794 116.777C61.868 117.204 61.3943 117.801 61.1164 118.493C59.1728 123.245 58.3486 128.379 58.7077 133.5C59.0667 138.621 60.5994 143.59 63.187 148.024C63.5342 148.57 64.0147 149.02 64.5833 149.329C65.152 149.639 65.79 149.799 66.4374 149.794C66.7297 149.794 67.021 149.758 67.3042 149.685C67.9906 149.526 68.6196 149.18 69.122 148.686C69.4952 149.312 69.8805 149.89 70.3259 150.552C69.8709 150.491 69.4125 150.459 68.9535 150.456C67.2364 150.432 65.554 150.941 64.1381 151.912L63.175 152.719C62.7186 153.156 62.3146 153.645 61.9711 154.176L52.3402 171.451L52.1597 171.764L52.0513 171.945V172.161V172.523C52.7495 178.542 56.4695 181.058 58.3354 181.527L59.2745 181.78L59.9125 181.961L59.744 182.274L59.4912 182.755L59.9245 183.092L60.6709 183.682L61.5377 184.369L61.9831 183.875L61.5859 184.405C62.6453 185.199 87.9504 203.931 119.72 204.16C151.502 203.931 176.807 185.199 177.867 184.405L178.733 183.718L179.48 183.129L179.913 182.791L179.66 182.31L179.504 181.997L180.142 181.816L181.117 181.552C182.959 181.082 186.667 178.614 187.353 172.559V172.198V171.981L187.245 171.8L187.076 171.487L177.445 154.248C177.099 153.712 176.696 153.215 176.241 152.767L175.266 151.961C173.849 150.992 172.168 150.483 170.451 150.504C169.996 150.507 169.541 150.539 169.091 150.6C169.488 149.986 169.873 149.396 170.294 148.734C170.788 149.228 171.409 149.574 172.088 149.733C172.38 149.806 172.679 149.842 172.979 149.842C173.615 149.841 174.24 149.683 174.799 149.38C175.359 149.078 175.833 148.64 176.181 148.108C178.708 143.627 180.163 138.621 180.432 133.483C180.702 128.345 179.778 123.215 177.734 118.493C177.461 117.807 176.995 117.215 176.393 116.788C175.79 116.361 175.077 116.117 174.339 116.086H174.171C173.462 116.086 172.767 116.283 172.163 116.655C171.559 117.027 171.071 117.559 170.752 118.192C167.673 123.419 163.206 127.69 157.847 130.532L164.07 124.079L164.395 123.754L164.576 123.562V94.669L164.395 94.4763L164.07 94.1393L148.18 77.8751L149.841 75.8045C153.415 76.7431 156.695 78.5693 159.375 81.1135C162.937 84.997 166.224 89.1242 169.211 93.4651C169.572 94.055 178.047 107.394 191.35 114.882L191.579 115.002C193.818 116.134 199.38 118.758 202.534 118.758H202.883C203.836 118.701 204.728 118.268 205.363 117.554C206.567 116.194 212.478 109.127 211.575 101.964C211.575 101.495 211.671 98.7982 213.417 97.811C215.549 96.9143 217.461 95.5632 219.018 93.8521C220.576 92.141 221.741 90.1109 222.434 87.9033C222.927 86.9763 225.178 83.0878 228.188 82.1729C228.973 81.9749 229.669 81.5191 230.163 80.8784C230.658 80.2377 230.923 79.4494 230.916 78.64C230.909 77.8305 230.631 77.0469 230.125 76.4148C229.619 75.7827 228.916 75.3388 228.128 75.1544M94.6198 144.569L104.251 154.489L104.576 154.826L104.768 155.03H110.077C108.187 157.089 106.707 157.161 106.466 157.161C100.505 156.211 94.8379 153.922 89.8886 150.468L94.6198 144.569ZM82.4728 138.249C83.1483 137.947 83.7229 137.457 84.1284 136.838C84.5338 136.22 84.7531 135.497 84.7602 134.757C84.7602 134.625 84.7602 134.481 84.7602 134.348L88.2153 137.96L83.3276 144.136C82.1704 142.609 81.1664 140.972 80.33 139.248L82.4728 138.249ZM81.9311 168.694L83.135 166.13L83.4239 165.528L83.5443 165.083C90.1201 170.368 97.7509 174.186 105.924 176.279C107.878 176.919 109.643 178.031 111.065 179.517C100.671 178.108 90.7198 174.407 81.9311 168.682M119.443 59.5042C119.225 59.5018 119.012 59.4349 118.831 59.3117C118.651 59.1886 118.511 59.0148 118.429 58.8122C118.347 58.6097 118.327 58.3873 118.371 58.1733C118.415 57.9593 118.521 57.763 118.677 57.6093C118.832 57.4557 119.029 57.3514 119.244 57.3096C119.458 57.2678 119.68 57.2904 119.882 57.3746C120.084 57.4588 120.256 57.6007 120.377 57.7826C120.498 57.9645 120.563 58.1781 120.563 58.3967C120.56 58.6915 120.44 58.9732 120.231 59.1806C120.021 59.3879 119.738 59.5042 119.443 59.5042ZM127.87 179.565C129.298 178.071 131.072 176.95 133.035 176.303C141.221 174.199 148.86 170.365 155.439 165.059C155.469 165.21 155.509 165.359 155.559 165.504H155.499L155.776 166.094C156.209 166.997 156.643 167.852 157.052 168.682C148.292 174.499 138.304 178.208 127.87 179.517M154.223 134.3C154.223 134.432 154.223 134.565 154.223 134.709C154.234 135.448 154.455 136.169 154.86 136.787C155.265 137.405 155.837 137.895 156.51 138.201L158.677 139.152C157.85 140.88 156.845 142.518 155.68 144.039L150.792 137.863L154.223 134.3ZM148.998 150.468C144.047 153.927 138.374 156.215 132.409 157.161C132.228 157.161 130.736 157.089 128.797 155.03H134.106L134.299 154.826L134.636 154.489L144.267 144.569L148.998 150.468Z" fill="white"/>
<path d="M227.899 75.7804C223.595 74.3194 219.926 71.4199 217.51 67.5701C217.377 67.3534 203.172 43.1678 192.337 36.6309L192.205 36.5586C189.056 34.8878 185.821 33.3849 182.514 32.0562C182.532 31.8681 182.532 31.6786 182.514 31.4904C182.402 30.7877 182.134 30.1192 181.727 29.5354C181.32 28.9516 180.787 28.4675 180.166 28.1196L179.697 27.9149C179.234 27.7442 178.745 27.6546 178.252 27.6501C177.362 27.7011 176.503 27.9982 175.772 28.5084C175.041 29.0185 174.466 29.7216 174.111 30.5393L141.39 71.8317L134.167 64.5123L133.842 64.1752H130.23C131.18 62.423 131.681 60.4623 131.687 58.4689C131.698 56.8616 131.392 55.268 130.787 53.779C130.182 52.29 129.289 50.9349 128.16 49.7911C127.03 48.6474 125.687 47.7374 124.206 47.1132C122.725 46.489 121.135 46.1629 119.528 46.1534H119.455C117.33 46.1394 115.237 46.6796 113.384 47.7209C111.53 48.7622 109.98 50.2686 108.887 52.0914C107.793 53.9143 107.193 55.9908 107.146 58.1161C107.1 60.2414 107.608 62.3422 108.621 64.2113H105.009L104.672 64.5484L97.5211 71.8679L64.8002 30.5393C64.4441 29.7198 63.867 29.0156 63.1335 28.5053C62.4 27.995 61.539 27.6989 60.6469 27.6501C60.1702 27.6522 59.6975 27.7377 59.2504 27.9029L58.805 28.0835C58.2021 28.4326 57.6835 28.9102 57.2861 29.4824C56.8887 30.0546 56.6222 30.7073 56.5056 31.3941C56.4931 31.5825 56.4931 31.7715 56.5056 31.9599C53.2196 33.2887 50.0049 34.7875 46.8747 36.4503L46.5497 36.6309C35.7149 43.228 21.5214 67.4136 21.377 67.6543C18.9604 71.4936 15.2961 74.3843 10.9997 75.8406C10.3852 76.0149 9.84142 76.3788 9.44584 76.8803C9.05026 77.3818 8.82306 77.9953 8.79662 78.6335C8.79052 79.2842 8.9963 79.9192 9.38287 80.4425C9.76944 80.9659 10.3158 81.3493 10.9395 81.5348C14.2862 82.534 16.6819 86.8078 17.1273 87.6505C17.778 89.7806 18.8897 91.7413 20.3836 93.3934C21.8775 95.0454 23.7169 96.3482 25.771 97.2091C27.9139 98.413 27.9861 101.519 27.9741 102.025C27.5889 105.058 28.4316 108.465 30.5142 112.161C31.5032 113.927 32.6733 115.585 34.0054 117.109C34.2674 117.404 34.5853 117.644 34.9407 117.816C35.2961 117.987 35.682 118.087 36.0761 118.108H36.3289C39.4589 118.108 45.3217 115.279 47.0312 114.412L47.2118 114.316C60.37 106.936 68.7609 93.7179 69.11 93.1641C72.1271 88.7628 75.4499 84.5792 79.0539 80.644C81.9229 77.9199 85.4548 75.9942 89.2987 75.0581L91.586 77.9112L75.2978 94.5726L74.9728 94.9097V123.309L75.2978 123.646L89.0579 137.875L83.3035 145.099C81.7509 143.185 80.4483 141.081 79.4271 138.839L82.208 137.635C82.7639 137.38 83.2351 136.972 83.5655 136.458C83.8959 135.943 84.0716 135.345 84.0716 134.733C84.0716 134.122 83.8959 133.524 83.5655 133.009C83.2351 132.495 82.7639 132.086 82.208 131.832C76.0863 128.977 70.98 124.324 67.5691 118.493C67.3031 117.969 66.8964 117.529 66.3947 117.223C65.8929 116.917 65.3158 116.757 64.7279 116.76H64.5955C63.9847 116.785 63.394 116.986 62.8943 117.338C62.3947 117.69 62.0072 118.179 61.7785 118.746C59.8701 123.392 59.0577 128.415 59.4042 133.426C59.7508 138.436 61.247 143.3 63.7769 147.639C64.0666 148.08 64.4615 148.441 64.926 148.691C65.3905 148.942 65.9099 149.072 66.4374 149.071C66.6804 149.067 66.9223 149.039 67.1597 148.987C67.5843 148.882 67.9833 148.693 68.3329 148.43C68.6824 148.167 68.9754 147.837 69.1943 147.458C69.9768 148.819 70.8195 150.143 71.7103 151.431C70.8011 151.175 69.8619 151.042 68.9174 151.034C67.325 151.011 65.7647 151.482 64.4511 152.382L63.4759 153.189C63.0682 153.595 62.7087 154.048 62.4045 154.537L52.7736 171.776L52.593 172.101V172.462C53.2431 178.157 56.6741 180.468 58.3836 180.889L59.3347 181.154L60.057 181.359L60.5265 180.781L60.8756 180.36C61.0559 180.346 61.237 180.346 61.4173 180.36L60.6589 181.804L60.2135 182.635L60.9599 183.225L61.8387 183.911C62.886 184.706 88.0347 203.305 119.624 203.534C151.189 203.305 176.326 184.706 177.409 183.911L178.288 183.225L179.034 182.635L178.589 181.804L177.831 180.36C178.015 180.346 178.2 180.346 178.384 180.36L178.721 180.781L179.191 181.359L179.913 181.154L180.888 180.877C182.586 180.456 186.005 178.145 186.655 172.45V172.089L186.474 171.764L176.843 154.525C176.531 154.038 176.168 153.586 175.76 153.177L174.785 152.37C173.466 151.471 171.902 151 170.306 151.022C169.362 151.03 168.423 151.163 167.513 151.419C168.404 150.131 169.247 148.807 170.03 147.446C170.249 147.823 170.542 148.152 170.891 148.413C171.241 148.674 171.64 148.861 172.064 148.963C172.304 149.025 172.551 149.058 172.798 149.059C173.325 149.059 173.844 148.927 174.307 148.674C174.769 148.422 175.161 148.058 175.447 147.615C177.98 143.277 179.478 138.414 179.827 133.403C180.176 128.392 179.365 123.369 177.457 118.722C177.198 118.105 176.752 117.584 176.183 117.232C175.613 116.88 174.947 116.715 174.279 116.76H174.147C173.564 116.76 172.994 116.923 172.499 117.229C172.003 117.535 171.603 117.973 171.342 118.493C167.91 124.324 162.788 128.976 156.655 131.832C156.099 132.086 155.627 132.495 155.297 133.009C154.967 133.524 154.791 134.122 154.791 134.733C154.791 135.345 154.967 135.943 155.297 136.458C155.627 136.972 156.099 137.38 156.655 137.635L159.436 138.839C158.414 141.081 157.112 143.185 155.559 145.099L149.805 137.875L163.565 123.634L163.89 123.297V94.9097L163.565 94.5726L147.301 77.8992L149.6 75.046C153.439 75.9856 156.966 77.9111 159.833 80.6319C163.433 84.5467 166.749 88.7148 169.753 93.1039C170.126 93.6818 178.517 106.9 191.687 114.28L191.856 114.388C193.577 115.243 199.428 118.072 202.522 118.072H202.811C203.201 118.053 203.584 117.958 203.937 117.79C204.291 117.623 204.607 117.387 204.869 117.097C206.073 115.761 211.803 108.85 210.889 101.988C210.889 101.519 210.949 98.3768 213.092 97.173C215.147 96.3113 216.987 95.0085 218.483 93.3567C219.979 91.7049 221.093 89.7445 221.747 87.6143C222.193 86.7716 224.576 82.4979 227.923 81.4987C228.551 81.318 229.102 80.9364 229.492 80.4126C229.881 79.8888 230.089 79.2516 230.082 78.5986C230.075 77.9456 229.855 77.3129 229.454 76.7973C229.053 76.2818 228.494 75.9119 227.863 75.7443M94.5716 143.582L104.672 154.031L104.997 154.38H111.414C109.006 157.607 106.935 157.811 106.478 157.811H106.369C100.07 156.815 94.0957 154.34 88.9376 150.588L94.5716 143.582ZM81.0884 168.863C81.5699 167.9 82.0756 166.876 82.5932 165.793C82.8485 165.157 83.0107 164.488 83.0748 163.807C89.7635 169.414 97.6252 173.45 106.081 175.616C108.71 176.53 111.027 178.17 112.762 180.348C101.439 179.102 90.5785 175.164 81.0884 168.863ZM119.443 60.0339C119.12 60.0315 118.804 59.9332 118.536 59.7513C118.268 59.5694 118.06 59.3122 117.938 59.0121C117.817 58.712 117.787 58.3826 117.852 58.0655C117.918 57.7484 118.076 57.4578 118.306 57.2305C118.537 57.0032 118.83 56.8494 119.148 56.7886C119.466 56.7278 119.795 56.7626 120.093 56.8887C120.391 57.0148 120.645 57.2266 120.823 57.4971C121.001 57.7677 121.095 58.0849 121.093 58.4087C121.091 58.6237 121.047 58.8363 120.963 59.0343C120.88 59.2324 120.758 59.412 120.605 59.5629C120.451 59.7138 120.27 59.8331 120.071 59.9139C119.872 59.9947 119.658 60.0355 119.443 60.0339ZM155.836 163.855C155.898 164.536 156.056 165.205 156.306 165.841C156.835 166.937 157.341 167.96 157.822 168.923C148.382 175.339 137.484 179.288 126.125 180.408C127.863 178.226 130.184 176.582 132.818 175.665C141.277 173.497 149.142 169.461 155.836 163.855ZM149.961 150.612C144.81 154.369 138.839 156.845 132.541 157.835H132.313C131.699 157.835 129.724 157.426 127.497 154.404H133.914L134.251 154.055L144.339 143.606L149.961 150.612Z" fill="#FFE500"/>
<path d="M69.122 165.624C69.104 166.038 69.1681 166.451 69.3107 166.839C69.4533 167.228 69.6715 167.584 69.9527 167.888C70.1803 168.123 70.4536 168.31 70.7558 168.436C71.058 168.562 71.3828 168.626 71.7103 168.622C72.446 168.593 73.1448 168.293 73.6726 167.779C73.7467 167.704 73.8151 167.624 73.8773 167.539L149.155 73.7699C153.47 74.6843 157.451 76.7665 160.664 79.7892C161.169 80.3671 168.38 88.4691 170.752 92.4779C171.125 93.0799 179.444 106.082 192.301 113.269H192.373C193.577 113.871 199.657 116.88 202.558 116.88H202.738C202.985 116.873 203.227 116.816 203.45 116.713C203.674 116.609 203.874 116.461 204.039 116.278C204.376 116.086 210.72 108.862 209.793 102.073C209.793 101.543 209.793 97.6786 212.646 96.1858C214.574 95.3775 216.298 94.1516 217.695 92.5966C219.092 91.0415 220.126 89.196 220.724 87.193C221.157 86.3503 223.77 81.571 227.634 80.4153C228.034 80.3112 228.388 80.0774 228.64 79.7507C228.893 79.4239 229.03 79.0225 229.03 78.6095C229.03 78.1964 228.893 77.7951 228.64 77.4683C228.388 77.1415 228.034 76.9077 227.634 76.8037C223.055 75.2675 219.149 72.1916 216.583 68.0998C216.017 67.1246 202.04 43.7216 191.795 37.4736L191.687 37.4134C188.349 35.6484 184.912 34.0768 181.394 32.7063C181.466 32.3082 181.466 31.9005 181.394 31.5024C181.305 30.984 181.103 30.4913 180.804 30.0588C180.505 29.6262 180.114 29.2643 179.66 28.9984C179.555 28.9471 179.447 28.9028 179.335 28.866C177.614 28.2641 176.049 29.179 175.11 31.057L69.6156 164.24C69.2983 164.632 69.1242 165.12 69.122 165.624Z" fill="#1E336D"/>
<path d="M175.29 35.2826C173.97 38.5202 172.425 41.6618 170.668 44.6847L158.629 59.7089C155.849 62.866 152.826 65.8004 149.588 68.485C149.107 68.1572 148.567 67.9243 147.999 67.7988L174.279 34.5001L174.339 34.5964C174.563 34.9176 174.883 35.1582 175.254 35.2826" fill="#FFE500"/>
<path d="M179.877 31.8154C179.296 31.1521 178.542 30.6642 177.698 30.4069C177.882 30.3153 178.083 30.266 178.288 30.2625C178.453 30.259 178.616 30.2876 178.77 30.3467H178.89C179.151 30.5059 179.374 30.7196 179.544 30.9731C179.715 31.2266 179.828 31.5139 179.877 31.8154Z" fill="#FFE500"/>
<path d="M70.6148 165.624C70.6129 165.458 70.6681 165.297 70.7713 165.167L144.736 71.8197C144.905 72.0595 145.128 72.2556 145.388 72.3917C145.648 72.5278 145.936 72.6 146.229 72.6022C146.429 72.8698 146.694 73.0813 147 73.2162L147.505 73.4208L72.6855 166.648C72.4435 166.897 72.1173 167.047 71.7705 167.069C71.5053 167.068 71.2506 166.965 71.0602 166.78C70.92 166.615 70.8138 166.423 70.7477 166.217C70.6816 166.01 70.6569 165.792 70.675 165.576" fill="#FFE500"/>
<path d="M173.509 36.2577L148.721 67.6182L170.09 42.3372C170.09 42.3372 174.243 38.0514 173.509 36.3179" fill="white"/>
<path d="M198.465 58.5291L198.356 58.3004L198.164 58.0716C191.908 50.4854 184.035 44.3938 175.122 40.2425V40.3267C176.579 37.3171 177.385 35.1742 177.385 35.1742C177.638 33.3203 175.989 33.5129 175.989 33.5129L176.687 32.1766C178.119 32.0803 179.191 34.0426 179.191 34.0426C183.055 35.0538 190.772 39.1229 190.772 39.1229C200.764 45.2144 214.958 69.1351 214.958 69.1351C217.746 73.6545 222.052 77.0342 227.105 78.6697C225.19 79.3252 223.48 80.4708 222.145 81.9923C208.902 73.7459 198.585 58.7337 198.453 58.5532" fill="white"/>
<path d="M185.547 75.7202L185.379 75.4674L185.174 75.2387C179.097 67.8485 171.48 61.8747 162.855 57.7345C165.395 54.8934 167.225 52.7265 167.225 52.7265C167.706 52.1727 168.164 51.5949 168.609 51.017C176.233 54.3536 182.97 59.4289 188.28 65.8365C189.929 68.1961 200.596 83.1721 215.21 92.4177C214.21 93.2789 213.081 93.9776 211.864 94.4884C211.041 94.9179 210.315 95.5095 209.727 96.2274C209.139 96.9453 208.703 97.7748 208.445 98.6658C195.563 90.323 185.644 75.9008 185.571 75.7202" fill="white"/>
<path d="M147.277 69.5926C147.67 69.6485 148.048 69.7841 148.388 69.9911C148.727 70.1981 149.021 70.4721 149.251 70.7964C150.8 69.7791 152.265 68.6399 153.633 67.3895C162.069 70.6798 169.527 76.0661 175.302 83.0397C177.048 85.5317 189.159 102.446 205.327 111.403C204.531 112.677 203.633 113.885 202.642 115.014C200.126 115.123 193.204 111.643 193.204 111.643C180.611 104.589 172.341 91.5148 172.341 91.5148C169.753 87.1569 162 78.5011 162 78.5011C158.221 74.8855 153.437 72.4976 148.276 71.6512L147.794 71.5428C147.566 70.2788 146.289 70.7844 146.289 70.7844L147.277 69.5926Z" fill="white"/>
<path d="M91.4416 141.607L71.4575 166.539L73.0707 165.564L91.4416 142.715V141.607Z" fill="white"/>
<path d="M169.283 164.24L63.8371 31.1654C62.8981 29.2873 61.3331 28.3724 59.6236 28.9743C59.5124 29.0112 59.4038 29.0554 59.2985 29.1068C58.8334 29.3661 58.4314 29.725 58.1213 30.158C57.8112 30.5909 57.6007 31.087 57.5048 31.6108C57.4394 32.0094 57.4394 32.416 57.5048 32.8146C54.0016 34.1658 50.5808 35.7215 47.2599 37.4736L47.1516 37.5338C36.9067 43.7818 22.942 67.1848 22.3641 68.16C19.8005 72.2545 15.894 75.3312 11.3127 76.8639C10.913 76.9679 10.5591 77.2017 10.3065 77.5285C10.0539 77.8553 9.91683 78.2566 9.91683 78.6697C9.91683 79.0827 10.0539 79.4841 10.3065 79.8109C10.5591 80.1376 10.913 80.3714 11.3127 80.4754C15.141 81.6071 17.7774 86.3864 18.1747 87.193C18.7672 89.1913 19.7944 91.0338 21.1826 92.5885C22.5708 94.1433 24.2857 95.3717 26.2044 96.1858C29.0455 97.6786 29.0817 101.543 29.0576 102.073C28.1908 108.862 34.6314 116.086 34.8602 116.338C35.0248 116.522 35.225 116.669 35.4485 116.773C35.672 116.876 35.9142 116.933 36.1604 116.94H36.3409C39.2422 116.94 45.3338 113.967 46.5256 113.329H46.5978C59.455 106.106 67.7737 93.1401 68.1589 92.5381C70.5667 88.5293 77.7296 80.4273 78.2352 79.8494C81.4499 76.8297 85.4302 74.748 89.7441 73.8301L165.021 167.599L165.226 167.84C165.754 168.353 166.453 168.653 167.188 168.682C167.516 168.686 167.841 168.623 168.143 168.496C168.445 168.37 168.718 168.183 168.946 167.948C169.23 167.646 169.45 167.29 169.593 166.901C169.736 166.512 169.798 166.098 169.777 165.685C169.781 165.179 169.606 164.689 169.283 164.3" fill="#1E336D"/>
<path d="M64.5353 34.5964C64.5331 34.5643 64.5331 34.5321 64.5353 34.5001L90.9841 67.7988C90.4163 67.9265 89.8773 68.1593 89.395 68.485C86.165 65.7994 83.1501 62.8651 80.3781 59.7089L68.3395 44.6847C66.5665 41.6608 65.0018 38.5195 63.6565 35.2826C64.0291 35.1553 64.353 34.9155 64.5835 34.5964" fill="#FFE500"/>
<path d="M60.0088 30.419H60.1292C60.2832 30.3618 60.4464 30.3332 60.6107 30.3347C60.8157 30.3382 61.0173 30.3875 61.2006 30.4792C60.3655 30.7162 59.6116 31.1785 59.0216 31.8154C59.077 31.5225 59.1935 31.2446 59.3637 30.9998C59.5338 30.755 59.7536 30.5489 60.0088 30.3949" fill="#FFE500"/>
<path d="M167.899 166.84C167.713 167.024 167.462 167.128 167.2 167.129C166.853 167.11 166.526 166.959 166.286 166.708C166.286 166.708 166.225 166.708 166.213 166.708L91.3573 73.4208L91.875 73.2162C92.1747 73.0773 92.4352 72.8664 92.6334 72.6022C92.928 72.599 93.2178 72.5264 93.4792 72.3905C93.7406 72.2546 93.9664 72.059 94.1382 71.8197L168.091 165.167C168.196 165.296 168.252 165.458 168.248 165.624C168.266 165.841 168.241 166.058 168.175 166.265C168.109 166.471 168.003 166.663 167.863 166.828" fill="#FFE500"/>
<path d="M40.4341 58.5291L40.6507 58.3004L40.8434 58.0716C47.0705 50.5008 54.9044 44.4105 63.7769 40.2425C63.7729 40.2704 63.7729 40.2988 63.7769 40.3267C62.3202 37.293 61.5498 35.1501 61.5498 35.1501C61.2969 33.2962 62.9583 33.4888 62.9583 33.4888L62.2119 32.1766C60.7793 32.0803 59.7079 34.0426 59.7079 34.0426C55.8435 35.0538 48.1267 39.1229 48.1267 39.1229C38.1588 45.2144 23.9532 69.1351 23.9532 69.1351C21.1472 73.6561 16.8245 77.0315 11.7581 78.6576C13.6731 79.3132 15.3831 80.4587 16.718 81.9803C29.9605 73.7338 40.2896 58.7217 40.41 58.5411" fill="white"/>
<path d="M53.3635 75.7202L53.52 75.4674L53.7247 75.2387C59.8038 67.851 67.4205 61.8776 76.0442 57.7345C73.5041 54.8934 71.6742 52.7265 71.6742 52.7265C71.2047 52.1727 70.7352 51.5949 70.2898 51.017C62.6778 54.3677 55.9541 59.4507 50.6548 65.8606C49.0778 68.1961 38.3032 83.1721 23.6763 92.4177C24.6766 93.2789 25.8059 93.9776 27.0231 94.4884C27.8451 94.92 28.5723 95.5121 29.1616 96.2296C29.7509 96.9471 30.1904 97.7755 30.4541 98.6658C43.3233 90.323 53.2431 75.9008 53.3274 75.7202" fill="white"/>
<path d="M91.6222 69.5926C91.2285 69.6485 90.8505 69.7841 90.511 69.9911C90.1716 70.1981 89.8778 70.4721 89.6478 70.7964C88.0989 69.7791 86.6335 68.6399 85.2658 67.3895C76.8299 70.6798 69.372 76.0661 63.5963 83.0397C61.8387 85.5437 49.7279 102.458 33.5721 111.415C34.3614 112.69 35.2553 113.898 36.2446 115.026C38.7727 115.135 45.6829 111.655 45.6829 111.655C58.2753 104.601 66.5578 91.5269 66.5578 91.5269C69.1341 87.193 76.8869 78.5734 76.8869 78.5734C80.6657 74.9577 85.4499 72.5698 90.6109 71.7234L91.1406 71.4947C91.3694 70.2306 92.6455 70.7362 92.6455 70.7362L91.6222 69.5926Z" fill="white"/>
<path d="M65.9318 37.606L88.4801 65.7884L85.5066 63.7659L65.9318 37.606Z" fill="white"/>
<path d="M147.241 140.933L165.961 163.999C165.961 163.999 166.948 165.119 167.453 164.746L148.192 141.066L147.241 140.933Z" fill="white"/>
<path d="M176.073 119.167C175.924 118.808 175.677 118.497 175.36 118.271C175.042 118.046 174.668 117.914 174.279 117.891C173.888 117.877 173.501 117.974 173.164 118.173C172.827 118.371 172.554 118.662 172.377 119.011C168.835 125.103 163.512 129.964 157.124 132.94C156.767 133.104 156.464 133.367 156.251 133.698C156.038 134.028 155.923 134.412 155.92 134.806C155.92 135.2 156.034 135.585 156.247 135.916C156.461 136.247 156.765 136.509 157.124 136.672L160.904 138.345C159.135 142.884 152.477 155.464 132.71 158.979H132.409C131.338 158.979 127.521 158.413 124.09 150.793C123.938 150.454 123.696 150.162 123.391 149.95C123.085 149.738 122.728 149.613 122.357 149.589L119.744 149.421C119.696 149.413 119.648 149.413 119.6 149.421H119.263C119.263 149.421 119.166 149.421 119.118 149.421L116.518 149.589C116.146 149.611 115.788 149.734 115.482 149.947C115.176 150.159 114.935 150.452 114.784 150.793C111.341 158.413 107.561 158.991 106.454 158.979H106.153C86.3974 155.404 79.728 142.823 77.9704 138.285L81.7626 136.611C82.1219 136.45 82.4269 136.187 82.6408 135.856C82.8548 135.525 82.9686 135.14 82.9686 134.745C82.9686 134.351 82.8548 133.966 82.6408 133.635C82.4269 133.304 82.1219 133.041 81.7626 132.879C75.399 129.915 70.0937 125.076 66.5578 119.011C66.3779 118.662 66.1019 118.372 65.7624 118.175C65.4229 117.977 65.0341 117.881 64.6419 117.898C64.2496 117.914 63.8702 118.042 63.5484 118.267C63.2266 118.492 62.9759 118.805 62.8258 119.167C60.9677 123.644 60.1725 128.49 60.5025 133.326C60.8325 138.161 62.2789 142.854 64.7279 147.037C64.9585 147.387 65.2912 147.658 65.681 147.813C66.0707 147.968 66.4987 148 66.9069 147.904C67.3095 147.805 67.6734 147.588 67.9522 147.282C68.231 146.975 68.412 146.592 68.4719 146.182C68.5443 145.693 68.7208 145.225 68.9896 144.81C72.8022 152.094 78.0891 158.505 84.5142 163.634C90.9392 168.764 98.3617 172.5 106.309 174.605C113.123 176.531 117.385 185.332 117.421 185.44C117.609 185.801 117.893 186.104 118.241 186.317C118.589 186.529 118.988 186.642 119.395 186.644C119.804 186.64 120.204 186.526 120.554 186.314C120.903 186.103 121.189 185.801 121.382 185.44C121.382 185.344 125.691 176.543 132.493 174.605C140.451 172.506 147.884 168.772 154.32 163.642C160.755 158.513 166.052 152.099 169.873 144.81C170.15 145.224 170.339 145.691 170.427 146.182C170.481 146.6 170.661 146.992 170.942 147.306C171.224 147.62 171.594 147.841 172.004 147.94C172.412 148.034 172.84 148.002 173.229 147.847C173.618 147.692 173.951 147.422 174.183 147.073C176.628 142.889 178.071 138.195 178.399 133.36C178.727 128.525 177.931 123.68 176.073 119.204" fill="#1E336D"/>
<path d="M119.443 151.431H119.648L122.248 151.599C127.064 162.278 133.083 160.941 133.083 160.941C158.629 156.403 163.444 137.165 163.444 137.165L157.931 134.757C164.753 131.625 170.429 126.445 174.171 119.938C175.891 124.111 176.631 128.623 176.335 133.126C176.039 137.63 174.713 142.006 172.461 145.917C172.172 143.401 169.464 141.102 169.464 141.102C165.909 148.768 160.716 155.56 154.252 161.002C147.787 166.443 140.208 170.4 132.048 172.595C124.162 174.774 119.443 184.633 119.443 184.633C119.443 184.633 114.736 174.822 106.851 172.595C98.6921 170.397 91.1145 166.438 84.6519 160.994C78.1893 155.551 72.9991 148.756 69.4471 141.09C69.4471 141.09 66.7263 143.401 66.4374 145.905C64.1872 141.995 62.863 137.622 62.5667 133.12C62.2704 128.619 63.0097 124.109 64.7279 119.938C68.461 126.429 74.1193 131.599 80.9199 134.733L75.4182 137.141C75.4182 137.141 80.3179 156.403 105.804 160.917C105.804 160.917 111.823 162.254 116.638 151.575L119.239 151.407L119.443 151.431Z" fill="#FFE500"/>
<path d="M107.381 169.718C116.807 172.956 118.516 179.18 118.516 179.18V155.524C118.011 155.404 116.771 156.246 116.771 156.246C116.771 156.246 114.122 164.673 112.87 165.877C111.618 167.081 108.705 166.479 108.705 166.479C79.5595 159.894 72.0233 139.573 72.0233 139.573L70.8917 140.283C70.8917 140.283 76.911 159.208 107.381 169.681" fill="white"/>
<path d="M119.516 47.285C117.317 47.2708 115.165 47.9088 113.329 49.1184C111.494 50.328 110.058 52.0548 109.204 54.0804C108.351 56.106 108.117 58.3393 108.532 60.4978C108.948 62.6563 109.995 64.643 111.54 66.2066C113.085 67.7701 115.059 68.8403 117.212 69.2817C119.366 69.7231 121.602 69.5159 123.637 68.6863C125.673 67.8567 127.417 66.442 128.648 64.6211C129.879 62.8002 130.543 60.655 130.555 58.4569C130.568 55.5129 129.413 52.6839 127.344 50.5898C125.275 48.4957 122.46 47.3073 119.516 47.285ZM119.443 60.9368C118.77 60.9368 118.124 60.6692 117.647 60.1928C117.171 59.7164 116.903 59.0704 116.903 58.3967C116.903 57.723 117.171 57.0769 117.647 56.6005C118.124 56.1241 118.77 55.8565 119.443 55.8565C120.117 55.8565 120.763 56.1241 121.24 56.6005C121.716 57.0769 121.984 57.723 121.984 58.3967C121.984 59.0704 121.716 59.7164 121.24 60.1928C120.763 60.6692 120.117 60.9368 119.443 60.9368Z" fill="#1E336D"/>
<path d="M119.407 67.4497C117.614 67.4377 115.865 66.8944 114.381 65.8885C112.897 64.8825 111.745 63.459 111.07 61.7981C110.395 60.1372 110.227 58.3133 110.589 56.5573C110.95 54.8012 111.824 53.1918 113.1 51.9324C114.377 50.6731 115.997 49.8205 117.758 49.4824C119.519 49.1443 121.34 49.3359 122.992 50.033C124.644 50.73 126.052 51.9013 127.038 53.3986C128.024 54.8959 128.544 56.652 128.533 58.4448C128.513 60.8459 127.544 63.1417 125.836 64.8294C124.128 66.5171 121.82 67.4593 119.419 67.4497M119.492 53.7979C118.582 53.7908 117.69 54.0538 116.929 54.5537C116.169 55.0536 115.574 55.7679 115.22 56.6061C114.865 57.4444 114.768 58.3689 114.939 59.2627C115.11 60.1564 115.543 60.9792 116.182 61.6269C116.822 62.2746 117.639 62.7181 118.53 62.9012C119.422 63.0843 120.347 62.9988 121.19 62.6555C122.033 62.3122 122.755 61.7266 123.265 60.9728C123.775 60.2189 124.049 59.3308 124.054 58.4207C124.061 57.2031 123.584 56.0327 122.729 55.1661C121.873 54.2995 120.709 53.8075 119.492 53.7979Z" fill="#FFE500"/>
<path d="M116.121 51.3902C116.121 51.3902 111.546 53.1358 111.426 57.4095C111.426 57.4095 111.426 61.1294 113.436 62.8148C113.436 62.8148 112.16 58.9986 112.822 57.241C112.914 56.0846 113.256 54.9622 113.826 53.9517C114.396 52.9413 115.179 52.0672 116.121 51.3902Z" fill="white"/>
<path d="M127.509 59.0829C127.509 59.0829 127.208 63.2723 124.042 64.4641L125.547 61.9119C125.547 61.9119 127.593 60.058 127.509 59.119" fill="white"/>
<path d="M154.403 120.215L130.711 144.737H108.187L84.4953 120.215V98.0638L108.187 73.8061H130.711L154.403 98.0638V120.215Z" fill="white"/>
<path d="M133.42 65.3068H105.479L76.1165 95.4033V122.839L105.479 153.237H133.42L162.794 122.839V95.3672L133.42 65.3068ZM156.715 120.901L131.434 147.037H107.357L82.1839 120.901V97.3174L107.465 71.4706H131.542L156.823 97.3174L156.715 120.901Z" fill="#1E336D"/>
<path d="M119.455 102.639L109.487 108.393L99.363 102.386L99.3028 113.269L109.427 119.264L119.383 113.521L129.291 119.372L139.488 113.509L139.548 102.626L129.351 108.513L119.455 102.639Z" fill="#1E336D"/>
<path d="M119.455 118L109.487 123.742L99.363 117.747L99.3028 128.618L109.427 134.613L119.383 128.883L129.291 134.733L139.488 128.859L139.548 117.976L129.351 123.863L119.455 118Z" fill="#1E336D"/>
<path d="M129.411 93.2966L119.455 87.2893L109.487 93.2966L99.363 87.2893V98.1722L109.487 104.179L119.455 98.1722L129.411 104.179L139.596 98.1722V87.2893L129.411 93.2966Z" fill="#1E336D"/>
<path d="M131.458 71.4706H107.381L82.0996 97.3174V120.901L107.381 147.037H131.458L156.739 120.901V97.3174L131.458 71.4706ZM154.403 120.215L130.711 144.737H108.187L84.4953 120.215V98.0277L108.187 73.8061H130.711L154.403 98.0277V120.215Z" fill="#FFE500"/>
<path d="M175.772 155.307C175.504 154.873 175.189 154.469 174.833 154.104L173.87 153.297C172.736 152.498 171.38 152.077 169.993 152.093C167.455 152.256 165.005 153.087 162.891 154.501C154.704 158.919 157.293 165.155 157.329 165.215C158.015 166.624 158.665 167.924 159.267 169.14C147.635 177.389 133.715 181.796 119.455 181.744C105.22 181.638 91.3466 177.246 79.6438 169.14C80.2457 167.936 80.8476 166.624 81.5699 165.215C81.5699 165.215 84.1944 158.919 76.0081 154.501C73.8938 153.087 71.4436 152.256 68.9053 152.093C67.5188 152.077 66.1624 152.498 65.0289 153.297L64.0658 154.104C63.7098 154.469 63.3949 154.873 63.1268 155.307L53.4959 172.547C54.2182 178.783 58.3114 179.974 58.4438 180.023L59.431 180.287L59.9005 179.71C60.1894 179.276 62.6091 179.288 62.874 179.782L61.4414 182.503L62.3202 183.189C62.573 183.369 87.517 202.366 119.407 202.595C151.297 202.366 176.241 183.333 176.482 183.189L177.361 182.503L175.928 179.782C176.193 179.288 178.625 179.276 178.902 179.71L179.371 180.287L180.359 180.023C180.527 180.023 184.584 178.819 185.307 172.547L175.772 155.307Z" fill="#1E336D"/>
<path d="M95.0171 186.186C95.9542 185.742 97.0235 185.665 98.0147 185.97C98.9787 186.269 99.8222 186.868 100.422 187.679L101.193 185.909L101.085 185.813C100.359 185.126 99.48 184.622 98.5203 184.344C96.9216 183.852 95.1937 184.003 93.7049 184.766C92.5755 185.367 91.7153 186.374 91.2971 187.583C91.0037 188.24 90.8755 188.958 90.9238 189.676C90.9721 190.394 91.1953 191.089 91.574 191.7C91.9914 192.415 92.547 193.04 93.2084 193.538C93.8698 194.036 94.6238 194.398 95.4264 194.601C96.556 194.937 97.7504 194.99 98.9055 194.758H98.9657C99.1824 194.024 99.3871 193.277 99.6038 192.543L99.2185 192.687C98.9083 192.808 98.5906 192.908 98.2675 192.988C97.9905 193.057 97.7088 193.105 97.4248 193.133C96.8915 193.174 96.3553 193.109 95.8477 192.94C95.3473 192.812 94.8771 192.587 94.4639 192.277C94.0507 191.967 93.7028 191.579 93.44 191.134C93.1938 190.724 93.0481 190.262 93.0146 189.785C92.9811 189.308 93.0609 188.83 93.2474 188.389C93.3795 187.919 93.6083 187.481 93.9192 187.104C94.2302 186.726 94.6164 186.418 95.0532 186.198" fill="white"/>
<path d="M170.728 182.298C154.068 194.111 133.834 199.794 113.46 198.381L112.786 199.658C133.589 201.245 154.296 195.532 171.342 183.502L170.728 182.298Z" fill="white"/>
<path d="M83.3517 190.725L82.7618 191.929C91.611 195.967 101.055 198.548 110.727 199.573C110.583 199.116 110.451 198.658 110.306 198.189C100.983 197.145 91.8843 194.625 83.3517 190.725Z" fill="white"/>
<path d="M67.9422 181.696L67.3162 182.9C71.18 185.685 75.2577 188.161 79.5113 190.304C79.716 189.93 79.9086 189.545 80.1133 189.1C75.8647 186.957 71.7947 184.477 67.9422 181.684" fill="white"/>
<path d="M164.648 170.909L164.046 169.706C156.469 175.329 147.889 179.456 138.765 181.865L139.704 182.936C148.679 180.496 157.124 176.414 164.612 170.897" fill="white"/>
<path d="M137.164 183.658C137.261 183.201 137.345 182.731 137.429 182.274C133.276 183.289 129.043 183.942 124.776 184.224C124.981 184.645 125.21 185.055 125.427 185.428C129.38 185.132 133.305 184.528 137.164 183.622" fill="white"/>
<path d="M115.88 185.584C116.097 185.163 116.313 184.742 116.518 184.381C114.11 184.272 111.703 184.043 109.295 183.718C109.415 184.152 109.524 184.609 109.644 185.055C111.727 185.332 113.821 185.536 115.904 185.645" fill="white"/>
<path d="M122.742 185.621L122.923 184.32C121.177 184.393 119.431 184.417 117.686 184.32L118.011 185.609C119.588 185.609 121.153 185.609 122.742 185.609" fill="white"/>
<path d="M145.387 187.487L143.966 187.944C144.399 188.365 144.845 188.775 145.314 189.148L145.663 189.027C147.493 190.231 149.407 191.267 151.382 192.29C152.237 191.953 153.103 191.616 153.946 191.255C151.791 190.28 149.708 189.232 147.722 188.101C148.467 187.689 149.042 187.029 149.347 186.235C149.692 185.476 149.735 184.615 149.468 183.827C149.254 183.358 148.943 182.941 148.554 182.602C148.166 182.264 147.71 182.012 147.216 181.865C145.95 181.616 144.638 181.75 143.448 182.25C142.738 182.478 142.016 182.707 141.318 182.9L140.005 183.297C140.403 183.731 140.8 184.164 141.209 184.585C142.228 184.296 143.252 183.983 144.279 183.646C145.976 183.068 147.156 183.417 147.65 184.573C148.143 185.729 147.253 186.861 145.387 187.487Z" fill="white"/>
<path d="M157.654 189.629C155.808 186.01 153.986 182.398 152.188 178.795C151.611 179.06 150.985 179.336 150.431 179.589C152.128 183.201 153.862 186.933 155.595 190.617L157.654 189.653" fill="white"/>
<path d="M117.553 198.273H119.853H119.961C121.638 194.926 123.119 191.576 124.403 188.221C125.944 191.411 127.642 194.589 129.532 197.743C130.338 197.647 131.133 197.539 131.939 197.418C128.959 193.046 126.3 188.463 123.982 183.706C122.59 187.57 120.982 191.352 119.166 195.035C118.412 191.231 117.77 187.458 117.24 183.718C115.672 187.758 113.9 191.716 111.931 195.576C110.677 191.432 109.64 187.225 108.825 182.972C107.421 187.121 105.868 191.271 104.166 195.42L106.165 184.778C105.539 184.67 104.961 184.549 104.299 184.417C103.448 188.365 102.581 192.35 101.698 196.371C102.337 196.515 102.987 196.636 103.613 196.756C104.371 196.901 105.142 197.033 105.9 197.154C106.791 194.746 107.634 192.338 108.416 190.027C109.307 193.422 110.378 196.841 111.606 200.284C113.304 197.129 114.845 193.939 116.241 190.761C116.626 193.241 117.048 195.721 117.529 198.237" fill="white"/>
<path d="M135.13 191.375C134.593 190.904 133.925 190.61 133.216 190.532C133.542 190.227 133.797 189.852 133.959 189.435C134.122 189.019 134.188 188.571 134.155 188.125C134.052 187.645 133.847 187.193 133.553 186.8C133.277 186.397 132.915 186.059 132.493 185.813C132.072 185.562 131.598 185.413 131.109 185.38C130.434 185.329 129.755 185.357 129.086 185.464C127.882 185.609 126.775 185.717 125.631 185.813C125.908 186.331 126.197 186.836 126.498 187.354C127.702 187.258 128.821 187.125 129.965 186.993C130.512 186.892 131.078 186.994 131.554 187.282C131.761 187.412 131.935 187.589 132.062 187.798C132.19 188.007 132.267 188.242 132.289 188.486C132.312 188.754 132.273 189.024 132.175 189.274C132.077 189.525 131.922 189.749 131.723 189.93C131.321 190.362 130.77 190.624 130.182 190.665L128.304 190.869L129.038 192.073C129.568 192.073 130.085 191.977 130.615 191.905C131.481 191.766 132.369 191.901 133.155 192.29C133.43 192.431 133.666 192.638 133.842 192.892C135.431 194.914 133.42 195.613 133.059 195.721C132.615 195.858 132.16 195.959 131.699 196.022C131.699 196.022 132.614 197.37 132.65 197.358C133.095 197.358 134.239 197.117 134.72 197.021C135.515 196.877 136.309 196.732 137.128 196.564C138.053 193.052 138.8 189.496 139.367 185.909C141.558 188.71 143.918 191.447 146.446 194.12C147.228 193.867 147.999 193.614 148.769 193.337C144.882 189.702 141.283 185.77 138.007 181.576C137.506 185.219 136.823 188.835 135.96 192.41C135.767 192.009 135.497 191.649 135.166 191.351" fill="white"/>
<path d="M91.9954 183.743L92.6093 182.298C90.33 181.439 88.0909 180.472 85.8918 179.397C83.9817 183.104 82.0555 186.816 80.1133 190.532C80.7995 190.881 81.4977 191.219 82.196 191.544C83.8011 188.245 85.4062 184.95 87.0114 181.66C88.6486 182.418 90.31 183.104 91.9954 183.743Z" fill="white"/>
<path d="M86.4576 176.519C82.3458 174.479 78.4325 172.061 74.7681 169.296L74.1542 170.428C77.8331 173.211 81.7578 175.652 85.8798 177.723L86.4576 176.519Z" fill="white"/>
<path d="M108.223 183.502C100.899 182.352 93.7889 180.108 87.1318 176.844L86.5419 178.048C93.2503 181.3 100.402 183.543 107.766 184.706C107.922 184.296 108.079 183.887 108.223 183.502Z" fill="white"/>
<path d="M77.4287 167.719L76.2248 166.889C76.5258 166.889 76.8267 166.889 77.1277 166.889H77.7898L77.3926 167.707" fill="white"/>
<path d="M79.1743 164.035C78.8733 164.962 74.4311 164.589 72.3604 163.59L71.6261 163.217L64.2344 177.169C63.9416 176.876 63.6188 176.613 63.2713 176.387C62.9156 176.118 62.5042 175.933 62.0674 175.845L63.512 173.257L69.8805 162.193L68.9415 161.495C65.9438 159.28 65.3299 157.884 65.2456 157.378C65.1948 157.12 65.2467 156.852 65.3901 156.632C65.7555 156.035 66.2744 155.546 66.8927 155.218C67.511 154.89 68.2061 154.734 68.9053 154.766C70.9392 154.943 72.8946 155.635 74.5876 156.776L74.7079 156.86C80.0651 159.714 79.5234 163.157 79.2224 164.084" fill="white"/>
<path d="M161.482 167.719C161.338 167.442 161.205 167.177 161.073 166.901H161.735C162.036 166.901 162.337 166.901 162.638 166.901L161.434 167.731" fill="white"/>
<path d="M175.603 176.387C175.249 176.608 174.921 176.871 174.628 177.169L167.237 163.217L166.502 163.59C164.432 164.589 159.989 164.962 159.688 164.035C159.387 163.108 158.858 159.714 164.203 156.812L164.323 156.728C166.016 155.587 167.972 154.895 170.005 154.717C170.705 154.686 171.4 154.842 172.018 155.17C172.636 155.498 173.155 155.986 173.521 156.583C173.664 156.804 173.72 157.07 173.677 157.33C173.545 157.775 172.967 159.232 169.969 161.447L169.03 162.145L175.411 173.209L176.843 175.797C176.405 175.881 175.993 176.067 175.64 176.339" fill="white"/>
</svg>
