<svg id="Layer_1" data-name="Layer 1" width="240" height="240" xmlns="http://www.w3.org/2000/svg" viewBox="0 0 240 240"><defs><style>.cls-1{fill:#005ca9;}.cls-2{fill:#fff;}.cls-3{fill:#b71e3f;}</style></defs><path class="cls-1" d="M195.14,136.7h0c-.06-.84-.14-1.8-2.77-7.9l-1.59-3.62a10.45,10.45,0,0,0-2-3.38,9,9,0,0,0-4.11-5.8,10.6,10.6,0,0,0-10.63-.36s-.63.33-1.45.85c-1.18-6.85-3.22-19.26-3.63-22-.28-1.85,1.89-6.18,3.22-7.45,3.42-3.26,11.42-10,11.51-10l1.47-1.23L171.19,49l-4,1.85c-.1,0-10.95,5-18.49,4.35-9-.77-21.31-11.73-25.29-16L120,35.6l-3.41,3.64c-4,4.23-16.29,15.19-25.29,16-7.54.65-18.39-4.3-18.5-4.35l-4-1.85L54.88,75.82l1.47,1.23c.09.07,8.09,6.77,11.51,10,1.33,1.27,3.5,5.6,3.22,7.45-.41,2.7-2.45,15.11-3.63,22-.82-.52-1.44-.84-1.45-.85a10.6,10.6,0,0,0-10.63.36,9,9,0,0,0-4.11,5.81,10.22,10.22,0,0,0-2,3.35l-1.59,3.62c-2.64,6.12-2.72,7.08-2.78,7.93a8.13,8.13,0,0,0,5.53,8.85,33.41,33.41,0,0,0,9.52,21.24c9.88,10.4,20.76,15.08,31,18.6,8.54,2.92,20.23,8.38,25,14.17l4,4.83,4-4.83c4.8-5.79,16.49-11.25,25-14.17,10.29-3.52,21.16-8.2,31-18.61a33.37,33.37,0,0,0,9.52-21.23A8.14,8.14,0,0,0,195.14,136.7Z"/><path class="cls-2" d="M192.76,136.89c0-.56-.11-1.4-2.58-7.15l-1.59-3.6c-.7-1.57-1.18-2.62-2.14-3,0,0,0,0,0-.06a6.29,6.29,0,0,0-3.12-5,8.25,8.25,0,0,0-8.28-.22c-.14.07-3.42,1.85-4.12,3.31-.63-3.22-3.87-22.82-4.38-26.21-.45-2.92,2.32-8,3.93-9.54C174,82,182.11,75.22,182.11,75.22l-12-23.09L168.2,53c-.11,0-11.48,5.27-19.7,4.56-11.83-1-26.71-16.63-26.86-16.79L120,39l-1.64,1.75c-.15.16-15,15.78-26.86,16.79-8.22.71-19.59-4.51-19.7-4.56l-1.92-.89-12,23.09S66,82,69.51,85.36c1.61,1.53,4.38,6.61,3.93,9.53-.51,3.39-3.75,23-4.38,26.21-.69-1.46-4-3.24-4.12-3.31a8.25,8.25,0,0,0-8.28.22,6.29,6.29,0,0,0-3.12,5s0,0,0,.06c-1,.42-1.44,1.47-2.14,3l-1.59,3.6c-2.47,5.75-2.54,6.59-2.58,7.15-.43,5.32,3.84,6.5,5.58,6.94-.34,3.89,1.07,13.15,8.83,21.32,9.52,10,20.08,14.57,30.07,18,9.26,3.16,21,8.74,26.1,14.9l2.18,2.62,2.18-2.62c5.11-6.16,16.84-11.74,26.1-14.9,10-3.42,20.55-8,30.08-18,7.75-8.17,9.16-17.43,8.82-21.32C188.92,143.39,193.19,142.21,192.76,136.89ZM188.11,126a2.83,2.83,0,0,0,0-.29A2.83,2.83,0,0,1,188.11,126ZM51.89,126a2.83,2.83,0,0,1,0-.29A2.83,2.83,0,0,0,51.89,126Z"/><path class="cls-1" d="M169.05,123.1c.42,1.87,2,6.88.68,12.66s-4.76,12.58-14.71,18-16.86,6.91-22.35,9.35A51.74,51.74,0,0,0,120,171.8a51.74,51.74,0,0,0-12.67-8.67c-5.49-2.44-12.41-3.91-22.35-9.35s-13.35-12.24-14.71-18S70.53,125,71,123.1s4.15-24.38,4.68-27.87c.59-3.91-2.72-9.69-4.59-11.48-3.61-3.44-10.37-9.09-10.37-9.09L70.87,55s11.9,5.52,20.82,4.76C104.55,58.68,120,42.22,120,42.22s15.45,16.46,28.31,17.57c8.92.76,20.82-4.76,20.82-4.76l10.2,19.63s-6.76,5.65-10.37,9.09c-1.87,1.79-5.18,7.57-4.59,11.48C164.9,98.72,168.62,121.23,169.05,123.1ZM82.12,69.48H79.58L79,78.39h-.17l-.71-8.91H75.53L77,81.19h3.85ZM88,79H85.81V76.1h1.81V73.89H85.81V71.68H88v-2.2H83.28V81.19H88Zm7-9.51H92.63v5.63h0L91,69.48H88.85V81.19h2.38v-5.7h0l1.64,5.7H95Zm6.39,0H96v2.2h1.43v9.51H100V71.68h1.43Zm5.57,0h-4.92V81.19h2.54V76.1h1.94V73.89h-1.94V71.68H107Zm10.65-15.56a6,6,0,0,0,1.76,3.94c.14.14.29.19.17-.08a6.32,6.32,0,0,1-.45-3,.56.56,0,0,1-.35-.56.59.59,0,0,1,.2-.4.56.56,0,0,1,.41-.14.59.59,0,0,1,.4.2.56.56,0,0,1,.14.41.59.59,0,0,1-.41.52c0,.09,0,.19,0,.31a12.45,12.45,0,0,0,.45,2.39c0,.16.15.35.32,0a8.52,8.52,0,0,0,.4-1.48c0-.11,0-.24,0-.37a.54.54,0,0,1-.23-.46.52.52,0,0,1,.54-.5.53.53,0,0,1,.51.54.53.53,0,0,1-.41.49,4.54,4.54,0,0,1-.39,1.83c-.06.14-.11.35.12.09a5.88,5.88,0,0,0,1.6-3.75,4.49,4.49,0,0,0-2.4-3.76A4.48,4.48,0,0,0,117.62,53.92Zm-6.13,2.44a4.46,4.46,0,0,0,2.83,3.43,5.86,5.86,0,0,0,4.06-.35c.32-.14.1-.16,0-.14a4.46,4.46,0,0,1-1.86-.21.51.51,0,0,1-.59.24.52.52,0,0,1-.36-.64.53.53,0,0,1,.65-.37.55.55,0,0,1,.36.37,3.34,3.34,0,0,0,.36.1,8.92,8.92,0,0,0,1.53.08c.36-.07.22-.22.08-.32a12.65,12.65,0,0,0-2.14-1.16l-.29-.1a.55.55,0,0,1-.62.23.57.57,0,0,1-.35-.26.55.55,0,0,1-.06-.43.6.6,0,0,1,.26-.36.58.58,0,0,1,.87.44,6.4,6.4,0,0,1,2.71,1.36c.22.2.22,0,.12-.13a5.91,5.91,0,0,0-3.2-2.9A4.46,4.46,0,0,0,111.49,56.36Zm2.3,14.82-1.74-1.7h-2.71l-1.68,1.7v8.31l1.68,1.7h2.82l1.63-1.7Zm1-4.83a4.45,4.45,0,0,0,4.15-1.63,5.87,5.87,0,0,0,.91-4c0-.35-.12-.14-.15,0a4.34,4.34,0,0,1-.76,1.71.52.52,0,0,1,0,.64.54.54,0,0,1-.73.14.53.53,0,0,1-.14-.73.52.52,0,0,1,.46-.23,2.36,2.36,0,0,0,.2-.32,8.22,8.22,0,0,0,.56-1.42c0-.37-.15-.28-.28-.18A12.5,12.5,0,0,0,117.24,62a3,3,0,0,0-.18.25.57.57,0,0,1,0,.65.6.6,0,0,1-.36.26.59.59,0,0,1-.43-.08.56.56,0,0,1-.26-.36.55.55,0,0,1,.08-.43.56.56,0,0,1,.61-.25,6.28,6.28,0,0,1,2.13-2.16c.26-.15.1-.2-.09-.16A6,6,0,0,0,115,61.91,4.46,4.46,0,0,0,114.75,66.35Zm6.34,4.83-1.71-1.7H115V81.19h2.53V76.5h1.08v4.69h2.46V76.5l-1.28-1.14,1.28-1.13Zm4.16-4.83a4.46,4.46,0,0,0-.27-4.44,6,6,0,0,0-3.75-2.15c-.19,0-.35,0-.09.16a6.28,6.28,0,0,1,2.13,2.16.56.56,0,0,1,.61.25.55.55,0,0,1,.08.43.56.56,0,0,1-.26.36.58.58,0,0,1-.43.08.6.6,0,0,1-.36-.26.57.57,0,0,1,0-.65,3,3,0,0,0-.18-.25A12.5,12.5,0,0,0,121,60.36c-.13-.1-.32-.19-.27.18a8.41,8.41,0,0,0,.54,1.42c.06.1.13.21.21.32a.52.52,0,0,1,.46.23.53.53,0,0,1-.14.73.54.54,0,0,1-.73-.14.52.52,0,0,1,0-.64,4.49,4.49,0,0,1-.76-1.71c0-.14-.12-.35-.15,0a5.87,5.87,0,0,0,.91,4A4.45,4.45,0,0,0,125.25,66.35ZM127.06,79h-2.2V76.1h1.8V73.89h-1.8V71.68H127v-2.2h-4.68V81.19h4.74Zm1.45-22.63a4.46,4.46,0,0,0-4.31-1.12,5.91,5.91,0,0,0-3.2,2.9c-.1.17-.1.33.12.13a6.4,6.4,0,0,1,2.71-1.36.59.59,0,0,1,.43-.5.57.57,0,0,1,.44.06.6.6,0,0,1,.26.36.55.55,0,0,1-.06.43.57.57,0,0,1-.35.26.55.55,0,0,1-.62-.23l-.29.1a12.65,12.65,0,0,0-2.14,1.16c-.14.1-.28.25.08.32a8.92,8.92,0,0,0,1.53-.08,3.34,3.34,0,0,0,.36-.1.55.55,0,0,1,.36-.37.53.53,0,0,1,.65.37.52.52,0,0,1-.36.64.51.51,0,0,1-.59-.24,4.46,4.46,0,0,1-1.86.21c-.15,0-.37,0,0,.14a5.86,5.86,0,0,0,4.06.35A4.46,4.46,0,0,0,128.51,56.36Zm4.85,13.12H128v2.2h1.43v9.51h2.53V71.68h1.44ZM145,81.19,142.4,75l2.21-5.47H142l-1.66,5h0v-5h-2.54V81.19h2.54v-5h0l1.85,5Zm6.32-10-1.74-1.7h-2.71l-1.68,1.7v8.31l1.68,1.7h2.82l1.63-1.7Zm6.13-1.7h-4.93V81.19H155V76.1H157V73.89H155V71.68h2.39Zm7,10v-10h-2.53V79H160.8V69.48h-2.53v10l1.69,1.7h2.85ZM110.2,79h1V71.68h-1Zm37.48,0h1V71.68h-1ZM117.55,74.3h1.08V71.68h-1.08Z"/><path class="cls-1" d="M62,129.77c-2.83.7-6.92-.81-7.29-4,0,0-4.52,9.88-4.64,11.39-.26,3.23,2,3.59,3.89,4.08Z"/><path class="cls-1" d="M61.4,124.16c4.47,5.29.29,5.39-2.26,3.48Z"/><path class="cls-1" d="M178,129.77c2.83.7,6.93-.81,7.29-4,0,0,4.52,9.88,4.64,11.39.26,3.23-2,3.59-3.89,4.08Z"/><path class="cls-1" d="M178.6,124.16c-4.47,5.29-.29,5.39,2.26,3.48Z"/><path class="cls-1" d="M176.3,163.2c-9.48,10-19.91,14.17-28.94,17.26-4.91,1.68-20.53,7.55-27.36,15.77-6.83-8.22-22.45-14.09-27.36-15.77-9-3.09-19.46-7.28-28.94-17.26C56,155.07,55.4,146.36,55.65,144c.41-4.23,7.2-10.61,7.2-10.61,1.85-2,2.67-8.78-1.41-10.26l-3.25,4.3A5.84,5.84,0,0,1,56.37,123c0-1.4,2.9-4.81,7.31-2.62,2.2,1.08,4.21,5.63,4.43,11.32C69,154.92,93,160.94,103.92,165.93A57.24,57.24,0,0,1,120,176.56a57.24,57.24,0,0,1,16.08-10.63c10.95-5,34.94-11,35.82-34.28.21-5.69,2.22-10.24,4.42-11.32,4.41-2.19,7.35,1.22,7.31,2.62a5.84,5.84,0,0,1-1.82,4.43l-3.25-4.3c-4.08,1.48-3.26,8.22-1.41,10.26,0,0,6.79,6.38,7.2,10.61C184.6,146.36,184,155.07,176.3,163.2ZM65.59,151.46l5.13-.43-1.2-2.15-3,.66,0,0,2.11-2.19-1.2-2.15-3.06,4.14L61.44,151l1.2,2.15Zm2.22,9.27,5.63-6-2.08-2.9-7.44,3.47,1.4,2,1.33-.7.83,1.17-1.08,1ZM75.14,167l5-6.35-2.28-1.79-3,2.57-.18-.13,1.73-3.61-2.28-1.79-5,6.35,1.77,1.39,3.16-4,.08.07-2.35,4.66.72.56,4-3.39.08.07-3.16,4Zm6.55,4.18,2.75-7.75-3.06-1.82L76,167.8,78,169l.94-1.17,1.23.74L79.61,170ZM88,174.33l3.5-7.26-2.08-1-1.69,3.5h0l.25-4.19-1.85-.89-3.5,7.26,2.08,1,1.71-3.54,0,0-.26,4.23Zm7,2.89,1.61-8.07-3.3-1.36-4.48,6.87,2.22.92.76-1.29,1.33.55-.38,1.45Zm6.54,1.4.92-2.28-1.13-1.71-1.62-.78.61-1.52.94.38-.4,1,2.29.92.53-1.32-1.17-1.74-2.41-1-1.94.48-.9,2.24,1.16,1.73,1.6.75-.63,1.56-.94-.38.39-1-2.28-.91-.53,1.31,1,1.68,2.54,1Zm5.83,3.83,3.34-7.34-2.25-1-1.35,3-.94-.42,1.36-3-2.25-1L102,180l2.25,1,1.35-3,.94.43-1.36,3Zm7.33-5.15-2.15-1.2-3.92,7.05,2.15,1.2Zm18.43,4.93-.82-1.29-1.8,1.15-1.06-1.68,1.47-.94-.82-1.28-1.47.94-.82-1.28,1.76-1.12-.82-1.28L125,177.89l4.33,6.8Zm5.92-4.53L138,175.53l-2-.25-1.64.73-.76-1.45.89-.47.51,1,2.18-1.15-.67-1.27-2.07-.22-2.3,1.2-.89,1.79,1.13,2.14,2.06.24,1.61-.73.78,1.49-.9.47-.49-.94-2.18,1.14.65,1.26,2,.29,2.42-1.27Zm4.67-.71-2.53-6,1.28-.54L142,169l-4.84,2,.59,1.4,1.28-.54,2.53,6Zm4.05-1.6-.6-1.44-2.28,1,.6,1.43Zm8.86-4.09-3.58-7.23-1.28.63L150.2,166l.5,1,.89-.45,2.89,5.84Zm6-4.85-2.94-4.91-2-.18-2.34,1.41-.73,1.8,1.36,2.27,1.8.13,1.68-1,.87,1.45-.9.53L159,167l-2.05,1.22.73,1.22,2,.18,2.3-1.38Zm6.17-4.57-1.55-2-1.85.08-1.56,1.19-1.07-1.39.87-.66.65.85,1.9-1.45-.86-1.13-2,.06-2.1,1.6-.56,1.9,3.48,4.55,2,0,2.14-1.63Zm5.52-5.4-2-1.92-1.89.34-1.32,1.3-1.07-1,1.93-2L169,152.13l-3.59,3.67,2.43,2.39,2-.42,1.16-1.14,1.39,1.36-.67.69-.85-.85-1.73,1.76,1.11,1.09,1.95-.32,1.91-1.94ZM157,163.64l.93,1.56.9-.54-.93-1.56Zm-75,.32-2,2.69.92.55,1.32-3.11Zm10.69,9,1,.41.86-3.28-.22-.09Zm72.24-10.64,1.07,1.39.86-.66-1.06-1.39ZM68,155.82l.62.88,2.46-2.33-.14-.19Z"/><path class="cls-2" d="M164.29,86.38c-1.5,2.8-2.68,6.29-2.24,9.19s4.24,26,4.71,28c.05.24.12.49.19.79a22.36,22.36,0,0,1,.49,10.84c-1.05,4.48-3.61,11.07-13.56,16.52a100.37,100.37,0,0,1-15.95,6.89c-2.21.78-4.31,1.52-6.23,2.37a51,51,0,0,0-11.7,7.69A51.16,51.16,0,0,0,108.31,161c-1.92-.85-4-1.59-6.23-2.37a100.37,100.37,0,0,1-16-6.89c-10-5.45-12.51-12-13.56-16.52a22.38,22.38,0,0,1,.48-10.84c.08-.3.15-.55.2-.79.47-2.06,4.26-25.09,4.7-28s-.73-6.39-2.23-9.19Zm-42.74,26.43c.18-4.22.52-8.54.88-13.09,4.67-1,6.83,4.29,6.83,4.29l5-8.53s-2.6-3.28-6.26-3.16a7,7,0,0,0-4.16,1.8c-1.26,1.26-8.76,8.25-8.76,8.25v10.22l-5.64,5a18.44,18.44,0,0,0,5.7,1.93c.18,11.43-.62,21.5-.62,24.32S111.6,154,111.6,154l9.87-8.71-.06-26.35a90.75,90.75,0,0,0,11.24-6.12S125.08,113.5,121.55,112.81Zm-17-4.67-6.19,7.31a18.53,18.53,0,0,1,1.92.5c.66.24,2.45,2.47,2.91,5.73a10.93,10.93,0,0,1-2.77,9.36c-1.72-1.24-5.9-7.82-5.9-8.43,0-.77,2.71-7.71,2.71-7.71l-4.62-6-6.83,6.66s4.51,2.48,6.31,6.78a41.64,41.64,0,0,1-3.11,6.4s.4,2.65,3.9,6.68a12.56,12.56,0,0,0,6.3,3.8s4.48-8.27,7.77-14.43A14,14,0,0,0,104.57,108.14Zm40.5,16.35,4.55-3.36s-3.7-5.25-5.86-5.2c-1.3,0-4.7,2.41-4.77,2.45l.42-9.86,2.93-1.69-5.87-4.08L130.25,107s1.44.79,2,1.23a2.47,2.47,0,0,1,.88,1.65c.15.85,0,5.33,0,5.77a177.37,177.37,0,0,1-.88,18.68l-.84,1.11,5.31,2.4,6.19-4.63-4.11-2s0-2.79,0-3.08c3.06,3.17,8.23,9.21,8.23,9.21l6.72-3.69s-1.58-1.47-2.34-2.28C147.65,127.21,146,125.15,145.07,124.49Zm-6.61-2.87c0-.34.09-1.21,1.92.26,1.06.85,1.79,1.58,1.76,1.92s-1,.61-2,.92-1.76.73-1.76.3S138.46,122.54,138.46,121.62Z"/><path class="cls-3" d="M77.65,87.19c.15.31.31.65.47,1l6.41,3.85,8.12-4.87Z"/><polygon class="cls-3" points="94.15 87.19 102.27 92.06 110.38 87.19 94.15 87.19"/><polygon class="cls-3" points="111.89 87.19 120 92.06 128.12 87.19 111.89 87.19"/><polygon class="cls-3" points="129.63 87.19 137.74 92.06 145.85 87.19 129.63 87.19"/><path class="cls-3" d="M162.35,87.19h-15l8.12,4.87,6.41-3.85C162.05,87.84,162.21,87.5,162.35,87.19Z"/><path class="cls-3" d="M84.53,92.06l-4.76,3a7.46,7.46,0,0,1-.08,1l-.58,3.69L84.53,103l8.87-5.33Z"/><polygon class="cls-3" points="111.14 97.64 102.27 92.06 93.4 97.64 102.27 102.97 111.14 97.64"/><path class="cls-3" d="M121.61,93.07l-1.61-1-8.86,5.58,3.42,2.06C116.68,97.72,120.1,94.51,121.61,93.07Z"/><path class="cls-3" d="M137,95.29l-3.15,5.37.83.49,1.77-1.2,2.9,2,7.22-4.34-8.87-5.58-2.22,1.4c.32.33.51.56.54.59Z"/><path class="cls-3" d="M160.9,99.71,160.32,96a7.46,7.46,0,0,1-.08-1l-4.76-3-8.87,5.58,8.87,5.33Z"/><path class="cls-3" d="M84.53,103l-6.63,4.17c-.14.82-.27,1.66-.41,2.5l6.86,4.13,6.81-6.63Z"/><path class="cls-3" d="M102.27,103l-7.63,4.79,2.22,2.86,1.72,1,5.86-6.93,1.77,1.8A17.36,17.36,0,0,1,108.8,110l2.34-1.41Z"/><path class="cls-3" d="M125.86,107.16l.39-.26-2-1.24c-.12,1.69-.23,3.41-.33,5.1l1.16,0,3.51-2.12Z"/><polygon class="cls-3" points="112.78 109.53 112.77 107.52 111.14 108.54 112.78 109.53"/><polygon class="cls-3" points="145.34 107.75 141.66 109.88 141.59 111.56 146.61 108.54 145.34 107.75"/><path class="cls-3" d="M155.48,113.88l7-4.24c-.14-.84-.28-1.68-.41-2.5L155.48,103l-8.87,5.57Z"/><path class="cls-3" d="M84.69,117.59,82,116.1l1.75-1.72-7.85,4.94a1.85,1.85,0,0,1,0,.23l8.7,5.23,4.75-2.86A14.68,14.68,0,0,0,84.69,117.59Z"/><path class="cls-3" d="M99.26,118c-.2-.06-.44-.13-.68-.18-.56,1.46-1.08,2.88-1.41,3.86L101,124a10.13,10.13,0,0,0-.08-2A7.62,7.62,0,0,0,99.26,118Z"/><path class="cls-3" d="M127.43,118.54c-1.19.65-2.46,1.29-3.71,1.88v2.13l5.15-3.1Z"/><path class="cls-3" d="M130.81,120.62c0-.8,0-1.6.05-2.42l-2,1.25Z"/><path class="cls-3" d="M151.5,119.8l1.29,1.84-1.14.84,3.83,2.3,8.69-5.23a1.85,1.85,0,0,0,0-.23l-8.65-5.44-5.77,3.62C150.41,118.31,151,119.12,151.5,119.8Z"/><path class="cls-3" d="M74.14,131.27l1.52-.91-1.51-1C74.12,130,74.12,130.62,74.14,131.27Z"/><path class="cls-3" d="M86.73,129.11l-.15-1s.37-.6.89-1.51l-2.94-1.85-8.87,5.58,8.87,5.33,4-2.38A12.54,12.54,0,0,1,86.73,129.11Z"/><path class="cls-3" d="M100.2,127.36a8.47,8.47,0,0,0,.57-1.64l-1.21.76Z"/><path class="cls-3" d="M107.75,128.22l-3.33,6.17,6.72-4Z"/><polygon class="cls-3" points="123.73 127.12 123.75 133.44 128.87 130.36 123.73 127.12"/><path class="cls-3" d="M112.72,131.31c0-.65,0-1.31.06-2l-1.64,1Z"/><path class="cls-3" d="M130.3,131.22c0-.55.09-1.16.13-1.84l-1.56,1Z"/><path class="cls-3" d="M151.12,127.52l2,2.21c.58.62,4.56,4.34,4.56,4.34l-2.57,1.42.34.2,8.87-5.33-8.87-5.58Z"/><path class="cls-3" d="M165.86,129.4l-1.51,1,1.52.91C165.89,130.62,165.89,130,165.86,129.4Z"/><path class="cls-3" d="M84.53,135.69,77,140.41a26.18,26.18,0,0,0,2,2.86l5.52,3.32,8.87-5.33Z"/><path class="cls-3" d="M102.27,146.59l8.87-5.33-7.78-4.89-2.94,5.46-1.68-.34a14.33,14.33,0,0,1-3.54-1.36l-1.8,1.13Z"/><path class="cls-3" d="M112.27,141.94c0-.43,0-.91.07-1.43l-1.2.75Z"/><polygon class="cls-3" points="123.77 144.33 128.87 141.26 123.75 138.04 123.77 144.33"/><polygon class="cls-3" points="133.03 138.65 128.87 141.26 137.74 146.59 146.61 141.26 140.84 137.64 137.06 140.46 133.03 138.65"/><path class="cls-3" d="M155.48,146.59l5.52-3.32a26.18,26.18,0,0,0,2-2.86l-7.51-4.72-8.87,5.57Z"/><path class="cls-3" d="M83.15,147.46a29.71,29.71,0,0,0,4.29,2.9c1.7.94,3.29,1.77,4.8,2.5l1.16-.69-8.87-5.58Z"/><path class="cls-3" d="M110.09,151.51l-7.82-4.92-8.87,5.58,6.94,4.17,2.4.88,6.67-4a3,3,0,0,0,.17-.35Z"/><polygon class="cls-3" points="114.79 154.37 120 157.5 128.87 152.17 122.04 147.87 114.79 154.37"/><path class="cls-3" d="M128.87,152.17l8.4,5.05,2.4-.88,6.94-4.17-8.87-5.58Z"/><path class="cls-3" d="M147.77,152.86c1.51-.73,3.1-1.56,4.8-2.5a30.28,30.28,0,0,0,4.29-2.9l-1.38-.87-8.87,5.58Z"/><path class="cls-3" d="M120,167.5a75.79,75.79,0,0,1,7-5.59l-7-4.41-7,4.41A74.12,74.12,0,0,1,120,167.5Z"/></svg>
