<svg id="Layer_1" data-name="Layer 1" width="240" height="240" xmlns="http://www.w3.org/2000/svg" viewBox="0 0 240 240"><defs><style>.cls-1{fill:#fff;}.cls-2{fill:#2d3453;}.cls-3{fill:#ffe66a;}.cls-4{fill:#d64488;}</style></defs><path class="cls-1" d="M172.44,168.39a52.31,52.31,0,0,1-3.55-4.53l-.33-.45,4.06-5a3,3,0,0,0,.72-3.2,3.09,3.09,0,0,0-2.71-1.73H159.39a106,106,0,0,0,8-19.23,114.48,114.48,0,0,0,5.3-34.75L173,51.17a2,2,0,0,0-2-2l-50.89-.24-50.88.24a2,2,0,0,0-2,2l.22,48.28a114.48,114.48,0,0,0,5.3,34.75,106.69,106.69,0,0,0,8,19.23H69.37a3.09,3.09,0,0,0-2.71,1.73,2.94,2.94,0,0,0,.69,3.17l4.09,5.08-.32.43a49.42,49.42,0,0,1-3.56,4.55l-.18.21a3.27,3.27,0,0,0-.45,3.42,3,3,0,0,0,3.15,1.43c1.74-.1,8.29-.09,10.87-.08v6a3.57,3.57,0,0,0,.85,2.58,4,4,0,0,0,3.12,1.26H85c1,0,8.38,0,21.16,0A88.59,88.59,0,0,0,117,190.11a5.14,5.14,0,0,0,2.8,1h.44a5.09,5.09,0,0,0,2.79-1,89.93,89.93,0,0,0,10.85-6.93c12.71,0,20.06,0,21,0a3.94,3.94,0,0,0,3.24-1.25,3.52,3.52,0,0,0,.85-2.58v-6c2.58,0,9.13,0,10.88.08a3,3,0,0,0,3.14-1.43,3.25,3.25,0,0,0-.45-3.42A1.68,1.68,0,0,0,172.44,168.39Z"/><path class="cls-2" d="M166.79,164.4a1.68,1.68,0,0,1,0-2l4.3-5.33c1.27-1.51-.59-1.63-.59-1.63H156c15.84-27.05,14.73-56,14.73-56l.21-48.32-50.87-.24-50.88.24.21,48.32s-1.11,28.91,14.73,56H69.5s-1.86.12-.58,1.63l4.29,5.33a1.66,1.66,0,0,1,0,2A60.5,60.5,0,0,1,69,169.79s-1.3,1.78,1,1.65,12-.08,12-.08a1.07,1.07,0,0,1,1,1.13v6.95s-.26,1.79,2.05,1.74c1.26,0,12.2,0,21.83,0a88.81,88.81,0,0,0,11.29,7.25,3.18,3.18,0,0,0,1.79.65h.27a3.18,3.18,0,0,0,1.79-.65,88.81,88.81,0,0,0,11.29-7.25c9.6,0,20.47,0,21.73,0,2.3,0,2-1.74,2-1.74v-6.95a1.07,1.07,0,0,1,1-1.13s9.78-.05,12,.08,1-1.65,1-1.65A62.42,62.42,0,0,1,166.79,164.4Zm-79-3.2c.54.79,1.11,1.58,1.68,2.36H85.27Zm62.87,2.36c.56-.76,1.11-1.53,1.64-2.3l2.45,2.3Z"/><path class="cls-3" d="M118.21,181.18h-6.52a36.92,36.92,0,0,0,6.76,3.63v-3.62Z"/><path class="cls-3" d="M118.45,163.56V118.9c0-1.78-1.52-1.57-1.52-1.57H76.25c-2,0-1.38,1.71-1.38,1.71,4.21,20.25,11.37,34.55,18.68,44.52Z"/><path class="cls-3" d="M123.65,114.94h41.57c.28,0,.76.1.8-.17,1.08-8.26,1.17-40.95,1.17-40.95a2,2,0,0,0-2-2H123.65a2,2,0,0,0-2,2V113A2,2,0,0,0,123.65,114.94Z"/><path class="cls-1" d="M116.66,71.85H75.09a2,2,0,0,0-2,2s0,2.53,0,6.36a19.61,19.61,0,0,1,5.62-2.81c5-.83,10.07-1.71,15.09-2.63a5.17,5.17,0,0,1,4.66,1.13c2.8,2.58,5.86,2.63,9.17,1.28a3.43,3.43,0,0,1,2.5-.24l-1.46,1.72.09.11c2,0,3.71-1.35,6.07-1.53-1.4,2.2-3.35,3.47-5.05,4.89a2.49,2.49,0,0,0-.83,3.38c.75,1.78,1.48,3.46,3.34,4.51,2.29,1.3,2.17,3.49-.16,4.91a22.48,22.48,0,0,0-2.44,1.68c-1.53,1.24-3.21.56-4.32-.54a4.6,4.6,0,0,0-4.72-1.19,2.17,2.17,0,0,1-2.91-1.32c-.12,1.88-1.53,2.56-2.32,3.68-.64.91-.5,1.3.59,1.37l1.79.08c2.85.11,4.14,2.06,3.17,4.79-.67,1.87-1.47,3.71-2,5.62-.41,1.51-1.22,2-2.57,1.47s-2-.05-2.23,1.26c-.37,1.89-1.94,1.46-3.18,1.55-.68.05-.63-.51-.4-1,.51-1.07,1.08-2.13,1.54-3.23s1.35-1,2.18-1c1.65.12,2.2-.51,2.12-2.19-.17-3.52-.08-3.48-3.41-3-1.28.19-2.57.87-3.9.19-.27-.14-.47,0-.63.28-1.56,2.7-4.2,4.39-6.22,6.66A15.68,15.68,0,0,1,77,113.51c-.77.37-2.06.91-2.79.66,0,.21,0,.41.07.6s.51.17.8.17h41.57a2,2,0,0,0,2-2V73.82A2,2,0,0,0,116.66,71.85Z"/><path class="cls-1" d="M132,163.56c.61-.16.95-.58,1.08-1.45.73-4.85,1.4-9.72,2.37-14.52.56-2.79-.21-5.31-.65-8.22a3.28,3.28,0,0,0-.75,2.45,1.88,1.88,0,0,1-1.36,2c-2,.83-3.06.44-5-1.55-1.44-1.43-.1-2.39.34-3.52a13.7,13.7,0,0,1,.8-1.38c.39-.75,1.1-1.56.3-2.35a2.93,2.93,0,0,0-2.61-.53c-.72.11-1.57,1.12-2.14.22s.36-1.61.79-2.33a6.53,6.53,0,0,1,1.17-1.35c.59-.54.79-1,.1-1.62-2-1.8-1.21-3.88-.75-6,.9.13.86,1.22,1.65,1.12.17-1,.31-1.78.47-2.69l0-.08c.09-.53.37-1,.89-.59.95.83,1.4.54,1.94-.35l.06-.07c.29-.48.76-.8,1.28-.19.25.29.38.67.86.14.92-1,1.6-.56,2.11.49.26.53.5,1.2,1.3.66s1.39-1.59,2.13-1.17c1,.53-.32,1.67.07,2.54,0,.06.07.11.08.13,1,.22,1.79-.83,3-.63-.31,1.2-1.33,1.94-1.49,3.16.74.52,1.9-.22,2.21.72s-.57,1.38-1.16,1.91c-1.14,1.07-.87,2,.35,2.73,4.1,2.47,7.86,5.42,11.7,8.25a5,5,0,0,0,2.69,1.21,11.43,11.43,0,0,1,2.45.68,134.3,134.3,0,0,0,6.6-22.34s.62-1.71-1.38-1.71H122.86s-1.52-.21-1.52,1.57v44.66Z"/><path class="cls-1" d="M121.79,181.18h-.45v3.62a36.92,36.92,0,0,0,6.76-3.63Z"/><path class="cls-4" d="M103.14,126.17c.38,1.57-.55,2.56-1.92,3.44,1,.32,1.27,1.44,2.39,1.32-.4-2.65,0-3.29,2.36-3.53,0,.25.09.65,0,.71-.53.31-1.19.58-.7,1.31a1.29,1.29,0,0,0,2,.37c.79-.88.81-4.45,0-5.31-2.23-2.45-3.43-2.46-6.19,0C102.36,124.37,102.9,125.18,103.14,126.17Z"/><path class="cls-4" d="M113.32,140.17a63.75,63.75,0,0,1-15,1c-3.28-.23-6.55-.67-10.19-1.05,1,2.15,2,3.76,4.48,3.67.74,0,1.49,0,1.44,1.14s-.7,1.12-1.5,1.09c-.59,0-1.19,0-1.79,0s-.89.21-.89.81,0,1.1.75,1.2a3.68,3.68,0,0,0,1.19,0c2-.36,2.3.72,2.21,2.4-.16,3-.16,6.1-.25,9.15,0,1.12.45,1.81,1.59,1.83,1.3,0,1.18-1,1.18-1.85,0-3.32,0-6.64,0-10,0-1.2.34-1.65,1.57-1.61,2.32.08,4.65.12,7,0,1.56-.08,1.89.55,1.87,2-.05,3.26.1,6.51.1,9.76,0,1.13.61,1.29,1.52,1.34,1.06.05,1.17-.52,1.16-1.37,0-2.59,0-5.18-.06-7.77,0-1.11-.64-2.31-.1-3.32.68-1.25,2-.37,3.09-.57a1,1,0,0,0,.94-1c0-.72-.3-1.12-1.08-1.09s-1.33,0-2,0-1.25.18-1.26-.78.28-1.43,1.25-1.35c1.73.14,2.81-.82,3.73-2.11.3-.41.91-.77.57-1.34S113.81,140.09,113.32,140.17ZM98.19,146c-.69,0-1.7.32-1.66-1s1.08-.71,1.73-.89c.64.19,1.71-.47,1.76.88S98.9,145.92,98.19,146Zm6.72,0c-.77-.09-1.7.26-1.65-.94.07-1.78,1.47-.72,2.24-1s1.35-.16,1.34.84C106.82,146.52,105.52,145.69,104.91,146Z"/><path class="cls-4" d="M93.38,123.52a.48.48,0,0,0,.16-.81c-.2-.18-.75,0-.87-.24-.3-.48.07-.72.52-.72a1.15,1.15,0,0,1,1.24,1.06c.07.91.42,1,1.13.64a1.55,1.55,0,0,1,1-.08c1.14.32,2.12.53,2.22-1.19a1,1,0,0,1,1.07-.71c.39.08.55.42.67.86s-1,.57-.18,1a1.09,1.09,0,0,0,1.26-.39c.36-.42,1-.73.71-1.48a2.1,2.1,0,0,0-1.78-1.62c-1.88-.23-3.77-1.12-5.17.08a4.52,4.52,0,0,0-4,1.43c-.75.7-.51,1.1-.07,1.68A1.55,1.55,0,0,0,93.38,123.52Z"/><path class="cls-4" d="M100.53,127.71c.85,1.28,1.51.54,1.88-.24a1.42,1.42,0,0,0-1-2.16c-1.54-.53-3.2-.44-4.74-1.12a1.62,1.62,0,0,0-2.08,1c-.14.37-.24,1.14.52.88,1.73-.58,2,.84,2.52,1.79a8,8,0,0,0,3.49,3.76c-.52-1.47-1.29-2.28-1.31-3.34C99.81,127.74,100.31,127.38,100.53,127.71Z"/><path class="cls-4" d="M89.15,134a1,1,0,0,0,0-1.11c-.25-.37-.93-.06-1-.65.77-.59,1.51.12,2.32,0,2.93-.49,3-.42,3.87,2.33.33-.46.6-.89.92-1.27s.5-.13.67.08.21.46.15.5c-.39.32-1.09.66-.08,1,.7.2,1-.36,1.08-1.05s-2-3.23-2.69-3.22c-2,0-4.08-1.06-6.14.28-.69.46-1.15.84-1.21,1.6a1.84,1.84,0,0,0,1.11,1.74C88.47,134.36,88.89,134.43,89.15,134Z"/><path class="cls-4" d="M91.57,128.91a1.72,1.72,0,0,0,1.9-.84.81.81,0,0,0,.11-.7,1,1,0,0,0-.65-.33c-.35-.06-.63,1.28-1,.13-.23-.71.35-1.07,1.06-1s.82-.45.85-1c.06-.92-.59-.66-1.07-.66a2.59,2.59,0,0,1-1.77-.77c-.47-.41-1-.49-1.39,0a4.35,4.35,0,0,0-.62,3.73C89.29,128.61,90.2,129.09,91.57,128.91Z"/><path class="cls-4" d="M108.92,129.72c2.29-.44,2.47-1.64,1.49-3.41.72.52,1.15,1.19,2,.9a1.45,1.45,0,0,0,.89-1.21c.11-.59-.07-1.23-.61-1.32a12.59,12.59,0,0,1-2.47-1.12c-1.47-.58-2.07,0-1.88,1.61S109.2,128.11,108.92,129.72Z"/><path class="cls-4" d="M117.8,132.86a5.82,5.82,0,0,0-3.42-3c-.45-.16-.88.2-1.15.61a1.18,1.18,0,0,0,0,1.31.66.66,0,0,0,.82.34c1.73-.39,2,.15,1.75,1.92-.33,1.93-2,1.49-3.45,2.13,2,1.16,3.24.32,4.39-.75C117.44,134.71,118.31,134,117.8,132.86Z"/><path class="cls-4" d="M86.13,126.29c-.73-.67-1.48-.31-2.18.12-1.28.81-2,3.73-1.2,5a.67.67,0,0,0,.46.27c.44,0,.45-.37.48-.71.09-.81-.19-1.75.78-2.37.72.34,0,1.78,1,1.37a3.81,3.81,0,0,0,1.67-2.09C87.37,127.27,86.6,126.72,86.13,126.29Z"/><path class="cls-4" d="M82.58,123.13c.23.14.49.29.64-.06s-.1-.6-.36-.82c-1-.89-2.81-.33-3.62,1.12-.91,1.64-.63,3.29.1,5,.17-.88,1.6-1.4,1.17-2.12C78.9,123.59,82.4,124.49,82.58,123.13Z"/><path class="cls-4" d="M93.31,134c0-.83-.33-1.22-1.17-1.21-.59,0-1.24-.07-1.51.63s.28,1.24.82,1.6a2.9,2.9,0,0,0,2.39.7A7.23,7.23,0,0,1,93.31,134Z"/><path class="cls-4" d="M84.85,125a1.86,1.86,0,0,0,1.35,0,1.34,1.34,0,0,0,.61-1.7A2.18,2.18,0,0,0,85,121.68c-.19,0-.53,0-.68.17C83.14,123.07,86.28,123.57,84.85,125Z"/><path class="cls-4" d="M116.19,123.36a2.5,2.5,0,0,0,.16-2.63c-.22-.35-1-.77-.95-.21.12,1-.59.76-1,1-.76.38-.67,1-.51,1.6C115.17,121.74,115.7,121.86,116.19,123.36Z"/><path class="cls-4" d="M112.25,132.56c-.86,0-.92.78-1,1.42a1.07,1.07,0,0,0,1,1.18c.88,0,.8-.63.49-1.34C113.15,133.24,113.26,132.55,112.25,132.56Z"/><path class="cls-4" d="M96.11,136.92c-1.14.29-2.3-.84-3.7.06A4.16,4.16,0,0,0,96.11,136.92Z"/><path class="cls-4" d="M84.11,125c.15-.28-.18-.47-.45-.43-.83.11-1.09.72-1.37,1.53A1.77,1.77,0,0,0,84.11,125Z"/><path class="cls-4" d="M135.31,83.63a6.53,6.53,0,0,0-1.45,13,3.27,3.27,0,0,1,.72-6.49,3.26,3.26,0,0,0,.73-6.48Zm.47,4.26a1.13,1.13,0,1,1,1.12-1.12A1.13,1.13,0,0,1,135.78,87.89Z"/><path class="cls-4" d="M140.88,104.43a3.26,3.26,0,0,1,2.22-4,3.27,3.27,0,0,0,2.22-4,3.22,3.22,0,0,0-4-2.25,6.55,6.55,0,0,0-4.45,8.06,6.44,6.44,0,0,0,8,4.5A3.2,3.2,0,0,1,140.88,104.43Zm2.3-8.82a1.25,1.25,0,1,1-1.25,1.25A1.25,1.25,0,0,1,143.18,95.61Z"/><path class="cls-4" d="M154.63,111.23a3.29,3.29,0,0,1,.54-4.58,3.3,3.3,0,0,0,.55-4.59,3.2,3.2,0,0,0-4.53-.55,6.59,6.59,0,0,0-1.09,9.17,6.37,6.37,0,0,0,8.5,1.46A3.19,3.19,0,0,1,154.63,111.23Zm-2.43-7.7a1.25,1.25,0,1,1,1.25,1.25A1.25,1.25,0,0,1,152.2,103.53Z"/><path class="cls-4" d="M158.6,112.14a3.33,3.33,0,0,0,.56-.36A6.65,6.65,0,0,1,158.6,112.14Z"/><path class="cls-4" d="M166.93,95.37c-.63,0-1.26.09-1.9.09A22.35,22.35,0,0,1,142.81,73c0-.38,0-.75.06-1.13h-5.59c0,.37,0,.75,0,1.13A28,28,0,0,0,165,101.09c.59,0,1.17,0,1.75-.06C166.84,99.18,166.89,97.28,166.93,95.37Z"/><path class="cls-4" d="M165.22,71.85H147.31c0,.37-.06.75-.06,1.13A17.89,17.89,0,0,0,165,91a18.46,18.46,0,0,0,2-.12c.16-9.06.18-17,.18-17A2,2,0,0,0,165.22,71.85Z"/><path class="cls-4" d="M124.9,74.05a6.57,6.57,0,0,0,2.55,8.87,3.29,3.29,0,0,1-1.27-4.44,3.2,3.2,0,0,1,4.38-1.29,3.19,3.19,0,0,0,4.37-1.29,3.29,3.29,0,0,0-.73-4.05h-7.34A6.42,6.42,0,0,0,124.9,74.05Zm7.67-.68a1.13,1.13,0,0,1,0,2.25,1.13,1.13,0,1,1,0-2.25Z"/><path class="cls-4" d="M166.12,113.91c.18-1.73.33-4.18.45-7a1.35,1.35,0,0,1-.4.08,1.25,1.25,0,1,1,.5-2.39c0-.46,0-.93.05-1.41a3.22,3.22,0,0,0-3.66,1.53,6.57,6.57,0,0,0,2.43,8.9A4.6,4.6,0,0,0,166.12,113.91Z"/><rect class="cls-1" x="72.68" y="54.22" width="94.51" height="14.61"/><path class="cls-1" d="M155.08,157h13.59a48,48,0,0,1-4.2,5.55s-1.16.77,0,2c.93,1,4.29,5.2,4.29,5.2H157V165s-.1-2-1.14-2.7a22.87,22.87,0,0,1-2.47-2.2Z"/><rect class="cls-1" x="84.96" y="165.77" width="70.12" height="13.26"/><path class="cls-1" d="M84.92,157H71.34a46.75,46.75,0,0,0,4.2,5.55s1.15.77,0,2c-.94,1-4.3,5.2-4.3,5.2H83V165s.1-2,1.14-2.7a23.39,23.39,0,0,0,2.48-2.2Z"/><path class="cls-2" d="M81.77,56.42v3.72H80.7V57.49h-.87v7.87h.81v1.23h-3V65.36h.81V57.49h-.87v2.65H76.45V56.42Z"/><path class="cls-2" d="M86,66.59V65.36h.74V57.64H86V56.42h4.68v3H89.43V57.64H88.16v3.09h1V62h-1v3.4h1.27V63.47h1.22v3.12Z"/><path class="cls-2" d="M97.65,62.91V61.68h2.19v.93a6.31,6.31,0,0,1-.61,3.06,1.84,1.84,0,0,1-1.68,1.09,1.75,1.75,0,0,1-1-.3,2.38,2.38,0,0,1-.77-.92A4.47,4.47,0,0,1,95.36,64a21.91,21.91,0,0,1-.11-2.44,12.07,12.07,0,0,1,.49-4,1.66,1.66,0,0,1,1.55-1.28,1.45,1.45,0,0,1,1.1.55v-.38h1.23v3.3H98.39c0-1.42-.27-2.13-.82-2.13a.48.48,0,0,0-.46.28A3.32,3.32,0,0,0,96.89,59c0,.53-.07,1.35-.07,2.44s0,2.07.06,2.61a3.31,3.31,0,0,0,.22,1.13.51.51,0,0,0,.48.29c.32,0,.53-.22.62-.64a8.66,8.66,0,0,0,.15-1.87Z"/><path class="cls-2" d="M104.24,66.59V65.36H105V57.64h-.75V56.42h4.69v3H107.7V57.64h-1.27v3.09h1V62h-1v3.4h1.27V63.47h1.23v3.12Z"/><path class="cls-2" d="M115.56,66.67l-1.7-9h-.71V56.42H116v1.22h-.69a39.26,39.26,0,0,1,.89,6.24h0a44.8,44.8,0,0,1,.87-6.24h-.69V56.42h2.68v1.22h-.73l-1.65,9Z"/><path class="cls-2" d="M124.74,63.05l-.26,2.31h.65v1.23h-2.72V65.36h.64l1.12-7.72h-.71V56.42h3.77v1.22h-.71l1.12,7.72h.63v1.23h-2.72V65.36h.65L126,63.05Zm.09-1.22h1l-.43-4.54h-.17Z"/><path class="cls-2" d="M132.49,57.64V56.42h2.88v1.22h-.73V67c0,1.33-.56,2-1.69,2a2.62,2.62,0,0,1-.69-.09V67.71l.29.06c.33,0,.48-.07.55-.21a1.79,1.79,0,0,0,.1-.73V57.64Z"/><path class="cls-2" d="M141.58,63.05l-.26,2.31H142v1.23h-2.72V65.36h.64L141,57.64h-.71V56.42h3.77v1.22h-.72l1.13,7.72h.63v1.23h-2.72V65.36H143l-.25-2.31Zm.09-1.22h1l-.44-4.54h-.16Z"/><path class="cls-2" d="M151.47,62v3.39h.75v1.23h-3.05V65.36H150V57.64h-.86V56.42h2.55a2.77,2.77,0,0,1,2,.75,2.72,2.72,0,0,1,.75,2,2.65,2.65,0,0,1-1.22,2.39l1.11,3.79H155v1.23h-1.73L152,61.93A3,3,0,0,1,151.47,62Zm0-4.33v3.1a1.61,1.61,0,0,0,1.18-.37,1.73,1.73,0,0,0,.35-1.19,1.59,1.59,0,0,0-.36-1.2A1.7,1.7,0,0,0,151.47,57.64Z"/><path class="cls-2" d="M163.78,61.56q0,5.2-2.36,5.2a1.89,1.89,0,0,1-1.78-1.29,9.94,9.94,0,0,1-.58-3.91,13.44,13.44,0,0,1,.28-2.94,3.94,3.94,0,0,1,.81-1.78,1.64,1.64,0,0,1,1.27-.59,1.91,1.91,0,0,1,1.74,1.33A9.89,9.89,0,0,1,163.78,61.56Zm-3.14,0a17.89,17.89,0,0,0,.16,3c.11.53.32.8.62.8s.5-.27.62-.8a17.77,17.77,0,0,0,.16-3,21.94,21.94,0,0,0-.15-3.22c-.11-.55-.31-.82-.63-.82s-.54.3-.63.9A22,22,0,0,0,160.64,61.61Z"/><path class="cls-2" d="M91.23,176.62v-1h.63v-6.41h-.63v-1h2.51l.33,1.79c0,.25.09.59.13,1l.15,1.57h0l.17-1.38c.07-.55.14-1,.2-1.39l.26-1.61h2.53v1h-.63v6.41h.64v1H95.07v-1h.63v-4.28l.09-2.28h-.11l-.38,2.89-.8,4.69h-.36l-.78-4.34L92.93,169h-.12l.07,2.26v4.3h.64v1Z"/><path class="cls-2" d="M101,176.62v-1h.65v-6.41H101v-1h2.49v1h-.65v6.41h.65v1Z"/><path class="cls-2" d="M108.14,176.62v-1h.6v-2.71l-1.37-3.7h-.54v-1h2.29v1h-.55l.78,2.27h0l.73-2.27h-.54v-1h2.17v1h-.55l-1.25,3.59v2.82h.6v1Z"/><path class="cls-2" d="M116.33,173.68l-.2,1.92h.54v1h-2.26v-1h.52l.93-6.41h-.59v-1h3.13v1h-.59l.94,6.41h.53v1H117v-1h.54l-.21-1.92Zm.08-1h.86l-.36-3.77h-.14Z"/><path class="cls-2" d="M122.74,176.62v-1l2.15-6.47h-1V171h-1v-2.8h3.29v1L124,175.6h1.15v-1.79h1v2.81Z"/><path class="cls-2" d="M131.52,173.68l-.2,1.92h.54v1H129.6v-1h.52l.93-6.41h-.59v-1h3.13v1H133l.93,6.41h.53v1H132.2v-1h.54l-.21-1.92Zm.08-1h.86l-.36-3.77H132Z"/><path class="cls-2" d="M137.91,176.62v-1h.6v-6.41h-.6v-1h2.28v1h-.48v6.41h.48v1Zm2.58,0v-1H141l-1.22-3.34,1.17-3.07h-.52v-1h2.13v1h-.54L141,172l1.29,3.56h.56v1Z"/><path class="cls-2" d="M146,176.62v-1h.64v-6.41H146v-1h2.49v1h-.65v6.41h.65v1Z"/></svg>
