<svg id="Layer_1" data-name="Layer 1" width="240" height="240" xmlns="http://www.w3.org/2000/svg" xmlns:xlink="http://www.w3.org/1999/xlink" viewBox="0 0 240 240"><defs><style>.cls-1{fill:#27348b;}.cls-2{fill:#fff;}.cls-3{fill:#ffd500;}.cls-4{fill:url(#OT_Gradient_2006_);}</style><linearGradient id="OT_Gradient_2006_" x1="3044.98" y1="1579.45" x2="3139.57" y2="1579.45" gradientTransform="translate(-1874.18 -959.86) scale(0.66)" gradientUnits="userSpaceOnUse"><stop offset="0" stop-color="#ffd500"/><stop offset="1" stop-color="#f9b000"/></linearGradient></defs><path class="cls-1" d="M182.75,78.63a25.51,25.51,0,0,0,3.95-6.33l.82-2.1a7.48,7.48,0,0,0,.2-1.3v0c0-.19,0-1.07,0-7.61a5.51,5.51,0,0,0-7.46-5.17h0l-.4.12-3.63,1.15c-.09-.68-.2-1.43-.21-1.53a5.45,5.45,0,0,0-7.25-4.33l-4.68,1.58c-12.74-11.69-28-17.88-44.13-17.88-39.68,0-72,38-72,84.73,0,24.88,9.27,48.43,25.44,64.6,13,13,29.5,20.13,46.52,20.13s33.54-7.15,46.52-20.14C182.69,168.43,192,144.88,192,120A96.61,96.61,0,0,0,182.75,78.63Z"/><path class="cls-2" d="M181.18,78.43a24.36,24.36,0,0,0,4.26-6.68s.81-2,.81-2,.09-.72.11-1h0V61.33a4.14,4.14,0,0,0-5.61-3.9c-.16.07-1.63.61-4.14,1.34l-1.51.4-.38-2.8s0,0,0,0h0l0-.19h0a4,4,0,0,0-1.06-2.27,4.11,4.11,0,0,0-4.36-1h0c-.78.28-2.84,1-5.45,1.84-12-11.3-27.28-18.06-43.82-18.06C81.07,36.64,49.41,74,49.41,120S81.07,203.36,120,203.36,190.6,166,190.6,120A94.6,94.6,0,0,0,181.18,78.43Z"/><path class="cls-1" d="M120,39.48c-37.42,0-67.76,36.05-67.76,80.52S82.58,200.52,120,200.52s67.76-36.05,67.76-80.52S157.42,39.48,120,39.48Zm0,155.2c-29.8,0-54.06-33.5-54.06-74.68S90.2,45.31,120,45.31s54.06,33.5,54.06,74.69S149.81,194.68,120,194.68Z"/><path class="cls-3" d="M54.5,120c0,43.15,29.38,78.26,65.5,78.26s65.5-35.11,65.5-78.26S156.12,41.74,120,41.74,54.5,76.85,54.5,120Zm1.39,0c0-42.38,28.76-76.86,64.11-76.86S184.11,77.62,184.11,120,155.35,196.86,120,196.86,55.89,162.38,55.89,120Z"/><polygon class="cls-1" points="109.53 149.05 105.81 163.7 110.44 163.7 114.17 149.05 109.53 149.05"/><polygon class="cls-1" points="125.8 149.05 123.39 159.43 120.47 149.05 115.36 149.05 111.64 163.7 115.9 163.7 118.3 153.55 121.18 163.7 126.36 163.7 130.08 149.05 125.8 149.05"/><polygon class="cls-1" points="131.22 149.05 127.5 163.7 132.14 163.7 135.06 152.21 139.36 152.21 136.44 163.7 141.06 163.7 143.98 152.21 148.19 152.21 148.99 149.05 131.22 149.05"/><path class="cls-1" d="M94.06,149,90.34,163.7H95l1.37-5.38h1.73l1.86,5.38h5.17l-2.44-6a11.09,11.09,0,0,0,2.66-1.22,4.9,4.9,0,0,0,1.93-2.9,8.67,8.67,0,0,0,.16-1.18,3,3,0,0,0-1.73-2.87,11.5,11.5,0,0,0-3.85-.46Zm4,2.64v0h2.13a2.81,2.81,0,0,1,2.2.66,1.67,1.67,0,0,1,.2,1.5,2,2,0,0,1-.78,1.18,4.56,4.56,0,0,1-2.51.68H97l0-.16h0Z"/><path class="cls-1" d="M151.55,149.05l-9.69,14.65h5a23.53,23.53,0,0,1,6.47-4.74l.77-.38.42,5.12h5l-1.1-6.79s.74-.22,1.06-.3c.62-.16,1.46-.34,1.46-.34s-.8,0-1.37,0h-1.25l-1.18-7.23Zm2,3,.37,4.45h0c-.48.06-.91.13-1.29.2-.76.15-2,.46-2,.46Z"/><polygon class="cls-1" points="79.9 149.05 79.1 152.21 83.32 152.21 80.4 163.7 85.02 163.7 87.94 152.21 92.15 152.21 92.95 149.05 79.9 149.05"/><path class="cls-1" d="M120,192.89c16.35,0,31-10.53,40.55-27H79.45C89,182.36,103.65,192.89,120,192.89Z"/><path class="cls-3" d="M102.55,174.58H97.86v2.69H95.94v-3.13a7,7,0,0,1,.18-1.88,2.13,2.13,0,0,1,.66-1,3.19,3.19,0,0,1,.55-.35,3.93,3.93,0,0,1,.69-.24,7.81,7.81,0,0,1,1.89-.19h2.64v1.38H99.77a2.43,2.43,0,0,0-1.44.34,1.17,1.17,0,0,0-.47,1h4.69Z"/><path class="cls-3" d="M110.87,177.27H108a6.4,6.4,0,0,1-1.48-.13,2.94,2.94,0,0,1-1-.47,2.4,2.4,0,0,1-.94-1.09,3.89,3.89,0,0,1-.31-1.59,3.47,3.47,0,0,1,.93-2.66,4.13,4.13,0,0,1,2.88-.86h2.88v1.36H108a2.59,2.59,0,0,0-.81.11,1.43,1.43,0,0,0-.55.38,1.65,1.65,0,0,0-.31.68,4.51,4.51,0,0,0-.11,1.05,2,2,0,0,0,.4,1.44,1.85,1.85,0,0,0,1.38.4h2.84Z"/><path class="cls-3" d="M122.51,173.86a3.37,3.37,0,0,1-1,2.67,5.62,5.62,0,0,1-6.07,0,3.51,3.51,0,0,1-1-2.73,3.24,3.24,0,0,1,1-2.61,5.8,5.8,0,0,1,6.06,0,2.75,2.75,0,0,1,.76,1.09A4.67,4.67,0,0,1,122.51,173.86Zm-2.07,0a2.49,2.49,0,0,0-.47-1.66,1.93,1.93,0,0,0-1.49-.52,2,2,0,0,0-1.47.51,2.13,2.13,0,0,0-.37.66,3.3,3.3,0,0,0-.12,1,2.66,2.66,0,0,0,.47,1.72,2,2,0,0,0,1.49.52,1.9,1.9,0,0,0,1.47-.54A2.39,2.39,0,0,0,120.44,173.86Z"/><path class="cls-3" d="M126.48,177.27h-2v-6.8h2Z"/><path class="cls-3" d="M135.52,171.85H133v5.42h-2v-5.42h-2.52v-1.38h7Z"/><path class="cls-3" d="M144.06,177.27h-2.15l-.71-1.57H138l-.7,1.57h-2.07l3.42-6.8h2Zm-3.51-3-1-2.07-.93,2.07Z"/><path class="cls-1" d="M184.39,59.05a3.11,3.11,0,0,0-3.24-.66l-4.22,1.36-2.66.71c-.16-1.2-.56-4.1-.56-4.1a3,3,0,0,0-.81-1.77,3.13,3.13,0,0,0-3.28-.77h0c-1.78.64-10.11,3.46-16.58,5.23a67.67,67.67,0,0,1-9.93,1.86,78.94,78.94,0,0,1-13.61.34l-6.85-.65a131.42,131.42,0,0,0-15.49-1c-6.64.16-13.91.76-22.18,4.07-13,5.18-17.44,13.61-18.75,17L66,81.82A3.1,3.1,0,0,0,66.86,84l1.34.9L77.55,90l1.23.34,1.16-.18a15.44,15.44,0,0,1,3-.53,15.19,15.19,0,0,1,3.93.08l8,1.27,3.14.34-1.32,1.82a133.35,133.35,0,0,0-10.54,18.22c-4.71,9.77-9.52,18.11-13.19,22.89-3.48,4.51-5.74,6.36-6.78,7.07a3.12,3.12,0,0,0-1.37,2.6s.06.64.06.64A3.2,3.2,0,0,0,67.58,147c1.14.1,3.52.27,6.68.23h8.16c.15,0,3.73,0,6.15-.27a48.48,48.48,0,0,0,9.49-1.79,30.29,30.29,0,0,0,9.46-4.59,35.76,35.76,0,0,0,8.84-9.71,62.61,62.61,0,0,0,5.75-12h0l2.16-6.1,2.94-8.13c1.7-4.39,2.82-7.2,3.47-8.57,0,0,0-.11.09-.18h.69a4.53,4.53,0,0,0,1.88-1.15,27.88,27.88,0,0,1,3.3-2.5,11.11,11.11,0,0,1,4.24-1.61,16.54,16.54,0,0,1,6.56.1l3.58.88a29.22,29.22,0,0,0,7.53,1.32A23.5,23.5,0,0,0,170.27,90a22.39,22.39,0,0,0,5.46-3.94,2.77,2.77,0,0,0,.82-2c0-.08-.25-1.91-.38-2.82a21.09,21.09,0,0,0,3.63-2.85,23.22,23.22,0,0,0,4.71-7.1l.77-2s.07-.72.07-.72,0-7.33,0-7.33A3.13,3.13,0,0,0,184.39,59.05Z"/><path class="cls-2" d="M183.25,60.1a1.6,1.6,0,0,0-1.56-.25,84.11,84.11,0,0,1-15,3.79,13.36,13.36,0,0,0,5.49-6.29,1.59,1.59,0,0,0-2-2.06c-1.83.66-10.32,3.52-16.69,5.27a76.59,76.59,0,0,1-24.06,2.25l-6.88-.66a130.31,130.31,0,0,0-15.31-1c-6.49.15-13.6.74-21.65,4C73.12,70.1,68.9,78.06,67.66,81.26a1.57,1.57,0,0,0,2,2.07,21,21,0,0,1,6.07-.8,54,54,0,0,1,6.66.89,72.7,72.7,0,0,0,11.18,1.3,96,96,0,0,0,13.17-1.65,96.59,96.59,0,0,0-8.8,11,131.14,131.14,0,0,0-10.41,18c-4.76,9.85-9.63,18.3-13.36,23.16-3.62,4.68-6,6.65-7.14,7.4a1.59,1.59,0,0,0-.69,1.31,1.37,1.37,0,0,0,0,.4,1.58,1.58,0,0,0,1.38,1.18c3.26.3,20.09,1.4,31-6.27,9.2-6.42,13.76-16.91,17-26.32,4-11.48,6.94-19.19,9-23.59l0,0,0,0,0,0a1.73,1.73,0,0,0,2.25-.23l2.34-2A16.12,16.12,0,0,1,135.49,84c3-.66,6-1.06,12.34.7,4.61,1.31,7.71,2.07,12.88,1.21a26,26,0,0,0,12.95-6.44,1.61,1.61,0,0,0,.37-1.82,1.54,1.54,0,0,0-1.55-1,38.79,38.79,0,0,1-5.49-.14A22.49,22.49,0,0,0,175.76,73c5.89-4.15,8-11.39,8.05-11.45a2.28,2.28,0,0,0,0-.26A1.61,1.61,0,0,0,183.25,60.1Z"/><path class="cls-1" d="M153.85,62.08a78.28,78.28,0,0,1-24.6,2.31l-6.9-.66a127.26,127.26,0,0,0-15.12-1c-6.34.15-13.28.72-21.1,3.84-12,4.8-15.95,12.52-17,15.22A22.27,22.27,0,0,1,75.66,81a53.6,53.6,0,0,1,7,.91,68.64,68.64,0,0,0,10.88,1.27c6.29-.12,17.32-2.46,17.42-2.48a.15.15,0,0,1,.18.09.17.17,0,0,1,0,.07.24.24,0,0,1,0,.13,85.47,85.47,0,0,0-11.86,14A129.9,129.9,0,0,0,88.9,112.72c-4.8,10-9.74,18.5-13.53,23.44s-6.3,6.93-7.5,7.75c2.91.27,19.42,1.41,30-6,8.82-6.17,13.25-16.38,16.42-25.54,4-11.59,7-19.38,9.15-23.82a36.33,36.33,0,0,1,7.85-10.46A50.25,50.25,0,0,1,145.14,69a94.78,94.78,0,0,1,11.06-3.39,63.08,63.08,0,0,0,8-2.39,12,12,0,0,0,6.5-6.41C169,57.38,160.42,60.29,153.85,62.08Z"/><path class="cls-4" d="M166,65.35A99.23,99.23,0,0,0,146.71,70a47.09,47.09,0,0,0-13.43,8.41,40.35,40.35,0,0,0-5.64,6.5c-.77,1.07-1.82,2.65-1.89,2.76s-.14.27,0,.33.16,0,.32-.12,1.47-1.31,2.46-2.06a17.84,17.84,0,0,1,6.68-3.36c3.26-.72,6.53-1.11,13.09.71,4.44,1.26,7.35,2,12.21,1.18a24.58,24.58,0,0,0,12.12-6l0,0s-5.09.47-13.65-1.3a33.13,33.13,0,0,0-11.38-.38,34.79,34.79,0,0,0-8.67,2.15,26,26,0,0,1,8.71-3,40.4,40.4,0,0,1,9.92-.26c7.05.58,12.93-.63,17.3-3.7,5.35-3.78,7.39-10.42,7.39-10.42A85.57,85.57,0,0,1,166,65.35Z"/><path class="cls-1" d="M141.25,113.47h-3a6.29,6.29,0,0,1-1.49-.14,2.36,2.36,0,0,1-.94-.49,2.22,2.22,0,0,1-.44-.49,2,2,0,0,1-.22-.63,3.66,3.66,0,0,1,.12-1.64,4.81,4.81,0,0,1,1.69-2.74,5.24,5.24,0,0,1,3.2-.89h3l-.38,1.42h-2.94a2.4,2.4,0,0,0-1.36.34,1.92,1.92,0,0,0-.75,1h4.69l-.38,1.41h-4.7a1.49,1.49,0,0,0-.06.64.67.67,0,0,0,.17.43,1.68,1.68,0,0,0,1.28.37h2.93Z"/><path class="cls-1" d="M151.29,111.32a2.59,2.59,0,0,1-1.16,1.62,4.52,4.52,0,0,1-2.37.53h-4.64l.39-1.44h4.37a2.1,2.1,0,0,0,1-.17.79.79,0,0,0,.38-.49.52.52,0,0,0-.09-.53.59.59,0,0,0-.29-.1,3.49,3.49,0,0,0-.51,0h-2a5,5,0,0,1-1.21-.13,2,2,0,0,1-.79-.38,1.49,1.49,0,0,1-.26-1.56,2.7,2.7,0,0,1,1.17-1.66,4.59,4.59,0,0,1,2.38-.53h4.59l-.39,1.44h-4.34a1.8,1.8,0,0,0-1,.19.84.84,0,0,0-.41.57.47.47,0,0,0,.08.46,1.08,1.08,0,0,0,.67.16h2.23a3,3,0,0,1,2,.47C151.42,110.06,151.48,110.58,151.29,111.32Z"/><path class="cls-1" d="M160.42,107.87h-2.63l-1.49,5.6h-2l1.49-5.6h-2.59l.38-1.42h7.25Z"/><path class="cls-1" d="M126.91,126.26h-3l2.77-10.38h3Z"/><path class="cls-1" d="M142.1,121a6.71,6.71,0,0,1-2.65,4,9.45,9.45,0,0,1-5.32,1.31h-4.45l.56-2.1h4.52a4.78,4.78,0,0,0,2.46-.53,3.21,3.21,0,0,0,1.27-1.6h-4a8,8,0,0,1-1.85-.18,3.37,3.37,0,0,1-1.22-.54,2.07,2.07,0,0,1-.46-2.25,3.79,3.79,0,0,1,.75-1.45,4.12,4.12,0,0,1,1.35-1,9.38,9.38,0,0,1,4.27-.81q3.18,0,4.32,1.26a2.94,2.94,0,0,1,.71,1.63A6.31,6.31,0,0,1,142.1,121Zm-3-1a2.25,2.25,0,0,0,.08-1,1.28,1.28,0,0,0-.38-.66,3.25,3.25,0,0,0-2.21-.52,3.81,3.81,0,0,0-1.68.29,1.2,1.2,0,0,0-.66.85.74.74,0,0,0,.1.75,1.08,1.08,0,0,0,.87.26Z"/><path class="cls-1" d="M155.52,121a6.68,6.68,0,0,1-2.66,4,9.44,9.44,0,0,1-5.31,1.31h-4.46l.57-2.1h4.51a4.78,4.78,0,0,0,2.46-.53,3.21,3.21,0,0,0,1.27-1.6h-4a8.12,8.12,0,0,1-1.86-.18,3.4,3.4,0,0,1-1.21-.54,2,2,0,0,1-.46-2.25,3.79,3.79,0,0,1,.75-1.45,4,4,0,0,1,1.34-1,9.41,9.41,0,0,1,4.27-.81c2.13,0,3.57.42,4.33,1.26a2.93,2.93,0,0,1,.7,1.63A6.28,6.28,0,0,1,155.52,121Zm-3.05-1a2.22,2.22,0,0,0,.07-1,1.22,1.22,0,0,0-.38-.66,3.23,3.23,0,0,0-2.21-.52,3.87,3.87,0,0,0-1.68.29,1.2,1.2,0,0,0-.66.85.79.79,0,0,0,.1.75,1.1,1.1,0,0,0,.88.26Z"/><path class="cls-1" d="M168.77,124.43h-1.62l-.48,1.83h-2.95l.49-1.83h-7.65l.6-2.22,8.79-6.36h3.5l-1.74,6.49h1.62Zm-4-2.09,1-3.72-5.12,3.72Z"/></svg>
