<svg width="240" height="240" viewBox="0 0 240 240" fill="none" xmlns="http://www.w3.org/2000/svg">
<path d="M190.832 44H48.8322V144.642C48.8322 153.079 49.9087 156.321 52.4873 160.827V160.889L52.625 161.115C67.0202 182.645 91.4296 195 119.669 195C147.909 195 172.306 182.645 186.701 161.115V161.04V160.965L186.839 160.739C189.417 156.245 190.507 153.003 190.507 144.554V44H190.832Z" fill="#EC6608"/>
<path d="M233.329 118.004C227.539 115.41 221.614 113.129 215.579 111.17C215.091 111.044 214.115 110.731 214.115 110.731C214.382 110.344 214.596 109.923 214.753 109.48C215.141 108.078 215.066 106.45 214.165 105.937C214.165 105.937 219.072 106.213 220.148 105.799C223.165 104.548 224.329 100.555 223.265 97.6881C222.714 96.1859 220.336 95.2471 219.86 93.9328C219.735 93.3537 219.488 92.8077 219.137 92.3309C218.785 91.8541 218.336 91.4572 217.82 91.1664C214.8 89.9768 211.577 89.3858 208.332 89.4264C206.416 89.6017 206.041 91.8173 204.864 92.3305C200.107 94.3709 197.992 93.407 198.042 100.505C198.027 100.709 198.027 100.914 198.042 101.118C196.991 100.605 192.221 98.3515 188.178 96.4488V46.5912H51.4232V96.4488C47.38 98.3515 42.6609 100.63 41.5594 101.143C41.5781 100.939 41.5781 100.734 41.5594 100.53C41.5594 93.4321 39.4814 94.3959 34.7373 92.3556C33.5481 91.8423 33.1726 89.6267 31.2574 89.4515C28.0117 89.4109 24.7891 90.0018 21.769 91.1914C21.2561 91.4848 20.8105 91.8827 20.4612 92.3592C20.1119 92.8358 19.8666 93.3804 19.7412 93.9578C19.253 95.2096 16.8871 96.1609 16.3238 97.7131C15.2598 100.58 16.424 104.635 19.4532 105.825C20.5172 106.238 25.4367 105.962 25.4367 105.962C24.5354 106.475 24.4478 108.103 24.8358 109.505C24.9978 109.946 25.2122 110.366 25.4742 110.756C25.4742 110.756 24.4978 111.069 24.0222 111.195C18.0085 113.146 12.1042 115.419 6.33479 118.004C6.33479 118.004 -1.43865 121.609 8.19991 120.958C8.66306 120.958 15.8857 120.357 23.3963 119.281V119.707C23.3963 122.135 23.922 122.122 25.8998 122.823L25.8372 123.274C23.3337 123.787 18.2516 124.288 16.4991 125.465C14.7466 126.641 9.31398 125.753 6.15954 130.046C5.33338 131.173 3.94392 134.603 4.75757 135.717C6.09695 137.544 13.7202 140.21 14.7717 140.235C17.15 140.235 17.4004 138.333 19.0777 137.169C19.8914 136.618 20.8552 136.993 21.744 136.756C23.0959 136.393 23.8469 135.166 25.0361 134.552C25.5145 134.305 26.0404 134.164 26.5782 134.138C27.116 134.112 27.6531 134.202 28.153 134.402C32.3339 136.981 46.992 133.726 51.4733 131.098V144.642C51.4733 152.853 52.5373 155.607 54.7905 159.538L54.9657 159.813C68.8978 180.667 92.5186 192.597 119.882 192.597C147.246 192.597 170.854 180.667 184.761 159.863L184.886 159.638C187.177 155.67 188.228 152.916 188.228 144.704V131.085C192.685 133.714 207.368 136.981 211.549 134.402C212.05 134.2 212.59 134.109 213.13 134.135C213.67 134.161 214.198 134.304 214.678 134.552C215.855 135.166 216.606 136.393 217.958 136.756C218.846 136.993 219.823 136.618 220.624 137.169C222.301 138.333 222.552 140.286 224.93 140.235C225.931 140.235 233.555 137.544 234.881 135.717C235.695 134.603 234.318 131.173 233.479 130.046C230.325 125.753 225.068 126.754 223.14 125.465C221.212 124.175 216.343 123.787 213.802 123.274L213.739 122.823C215.767 122.122 216.243 122.135 216.243 119.707V119.281C223.753 120.395 230.988 120.958 231.464 120.958C241.103 121.609 233.329 118.004 233.329 118.004Z" fill="white"/>
<path d="M220.01 101.706C220.212 101.341 220.325 100.933 220.343 100.516C220.36 100.099 220.281 99.684 220.111 99.3028C219.748 98.5393 218.608 98.3139 217.895 98.0511C216.994 98.2388 217.995 99.0274 217.219 99.3028L215.479 99.0775C214.39 97.9509 216.731 98.1011 216.793 97.5003C216.981 96.6241 216.155 95.8104 216.706 94.9968C216.669 94.8854 216.61 94.7826 216.533 94.6945C216.455 94.6063 216.361 94.5346 216.255 94.4836C213.966 93.805 211.632 93.2864 209.27 92.9314L209.045 93.1942C209.258 93.4947 210.159 94.3083 210.197 94.446C210.56 95.0844 208.156 95.5475 207.756 95.6352C205.841 96.0357 200.696 96.6616 201.497 99.6909C201.847 101.118 206.955 104.698 207.58 106.313C207.718 106.651 208.382 107.364 207.931 107.665C206.992 108.303 202.273 107.452 202.01 108.19C202.273 109.179 205.089 109.93 206.003 110.281C206.494 110.545 207.037 110.696 207.593 110.725C208.15 110.753 208.706 110.657 209.22 110.444C209.869 110.074 210.394 109.519 210.726 108.85C211.058 108.181 211.183 107.429 211.085 106.688C210.819 105.717 210.396 104.795 209.834 103.959C209.471 103.459 206.354 101.005 207.23 100.667C208.281 101.005 209.733 100.667 210.447 101.694C212.44 102.212 214.458 102.629 216.493 102.945C217.136 103.096 217.808 103.058 218.43 102.836C219.052 102.614 219.596 102.218 219.998 101.694L220.01 101.706ZM177.213 125.84C177.3 125.654 177.345 125.451 177.345 125.246C177.345 125.04 177.3 124.837 177.213 124.651C177.069 124.462 176.866 124.325 176.637 124.263C175.737 124.612 174.766 124.736 173.808 124.626C172.869 124.626 171.304 123.787 170.941 125.039C170.779 125.84 170.328 126.516 170.128 127.292C170.156 127.513 170.243 127.722 170.38 127.898C170.516 128.074 170.697 128.211 170.904 128.294C171.48 128.512 172.09 128.631 172.706 128.644C173.67 127.968 173.608 126.741 174.572 126.04C175.085 126.166 175.147 126.879 175.736 126.817C176.036 126.779 176.322 126.671 176.573 126.501C176.823 126.332 177.029 126.105 177.175 125.84H177.213ZM200.683 110.882C200.846 109.968 199.82 109.83 199.194 109.63C197.704 109.142 196.227 108.679 194.725 108.253C193.623 107.927 192.522 107.352 191.408 107.114C190.018 106.826 188.904 106.801 187.928 105.574L188.153 105.449C189.48 105.975 191.608 107.101 192.985 106.188C193.37 105.926 193.671 105.559 193.853 105.13C194.035 104.702 194.09 104.23 194.011 103.772C193.786 103.171 193.048 103.096 192.534 102.87C190.369 101.932 188.241 100.767 186.125 99.7034C181.644 97.4753 177.171 95.2263 172.706 92.9564C170.619 91.8111 168.399 90.9241 166.097 90.3152C164.205 89.9911 162.26 90.3695 160.627 91.3792C159.062 92.3305 159.1 94.5461 157.923 94.3083C157.832 94.2212 157.759 94.1163 157.709 94.0001C157.66 93.8838 157.635 93.7587 157.635 93.6324C157.16 92.8813 155.682 94.9968 154.481 95.5976C151.802 96.937 147.108 102.069 145.18 104.51C144.086 106.125 143.352 107.957 143.027 109.88L143.277 110.243C143.854 110.324 144.44 110.195 144.93 109.88C145.405 110.005 145.368 110.619 145.631 110.982C147.584 113.61 152.766 112.083 155.645 113.035C155.645 113.21 155.645 113.373 155.457 113.385C154.037 113.439 152.615 113.393 151.201 113.247C148.197 113.172 145.193 113.135 142.201 112.972L141.838 113.172C141.563 113.786 139.91 117.316 139.647 117.604C139.385 117.891 138.658 118.392 138.233 118.855C137.236 120.282 136.072 121.585 134.766 122.736C134.327 123.036 133.439 123.211 133.251 123.7L133.476 123.963C137.907 124.326 138.358 119.669 141.325 118.618C141.361 118.629 141.395 118.647 141.424 118.672C141.453 118.696 141.477 118.726 141.494 118.76C141.512 118.794 141.522 118.831 141.525 118.868C141.529 118.906 141.524 118.944 141.512 118.981C140.731 119.758 140.065 120.643 139.535 121.609C137.807 125.127 136.568 124.113 134.903 125.665L135.166 126.053C140.073 125.915 140.962 123.149 142.564 122.924C143.928 122.736 149.048 125.139 150.738 125.602C151.568 125.899 152.437 126.072 153.317 126.116C153.617 126.116 154.018 125.94 154.268 125.953C154.931 125.953 155.057 127.205 156.496 126.466C157.36 126.065 157.422 124.826 157.523 123.963C157.623 123.099 156.408 122.097 156.496 121.547C156.621 120.783 157.585 121.81 157.748 121.134C157.886 120.72 157.385 119.882 157.134 119.594C156.496 118.768 154.631 117.353 154.919 116.152C154.919 116.039 155.282 115.776 155.407 115.801L161.353 116.54C161.844 117.259 162.224 118.048 162.479 118.88C162.206 119.879 161.863 120.858 161.453 121.81C160.952 123.061 160.089 123.85 160.101 125.227C160.101 126.904 161.253 128.469 162.091 129.858C162.93 131.248 164.595 130.659 165.847 131.11C166.398 131.298 166.998 131.686 167.549 131.924C169.325 132.742 171.168 133.408 173.057 133.914C173.624 134.047 174.218 134.022 174.772 133.841C175.326 133.66 175.82 133.33 176.199 132.888C176.637 132.199 175.172 131.986 175.823 131.235C175.984 131.074 176.185 130.96 176.406 130.905C176.626 130.85 176.858 130.856 177.075 130.922C178.101 131.035 183.409 131.673 183.96 131.073C184.147 130.885 183.86 130.609 183.697 130.534C182.431 130.064 181.129 129.7 179.804 129.445C178.389 129.032 176.912 128.945 175.498 128.506C174.246 128.131 174.359 129.37 173.495 129.921C172.243 130.747 168.713 129.095 168.288 127.605C167.862 126.116 169.189 124.351 170.115 123.387C170.854 122.623 171.755 122.523 172.469 121.935C172.932 121.572 172.606 120.846 172.594 120.357C173.32 119.469 175.999 120.896 177.1 120.583C178.202 120.27 177.4 118.68 178.427 118.367C179.316 118.618 180.029 119.268 180.93 119.619C181.581 119.857 182.72 119.969 183.146 120.545C183.572 121.121 183.146 121.634 183.046 122.122C183.371 122.723 184.298 122.911 184.986 122.999C185.975 123.136 187.052 123.074 188.066 123.186C189.079 123.299 190.081 123.574 191.057 123.675L194.412 123.988C195.213 124.376 194.212 125.077 194.963 126.629C194.162 126.516 190.894 125.54 190.519 126.629C193.398 129.32 199.957 131.223 203.838 131.774C206.252 132.068 208.691 132.093 211.11 131.849C211.427 131.843 211.735 131.748 211.999 131.573C211.999 131.573 213.251 130.509 213.964 130.622C214.891 130.772 215.98 132.562 217.92 133.301C219.247 134.052 220.499 132.762 221.538 133.301C222.789 134.014 223.578 137.594 225.581 137.056C226.409 136.824 227.21 136.505 227.972 136.105C228.635 135.566 227.509 134.139 226.945 133.188C226.732 132.888 226.595 132.675 226.357 132.612C224.016 132.011 225.105 129.358 221.788 128.719C220.286 128.444 219.923 128.319 218.408 128.031C218.008 127.956 217.094 128.156 217.044 127.58L217.294 127.292H219.96V126.942C215.679 126.403 211.498 125.189 207.217 124.689C206.823 124.293 206.583 123.769 206.542 123.211C206.667 122.423 207.893 123.875 208.532 122.335C208.907 121.447 208.019 120.683 208.732 120.245C210.61 120.483 212.487 120.72 214.365 120.983C203.75 118.48 193.085 116.327 182.433 113.811C180.142 113.26 177.789 112.897 175.523 112.196V111.946C184.886 113.197 194.162 115.513 203.55 116.515V116.289C198.355 115.3 193.21 113.973 188.015 113.035C180.255 111.645 172.444 110.531 164.645 109.279C159.563 108.503 154.393 107.552 149.273 107.114L149.111 107.477C149.468 107.843 149.893 108.136 150.362 108.341C150.401 108.386 150.423 108.444 150.423 108.503C150.423 108.563 150.401 108.621 150.362 108.666C149.712 108.591 146.795 108.779 146.795 108.09C147.871 107.051 148.147 106.526 149.712 106.663C152.215 106.901 154.643 107.252 157.084 107.564C171.167 109.38 185.349 111.257 199.344 113.686C214.09 116.189 221.876 117.378 234.018 119.707C223.454 116.352 212.714 113.577 201.847 111.395C201.397 111.32 200.846 111.395 200.596 110.882H200.683ZM197.203 127.417C197.909 127.452 198.612 127.536 199.306 127.668C200.884 127.993 202.461 128.118 204.063 128.569C204.205 128.639 204.33 128.739 204.43 128.862C204.529 128.985 204.6 129.129 204.639 129.283C204.584 129.352 204.513 129.407 204.433 129.444C204.352 129.481 204.264 129.499 204.176 129.495L197.917 127.893L197.216 127.417H197.203ZM162.58 124.914L164.307 120.821C164.342 120.671 164.424 120.537 164.541 120.437C164.658 120.338 164.805 120.279 164.958 120.27C165.346 120.408 165.822 120.47 165.959 120.921L164.47 124.1C163.443 125.452 164.182 127.33 164.545 128.669C164.52 128.756 164.47 128.834 164.401 128.892C164.332 128.95 164.247 128.986 164.157 128.995C163.566 128.507 163.111 127.875 162.835 127.16C162.559 126.446 162.471 125.672 162.58 124.914ZM149.349 121.985C148.96 122.285 148.259 122.122 147.771 122.047C147.508 121.857 147.297 121.604 147.157 121.311C147.017 121.018 146.953 120.694 146.97 120.37C146.964 120.282 146.979 120.195 147.014 120.114C147.049 120.034 147.103 119.962 147.17 119.907C147.514 119.881 147.859 119.932 148.18 120.058C148.5 120.184 148.789 120.38 149.023 120.633C149.223 121.058 149.586 121.522 149.349 121.985ZM170.466 105.336L171.329 105.737C171.329 105.737 158.587 103.897 152.44 102.996C152.177 102.996 151.389 102.883 151.514 102.432C151.678 102.328 151.872 102.284 152.065 102.307L170.466 105.336ZM173.745 99.6533L173.608 99.791C170.366 99.1526 167.023 98.3891 163.831 97.5003C163.581 97.4377 163.018 97.3876 163.093 97.0246C164.257 96.7993 169.602 98.2764 170.941 98.6644C171.45 98.7959 171.985 98.7959 172.494 98.6644C172.963 98.922 173.386 99.2563 173.745 99.6533ZM62.3386 124.689C62.2514 124.875 62.2062 125.078 62.2062 125.283C62.2062 125.489 62.2514 125.692 62.3386 125.878C62.4856 126.144 62.6941 126.372 62.9466 126.541C63.1991 126.711 63.4884 126.818 63.7906 126.854C64.3664 126.854 64.429 126.203 64.9422 126.078C65.9061 126.779 65.8435 128.006 66.8074 128.682C67.4238 128.668 68.0334 128.55 68.6099 128.331C68.8166 128.248 68.9976 128.112 69.134 127.936C69.2704 127.76 69.3574 127.551 69.386 127.33C69.1857 126.554 68.7351 125.878 68.5723 125.077C68.1593 123.825 66.6446 124.664 65.7183 124.664C64.7598 124.775 63.7887 124.65 62.8893 124.301C62.6549 124.359 62.4474 124.496 62.301 124.689H62.3386ZM106.15 123.95L106.363 123.687C106.175 123.199 105.299 123.024 104.861 122.723C103.551 121.576 102.387 120.273 101.394 118.843C100.955 118.367 100.367 118.029 99.9665 117.591C99.566 117.153 98.0513 113.836 97.7759 113.16L97.4254 112.96C94.4212 113.122 91.417 113.16 88.4253 113.235C87.0116 113.38 85.5894 113.426 84.1693 113.373C83.969 113.373 83.9315 113.197 83.969 113.022C86.8105 112.071 91.9928 113.598 93.9831 110.969C94.246 110.606 94.2084 109.993 94.6966 109.868C95.1813 110.183 95.7639 110.312 96.3364 110.231L96.5868 109.868C96.2681 107.942 95.5334 106.11 94.4337 104.498C92.506 102.057 87.8119 96.9871 85.1331 95.5851C83.8814 94.9843 82.4544 92.8688 81.9787 93.6198C81.9825 93.7466 81.9587 93.8727 81.909 93.9894C81.8593 94.1062 81.7849 94.2107 81.6908 94.2958C80.5267 94.5336 80.5517 92.318 78.987 91.3667C77.3393 90.348 75.3735 89.9735 73.4667 90.3152C71.179 90.9478 68.9765 91.8557 66.9075 93.019C62.4429 95.2889 57.9741 97.5378 53.5011 99.766C51.3731 100.83 49.2577 101.994 47.0796 102.933C46.5789 103.158 45.8278 103.233 45.6025 103.834C45.5242 104.293 45.5792 104.764 45.7612 105.193C45.9432 105.621 46.2444 105.988 46.629 106.25C48.0184 107.164 50.1339 106.037 51.4608 105.512L51.6861 105.637C50.7097 106.889 49.6082 106.889 48.2062 107.176C47.1046 107.414 45.9906 107.99 44.889 108.316C43.3869 108.741 41.9098 109.204 40.4202 109.692C39.7943 109.893 38.7679 110.03 38.9432 110.944C38.7304 111.445 38.1671 111.382 37.6914 111.457C26.8244 113.639 16.085 116.414 5.52112 119.769C17.6382 117.441 25.4492 116.302 40.2074 113.748C54.1896 111.32 68.3721 109.442 82.4544 107.627C84.9579 107.314 87.3738 106.964 89.8273 106.726C91.4045 106.588 91.6674 107.114 92.7564 108.153C92.7564 108.841 89.8273 108.653 89.1763 108.729C89.135 108.685 89.112 108.626 89.112 108.566C89.112 108.505 89.135 108.447 89.1763 108.403C89.6439 108.196 90.0685 107.903 90.4281 107.539L90.2654 107.176C85.1331 107.615 79.9634 108.566 74.8812 109.342C67.0953 110.594 59.2718 111.708 51.5234 113.097C46.316 114.036 41.1713 115.363 35.9765 116.352V116.577C45.3772 115.576 54.6402 113.323 64.0034 112.008V112.259C61.7377 112.96 59.3844 113.323 57.0812 113.873C46.4662 116.377 35.8012 118.517 25.1613 121.046C27.0389 120.783 28.9165 120.545 30.7942 120.307C31.5077 120.746 30.6064 121.559 30.9819 122.398C31.6203 123.938 32.8471 122.485 32.9722 123.274C32.9305 123.831 32.6907 124.355 32.2963 124.751C28.0278 125.252 23.8344 126.466 19.5534 127.004V127.355H22.2321L22.4825 127.643C22.4825 128.219 21.5061 128.018 21.1055 128.093C19.6034 128.381 19.2279 128.506 17.7258 128.782C14.3961 129.42 15.4977 132.074 13.1694 132.675C12.919 132.675 12.7813 132.95 12.5685 133.251C12.0052 134.202 10.8787 135.629 11.5421 136.167C12.3043 136.566 13.1054 136.884 13.933 137.119C15.9358 137.682 16.7244 134.102 17.9887 133.363C19.0151 132.787 20.2669 134.077 21.5937 133.363C23.534 132.625 24.623 130.86 25.5493 130.684C26.2378 130.572 27.5021 131.648 27.5146 131.636C27.7795 131.808 28.0872 131.904 28.4033 131.911C30.8229 132.155 33.2621 132.13 35.6761 131.836C39.5565 131.285 46.1157 129.333 49.0073 126.691C48.6318 125.602 45.3522 126.579 44.5636 126.691C45.3021 125.139 44.3007 124.438 45.1018 124.05L48.4565 123.737C49.4454 123.637 50.4468 123.349 51.4608 123.249C52.4747 123.149 53.5512 123.249 54.5401 123.061C55.1535 122.974 56.1549 122.786 56.4678 122.185C56.3802 121.697 56.0297 121.071 56.3677 120.608C56.7056 120.145 57.9449 119.919 58.5958 119.682C59.4595 119.356 60.173 118.705 61.0993 118.43C62.1133 118.743 61.2245 120.32 62.3511 120.645C63.4777 120.971 66.1064 119.531 66.8574 120.42C66.8574 120.908 66.532 121.672 66.9826 121.997C67.7086 122.586 68.5974 122.686 69.3359 123.449C70.2622 124.413 71.5766 126.228 71.1635 127.668C70.7504 129.107 67.258 130.81 65.9562 129.984C65.0924 129.433 65.1676 128.193 63.9533 128.569C62.5389 129.007 61.0618 129.095 59.6473 129.508C58.3218 129.763 57.0197 130.127 55.7543 130.597C55.5916 130.672 55.3037 130.947 55.4914 131.135C56.0547 131.736 61.3497 131.135 62.3761 130.985C62.5935 130.919 62.8249 130.913 63.0454 130.968C63.266 131.023 63.4673 131.137 63.6279 131.298C64.2663 132.049 62.8017 132.262 63.2398 132.95C63.622 133.393 64.1179 133.722 64.6739 133.903C65.2299 134.084 65.8249 134.11 66.3943 133.977C68.2787 133.469 70.1169 132.803 71.8895 131.986C72.4403 131.748 73.0411 131.36 73.6044 131.173C74.9563 130.722 76.4584 131.461 77.3597 129.921C78.261 128.381 79.3375 126.967 79.35 125.289C79.35 123.912 78.4988 123.061 77.9981 121.872C77.5883 120.921 77.2453 119.942 76.9717 118.943C77.2322 118.112 77.6117 117.324 78.0983 116.602L84.0566 115.864C84.1693 115.864 84.5073 116.101 84.5323 116.214C84.7827 117.466 82.9551 118.83 82.3167 119.656C82.0788 119.969 81.5656 120.783 81.7033 121.196C81.9286 121.872 82.9551 120.846 83.0177 121.609C83.1178 122.16 81.8661 123.024 81.9912 124.025C82.1164 125.027 82.154 126.103 83.0177 126.529C84.4572 127.217 84.5824 126.04 85.2458 126.015C85.4962 126.015 85.9092 126.166 86.2097 126.178C87.0894 126.132 87.9579 125.959 88.7883 125.665C90.4782 125.202 95.5854 122.798 96.9623 122.986C98.552 123.211 99.4658 125.978 104.36 126.116L104.611 125.728C102.946 124.113 101.719 125.189 99.979 121.672C99.4565 120.667 98.7855 119.747 97.9887 118.943C97.9771 118.907 97.9727 118.869 97.9758 118.831C97.979 118.793 97.9896 118.756 98.007 118.722C98.0245 118.689 98.0485 118.659 98.0775 118.634C98.1066 118.61 98.1403 118.591 98.1765 118.58C101.143 119.631 101.594 124.288 106.038 123.925L106.15 123.95ZM42.423 127.455L41.7221 127.931L35.4633 129.533C35.3766 129.536 35.2903 129.519 35.2118 129.482C35.1334 129.445 35.065 129.389 35.0126 129.32C35.0488 129.167 35.118 129.024 35.2153 128.901C35.3126 128.778 35.4357 128.677 35.5759 128.607C37.1907 128.156 38.7554 128.031 40.3326 127.705C41.027 127.574 41.7297 127.49 42.4356 127.455H42.423ZM77.0593 124.951C77.1658 125.71 77.0768 126.483 76.8008 127.197C76.5248 127.911 76.0708 128.543 75.4821 129.032C75.3911 129.027 75.3042 128.992 75.2344 128.933C75.1645 128.875 75.1153 128.795 75.094 128.707C75.4445 127.367 76.1831 125.49 75.094 124.138L73.7046 120.858C73.8297 120.408 74.3179 120.345 74.6935 120.207C74.8481 120.213 74.9964 120.27 75.1144 120.37C75.2325 120.47 75.3135 120.606 75.3444 120.758L77.0843 124.851L77.0593 124.951ZM76.5461 97.0872C76.6087 97.4502 76.0454 97.5003 75.795 97.5629C72.6155 98.4516 69.2733 99.2152 66.0188 99.8536L65.9562 99.6158C66.3161 99.2194 66.739 98.8853 67.2079 98.6269C67.7127 98.7584 68.2428 98.7584 68.7476 98.6269C70.087 98.1762 75.432 96.7618 76.6087 96.9871L76.5461 97.0872ZM87.186 103.096C81.0399 103.997 68.297 105.799 68.297 105.799L69.1607 105.399L87.5741 102.407C87.7627 102.384 87.9534 102.428 88.1123 102.532C88.25 102.983 87.4489 103.071 87.186 103.096ZM92.6813 120.357C92.7014 120.681 92.6396 121.004 92.5018 121.297C92.364 121.59 92.1545 121.844 91.8927 122.035C91.392 122.11 90.6409 122.273 90.3029 121.972C89.965 121.672 90.4281 121.046 90.6284 120.62C90.8646 120.367 91.155 120.17 91.478 120.044C91.8009 119.918 92.148 119.867 92.4935 119.894C92.5599 119.951 92.6117 120.022 92.6444 120.103C92.6771 120.183 92.6898 120.271 92.6813 120.357ZM38.2046 99.6533C38.9557 96.6241 33.8234 95.9982 31.9458 95.5976C31.5578 95.51 29.1544 95.0468 29.5049 94.4084C29.5049 94.3333 30.4437 93.5197 30.6565 93.1567L30.4312 92.8938C28.0512 93.2663 25.7004 93.8059 23.3963 94.5086C23.288 94.5556 23.1914 94.626 23.1135 94.7148C23.0356 94.8035 22.9783 94.9083 22.9456 95.0218C23.4839 95.873 22.6577 96.6867 22.8455 97.5253C22.9707 98.1262 25.2614 97.976 24.1598 99.1026L22.4324 99.3279C21.6563 98.9899 22.6452 98.2013 21.7565 98.0761C21.0304 98.339 19.9039 98.5643 19.5283 99.3279C19.3671 99.7073 19.2935 100.118 19.313 100.53C19.3325 100.942 19.4446 101.344 19.641 101.706C20.0428 102.23 20.5872 102.627 21.2089 102.849C21.8306 103.071 22.5032 103.109 23.1459 102.958C25.1809 102.642 27.1988 102.224 29.1919 101.706C29.9305 100.717 31.37 101.018 32.409 100.68C33.2852 101.018 30.1808 103.471 29.8053 103.972C29.2752 104.817 28.8744 105.737 28.6161 106.701C28.5183 107.441 28.6435 108.194 28.9758 108.863C29.308 109.532 29.8322 110.087 30.4812 110.456C30.996 110.669 31.5517 110.765 32.1081 110.737C32.6645 110.709 33.2077 110.557 33.6983 110.293C34.6121 109.943 37.4536 109.192 37.6914 108.203C37.441 107.464 32.6843 108.316 31.7706 107.677C31.3199 107.377 31.9959 106.663 32.1211 106.325C32.7469 104.761 37.8541 101.13 38.2046 99.7034V99.6533ZM14.5338 128.732C14.3711 128.231 11.2041 128.732 11.0289 129.408C10.766 130.309 13.4072 131.498 14.5338 128.732ZM7.43631 134.265C7.62288 134.41 7.82427 134.536 8.03716 134.64C8.70059 135.003 9.28892 135.641 9.78963 135.066C10.4668 134.044 11.0412 132.958 11.5045 131.824C11.6047 131.486 11.3794 131.022 10.6033 130.997H10.4405C8.4252 131.198 7.78681 132.938 7.43631 134.265ZM228.685 129.408C228.51 128.794 225.33 128.231 225.168 128.732C226.294 131.498 228.923 130.309 228.685 129.408ZM228.197 131.824C228.66 132.958 229.235 134.044 229.912 135.066C230.363 135.641 231.001 135.066 231.677 134.64C231.888 134.533 232.089 134.408 232.278 134.265C231.915 132.938 231.276 131.198 229.261 130.997H229.098C228.322 130.997 228.109 131.486 228.197 131.824Z" fill="#DD0741"/>
<path fill-rule="evenodd" clip-rule="evenodd" d="M107.752 61.5247H104.51V86.2595H98.1515V56.3549H109.067C111.376 56.071 113.703 56.716 115.536 58.148C117.37 59.58 118.559 61.6817 118.843 63.9906C119.127 66.2996 118.482 68.6268 117.05 70.4602C115.618 72.2936 113.516 73.483 111.207 73.7669L119.97 86.2845H112.459L106.113 76.4957V69.3106H107.59C108.67 69.3547 109.724 68.9682 110.52 68.2359C111.315 67.5036 111.788 66.4855 111.833 65.4051C111.82 64.8823 111.704 64.3672 111.492 63.8892C111.28 63.4112 110.976 62.9797 110.597 62.6194C110.218 62.259 109.772 61.9768 109.284 61.789C108.796 61.6012 108.275 61.5113 107.752 61.5247Z" fill="#DD0741"/>
<path d="M140.01 69.9866C140.827 69.2504 141.482 68.3532 141.934 67.3514C142.386 66.3496 142.626 65.265 142.639 64.1659C142.632 62.1706 141.862 60.2537 140.486 58.8083C139.059 57.2311 136.543 56.3048 133.138 56.3048H122.936V86.2595H136.055C138.395 86.3074 140.661 85.4365 142.367 83.8337C144.072 82.2309 145.082 80.0236 145.18 77.6849C145.23 74.2801 144.029 71.8517 140.01 69.9866ZM135.003 81.0647H129.295V61.5247H133.276C134.135 61.5667 134.944 61.9393 135.535 62.5647C136.125 63.19 136.45 64.0195 136.443 64.8794C136.443 65.2953 136.361 65.7071 136.202 66.0913C136.043 66.4756 135.809 66.8247 135.515 67.1188C135.221 67.4128 134.872 67.6461 134.488 67.8053C134.104 67.9644 133.692 68.0463 133.276 68.0463H131.21V73.4289H134.966C135.945 73.4849 136.867 73.9135 137.54 74.6269C138.214 75.3402 138.589 76.2843 138.589 77.2656C138.589 78.2468 138.214 79.1909 137.54 79.9043C136.867 80.6176 135.945 81.0462 134.966 81.1022L135.003 81.0647Z" fill="#DD0741"/>
<path d="M142.163 106.863C143.04 104.072 144.216 102.557 147.283 99.5031C144.595 97.7311 141.802 96.1218 138.921 94.6838C136.477 98.2542 134.297 101.999 132.4 105.887C134.152 109.555 136.781 113.686 138.22 116.239C140.161 113.385 140.949 110.706 142.163 106.863Z" fill="#001F47"/>
<path d="M95.7356 102.708C96.4988 103.923 97.1124 105.226 97.5632 106.588L98.6272 109.98L98.8775 110.706C99.1154 111.407 99.4408 112.271 99.8289 113.21C100.196 114.04 100.614 114.847 101.081 115.626C101.442 116.24 101.899 116.793 102.433 117.266C102.911 117.678 103.475 117.977 104.085 118.142C105.725 118.592 107.577 119.081 109.58 119.569C109.58 119.569 115.551 110.03 117.641 105.987C114.993 101.81 112.066 97.8157 108.879 94.0329C108.879 94.0329 99.3907 98.2639 95.8983 100.079" fill="#001F47"/>
<path d="M182.533 144.642C182.533 151.977 181.682 153.704 180.029 156.684C166.973 176.211 144.917 186.876 119.945 186.876C94.9721 186.876 72.7408 176.211 59.6974 156.659C57.995 153.679 57.1939 151.952 57.1939 144.617V133.626H53.2759V144.642C53.2759 152.44 54.2022 154.894 56.3427 158.611L56.4804 158.837C70.7505 180.117 94.4213 190.744 119.832 190.744C145.243 190.744 168.914 180.167 183.171 158.837L183.309 158.611C185.449 154.856 186.388 152.44 186.388 144.642V133.664H182.533V144.642Z" fill="#001F47"/>
<path d="M149.036 97.8257C149.624 97.2499 150.225 96.7117 150.813 96.211C148.891 92.2949 146.245 88.7781 143.015 85.8464C142.617 86.1579 142.199 86.4422 141.763 86.6976C144.906 89.8843 147.379 93.668 149.036 97.8257Z" fill="#001F47"/>
<path d="M53.2759 48.4438V95.5851L57.1313 93.7826V52.3117H182.533V93.8326L186.388 95.6227V48.4438H53.2759Z" fill="#001F47"/>
<path d="M92.2432 126.454C91.079 126.917 90.0651 127.317 89.3766 127.505C92.3108 133.031 96.6939 137.654 102.056 140.878C107.418 144.102 113.557 145.805 119.813 145.805C126.07 145.805 132.208 144.102 137.57 140.878C142.933 137.654 147.316 133.031 150.25 127.505C149.574 127.317 148.56 126.917 147.383 126.454L147.221 126.391C144.212 131.794 139.772 136.264 134.39 139.309L131.611 131.623L116.69 132.036L110.844 140.235C112.956 141.671 115.256 142.808 117.679 143.615C110.736 143.555 103.988 141.313 98.3893 137.206C98.5608 137.061 98.7238 136.907 98.8775 136.743C98.8775 136.743 94.8343 130.91 92.3558 126.479L92.2432 126.454Z" fill="#001F47"/>
<path d="M89.9524 97.1999C90.2278 96.8369 90.5157 96.4613 90.8162 96.0983C92.2734 92.8788 93.9116 89.7444 95.7231 86.7101C92.9027 89.4656 90.5742 92.6831 88.8384 96.2235C89.2139 96.574 89.5769 96.8619 89.9524 97.1999Z" fill="#001F47"/>
<path d="M81.8911 138.858C82.3193 138.584 82.8018 138.404 83.3056 138.333C83.7814 138.245 84.2693 138.245 84.7451 138.333C85.2235 138.433 85.6782 138.624 86.0845 138.896C86.5055 139.184 86.8636 139.554 87.1369 139.984C87.4102 140.415 87.5931 140.896 87.6742 141.4C87.767 141.875 87.767 142.364 87.6742 142.839C87.5541 143.308 87.346 143.75 87.0608 144.141C86.7919 144.569 86.4278 144.929 85.9968 145.192L71.5014 154.556C71.0776 154.83 70.5993 155.01 70.0995 155.081C69.1266 155.238 68.1303 155.024 67.308 154.48C66.8846 154.197 66.5255 153.827 66.2538 153.396C65.9821 152.965 65.8039 152.481 65.7308 151.977C65.6432 151.497 65.6432 151.005 65.7308 150.525C65.8338 150.051 66.0249 149.601 66.2941 149.198C66.568 148.77 66.9363 148.41 67.3706 148.147L81.8911 138.858ZM85.5212 142.614L84.1568 140.386L67.8839 150.825L69.2483 152.953L85.5212 142.614Z" fill="#001F47"/>
<path d="M88.8885 143.365L90.6284 144.892L88.876 149.148L88.1124 150.963C87.8495 151.564 87.5866 152.215 87.3238 152.741C87.862 152.39 88.4253 152.052 88.9886 151.714L90.6785 150.725L94.7467 148.497L96.4867 150.037L80.4141 168.375L78.4738 166.673L85.8091 158.298C86.1722 157.885 86.5727 157.435 87.0609 156.946C87.5491 156.458 87.9497 155.97 88.4128 155.507L89.7397 154.155L90.8788 152.978C89.627 153.83 88.3002 154.593 87.1235 155.282L83.4684 157.372C84.0191 156.12 84.5449 154.768 85.0706 153.479C85.5963 152.19 86.1847 150.85 86.8481 149.423C86.5602 149.811 86.2347 150.25 85.8467 150.675C85.4587 151.101 85.0581 151.652 84.5949 152.165C84.1318 152.678 83.7688 153.204 83.3432 153.704L82.154 155.081L74.7185 163.381L72.8033 161.666L88.8885 143.365Z" fill="#001F47"/>
<path d="M97.3128 150.162L99.5034 151.414L87.2361 172.531L85.0455 171.279L97.3128 150.162Z" fill="#001F47"/>
<path d="M97.8761 165.571C97.2691 165.048 96.8331 164.354 96.6243 163.581C96.4368 162.824 96.4893 162.028 96.7746 161.303L100.38 152.065L102.733 152.978L98.7523 163.205L101.168 164.144L105.149 153.93L107.515 154.843L103.91 164.081C103.633 164.813 103.128 165.436 102.47 165.859C101.799 166.289 101.014 166.507 100.217 166.485L96.2738 176.687L93.9205 175.76L97.8761 165.571Z" fill="#001F47"/>
<path d="M107.502 158.524C107.584 158.024 107.776 157.55 108.065 157.134C108.334 156.73 108.678 156.381 109.079 156.108C109.46 155.839 109.883 155.636 110.331 155.507C110.825 155.394 111.339 155.394 111.833 155.507C112.331 155.588 112.805 155.776 113.223 156.058C114.037 156.611 114.62 157.444 114.862 158.398C114.969 158.894 114.969 159.406 114.862 159.901L111.195 180.392L108.691 179.941L110.619 169.176L108.115 168.738L106.2 179.503L103.697 179.053L107.502 158.524ZM108.754 166.209L111.257 166.648L112.734 158.373L110.231 157.935L108.754 166.209Z" fill="#001F47"/>
<path d="M121.034 160.088C120.979 159.582 121.035 159.069 121.196 158.586C121.354 158.131 121.591 157.707 121.897 157.334C122.2 156.953 122.574 156.634 122.999 156.396C123.441 156.147 123.929 155.993 124.433 155.944C124.937 155.894 125.446 155.95 125.928 156.108C126.833 156.436 127.591 157.075 128.069 157.91C128.319 158.348 128.473 158.835 128.519 159.337L130.597 180.054L128.094 180.304L127.005 169.427L124.501 169.677L125.59 180.555L123.087 180.805L121.034 160.088ZM124.288 167.148L126.792 166.898L125.953 158.524L123.45 158.774L124.288 167.148Z" fill="#001F47"/>
<path d="M128.907 155.62L133.752 154.155C134.07 154.055 134.406 154.02 134.738 154.052C135.071 154.084 135.394 154.183 135.688 154.341C135.982 154.5 136.241 154.716 136.45 154.976C136.659 155.237 136.814 155.536 136.906 155.857L139.122 163.255C139.27 163.685 139.27 164.152 139.122 164.582C138.983 164.892 138.792 165.175 138.558 165.421C138.908 165.449 139.24 165.585 139.51 165.809C139.9 166.21 140.169 166.713 140.286 167.261L142.614 175.047C142.699 175.352 142.844 175.637 143.04 175.886C143.252 176.143 143.482 176.386 143.728 176.612L141.225 177.35C141.005 177.13 140.8 176.896 140.611 176.649C140.419 176.383 140.271 176.087 140.173 175.773L137.557 167.011L135.141 167.737L138.27 178.214L135.854 178.94L128.907 155.62ZM134.465 165.421L136.893 164.695L134.478 156.659L132.062 157.385L134.465 165.421Z" fill="#001F47"/>
<path d="M136.781 153.216L141.237 150.825C141.527 150.661 141.848 150.559 142.18 150.525C142.512 150.49 142.847 150.524 143.165 150.625C143.487 150.718 143.786 150.877 144.043 151.093C144.299 151.308 144.508 151.575 144.654 151.877L153.805 168.926C153.969 169.216 154.072 169.537 154.107 169.869C154.141 170.2 154.107 170.536 154.005 170.854C153.906 171.173 153.745 171.469 153.53 171.725C153.315 171.981 153.051 172.191 152.753 172.343L148.297 174.734L136.781 153.216ZM149.298 171.292L151.527 170.04L142.376 153.003L140.148 154.193L149.298 171.292Z" fill="#001F47"/>
<path d="M144.204 148.91L146.207 147.383L161.09 166.735L159.087 168.275L144.204 148.91Z" fill="#001F47"/>
<path d="M167.048 155.907C167.426 156.258 167.725 156.685 167.925 157.159C168.114 157.608 168.22 158.087 168.238 158.574C168.261 159.063 168.189 159.552 168.025 160.013C167.858 160.481 167.594 160.908 167.249 161.265C166.899 161.644 166.472 161.943 165.997 162.141C165.544 162.331 165.061 162.437 164.57 162.454C164.085 162.476 163.6 162.404 163.143 162.241C162.673 162.079 162.246 161.814 161.891 161.465L159.838 159.588L161.553 157.735L164.37 160.339L166.097 158.486L151.927 145.393L150.212 147.245L148.36 145.53L151.789 141.775L167.048 155.907Z" fill="#001F47"/>
<path d="M155.107 143.352C154.662 143.111 154.274 142.778 153.968 142.376C153.365 141.6 153.075 140.626 153.154 139.647C153.185 139.141 153.331 138.649 153.58 138.208C153.809 137.759 154.139 137.369 154.543 137.068C154.916 136.771 155.34 136.546 155.795 136.405C156.261 136.263 156.749 136.207 157.235 136.242C157.739 136.28 158.23 136.425 158.674 136.668L177 146.544L175.748 148.772L166.122 143.59L164.87 145.806L174.496 151.001L173.245 153.229L155.107 143.352ZM162.78 144.604L164.032 142.376L156.634 138.383L155.382 140.611L162.78 144.604Z" fill="#001F47"/>
<path d="M98.3893 137.156C103.988 141.263 110.736 143.505 117.679 143.565C115.256 142.758 112.956 141.621 110.844 140.185L112.171 138.308C107.252 138.215 102.397 137.169 97.8761 135.228L98.8775 136.693C98.7238 136.857 98.5608 137.011 98.3893 137.156Z" fill="#DADADA"/>
<path d="M147.196 126.391L147.358 126.454C145.887 125.824 144.373 125.301 142.827 124.889C142.677 124.989 142.389 125.214 142.163 125.402C141.703 125.779 141.223 126.13 140.724 126.454C138.204 129.084 135.326 131.347 132.174 133.175L134.365 139.309C139.747 136.264 144.187 131.794 147.196 126.391Z" fill="#DADADA"/>
</svg>
