<svg id="Layer_1" data-name="Layer 1" width="240" height="240" xmlns="http://www.w3.org/2000/svg" viewBox="0 0 240 240"><defs><style>.cls-1{fill:#fff;}.cls-2{fill:#3b4395;}.cls-3{fill:#d20a11;}.cls-4{fill:#fdc300;}</style></defs><path class="cls-1" d="M201.9,69.83h-3.7c-10.88,0-19.78-5.22-30.09-11.26C155.42,51.12,141,42.69,120,42.69S84.58,51.12,71.89,58.57c-10.31,6-19.21,11.26-30.09,11.26h-6l.06,2.32.11,3.7L36.63,97a110.26,110.26,0,0,0,7,35.24,106.54,106.54,0,0,0,17.3,30,101.29,101.29,0,0,0,25.7,22.44,96.51,96.51,0,0,0,32.25,12.45l.67.13.42.08.42-.08.67-.13a96.51,96.51,0,0,0,32.25-12.45A101.29,101.29,0,0,0,179,162.21a106.54,106.54,0,0,0,17.3-30,110.26,110.26,0,0,0,7-35.24l.68-21.1.11-3.7.06-2.32Z"/><path class="cls-2" d="M38.88,96.87c-.43-12.81-.67-21-.68-21.08l-.1-3.71h3.7c11.49,0,20.64-5.36,31.23-11.57,12.44-7.3,26.54-15.57,47-15.57s34.53,8.27,47,15.57c10.59,6.21,19.74,11.57,31.23,11.57h3.7l-.1,3.71c0,.08-.25,8.27-.68,21.08a108,108,0,0,1-6.89,34.52,104.56,104.56,0,0,1-16.93,29.39,99.12,99.12,0,0,1-25.14,21.95,94.09,94.09,0,0,1-31.49,12.16L120,195l-.67-.13a94.09,94.09,0,0,1-31.49-12.16A99.12,99.12,0,0,1,62.7,160.78a104.56,104.56,0,0,1-16.93-29.39A108,108,0,0,1,38.88,96.87Z"/><path class="cls-1" d="M163.55,66.35c-12.27-7.2-25-14.64-43.55-14.64S88.72,59.15,76.45,66.35c-10,5.89-19.6,11.48-31.39,12.37.11,3.51.31,9.77.59,17.92A100.27,100.27,0,0,0,67.93,156.5,92.5,92.5,0,0,0,91.36,177,87.16,87.16,0,0,0,120,188.12,87.16,87.16,0,0,0,148.64,177a92.5,92.5,0,0,0,23.43-20.45,100.27,100.27,0,0,0,22.28-59.86c.28-8.15.48-14.41.59-17.92C183.15,77.83,173.6,72.24,163.55,66.35Z"/><path class="cls-2" d="M193.21,80.25l-.53,16.33a98.62,98.62,0,0,1-21.91,58.85,91,91,0,0,1-23,20.09A85.91,85.91,0,0,1,120,186.41a85.91,85.91,0,0,1-27.77-10.89,91,91,0,0,1-23-20.09A98.55,98.55,0,0,1,47.32,96.58l-.53-16.33C58.23,79,67.5,73.54,77.3,67.79c12.08-7.08,24.57-14.4,42.7-14.4s30.62,7.32,42.7,14.4C172.5,73.54,181.77,79,193.21,80.25Z"/><path class="cls-3" d="M144.64,89.69c-5.45-3.27,1.58-15.94,11-22.72-5-.43-13.23,5.26-20.51,11.14s-15.81,6.92-17,3.7c-.83-2.19,1.36-11.36,28.29-21.63q-1.78-.8-3.63-1.5A76.15,76.15,0,0,1,131,62.61c-7.31,1.78-54.65,17-77.5,62.25v0C61,116.75,79,110.65,84.66,117.46c3.52,4.25-3.75,7.65-.62,10.92,3.41,3.56,14.22-.17,19.27-3.08,2.72-1.57,7.46-4.46,7.46-8,0-6.3-10.47-11.44-13.86-12.6-5.24-1.8-8.73-1.26-9.36,1.35-5.09-6.64,1-13.43,10.33-14.4,1.16-1.57,3.51-2.66,6.11-3,7.27-1,22.18.73,25.67.44a22.87,22.87,0,0,1-4,2.76c6.47,1.6,16.58,5.89,24.07,7.2a32.11,32.11,0,0,1-5.67,2.23c17.83,7.06,35.47,4.78,47.63-4.56v-.09l.51-15.44A55.7,55.7,0,0,1,175,75.68C160.67,89.49,148.91,92.25,144.64,89.69Z"/><path class="cls-3" d="M108.54,164.73a60.87,60.87,0,0,0-23.76,4.45q2.89,2.23,6,4.22C95.84,169,102.21,166.57,108.54,164.73Z"/><path class="cls-3" d="M147.26,174.68A90,90,0,0,0,170,154.81a93.08,93.08,0,0,0,7.43-10.51c-4.72,3.61-9.83,7.23-17.86,12.7-5.28,3.6-15.26,7.46-22,9.68-8.1,2.68-16.55,11-17.5,18.7A84.77,84.77,0,0,0,147.26,174.68Z"/><path class="cls-4" d="M146.05,88.14c3,2.13,11.89-1.36,19.64-9.6,1.64-1.75,3.14-3.52,4.53-5.31-1.8-1-3.6-2-5.41-3.06-.47.35-1,.7-1.52,1.08-3.68,2.49-7.19,4.29-12.49,7.92C146.07,82.4,143.89,86.63,146.05,88.14Z"/><path class="cls-4" d="M122.05,80.72c1,1.14,9.52-.6,20.85-13a20.52,20.52,0,0,1,7.9-5.4c-.6-.31-1.22-.6-1.83-.9-3.57,1.06-7,2.15-10.12,3.43C125.54,70.26,120.19,78.56,122.05,80.72Z"/><path class="cls-4" d="M52.83,122.83a98.57,98.57,0,0,1-4.52-26.28s-.4-12-.51-15.44C59,79.64,68.16,74.3,77.8,68.64c12-7,24.33-14.27,42.2-14.27a63.6,63.6,0,0,1,7.18.42C85.87,67.12,64.84,100.35,52.83,122.83ZM57.5,86.57H49.65L56,91.19l-2.42,7.47,6.35-4.61,6.37,4.62-2.43-7.48,6.36-4.62H62.36l-2.43-7.49Z"/><path class="cls-4" d="M189.77,112.81a98.62,98.62,0,0,1-3.6,13A46.12,46.12,0,0,0,165,143c-9.12,13.43-11,17.46-29.61,21-12.55,2.39-23.4,7.71-28.91,17.46a84.82,84.82,0,0,1-10.59-4.95c4.24-5.86,11.11-9.35,24.15-13.23-16.15-1.32-28.77,0-38.14,3.58a91.69,91.69,0,0,1-11.87-12,95.53,95.53,0,0,1-16-28.6c9.23-8.6,20.51-9.95,23.43-7.76,4.66,3.49-1.94,8,5.92,13.36s18.53,1.82,24.07-.79c5-2.32,9-6.11,9-10.47,0-7.27-9.26-13.15-13.18-16a7.92,7.92,0,0,0,3.22-1.13A11.52,11.52,0,0,1,100,94.21c0-.11,0-.22,0-.33,0-2.62,1.93-3.75,6.74-3.75,4.5,0,12.54,1,15.48,1.1l-2.69,1.49c6.22.65,16.7,6.11,20.7,7.27-1.46.34-5.24,1-7.56,1.21C147.46,114.26,170.93,119.7,189.77,112.81ZM111.86,92.93l-10.31.24.93,1a3.5,3.5,0,0,0,6,2c.07-.07.13-.16.2-.24l2.2-1.1c.2-.1.2-.27,0-.38l-.48-.27,1.62-.76C112.59,93.14,112.54,92.91,111.86,92.93Z"/><path class="cls-1" d="M100.4,98.78a11.87,11.87,0,0,0,4,4.22c-2.37.39-5.09,0-8.53-.54s-7.52-.29-8.53,2.19c-2.62-6.69,3.78-10.82,11.2-11.3C99.44,93.37,98.65,95.78,100.4,98.78Z"/><polygon class="cls-1" points="182.5 86.57 190.35 86.57 184 91.19 186.42 98.67 180.06 94.05 173.7 98.67 176.13 91.19 169.77 86.57 177.63 86.57 180.07 79.08 182.5 86.57"/><path class="cls-1" d="M107.94,94.19l-.88,0a1.39,1.39,0,0,1,.09.46,1.36,1.36,0,1,1-2.72,0,1.27,1.27,0,0,1,.06-.39l-.57,0a2.22,2.22,0,0,0,0,.37,2.06,2.06,0,1,0,4.12,0A2,2,0,0,0,107.94,94.19Z"/><path class="cls-2" d="M107.86,155.74v0c0,.5.44.78,1.32.78.67,0,1-.2,1-.56s-.29-.42-.9-.49l-.8-.08c-1.16-.12-1.72-.51-1.72-1.28s.82-1.51,2.19-1.51,2.27.59,2.27,1.48v0h-1.14c-.05-.45-.42-.68-1.11-.68s-1,.2-1,.52.29.39.92.45l.84.09c1.15.13,1.7.54,1.7,1.34,0,1-.82,1.55-2.42,1.55s-2.35-.6-2.35-1.6v-.1Z"/><path class="cls-2" d="M114.93,152.77h4v.93h-2.9v.76h2.58v.93h-2.58v1H119v.93h-4Z"/><path class="cls-2" d="M122.55,152.77h1.39l2.28,3.21v-3.21h1.09v4.55h-1.38l-2.3-3.24v3.24h-1.08Z"/><path class="cls-2" d="M134.79,153.07a2.38,2.38,0,0,1,0,4,3.48,3.48,0,0,1-1.76.3H131v-4.55H133A3.48,3.48,0,0,1,134.79,153.07Zm-2.62,3.32h.88c1.06,0,1.6-.49,1.6-1.36s-.54-1.33-1.6-1.33h-.88Z"/><path class="cls-2" d="M140.37,152.77h1.09l2.07,4.55h-1.26l-.42-1h-2l-.41,1h-1.23Zm1.07,2.66-.61-1.4-.59,1.4Z"/><path class="cls-2" d="M146.74,152.77h1.14v4.55h-1.14Z"/><path class="cls-2" d="M163.88,148.34h-.06c-.53-.06-.69-.08-1.11-1.37l-2.77-9.09.15-.06.24-.11v-2.82H130.8v2.87l.32.06c.49.11.57.26.57,1.13V146L131,143.9l-1.51-5-.32-1.06.15-.06.24-.11v-2.82h-8.36v2.79l.24.12.16.07c-.26.81-1.34,4.09-2.08,6.35v-7.85l-.22-.12-.51-.26a12.31,12.31,0,0,0-5.66-1.37,7.5,7.5,0,0,0-3.93,1,6.65,6.65,0,0,0-2,1.94l-.59-2.7H98.34a9,9,0,0,1,2.34-1.43l.58-.24.25-.1V130l-.49.11-1.15.25A20.67,20.67,0,0,0,89,136.24a9.87,9.87,0,0,0-2.56,5.15l-1-2.65c-.19-.53-.17-.67-.16-.7s.12-.09.6-.09h.4v-3.06H75.7v3.05L76,138l.76.15c.44.09.59.25,1.12,1.72l6.52,17.92.49,1.36,1.33-.59a11.64,11.64,0,0,0,6-6.21,24.8,24.8,0,0,0,1.75-7.2h0a21.84,21.84,0,0,1,1.33-5.65v7.82c0,.91,0,.91-.52,1h0l-.32.07v3h12s.56-2,.79-2.79a8.13,8.13,0,0,0,.75.9,7.18,7.18,0,0,0,5.19,2c.29,0,.61,0,1,0,.61,0,1.38-.08,2.32-.08h7.25v-3l-.35,0h0c-.18,0-.44-.07-.48-.14s-.09-.17.1-.73l.36-1.16c1.3.37,2,1.2,2,1.9a1.84,1.84,0,0,1-.59.12l-.36,0v3h30v-3l-.35,0h0c-.18,0-.43-.07-.48-.14s-.09-.17.1-.73l.36-1.16c1.3.37,2,1.2,2,1.9a1.83,1.83,0,0,1-.58.12l-.37,0v3h9.05v-3ZM149,147.88q0-.27,0-.84v-7.46a3.21,3.21,0,0,1,.94,1.67l.23.84.1.36.68-.13-1.34,4.11A6.26,6.26,0,0,1,149,147.88Zm-8.2-5.5.37.07.1-.36.24-.84a3.14,3.14,0,0,1,.93-1.67V143l-.7-.27-.14.39-.34.89c-.81,2.19-1.79,3.29-2.89,3.29h-.1c0-.19,0-.51,0-1v-4.42l.27.06ZM113,143.64a6.78,6.78,0,0,1,0,.84v2.26a6,6,0,0,1-.94-3.3l.23.05Zm3.15-3.22h-3.64a3.11,3.11,0,0,1,.67-1.08,1.55,1.55,0,0,1,1.12-.5h.06C115.14,138.84,115.78,139.42,116.18,140.42Zm-14.27,6.85c0-.12,0-.31,0-.6V144.6a4.16,4.16,0,0,1,.43,1.1l.19.7.08.3h1a1.9,1.9,0,0,1-1.45.57Zm0-7.42V139a2,2,0,0,1,.35,0A3,3,0,0,1,101.89,139.85Zm3.83,2.87-.34.81v-1.28l.11,0,.25-.07C105.73,142.34,105.73,142.53,105.72,142.72Zm33.11-4.9c-.24,1.31-.49,2.72-.49,2.72s-.07.38-.11.64v-2.24C138.23,137.94,138.34,137.88,138.83,137.82Z"/><path class="cls-1" d="M162.32,147.09l-2.82-9.26,0-.1a.13.13,0,0,1,.06-.13l.39-.17v-2.14h-7.54v2.12l.41.19a.12.12,0,0,1,.07.09s0,0,0,.08v0h0l-.44,1.35-.71-3.86h-12l-1,5.32-.16.92,2.29.45.23-.84c.42-1.5,1.09-2,1.74-2.22v4.64l-.87-.33-.33.9c-.88,2.36-2,3.55-3.28,3.55a1.15,1.15,0,0,1-.43-.05,4.61,4.61,0,0,1-.11-1.34v-7.35c0-1,.11-1.43,1-1.53v-2.12h-7.59v2.12c.82.18.89.67.89,1.53v8.37a9,9,0,0,1,0,1.05,7.08,7.08,0,0,1-.47-1.27l-2.82-9.26,0-.1a.11.11,0,0,1,.06-.13l.39-.17v-2.14h-7.54v2.12l.41.19a.12.12,0,0,1,.07.09s0,0,0,.08v0h0l-2.86,8.76a1.87,1.87,0,0,0-.07.22V136.61l-.52-.27a12,12,0,0,0-5.47-1.32,6.53,6.53,0,0,0-6.16,3.67l-.58-2.66-.16-.74h-9a9.27,9.27,0,0,1,3.21-2.21l.58-.24v-2.36l-1.14.25a20.3,20.3,0,0,0-10.69,5.79,9.14,9.14,0,0,0-2.55,6.21c0,.27,0,.55,0,.82l-1.7-4.67c-.34-1-.28-1.33.82-1.34v-2.25H76.11v2.3l.76.15c.69.13.9.52,1.43,2l6.51,17.92.35,1,.92-.41a11.22,11.22,0,0,0,5.81-6,24,24,0,0,0,1.72-7.09h0a22.65,22.65,0,0,1,2-7.36l0,0a5.93,5.93,0,0,1,.07,1.18v8.37c0,1.26-.13,1.26-.89,1.43V151h11.26l1-3.4a6.67,6.67,0,0,0,1.18,1.63,6.75,6.75,0,0,0,4.9,1.89c.27,0,.6,0,1,0,.61,0,1.39-.08,2.34-.08h6.84v-2.22c-.6-.09-1.13-.15-.73-1.4l.48-1.51c1.76.35,2.71,1.46,2.71,2.45,0,.34-.56.41-.95.46V151h29.22v-2.22c-.6-.09-1.13-.15-.73-1.4l.48-1.51c1.76.35,2.71,1.46,2.71,2.45,0,.34-.56.41-1,.46V151h8.23v-2.22C163.15,148.66,162.84,148.67,162.32,147.09Zm-60.84-7.82a3.71,3.71,0,0,1,0-.67l.29,0a4.06,4.06,0,0,1,1,.11l-.05.17c-.33,1.24-.66,1.6-1.23,1.69Zm.67,8.41a1.33,1.33,0,0,1-.57-.07,2.4,2.4,0,0,1-.1-.94V143.9c.57.1.9.45,1.23,1.69l.19.7h1.55A2.56,2.56,0,0,1,102.15,147.68Zm4-4.88-.55,1.28c-.21.5-.42.94-.61,1.32v-4.69l.12.31.3.8.81-.2A9.12,9.12,0,0,0,106.13,142.8Zm6.3-2v2.26l.75.16a.49.49,0,0,1,.19.07,4.07,4.07,0,0,1,.1,1.16v2a5.29,5.29,0,0,1-.08,1.14c-.49-.25-1.69-1.61-1.69-4.57a5.67,5.67,0,0,1,1.22-4,2,2,0,0,1,1.41-.62h.06c1.07,0,1.94.89,2.36,2.4ZM150,146.56c-.45,1.37-.65,1.79-1.13,1.93h0l-.13,0a5.22,5.22,0,0,1-.11-1.43v-8.12c.65.18,1.31.72,1.73,2.22l.24.84,1-.2Z"/><path class="cls-2" d="M100.16,131.66A19.16,19.16,0,0,0,90,137.16a8.17,8.17,0,0,0-2.3,5.57,7.79,7.79,0,0,0,.42,2.52l1.53,4.21a4,4,0,0,1-.41,3.59l-5-13.86a5,5,0,0,1-.31-1.41c0-.64.37-1,1.08-1v-.57H77.06v.57c1.26.25,1.61,1.16,2.12,2.59l6.52,17.92A10.28,10.28,0,0,0,91,151.83,23.55,23.55,0,0,0,92.67,145a23.57,23.57,0,0,1,2.2-7.84,10.32,10.32,0,0,1,5.29-5Z"/><path class="cls-2" d="M156.34,144.27l-1.36-5-1.3,4A5.36,5.36,0,0,1,156.34,144.27Zm-7.4,5.16c1.14-.24,1.45-1.15,1.92-2.58l2.86-8.76a1.85,1.85,0,0,0,.11-.59.73.73,0,0,0-.5-.69v-.57H159v.57a.75.75,0,0,0-.5.62,2.22,2.22,0,0,0,.11.66l2.83,9.28c.4,1.32.66,2,1.46,2.06V150h-6.34v-.58a1,1,0,0,0,1-1.15c0-1.68-1.65-3.31-4.31-3.49l-.72,2.27a5,5,0,0,0-.28,1.4.86.86,0,0,0,1,1V150H142.61v-.58c1.06-.08,1.17-.8,1.17-2.39v-9.15h-.24c-1.69,0-2.79,1-3.35,3l-.52-.1.82-4.54h10.4l.83,4.54-.52.1c-.56-2-1.66-3-3.35-3h-.24V147c0,1.65.13,2.33,1.15,2.39Z"/><path class="cls-2" d="M106.45,144.46c-1.23,2.83-2.26,4.17-4.3,4.17-1.34,0-1.62-.5-1.62-2v-3.74H101c1.54,0,2.17.7,2.64,2.42H104v-6.24h-.39c-.47,1.71-1.1,2.41-2.64,2.41h-.46v-2.25c0-1.18.15-1.63,1.28-1.63A4.19,4.19,0,0,1,106,140.7l.48-.13-.95-4.33h-9.7v.57c.86.17.89.77.89,2.13v8.37c0,1.36,0,2-.89,2.12V150h9.61l1.51-5.39Z"/><path class="cls-2" d="M125.61,144.27l-1.36-5-1.3,4A5.36,5.36,0,0,1,125.61,144.27Zm-7.4,5.16c1.13-.24,1.45-1.15,1.92-2.58l2.86-8.76a1.85,1.85,0,0,0,.11-.59.73.73,0,0,0-.5-.69v-.57h5.65v.57a.73.73,0,0,0-.5.62,2.22,2.22,0,0,0,.11.66l2.82,9.28c.41,1.32.67,2,1.47,2.06.86-.16.89-.76.89-2.12v-8.37c0-1.36,0-2-.89-2.13v-.57h5.71v.57c-.91.21-1,.81-1,2.13v7.35c0,1.51,0,2.34,1.49,2.34q2.59,0,4.16-4.17l.43.16L141.59,150H125.81v-.58a1,1,0,0,0,1-1.15c0-1.68-1.65-3.31-4.31-3.49l-.73,2.27a5.39,5.39,0,0,0-.28,1.4.87.87,0,0,0,1,1V150h-5.89c-1.6,0-2.72.13-3.35.13-3.81,0-6.09-2.72-6.09-6.88v-.42c0-4.15,2.28-6.87,6.09-6.87a10.94,10.94,0,0,1,5,1.22v3.6h-.5c-.53-2.2-1.87-3.3-3.32-3.3h-.06c-1.88,0-3.57,1.84-3.57,5.56s1.75,5.56,2.74,5.56c.75,0,.92-.75.92-2.13v-2c0-1.33-.08-1.95-1-2.15v-.56h4.83Z"/></svg>
