<svg width="240" height="240" viewBox="0 0 240 240" fill="none" xmlns="http://www.w3.org/2000/svg">
<path d="M120.242 210L117.056 209.317C102.867 205.781 89.4436 199.68 77.4498 191.313C50.8701 172.768 36.8193 146.018 36.8193 113.906V47.9474L45.3522 43.8516C46.4472 43.297 74.2927 30 120.242 30C166.191 30 194.037 43.2828 195.203 43.8516L203.736 47.9616V113.906C203.736 145.975 189.685 172.726 163.105 191.27C151.072 199.623 137.631 205.736 123.428 209.317L120.242 210Z" fill="white"/>
<path d="M197.663 57.3762V113.906C197.663 143.913 184.494 168.957 159.607 186.336C148.261 194.276 135.569 200.091 122.148 203.501L120.242 203.913L118.336 203.501C104.932 200.116 92.2514 194.334 80.9057 186.435C55.9899 169 42.8351 143.956 42.8351 113.906V51.7303L47.9263 49.27C49.0356 48.7296 75.786 36.0156 120.242 36.0156C164.698 36.0156 191.463 48.7296 192.572 49.27L197.663 51.7303V57.3762ZM120.242 45.032C77.3362 45.032 51.8514 57.3762 51.8514 57.3762V113.906C51.8514 179.78 120.242 194.584 120.242 194.584C120.242 194.584 188.647 179.78 188.647 113.906V57.3762C188.647 57.3762 163.162 45.032 120.242 45.032Z" fill="#001930"/>
<path d="M180.683 99.6848H160.545V163.852C157.364 166.968 153.935 169.822 150.292 172.384C147.874 174.091 145.457 175.627 143.082 176.992V82.2636H180.669L180.683 99.6848ZM59.8011 99.6848V82.2636H97.2745V176.921C94.9422 175.499 92.5672 174.077 90.1638 172.384C86.4812 169.776 83.0229 166.865 79.8249 163.681V99.6848H59.8011ZM128.775 183.747C125.006 185.169 121.991 186.108 120.242 186.592C117.221 185.741 114.245 184.74 111.325 183.591V82.2778H128.789L128.775 183.747ZM59.8011 67.5587V62.9652C68.6184 59.6942 89.9363 53.2377 120.228 53.2377C150.519 53.2377 171.866 59.7085 180.669 62.9652V67.6013L59.8011 67.5587Z" fill="#001930"/>
</svg>
