<?xml version="1.0" encoding="utf-8"?>
<svg viewBox="31328 44121 240 240" width="240" height="240" fill-rule="evenodd" stroke-width="28.222" stroke-linejoin="round" xmlns="http://www.w3.org/2000/svg">
  <g class="Page" transform="matrix(0.041551001369953156, 0, 0, 0.041551001369953156, 30063.5625, 42317.73046875)">
    <g class="com.sun.star.drawing.ClosedBezierShape">
      <g id="id3">
        <rect class="BoundingBox" stroke="none" fill="none" x="31339" y="44685" width="1172" height="1746"/>
        <path fill="rgb(16,132,73)" stroke="none" d="M 32190,46429 C 32298,46429 32405,46424 32510,46413 31947,45988 31528,45383 31339,44685 31350,44861 31369,45036 31398,45207 31555,45670 31816,46086 32152,46428 32164,46429 32178,46429 32190,46429 Z"/>
      </g>
    </g>
    <g class="com.sun.star.drawing.ClosedBezierShape">
      <g id="id4">
        <rect class="BoundingBox" stroke="none" fill="none" x="31490" y="45649" width="475" height="773"/>
        <path fill="rgb(16,132,73)" stroke="none" d="M 31490,45649 C 31556,45907 31641,46157 31744,46398 31816,46408 31890,46416 31964,46421 31771,46189 31611,45930 31490,45649 Z"/>
      </g>
    </g>
    <g class="com.sun.star.drawing.ClosedBezierShape">
      <g id="id5">
        <rect class="BoundingBox" stroke="none" fill="none" x="31328" y="44133" width="1857" height="2247"/>
        <path fill="rgb(16,132,73)" stroke="none" d="M 32757,46379 C 32903,46353 33045,46318 33184,46273 32279,45886 31588,45098 31333,44133 31330,44206 31328,44280 31328,44355 31328,44385 31329,44416 31329,44447 31539,45260 32059,45948 32757,46379 Z"/>
      </g>
    </g>
    <g class="com.sun.star.drawing.ClosedBezierShape">
      <g id="id6">
        <rect class="BoundingBox" stroke="none" fill="none" x="32084" y="44685" width="3216" height="2704"/>
        <path fill="rgb(33,40,77)" stroke="none" d="M 32189,47061 C 32154,47061 32119,47060 32084,47059 32152,47171 32224,47280 32301,47388 33667,47341 34819,46443 35240,45207 35268,45036 35288,44861 35299,44685 34928,46054 33676,47061 32189,47061 Z"/>
      </g>
    </g>
    <g class="com.sun.star.drawing.ClosedBezierShape">
      <g id="id7">
        <rect class="BoundingBox" stroke="none" fill="none" x="32446" y="45649" width="2702" height="2232"/>
        <path fill="rgb(33,40,77)" stroke="none" d="M 32447,47583 C 32528,47685 32613,47784 32701,47880 33576,47741 34334,47249 34823,46556 34958,46267 35067,45964 35147,45649 34685,46718 33660,47486 32447,47583 Z"/>
      </g>
    </g>
    <g class="com.sun.star.drawing.ClosedBezierShape">
      <g id="id8">
        <rect class="BoundingBox" stroke="none" fill="none" x="32867" y="47150" width="1632" height="1303"/>
        <path fill="rgb(33,40,77)" stroke="none" d="M 34497,47150 C 34062,47597 33499,47917 32867,48052 33009,48194 33160,48328 33318,48452 33781,48089 34180,47648 34497,47150 Z"/>
      </g>
    </g>
    <g class="com.sun.star.drawing.ClosedBezierShape">
      <g id="id9">
        <rect class="BoundingBox" stroke="none" fill="none" x="31791" y="44133" width="3519" height="2727"/>
        <path fill="rgb(33,40,77)" stroke="none" d="M 32189,46530 C 32054,46530 31921,46522 31791,46506 31844,46623 31902,46738 31963,46851 32038,46856 32113,46859 32189,46859 33689,46859 34949,45834 35308,44447 35309,44416 35309,44385 35309,44355 35309,44280 35307,44206 35304,44133 34940,45513 33684,46530 32189,46530 Z"/>
      </g>
    </g>
    <g class="com.sun.star.drawing.PolyPolygonShape">
      <g id="id10">
        <rect class="BoundingBox" stroke="none" fill="none" x="34111" y="44133" width="470" height="468"/>
        <path fill="rgb(33,40,77)" stroke="none" d="M 34553,44210 L 34579,44133 34462,44133 34346,44385 34228,44133 34111,44133 34137,44210 34137,44522 34111,44600 34268,44600 34241,44522 34241,44379 34320,44548 34372,44548 34449,44379 34449,44522 34423,44600 34579,44600 34553,44522 34553,44210 Z"/>
      </g>
    </g>
    <g class="com.sun.star.drawing.PolyPolygonShape">
      <g id="id11">
        <rect class="BoundingBox" stroke="none" fill="none" x="34582" y="44132" width="443" height="470"/>
        <path fill="rgb(33,40,77)" stroke="none" d="M 34763,44444 L 34802,44288 34841,44444 34763,44444 Z M 35024,44600 L 34982,44548 34854,44132 34712,44132 34732,44193 34624,44548 34582,44600 34751,44600 34738,44548 34744,44522 34861,44522 34867,44548 34854,44600 35024,44600 Z"/>
      </g>
    </g>
    <g class="com.sun.star.drawing.PolyPolygonShape">
      <g id="id12">
        <rect class="BoundingBox" stroke="none" fill="none" x="31614" y="44133" width="339" height="468"/>
        <path fill="rgb(33,40,77)" stroke="none" d="M 31614,44133 L 31614,44236 31691,44210 31730,44210 31730,44522 31704,44600 31861,44600 31834,44522 31834,44210 31874,44210 31952,44236 31952,44133 31614,44133 Z"/>
      </g>
    </g>
    <g class="com.sun.star.drawing.PolyPolygonShape">
      <g id="id13">
        <rect class="BoundingBox" stroke="none" fill="none" x="33926" y="44133" width="157" height="468"/>
        <path fill="rgb(33,40,77)" stroke="none" d="M 34056,44210 L 34082,44133 33926,44133 33952,44210 33952,44522 33926,44600 34082,44600 34056,44522 34056,44210 Z"/>
      </g>
    </g>
    <g class="com.sun.star.drawing.PolyPolygonShape">
      <g id="id14">
        <rect class="BoundingBox" stroke="none" fill="none" x="32349" y="44133" width="391" height="468"/>
        <path fill="rgb(33,40,77)" stroke="none" d="M 32583,44312 L 32682,44175 32739,44133 32558,44133 32566,44175 32480,44293 32480,44210 32506,44133 32350,44133 32376,44210 32376,44522 32350,44600 32506,44600 32480,44522 32480,44453 32511,44411 32574,44551 32558,44600 32739,44600 32691,44551 32583,44312 Z"/>
      </g>
    </g>
    <g class="com.sun.star.drawing.ClosedBezierShape">
      <g id="id15">
        <rect class="BoundingBox" stroke="none" fill="none" x="32741" y="44133" width="391" height="479"/>
        <path fill="rgb(33,40,77)" stroke="none" d="M 33131,44133 L 32975,44133 33001,44210 33001,44472 C 33001,44505 32974,44533 32940,44533 L 32933,44533 C 32899,44533 32872,44505 32872,44472 L 32872,44210 32898,44133 32741,44133 32767,44210 32767,44468 C 32767,44547 32832,44611 32911,44611 L 32962,44611 C 33041,44611 33105,44547 33105,44468 L 33105,44210 33131,44133 Z"/>
      </g>
    </g>
    <g class="com.sun.star.drawing.PolyPolygonShape">
      <g id="id16">
        <rect class="BoundingBox" stroke="none" fill="none" x="33507" y="44133" width="390" height="468"/>
        <path fill="rgb(33,40,77)" stroke="none" d="M 33871,44210 L 33896,44133 33741,44133 33767,44210 33767,44314 33637,44314 33637,44210 33663,44133 33507,44133 33533,44210 33533,44522 33507,44600 33663,44600 33637,44522 33637,44392 33767,44392 33767,44523 33741,44600 33896,44600 33871,44522 33871,44210 Z"/>
      </g>
    </g>
    <g class="com.sun.star.drawing.ClosedBezierShape">
      <g id="id17">
        <rect class="BoundingBox" stroke="none" fill="none" x="31975" y="44121" width="339" height="492"/>
        <path fill="rgb(33,40,77)" stroke="none" d="M 32210,44473 C 32210,44506 32181,44534 32147,44534 L 32140,44534 C 32106,44534 32079,44506 32079,44473 L 32079,44261 C 32079,44226 32106,44199 32140,44199 L 32147,44199 C 32181,44199 32210,44226 32210,44261 L 32210,44473 Z M 32170,44121 L 32118,44121 C 32039,44121 31975,44185 31975,44265 L 31975,44469 C 31975,44548 32039,44612 32118,44612 L 32170,44612 C 32249,44612 32313,44548 32313,44469 L 32313,44265 C 32313,44185 32249,44121 32170,44121 Z"/>
      </g>
    </g>
    <g class="com.sun.star.drawing.ClosedBezierShape">
      <g id="id18">
        <rect class="BoundingBox" stroke="none" fill="none" x="33150" y="44133" width="339" height="468"/>
        <path fill="rgb(33,40,77)" stroke="none" d="M 33344,44314 L 33305,44314 C 33277,44314 33253,44291 33253,44262 33253,44234 33277,44210 33305,44210 L 33383,44210 33462,44236 33462,44210 33462,44133 33279,44133 C 33208,44133 33150,44191 33150,44262 33150,44334 33208,44392 33279,44392 L 33318,44392 C 33354,44392 33383,44421 33383,44457 33383,44492 33354,44522 33318,44522 L 33253,44522 33176,44496 33176,44522 33176,44600 33344,44600 C 33423,44600 33488,44536 33488,44457 33488,44378 33423,44314 33344,44314 Z"/>
      </g>
    </g>
    <g class="com.sun.star.drawing.PolyPolygonShape">
      <g id="id19">
        <rect class="BoundingBox" stroke="none" fill="none" x="32231" y="44782" width="464" height="493"/>
        <path fill="rgb(33,40,77)" stroke="none" d="M 32694,44783 L 32544,44783 32516,44783 32530,44839 32462,45111 32394,44839 32407,44783 32231,44783 32275,44839 32408,45274 32516,45274 32650,44839 32694,44783 Z"/>
      </g>
    </g>
    <g class="com.sun.star.drawing.PolyPolygonShape">
      <g id="id20">
        <rect class="BoundingBox" stroke="none" fill="none" x="33485" y="44782" width="357" height="493"/>
        <path fill="rgb(33,40,77)" stroke="none" d="M 33485,44783 L 33485,44893 33566,44866 33607,44866 33607,45192 33580,45274 33744,45274 33717,45192 33717,44866 33758,44866 33840,44893 33840,44783 33485,44783 Z"/>
      </g>
    </g>
    <g class="com.sun.star.drawing.PolyPolygonShape">
      <g id="id21">
        <rect class="BoundingBox" stroke="none" fill="none" x="33868" y="44782" width="166" height="493"/>
        <path fill="rgb(33,40,77)" stroke="none" d="M 34005,44866 L 34032,44783 33868,44783 33895,44866 33895,45192 33868,45274 34032,45274 34005,45192 34005,44866 Z"/>
      </g>
    </g>
    <g class="com.sun.star.drawing.ClosedBezierShape">
      <g id="id22">
        <rect class="BoundingBox" stroke="none" fill="none" x="33077" y="44782" width="411" height="493"/>
        <path fill="rgb(33,40,77)" stroke="none" d="M 33351,44938 C 33351,44973 33322,45002 33286,45002 L 33213,45002 33213,44866 33286,44866 C 33322,44866 33351,44894 33351,44930 L 33351,44938 Z M 33437,45224 L 33368,45072 C 33422,45049 33459,44996 33459,44934 33459,44851 33392,44783 33310,44783 L 33077,44783 33105,44866 33105,45192 33077,45274 33241,45274 33213,45192 33213,45083 33249,45083 33337,45274 33487,45274 33437,45224 Z"/>
      </g>
    </g>
    <g class="com.sun.star.drawing.ClosedBezierShape">
      <g id="id23">
        <rect class="BoundingBox" stroke="none" fill="none" x="32684" y="44771" width="357" height="516"/>
        <path fill="rgb(33,40,77)" stroke="none" d="M 32929,45140 C 32929,45175 32900,45204 32865,45204 L 32857,45204 C 32822,45204 32793,45175 32793,45140 L 32793,44918 C 32793,44882 32822,44853 32857,44853 L 32865,44853 C 32900,44853 32929,44882 32929,44918 L 32929,45140 Z M 32888,44771 L 32834,44771 C 32751,44771 32684,44838 32684,44922 L 32684,45136 C 32684,45219 32751,45286 32834,45286 L 32888,45286 C 32971,45286 33039,45219 33039,45136 L 33039,44922 C 33039,44838 32971,44771 32888,44771 Z"/>
      </g>
    </g>
    <g class="com.sun.star.drawing.ClosedBezierShape">
      <g id="id24">
        <rect class="BoundingBox" stroke="none" fill="none" x="34052" y="44782" width="356" height="493"/>
        <path fill="rgb(33,40,77)" stroke="none" d="M 34257,44974 L 34216,44974 C 34186,44974 34162,44949 34162,44919 34162,44889 34186,44865 34216,44865 L 34298,44865 34380,44892 34380,44865 34380,44783 34189,44783 C 34114,44783 34052,44844 34052,44919 34052,44994 34114,45055 34189,45055 L 34230,45055 C 34267,45055 34298,45086 34298,45123 34298,45161 34267,45191 34230,45191 L 34162,45191 34080,45164 34080,45191 34080,45274 34257,45274 C 34340,45274 34407,45206 34407,45123 34407,45041 34340,44974 34257,44974 Z"/>
      </g>
    </g>
  </g>
</svg>
