<svg id="Layer_1" data-name="Layer 1" width="240" height="240" xmlns="http://www.w3.org/2000/svg" viewBox="0 0 240 240"><defs><style>.cls-1{fill:#34436f;}.cls-2{fill:#fff;}.cls-3{fill:#253c8a;}.cls-4{fill:#c9c5c3;}.cls-5{fill:#a82f42;}.cls-6{fill:#fbf8f8;}</style></defs><path class="cls-1" d="M188.87,163.31A2.2,2.2,0,0,0,186,162a48,48,0,0,1-19.82.16c.62-.91,1.16-1.72,1.63-2.49,9.79-15.69,11.81-33.17,6-51.94-2.26-7.32-3.8-19.12-3.87-19.64h0l-.13-1-.17-1.28V85.6l-.14,0-1.27-.21-1-.17a12.49,12.49,0,0,0-6,1c-2.18-4.06-8.88-17-8.88-22.69a6.26,6.26,0,0,0-2.86-5.62c-4-2.49-10.24-.36-18.4,3.62-1.14-1.1-3.67-4.13-8.14-12.22h0S121.67,47,121.67,47l-1.51-2.74L120,44l-.16.29L118.33,47l-1.25,2.25c-4.47,8.1-7,11.13-8.14,12.23-8.16-4-14.41-6.11-18.4-3.62a6.26,6.26,0,0,0-2.86,5.62c0,5.69-6.7,18.63-8.88,22.69a12.49,12.49,0,0,0-6-1h0l-1.06.17-1.27.21-.14,0v.13L70.18,87l-.13,1c-.07.5-1.61,12.32-3.88,19.64A69,69,0,0,0,63,128a58.88,58.88,0,0,0,9.23,31.6c.47.77,1,1.58,1.63,2.49A48,48,0,0,1,54,162a2.2,2.2,0,0,0-2.86,1.34c-.68,1.94.94,2.64,2.37,3.27a80.73,80.73,0,0,1,7.86,3.86,3.28,3.28,0,0,0-1,.4l-1.53.9-.09,0v1.87a3.38,3.38,0,0,0,1.89,3,11.49,11.49,0,0,0,1.85.76c3.62,1.84,8.14,5.2,9,8.63a6.72,6.72,0,0,0,4.9,5.05c5.5,1.47,14.26-3.11,20.15-7.5,6.64,4.17,11.9,6.12,14.42,6.53A42.23,42.23,0,0,1,118,194.5h0c.21.17.48.39.8.63l1.06.8.11.09.11-.09,1-.81.8-.61a41.3,41.3,0,0,1,7.13-4.35c2.52-.41,7.78-2.36,14.42-6.53,5.89,4.39,14.66,9,20.15,7.5a6.72,6.72,0,0,0,4.9-5.05c.85-3.43,5.37-6.79,9-8.63a11.49,11.49,0,0,0,1.85-.76,3.36,3.36,0,0,0,1.89-3v-1.87l-.09-.06-.62-.37-.91-.53a3.22,3.22,0,0,0-1-.41,80.73,80.73,0,0,1,7.86-3.86C187.93,166,189.55,165.25,188.87,163.31Z"/><path class="cls-2" d="M186.36,166.24a79.74,79.74,0,0,0-8.38,4.15l-.54.33h.63a2.82,2.82,0,0,1,1.42.43l.91.54.54.32v1.66a3,3,0,0,1-1.71,2.68,11.62,11.62,0,0,1-1.79.74h0c-3.69,1.87-8.32,5.32-9.19,8.88a6.4,6.4,0,0,1-4.64,4.78c-5.4,1.44-14.12-3.15-19.94-7.52l-.1-.07-.11.07c-6.65,4.19-11.91,6.14-14.4,6.54h0a40.69,40.69,0,0,0-7.25,4.4s-.8.63-.8.63l-.94.72-1-.72-.82-.64h0a40.46,40.46,0,0,0-7.23-4.4h0c-2.48-.39-7.75-2.34-14.43-6.55l-.11-.07-.1.07c-5.82,4.37-14.54,9-19.94,7.52A6.4,6.4,0,0,1,71.78,186c-.87-3.56-5.5-7-9.19-8.88h0a10.7,10.7,0,0,1-1.79-.74,3,3,0,0,1-1.71-2.7v-.52s0-.84,0-1.14l1.44-.84a2.82,2.82,0,0,1,1.42-.43h.63l-.55-.33a79.44,79.44,0,0,0-8.37-4.15c-1.41-.61-2.74-1.19-2.17-2.81a1.87,1.87,0,0,1,2.43-1.11,48.48,48.48,0,0,0,20.26.11l.27-.06-.16-.22c-.69-1-1.27-1.87-1.79-2.7A58.64,58.64,0,0,1,63.31,128a68.55,68.55,0,0,1,3.21-20.23c2.27-7.35,3.82-19.2,3.89-19.7l.13-1,.15-1.15,1.14-.18,1-.17h0a12.37,12.37,0,0,1,5.95,1l.15.06.08-.14c2.11-3.92,9-17.17,9-23a5.92,5.92,0,0,1,2.69-5.31c3.85-2.41,10-.28,18.06,3.65l.1,0,.11.06.09-.09c1.12-1,3.69-4,8.31-12.4l1.25-2.26L120,44.74l1.35,2.45,1.25,2.26h0c4.62,8.36,7.19,11.36,8.3,12.4l.09.09.2-.1c8.07-3.93,14.23-6.06,18.08-3.65A5.92,5.92,0,0,1,152,63.5c0,5.83,6.89,19.08,9,23l.08.14.15-.06a12.35,12.35,0,0,1,5.94-1l1,.17,1.14.18.15,1.15.13,1c.06.5,1.61,12.34,3.89,19.7,5.77,18.67,3.77,36-6,51.64-.51.83-1.09,1.71-1.78,2.7l-.16.22.27.06a48.5,48.5,0,0,0,20.26-.11,1.87,1.87,0,0,1,2.43,1.11C189.1,165.05,187.77,165.63,186.36,166.24Z"/><path class="cls-1" d="M172,108.26c-2.32-7.48-3.88-19.45-3.94-20l-.14-1.06-1-.17c-1.67-.27-4.62.57-6.51,1.56-2.13-3.85-10-18.52-10-25.14a4.39,4.39,0,0,0-2-4c-3.44-2.15-10,.52-16.58,3.73,0,0-.7.34-1,.49-.62-.31-3.34-2.22-9.58-13.52L120,47.94l-1.25,2.26c-6.24,11.3-9,13.21-9.58,13.52l-1-.49C101.55,60,95,57.35,91.55,59.5a4.39,4.39,0,0,0-2,4c0,6.62-7.83,21.29-10,25.14-1.9-1-4.84-1.83-6.52-1.56l-1,.17-.14,1.06c-.06.5-1.63,12.47-3.94,20A66.93,66.93,0,0,0,64.86,128a57,57,0,0,0,8.94,30.59c11.71,18.77,31.26,28.67,37.44,29.64,1.08.17,4.94,2.56,7.91,4.68l.85.65.83-.64c3-2.12,6.84-4.52,7.93-4.69,6.18-1,25.73-10.87,37.44-29.64C175.69,143.43,177.64,126.48,172,108.26Z"/><path class="cls-2" d="M170.05,108.86c-2.06-6.67-3.51-16.6-3.9-19.48L166.1,89l-.34,0c-1.77.13-4.89,1.34-5.43,2l-.56.68-.44-.76c-.45-.78-11-19.19-11-27.47,0-1.68-.78-2.15-1-2.31-2.66-1.62-9.59,1.42-14.57,3.85-1,.46-1.34.65-1.56.72-1.12.31-4-1-10.89-13.09l-.32-.56-.32.56c-6.86,12.12-9.77,13.4-10.89,13.09-.22-.07-.61-.26-1.56-.72-5-2.43-11.91-5.47-14.57-3.85-.26.16-1,.63-1,2.31,0,8.28-10.51,26.69-11,27.47l-.44.76-.57-.68c-.53-.64-3.65-1.85-5.42-2l-.34,0-.05.34c-.39,2.88-1.84,12.81-3.91,19.48a65,65,0,0,0-3,19.17,55.1,55.1,0,0,0,8.94,30c11.24,17.66,30.11,27.34,35.72,28.22,1.29.2,4.37,1.94,8.23,4.64l.21.15.21-.15c3.86-2.7,6.93-4.44,8.23-4.64,5.61-.88,24.48-10.56,35.72-28.22a55.18,55.18,0,0,0,8.94-30A64.69,64.69,0,0,0,170.05,108.86Z"/><path class="cls-3" d="M169.36,109.07a144.06,144.06,0,0,1-3.89-19.24,12.25,12.25,0,0,0-4.58,1.69L160,92.6l-.33.4-.26-.45-.7-1.22c-.45-.78-11.06-19.36-11.06-27.83,0-1.27-.51-1.58-.68-1.68-1.74-1.07-6.41.24-13.88,3.88a13.77,13.77,0,0,1-1.67.76c-2.35.66-6.08-3.56-11.41-12.88-5.33,9.32-9.06,13.54-11.41,12.88a13.56,13.56,0,0,1-1.68-.76c-7.46-3.64-12.13-5-13.87-3.88-.17.1-.68.41-.68,1.68,0,8.47-10.61,27.05-11.06,27.83l-.7,1.22-.26.45L80,92.6l-.9-1.08a12.32,12.32,0,0,0-4.59-1.69,142.16,142.16,0,0,1-3.88,19.24,64.36,64.36,0,0,0-3,19,54.42,54.42,0,0,0,8.83,29.64c11.12,17.46,29.7,27,35.22,27.89,1.89.29,5.94,3,8.33,4.62,2.39-1.66,6.44-4.33,8.33-4.62,5.52-.87,24.1-10.43,35.22-27.89A54.49,54.49,0,0,0,172.37,128,64.34,64.34,0,0,0,169.36,109.07Z"/><path class="cls-4" d="M120,57.71,118.92,60c-2.8,5-7,9.39-9.47,10a3.86,3.86,0,0,1-3.32-.76c-4.21-3.13-7.7-3.58-9.41-3.57H94.86l-.51,1.78A101.55,101.55,0,0,1,84.21,90.74c-1.73,2.89-7.39,13.91-7.39,34.17a59.86,59.86,0,0,0,3.17,20c4.77,13.54,14.71,23.29,29.52,29a40.49,40.49,0,0,1,9.78,5.51h1.42a40.69,40.69,0,0,1,9.78-5.51c14.81-5.68,24.75-15.43,29.52-29a59.86,59.86,0,0,0,3.17-20c0-20.26-5.66-31.28-7.39-34.17A102,102,0,0,1,145.65,67.4l-.5-1.78h-1.87c-1.71,0-5.2.44-9.41,3.57a3.84,3.84,0,0,1-3.32.76c-2.51-.59-6.66-5-9.47-10L120,57.71Z"/><path class="cls-2" d="M120,60.57c-2.62,4.66-7,9.8-10.26,10.58a5.15,5.15,0,0,1-4.35-1c-3.92-2.92-7.11-3.34-8.66-3.33H95.8c-.13.44-.25.89-.25.89A103.66,103.66,0,0,1,85.28,91.37c-1.7,2.83-7.22,13.6-7.22,33.54a59,59,0,0,0,3.09,19.57C85.8,157.66,95.49,167.16,110,172.7a43.57,43.57,0,0,1,9.77,5.43h.55a43.22,43.22,0,0,1,9.75-5.42c14.48-5.55,24.17-15.05,28.82-28.23a59,59,0,0,0,3.1-19.57c0-19.94-5.53-30.71-7.22-33.54a103.19,103.19,0,0,1-10.27-23.63s-.13-.45-.25-.89h-.94c-1.55,0-4.74.41-8.66,3.33a5.14,5.14,0,0,1-4.35,1c-3.28-.78-7.64-5.92-10.26-10.58Z"/><path class="cls-5" d="M120,176.72c-2.34-2.05-6.7-4-9.58-5.14-14.13-5.42-23.57-14.67-28.1-27.5a57.73,57.73,0,0,1-3-19.17c0-18.75,4.94-29.39,7-32.92a103.77,103.77,0,0,0,10.4-23.93c1.39,0,4.27.37,7.9,3.08A6.38,6.38,0,0,0,110,72.33c4.14-1,7.69-5.38,10-9.45h0c2.29,4.07,5.83,8.46,10,9.45a6.38,6.38,0,0,0,5.39-1.19c3.63-2.71,6.51-3.09,7.9-3.08A103.77,103.77,0,0,0,153.66,92c2.12,3.53,7.05,14.17,7.05,32.92a57.73,57.73,0,0,1-3,19.17c-4.53,12.83-14,22.08-28.1,27.5-2.88,1.14-7.24,3.09-9.58,5.14"/><path class="cls-2" d="M144.64,88.91a13.78,13.78,0,0,1-7.17-7.39l-1.05-.73-.79.79v65.78l-3.87,2.6V78.76a13.94,13.94,0,0,1-8-5.77L122.68,71,122,72v100.2l1.51-.95a18.21,18.21,0,0,1,8.34-3c1.49-.09,8.46-3.74,15.4-11.39,5.25-5.79,10.57-18,10.57-30.28l0-1.59c0-25-8.55-32.15-8.55-32.15l-.48.85v45.41l-4.06,2.59Z"/><path class="cls-3" d="M156.49,125c0-17.32-4.2-25.88-6.55-29.32v44.08l-6.54,4.18V89.71a15.26,15.26,0,0,1-6.53-6.6V148l-6.35,4.26V79.69a15.49,15.49,0,0,1-7.33-5.35v95.58a19.22,19.22,0,0,1,8.55-2.95c1.19-.11,7.88-3.64,14.54-11,5.09-5.62,10.25-17.53,10.25-29.45Zm-10.67,30.6c-6.81,7.52-13.33,10.71-14.12,10.79a18.82,18.82,0,0,0-7.89,2.49V76a16.11,16.11,0,0,0,6.09,4.1v73.32l7.59-5.1V85.28a15.48,15.48,0,0,0,5.3,4.8v55l7.77-5V97.86c2.36,4.28,5.31,12.55,5.31,27.13l0,1.55C155.91,138.3,150.84,150,145.82,155.57Z"/><path class="cls-4" d="M95.36,88.91a13.74,13.74,0,0,0,7.17-7.39l1-.73.79.79v65.78l3.88,2.6V78.76a13.94,13.94,0,0,0,8-5.77L117.33,71l.72.92v100.2l-1.5-.95a18.21,18.21,0,0,0-8.34-3c-1.49-.09-8.46-3.74-15.4-11.39-5.25-5.79-10.57-18-10.57-30.28l0-1.59c0-25,8.55-32.15,8.55-32.15l.48.85v45.41l4,2.59Z"/><path class="cls-5" d="M109.49,79.69v72.59L103.14,148V83.11a15.27,15.27,0,0,1-6.54,6.6v54.2l-6.53-4.18V95.65c-2.36,3.44-6.56,12-6.56,29.3l0,1.62c0,11.89,5.15,23.8,10.25,29.42,6.66,7.34,13.34,10.87,14.56,11a19,19,0,0,1,8.52,2.94V74.34A15.43,15.43,0,0,1,109.49,79.69Z"/><path class="cls-4" d="M141.4,116.08a2.47,2.47,0,0,0-.92-2c-.75-.46-1.65-.13-2.8.29a10.63,10.63,0,0,1-3.85.84,10.79,10.79,0,0,1-4.9-1.49c-1-.5-1.6-.83-2.18-.6a1,1,0,0,0-.59.65,1.27,1.27,0,0,0,0,.34,3.12,3.12,0,0,0,.29,1.07,3.68,3.68,0,0,1,.28,1,.37.37,0,0,1,0,.2c0,.06-.25.27-1.14.29l-1.76-.3c-4.78-1-14.4-1.69-19.08.86,0-.53-.07-1-.1-1.44l0-.38a20.54,20.54,0,0,0-.7-5.14,6.61,6.61,0,0,0-1.83-2.45c6.45-3.28,13.39-10.25,14.21-12.8v0l.15-.88v-.06a2.88,2.88,0,0,0-.86-2.09,2.94,2.94,0,0,0-3.22-.58c-2.43.86-6.91.2-7,.2l-4.65-.73.1.26.4,1-.66,0c-14-1-18.16,4.5-19.3,6.92a6.38,6.38,0,0,0,.8,7.17c2,2.09,4,1.69,5,1.26,2.54-1.1,3.39-4.49,3.39-5.86v-.19a7.37,7.37,0,0,0-.21-1.29,5.18,5.18,0,0,1,2.17-.86c-2.3,7-4.58,13.64-5.62,16.29a16.53,16.53,0,0,1-1.64-.46,25.49,25.49,0,0,1-2.47-1l-.85-.38,0,.93a10.48,10.48,0,0,1-.53,2.67,44.91,44.91,0,0,1-3.07,7.66l-.74,1.41,1.47-.61c.09,0,9.44-3.86,18.14-.78,1,6.44,3.34,10.51,6.94,12.09a8.29,8.29,0,0,0,2,.59,2.35,2.35,0,0,1,.4,1.4c0,2.22-2.42,5.14-3.7,6.37l-1.33,1.29,1.82-.31a63.07,63.07,0,0,1,21.63-.3c1.66.27,2.17.35,2.47-.14a.8.8,0,0,0-.1-.94,14.13,14.13,0,0,1-2.72-7.13c-.07-.72-.12-1.15-.55-1.35a.8.8,0,0,0-.82.13,8,8,0,0,1-2.79.77c.12-.41,1.45-5.24,1.45-5.24,1-3.6,1.73-6.24,2-7.31,3.1.45,7.6.81,11.53-1C138.21,122.61,141.68,118.58,141.4,116.08ZM106.82,127v-.25a3.73,3.73,0,0,1,1-2.35c.51-.61,2.67-2.46,8.75-1l-1,2.9a4,4,0,0,0-4.71-.07,15.79,15.79,0,0,0-1.57,1.52,2.26,2.26,0,0,1-1.86.13,2,2,0,0,1-.52-.46C106.86,127.25,106.84,127.1,106.82,127Zm-4.47-29.91.36-1.06a5.19,5.19,0,0,1,.19,1.19v.16a4.21,4.21,0,0,1-1.58,2.72Zm8.75,40c.31-.12.61-.24.9-.37-.09.27-.16.46-.17.5A7.18,7.18,0,0,1,111.1,137.06Z"/><path class="cls-1" d="M140.84,116.14c-.41-3.65-2.9-.29-7-.35s-6.65-3.17-7.12-1.82c-.26.77,2.07,3.24-1.23,3.29l-1.82-.3c-4.33-.88-14-2.3-19.47,1.45-.08-.94-.14-1.81-.19-2.56a22.16,22.16,0,0,0-.68-5.36,7.72,7.72,0,0,0-2.3-2.79c6.7-3.13,13.91-10.51,14.66-12.84l.14-.79h0a2.28,2.28,0,0,0-.69-1.68,2.4,2.4,0,0,0-2.63-.45c-2.6.92-7.19.23-7.24.22l-3.65-.57.2.49.2.49.07.17-1.58-.11c-13.66-1-17.65,4.28-18.74,6.59a5.79,5.79,0,0,0,.7,6.53,3.66,3.66,0,0,0,4.31,1.14c2.15-.94,3-3.94,3-5.34v-.18a6.1,6.1,0,0,0-.24-1.37.77.77,0,0,1,.18-.32,7,7,0,0,1,3.44-1.21c-2.48,7.59-5.07,15.12-6.11,17.66a10.08,10.08,0,0,1-2.18-.55c-1.24-.41-2.53-1-2.53-1a10.15,10.15,0,0,1-.55,2.84,45.35,45.35,0,0,1-3.11,7.78s9.74-4.09,18.87-.68c.94,6.42,3.18,10.47,6.66,12a8.1,8.1,0,0,0,2.08.58c2.58,3.17-3.21,8.72-3.21,8.72,17.23-2.92,24.74,1.12,23.62-.49-3.78-5.41-2.3-8.91-3.29-8.21s-3.89,1-3.89,1c.08-.37,3.7-13.32,3.81-13.85,3,.47,7.77.94,11.73-.84C137.85,122.14,141.08,118.36,140.84,116.14Zm-43.79,0a4.47,4.47,0,0,1-1.33.33c0-.11,1-3.15,1.26-4.23a2.86,2.86,0,0,1,.15.69S97.07,115.43,97.05,116.16Zm5.65-21.87c.14.36.29.72.29.72a7.26,7.26,0,0,1,.48,2.19v.18c-.12,1.82-1.73,3.29-3.3,4.31C100.57,100.5,102.31,95.41,102.7,94.29Zm6.18,42.76a12.09,12.09,0,0,0,4.12-1.51c-.44,1.28-.74,2.15-.76,2.23A12.25,12.25,0,0,1,108.88,137.05Zm7-9.81c-1.24-1.18-3.31-1.68-4.64-.58a16,16,0,0,0-1.62,1.58c-1.61.63-2.26.25-2.47.12a2.43,2.43,0,0,1-.75-.72,4.23,4.23,0,0,1-.12-.6,4.14,4.14,0,0,1,1.12-3c1-1.2,3.84-2.67,9.93-1C117.23,123.2,116.62,125,115.85,127.24Z"/><path class="cls-3" d="M140.06,116.23c-.1-.86-.29-1-.29-1-.19-.12-1.05.2-1.62.41a11.72,11.72,0,0,1-4.34.92,12.14,12.14,0,0,1-5.5-1.64l-.7-.35,0,.12a4.36,4.36,0,0,1,.38,1.51,1.66,1.66,0,0,1-.28.94,2.59,2.59,0,0,1-2.28.89h-.07l-1.9-.31h0c-4.26-.86-14.72-2.41-19.74,2l-.2.18c-.14-1.31-.25-2.67-.34-4l0-.38a20.78,20.78,0,0,0-.61-4.76,6.41,6.41,0,0,0-1.87-2.28l-1.09-1,1.06-.49c6.69-3.12,13.55-10.38,14.23-12.33,0-.1.09-.51.11-.63a1.5,1.5,0,0,0-.44-1.09,1.65,1.65,0,0,0-1.83-.28c-2.8,1-7.57.27-7.62.26l-2.29-.36a.94.94,0,0,0,.06.15l.36.9h0l.45,1.11a7.88,7.88,0,0,1,.54,2.48v.24c-.12,1.76-1.35,3.41-3.65,4.9l-1.9,1.23s3.38-9.85,3.44-10H102l-1.58-.11c-13.17-1-17,4-18,6.14A5,5,0,0,0,83,105.2c1.38,1.43,2.63,1.31,3.44,1,1.8-.78,2.58-3.44,2.58-4.62v-.14a5.4,5.4,0,0,0-.21-1.19l-.07-.23.08-.23a1.58,1.58,0,0,1,.38-.64,7.84,7.84,0,0,1,3.86-1.42l1.25-.2-.39,1.21c-2.55,7.8-5.12,15.25-6.12,17.72l-.22.53-.57,0a10.6,10.6,0,0,1-2.36-.59c-.58-.19-1.16-.42-1.63-.61a17.27,17.27,0,0,1-.46,1.93,42.65,42.65,0,0,1-2.33,6.2c3.31-1,10.57-2.67,17.61,0l.43.16.07.46c.9,6.14,3,10,6.21,11.39,3.71,1.64,7.87-.42,10-2.34L113,138l-.15.47-.49.07a12.38,12.38,0,0,1-3.9-.8l-1-.29a3.87,3.87,0,0,1,.33,1.57h0c0,2-1.43,4.22-2.61,5.68a62.57,62.57,0,0,1,19.88,0l.42.07a15.13,15.13,0,0,1-2.31-6.68,13.76,13.76,0,0,1-3.54.72l-1,.07.2-1c0-.18.51-1.91,1.68-6.11.92-3.31,2.06-7.43,2.13-7.74l.15-.72.73.1c3,.47,7.55.9,11.28-.78C137.33,121.52,140.25,118,140.06,116.23Zm-42.24.42-.42.21a5.07,5.07,0,0,1-1.58.4l-1.19.15.34-1.13.16-.53c.28-.93.87-2.88,1.1-3.7l.69-2.49.8,2.46a3.36,3.36,0,0,1,.19.93S97.82,116.65,97.82,116.65ZM118,123.21c-.09.28-.94,2.78-2,5.72a3.22,3.22,0,0,0-.61-1c-.94-1-2.72-1.59-3.77-.71a15.17,15.17,0,0,0-1.54,1.49l-.12.13-.17.07a3.5,3.5,0,0,1-3.16.07,3.54,3.54,0,0,1-1.08-1.07,5.52,5.52,0,0,1-.16-.84,2.55,2.55,0,0,1,0-.39,5.09,5.09,0,0,1,1.32-3.23c.86-1,3.63-3.18,10.72-1.28l.79.21Z"/><path class="cls-2" d="M132.44,117.21a9.63,9.63,0,0,1-3.06-.85s1.43,2.83-2.84,2.88c-4,0-20.46-5.09-23.89,4-.85-4.84-.7-10.58-1.32-12.32-1.49-4.21-7.82-3.62-3.85-4.21,6.76-1,18.22-13.69,15-12.56a14.64,14.64,0,0,1-7,.29,5.81,5.81,0,0,1,.61,2.85c-.39,5.64-9.57,8.1-9.57,8.1l3.56-10.59C83.73,93.64,81.83,101.67,84.3,104c2,1.95,3.48-1.62,3.41-2.82s-.33-1.27-.33-1.27c.08-4.26,8.77-4.07,8.77-4.07s-6.53,21.25-7.49,22.21c-.74.74-4.49-.47-4.49-.47l-1.81,4.55c7-2,15.45.09,15.45.09,0-.41-.14-1-.19-2.44a6.53,6.53,0,0,1,0-1.93,12.24,12.24,0,0,1-4.6.36l2.77-9.84a4.45,4.45,0,0,1,3.41,4.35C98,141.52,110.86,135,113.89,132c2.83-2.82-.52-4.65-1.34-4a12.59,12.59,0,0,0-1.74,1.73c-2.79,1.44-4.67.95-6-.6l-.12-.15-.09-.12c-.27-.52-1.66-4.31,2.33-7.28,3.39-2.52,10.68-.91,12.68-.46l-6.31,18.2.13,0c-3.71-.25-4.57-.71-4.57-.71a5.61,5.61,0,0,1-1.68,4.77c11.3-1.63,16.5.51,16.17-.11-1.73-3.2-.66-4.6-1.29-4.24s-4.75.37-4.75.37l5-17.72s13,3.83,16.47-4.77C139.28,115.79,136.47,117.79,132.44,117.21Z"/><path class="cls-1" d="M84,143a4.33,4.33,0,0,1,.36-.4l.67-.65c.41-.38.82-.78,1.21-1.19a2.22,2.22,0,0,0,.66-1.59,1.59,1.59,0,0,0-.58-1.23,2.36,2.36,0,0,0-1.56-.5,2.11,2.11,0,0,0-1.4.5,2.25,2.25,0,0,0-.7,1.77v.12H83.9v-.12a1.49,1.49,0,0,1,.42-1.18.69.69,0,0,1,.49-.19.75.75,0,0,1,.53.19.8.8,0,0,1,.3.64,1.79,1.79,0,0,1-.68,1.3c-.44.43-1,1-1.71,1.63a2.71,2.71,0,0,0-.75,1.06h0v.73H87V143H84Z"/><path class="cls-1" d="M91.92,137.91a2.52,2.52,0,0,0-3.12,0,3,3,0,0,0-.88,2.38V141a3,3,0,0,0,.88,2.35,2.52,2.52,0,0,0,3.12,0,3,3,0,0,0,.87-2.35v-.73A3,3,0,0,0,91.92,137.91ZM90.36,143a.93.93,0,0,1-.62-.25,2.21,2.21,0,0,1-.55-1.7v-.83a2.18,2.18,0,0,1,.51-1.69,1,1,0,0,1,1.31,0,2.18,2.18,0,0,1,.51,1.69v.83a2.2,2.2,0,0,1-.51,1.7A1,1,0,0,1,90.36,143Z"/><path class="cls-1" d="M97.77,137.91a2.52,2.52,0,0,0-3.12,0,3,3,0,0,0-.87,2.38V141a3,3,0,0,0,.87,2.35,2.52,2.52,0,0,0,3.12,0,3,3,0,0,0,.87-2.35v-.73A3,3,0,0,0,97.77,137.91ZM96.21,143a.93.93,0,0,1-.62-.25,2.21,2.21,0,0,1-.54-1.7v-.83a2.23,2.23,0,0,1,.5-1.69,1,1,0,0,1,.66-.26,1,1,0,0,1,.65.26,2.18,2.18,0,0,1,.51,1.69v.83a2.2,2.2,0,0,1-.51,1.7A1,1,0,0,1,96.21,143Z"/><path class="cls-1" d="M103.7,140.91a1.75,1.75,0,0,0-.55-.33,1.27,1.27,0,0,0,.34-.2,1.44,1.44,0,0,0,.54-1.13,1.66,1.66,0,0,0-.58-1.34,2.25,2.25,0,0,0-1.51-.5,2.19,2.19,0,0,0-1.48.46,1.76,1.76,0,0,0-.62,1.38,1.33,1.33,0,0,0,.49,1.05,1.76,1.76,0,0,0,.4.27,1.72,1.72,0,0,0-.56.34,1.54,1.54,0,0,0-.54,1.23,1.69,1.69,0,0,0,.62,1.31,3.09,3.09,0,0,0,3.37,0,1.69,1.69,0,0,0,.62-1.31A1.54,1.54,0,0,0,103.7,140.91Zm-2.38-2.41a1,1,0,0,1,1.23,0,.93.93,0,0,1,.3.75,1,1,0,0,1-.3.76,1,1,0,0,1-.66.18.83.83,0,0,1-.57-.22.89.89,0,0,1-.3-.72A.93.93,0,0,1,101.32,138.5Zm1.35,4.32a1.17,1.17,0,0,1-1.47,0,1.1,1.1,0,0,1,0-1.54,1.17,1.17,0,0,1,.79-.26,1.06,1.06,0,0,1,.73.22,1,1,0,0,1,.34.79A1,1,0,0,1,102.67,142.82Z"/><path class="cls-1" d="M187.5,163.79c-.11-.3-.39-.61-1.11-.41-.15,0-15.24,4-30.34-3-14.23-6.66-35.83-7-36-7s-21.83.33-36.06,7c-15.1,7.06-30.19,3.08-30.34,3-.72-.2-1,.11-1.11.41-.23.67.12.82,1.58,1.45,2.87,1.26,11.6,5.07,13.16,8.19,2.92,5.82,24.66-4.53,27.13-5.73,5.41-2.62,12.3-5.43,25.63-5.43s20.22,2.81,25.63,5.43c2.47,1.2,24.21,11.55,27.13,5.73,1.56-3.12,10.29-6.93,13.16-8.19C187.38,164.61,187.73,164.46,187.5,163.79Z"/><path class="cls-4" d="M171.47,172.78c-1.62,3.21-16-1.91-25.21-6.38-5.55-2.7-12.62-5.58-26.26-5.58s-20.71,2.88-26.26,5.58c-9.21,4.47-23.59,9.59-25.2,6.38-1.24-2.47-5.54-5-10-7.12a49.71,49.71,0,0,0,26.06-4c14-6.52,35.23-6.85,35.45-6.85s21.48.33,35.43,6.85a49.71,49.71,0,0,0,26.06,4C177,167.81,172.7,170.31,171.47,172.78Z"/><path class="cls-1" d="M88.44,166.23c-10.46,10-21.88,7.11-24.06,6.44l.14.06c-1.9-.95-2.59-1.14-3.45-.63l-.47.27-.44.26v1a1.94,1.94,0,0,0,1.15,1.74,12,12,0,0,0,1.78.71l-.13-.06c4.14,2.08,8.92,5.7,9.89,9.66a5.27,5.27,0,0,0,3.86,4c6.27,1.67,18.09-5.91,22.67-10.44,5.58-5.52,11-8.94,20.63-8.94s15.05,3.42,20.63,8.94c4.58,4.53,16.41,12.11,22.67,10.44a5.27,5.27,0,0,0,3.86-4c1-4,5.75-7.58,9.89-9.66l-.13.06a12,12,0,0,0,1.78-.71,1.94,1.94,0,0,0,1.15-1.73v-1l-.45-.27-.46-.27c-.87-.51-1.56-.32-3.46.63l.14-.06c-2.18.67-13.6,3.51-24.06-6.44-12.46-11.86-30.74-12.42-31.52-12.44S100.93,154.35,88.44,166.23Z"/><path class="cls-2" d="M89.46,167.25h0c-11.07,10.53-23.18,7.5-25.56,6.77-1.78-.89-1.92-.8-2.09-.7l-.2.12v.24c0,.27.22.38.41.49a9.58,9.58,0,0,0,1.58.62c2.18,1.09,9.29,5,10.66,10.6A3.75,3.75,0,0,0,77,188.32c5.38,1.52,16.86-5.64,21.31-10s10.41-9.36,21.67-9.36,17.09,4.83,21.67,9.36,15.93,11.56,21.31,10a3.75,3.75,0,0,0,2.76-2.93c1.37-5.57,8.48-9.51,10.66-10.6a9.58,9.58,0,0,0,1.58-.62c.19-.11.41-.22.41-.49v-.23l-.2-.13c-.17-.1-.31-.19-2.09.7-2.38.73-14.49,3.76-25.56-6.77-12-11.46-30.35-12-30.53-12S101.51,155.79,89.46,167.25Z"/><path class="cls-3" d="M89.89,167.7h0c-9.7,9.22-20.2,8.26-24.53,7.33,3,1.72,8.3,5.34,9.5,10.21a3.15,3.15,0,0,0,2.33,2.49c5.08,1.43,16.46-5.69,20.71-9.89,4.67-4.62,10.61-9.54,22.1-9.54s17.43,4.92,22.1,9.54c4.25,4.2,15.63,11.32,20.71,9.89a3.15,3.15,0,0,0,2.33-2.49c1.2-4.87,6.49-8.5,9.5-10.21-4.32.93-14.83,1.9-24.53-7.33-11.84-11.27-29.93-11.86-30.12-11.87S101.76,156.4,89.89,167.7Z"/><path class="cls-6" d="M87.3,181.67l-.07-.12-.12.08c-.1.06-.21.13-.53-.07l-3.31-2,.16-2.55a.74.74,0,0,1,.32-.69l.14-.08.11-.07-.07-.11-.16-.28-.07-.12-.12.07-1.55,1-.12.06.07.12.16.28.07.12.12-.07.29-.18a.19.19,0,0,1,.13,0l0,0a.31.31,0,0,1,0,.2s-.13,2.17-.18,3.13l-1.3-2.21c-.15-.26-.11-.28.18-.46l.11-.07-.07-.11-.16-.28-.07-.12-.12.07-1.49.93-.11.07.06.11.17.28.07.12.12-.07c.13-.08.24-.15.3-.14s.08,0,.16.18l2.88,4.94c.16.26.13.28-.17.46l-.11.07.06.12.16.27.07.12.12-.07,1.49-.93.11-.07-.07-.11-.16-.27-.07-.12-.11.07c-.13.08-.24.15-.3.13s-.08,0-.17-.19l-1.06-1.83,0-.55,2.38,1.47a.33.33,0,0,1,.14.13.15.15,0,0,1,0,.23l-.18.11-.11.07.07.12.16.27.07.12.12-.07,1.6-1,.11-.07-.06-.11Z"/><path class="cls-6" d="M92.32,177.9l-.09-.11-.11.09c-.19.17-.25.22-.46,0l-5.2-4.33-.11-.09-.09.11-.42.55,0,.06,0,.08,2.94,6.18c.09.19,0,.26-.15.41l-.1.09.08.1.2.24.09.11.1-.09,1.17-1,.1-.08-.09-.11-.19-.24-.09-.11-.11.09-.22.19a.22.22,0,0,1-.18.06.19.19,0,0,1-.14-.08.8.8,0,0,1-.14-.24l-.64-1.35,1.11-1,1.07.9.08.07a1.23,1.23,0,0,1,.2.19c.06.06.1.16,0,.22l-.15.12-.1.09.09.1.19.25.09.11.11-.09,1.32-1.14.1-.08-.09-.1ZM87,175.36l2.13,1.77-.91.79Z"/><path class="cls-6" d="M95.94,174.61l-.09-.11-.1.09-.24.2a.33.33,0,0,1-.25.11.49.49,0,0,1-.28-.21l-3.47-4.27a.34.34,0,0,1,0-.48l.16-.13c.17-.15.69-.12,1.62.41l.12.07.06-.12.15-.28,0-.11-.1-.07-1.45-1-.09,0-.07.06-2.86,2.46-.07.06,0,.09.65,1.64.05.12.12,0,.29-.09.12,0,0-.13v0a3.13,3.13,0,0,1-.24-1.26c0-.34.1-.39.14-.43l.16-.13a.26.26,0,0,1,.19-.07.42.42,0,0,1,.25.15l3.47,4.28c.22.28.17.42,0,.57l-.24.2-.1.09.08.1.2.24.09.11.1-.09L96.12,175l.1-.09-.08-.1Z"/><path class="cls-6" d="M101.32,170.51l-.07-.12-.12.08c-.21.14-.27.18-.46,0l-4.65-5-.1-.1-.1.1-.48.48-.06.06,0,.08,2.19,6.52c.07.2,0,.26-.19.38l-.11.08.07.11.16.27.08.11.11-.07,1.27-.84.11-.08-.07-.11-.16-.27-.08-.11-.11.07-.25.16a.26.26,0,0,1-.18,0,.21.21,0,0,1-.13-.1,1,1,0,0,1-.11-.26l-.48-1.42,1.21-.81,1,1,.07.08a1.74,1.74,0,0,1,.18.22c.07.1.07.17,0,.21l-.17.11-.11.08.07.11.17.27.07.11.12-.07,1.44-1,.11-.07-.07-.11Zm-5-3.2,1.91,2-1,.66Z"/><path class="cls-6" d="M106.23,166.23l0-.13-.13,0-.25,0h-.12v.13a2.49,2.49,0,0,1-.11,1.1,1.94,1.94,0,0,1-1,1.21l-.38.19a.39.39,0,0,1-.29,0,.53.53,0,0,1-.26-.3l-2.34-5.05c-.12-.27-.1-.28.22-.44l.12,0-.06-.12-.13-.3-.06-.13-.13.06-1.57.78-.12.05.06.12.13.3.06.13.13-.06c.13-.07.25-.13.31-.11s.08,0,.15.2l2.41,5.21c.13.27.11.29-.21.44l-.12.06,0,.12.14.29.06.13.12-.06,3.6-1.78.09,0v-.1Z"/><path class="cls-6" d="M111.63,164.38h-.13v.12a2.55,2.55,0,0,1-.3,1.07,1.88,1.88,0,0,1-1.21,1l-.41.12a.43.43,0,0,1-.3,0,.6.6,0,0,1-.2-.35l-1.41-5.4c-.08-.29,0-.29.29-.39l.13,0,0-.13-.09-.32,0-.13-.14,0-1.68.47-.13,0,0,.13.08.31,0,.14.14,0c.15,0,.27-.08.32-.05s.07.07.11.23l1.46,5.57c.08.29,0,.3-.29.4l-.13,0,0,.13.08.31,0,.13.14,0,3.85-1.07.1,0v-.1l0-2v-.13h-.13Z"/><path class="cls-6" d="M117.75,163.67l-.13,0,0,.13a2.49,2.49,0,0,1-.42,1.07,1.74,1.74,0,0,1-1.24.77l-.68.08a.29.29,0,0,1-.2,0,.33.33,0,0,1-.1-.23l-.3-2.76,1.15-.14a.44.44,0,0,1,.29.08.45.45,0,0,1,.16.3l.08.73,0,.13h.13l.31,0h.14l0-.14-.31-2.83,0-.14-.13,0-.31,0-.13,0v.13l.08.7a.39.39,0,0,1-.36.44l-1.16.14-.26-2.38c0-.22,0-.31.24-.33l.91-.1a1.5,1.5,0,0,1,1.54,1.08l.07.14.13-.09.26-.17.08-.06,0-.1-.52-1.48,0-.1h-.11l-4,.46-.14,0,0,.13,0,.33,0,.14.13,0c.16,0,.29,0,.33,0s.06.07.08.24l.63,5.73c0,.3,0,.31-.34.35h-.14l0,.14,0,.31,0,.14.13,0,4.15-.48H118v-.11l.18-2v-.12l-.11,0Z"/><path class="cls-6" d="M123.7,165.26l-.94-2.85a1.83,1.83,0,0,0,1.38-1.8,2.07,2.07,0,0,0-2.25-2.08l-2.13-.05h-.14v.6h.13c.13,0,.25,0,.29,0a.4.4,0,0,1,0,.26l-.12,5.77a.41.41,0,0,1-.06.26s-.15,0-.29,0h-.13V166h.14l1.7,0h.14v-.59h-.13c-.3,0-.35,0-.34-.31,0,0,0-2.11,0-2.67l.75,0,1.07,3.49,0,.1h.1l1.14,0h.14v-.59h-.13C123.91,165.54,123.79,165.54,123.7,165.26Zm-2.61-5.86c0-.27.06-.29.24-.29l.54,0c.81,0,1.2.48,1.18,1.39a1.57,1.57,0,0,1-.4,1.12,1.09,1.09,0,0,1-.81.29l-.8,0Z"/><path class="cls-6" d="M132,160.2l-.1,0-.06.08-1,1.44-.06.1.09.08.23.2.1.09.09-.1h0a3.2,3.2,0,0,1,.93-.9c.28-.15.36-.12.41-.11l.2.07a.33.33,0,0,1,.17.44l-1.65,5.3a.51.51,0,0,1-.2.31.34.34,0,0,1-.26,0l-.3-.1-.13,0,0,.13-.09.31,0,.12.12,0,2.2.73.13,0,0-.13.1-.3,0-.13-.13,0-.3-.1c-.21-.07-.31-.18-.2-.52l1.65-5.3a.39.39,0,0,1,.18-.24.27.27,0,0,1,.2,0l.2.07c.21.07.46.53.53,1.63v.14h.13l.3,0h.13v-2l-.09,0Z"/><path class="cls-6" d="M140,163.24a1.69,1.69,0,0,0-1.37-.1,5.15,5.15,0,0,0-2.31,2.5c-.41.86-1.6,3.76.29,4.72a1.7,1.7,0,0,0,1.38.08,4.68,4.68,0,0,0,2.35-2.62C141.4,165.62,141.27,163.87,140,163.24Zm-2.76,3c.69-1.44,1.41-2.37,2-2.57a.65.65,0,0,1,.53,0c.67.34.52,1.66-.4,3.62-.68,1.43-1.41,2.37-2,2.57a.67.67,0,0,1-.52,0C136.19,169.53,136.34,168.22,137.26,166.26Z"/><path class="cls-6" d="M142.67,173.18c-.25-.18-.27-.37-.07-.67l1.09-1.65,2.83-2.27a.45.45,0,0,1,.61,0l.11.08.08-.12.18-.27.07-.11-.11-.08-1.16-.81-.11-.08-.08.11-.18.28-.07.11.11.07c.22.16.24.24.18.32a.66.66,0,0,1-.18.19L143.92,170l.57-2.74a.54.54,0,0,1,.08-.25s.05,0,.05,0,.23.09.31.14l.11.08.08-.12.18-.27.07-.11-.11-.07-1.54-1.09-.12-.08-.07.12-.18.27-.08.11.11.07c.16.12.3.22.18.82,0,0-.68,3.28-.74,3.59l-1,1.56c-.11.17-.21.26-.32.28a.34.34,0,0,1-.28-.09l-.39-.27-.11-.08-.08.12-.17.26-.07.11.1.07,2.21,1.55.11.08.08-.11.17-.27.07-.11-.1-.07Z"/><path class="cls-6" d="M147.76,177.25l3.47-5.9.07-.11-.11-.07-.58-.36-.08,0-.07,0-5.56,3.84c-.16.11-.23.06-.4-.1l-.1-.1-.09.11-.21.23-.09.1.1.09,1.11,1,.1.1.09-.11.21-.23.09-.1-.1-.09-.21-.2a.24.24,0,0,1,0-.34.71.71,0,0,1,.21-.17l1.21-.84,1.07,1-.73,1.23,0,.07a1.21,1.21,0,0,1-.17.25c-.05,0-.1.09-.13.09a.08.08,0,0,1-.06,0l-.15-.14-.1-.09-.09.1-.21.24-.09.1.1.09,1.26,1.19.1.1.1-.11.21-.23.08-.1-.09-.09C147.67,177.55,147.62,177.5,147.76,177.25Zm.41-2.7-.87-.83,2.29-1.59Z"/><path class="cls-6" d="M153.09,181.58l3.33-4.63c.1-.14.16-.17.19-.17s.13.05.21.11l.11.09.08-.12.19-.26.08-.11-.1-.08-1.1-.84-.09-.07-.09.08-3.07,2.89h0l1.85-3.83,0-.1-.08-.07-1.14-.87-.11-.08-.08.11-.19.27-.08.1.11.08c.22.17.26.2.09.44l-3.33,4.63c-.1.13-.16.17-.19.17s-.14,0-.24-.12l-.11-.09-.08.11-.19.26-.08.11.11.08,1.07.81.11.09.08-.12.18-.25.08-.11-.1-.08-.16-.12c-.15-.11-.17-.18,0-.39l2.64-3.67-2.36,4.87,0,.1.09.07.14.11.1.07L151,181l4-3.77L152.3,181a.36.36,0,0,1-.19.16c-.07,0-.18-.07-.31-.17l-.11-.09-.08.12-.19.25-.07.11.1.08,1.36,1,.11.08.08-.11.18-.26.08-.11-.11-.07C153,181.86,152.92,181.82,153.09,181.58Z"/><path class="cls-6" d="M160.34,178l0-.13-.13,0-.65-.15-.09,0-.05.07-4.13,5.42c-.12.16-.2.14-.41,0l-.13-.06-.05.13-.13.29,0,.12.12,0,1.37.65.13.06.05-.13.13-.29.05-.12-.12-.06-.26-.12a.24.24,0,0,1-.12-.32,1,1,0,0,1,.15-.23L157,182l1.31.61-.32,1.4,0,.09a1.15,1.15,0,0,1-.08.28c0,.07-.07.12-.11.13a.07.07,0,0,1-.06,0l-.18-.08-.12-.06-.06.13-.13.29-.05.12.12.05,1.56.73.13.06.05-.12.13-.29.06-.13-.13-.05c-.23-.11-.29-.14-.23-.42ZM159,179.27,158.4,182l-1.08-.5Z"/></svg>
