<svg id="Layer_1" data-name="Layer 1" width="240" height="240" xmlns="http://www.w3.org/2000/svg" viewBox="0 0 240 240"><defs><style>.cls-1{fill:#fff;}.cls-2{fill:#2b2371;}.cls-3{fill:#ffef42;}</style></defs><polygon class="cls-1" points="53.79 161.88 53.79 78.12 120 36.09 186.21 78.12 186.21 161.88 120 203.91 53.79 161.88"/><polygon class="cls-2" points="120 38.14 55.52 79.07 55.52 160.97 120 201.91 184.48 160.97 184.48 79.07 120 38.14"/><polygon class="cls-1" points="179.11 158.02 120 195.54 60.89 158.02 60.89 82.02 120 44.5 179.11 82.02 179.11 158.02"/><path class="cls-2" d="M97.19,106.54l.08-.09-3.06-2.15L72.05,124.19l17.56-7a.91.91,0,0,0,0-.16l-2-2.69Z"/><path class="cls-2" d="M109.41,113.81l17.31-15.19L124,96.11l2.17-7.92L92.76,124.56c15.24-5,34.1-13.91,34.1-13.91h-.06Z"/><path class="cls-2" d="M158.55,112.11l.14-.13,1.44-5.4-28.6,19.19L150.89,122l-2.6-4Z"/><polygon class="cls-2" points="174.82 119.01 160.74 103.71 148.15 111.44 127.68 83.44 104.28 106.48 94.75 101.12 65.18 124.98 65.18 84.38 75.04 78.12 75.04 111.59 85.14 103.44 85.14 71.71 94.99 65.45 94.99 96.4 103.58 101.23 105.09 99.75 105.09 59.04 114.95 52.79 114.95 90.04 125.05 80.1 125.05 52.78 134.91 59.04 134.91 86.16 145.01 99.97 145.01 65.45 154.87 71.71 154.87 102.36 161.5 98.29 164.96 102.05 164.96 78.12 174.82 84.38 174.82 119.01"/><path class="cls-2" d="M91.46,159l-2.22-4.78h1.89l.61,1.64.6,1.65h0c.2-.58.4-1.09.61-1.65l.62-1.64h1.85L93.23,159v2.6H91.46Z"/><path class="cls-2" d="M98.71,154.24h2.12l2.29,7.38h-1.86l-.43-1.69H98.65l-.42,1.69H96.42Zm.28,4.32h1.51l-.16-.62c-.2-.74-.39-1.62-.59-2.37h0c-.17.77-.37,1.63-.56,2.37Z"/><path class="cls-2" d="M120.9,161.62h-1.81l-.42-1.69h-2.18l-.43,1.69H114.2l2.29-7.38h2.12Zm-2.73-3.68c-.19-.74-.38-1.6-.56-2.37h0c-.2.75-.39,1.63-.59,2.37l-.16.62h1.51Z"/><path class="cls-2" d="M105.2,154.24h1.91l1.17,3.19c.15.43.27.89.41,1.34h0c.14-.45.26-.91.4-1.34l1.13-3.19h1.93v7.38h-1.62V159.1a21.75,21.75,0,0,1,.24-2.56h0l-.62,1.76-1,2.7h-1l-1-2.7-.6-1.76h0a24.1,24.1,0,0,1,.23,2.56v2.52H105.2Z"/><path class="cls-2" d="M122.26,158a3.58,3.58,0,0,1,3.63-3.86,3.25,3.25,0,0,1,2.36,1l-.93,1.13a1.93,1.93,0,0,0-1.37-.58c-1.09,0-1.88.86-1.88,2.3s.66,2.32,2,2.32a1.25,1.25,0,0,0,.69-.19v-1.19h-1.17v-1.45h2.75v3.45a3.64,3.64,0,0,1-2.46.9A3.48,3.48,0,0,1,122.26,158Z"/><path class="cls-2" d="M132.42,154.24h2.13l2.29,7.38H135l-.42-1.69h-2.19l-.42,1.69h-1.81Zm.28,4.32h1.51l-.16-.62c-.2-.74-.39-1.62-.58-2.37h0c-.18.77-.38,1.63-.57,2.37Z"/><path class="cls-2" d="M139.78,155.71h-2v-1.47h5.77v1.47h-2v5.91h-1.78Z"/><path class="cls-2" d="M146.68,154.24h2.12l2.29,7.38h-1.86l-.43-1.69h-2.18l-.43,1.69h-1.8Zm.28,4.32h1.51l-.16-.62c-.2-.74-.39-1.62-.59-2.37h0c-.18.77-.37,1.63-.56,2.37Z"/><path class="cls-2" d="M101.13,150.49l3.61-11.79H93.23l-3.61,11.79Zm-6-2.31L97.31,141h1.94l-2.2,7.18Z"/><path class="cls-2" d="M172.62,150.49l3.61-11.79h-11.5l-3.62,11.79Zm-6-2.31,2.2-7.18h1.95l-2.21,7.18Z"/><polygon class="cls-2" points="115.53 150.49 119.15 138.7 114.37 138.7 112.53 144.71 111.97 138.7 107.19 138.7 103.57 150.49 108.36 150.49 110.19 144.49 110.75 150.49 115.53 150.49"/><polygon class="cls-2" points="130.91 134.1 127.96 134.1 129.49 129.1 124.71 129.1 123.18 134.1 120.13 134.1 119.42 136.4 122.47 136.4 118.15 150.49 122.93 150.49 127.25 136.4 130.2 136.4 130.91 134.1"/><path class="cls-2" d="M137.1,150.49l.7-2.31h-6.72l.7-2.3h6.73l2.2-7.18H129.2l-3.61,11.79ZM133.28,141h1.95l-.8,2.58h-1.94Z"/><path class="cls-2" d="M156.47,131.81h-4.78l-2.11,6.89h-6.73l-3.62,11.79h13.68l.7-2.31h-2.16Zm-9.8,16.37h-1.95l2.2-7.18h2Z"/><polygon class="cls-2" points="154.14 150.49 158.92 150.49 162.53 138.7 157.75 138.7 154.14 150.49"/><polygon class="cls-2" points="159.17 134.1 158.47 136.4 163.25 136.4 163.95 134.1 159.17 134.1"/><polygon class="cls-2" points="88.97 129.1 84.23 135.31 86.13 129.1 81.33 129.1 76.58 135.31 78.49 129.1 73.68 129.1 63.44 142.51 66.65 142.57 71.49 136.33 67.14 150.49 71.93 150.49 74.39 142.45 79.13 136.33 74.79 150.49 79.57 150.49 82.04 142.45 86.77 136.33 82.43 150.49 87.21 150.49 93.77 129.1 88.97 129.1"/><polygon class="cls-3" points="164.96 78.12 161.5 75.92 161.5 98.29 164.96 102.05 164.96 78.12"/><polygon class="cls-3" points="145.01 65.45 141.54 63.26 141.54 95.23 145.01 99.97 145.01 65.45"/><polygon class="cls-3" points="125.05 52.78 121.58 50.59 121.58 83.51 125.05 80.1 125.05 52.78"/><polygon class="cls-3" points="105.09 99.75 105.09 59.04 101.63 61.24 101.63 100.13 103.58 101.23 105.09 99.75"/><polygon class="cls-3" points="85.14 71.71 81.67 73.91 81.67 106.24 85.14 103.44 85.14 71.71"/></svg>
