<svg id="Layer_1" data-name="Layer 1" width="240" height="240" xmlns="http://www.w3.org/2000/svg" viewBox="0 0 240 240"><defs><style>.cls-1{fill:#fff;}.cls-2{fill:#008e5c;}.cls-3{fill:#d60f3c;}.cls-4{fill:#fd0;}</style></defs><path class="cls-1" d="M194,152.33c-.08-.07-7.63-6.32-10.73-9a113.43,113.43,0,0,0,1.35-26.72c-1.18-20.45,4.93-40.07,5-40.26l1.47-4.62c.22-.74.71-2,.71-2s-2.45-.81-4.43-1.5l-5.22-1.83-5.56-2,3-8.49.64-1.84-1.77-.83-4.08-1.91A128.7,128.7,0,0,0,121.8,39.65,128.74,128.74,0,0,0,69.28,51.34L65.2,53.25l-1.76.83.64,1.84,3,8.49L53.88,69l-2,.7.64,2,.08.24A102.82,102.82,0,0,1,56.18,85l0,.26.1.23,1.86,4.15A9.75,9.75,0,0,0,56,90.72l0,0-.3.17,0,0-.05,0L54.1,92.2l-5.37-.84-.08,0h-.07A6.31,6.31,0,0,0,42.39,101s4.3,7.51,4.3,7.51a9,9,0,0,0,5.72,3.79c.17,0,3.08.94,6.64,2.09a5.71,5.71,0,0,0-4.36,4.29c-.45,2.07.3,4.94,3.73,6.78l.37.2c.24,28.65,10.3,48.66,29.15,57.9l12.5,6c7.3,3.5,14.19,6.79,17.89,8.85l2.42,1.34,1,.59,1-.59,2.43-1.34c3.69-2.06,10.58-5.35,17.88-8.85l12.49-6c11.19-5.48,19.28-14.7,24.08-27.4h18.85Z"/><path class="cls-1" d="M180.9,144.13a109.43,109.43,0,0,0,1.53-27.42c-1.21-20.93,5-40.84,5.09-41L189,71.06,173.8,65.73l3.68-10.53-4.08-1.91a126.54,126.54,0,0,0-51.6-11.48A126.54,126.54,0,0,0,70.2,53.29L66.11,55.2l3.68,10.53-15.2,5.33A107,107,0,0,1,58.3,84.63l3.11,6.94a7.81,7.81,0,0,0-.92-.08,5.7,5.7,0,0,0-.85,0,6,6,0,0,0-2.47,1l-.18.13-2.18,1.72a4.13,4.13,0,0,1-.61,0c-.3,0-5.81-.91-5.81-.91a4.4,4.4,0,0,0-4.19,1.88,4.34,4.34,0,0,0,.06,4.54l4.3,7.53A6.9,6.9,0,0,0,53,110.2c.11,0,4,1.23,8.32,2.63q0,1.71-.12,3.42l-.62,0a3.84,3.84,0,0,0-3.78,2.83c-.13.64-.34,2.83,2.65,4.43.35.18.86.47,1.5.84,0,28.48,9.53,48.19,28,57.22l12.49,6c7.32,3.51,14.24,6.82,18,8.91l2.43,1.34,2.42-1.34c3.75-2.09,10.67-5.4,18-8.91l12.48-6c11.12-5.45,19-14.8,23.53-27.61h14.36S183.1,146.14,180.9,144.13Z"/><path class="cls-2" d="M180.9,144.13a109.43,109.43,0,0,0,1.53-27.42c-1.21-20.93,5-40.84,5.09-41L189,71.06,173.8,65.73l3.68-10.53-4.08-1.91a126.54,126.54,0,0,0-51.6-11.48A126.54,126.54,0,0,0,70.2,53.29L66.11,55.2l3.68,10.53-15.2,5.33A107,107,0,0,1,58.3,84.63l3.11,6.94a7.81,7.81,0,0,0-.92-.08,5.7,5.7,0,0,0-.85,0,6,6,0,0,0-2.47,1l-.18.13-2.18,1.72a4.13,4.13,0,0,1-.61,0c-.3,0-5.81-.91-5.81-.91a4.4,4.4,0,0,0-4.19,1.88,4.34,4.34,0,0,0,.06,4.54l4.3,7.53A6.9,6.9,0,0,0,53,110.2c.11,0,4,1.23,8.32,2.63q0,1.71-.12,3.42l-.62,0a3.84,3.84,0,0,0-3.78,2.83c-.13.64-.34,2.83,2.65,4.43.35.18.86.47,1.5.84,0,28.48,9.53,48.19,28,57.22l12.49,6c7.32,3.51,14.24,6.82,18,8.91l2.43,1.34,2.42-1.34c3.75-2.09,10.67-5.4,18-8.91l12.48-6c11.12-5.45,19-14.8,23.53-27.61h14.36S183.1,146.14,180.9,144.13Zm-3.28,9-.3.83c-4.45,12.46-12.17,21.54-23,26.85l-12.48,6c-7.34,3.52-14.26,6.84-18,8.93l-2,1.12-2-1.12c-3.78-2.09-10.71-5.41-18.05-8.93l-12.47-6c-18-8.82-27.42-28.09-27.49-56,0-.32,0-.64,0-1l-2-1.12c-2.48-1.32-2.33-3-2.22-3.51a3,3,0,0,1,3-2.18L62,117c0-.09.16-4.5.16-4.78-.28-.1-8.74-2.79-8.95-2.85A6.11,6.11,0,0,1,49.28,107L45,99.49a3.51,3.51,0,0,1-.08-3.68,3.59,3.59,0,0,1,3.42-1.5h.1l5.69.89a3.19,3.19,0,0,0,1.06-.06l.06,0,2.27-1.78,0,0,.06,0a5,5,0,0,1,2.16-.9,4.71,4.71,0,0,1,.85,0,7.25,7.25,0,0,1,1,.11c.3,0,1.23.26,1.34.29l-3.71-8.1a113.54,113.54,0,0,0-3.56-13l15.22-5.33-3.7-10.6,3.39-1.59a125.59,125.59,0,0,1,51.24-11.4A125.65,125.65,0,0,1,173,54.06l3.39,1.59-1.24,3.53-2.47,7.07,15.22,5.33-1.22,3.84a134.32,134.32,0,0,0-5.2,31.25l-.07,2.45q-.07,3.76.13,7.64a108.71,108.71,0,0,1-1.42,26.68c-.06.33-.13.65-.19,1l10.28,8.76Z"/><path class="cls-2" d="M170.31,67.4l3.76-10.76-1.84-.86A123.48,123.48,0,0,0,121.8,44.55,123.51,123.51,0,0,0,71.36,55.78l-1.84.86.67,1.91,3.1,8.85L60.08,72,58,72.76l.67,2.08c0,.08,1.18,3.75,2.41,9.57.07.35.15.71.22,1.08l2.58,1.43c-.07-.36-.13-.71-.2-1.06a118.25,118.25,0,0,0-2.88-11.71l15.33-5.37-3.84-11a122.14,122.14,0,0,1,49.49-11,122.08,122.08,0,0,1,49.48,11l-3.83,11,15.32,5.37a136.45,136.45,0,0,0-5.13,28c0,.3,0,.61-.07.92a10.93,10.93,0,0,1,2.14,1.87c0-.37,0-.75.07-1.12a136.19,136.19,0,0,1,5.13-29l.66-2.08Z"/><path class="cls-2" d="M179.69,116.87c-.09-1.64-.14-3.28-.16-4.89v-1.12a7.52,7.52,0,0,1-2.24,1.55c0,.3,0,.61,0,.91,0,1.22.07,2.44.14,3.68a110,110,0,0,1-.89,23c-.05.33-.1.67-.16,1,.63.62,1.28,1.24,1.93,1.86l.18-1A108.52,108.52,0,0,0,179.69,116.87Z"/><path class="cls-2" d="M173.25,153.16c-.1.28-.21.55-.31.83-3.7,9.57-10,18-20.43,23.13-11.7,5.74-24.73,11.72-30.71,15-6-3.33-19-9.31-30.71-15C71.42,167.48,66.38,146,66,127.38c0-.33,0-.66,0-1L63.68,125c0,.33,0,.65,0,1C64,152.49,73,170.77,90.1,179.14l12.46,6c7.36,3.53,14.32,6.86,18.15,9l1.09.61,1.09-.61c3.82-2.12,10.78-5.45,18.14-9l12.46-6c10.17-5,17.49-13.49,21.81-25.15.1-.28.2-.55.29-.83Z"/><path class="cls-2" d="M64.05,112.89c0,.28,0,.56,0,.85,0,.82-.05,1.66-.09,2.49,0,.21,0,.42,0,.64V117l2.25-.06,0-.66c0-.59.06-1.17.08-1.75,0-.27,0-.54,0-.81Z"/><path class="cls-2" d="M163.69,153.16l-.34-.24c-11.14-7.69-27.75-14.83-38.74-18.67-.67.1-1.31.21-1.9.32,4,5.14,10.83,14.43,12.1,16.58l1.18,2H120.92l-.4-.51a127.48,127.48,0,0,0-22.89-21.81l-8.7-1.21,8.16,6.47-4.57-.49-11-1.18a13.31,13.31,0,0,1-6-2.14c-1.33-.83-4.1-2.54-7-4.3l-1-.59,0,1a81.08,81.08,0,0,0,3.32,21.41c3.8,12.23,10.83,20.93,20.88,25.86l12.42,6c7,3.33,13.53,6.48,17.57,8.66,4-2.18,10.62-5.33,17.56-8.66l12.43-6c8.86-4.35,15.37-11.63,19.39-21.67l.33-.83Zm-12.32,21.65-12.42,6c-6.71,3.21-13.07,6.26-17.15,8.44-4.09-2.18-10.45-5.23-17.16-8.44l-12.42-6c-.54-.27-1.07-.55-1.6-.84a36.68,36.68,0,0,1-5.29-3.54c-6.19-5-10.72-12-13.5-20.91A79.92,79.92,0,0,1,68.58,129l6.51,4a14,14,0,0,0,6.34,2.27l18.43,2-8-6.35,5.45.76a128.78,128.78,0,0,1,21.1,19.73q.77.9,1.47,1.8l.65.82h16.93l-1.91-3.27c-.25-.42-.69-1.09-1.27-1.93-.86-1.25-2-2.89-3.33-4.67-2.18-3-4.72-6.39-6.72-9l.32,0c3.84,1.34,8.38,3.1,13.13,5.14,2.12.91,4.27,1.88,6.42,2.89a135.32,135.32,0,0,1,18.8,10.46l.55.39h6.73C166.21,163.63,159.91,170.62,151.37,174.81Z"/><path class="cls-2" d="M175.82,117.09c-.06-1.06-.1-2.11-.13-3.16,0-.29,0-.58,0-.87-.3.1-.61.2-.94.29A61.11,61.11,0,0,1,163,115c-.92.06-5.43.08-8.44.06a173.68,173.68,0,0,0,19.62,23.72l.83.83c.06-.34.11-.68.16-1A109.34,109.34,0,0,0,175.82,117.09Zm-1.54,20.65c-2.64-2.7-5.05-5.33-7.23-7.85q-2-2.29-3.73-4.43c-3-3.68-5.39-6.95-7.21-9.56,2.77,0,6.1,0,6.9-.07a62.57,62.57,0,0,0,11.74-1.61c0,1,.07,1.94.13,2.92,0,.54.05,1.07.08,1.6q.15,3.33.14,6.51A100.38,100.38,0,0,1,174.28,137.74Z"/><path class="cls-2" d="M165.37,69.78l3.88-11.11A122,122,0,0,0,121.8,48.42,122,122,0,0,0,74.34,58.67l3.88,11.11-15.39,5.4c.61,2.1,1.71,6.25,2.74,11.7.07.34.13.69.19,1.05.36.18.71.38,1.06.56,23.38,12.23,46.11,17.19,66.78,19.34-3.28-.87-5.93-2-7.25-3.45a3.55,3.55,0,0,1-1-2.62c.35-6.87,21.9-6.12,22.81-6.09,9.72.38,20.53,2.74,27,6,.31.16.62.32.91.49,0-.3,0-.59.07-.89a141,141,0,0,1,4.69-26.06Zm9.79,31c-6.93-3.39-18.12-5.6-27-5.94a83.78,83.78,0,0,0-11.75.46c-7.74.93-11.75,3.09-11.92,6.41a4.37,4.37,0,0,0,1.25,3.23,7.87,7.87,0,0,0,1.64,1.32,185.67,185.67,0,0,1-40.16-9.63,166.41,166.41,0,0,1-20.58-9.18c-1-5.17-2-9.26-2.65-11.67l15.44-5.42L75.52,59.18a121.16,121.16,0,0,1,46.28-9.81,122.21,122.21,0,0,1,36.72,6.14c3.13,1,6.33,2.26,9.55,3.67l-3.91,11.18,15.45,5.42A141.24,141.24,0,0,0,175.16,100.78Z"/><path class="cls-2" d="M68.83,114.65l-.94-.36c0,.26,0,.51,0,.77l-.06,1.19,0,.63h1c1.67,0,3.47,0,5.31,0C72.31,116.09,70.58,115.35,68.83,114.65Zm-.07,1.6c0-.28,0-.57,0-.85.84.31,1.59.6,2.21.85Z"/><path class="cls-2" d="M59.36,96.68c.81-.66,1.58-.38,2.62-.13s5.89,1.51,8.37,2.28l-2.63-5.52a211,211,0,0,0,79.45,19.93c7.89,12.55,21.69,27.3,35.39,38.59h3.95A174.75,174.75,0,0,1,152,113.7c1.21.06,9.63.06,10.85,0,12.66-.87,16.74-2.7,16.6-6.19-.17-4.4-15.72-9.87-31.38-10.48-7.46-.28-21.22.71-21.43,4.83s12.85,6.49,24,6.92c8.18.31,14.58-1.11,15-2.93s-4.39-4.33-9.61-3.8c2.05.45,3.35,1.38,3.32,2.23-.07,2.12-6.31,1.76-9.74,1.63-8.43-.3-15.63-2.4-15.52-3.89.13-1.66,5.54-2.7,13.5-2.44,16,.53,24.65,4.35,24.48,7.18s-9.45,4.15-17.71,3.84c-23.78-.91-57.9-3.82-92.7-23.38l3.79,7.57s-2.66-.76-4.07-1a3.42,3.42,0,0,0-3,.62l-2.27,1.79c-.43.46-1.68.43-2.1.38s-5.74-.9-5.74-.9c-2-.18-3.08,1.44-2.07,3.19l4.3,7.52c.78,1.29,2.59,1.58,3.75,2,9.4,3,17.39,5.37,25.77,10.19a173,173,0,0,0-19.24-.06c-2.07.15-2.7,1.9-.26,3.2s12.68,7.59,15.77,9.53a12.06,12.06,0,0,0,5.41,2l11,1.18-4-3.14c-.69-.1-5.88-.67-6.57-.75a6.9,6.9,0,0,1-3.26-1.08c-.61-.45-10.26-6.44-12.36-7.64-.81-.46-.54-.89.86-.89,5.07,0,15,.71,19.4,1.29a52.19,52.19,0,0,1,5.89,3.79,140.09,140.09,0,0,0-14.21-1.19l4,2.89c3.48.31,11.65,1.21,15.74,2a128.81,128.81,0,0,1,23.37,22.23h4.13a133.94,133.94,0,0,0-28.17-25.89c-15.39-10.42-22.06-13.42-43-20a3.67,3.67,0,0,1-2.43-1.5l-2.8-5c-.72-1.26-.38-1.44.74-1.22.7.13,3,.49,4.11.78,1.88.51,2.48-.14,2.91-.5Z"/><path class="cls-2" d="M173.19,151.81h4c-7.95-7.37-26.12-18.55-36.77-23.13-7.36-.08-19.91,1.46-25.63,3.14a142.89,142.89,0,0,1,15,20h3.9c-1.39-2.36-9.81-13.8-13.35-18.12,1.32-.31,2.83-.59,4.42-.82,11.63,4,28.38,11.34,39.38,18.93h4.06c-6.25-4.93-20.75-13.28-36.77-19.7,2.83-.23,5.57-.62,7.29-.56C149.08,135.69,166.47,146.3,173.19,151.81Z"/><path class="cls-3" d="M120.51,154l-.65-.82q-.7-.9-1.47-1.8L85.33,170.43A36.68,36.68,0,0,0,90.62,174l34.64-20Z"/><path class="cls-3" d="M130.93,144.13c1.3,1.78,2.47,3.42,3.33,4.67l9.82-5.66c-2.15-1-4.3-2-6.42-2.89Z"/><path class="cls-3" d="M167.05,129.89l8-4.64q0-3.18-.14-6.51l-11.64,6.72Q165.06,127.59,167.05,129.89Z"/><path class="cls-3" d="M121.8,49.37a121.16,121.16,0,0,0-46.28,9.81l3.91,11.18L64,75.78c.67,2.41,1.7,6.5,2.65,11.67a166.41,166.41,0,0,0,20.58,9.18l71.3-41.12A122.21,122.21,0,0,0,121.8,49.37Z"/><path class="cls-2" d="M135.53,150.73l1.91,3.27H125.26L90.62,174c.53.29,1.06.57,1.6.84l12.42,6c6.71,3.21,13.07,6.26,17.16,8.44,4.08-2.18,10.44-5.23,17.15-8.44l12.42-6c8.54-4.19,14.84-11.18,18.79-20.82h-6.73l-.55-.39a135.32,135.32,0,0,0-18.8-10.46l-9.82,5.66C134.84,149.64,135.28,150.31,135.53,150.73Z"/><path class="cls-2" d="M174.28,137.74a100.38,100.38,0,0,0,.82-12.49l-8,4.64C169.23,132.41,171.64,135,174.28,137.74Z"/><path class="cls-4" d="M97.29,131.64l-5.45-.76,8,6.35-18.43-2A14,14,0,0,1,75.09,133l-6.51-4a79.92,79.92,0,0,0,3.25,20.54c2.78,8.93,7.31,15.94,13.5,20.91l33.06-19.06A128.78,128.78,0,0,0,97.29,131.64Z"/><path class="cls-4" d="M124.53,135.11l-.32,0c2,2.58,4.54,6,6.72,9l6.73-3.88C132.91,138.21,128.37,136.45,124.53,135.11Z"/><path class="cls-4" d="M174.75,114.22A62.57,62.57,0,0,1,163,115.83c-.8.06-4.13.08-6.9.07,1.82,2.61,4.23,5.88,7.21,9.56L175,118.74c0-.53-.05-1.06-.08-1.6C174.82,116.16,174.78,115.19,174.75,114.22Z"/><path class="cls-4" d="M125.74,104.94a4.37,4.37,0,0,1-1.25-3.23c.17-3.32,4.18-5.48,11.92-6.41a83.78,83.78,0,0,1,11.75-.46c8.88.34,20.07,2.55,27,5.94a141.24,141.24,0,0,1,4.45-25l-15.45-5.42,3.91-11.18c-3.22-1.41-6.42-2.63-9.55-3.67L87.22,96.63a185.67,185.67,0,0,0,40.16,9.63A7.87,7.87,0,0,1,125.74,104.94Z"/><path class="cls-4" d="M68.76,116.25c0-.28,0-.57,0-.85.84.31,1.59.6,2.21.85Z"/></svg>
