<?xml version="1.0" encoding="utf-8"?>
<svg id="Layer_1" data-name="Layer 1" width="240" height="240" viewBox="0 0 240 240" xmlns="http://www.w3.org/2000/svg" xmlns:bx="https://boxy-svg.com">
  <defs>
    <style>.cls-1{fill:#31287c;}.cls-2{fill:#c09949;}.cls-3{fill:#fff;}.cls-4{fill:#d8005b;}</style>
    <bx:grid x="0" y="0" width="120" height="120"/>
  </defs>
  <path class="cls-1" d="M 205.444 76.159 C 205.628 73.731 205.311 71.292 204.513 68.994 C 203.102 64.418 200.049 60.527 195.94 58.07 C 193.389 56.615 190.527 55.79 187.594 55.663 C 185.48 55.69 183.397 56.169 181.485 57.07 C 182.854 53.239 182.215 48.976 179.782 45.715 C 178.011 43.502 175.389 42.138 172.559 41.957 C 172.559 36.961 169.891 31.942 167.098 30 C 167.247 30.826 167.247 31.672 167.098 32.498 C 166.447 35.036 164.763 37.187 162.454 38.426 C 161.675 35.956 160.107 33.81 157.991 32.316 C 155.329 30.377 151.891 29.853 148.771 30.909 C 151.064 33.09 151.81 36.443 150.656 39.39 C 150.287 40.549 149.855 41.686 149.362 42.798 C 149.039 43.842 148.881 44.93 148.895 46.022 C 146.419 45.415 143.808 45.667 141.493 46.738 C 139.384 40.703 132.561 37.769 126.731 40.391 C 128.611 35.233 124.204 29.973 118.797 30.923 C 114.427 31.691 111.812 36.221 113.332 40.391 C 107.502 37.769 100.678 40.703 98.571 46.738 C 96.255 45.667 93.645 45.415 91.167 46.022 C 91.16 44.926 90.979 43.838 90.633 42.798 C 90.14 41.686 89.708 40.549 89.339 39.39 C 88.195 36.449 88.94 33.109 91.224 30.932 C 88.104 29.875 84.666 30.401 82.004 32.34 C 79.888 33.833 78.32 35.978 77.541 38.449 C 75.244 37.222 73.562 35.095 72.896 32.578 C 72.754 31.752 72.754 30.906 72.896 30.08 C 70.104 32.022 67.492 37.041 67.435 42.037 C 64.606 42.217 61.984 43.582 60.213 45.795 C 57.78 49.056 57.14 53.318 58.51 57.15 C 56.598 56.249 54.514 55.768 52.402 55.742 C 49.467 55.869 46.605 56.694 44.055 58.149 C 39.946 60.607 36.893 64.498 35.482 69.073 C 34.684 71.372 34.367 73.811 34.551 76.238 C 34.932 82.623 38.391 88.425 43.828 91.794 C 40.774 95.031 39.593 100.197 39.775 104.194 C 40.251 110.087 42.95 115.58 47.325 119.558 C 45.637 121.091 44.791 123.344 45.054 125.609 C 45.327 127.063 45.259 127.233 45.645 130.152 C 45.871 131.172 45.97 132.217 45.94 133.263 C 45.732 134.995 44.762 136.544 43.294 137.487 C 42.438 138.183 41.336 138.503 40.24 138.372 C 38.889 138.481 37.546 138.075 36.482 137.237 C 36.972 139.769 38.414 142.017 40.512 143.516 C 42.117 144.598 43.985 145.226 45.917 145.333 C 47.45 145.411 48.985 145.235 50.46 144.811 C 49.324 148.683 45.701 151.624 40.943 153.384 C 43.76 154.555 46.864 154.84 49.846 154.201 C 47.575 157.267 43.034 163.286 41.83 164.841 C 40.287 166.704 39.621 169.14 40.002 171.529 C 41.014 174.689 42.815 177.538 45.236 179.807 L 50.573 174.345 C 53.219 177.876 54.093 183.713 58.158 188.21 C 60.52 190.833 63.677 189.561 65.141 188.21 C 66.129 187.301 67.844 185.393 69.014 184.099 C 75.092 189.582 81.66 194.496 88.635 198.781 C 97.719 203.925 113.786 209.239 120.054 210 C 126.322 209.239 142.435 203.925 151.473 198.781 C 158.449 194.496 165.016 189.582 171.095 184.099 C 172.23 185.393 173.979 187.301 174.968 188.21 C 176.432 189.561 179.589 190.833 181.951 188.21 C 186.016 183.668 186.89 177.876 189.535 174.345 L 194.872 179.807 C 197.293 177.538 199.095 174.689 200.107 171.529 C 200.487 169.14 199.822 166.704 198.279 164.841 C 197.144 163.251 192.601 157.267 190.262 154.201 C 193.244 154.84 196.349 154.555 199.164 153.384 C 194.407 151.68 190.762 148.683 189.649 144.811 C 191.123 145.235 192.658 145.411 194.191 145.333 C 196.124 145.226 197.991 144.598 199.596 143.516 C 201.694 141.996 203.125 139.727 203.593 137.18 C 202.527 138.019 201.186 138.424 199.835 138.316 C 198.739 138.446 197.636 138.127 196.78 137.43 C 195.312 136.487 194.342 134.939 194.134 133.206 C 194.103 132.161 194.203 131.116 194.43 130.095 C 194.816 127.2 194.748 127.029 195.02 125.553 C 195.283 123.287 194.438 121.034 192.749 119.5 C 197.151 115.507 199.861 109.983 200.323 104.057 C 200.505 100.061 199.324 94.894 196.269 91.658 C 201.651 88.277 205.069 82.503 205.444 76.159 Z M 65.777 53.88 C 69.273 53.88 71.459 57.665 69.711 60.693 C 67.962 63.721 63.592 63.721 61.844 60.693 C 61.445 60.002 61.236 59.22 61.236 58.422 C 61.235 55.9 63.289 53.861 65.811 53.88 L 65.777 53.88 Z M 61.541 75.352 L 61.541 82.813 C 59.575 84.04 57.308 84.704 54.99 84.731 C 52.916 84.726 50.887 84.127 49.143 83.005 C 54.036 83.516 59.816 80.757 61.541 75.352 Z M 45.406 76.567 C 45.304 74.92 46.542 72.571 48.687 72.571 C 50.516 72.571 51.447 74.103 51.447 75.977 C 51.447 77.85 48.983 80.36 47.439 81.563 C 46.189 80.193 45.468 78.421 45.406 76.567 Z M 49.221 119.205 C 48.436 116.839 48.253 114.314 48.687 111.859 C 49.653 106.181 52.707 103.263 55.036 102.173 C 56.303 101.497 57.735 101.19 59.169 101.287 C 56.703 102.718 54.933 105.099 54.275 107.873 C 53.476 111.115 53.638 114.52 54.74 117.672 C 52.769 117.415 50.778 117.969 49.221 119.205 Z M 66.255 162.604 C 62.78 157.108 58.749 153.793 54.206 152.748 C 58.143 150.684 61.253 147.334 63.018 143.255 C 64.444 148.778 66.682 154.06 69.661 158.926 C 68.741 159.947 67.14 161.718 66.255 162.604 Z M 66.255 72.604 C 67.866 71.92 69.208 70.723 70.07 69.198 C 70.775 71.08 71.827 72.813 73.169 74.308 C 70.853 73.866 68.564 73.298 66.311 72.604 L 66.255 72.604 Z M 88.737 74.967 C 86.953 73.937 85.365 72.599 84.048 71.014 C 82.522 69.141 81.709 66.788 81.754 64.371 C 81.796 62.052 82.88 59.876 84.706 58.444 C 85.399 59.994 86.305 61.439 87.397 62.736 C 90.433 66.073 93.234 69.617 95.777 73.343 C 93.511 74.119 91.171 74.664 88.794 74.967 L 88.737 74.967 Z M 155.834 71.014 C 154.519 72.601 152.931 73.94 151.144 74.967 C 148.769 74.673 146.429 74.14 144.161 73.376 C 146.705 69.651 149.505 66.108 152.541 62.771 C 153.634 61.472 154.54 60.028 155.233 58.478 C 157.058 59.91 158.142 62.087 158.185 64.406 C 158.221 66.81 157.409 69.15 155.891 71.014 L 155.834 71.014 Z M 190.808 83.005 C 189.063 84.127 187.033 84.726 184.959 84.731 C 182.641 84.704 180.375 84.04 178.408 82.813 L 178.408 75.352 C 180.179 80.757 185.958 83.516 190.864 83.005 L 190.808 83.005 Z M 174.183 53.88 C 177.68 53.88 179.866 57.665 178.117 60.693 C 176.368 63.721 171.998 63.721 170.25 60.693 C 169.852 60.002 169.642 59.22 169.642 58.422 C 169.642 55.914 171.675 53.88 174.183 53.88 Z M 169.869 69.221 C 170.73 70.745 172.072 71.943 173.684 72.627 C 171.413 73.33 169.104 73.906 166.768 74.353 C 168.114 72.851 169.165 71.11 169.869 69.221 Z M 173.74 162.604 C 172.855 161.718 171.253 159.947 170.334 158.926 C 173.317 154.062 175.557 148.78 176.977 143.255 C 178.742 147.334 181.852 150.684 185.789 152.748 C 181.246 153.793 177.215 157.108 173.74 162.604 Z M 190.773 119.205 C 189.217 117.969 187.225 117.415 185.255 117.672 C 186.357 114.52 186.519 111.115 185.72 107.873 C 185.062 105.099 183.292 102.718 180.826 101.287 C 182.26 101.19 183.691 101.497 184.959 102.173 C 187.23 103.309 190.342 106.226 191.307 111.859 C 191.742 114.314 191.558 116.839 190.773 119.205 Z M 194.588 76.567 C 194.527 78.421 193.806 80.193 192.556 81.563 C 191.012 80.36 188.548 77.703 188.548 75.977 C 188.548 74.251 189.479 72.571 191.307 72.571 C 193.475 72.571 194.69 74.92 194.588 76.567 Z" style="transform-origin: 120px 120px;"/>
  <path class="cls-2" d="M 119.997 74.864 C 125.402 74.978 134.384 76.511 137.916 78.509 C 140.585 73.257 143.88 68.346 147.727 63.884 C 149.725 61.612 151.36 59.944 152.416 57.423 C 153.234 55.501 153.038 53.299 151.894 51.552 C 150.657 49.737 148.627 48.623 146.432 48.554 C 144.786 48.554 141.674 48.725 139.438 50.825 C 139.438 48.066 137.507 43.195 131.216 42.547 C 128.241 42.24 125.164 43.899 122.938 45.897 C 122.734 44.558 122.428 43.229 122.234 41.844 C 123.558 40.929 124.313 39.396 124.233 37.79 C 124.064 34.534 120.434 32.681 117.698 34.455 C 116.559 35.194 115.843 36.434 115.774 37.79 C 115.698 39.371 116.434 40.882 117.727 41.798 C 117.534 43.183 117.216 44.512 117.022 45.852 C 114.751 43.853 111.708 42.195 108.733 42.502 C 102.454 43.15 100.513 48.02 100.513 50.78 C 98.241 48.725 95.176 48.509 93.529 48.509 C 91.334 48.577 89.304 49.692 88.068 51.506 C 86.913 53.249 86.713 55.455 87.534 57.377 C 88.589 59.898 90.224 61.612 92.235 63.839 C 96.078 68.303 99.371 73.214 102.045 78.464 C 105.599 76.511 114.581 74.978 119.997 74.864 Z" style="transform-origin: 120px 120px;"/>
  <path class="cls-1" d="M 116.194 50.985 C 115.104 49.999 113.871 49.183 112.537 48.565 C 111.168 48.099 109.662 48.266 108.426 49.02 C 107.117 49.983 106.353 51.516 106.371 53.141 C 106.644 55.992 108.54 59.955 110.335 62.612 C 111.686 62.227 113.059 61.916 114.445 61.681 C 114.786 59.682 115.955 52.279 116.194 50.985 Z" style="transform-origin: 120px 120px;"/>
  <path class="cls-1" d="M 123.779 50.985 C 124.867 50.002 126.096 49.186 127.424 48.565 C 128.793 48.099 130.3 48.266 131.534 49.02 C 132.856 49.975 133.634 51.51 133.623 53.141 C 133.351 55.992 131.454 59.955 129.661 62.612 C 128.309 62.226 126.936 61.915 125.55 61.681 C 125.187 59.682 124.006 52.279 123.779 50.985 Z" style="transform-origin: 120px 120px;"/>
  <path class="cls-1" d="M 101.454 55.424 C 101.679 56.54 102.062 57.618 102.59 58.626 C 103.067 59.535 104.862 63.35 105.554 64.304 C 103.945 65.089 102.396 65.992 100.921 67.007 C 99.785 65.337 97.287 62.146 96.379 61.192 C 95.605 60.558 95.092 59.66 94.937 58.671 C 94.549 56.54 96.178 54.575 98.344 54.561 C 99.448 54.489 100.545 54.793 101.454 55.424 Z" style="transform-origin: 120px 120px;"/>
  <path class="cls-1" d="M 138.506 55.424 C 138.281 56.54 137.899 57.618 137.371 58.626 C 136.905 59.535 135.1 63.35 134.407 64.304 C 136.016 65.089 137.564 65.992 139.04 67.007 C 140.175 65.337 142.673 62.146 143.582 61.192 C 144.349 60.554 144.857 59.658 145.013 58.671 C 145.4 56.54 143.772 54.575 141.606 54.561 C 140.505 54.493 139.413 54.797 138.506 55.424 Z" style="transform-origin: 120px 120px;"/>
  <path class="cls-2" d="M 67.764 181.589 C 65.721 179.395 63.802 177.086 62.019 174.674 C 61.167 173.471 59.997 173.471 59.385 174.061 C 58.595 174.784 58.554 176.013 59.294 176.786 C 60.947 178.055 62.524 179.42 64.017 180.874 C 64.846 181.749 65.721 182.805 65.664 183.747 C 66.311 183.043 67.117 182.237 67.764 181.589 Z" style="transform-origin: 120px 120px;"/>
  <path class="cls-2" d="M 64.494 165.545 C 61.269 160.14 57.205 156.575 52.742 155.326 L 44.793 165.943 C 46.915 166.344 48.862 167.392 50.369 168.94 C 52.463 170.993 54.052 173.505 55.012 176.276 C 56.21 179.423 57.732 182.437 59.555 185.269 C 60.016 186.118 60.865 186.687 61.826 186.79 C 63.096 186.72 63.977 185.497 63.643 184.269 C 63.274 183.022 62.537 181.914 61.53 181.09 C 60.41 180.051 59.236 179.073 58.01 178.161 C 56.323 176.767 56.162 174.239 57.659 172.642 L 64.494 165.545 Z" style="transform-origin: 120px 120px;"/>
  <path class="cls-2" d="M 45.054 174.993 C 45.054 175.049 45.225 174.993 45.281 175.061 L 49.165 171.177 C 49.165 171.12 49.165 171.006 49.221 170.939 C 48.703 170.304 48.09 169.753 47.405 169.304 C 46.613 168.642 45.609 168.287 44.578 168.305 C 43.992 168.401 43.502 168.804 43.294 169.36 C 42.975 169.867 42.85 170.472 42.943 171.064 C 43.27 172.543 44.001 173.903 45.054 174.993 Z" style="transform-origin: 120px 120px;"/>
  <path class="cls-2" d="M 172.23 181.567 C 174.289 179.387 176.215 177.085 177.999 174.674 C 178.85 173.471 180.02 173.471 180.645 174.061 C 181.424 174.79 181.46 176.014 180.724 176.786 C 179.07 178.055 177.493 179.42 176 180.874 C 175.183 181.749 174.297 182.805 174.354 183.747 C 173.684 183.043 172.855 182.214 172.23 181.567 Z" style="transform-origin: 120px 120px;"/>
  <path class="cls-2" d="M 175.5 165.545 C 178.726 160.14 182.79 156.575 187.253 155.326 L 195.202 165.943 C 193.08 166.344 191.133 167.392 189.626 168.94 C 187.532 170.993 185.943 173.505 184.982 176.276 C 183.785 179.423 182.263 182.437 180.44 185.269 C 179.979 186.118 179.131 186.687 178.169 186.79 C 176.899 186.72 176.018 185.497 176.352 184.269 C 176.721 183.022 177.458 181.914 178.465 181.09 C 179.585 180.051 180.76 179.073 181.985 178.161 C 183.672 176.767 183.833 174.239 182.336 172.642 L 175.5 165.545 Z" style="transform-origin: 120px 120px;"/>
  <path class="cls-2" d="M 194.941 174.993 C 194.941 174.993 194.77 174.993 194.714 175.061 L 190.83 171.177 C 190.83 171.12 190.83 171.006 190.83 170.939 C 191.348 170.304 191.962 169.753 192.647 169.304 C 193.439 168.642 194.443 168.287 195.475 168.305 C 196.061 168.401 196.549 168.804 196.757 169.36 C 197.065 169.871 197.193 170.472 197.121 171.064 C 196.811 172.565 196.05 173.936 194.941 174.993 Z" style="transform-origin: 120px 120px;"/>
  <path class="cls-2" d="M 119.997 207.025 C 131.792 204.704 143.085 200.322 153.358 194.08 C 160.001 189.947 170.857 181.749 176.852 172.937 C 177.239 172.288 177.916 171.864 178.668 171.802 L 169.505 162.479 C 169.097 162.056 168.409 162.087 168.04 162.548 C 163.844 168.447 158.766 173.666 152.984 178.025 C 143.114 185.303 131.904 190.563 119.997 193.501 C 108.108 190.545 96.918 185.275 87.067 177.99 C 81.287 173.632 76.209 168.412 72.011 162.513 C 71.644 162.054 70.955 162.022 70.546 162.445 L 61.383 171.767 C 62.137 171.831 62.814 172.253 63.2 172.903 C 69.196 181.715 80.05 189.936 86.693 194.047 C 96.947 200.294 108.22 204.688 119.997 207.025 Z" style="transform-origin: 120px 120px;"/>
  <path class="cls-1" d="M 69.252 176.639 C 69.848 176.875 70.484 176.995 71.125 176.991 C 71.47 176.793 71.804 176.578 72.124 176.343 C 72.124 176.343 72.124 176.219 72.124 176.174 C 71.419 176.089 70.72 175.953 70.035 175.765 C 69.72 175.576 69.458 175.311 69.274 174.993 C 68.23 173.471 69.968 171.586 70.853 170.825 C 71.396 170.352 72.041 170.01 72.738 169.826 C 73.873 169.713 74.896 171.166 74.736 172.097 C 74.65 172.375 74.511 172.632 74.328 172.857 C 74.238 172.982 74.14 173.1 74.032 173.21 C 73.93 173.312 74.146 173.448 74.146 173.448 C 74.146 173.448 74.646 173.448 74.747 173.391 C 75.077 173.017 75.543 172.563 75.792 172.256 C 76.042 171.949 76.724 171.711 76.791 171.529 C 76.86 171.348 76.791 171.404 76.791 171.359 C 76.512 171.197 76.257 170.998 76.031 170.768 C 75.804 170.473 75.713 170.132 75.497 169.826 C 74.711 168.756 73.408 168.194 72.091 168.361 C 70.299 168.511 68.652 169.404 67.548 170.825 C 66.499 171.981 66.265 173.662 66.958 175.061 C 67.408 175.939 68.27 176.533 69.252 176.639 Z" style="transform-origin: 120px 120px;"/>
  <path class="cls-1" d="M 96.368 187.608 C 96.935 187.914 97.753 188.516 97.844 189.095 C 97.874 189.478 97.835 189.862 97.73 190.231 C 97.73 190.231 97.844 190.31 97.968 190.287 C 98.139 190.216 98.297 190.116 98.435 189.993 C 98.582 189.788 98.526 189.561 98.616 189.288 C 98.734 188.948 98.87 188.614 99.025 188.289 C 99.111 188.177 99.19 188.059 99.263 187.938 C 99.263 187.869 99.263 187.767 99.263 187.711 C 97.816 187.114 96.419 186.405 95.085 185.587 C 94.71 185.382 93.779 184.599 93.267 184.656 C 93.113 184.692 92.971 184.771 92.859 184.883 C 92.859 184.951 92.859 185.064 92.859 185.121 C 93.238 185.363 93.405 185.829 93.267 186.256 C 92.173 188.363 90.956 190.402 89.623 192.365 C 89.327 192.456 88.794 192.434 88.691 192.717 C 88.691 192.717 88.691 192.843 88.691 192.899 C 89.827 193.604 91.065 194.307 92.268 194.955 C 92.776 195.191 93.265 195.465 93.734 195.773 C 93.835 195.84 94.188 196.283 94.266 196.305 C 94.346 196.329 94.8 196.305 94.824 196.227 C 95.149 195.533 95.599 194.905 96.152 194.376 L 96.64 193.909 C 96.64 193.762 96.64 193.649 96.64 193.615 C 96.254 193.49 95.845 193.922 95.345 194.205 C 94.425 194.558 93.383 194.326 92.7 193.615 C 92.393 193.377 92.064 193.024 92.348 192.479 C 92.757 191.707 93.483 190.447 93.756 190.129 C 94.266 190.276 95.3 190.765 95.403 191.264 C 95.438 191.626 95.375 191.991 95.221 192.32 C 95.516 192.32 95.8 192.32 95.993 192.082 C 96.111 191.856 96.21 191.621 96.288 191.378 C 96.411 191.117 96.548 190.863 96.697 190.617 C 96.697 190.514 96.958 190.39 96.992 190.265 C 97.026 190.14 96.992 190.094 96.992 190.027 C 96.686 189.947 96.22 189.947 95.857 189.856 C 95.356 189.642 94.883 189.367 94.449 189.039 C 94.697 188.336 95.053 187.678 95.505 187.086 C 95.641 187.188 96.152 187.495 96.368 187.608 Z" style="transform-origin: 120px 120px;"/>
  <path class="cls-1" d="M 80.437 176.673 C 80.925 177.093 81.572 177.809 81.572 178.445 C 81.519 178.815 81.399 179.172 81.22 179.5 C 81.22 179.5 81.311 179.602 81.436 179.614 C 81.619 179.577 81.795 179.511 81.959 179.421 C 82.14 179.251 82.14 179.024 82.276 178.774 C 82.413 178.524 82.707 178.138 82.9 177.887 C 82.969 177.809 83.151 177.695 83.207 177.593 C 83.264 177.491 83.207 177.422 83.207 177.366 C 81.928 176.473 80.721 175.482 79.596 174.402 C 79.278 174.118 78.529 173.142 78.03 173.084 C 77.95 173.084 77.609 173.164 77.575 173.233 C 77.541 173.3 77.575 173.402 77.575 173.46 C 77.862 173.767 77.925 174.22 77.734 174.595 C 76.215 176.413 74.588 178.138 72.863 179.762 C 72.545 179.762 72.034 179.66 71.864 179.909 C 71.864 179.966 71.864 180.034 71.864 180.08 C 72.84 181.022 73.885 181.965 74.918 182.861 C 75.359 183.212 75.776 183.592 76.167 183.997 C 76.246 184.087 76.508 184.588 76.564 184.621 C 76.622 184.656 77.087 184.757 77.132 184.621 C 77.591 184.026 78.158 183.522 78.802 183.134 L 79.369 182.782 C 79.449 182.646 79.449 182.543 79.369 182.487 C 79.018 182.271 78.529 182.612 77.984 182.782 C 77.012 182.929 76.048 182.482 75.532 181.647 C 75.195 181.358 75.15 180.855 75.429 180.511 C 76.022 179.817 76.652 179.153 77.314 178.524 C 77.768 178.774 78.676 179.478 78.676 179.966 C 78.626 180.328 78.485 180.671 78.268 180.965 C 78.563 180.965 78.824 181.113 79.063 180.897 C 79.229 180.703 79.378 180.494 79.505 180.272 C 79.676 180.068 79.881 179.818 80.073 179.614 C 80.266 179.409 80.38 179.455 80.437 179.342 C 80.493 179.228 80.437 179.16 80.437 179.103 C 80.164 178.966 79.71 178.864 79.392 178.694 C 78.939 178.374 78.534 177.992 78.188 177.558 C 78.587 176.93 79.082 176.367 79.653 175.889 C 79.823 176.094 80.255 176.503 80.437 176.673 Z" style="transform-origin: 120px 120px;"/>
  <path class="cls-1" d="M 104.486 200.371 C 104.734 199.956 104.951 199.524 105.134 199.077 C 105.315 198.761 105.515 198.458 105.736 198.168 C 105.736 198.168 106.235 197.442 106.235 197.442 C 106.235 197.442 105.815 197.317 105.61 197.442 C 105.407 197.566 105.395 197.816 104.895 198.214 C 103.896 199.019 101.999 198.214 101.285 197.635 C 102.079 196.863 106.246 193.251 108.097 191.957 C 108.097 191.855 108.097 191.718 108.097 191.605 C 108.097 191.491 108.097 191.48 107.984 191.435 C 107.87 191.389 107.541 191.344 107.28 191.253 C 107.018 191.162 106.644 190.969 106.337 190.844 C 105.372 190.436 104.395 190.083 103.407 189.709 C 103.158 189.606 102.579 189.13 102.34 189.13 C 102.183 189.162 102.041 189.24 101.932 189.357 C 101.932 189.357 101.932 189.493 101.932 189.538 C 101.83 189.799 101.712 190.052 101.58 190.299 C 101.352 190.708 101.08 191.139 100.819 191.537 C 100.819 191.537 100.604 191.707 100.58 191.764 C 100.557 191.82 100.58 191.934 100.58 192.002 C 100.74 192.002 100.887 192.082 101.114 192.002 C 101.341 191.923 101.387 191.696 101.523 191.537 C 101.872 191.049 102.464 190.799 103.056 190.89 C 103.736 191.056 104.395 191.301 105.02 191.616 C 102.767 193.689 100.405 195.641 97.946 197.464 C 98.014 197.669 97.946 197.827 98.117 197.929 C 98.286 198.032 98.435 197.929 98.65 198.054 C 99.036 198.168 99.4 198.316 99.785 198.463 C 100.172 198.611 100.478 198.815 100.785 198.928 C 101.454 199.19 102.057 199.36 102.726 199.633 C 103.044 199.769 103.396 199.985 103.725 200.167 C 103.794 200.167 103.896 200.348 103.953 200.405 C 104.126 200.48 104.324 200.466 104.486 200.371 Z" style="transform-origin: 120px 120px;"/>
  <path class="cls-1" d="M 138.96 199.395 C 139.565 199.299 140.155 199.131 140.72 198.895 C 142.244 198.177 143.053 196.489 142.662 194.852 C 142.425 193.916 141.707 193.176 140.777 192.91 C 139.426 192.559 137.507 193.637 136.905 192.502 C 136.764 192.27 136.701 192 136.724 191.729 C 136.837 191.106 138.256 190.594 139.131 190.855 C 139.561 191.074 139.912 191.424 140.13 191.855 C 140.19 191.849 140.252 191.849 140.312 191.855 C 140.521 191.534 140.521 191.12 140.312 190.799 C 140.117 190.514 139.939 190.219 139.778 189.913 C 139.71 189.754 139.494 188.914 139.426 188.857 C 139.358 188.801 139.233 188.857 139.199 188.857 C 138.979 189.039 138.739 189.195 138.483 189.322 C 137.78 189.5 137.093 189.736 136.428 190.027 C 135.819 190.454 135.357 191.062 135.111 191.764 C 134.893 192.52 134.966 193.33 135.315 194.035 C 135.561 194.586 136.002 195.027 136.553 195.273 C 137.881 195.773 140.379 194.683 140.834 196.147 C 140.918 196.446 140.877 196.766 140.72 197.032 C 140.517 197.412 140.146 197.673 139.721 197.737 C 138.199 198.156 137.541 197.317 136.905 196.499 L 136.724 196.567 C 136.65 196.774 136.594 196.986 136.553 197.203 L 136.666 197.328 C 136.842 197.746 137.04 198.155 137.257 198.554 C 137.473 199.008 137.689 199.542 137.905 200.031 C 138.018 199.962 138.074 200.031 138.199 199.962 C 138.324 199.894 138.506 199.497 138.96 199.395 Z" style="transform-origin: 120px 120px;"/>
  <path class="cls-1" d="M 158.991 180.454 C 159.427 180.385 159.874 180.448 160.274 180.636 C 160.932 180.897 163.26 182.737 163.976 182.225 C 164.134 182.101 164.191 181.771 164.27 181.578 L 164.452 181.578 C 164.596 181.799 164.715 182.035 164.804 182.283 C 164.759 182.803 164.64 183.315 164.452 183.804 C 163.578 186.268 160.217 182.759 159.161 182.452 C 158.866 182.374 158.457 182.385 158.343 182.634 C 158.23 182.884 158.218 182.895 158.275 182.986 C 158.929 183.87 159.646 184.705 160.421 185.484 C 160.671 185.666 160.932 185.734 161.08 185.644 C 161.228 185.553 161.522 185.337 161.568 185.451 C 161.613 185.564 161.887 186.007 161.568 186.154 C 160.859 186.526 160.208 187.001 159.638 187.562 C 159.471 187.804 159.273 188.021 159.048 188.21 C 158.9 188.301 158.82 188.21 158.639 188.323 C 158.58 188.153 158.54 187.978 158.514 187.801 C 158.514 187.573 158.673 187.381 158.57 187.097 C 158.468 186.813 158.321 186.768 158.218 186.62 C 156.92 184.796 155.488 183.069 153.938 181.453 C 153.62 181.226 153.268 181.544 152.995 181.635 L 152.939 181.453 C 152.891 181.303 152.872 181.145 152.882 180.988 C 152.882 180.988 153.006 180.852 153.052 180.806 C 153.393 180.511 153.813 180.318 154.187 180.045 C 154.562 179.773 154.801 179.433 155.119 179.171 C 155.436 178.91 155.516 178.853 155.709 178.694 C 155.709 178.694 155.925 178.774 155.947 178.819 C 156.141 179.193 155.823 179.478 155.947 179.875 C 156.088 180.215 156.285 180.529 156.526 180.806 C 156.526 180.863 157.049 181.453 157.06 181.453 C 157.071 181.453 157.231 181.453 157.299 181.453 C 157.42 180.546 157.462 179.631 157.424 178.717 C 157.424 178.467 157.06 178.717 156.822 178.581 C 156.779 178.367 156.779 178.147 156.822 177.934 C 156.822 177.82 158.207 176.877 158.412 176.696 L 159.059 176.116 L 159.229 176.116 C 159.265 176.308 159.265 176.504 159.229 176.696 C 159.229 176.934 158.786 177.433 158.706 177.751 C 158.483 178.762 158.381 179.795 158.401 180.828 C 158.423 180.704 158.775 180.499 158.991 180.454 Z" style="transform-origin: 120px 120px;"/>
  <path class="cls-1" d="M 168.268 180.193 C 168.141 180.381 168 180.559 167.847 180.727 C 167.689 180.579 167.768 180.817 167.62 180.556 C 167.473 180.296 167.62 179.546 167.439 179.137 C 167.144 178.41 164.702 173.369 164.316 172.642 C 164.17 172.384 163.958 172.168 163.703 172.018 C 163.624 172.018 163.578 171.551 163.703 171.507 C 163.899 171.307 164.078 171.09 164.236 170.859 C 164.372 170.564 164.294 170.258 164.407 169.916 L 164.588 169.803 C 164.931 169.951 165.249 170.151 165.531 170.394 C 165.872 170.59 166.224 170.765 166.587 170.916 C 168.314 171.7 169.994 172.449 171.754 173.187 C 172.54 173.621 173.466 173.728 174.331 173.482 C 174.467 174.096 174.456 174.254 173.979 174.538 C 173.125 175.191 172.361 175.955 171.709 176.81 C 171.709 176.752 171.515 176.81 171.469 176.752 C 171.231 176.537 171.469 175.731 171.231 175.402 C 170.953 175.173 170.638 174.993 170.3 174.868 C 169.959 174.663 169.606 174.477 169.244 174.311 C 168.949 174.572 167.598 175.867 167.416 176.038 C 167.235 176.207 167.302 176.31 167.416 176.514 C 167.659 177.062 167.976 177.575 168.359 178.036 C 168.835 178.512 169.358 178.194 169.767 177.922 C 169.925 178.274 170.073 178.637 169.709 178.864 C 169.164 179.231 168.678 179.679 168.268 180.193 Z M 165.429 172.563 L 166.666 175.151 C 167.189 174.769 167.671 174.335 168.109 173.857 C 168.109 173.857 165.781 172.665 165.418 172.528 L 165.429 172.563 Z" style="transform-origin: 120px 120px;"/>
  <path class="cls-1" d="M 125.369 194.138 C 125.972 193.694 126.698 193.448 127.447 193.433 C 130.183 193.286 132.215 196.839 131.5 199.837 C 131.229 200.954 130.589 201.946 129.683 202.654 C 129.229 203.055 128.683 203.339 128.094 203.482 C 124.915 203.96 123.12 200.507 123.393 197.544 C 123.601 196.2 124.305 194.984 125.369 194.138 Z M 128.628 201.484 C 130.898 200.882 129.342 194.932 126.448 195.431 C 126.25 195.474 126.062 195.551 125.89 195.658 C 125.714 195.765 125.564 195.909 125.447 196.078 C 125.21 196.655 125.17 197.294 125.334 197.896 C 125.426 199.095 125.97 200.216 126.856 201.03 C 127.35 201.435 127.999 201.6 128.628 201.484 Z" style="transform-origin: 120px 120px;"/>
  <path class="cls-1" d="M 113.048 193.41 C 113.795 193.349 114.541 193.524 115.183 193.909 C 117.601 195.215 117.454 199.326 115.274 201.484 C 114.456 202.294 113.387 202.802 112.242 202.926 C 111.651 203.03 111.042 202.987 110.471 202.801 C 107.507 201.529 107.79 197.646 109.585 195.284 C 110.463 194.247 111.7 193.578 113.048 193.41 Z M 111.97 201.359 C 114.241 202.063 116.023 196.158 113.287 195.068 C 113.096 195.008 112.897 194.974 112.696 194.966 C 112.491 194.964 112.289 195.011 112.106 195.102 C 111.59 195.459 111.216 195.985 111.049 196.59 C 110.493 197.656 110.37 198.898 110.709 200.053 C 110.909 200.66 111.372 201.143 111.97 201.37 L 111.97 201.359 Z" style="transform-origin: 120px 120px;"/>
  <path class="cls-1" d="M 148.021 194.955 C 147.851 195.101 147.673 195.237 147.488 195.364 C 147.363 195.182 147.386 195.42 147.306 195.125 C 147.227 194.83 147.556 194.149 147.511 193.717 C 147.42 192.933 146.375 187.426 146.239 186.62 C 146.167 186.332 146.018 186.069 145.807 185.86 C 145.739 185.86 145.807 185.371 145.932 185.36 C 146.172 185.219 146.4 185.06 146.614 184.883 C 146.829 184.633 146.829 184.303 147.033 184.02 L 147.227 183.951 C 147.613 184.201 147.704 184.497 147.976 184.77 C 148.249 185.042 148.59 185.337 148.862 185.564 L 153.222 189.152 C 153.872 189.777 154.739 190.127 155.641 190.129 C 155.641 190.753 155.55 190.901 155.017 191.048 C 154.008 191.445 153.061 191.981 152.201 192.638 C 152.201 192.638 152.018 192.638 151.985 192.525 C 151.814 192.252 152.279 191.548 152.121 191.162 C 151.962 190.776 151.564 190.594 151.36 190.401 C 151.084 190.113 150.792 189.84 150.486 189.584 C 150.134 189.754 148.487 190.639 148.272 190.719 C 148.056 190.799 148.09 190.935 148.147 191.173 C 148.237 191.764 148.405 192.341 148.646 192.888 C 148.975 193.478 149.566 193.319 150.032 193.161 C 150.088 193.535 150.134 193.922 149.725 194.047 C 149.118 194.269 148.546 194.575 148.021 194.955 Z M 147.329 186.847 L 147.829 189.663 C 148.434 189.441 149.013 189.151 149.554 188.801 C 149.554 188.801 147.636 187.086 147.329 186.87 L 147.329 186.847 Z" style="transform-origin: 120px 120px;"/>
  <path class="cls-1" d="M 82.9 187.188 C 82.786 187.359 82.727 187.561 82.731 187.767 C 82.651 188.301 83.025 188.21 83.105 188.505 C 83.105 188.573 83.105 188.675 83.105 188.743 C 82.878 188.834 82.662 188.948 82.446 188.846 L 82.231 188.675 C 81.946 188.471 81.719 188.243 81.459 188.04 C 80.784 187.638 80.155 187.161 79.585 186.62 C 79.71 186.541 79.892 186.359 80.05 186.336 C 80.21 186.314 80.55 186.336 80.755 186.268 C 80.958 186.2 84.604 181.158 84.809 180.874 C 85.014 180.648 85.12 180.35 85.103 180.045 C 85.103 179.887 84.842 179.705 84.751 179.58 C 84.763 179.501 84.763 179.42 84.751 179.342 C 84.878 179.264 85.016 179.207 85.16 179.171 C 85.569 179.171 86.636 180.307 86.989 180.523 C 87.34 180.738 88.715 181.658 89.044 181.783 C 89.375 182 89.67 182.268 89.918 182.578 C 90.698 183.758 90.219 185.358 88.918 185.916 C 88.308 186.076 87.672 186.119 87.045 186.041 C 87.137 186.342 87.175 186.657 87.158 186.972 C 87.158 187.608 86.217 189.573 86.75 190.094 C 87.016 190.248 87.318 190.325 87.625 190.322 C 87.619 190.401 87.619 190.481 87.625 190.56 C 87.441 190.727 87.247 190.883 87.045 191.026 C 86.383 191.125 85.713 191.144 85.047 191.083 C 84.787 190.997 84.573 190.808 84.456 190.56 C 83.605 189.084 86.126 185.847 84.933 185.099 C 84.74 184.973 84.706 185.099 84.513 185.099 C 84.308 185.315 83.049 187.006 82.9 187.188 Z M 86.898 181.931 C 86.58 182.328 86.25 182.668 85.955 183.066 C 85.823 183.226 85.716 183.406 85.637 183.6 C 85.558 184.02 85.785 184.099 85.966 184.269 C 86.185 184.512 86.483 184.669 86.807 184.712 C 87.646 184.67 88.282 183.937 88.204 183.1 C 88.134 182.898 88.012 182.718 87.852 182.578 C 87.572 182.31 87.249 182.091 86.898 181.931 Z" style="transform-origin: 120px 120px;"/>
  <path class="cls-3" d="M 70.603 45.148 C 70.024 42.3 70.35 39.342 71.534 36.689 C 73.252 39.762 76.28 41.882 79.755 42.445 C 79.755 37.506 82.809 34.814 86.341 33.361 C 84.422 39.993 88.794 40.345 87.954 47.248 C 85.512 48.849 83.888 51.79 84.104 55.924 C 84.104 56.015 84.104 56.106 84.104 56.196 C 81.481 57.982 79.859 60.906 79.732 64.077 C 79.629 66.409 80.248 68.716 81.504 70.685 C 82.576 72.416 83.935 73.952 85.523 75.227 C 83.419 75.33 81.31 75.295 79.21 75.125 C 75.228 74.035 72.25 70.719 71.59 66.643 C 71.296 63.009 72.42 61.703 72.477 58.184 C 72.556 53.074 67.719 51.608 66.424 51.552 C 64.298 51.358 62.202 52.159 60.747 53.721 C 60.259 45.852 66.72 44.206 70.603 45.148 Z" style="transform-origin: 120px 120px;"/>
  <path class="cls-3" d="M 48.869 90.954 C 44.854 93.878 42.569 98.618 42.783 103.581 C 42.946 107.404 44.3 111.08 46.656 114.095 C 46.462 106.817 50.732 101.843 54.138 100.231 C 56.453 99.013 59.179 98.852 61.621 99.788 L 61.621 85.027 C 59.539 86.262 57.135 86.847 54.718 86.707 C 47.552 86.707 43.499 81.359 43.499 76.306 C 43.499 73.899 44.85 70.549 48.609 70.549 C 51.184 70.617 53.288 72.625 53.479 75.194 C 53.581 77.415 52.572 79.543 50.789 80.871 C 56.251 80.871 60.009 76.226 60.418 70.299 C 61.201 70.639 62.032 70.857 62.882 70.947 C 65.755 70.981 68.289 69.072 69.047 66.302 C 69.154 65.503 69.214 64.701 69.229 63.895 C 66.775 65.504 63.546 65.262 61.36 63.305 C 59.588 61.43 57.601 58.399 51.901 58.49 C 48.382 58.49 43.034 61.488 40.547 65.303 C 38.584 68.237 37.562 71.698 37.617 75.227 C 37.594 80.564 41.648 88.217 48.869 90.954 Z" style="transform-origin: 120px 120px;"/>
  <path class="cls-3" d="M 47.11 138.054 C 45.975 139.587 44.578 140.644 41.523 140.644 C 42.912 141.76 44.625 142.397 46.406 142.461 C 48.831 142.525 51.148 141.464 52.685 139.587 C 54.796 142.574 53.684 147.456 50.743 150.624 C 57.329 149.149 60.827 143.573 61.837 135.863 C 61.666 134.148 61.576 132.457 61.576 130.674 L 61.576 102.059 C 58.309 103.628 56.139 106.835 55.899 110.451 C 55.593 113.933 56.439 117.419 58.306 120.375 C 57.166 119.786 55.884 119.522 54.604 119.614 C 52.505 119.69 50.529 120.626 49.143 122.203 C 48.092 123.472 47.586 125.104 47.734 126.745 C 48.188 128.476 48.462 130.249 48.551 132.036 C 48.728 134.145 48.222 136.255 47.11 138.054 Z" style="transform-origin: 120px 120px;"/>
  <path class="cls-3" d="M 169.391 45.148 C 169.976 42.3 169.651 39.34 168.461 36.689 C 166.742 39.762 163.715 41.882 160.239 42.445 C 160.239 37.506 157.185 34.814 153.654 33.361 C 155.573 39.993 151.201 40.345 152.041 47.248 C 154.483 48.849 156.107 51.79 155.891 55.924 C 155.891 56.015 155.891 56.106 155.891 56.196 C 158.514 57.982 160.136 60.906 160.263 64.077 C 160.365 66.409 159.747 68.716 158.49 70.685 C 157.419 72.416 156.06 73.952 154.472 75.227 C 156.576 75.33 158.685 75.295 160.784 75.125 C 164.767 74.035 167.745 70.719 168.404 66.643 C 168.699 63.009 167.575 61.703 167.518 58.184 C 167.439 53.074 172.276 51.608 173.571 51.552 C 175.697 51.358 177.793 52.159 179.248 53.721 C 179.736 45.852 173.275 44.206 169.391 45.148 Z" style="transform-origin: 120px 120px;"/>
  <path class="cls-3" d="M 192.885 138.054 C 194.021 139.587 195.417 140.644 198.472 140.644 C 197.083 141.76 195.37 142.397 193.589 142.461 C 191.164 142.525 188.846 141.464 187.31 139.587 C 185.198 142.574 186.311 147.456 189.252 150.624 C 182.677 149.149 179.168 143.573 178.158 135.863 C 178.328 134.148 178.419 132.457 178.419 130.674 L 178.419 102.059 C 181.685 103.63 183.853 106.835 184.096 110.451 C 184.393 113.933 183.544 117.418 181.678 120.375 C 182.818 119.786 184.099 119.522 185.38 119.614 C 187.479 119.69 189.454 120.626 190.841 122.203 C 191.891 123.472 192.398 125.104 192.249 126.745 C 191.794 128.476 191.521 130.249 191.432 132.036 C 191.258 134.146 191.769 136.256 192.885 138.054 Z" style="transform-origin: 120px 120px;"/>
  <path class="cls-3" d="M 191.126 90.954 C 195.14 93.878 197.426 98.618 197.212 103.581 C 197.049 107.404 195.696 111.08 193.339 114.095 C 193.51 106.817 189.263 101.866 185.822 100.231 C 183.508 99.013 180.781 98.852 178.339 99.788 L 178.339 85.027 C 180.422 86.262 182.826 86.847 185.244 86.707 C 192.408 86.707 196.462 81.359 196.462 76.306 C 196.462 73.899 195.111 70.549 191.353 70.549 C 188.778 70.617 186.672 72.625 186.481 75.194 C 186.38 77.415 187.388 79.543 189.172 80.871 C 183.711 80.871 179.952 76.226 179.544 70.299 C 178.759 70.639 177.929 70.857 177.079 70.947 C 174.207 70.981 171.673 69.072 170.913 66.302 C 170.808 65.503 170.746 64.701 170.732 63.895 C 173.185 65.504 176.415 65.262 178.601 63.305 C 180.372 61.43 182.359 58.399 188.06 58.49 C 191.591 58.49 196.928 61.488 199.415 65.303 C 201.377 68.237 202.399 71.698 202.344 75.227 C 202.401 80.564 198.403 88.217 191.126 90.954 Z" style="transform-origin: 120px 120px;"/>
  <path class="cls-3" d="M 100.194 82.438 C 105.599 79.383 113.65 77.895 119.986 77.895 L 120.054 77.895 L 120.054 190.004 C 112.503 188.925 93.416 181.465 82.458 170.337 C 76.315 164.103 64.494 150.284 64.494 130.98 L 64.494 75.341 C 73.521 78.384 87.034 79.543 97.31 75.943 C 98.474 78.012 99.441 80.187 100.194 82.438 Z" style="transform-origin: 120px 120px;"/>
  <path class="cls-1" d="M 67.423 125.019 L 117.147 125.019 L 117.147 186.336 C 113.724 185.402 110.383 184.19 107.155 182.714 L 107.155 128.21 L 97.287 128.21 L 97.287 177.922 C 94.471 176.866 88.408 172.052 87.352 170.984 L 87.352 128.176 L 77.359 128.176 L 77.359 159.561 C 73.185 153.829 70.168 147.338 68.48 140.45 C 67.919 138.078 67.566 135.663 67.423 133.229 L 67.423 125.019 Z" style="transform-origin: 120px 120px;"/>
  <path class="cls-4" d="M 147.249 160.288 C 147.443 159.726 147.369 159.106 147.045 158.608 C 146.488 157.733 141.231 147.865 141.231 147.865 L 144.399 147.865 C 143.264 145.594 144.399 142.608 146.67 140.473 L 138.619 140.473 C 136.973 140.345 135.373 141.054 134.361 142.358 C 133.453 143.701 133.299 145.417 133.952 146.9 C 134.952 148.717 137.825 154.122 137.825 154.122 L 131.898 154.247 L 131.239 152.998 L 132.045 152.544 C 133.083 151.981 133.518 150.718 133.044 149.636 L 131.841 147.547 C 131.876 148.382 131.437 149.165 130.706 149.569 L 129.763 150.114 L 129.24 149.137 C 128.932 148.379 128.207 147.872 127.389 147.843 C 126.996 147.842 126.608 147.932 126.254 148.103 C 125.959 148.252 124.517 149.137 124.517 149.137 C 125.165 149.156 125.761 149.496 126.106 150.045 C 126.232 150.261 126.584 150.942 126.958 151.703 L 124.721 152.941 C 123.876 153.532 123.535 154.619 123.892 155.587 L 125.028 157.494 C 125.106 156.732 125.575 156.066 126.265 155.734 L 127.685 158.243 C 128.078 159.194 128.94 159.87 129.956 160.027 L 134.759 160.027 C 135.111 160.027 135.463 160.118 135.52 160.39 C 135.758 161.411 136.258 162.025 137.144 162.025 L 139.051 162.025 C 138.464 161.509 138.149 160.75 138.199 159.97 L 139.335 159.97 C 139.63 159.97 139.869 160.14 139.983 160.561 C 140.096 160.98 140.437 162.025 141.458 162.025 L 143.514 162.025 C 142.936 161.544 142.665 160.787 142.81 160.049 L 143.945 160.049 C 144.26 160.016 144.545 160.235 144.592 160.548 C 144.683 160.866 144.979 161.991 146.069 161.991 C 147.159 161.991 148.09 161.991 148.09 161.991 C 147.533 161.607 147.216 160.963 147.249 160.288 Z" style="transform-origin: 120px 120px;"/>
  <polygon class="cls-4" points="127.503 134.886 126.504 136.056 129.831 138.384 133.147 136.112 132 134.853 127.503 134.886" style="transform-origin: 120px 120px;"/>
  <path class="cls-4" d="M 125.8 119.205 C 127.783 117.618 130.536 117.406 132.737 118.671 L 131.602 119.909 L 132.737 121.318 L 131.443 122.555 L 132.579 124.019 L 125.765 124.019 L 125.8 119.205 Z" style="transform-origin: 120px 120px;"/>
  <path class="cls-4" d="M 129.74 115.685 C 131.21 115.691 132.636 116.187 133.794 117.093 L 136.065 114.618 L 133.725 111.983 C 131.351 113.689 128.152 113.689 125.777 111.983 L 123.404 114.618 L 125.674 117.093 C 126.835 116.184 128.266 115.689 129.74 115.685 Z" style="transform-origin: 120px 120px;"/>
  <polygon class="cls-4" points="129.683 84.789 133.317 90.431 133.317 109.747 130.796 111.041 130.739 93.714 129.683 92.192 128.615 93.714 128.559 111.041 126.038 109.747 126.038 90.431 129.683 84.789" style="transform-origin: 120px 120px;"/>
  <path class="cls-4" d="M 159.899 107.453 C 160.012 106.533 161.035 105.296 160.546 104.466 C 160.318 104.184 160.009 103.979 159.66 103.876 C 159.014 103.819 158.365 103.819 157.718 103.876 C 156.583 103.876 155.448 103.876 154.381 103.876 C 152.33 104.075 150.348 104.714 148.566 105.75 C 144.922 107.748 142.742 110.746 141.685 115.39 C 141.354 117.112 141.297 118.874 141.515 120.613 C 144.092 119.558 147.976 114.936 148.499 112.915 L 150.77 112.915 C 149.77 116.389 145.978 120.352 143.366 122.259 C 140.229 124.664 136.435 126.057 132.488 126.257 C 130.728 126.359 128.661 126.188 127.06 126.37 C 127.356 126.722 128.196 127.721 128.446 127.926 C 128.025 128.368 127.447 129.062 127.06 129.538 C 127.447 130.038 128.196 130.833 128.446 131.071 C 128.173 131.48 127.412 132.207 127.06 132.797 L 134.021 132.797 C 138.699 132.797 143.184 130.526 145.638 128.925 C 146.114 129.062 146.103 129.209 146.364 129.504 C 146.608 129.829 146.699 130.243 146.614 130.64 C 146.614 130.935 146.614 131.037 146.841 130.889 C 147.412 130.423 147.939 129.906 148.419 129.345 C 148.618 128.973 148.667 128.538 148.555 128.13 C 148.487 127.937 148.317 127.642 148.237 127.472 C 148.178 127.367 148.143 127.251 148.135 127.131 L 149.543 125.916 C 149.677 126.037 149.798 126.17 149.907 126.314 C 150.201 126.612 150.322 127.041 150.225 127.449 C 150.225 127.721 150.327 127.823 150.554 127.642 C 150.781 127.46 151.689 126.597 151.927 126.245 C 152.151 125.887 152.218 125.451 152.11 125.042 C 152.005 124.665 151.831 124.311 151.598 123.997 C 152.041 123.565 152.484 123.122 152.904 122.68 C 153.492 122.961 153.879 123.54 153.914 124.19 C 153.914 124.508 154.029 124.406 154.199 124.19 C 154.64 123.672 155.021 123.103 155.334 122.499 C 155.448 122.245 155.48 121.964 155.425 121.692 C 155.272 121.252 155.007 120.861 154.653 120.557 C 155.016 120.108 155.346 119.633 155.641 119.137 C 156.209 119.689 156.634 120.371 156.879 121.124 C 157.174 121.86 157.142 122.686 156.788 123.396 C 155.8 125.155 149.77 131.446 146.012 133.206 C 147.011 134.966 149.248 139.042 150.554 141.393 C 147.999 141.393 146.284 144.118 146.205 145.742 C 146.206 146.942 146.532 148.119 147.147 149.149 C 147.545 149.83 151.689 157.551 151.689 157.551 C 152.275 158.431 152.176 159.598 151.451 160.367 C 150.519 161.502 146.341 165.477 145.285 166.476 L 144.377 165.625 C 143.707 165.216 142.874 165.182 142.174 165.534 C 141.822 165.829 140.391 167.215 140.391 167.215 C 140.096 167.475 140.301 167.509 140.619 167.475 C 141.06 167.382 141.521 167.455 141.912 167.68 C 142.315 168.033 142.694 168.412 143.048 168.815 C 142.571 169.256 142.13 169.734 141.731 170.246 C 141.357 171.038 141.471 171.975 142.026 172.653 C 142.196 172.857 143.264 173.925 143.616 174.243 C 143.414 173.641 143.535 172.977 143.934 172.483 C 144.252 172.188 145.376 171.041 145.376 171.041 C 145.376 171.041 146.795 172.608 147.136 172.948 C 147.984 173.636 149.191 173.659 150.065 173.006 C 150.452 172.688 151.201 171.756 151.36 171.586 C 151.519 171.415 151.519 171.257 151.36 171.279 C 150.685 171.415 149.988 171.207 149.498 170.723 C 149.6 170.598 151.099 169.111 152.904 167.317 C 153.2 167.021 153.609 167.384 154.04 167.589 C 154.578 167.764 155.169 167.643 155.596 167.271 L 156.572 166.306 C 156.777 166.09 156.89 166.011 156.799 165.92 C 156.708 165.829 156.538 165.829 156.129 165.829 C 155.72 165.829 155.448 165.522 155.05 165.193 L 155.914 164.341 C 156.368 163.865 157.049 164.341 157.355 164.478 C 157.885 164.603 158.441 164.458 158.843 164.092 L 159.809 163.115 C 160.012 162.911 160.138 162.82 160.047 162.741 C 159.956 162.661 159.774 162.65 159.365 162.65 C 158.957 162.65 158.695 162.343 158.287 162.003 L 159.32 160.992 C 159.701 160.851 160.128 160.911 160.455 161.151 C 161.006 161.405 161.656 161.302 162.102 160.89 C 162.102 160.89 163.34 159.754 163.487 159.595 C 163.635 159.436 163.635 159.244 163.487 159.266 C 163.272 159.289 163.055 159.289 162.84 159.266 C 162.397 159.23 161.988 159.018 161.705 158.675 C 160.762 156.949 157.424 150.988 156.946 149.932 C 156.85 149.644 156.85 149.334 156.946 149.046 C 157.101 148.611 157.419 148.253 157.832 148.047 C 158.085 148.015 158.34 148.015 158.593 148.047 C 160.16 147.934 162.204 147.956 163.646 147.809 C 165.472 147.272 166.973 145.966 167.756 144.232 C 168.314 141.903 168.132 130.004 168.098 127.914 C 168.122 127.435 168.398 127.003 168.824 126.779 C 169.426 126.545 170.014 126.276 170.584 125.972 C 171.29 125.491 171.715 124.693 171.72 123.838 L 171.72 121.567 C 171.72 121.147 171.402 121.249 171.288 121.442 C 171.195 121.581 171.08 121.704 170.948 121.805 C 170.462 122.181 169.878 122.406 169.267 122.453 C 168.778 122.572 168.344 122.858 168.04 123.26 C 168.04 122.566 168.04 121.896 168.04 121.238 C 168.071 120.7 168.353 120.208 168.801 119.909 C 169.222 119.614 169.8 119.614 170.561 119.103 C 171.27 118.618 171.694 117.815 171.697 116.957 L 171.697 114.686 C 171.697 114.266 171.413 114.413 171.299 114.606 C 171.205 114.737 171.103 114.863 170.993 114.982 C 170.618 115.447 169.709 115.424 169.188 115.514 C 168.702 115.616 168.275 115.901 167.995 116.31 L 167.995 114.811 C 167.952 114.222 168.139 113.64 168.517 113.187 C 168.851 112.776 169.34 112.521 169.869 112.483 C 170.607 112.483 171.129 111.632 171.344 111.347 C 171.614 110.885 171.726 110.346 171.663 109.814 L 171.663 107.998 C 171.663 107.612 171.447 107.703 171.299 107.907 C 170.992 108.241 170.6 108.484 170.163 108.611 C 168.937 108.793 167.631 108.464 166.405 108.611 C 164.974 108.831 163.767 109.795 163.237 111.143 C 163.053 111.692 162.973 112.269 162.999 112.846 C 163.101 114.437 162.999 116.059 162.999 117.661 L 162.999 134.568 C 163.052 135.083 163.013 135.601 162.886 136.101 C 162.886 136.101 162.579 136.681 162.579 136.692 C 162.192 137.282 161.522 137.169 160.648 136.692 C 160.237 136.436 159.944 136.028 159.831 135.556 L 159.899 107.453 Z" style="transform-origin: 120px 120px;"/>
  <path class="cls-4" d="M 140.221 98.709 C 138.8 98.819 137.377 98.531 136.11 97.881 C 135.205 97.365 134.744 96.318 134.975 95.303 C 135.066 95.098 135.247 95.031 135.36 95.212 C 135.644 95.633 136.088 95.92 136.588 96.007 C 137.529 96.086 138.54 96.007 139.529 96.007 C 139.834 96.007 140.368 95.87 140.528 96.007 C 140.686 96.143 141.049 96.858 141.14 97.006 C 141.238 97.166 141.215 97.372 141.084 97.505 C 140.827 97.929 140.539 98.331 140.221 98.709 Z" style="transform-origin: 120px 120px;"/>
  <path class="cls-4" d="M 170.584 87.843 C 170.227 88.192 169.808 88.469 169.346 88.66 C 168.731 88.778 168.109 88.86 167.484 88.91 C 166.626 89.122 165.904 89.699 165.509 90.488 C 165.156 90.158 164.775 89.858 164.372 89.592 C 164.892 88.691 165.635 87.939 166.53 87.411 C 167.162 87.12 167.862 87.011 168.552 87.093 C 169.588 87.049 170.491 86.373 170.823 85.39 C 170.948 84.936 171.004 84.084 170.527 84.448 C 170.417 84.537 170.299 84.617 170.176 84.686 C 169.838 84.846 169.484 84.963 169.119 85.038 C 168.546 85.055 167.973 84.994 167.416 84.856 C 166.788 84.793 166.153 84.815 165.531 84.925 C 164.92 85.031 164.326 85.226 163.771 85.503 C 163.495 85.669 163.239 85.867 163.01 86.094 L 155.664 86.094 C 155.027 85.162 153.922 84.666 152.802 84.811 C 151.81 84.873 150.936 85.481 150.531 86.389 C 150.531 86.616 150.531 86.696 150.804 86.696 C 151.503 86.72 152.054 87.302 152.041 88.002 L 152.041 90.352 L 145.716 90.352 C 144.569 90.492 143.405 90.372 142.31 90 C 141.71 89.734 141.282 89.184 141.175 88.535 C 141.175 88.467 140.993 88.535 140.936 88.535 C 139.516 89.131 138.56 90.484 138.472 92.021 C 138.682 93.867 140.259 95.253 142.117 95.223 C 142.574 95.916 142.995 96.633 143.378 97.369 C 143.843 96.813 144.343 95.995 144.751 95.462 C 145.342 95.462 147.227 95.405 147.227 95.405 L 148.363 97.278 C 148.884 96.631 149.327 96.052 149.827 95.405 C 150.895 95.325 153.233 95.405 154.369 95.405 C 154.704 95.412 155.038 95.39 155.369 95.337 C 155.906 95.185 156.408 94.927 156.844 94.576 C 157.173 94.315 157.333 93.736 157.844 93.759 C 158.354 93.781 158.9 93.634 159.365 94.406 C 159.769 94.92 159.888 95.602 159.683 96.223 C 159.624 97.089 159.097 97.855 158.309 98.221 C 157.173 98.664 154.29 98.312 152.961 98.391 C 151.633 98.471 148.487 98.391 147.091 98.391 C 146.866 97.96 146.592 97.556 146.273 97.187 C 146.012 97.427 145.478 98.324 145.217 98.426 C 144.717 98.562 144.081 98.357 143.627 98.482 C 141.878 98.948 140.005 101.003 140.982 103.24 C 141.324 103.954 141.937 104.501 142.684 104.762 C 143.423 105.023 143.445 104.66 143.445 104.353 C 143.445 103.354 144.445 102.536 145.331 102.184 C 146.252 101.962 147.201 101.882 148.147 101.946 C 150.259 101.946 158.366 101.821 160.717 101.832 C 161.165 101.795 161.604 101.692 162.023 101.525 C 162.63 101.741 163.135 102.174 163.442 102.74 C 163.745 103.241 163.842 103.839 163.714 104.41 C 163.533 105.023 163.885 104.853 164.089 104.739 C 164.908 104.229 165.352 103.287 165.224 102.332 C 165.117 101.614 164.783 100.95 164.27 100.435 C 164.452 100.318 164.623 100.185 164.781 100.038 C 164.915 99.918 165.04 99.789 165.157 99.652 C 165.662 99.936 166.103 100.323 166.45 100.787 C 166.756 101.324 166.957 101.913 167.041 102.524 C 167.041 102.9 167.268 102.877 167.507 102.524 C 167.91 101.899 168.078 101.151 167.983 100.413 C 167.773 99.369 167.211 98.427 166.394 97.745 C 166.536 97.421 166.654 97.086 166.746 96.745 C 167.808 97.094 168.632 97.943 168.949 99.016 C 169.017 99.345 169.097 99.493 169.188 99.254 C 169.31 98.973 169.386 98.674 169.415 98.369 C 169.613 96.3 168.89 94.248 167.439 92.76 C 167.965 92.71 168.475 92.551 168.937 92.294 C 169.911 91.664 170.59 90.67 170.823 89.534 C 170.851 89.024 170.851 88.512 170.823 88.002 C 170.823 87.832 170.732 87.741 170.584 87.843 Z M 156.459 91.42 C 156.22 90.84 155.141 89.047 154.699 88.195 C 156.613 88.663 158.555 89.016 160.512 89.251 C 159.547 89.694 157.253 90.989 156.459 91.42 Z" style="transform-origin: 120px 120px;"/>
  <path class="cls-4" d="M 134.668 118.876 L 134.724 123.577 C 136.331 123.412 137.869 122.845 139.199 121.93 C 139.059 120.918 139.037 119.893 139.131 118.876 L 134.668 118.876 Z" style="transform-origin: 120px 120px;"/>
  <path class="cls-1" d="M 95.436 82.915 L 91.508 86.321 L 87.567 82.915 L 83.752 89.807 L 91.508 101.026 L 99.263 89.807 L 95.436 82.915 Z M 91.508 93.895 L 90.179 95.712 L 85.864 89.546 L 88.044 85.742 L 91.451 88.729 L 94.858 85.742 L 97.026 89.546 L 92.711 95.712 L 91.508 93.895 Z" style="transform-origin: 120px 120px;"/>
  <path class="cls-1" d="M 74.168 92.691 L 76.144 97.472 L 71.739 100.174 L 77.121 105.932 L 90.179 102.025 L 81.913 91.192 L 74.168 92.691 Z M 83.343 99.799 L 84.718 101.639 L 77.518 103.841 L 74.577 100.595 L 78.484 98.221 L 76.712 94.008 L 81.004 93.111 L 85.546 99.129 L 83.343 99.799 Z" style="transform-origin: 120px 120px;"/>
  <path class="cls-1" d="M 101.091 91.192 L 92.825 102.025 L 105.883 105.932 L 111.276 100.174 L 106.86 97.472 L 108.835 92.691 L 101.091 91.192 Z M 97.469 99.141 L 102.011 93.123 L 106.303 94.019 L 104.532 98.233 L 108.438 100.606 L 105.497 103.854 L 98.298 101.65 L 99.683 99.81 L 97.469 99.141 Z" style="transform-origin: 120px 120px;"/>
  <path class="cls-1" d="M 76.849 115.958 L 82.015 115.549 L 83.218 120.579 L 90.361 117.241 L 90.679 103.614 L 77.825 108.157 L 76.849 115.958 Z M 86.455 109.429 L 88.635 108.691 L 88.499 116.208 L 84.502 118.013 L 83.457 113.562 L 78.915 113.937 L 79.392 109.587 L 86.511 107.135 L 86.455 109.429 Z" style="transform-origin: 120px 120px;"/>
  <path class="cls-1" d="M 99.785 120.546 L 100.989 115.514 L 106.155 115.923 L 105.191 108.1 L 92.314 103.558 L 92.644 117.184 L 99.785 120.546 Z M 96.549 109.405 L 96.549 107.135 L 103.669 109.587 L 104.146 113.937 L 99.603 113.562 L 98.559 118.013 L 94.562 116.219 L 94.38 108.657 L 96.549 109.405 Z" style="transform-origin: 120px 120px;"/>
  <polygon class="cls-4" points="91.508 93.827 90.19 95.712 85.864 89.546 88.044 85.742 91.508 88.717 94.971 85.742 97.14 89.546 92.825 95.712 91.508 93.827" style="transform-origin: 120px 120px;"/>
  <polygon class="cls-4" points="83.343 99.799 84.718 101.639 77.518 103.841 74.577 100.595 78.484 98.221 76.712 94.008 81.004 93.111 85.535 99.129 83.343 99.799" style="transform-origin: 120px 120px;"/>
  <polygon class="cls-4" points="99.661 99.799 98.286 101.639 105.485 103.841 108.426 100.595 104.532 98.221 106.292 94.008 101.999 93.111 97.469 99.129 99.661 99.799" style="transform-origin: 120px 120px;"/>
  <polygon class="cls-4" points="86.432 109.429 88.613 108.691 88.476 116.208 84.479 118.013 83.434 113.562 78.869 113.937 79.347 109.587 86.466 107.135 86.432 109.429" style="transform-origin: 120px 120px;"/>
  <polygon class="cls-4" points="96.549 109.405 96.515 107.1 103.634 109.554 104.112 113.914 99.547 113.539 98.502 117.979 94.506 116.185 94.38 108.657 96.549 109.405" style="transform-origin: 120px 120px;"/>
</svg>