<svg id="Layer_1" data-name="Layer 1" width="240" height="240" xmlns="http://www.w3.org/2000/svg" viewBox="0 0 240 240"><defs><style>.cls-1{fill:none;}.cls-2{fill:#182865;}.cls-3{fill:#c1ad76;}.cls-4{fill:#fff;}.cls-5{fill:#0056a4;}</style></defs><path class="cls-1" d="M120,197.83A77.83,77.83,0,1,1,197.83,120,77.93,77.93,0,0,1,120,197.83"/><path class="cls-2" d="M120,196.51A76.51,76.51,0,1,1,196.51,120,76.59,76.59,0,0,1,120,196.51"/><path class="cls-3" d="M120,190.72A70.73,70.73,0,1,1,190.73,120,70.8,70.8,0,0,1,120,190.72"/><path class="cls-4" d="M120,187.83A67.83,67.83,0,1,0,52.17,120,67.91,67.91,0,0,0,120,187.83"/><path class="cls-2" d="M184.94,120A64.94,64.94,0,1,1,120,55.06,64.94,64.94,0,0,1,184.94,120"/><path class="cls-5" d="M90.8,178a65,65,0,0,0,58.4,0V62a65.07,65.07,0,0,0-58.4,0Z"/><path class="cls-4" d="M134.25,78H66.75a69.17,69.17,0,0,0-5,7.17h44.06c1.77,0,2.64,1.45,0,3.22L52.32,124.52q.15,2.28.45,4.53H63.7S132.86,82.4,135,81c1.86-1.24,1.05-3-.72-3m-1.68,43.2c-1.77,0-2.64-1.44,0-3.21l46.49-31.35a67.18,67.18,0,0,0-5.8-8.64h-2.71c.67,1,0,2.17-1.55,3.22L98.06,129.05h89.17a69.68,69.68,0,0,0,.59-7.83ZM160.85,78H144.31c.66,1,0,2.17-1.56,3.22L71.83,129.05H89.94l70.92-47.81c2.62-1.77,1.75-3.22,0-3.22"/><path class="cls-3" d="M75.77,146a1.54,1.54,0,0,1,0,.31l-2.78-.06-.07-6.59H94.59l0,2.78-14.8,14.46h3.84a33,33,0,0,0,5.6-.31,2.49,2.49,0,0,0,1.54-1.1,7.39,7.39,0,0,0,.63-1.88l0-1.2,3.33,0-.23,6.9H72.18v-2.38l15.55-14.71H80.39a10.65,10.65,0,0,0-2.45.32,2.22,2.22,0,0,0-1.26.77,5.86,5.86,0,0,0-.91,2.72"/><path class="cls-3" d="M110.87,151.94H109a8.07,8.07,0,0,0-.21-1.33,4.45,4.45,0,0,0-.38-1,1.46,1.46,0,0,0-.87-.64,5.34,5.34,0,0,0-1.65-.21l-3.72,0v3.59h1.44a0,0,0,0,0,0,0h.11a2.68,2.68,0,0,0,.68-.07,1,1,0,0,0,.44-.22.89.89,0,0,0,.25-.45,2.43,2.43,0,0,0,.09-.7v-.69h1.9v5.89h-1.9v-.74a2.73,2.73,0,0,0-.08-.69.78.78,0,0,0-.24-.42.89.89,0,0,0-.48-.21,3.63,3.63,0,0,0-.81-.07l-1.44,0v4h4l0,0h.07a3.06,3.06,0,0,0,1.22-.22,1.88,1.88,0,0,0,.83-.64,2.89,2.89,0,0,0,.51-1.13,7.62,7.62,0,0,0,.17-1.7l2,0-.1,5.3H96.44v-1.52h1.1a.12.12,0,0,0,.08,0h.06a2,2,0,0,0,.45,0,.78.78,0,0,0,.29-.14.55.55,0,0,0,.19-.26,1,1,0,0,0,.07-.41v-7.6a.9.9,0,0,0-.07-.37.55.55,0,0,0-.19-.26.89.89,0,0,0-.34-.14,2.12,2.12,0,0,0-.54-.06l-1.1,0v-1.53h14.43Z"/><path class="cls-3" d="M121.37,157.87a4.55,4.55,0,0,0,1.79-.24,1.66,1.66,0,0,0,.92-.84,6,6,0,0,0,.35-1.24,8.42,8.42,0,0,0,.15-1.48l2,0v5.43H112.73v-1.52h1.1a.12.12,0,0,0,.08,0H114a2,2,0,0,0,.44,0,.78.78,0,0,0,.29-.14.65.65,0,0,0,.2-.26,1.22,1.22,0,0,0,.06-.41v-7.6a1.15,1.15,0,0,0-.06-.37.65.65,0,0,0-.2-.26.89.89,0,0,0-.34-.14,2.12,2.12,0,0,0-.54-.06l-1.1,0v-1.53h8.13v1.53H119.6a4.42,4.42,0,0,0-.54.1.88.88,0,0,0-.35.14.55.55,0,0,0-.19.26,1.27,1.27,0,0,0-.06.41v8.32Z"/><path class="cls-3" d="M135.79,150.13a1.68,1.68,0,0,0,.13-.28,1,1,0,0,0,.08-.22.77.77,0,0,0,.05-.17.76.76,0,0,0,0-.15.62.62,0,0,0-.05-.25.46.46,0,0,0-.16-.18.74.74,0,0,0-.25-.11,2.33,2.33,0,0,0-.4,0l-1.1,0v-1.59h6.25v1.59a5.7,5.7,0,0,0-1,.13,1.36,1.36,0,0,0-.58.26,1.55,1.55,0,0,0-.33.39,2.9,2.9,0,0,0-.24.5l0,.08a.25.25,0,0,0,0,.08.16.16,0,0,0,0,.09.2.2,0,0,1,0,.08.3.3,0,0,1,0,.08.37.37,0,0,0,0,.09,1,1,0,0,1,0,.1.56.56,0,0,1,0,.08l-4,8.8h-3.17l-4.33-9.33a2.39,2.39,0,0,0-.13-.21,2.14,2.14,0,0,1-.1-.22l-.12-.19a.89.89,0,0,1-.09-.16,1.53,1.53,0,0,0-.33-.34,1.41,1.41,0,0,0-.37-.18,5,5,0,0,0-.53-.07l-.74,0v-1.63H132v1.59h-1l-.45.06a1.37,1.37,0,0,0-.29.07.44.44,0,0,0-.16.14.38.38,0,0,0-.05.19v.08a.24.24,0,0,0,0,.09.2.2,0,0,0,0,.09l0,.08v0h0v0a.08.08,0,0,0,0,0l0,0a.09.09,0,0,0,0,.05s0,0,0,.07v0h0s0,0,0,0,0,0,0,0l2.81,6.46Z"/><path class="cls-3" d="M141.5,147.11H149v1.53h-.91a4.82,4.82,0,0,0-.54.1.89.89,0,0,0-.34.14.65.65,0,0,0-.2.26,1.27,1.27,0,0,0-.06.41v7.52a1.37,1.37,0,0,0,.06.44.68.68,0,0,0,.2.27.76.76,0,0,0,.34.15,2.16,2.16,0,0,0,.54,0l.91,0v1.52H141.5v-1.52h.83a.15.15,0,0,0,.09,0h.06a1.89,1.89,0,0,0,.44,0,.84.84,0,0,0,.3-.14.55.55,0,0,0,.19-.26,1.21,1.21,0,0,0,.07-.41v-7.6a1.16,1.16,0,0,0-.07-.37.55.55,0,0,0-.19-.26.88.88,0,0,0-.35-.14,2.06,2.06,0,0,0-.54-.06l-.83,0Z"/><path class="cls-3" d="M155.31,155.57l0,.09a.12.12,0,0,0,0,.08.73.73,0,0,1-.05.09.3.3,0,0,1,0,.08,1.21,1.21,0,0,1,0,.14,1.09,1.09,0,0,1-.08.15.37.37,0,0,1-.05.11l0,.11s0,0,0,.05,0,0,0,.05l0,0s0,0,0,.06a.72.72,0,0,0-.1.22l-.07.22c0,.08,0,.15-.05.22a1.83,1.83,0,0,0,0,.21.59.59,0,0,0,0,.23.31.31,0,0,0,.19.14l.34.06h.6l.62,0v1.55h-6.28v-1.55l.05,0h.16a5.9,5.9,0,0,0,.63,0,4,4,0,0,0,.49-.11,1.21,1.21,0,0,0,.44-.32,2.61,2.61,0,0,0,.41-.57l.08-.18.09-.16a.25.25,0,0,1,0-.07l0-.09a.3.3,0,0,0,0-.08.25.25,0,0,0,0-.07v0s0,0,0,0l0,0s0,0,0,0,0,0,0,0a.37.37,0,0,0,.06-.1l.07-.1a.93.93,0,0,1,0-.1.37.37,0,0,0,.05-.11,1,1,0,0,0,.12-.2,2,2,0,0,0,.09-.22l3.72-8.13h3.21l4.4,8.87a.64.64,0,0,1,.06.16.75.75,0,0,0,.07.12.5.5,0,0,0,.05.13.37.37,0,0,1,0,.11.41.41,0,0,1,.07.11.3.3,0,0,0,.06.11.31.31,0,0,0,0,.1l.06.09a3,3,0,0,0,.36.48,1.89,1.89,0,0,0,.42.31,1.72,1.72,0,0,0,.58.19,5.3,5.3,0,0,0,.86.05v1.52h-7.83v-1.55h.74l.07,0h.17a2.33,2.33,0,0,0,.4,0,1.77,1.77,0,0,0,.29-.07.49.49,0,0,0,.23-.15.32.32,0,0,0,.07-.22,1.23,1.23,0,0,0,0-.19c0-.07,0-.15-.06-.24s-.06-.15-.1-.23a1.84,1.84,0,0,1-.09-.25l-.05-.07,0-.07s0,0,0-.08a.39.39,0,0,1,0-.09l-.09-.18a.71.71,0,0,0-.08-.15l-.08-.16a.91.91,0,0,0-.07-.14v0Zm2.47-5.77L156,153.51h3.78Z"/><path class="cls-3" d="M102.84,141.47h-.92a3,3,0,0,0,0-.53,2.72,2.72,0,0,0-.15-.43.59.59,0,0,0-.36-.28,2,2,0,0,0-.7-.1l-1.63,0v1.48h.7l.29,0a.51.51,0,0,0,.18-.08.35.35,0,0,0,.1-.17,1.17,1.17,0,0,0,0-.29v-.28h.86v2.43h-.86v-.3a1.42,1.42,0,0,0,0-.31.39.39,0,0,0-.1-.18.46.46,0,0,0-.2-.09,1.69,1.69,0,0,0-.35,0l-.62,0v1.34a.48.48,0,0,0,0,.18.31.31,0,0,0,.09.11l.16.06h.93v.64H96.43V144h.77l.14-.06a.18.18,0,0,0,.08-.11.31.31,0,0,0,0-.17v-3.16a.26.26,0,0,0,0-.15.18.18,0,0,0-.08-.11.34.34,0,0,0-.16-.06.94.94,0,0,0-.25,0l-.5,0v-.64h6.41Z"/><path class="cls-3" d="M109.61,141.51h-.94a1.66,1.66,0,0,0-.16-.6,1.28,1.28,0,0,0-.36-.45,1.6,1.6,0,0,0-.53-.29,2.4,2.4,0,0,0-.69-.09,2.13,2.13,0,0,0-.78.13,1.49,1.49,0,0,0-.6.39,1.61,1.61,0,0,0-.38.61,2.3,2.3,0,0,0-.13.81,2.7,2.7,0,0,0,.12.84,1.63,1.63,0,0,0,.36.63,1.71,1.71,0,0,0,.6.38,2.44,2.44,0,0,0,.8.13,2.78,2.78,0,0,0,.67-.09,1.55,1.55,0,0,0,.54-.28,1.41,1.41,0,0,0,.39-.45,1.85,1.85,0,0,0,.24-.61h1a2.55,2.55,0,0,1-.32.94,2.24,2.24,0,0,1-.65.69,2.78,2.78,0,0,1-.94.42,4.86,4.86,0,0,1-1.19.14,4.58,4.58,0,0,1-1.32-.18,3.44,3.44,0,0,1-1.07-.57,2.58,2.58,0,0,1-.71-.85,2.46,2.46,0,0,1-.23-1.06,2.45,2.45,0,0,1,.94-2,3.46,3.46,0,0,1,1.09-.58,4.43,4.43,0,0,1,1.36-.19h.36l.33,0a1.55,1.55,0,0,1,.31.06l.3.1.15.07.16.08.15.08.17.09.21-.44h.77Z"/><path class="cls-3" d="M118.89,142.6l1.62-3.15h3v.64H123l-.25,0a.49.49,0,0,0-.16.06.23.23,0,0,0-.08.11.4.4,0,0,0,0,.17v3.13a.48.48,0,0,0,0,.18.28.28,0,0,0,.08.11.34.34,0,0,0,.16.06l.25,0h.5v.63h-3.63V144h.77l.13-.06a.24.24,0,0,0,.09-.11.43.43,0,0,0,0-.17v-2.93l-2,3.91h-.73l-2-4v3a.48.48,0,0,0,0,.18.31.31,0,0,0,.09.11.3.3,0,0,0,.16.06l.24,0h.45v.63h-3V144h.77l.13-.06a.24.24,0,0,0,.09-.11.43.43,0,0,0,0-.17v-3.16a.37.37,0,0,0,0-.15.24.24,0,0,0-.09-.11.49.49,0,0,0-.16-.06.82.82,0,0,0-.24,0l-.5,0v-.64h3.15Z"/><path class="cls-3" d="M125.65,143l0,0a0,0,0,0,0,0,0l0,0,0,0s0,0,0,.06,0,0,0,.06,0,0,0,.05l0,.05h0v.07a.41.41,0,0,0,0,.09l0,.1a.29.29,0,0,0,0,.09.25.25,0,0,0,0,.08.3.3,0,0,0,0,.1.2.2,0,0,0,.09.06l.15,0h.28l.28,0v.65h-2.86v-.65h.09l.29,0,.22,0a.8.8,0,0,0,.21-.13,1.66,1.66,0,0,0,.18-.24.3.3,0,0,1,0-.08l0-.06,0,0s0,0,0,0l0,0,0,0h0v0h0s0,0,0,0h0l0,0,0,0,0,0,0-.05,0-.08,0-.1,1.7-3.38h1.46l2,3.69a.25.25,0,0,1,0,.07l0,0,0,.05s0,0,0,.05,0,0,0,0l0,0s0,0,0,0l0,0a1.63,1.63,0,0,0,.17.2,1,1,0,0,0,.18.13,1,1,0,0,0,.27.07,2.06,2.06,0,0,0,.39,0v.63H127.5v-.65h.62l.14,0,.1-.06a.16.16,0,0,0,0-.09.19.19,0,0,0,0-.08.22.22,0,0,0,0-.1,1,1,0,0,1,0-.1.3.3,0,0,1,0-.1s0,0,0,0,0,0,0,0l0,0s0,0,0,0,0-.05,0-.08l0-.06,0-.07,0,0v0Zm1.12-2.35-.82,1.69h1.73Z"/><path class="cls-3" d="M137,141.51h-.93a1.66,1.66,0,0,0-.16-.6,1.55,1.55,0,0,0-.36-.45,1.6,1.6,0,0,0-.53-.29,2.5,2.5,0,0,0-.69-.09,2.13,2.13,0,0,0-.78.13,1.42,1.42,0,0,0-.6.39,1.77,1.77,0,0,0-.39.61,2.55,2.55,0,0,0-.12.81,2.7,2.7,0,0,0,.12.84,1.63,1.63,0,0,0,.36.63,1.71,1.71,0,0,0,.6.38,2.39,2.39,0,0,0,.8.13,2.7,2.7,0,0,0,.66-.09,1.51,1.51,0,0,0,.55-.28,1.71,1.71,0,0,0,.39-.45,1.85,1.85,0,0,0,.24-.61h1a2.55,2.55,0,0,1-.32.94,2.37,2.37,0,0,1-.65.69,2.87,2.87,0,0,1-.94.42,4.92,4.92,0,0,1-1.19.14,4.53,4.53,0,0,1-1.32-.18,3.33,3.33,0,0,1-1.07-.57,2.47,2.47,0,0,1-.71-.85,2.32,2.32,0,0,1-.23-1.06,2.45,2.45,0,0,1,.94-2,3.3,3.3,0,0,1,1.08-.58,4.49,4.49,0,0,1,1.37-.19h.36l.33,0a1.59,1.59,0,0,1,.3.06l.31.1.15.07.15.08.16.08.16.09.21-.44H137Z"/><path class="cls-3" d="M140.49,142.27v1.33a.48.48,0,0,0,0,.18.44.44,0,0,0,.08.11.38.38,0,0,0,.16.06l.25,0h.41v.63h-3.54V144h.77l.13-.06a.24.24,0,0,0,.09-.11.43.43,0,0,0,0-.17v-3.16a.37.37,0,0,0,0-.15.24.24,0,0,0-.09-.11.42.42,0,0,0-.15-.06.94.94,0,0,0-.25,0l-.5,0v-.64h3.54v.64H141l-.25,0a.59.59,0,0,0-.16.06.31.31,0,0,0-.08.11.4.4,0,0,0,0,.17v1.1h2.56v-1.12a.37.37,0,0,0,0-.15.31.31,0,0,0-.08-.11.59.59,0,0,0-.16-.06.94.94,0,0,0-.25,0l-.41,0v-.64h3.54v.64h-.5l-.25,0a.59.59,0,0,0-.16.06.31.31,0,0,0-.08.11.4.4,0,0,0,0,.17v3.13a.48.48,0,0,0,0,.18.44.44,0,0,0,.08.11.38.38,0,0,0,.16.06l.25,0h.5v.63h-3.54V144h.68l.14-.06a.31.31,0,0,0,.08-.11.43.43,0,0,0,0-.17v-1.34Z"/><path class="cls-3" d="M146.5,139.45H150v.64h-.41l-.24,0a.34.34,0,0,0-.16.06.24.24,0,0,0-.09.11.4.4,0,0,0,0,.17v3.12a.5.5,0,0,0,0,.19.24.24,0,0,0,.09.11.34.34,0,0,0,.16.06l.24,0H150v.63H146.5V144h.57a.62.62,0,0,0,.2,0,.27.27,0,0,0,.13-.05.24.24,0,0,0,.09-.11.43.43,0,0,0,0-.17v-3.16a.37.37,0,0,0,0-.15.24.24,0,0,0-.09-.11.3.3,0,0,0-.15-.06.94.94,0,0,0-.25,0l-.5,0Z"/><path class="cls-3" d="M150.84,139.45h4.26a4.48,4.48,0,0,1,1.22.18,2.73,2.73,0,0,1,.93.48,2.13,2.13,0,0,1,.59.78,2.78,2.78,0,0,1,.19,1,2.6,2.6,0,0,1-.22,1.1,2.36,2.36,0,0,1-.64.84,2.79,2.79,0,0,1-1,.55,4.37,4.37,0,0,1-1.29.18h-4V144h.77l.14-.06a.24.24,0,0,0,.09-.11.44.44,0,0,0,0-.17v-3.16a.36.36,0,0,0,0-.15.24.24,0,0,0-.09-.11.34.34,0,0,0-.16-.06.9.9,0,0,0-.24,0l-.51,0Zm3.43,4.48h.13a3.17,3.17,0,0,0,.45,0l.34-.06a1,1,0,0,0,.3-.13,1.57,1.57,0,0,0,.26-.19,2.34,2.34,0,0,0,.24-.31,2.48,2.48,0,0,0,.17-.37,1.7,1.7,0,0,0,.1-.43,2.82,2.82,0,0,0,0-.52,2.38,2.38,0,0,0-.11-.73,1.51,1.51,0,0,0-.33-.56,1.29,1.29,0,0,0-.59-.36,3.07,3.07,0,0,0-.92-.12l-.9,0v3.82Z"/><path class="cls-3" d="M160.31,143a.05.05,0,0,1,0,0s0,0,0,0a.05.05,0,0,1,0,0s0,0,0,0l0,.06,0,.06,0,.05,0,.05h0v0l0,0v0a.36.36,0,0,0,0,.09l0,.1a.29.29,0,0,1,0,.09s0,.06,0,.08a.16.16,0,0,0,.11.16l.16,0h.27l.28,0v.65H158v-.65h.1l.28,0,.23,0a.63.63,0,0,0,.2-.13.89.89,0,0,0,.18-.24.3.3,0,0,0,0-.08l0-.06,0,0s0,0,0,0l0,0,0,0h0s0,0,0,0h0v0h0l0,0s0,0,0,0l0,0a.17.17,0,0,0,0-.05l.06-.08a1,1,0,0,1,0-.1l1.69-3.38h1.47l2,3.69a.13.13,0,0,1,0,.07l0,0,0,.05,0,.05,0,0s0,0,0,0a.08.08,0,0,0,0,0l0,0a.93.93,0,0,0,.36.33.89.89,0,0,0,.26.07,2.25,2.25,0,0,0,.4,0v.63h-3.57v-.65h.63l.13,0,.1-.06a.12.12,0,0,0,0-.09.19.19,0,0,0,0-.08l0-.1-.05-.1a1,1,0,0,1,0-.1l0,0,0,0,0,0a.08.08,0,0,0,0,0l0-.08,0-.06s0-.05,0-.07,0,0,0,0v0Zm1.13-2.35-.82,1.69h1.72Z"/><path class="cls-4" d="M103.23,166.55h-.65s0,0,0,0h0s0,0,0-.06a.13.13,0,0,1,0-.06.09.09,0,0,1,0,0s0,0,0,0a.14.14,0,0,0,0-.09.59.59,0,0,1,0-.08l0,0s0,0,0,0l0,0h0l0,0v0a1.8,1.8,0,0,0-.2-.18,1.48,1.48,0,0,0-.25-.14,1.42,1.42,0,0,0-.29-.1,1.57,1.57,0,0,0-.3-.05h-.08a2.22,2.22,0,0,0-.38,0,1.25,1.25,0,0,0-.31.11.52.52,0,0,0-.19.16.36.36,0,0,0-.07.22.27.27,0,0,0,.09.21.47.47,0,0,0,.24.15l.36.1.42.08h.11l.11,0h.24a5.09,5.09,0,0,1,.56.14,3.89,3.89,0,0,1,.51.21.83.83,0,0,1,.37.32,1.05,1.05,0,0,1,.12.52,1.17,1.17,0,0,1-.13.57,1.11,1.11,0,0,1-.37.41,2,2,0,0,1-.61.25,3.27,3.27,0,0,1-.81.08h-.15l-.36,0-.36-.08a2,2,0,0,1-.34-.12,1.37,1.37,0,0,1-.3-.19l-.14.31h-.56V167.6H100l0,.11,0,.1a.08.08,0,0,0,0,0,0,0,0,0,1,0,0v0l0,0s0,0,0,.06l0,0,0,0,0,0,0,0s0,0,0,0h0a0,0,0,0,0,0,0h0a.74.74,0,0,0,.21.17,1.4,1.4,0,0,0,.3.15l.35.09a2.43,2.43,0,0,0,.38,0,1.83,1.83,0,0,0,.35,0,1.25,1.25,0,0,0,.29-.11.77.77,0,0,0,.19-.16.36.36,0,0,0,.06-.2.61.61,0,0,0,0-.15.27.27,0,0,0-.06-.1l-.12-.08a1.27,1.27,0,0,0-.21-.07l-.11,0-.13,0-.15,0-.16,0-.71-.15a2.78,2.78,0,0,1-.55-.13,2,2,0,0,1-.44-.19.75.75,0,0,1-.3-.31,1.22,1.22,0,0,1-.1-.49,1.2,1.2,0,0,1,.13-.54,1.11,1.11,0,0,1,.39-.42,1.82,1.82,0,0,1,.6-.26,3.24,3.24,0,0,1,.79-.09,2.6,2.6,0,0,1,.4,0,2.08,2.08,0,0,1,.36.06,2,2,0,0,1,.31.12,1.83,1.83,0,0,1,.3.18l.1-.28h.55Z"/><path class="cls-4" d="M103.87,165.14h2.58v.49h-.3a.84.84,0,0,0-.18,0l-.11,0a.15.15,0,0,0-.06.09.21.21,0,0,0,0,.12v2.38a.26.26,0,0,0,0,.14.15.15,0,0,0,.06.09.28.28,0,0,0,.11,0h.48v.48h-2.58v-.48h.41l.15,0,.1,0a.16.16,0,0,0,.06-.08.27.27,0,0,0,0-.13V165.9a.2.2,0,0,0,0-.11.15.15,0,0,0-.06-.09l-.12,0-.18,0h-.36Z"/><path class="cls-4" d="M111.38,167.83V165.9a.2.2,0,0,0,0-.11.15.15,0,0,0-.06-.09l-.11,0-.18,0h-.33v-.49h2.1v.49h-.28a.84.84,0,0,0-.18,0l-.11,0a.22.22,0,0,0-.07.09.37.37,0,0,0,0,.12v3.14H111l-2.35-2.74v2a.3.3,0,0,0,0,.14.15.15,0,0,0,.06.09.33.33,0,0,0,.12,0h.54v.48h-2.22v-.48h.41l.15,0,.1,0a.16.16,0,0,0,.06-.08.51.51,0,0,0,0-.13V165.9a.36.36,0,0,0,0-.11.15.15,0,0,0-.06-.09l-.12,0-.18,0h-.36v-.49h1.93Z"/><path class="cls-4" d="M117.15,166.71h-.68a1.48,1.48,0,0,0-.12-.45,1,1,0,0,0-.26-.35,1.16,1.16,0,0,0-.39-.22,1.59,1.59,0,0,0-.5-.07,1.45,1.45,0,0,0-.57.1,1,1,0,0,0-.44.3,1.27,1.27,0,0,0-.28.46,2,2,0,0,0-.09.61,2.13,2.13,0,0,0,.09.65,1.19,1.19,0,0,0,.26.47,1.09,1.09,0,0,0,.44.29,1.5,1.5,0,0,0,.58.1,1.53,1.53,0,0,0,.49-.07,1.1,1.1,0,0,0,.4-.21,1.19,1.19,0,0,0,.28-.34,1.53,1.53,0,0,0,.17-.47h.72a1.91,1.91,0,0,1-.24.72,1.56,1.56,0,0,1-.47.52,2,2,0,0,1-.69.33,3.35,3.35,0,0,1-.87.1,2.93,2.93,0,0,1-1-.14,2.27,2.27,0,0,1-.78-.42,2.06,2.06,0,0,1-.51-.65,1.85,1.85,0,0,1-.18-.81,2,2,0,0,1,.69-1.53,2.55,2.55,0,0,1,.79-.44,3.13,3.13,0,0,1,1-.15h.26l.24,0,.23.05a1.19,1.19,0,0,1,.22.08l.11.05.11.06.11.06.13.07.15-.34h.56Z"/><path class="cls-4" d="M122.45,166.67h-.63a1.75,1.75,0,0,0-.07-.42,1.19,1.19,0,0,0-.12-.32.51.51,0,0,0-.29-.21,2,2,0,0,0-.55-.06h-1.24v1.13h.53a.75.75,0,0,0,.23,0,.21.21,0,0,0,.14-.07.24.24,0,0,0,.09-.14.69.69,0,0,0,0-.22v-.22h.63V168h-.63v-.24a.73.73,0,0,0,0-.22.22.22,0,0,0-.08-.13.34.34,0,0,0-.16-.07l-.27,0h-.48v1.26h1.37a1,1,0,0,0,.4-.07.58.58,0,0,0,.28-.2,1,1,0,0,0,.17-.36,2.73,2.73,0,0,0,0-.53h.66l0,1.67h-4.8v-.48h.42l.14,0a.34.34,0,0,0,.1,0,.16.16,0,0,0,.06-.08.28.28,0,0,0,0-.13V165.9a.2.2,0,0,0,0-.11.15.15,0,0,0-.06-.09l-.11,0-.18,0h-.37v-.49h4.8Z"/><path class="cls-4" d="M127.2,168.26a.32.32,0,0,0,0,.14.22.22,0,0,0,.07.09l.13,0h.78v.51h-3.16v-.51h.6l.17,0,.1,0a.18.18,0,0,0,.07-.08.32.32,0,0,0,0-.14v-2h-1v-.52h.1l.48-.07a1.5,1.5,0,0,0,.34-.12,1,1,0,0,0,.25-.21,1.21,1.21,0,0,0,.19-.34h.79Z"/><path class="cls-4" d="M130.92,167.46l-.1,0h0l0,0-.06,0h0l-.07,0-.07,0h-.07l-.08,0H130a2.37,2.37,0,0,1-.68-.1,1.39,1.39,0,0,1-.49-.28,1.56,1.56,0,0,1-.3-.44,1.19,1.19,0,0,1-.1-.51,1.08,1.08,0,0,1,.13-.54,1.31,1.31,0,0,1,.39-.43,1.91,1.91,0,0,1,.59-.29,3,3,0,0,1,.75-.09,2.53,2.53,0,0,1,.82.12,1.56,1.56,0,0,1,.61.37,1.73,1.73,0,0,1,.39.6,2.46,2.46,0,0,1,.13.81,3.06,3.06,0,0,1-.14,1,2,2,0,0,1-.43.71,1.76,1.76,0,0,1-.69.43,2.87,2.87,0,0,1-.92.14,2.8,2.8,0,0,1-.6-.05,1.3,1.3,0,0,1-.47-.16.85.85,0,0,1-.3-.25.56.56,0,0,1-.11-.32.42.42,0,0,1,.05-.2.47.47,0,0,1,.15-.17.7.7,0,0,1,.21-.11,1,1,0,0,1,.26,0,.85.85,0,0,1,.23,0,.44.44,0,0,1,.18.09.49.49,0,0,1,.14.15.47.47,0,0,1,0,.17s0,.05,0,.07a.14.14,0,0,1,0,.06l0,.06-.06.06v0h0l0,0,0,0,0,0h.07l.07,0h.19a1.34,1.34,0,0,0,.46-.08.86.86,0,0,0,.33-.23.9.9,0,0,0,.2-.39,1.49,1.49,0,0,0,.09-.54v0l-.1.06m-1.22-.82a.87.87,0,0,0,.14.27.57.57,0,0,0,.22.17.68.68,0,0,0,.29.06.72.72,0,0,0,.27,0,.8.8,0,0,0,.21-.15.75.75,0,0,0,.13-.25.88.88,0,0,0,0-.33,1.07,1.07,0,0,0,0-.37.58.58,0,0,0-.14-.27.76.76,0,0,0-.22-.18.84.84,0,0,0-.29,0,.76.76,0,0,0-.27,0,.56.56,0,0,0-.21.17.71.71,0,0,0-.13.26,1.09,1.09,0,0,0,0,.33h0a1.23,1.23,0,0,0,0,.35"/><path class="cls-4" d="M133.48,167l-.08,0-.08-.05-.07,0-.18-.16-.13-.16a.7.7,0,0,1-.06-.19,1.49,1.49,0,0,1,0-.21.88.88,0,0,1,.13-.49,1.32,1.32,0,0,1,.39-.39,2.1,2.1,0,0,1,.61-.24,3.25,3.25,0,0,1,.79-.08,3.48,3.48,0,0,1,.67.06,2.09,2.09,0,0,1,.53.21,1,1,0,0,1,.34.31.65.65,0,0,1,.12.39.85.85,0,0,1,0,.23,1.07,1.07,0,0,1-.07.19l-.14.16a.94.94,0,0,1-.22.15l0,0,0,0,0,0,0,0h0l0,0,0,0,0,0a1.85,1.85,0,0,1,.4.18,1.46,1.46,0,0,1,.3.22,1,1,0,0,1,.18.28.83.83,0,0,1,.06.32,1.12,1.12,0,0,1-.13.53,1.33,1.33,0,0,1-.41.41,2,2,0,0,1-.62.26,4,4,0,0,1-.81.08,3.84,3.84,0,0,1-.8-.07,1.53,1.53,0,0,1-.58-.21,1,1,0,0,1-.37-.36,1,1,0,0,1-.12-.48.85.85,0,0,1,0-.23.42.42,0,0,1,.08-.18.47.47,0,0,1,.15-.17,1.4,1.4,0,0,1,.22-.16l0,0,0,0,0,0,0,0,.08,0,.09,0h0l-.1,0m.57.36-.1.07-.09.08-.07.07a.56.56,0,0,0-.09.17.34.34,0,0,0,0,.18.67.67,0,0,0,.06.28.7.7,0,0,0,.21.21,1,1,0,0,0,.33.13,2.09,2.09,0,0,0,.45,0,2,2,0,0,0,.36,0,.92.92,0,0,0,.29-.11.54.54,0,0,0,.2-.16.32.32,0,0,0,.06-.2.35.35,0,0,0-.06-.19.69.69,0,0,0-.2-.17,1.51,1.51,0,0,0-.28-.15l-.3-.12-.16-.05-.17,0-.14,0-.13,0h0l-.14.08m1.27-.94a.73.73,0,0,0,.16-.14.8.8,0,0,0,.09-.14.32.32,0,0,0,0-.16.44.44,0,0,0-.07-.22.53.53,0,0,0-.19-.17,1,1,0,0,0-.28-.11,2,2,0,0,0-.36,0,2.25,2.25,0,0,0-.38,0,.77.77,0,0,0-.28.1.38.38,0,0,0-.18.14.34.34,0,0,0-.07.19.24.24,0,0,0,0,.08.2.2,0,0,0,0,.08l.07.07.11.06,0,0h0l0,0,0,0,.11,0,.11,0,.05,0,0,0,.07,0,.06,0h.11l.08,0,.08,0,.08,0,.1,0v0a1.26,1.26,0,0,0,.23-.13"/><path class="cls-4" d="M139.73,167.46l-.09,0h0l0,0-.06,0h0l-.08,0-.07,0h-.07l-.08,0h-.3a2.27,2.27,0,0,1-.68-.1,1.35,1.35,0,0,1-.5-.28,1.56,1.56,0,0,1-.3-.44,1.19,1.19,0,0,1-.1-.51,1.08,1.08,0,0,1,.13-.54,1.31,1.31,0,0,1,.39-.43,1.91,1.91,0,0,1,.59-.29,3,3,0,0,1,.75-.09,2.53,2.53,0,0,1,.82.12,1.64,1.64,0,0,1,.61.37,1.6,1.6,0,0,1,.39.6,2.46,2.46,0,0,1,.13.81,3.06,3.06,0,0,1-.14,1,2,2,0,0,1-.43.71,1.76,1.76,0,0,1-.69.43,3.28,3.28,0,0,1-1.52.09,1.3,1.3,0,0,1-.47-.16,1,1,0,0,1-.3-.25.55.55,0,0,1-.1-.32.42.42,0,0,1,0-.2.59.59,0,0,1,.15-.17.7.7,0,0,1,.21-.11,1,1,0,0,1,.26,0,.85.85,0,0,1,.23,0,.56.56,0,0,1,.19.09.45.45,0,0,1,.13.15.33.33,0,0,1,0,.17.17.17,0,0,1,0,.07.14.14,0,0,1,0,.06l0,.06-.06.06v0h0v0l0,0,0,0h.07l.06,0h.19a1.34,1.34,0,0,0,.46-.08.86.86,0,0,0,.33-.23,1,1,0,0,0,.21-.39,2.12,2.12,0,0,0,.08-.54v0l-.11.06m-1.21-.82a.87.87,0,0,0,.14.27.53.53,0,0,0,.23.17.61.61,0,0,0,.28.06.82.82,0,0,0,.28,0,1,1,0,0,0,.2-.15.75.75,0,0,0,.13-.25.88.88,0,0,0,.05-.33,1.07,1.07,0,0,0-.05-.37.58.58,0,0,0-.14-.27.65.65,0,0,0-.22-.18.84.84,0,0,0-.29,0,.76.76,0,0,0-.27,0,.56.56,0,0,0-.21.17.71.71,0,0,0-.13.26,1.11,1.11,0,0,0,0,.33h0a1.25,1.25,0,0,0,0,.35"/></svg>
