<svg id="Layer_1" data-name="Layer 1" width="240" height="240" xmlns="http://www.w3.org/2000/svg" viewBox="0 0 240 240"><defs><style>.cls-1{fill:#fff;}.cls-2{fill:#005d9f;}.cls-3{fill:#312783;}</style></defs><circle class="cls-1" cx="120" cy="120" r="78.59" transform="translate(-14.76 16.85) rotate(-7.57)"/><circle class="cls-1" cx="120" cy="120" r="74.66" transform="translate(-49.71 120) rotate(-45)"/><path class="cls-2" d="M136.65,92.72l.81,1.71c1.7,3.12,4.64,4.34,7.15,5-.65-2-2.05-5.24-3.45-6.76Z"/><path class="cls-2" d="M129.81,92.73,133,90.18a19.41,19.41,0,0,0-2-3.13,20.17,20.17,0,0,1-2.24-2.44,4.58,4.58,0,0,1-1.11.18,2.75,2.75,0,0,1-1.55-.42c.21,1.6.47,3.9.59,6.4,1,4.11,8.05,11.06,12.27,13.42-.56-2.66-2.83-8-4.57-11.56Z"/><path class="cls-2" d="M134.85,88.61l3.93-3.17a27.84,27.84,0,0,0-5.41-3.73c-.79-.27-1.48-.52-2-.73a3,3,0,0,1-.33,2,3.12,3.12,0,0,1-1,1A21.92,21.92,0,0,0,134.85,88.61Z"/><path class="cls-2" d="M131.11,78c-1,.63-.72,1.07.11,1.39a23.91,23.91,0,0,1,4.48,1.8,31,31,0,0,1,4.38,3l2.33-1.95C142.06,82.22,133.24,78.93,131.11,78Z"/><path class="cls-2" d="M133.32,149.32a27.83,27.83,0,0,1-4.27-.67l-1.13-.23-.74-.15a19.71,19.71,0,0,0,3.08,4.84l.47-.73A16.4,16.4,0,0,1,133.32,149.32Z"/><path class="cls-2" d="M135.91,157.6a10.7,10.7,0,0,0,4.4,1.53,9.29,9.29,0,0,1,.89-2.63A14.17,14.17,0,0,1,135.91,157.6Z"/><path class="cls-2" d="M136.18,153.33a23.75,23.75,0,0,1-4.59.32l-.51,0a23.23,23.23,0,0,0,3.43,3.07c.09-.25.18-.53.18-.53A10.47,10.47,0,0,1,136.18,153.33Z"/><path class="cls-2" d="M127.92,146,128,146a19.87,19.87,0,0,1,3.46-2.9,22.67,22.67,0,0,1-5.25-1.46l-.21-.1a26.65,26.65,0,0,0,.82,5.61l.57-.55Z"/><path class="cls-2" d="M110.38,115.42l-.87-.54c-1.68-1.06-3.55-2.23-5.44-3.28v.07a24.4,24.4,0,0,1-.53,7.42A33.49,33.49,0,0,1,110.38,115.42Z"/><path class="cls-2" d="M155.54,140.93a3.67,3.67,0,0,0-2.62-.29,1.29,1.29,0,0,0-.78.55,2.48,2.48,0,0,0-.19,2.12c.24.42.82.66,1.7.71,2.22.1,2.22.1,2.26.44l.05.34-.26.08-1.44,1.1c-.1.07-9.86,7.54-11.6,13.1,4.43-.58,11.68-6.73,14-11.14,1-1.92,1.32-3.52.94-4.76A3.93,3.93,0,0,0,155.54,140.93Z"/><path class="cls-2" d="M155.64,144.5l.06,0,.05,0Z"/><path class="cls-2" d="M159.49,141.61a1,1,0,0,0-.07-.15l-.1,0Z"/><path class="cls-2" d="M163.32,141.37l-.16,0-.08.14Z"/><path class="cls-2" d="M162.81,136.58a6,6,0,0,1-4.68-.58,5.84,5.84,0,0,1-1.47-1.13l-.26-.17c-6.24-4.23-18.5-10.85-27.81-12.54a105.75,105.75,0,0,0,16.77,12.12,80.58,80.58,0,0,0,8.94,4.08,6,6,0,0,1,2.25.64,6.18,6.18,0,0,1,2.87,2.87,5,5,0,0,0,3.74,0A44.82,44.82,0,0,0,167,133,7.76,7.76,0,0,1,162.81,136.58Z"/><path class="cls-2" d="M132.67,136.52a33,33,0,0,1-6.6-4.08c0,.51,0,1,0,1-.08,2-.16,4.2-.12,6.35l.06,0A24.44,24.44,0,0,1,132.67,136.52Z"/><path class="cls-2" d="M128.85,131.85a48.64,48.64,0,0,0,6.87,3.75,34.56,34.56,0,0,1,5.8-1c-1.81-1.13-3.86-2.52-5.91-4C134.41,130.41,130.89,131.3,128.85,131.85Z"/><path class="cls-2" d="M126.15,128.24c0,.62,0,1.29,0,2.08l.09,0,.21,0c2.31-.64,4.69-1.27,6.57-1.62a87.27,87.27,0,0,1-7.35-6.2A44.62,44.62,0,0,1,126.15,128.24Z"/><path class="cls-2" d="M114.84,152.37c-4.1-3.82-11.57-6.78-16.37-7.24a3.1,3.1,0,0,1-1.41,2.41c.46.32.91.65,1.36,1C102.06,150.55,109.72,152.32,114.84,152.37Z"/><path class="cls-2" d="M108,158a10.54,10.54,0,0,1,.94,2,10.94,10.94,0,0,0,3-1.3A16.1,16.1,0,0,1,108,158Z"/><path class="cls-2" d="M108.59,153.54a47.07,47.07,0,0,1-5-1.12c.6.57,1.17,1.14,1.68,1.69a16.24,16.24,0,0,0,6.3,2A8,8,0,0,0,108.59,153.54Z"/><path class="cls-2" d="M97.69,142.07a5.06,5.06,0,0,1,.42.84,20.56,20.56,0,0,1,3.25.49c3.33.31,12.46-1.09,17.28-2.82-4.41-1.76-13-3.32-17-2.14-1.65,1-3.28,1.91-4.85,2.75A2.92,2.92,0,0,1,97.69,142.07Z"/><path class="cls-2" d="M119.45,148.84a28.69,28.69,0,0,1-4.2,1,16.43,16.43,0,0,1,2.82,2.85l0,0a19.81,19.81,0,0,0,2.33-4.16Z"/><path class="cls-2" d="M116.72,154.49a25.58,25.58,0,0,1-4.09,0,10.55,10.55,0,0,1,1.71,2.47A24,24,0,0,0,116.72,154.49Z"/><path class="cls-2" d="M111.52,136.51a50.89,50.89,0,0,0,6.76-4.42,25.45,25.45,0,0,0-6.64-.46c-1.88,1.46-3.93,2.92-6.1,4.36A38.91,38.91,0,0,1,111.52,136.51Z"/><path class="cls-2" d="M111.88,147.54c1.94.53,4.17,0,6.09-.54a9.39,9.39,0,0,0-6-2.51c-1.61.29-3.27.54-4.82.72A37,37,0,0,1,111.88,147.54Z"/><path class="cls-2" d="M129.18,140.34c5.06,1.35,14.34,1.87,17.68,1.39a21.86,21.86,0,0,1,3-.68,4.94,4.94,0,0,1,.36-.87,2.74,2.74,0,0,1,.67-.85c-1.38-.58-3.22-1.41-5.15-2.39C142.06,135.83,133.5,138.13,129.18,140.34Z"/><path class="cls-2" d="M156,128.91a21.68,21.68,0,0,1-1.21-3.06c-1.4-3-7.17-10.25-11.07-13.56.68,4.71,3.62,12.92,6.62,15.78,1.69.93,3.3,1.88,4.81,2.82a2.9,2.9,0,0,1,.33-1.19A4.47,4.47,0,0,1,156,128.91Z"/><path class="cls-2" d="M160.34,114.73a49.49,49.49,0,0,1,1.52,4.87c.19-.81.4-1.58.62-2.3a16.3,16.3,0,0,0-1.41-6.46A7.78,7.78,0,0,0,160.34,114.73Z"/><path class="cls-2" d="M136.49,146.75a37.66,37.66,0,0,1,4.57-2.7c-1.56-.05-3.23-.16-4.86-.33a9.38,9.38,0,0,0-5.82,3C132.33,147.1,134.6,147.44,136.49,146.75Z"/><path class="cls-2" d="M158.76,111a10.23,10.23,0,0,1,1.28-2.71,22.12,22.12,0,0,0-3.3-.85A25.21,25.21,0,0,1,158.76,111Z"/><path class="cls-2" d="M149.74,107.17l.74.7a28.11,28.11,0,0,1,3,3.15,16.34,16.34,0,0,1,1.05-3.88l0,0A19.7,19.7,0,0,0,149.74,107.17Z"/><path class="cls-2" d="M158.88,127.59a3.34,3.34,0,0,1,1.67.32c0-.55.11-1.11.17-1.67-.06-4.16-2.36-11.67-4.88-16.14-1.26,5.46-.09,13.41,1.91,17.8A3.41,3.41,0,0,1,158.88,127.59Z"/><path class="cls-2" d="M162.83,109.45a16.12,16.12,0,0,1,1.34,3.76,10.67,10.67,0,0,1,1.27-1.83A11.64,11.64,0,0,0,162.83,109.45Z"/><path class="cls-2" d="M135.83,114.71a39.26,39.26,0,0,1,6.86,3.05,26.33,26.33,0,0,1-1.29-6.83c-1.74,1.1-3.45,2.3-5,3.38Z"/><path class="cls-2" d="M159.14,134.07a3.88,3.88,0,0,0,3,.42c1.24-.38,2.38-1.55,3.39-3.47,2.15-4.09,3-11.85,1.8-16.28h0l-.12-.39a6.66,6.66,0,0,0-.46-1.16c-3.58,4.62-4.19,16.84-4.2,17l-.08,1.87-.05,1.13-.69-.9-1.13-1.49c-.55-.71-1.07-1-1.56-1a2.45,2.45,0,0,0-1.63,1.35,1.33,1.33,0,0,0,0,1A3.62,3.62,0,0,0,159.14,134.07Z"/><path class="cls-2" d="M133.81,116.11c-.64.44-1.2.81-1.71,1.13a42.07,42.07,0,0,1-4.72,2.53,43.71,43.71,0,0,1,8.84,2.24A61.74,61.74,0,0,1,133.81,116.11Z"/><path class="cls-2" d="M150.05,144.39a3.12,3.12,0,0,1-.38-1.1c-4.75.84-12,4.38-15.74,8.51a37.06,37.06,0,0,0,5.66-1l.35-.18,0,.08a36.74,36.74,0,0,0,10.14-4.11c.38-.34.76-.66,1.14-1A3.35,3.35,0,0,1,150.05,144.39Z"/><path class="cls-2" d="M153.14,115.09c-.51-2-2.08-3.63-3.52-5a9.34,9.34,0,0,0,.86,6.48c1.05,1.25,2.09,2.56,3,3.82A37.08,37.08,0,0,1,153.14,115.09Z"/><path class="cls-2" d="M140.28,152.48a7.92,7.92,0,0,0-2.78,2.79,17.43,17.43,0,0,0,6.2-2.59c.45-.56.93-1.13,1.46-1.71A50.55,50.55,0,0,1,140.28,152.48Z"/><path class="cls-2" d="M147.62,108.8l.06-.36.13-.76h0a26.36,26.36,0,0,0-4.41,2,24.84,24.84,0,0,1,3.83,3.27A17.44,17.44,0,0,1,147.62,108.8Z"/><path class="cls-2" d="M116.63,143.46a17.78,17.78,0,0,1,3.45,2.44l.28.23.6.5h0a26.43,26.43,0,0,0,.42-4.84A25,25,0,0,1,116.63,143.46Z"/><path class="cls-2" d="M143.77,120.91a50.89,50.89,0,0,0-7.21-3.65,25.15,25.15,0,0,0,2.92,6c2.21.9,4.5,1.94,6.83,3.11A39,39,0,0,1,143.77,120.91Z"/><path class="cls-2" d="M120.06,80.43a5.58,5.58,0,0,1-.24,1.84l0,.31c-.55,7.52-.14,21.44,3,30.35A105.63,105.63,0,0,0,125,92.35a79.77,79.77,0,0,0-.93-9.79,6,6,0,0,1-.57-2.27,6.17,6.17,0,0,1,1-3.92,4.66,4.66,0,0,0-1.73-3,46.27,46.27,0,0,0-9.19,1,7.37,7.37,0,0,1,4.64,1.75A6,6,0,0,1,120.06,80.43Z"/><path class="cls-2" d="M124.59,76.24l-.09.13s0,.07,0,.11Z"/><path class="cls-2" d="M122.65,73.22l.12.11h.17Z"/><path class="cls-2" d="M110.29,83.08l0,0h0Z"/><path class="cls-2" d="M98.78,95.36c5.36-1.64,11.65-6.63,14.45-10.56a3.41,3.41,0,0,1-.83-.82,3.2,3.2,0,0,1-.56-1.6c-.5.23-1,.46-1.53.68C106.74,85.2,101.38,91,98.78,95.36Z"/><path class="cls-2" d="M104.44,95.21c-1.43,1.42-2.09,3.61-2.58,5.55a9.41,9.41,0,0,0,5.19-4c.55-1.54,1.17-3.1,1.79-4.54A35.4,35.4,0,0,1,104.44,95.21Z"/><path class="cls-2" d="M104.39,95.24l0,0,0,0Z"/><path class="cls-2" d="M107.07,96.75l0,0v0Z"/><path class="cls-2" d="M96.8,90.46a7.67,7.67,0,0,0,3.73-1.31A50,50,0,0,1,104,85.4c-.8.24-1.57.44-2.3.61A16.41,16.41,0,0,0,96.8,90.46Z"/><path class="cls-2" d="M100.57,89.13l0,0,0,0Z"/><path class="cls-2" d="M101.63,86h.06l0,0Z"/><path class="cls-2" d="M139.47,106.42l-.07,0a24.54,24.54,0,0,1-6.16-4.17A33.22,33.22,0,0,1,133,110l.9-.48C135.66,108.56,137.62,107.53,139.47,106.42Z"/><path class="cls-2" d="M97.3,86.59a10.77,10.77,0,0,1-2.21-.19,11,11,0,0,0-.37,3.23A16.11,16.11,0,0,1,97.3,86.59Z"/><path class="cls-2" d="M120.85,132.73a38.43,38.43,0,0,1-6.07,4.42,26.38,26.38,0,0,1,6.57,2.3c-.09-2.06-.27-4.14-.44-6Z"/><path class="cls-2" d="M117.47,85.34a2.81,2.81,0,0,1-1.19.31,4.45,4.45,0,0,1-1-.06,20.92,20.92,0,0,1-2,2.58c-1.93,2.73-5.29,11.34-6.2,16.37,3.73-2.94,9.38-9.6,10.35-13.62C117.39,89,117.41,87.12,117.47,85.34Z"/><path class="cls-2" d="M117.44,90.88v0Z"/><path class="cls-2" d="M113.26,88.19l0,0v0Z"/><path class="cls-2" d="M114.08,100.52l.09-.11v-.13Z"/><path class="cls-2" d="M117.61,95.49a38.64,38.64,0,0,1-3.44,4.92,52.94,52.94,0,0,0,.44,8.07,25.43,25.43,0,0,0,3.73-5.53C118,100.6,117.77,98.09,117.61,95.49Z"/><path class="cls-2" d="M121.38,115.17a43.78,43.78,0,0,1-2.48-8.77c-1.43,2.11-3.39,4.43-3.9,5,.7.34,1.29.64,1.83.92A41.51,41.51,0,0,1,121.38,115.17Z"/><path class="cls-2" d="M101.76,103.13l-.34.13-.73.27h0a27.2,27.2,0,0,0,4,2.79,24.41,24.41,0,0,1,.92-5A17.34,17.34,0,0,1,101.76,103.13Z"/><path class="cls-2" d="M100.77,97a17.21,17.21,0,0,1-3.88,1h0a20.83,20.83,0,0,0,2.44,4.1c.08-.3.25-1,.25-1A26.56,26.56,0,0,1,100.77,97Z"/><path class="cls-2" d="M112.77,110.38a38.83,38.83,0,0,1-.78-7.47,26.33,26.33,0,0,1-5.28,4.54c1.82,1,3.72,1.84,5.42,2.63Z"/><path class="cls-2" d="M95.08,92.65A23.75,23.75,0,0,0,96,95.93a26.29,26.29,0,0,1,2.08-3.53A10.72,10.72,0,0,1,95.08,92.65Z"/><path class="cls-2" d="M91.93,128.39v-.06Z"/><path class="cls-2" d="M91.94,128.78A20.25,20.25,0,0,1,91,131.7a4.74,4.74,0,0,1,.58.75,3.05,3.05,0,0,1,.4,1c1.2-.9,2.83-2.09,4.65-3.27,2.79-2.62,5.08-11.18,5.32-16C98.29,117.86,93.2,125.65,91.94,128.78Z"/><path class="cls-2" d="M92.83,122.6c.82-1.33,1.76-2.73,2.71-4a9.31,9.31,0,0,0,.34-6.53c-1.32,1.49-2.76,3.28-3.11,5.27A37.44,37.44,0,0,1,92.83,122.6Z"/><path class="cls-2" d="M84.54,113.7a17.19,17.19,0,0,0-.85,6.66c.26.67.51,1.38.75,2.12a49.92,49.92,0,0,1,1.13-5A7.88,7.88,0,0,0,84.54,113.7Z"/><path class="cls-2" d="M112.11,116.84c-.61,2.31-1.25,4.69-1.89,6.5a86.28,86.28,0,0,1,9-3.27,45.88,45.88,0,0,1-5.29-2.48c-.53-.3-1.11-.64-1.79-1l0,.09Z"/><path class="cls-2" d="M114.34,129.42c2.55.18,5.53.72,6.31.86-.06-.77-.1-1.44-.12-2a41.23,41.23,0,0,1,.17-5.35A44.57,44.57,0,0,1,114.34,129.42Z"/><path class="cls-2" d="M79.8,114.2a9.75,9.75,0,0,1,1.82,2.08,14.5,14.5,0,0,1,1.7-5.13A10.75,10.75,0,0,0,79.8,114.2Z"/><path class="cls-2" d="M97.5,109.48l.19.75,0,.08a20,20,0,0,1,.78,4.44,23.63,23.63,0,0,1,3.89-3.82l.19-.13a26,26,0,0,0-5.27-2.09Z"/><path class="cls-2" d="M85.18,110.82a10.52,10.52,0,0,1,1.7,2.7,23.41,23.41,0,0,1,2-4.13l.28-.43a22.47,22.47,0,0,0-4.38,1.44Z"/><path class="cls-2" d="M90.39,108.71c.15.3.4.77.4.77a16.55,16.55,0,0,1,1.35,3.78,27.51,27.51,0,0,1,2.71-3.37l.77-.86.5-.57A19.49,19.49,0,0,0,90.39,108.71Z"/><path class="cls-2" d="M89.68,112.54A37.05,37.05,0,0,0,87.75,118c0,.08,0,.38,0,.38h-.08a36.41,36.41,0,0,0-1.51,10.83c.1.5.19,1,.27,1.48a3.33,3.33,0,0,1,1.64-.45,3.17,3.17,0,0,1,1.15.22C90.83,125.89,91.37,117.89,89.68,112.54Z"/><path class="cls-2" d="M86.14,128.79v0Z"/><path class="cls-2" d="M102.82,122.2a33.85,33.85,0,0,1-2,5.54c1.89-1,4.11-2.08,6.42-3.12.72-1,1.71-4.46,2.26-6.5A47.44,47.44,0,0,0,102.82,122.2Z"/><path class="cls-2" d="M129.33,112c.53-.31,1.12-.65,1.81-1l-.07-.06-.15-.15c-1.71-1.69-3.45-3.43-4.69-4.89a88.33,88.33,0,0,1-1.69,9.46A45.41,45.41,0,0,1,129.33,112Z"/><path class="cls-2" d="M130.91,100a34.93,34.93,0,0,1-3.8-4.49c-.08,2.13-.25,4.6-.51,7.12.47,1.1,3,3.71,4.5,5.2A46.75,46.75,0,0,0,130.91,100Z"/><path class="cls-2" d="M130.9,99.9s0,.09,0,.13l.1.11Z"/><path class="cls-2" d="M105.07,160l.39.1a6.39,6.39,0,0,0,1.24.17c-2.21-5.4-12.49-12-12.6-12.11l-1.57-1-1-.61,1.12-.14,1.85-.24q1.33-.18,1.65-.84a2.49,2.49,0,0,0-.36-2.1,1.28,1.28,0,0,0-.82-.48,3.57,3.57,0,0,0-2.59.5,3.88,3.88,0,0,0-1.87,2.4c-.29,1.26.15,2.83,1.31,4.66,2.47,3.91,8.76,8.52,13.19,9.71Z"/><path class="cls-2" d="M88.43,145.17a6,6,0,0,1,2.84-3.77,5.77,5.77,0,0,1,1.71-.71l.28-.14c6.79-3.29,18.64-10.59,24.77-17.81a104.4,104.4,0,0,0-18.88,8.47,79.07,79.07,0,0,0-8,5.7,5.87,5.87,0,0,1-1.68,1.62,6.08,6.08,0,0,1-3.92,1.05,5,5,0,0,0-1.82,3.22,45.89,45.89,0,0,0,5.75,7.73A7.77,7.77,0,0,1,88.43,145.17Z"/><path class="cls-2" d="M88.29,136.69a3.63,3.63,0,0,0,1.56-2.12,1.27,1.27,0,0,0-.08-.95A2.48,2.48,0,0,0,88,132.39c-.49,0-1,.38-1.47,1.13-1.18,1.83-1.18,1.83-1.47,1.74l-.3-.08v-.28l-.23-1.84c0-.12-1.6-12.3-5.54-16.6-1.71,4.13,0,13.49,2.65,17.7,1.15,1.83,2.38,2.9,3.65,3.19A3.9,3.9,0,0,0,88.29,136.69Z"/><path class="cls-2" d="M96.76,83.37a6.29,6.29,0,0,0-.77,1c5.79.79,16.68-4.79,16.79-4.85a6.39,6.39,0,0,1,1.66-.86c.51-.07,1,0,.57.52a5.16,5.16,0,0,0-.72,1.73,2,2,0,0,0-.09,1.85,2.45,2.45,0,0,0,2,.73A1.3,1.3,0,0,0,117,83a3.63,3.63,0,0,0,.86-2.5,3.87,3.87,0,0,0-1.14-2.82c-1-.88-2.54-1.29-4.7-1.2-4.62.18-11.76,3.33-15,6.57h0Z"/><path class="cls-2" d="M135.16,112.11c4-2.82,8.55-6,13-7.26s15.5-.06,19.74,5.7c.11.13.21.28.31.42-.58-5.88-3.53-13.15-6.67-18.34H152a23.16,23.16,0,0,1-4.64,10.47c-3.16,3.44-8.07,6-12.4,8.32-1.61.85-3.14,1.66-4.48,2.46a45.13,45.13,0,0,0-6.06,4.66,52.26,52.26,0,0,0,6.54-3.56C132.25,114.15,133.66,113.16,135.16,112.11Z"/><path class="cls-2" d="M111.21,112.47c-4.44-2.06-9.48-4.4-12.81-7.67s-7.8-13.39-4.93-19.94l.12-.28c-1,.82-1.9,1.68-2.8,2.57A45.67,45.67,0,0,0,77.72,113.9c3.73-7,15-8.48,19.55-7.45s9.26,4,13.4,6.58c1.55,1,3,1.89,4.37,2.65a50,50,0,0,0,7,3.11,44.76,44.76,0,0,0-6.23-4.09C114.43,114,112.87,113.24,111.21,112.47Z"/><path class="cls-2" d="M124.86,148.28c-1.39-4.46-1.19-10-1-14.9.06-1.82.13-3.55.11-5.11a50,50,0,0,0-.81-7.64,44.88,44.88,0,0,0-.45,7.52c.06,1.56.22,3.28.38,5.1.43,4.88.93,10.41-.24,14.93s-7.7,13.45-14.81,14.24a5.46,5.46,0,0,1-.82.06,45.84,45.84,0,0,0,34.37-1C133.48,162.13,126.29,152.86,124.86,148.28Z"/><path class="cls-2" d="M123.3,119.65a1.34,1.34,0,0,1,.29-.42c.21-.21.41-.37.8-.69-.34.19-.64.4-.64.4l-.52.2-.13,0h0a6,6,0,0,0-.61-.22l-.45-.16.43.34.41.33.07.11h0c0,.11,0,.29.12.62l.08.44c0-.29.07-.46.07-.47Z"/><path class="cls-2" d="M125.63,80.21a3.63,3.63,0,0,0,1.06,2.41,1.29,1.29,0,0,0,.86.4,2.47,2.47,0,0,0,1.93-.89,1.93,1.93,0,0,0-.24-1.83c-1-1.91-.71-1.34-.71-1.86s.83-1.13.83-1.13L127,76.2A8.85,8.85,0,0,0,125.63,80.21Z"/><path class="cls-2" d="M146.61,99.19l.23.71a18.49,18.49,0,0,0,3-7.27h-5.7a35.46,35.46,0,0,1,2.14,5.46Z"/><path class="cls-2" d="M143.85,101.57l-.08,0a20.42,20.42,0,0,1-4.24-1.54,22.53,22.53,0,0,1,1.36,5.27l0,.23a26.15,26.15,0,0,0,4.45-3.51l-.77-.22Z"/><path class="cls-3" d="M59.72,95.79c.39.17,1.22.31,1.8-1,.31-.69.5-1.53-.24-1.87-.54-.25-.93.21-1.44.87l-.52.67c-.77,1-1.52,2-3.06,1.27-.77-.35-1.95-1.4-.92-3.66S58,90,58.84,90.42l-.64,1.4c-.33-.1-1.12-.32-1.7,1-.26.55-.35,1.31.28,1.6s.86-.15,1.06-.41L59,92.45c.67-.84,1.45-1.54,2.71-1,2.09,1,1.3,3.18,1,3.79-1.16,2.55-2.83,2.31-3.69,1.92Z"/><path class="cls-3" d="M64.92,90.55,64.16,92l-6.75-3.64.76-1.41Z"/><path class="cls-3" d="M61.71,81.15l.82-1.25L69,84.08l-.88,1.35-6.29-.36h0l4.58,3-.81,1.25-6.43-4.18L60,83.72l6.14.36h0Z"/><path class="cls-3" d="M68.72,76.19a1.56,1.56,0,0,0-2.1.47c-.49.59-.81,1.79.86,3.17,1.06.88,2.36,1.25,3.22.2a1.63,1.63,0,0,0,0-2.23l1-1.23a3.19,3.19,0,0,1,.06,4.37c-1.29,1.57-3.29,1.82-5.33.14s-2.13-3.77-.87-5.3A3,3,0,0,1,69.74,75Z"/><path class="cls-3" d="M73.73,69.41l-2.9,2.85L72,73.41l2.67-2.61.95,1L72.9,74.38l1.39,1.42,3-3,1,1-4.16,4.07-5.36-5.48,4-3.94Z"/><path class="cls-3" d="M77.69,65.47l.19-.13c1.28-.92,1.15-1.82.82-2.34l1.09-.78,4.8,6.72-1.33.94L80,65.26l-1.6,1.14Z"/><path class="cls-3" d="M85.94,65.77h0a.89.89,0,0,0,1.24.21c.58-.35.86-1.19,0-2.68h0a1.82,1.82,0,0,1-1,1.41,2.45,2.45,0,0,1-3.48-.92,2.66,2.66,0,0,1,.89-4c2.45-1.47,4.08,1.14,4.68,2.14,1.65,2.74.89,4.41-.39,5.18a2.37,2.37,0,0,1-3.29-.51Zm-.16-2.36a1.23,1.23,0,0,0,.31-1.8c-.49-.81-1.14-1.1-1.85-.67A1.19,1.19,0,0,0,84,62.75C84.59,63.81,85.25,63.73,85.78,63.41Z"/><path class="cls-3" d="M91.17,62.83h0a.88.88,0,0,0,1.21.32c.61-.3,1-1.1.22-2.67h0a1.79,1.79,0,0,1-1.11,1.31,2.45,2.45,0,0,1-3.38-1.23,2.65,2.65,0,0,1,1.24-3.9c2.58-1.25,4,1.51,4.47,2.55,1.4,2.88.49,4.48-.85,5.13a2.38,2.38,0,0,1-3.24-.8Zm0-2.36a1.23,1.23,0,0,0,.47-1.77c-.41-.85-1-1.2-1.78-.83-.38.18-1,.7-.45,1.77S90.66,60.74,91.22,60.47Z"/><path class="cls-3" d="M101.06,58.83l-.86.32.63,1.71-1.53.56-.63-1.71-3.06,1.12-.48-1.33,1.13-5.76L98,53.11,99.77,58l.86-.32Zm-2.82-.31c-.69-1.88-1.1-3.11-1.19-3.35h0l-.73,4Z"/><path class="cls-3" d="M50.25,104.66l.53-2.5,12,2.53L61,113.22l-2.12-.44,1.27-6-2.7-.57-1.12,5.27L54.18,111l1.12-5.28Z"/><path class="cls-3" d="M56.61,121.27a2.5,2.5,0,0,0,2.22-2.64c0-1.22-.71-3.06-4.17-3.19-2.2-.08-4.21.71-4.29,2.88a2.61,2.61,0,0,0,2.2,2.79l-.09,2.56a5.1,5.1,0,0,1-4.32-5.49c.12-3.25,2.4-5.51,6.63-5.35s6.37,2.71,6.26,5.87c-.14,3.67-2.72,5-4.53,5.12Z"/><path class="cls-3" d="M51.67,142.65l-.55-2.33,10-2.32v0l-10.48.11L50,135.62l9.45-4.5v0l-10,2.33L49,131.09l11.92-2.78.85,3.63-8.89,4.36v0l9.9-.07.84,3.61Z"/><path class="cls-3" d="M54,148.13,53,145.76l11.39-4.53.95,2.38Z"/><path class="cls-3" d="M58.25,156.75,57,154.52l8.78-4.94L64,146.35l1.88-1.06L70.74,154,68.85,155,67,151.81Z"/><path class="cls-3" d="M74.88,158.52c1,1.24,3.26,4.95-1.13,8.66s-7.68.91-8.72-.33-3.27-4.95,1.12-8.66S73.83,157.28,74.88,158.52Zm-8.2,6.93c.89,1.06,2.8,2,5.42-.22s2-4.25,1.12-5.31-2.8-2-5.42.23S65.79,164.4,66.68,165.45Z"/><path class="cls-3" d="M81,173.81l-3.07,4.56-2.12-1.43,6.83-10.17,2.13,1.43-2.59,3.85,4,2.67,2.59-3.86,2.12,1.43L84,182.46,81.85,181l3.07-4.57Z"/><path class="cls-3" d="M96.76,174.62c1.5.63,5.15,2.95,2.89,8.24s-6.45,4.27-7.94,3.63-5.15-3-2.89-8.24S95.27,174,96.76,174.62Zm-4.2,9.88c1.27.54,3.39.52,4.74-2.64s-.11-4.71-1.39-5.25-3.39-.52-4.74,2.64S91.28,184,92.56,184.5Z"/><path class="cls-3" d="M103,187.61,109,189l-.5,2.16L100,189.2l2.73-11.94,2.49.57Z"/><path class="cls-3" d="M113.4,189.36l6.08.43-.16,2.21-8.62-.61.85-12.21,2.55.18Z"/><path class="cls-3" d="M124.35,191.69l-2.56.13-.22-4.62-4.6-7.42,3-.14,2.8,5.19L125,179.4l2.9-.14-3.72,7.85Z"/><path class="cls-3" d="M137.25,184l1.68,5.23-2.44.78-3.73-11.67,2.44-.78,1.41,4.42,4.55-1.45-1.41-4.42,2.44-.78L145.91,187l-2.43.77-1.68-5.23Z"/><path class="cls-3" d="M147.74,172.05c1.43-.78,5.5-2.22,8.27,2.82s-.65,7.71-2.07,8.49-5.5,2.21-8.26-2.83S146.32,172.82,147.74,172.05Zm5.16,9.41c1.21-.67,2.51-2.35.86-5.36s-3.76-2.82-5-2.15-2.51,2.34-.87,5.35S151.69,182.12,152.9,181.46Z"/><path class="cls-3" d="M162.11,167.16a2.48,2.48,0,0,0-3.44.11c-.95.78-1.81,2.57.4,5.23,1.41,1.69,3.35,2.66,5,1.27a2.6,2.6,0,0,0,.61-3.5l2-1.64a5.1,5.1,0,0,1-1.2,6.88c-2.5,2.09-5.71,1.89-8.42-1.36s-2.23-6.56.19-8.58c2.82-2.35,5.58-1.35,6.84,0Z"/><path class="cls-3" d="M173,167.81l-1.64,2L161.9,162l1.63-2,3.84,3.18-.85-6.78,2.11-2.54.67,7,8.94.55-2.1,2.54-6.55-.52.18,1.7Z"/><path class="cls-3" d="M178.71,157.11l-6.94-4.42.86-1.35,6.94,4.42Z"/><path class="cls-3" d="M182.44,150.71l-1.61,3-7.28-3.85,1.53-2.87c.71-1.35,1.94-1.84,3-1.28a1.62,1.62,0,0,1,.94,2h0a2,2,0,0,1,2.67-.57C183,147.81,183.25,149.19,182.44,150.71Zm-6.37-2.85-.67,1.26,1.84,1,.72-1.35a1,1,0,0,0-.36-1.47A1.11,1.11,0,0,0,176.07,147.86Zm3,1.36-.77,1.44,2.09,1.11.79-1.48a1.24,1.24,0,0,0-.39-1.84C180.11,148.08,179.44,148.54,179.08,149.22Z"/><path class="cls-3" d="M186.26,142.16l-2.26-.11-1.13,2.79,1.7,1.5L184,147.8l-6.56-5.73.75-1.84,8.69.46Zm-7-.44,0,.08a29.35,29.35,0,0,1,2.61,2.14l.8-2A32.23,32.23,0,0,1,179.23,141.72Z"/><path class="cls-3" d="M188.33,135.63l-3.63.63-.42,1.43,3.16.93L187,140.1l-7.9-2.33.94-3.18a2.37,2.37,0,0,1,3-1.87,2.13,2.13,0,0,1,1.78,2.06l4-.92Zm-7.1-.4-.43,1.44,2.29.67.43-1.46a1.17,1.17,0,0,0-.82-1.61A1.16,1.16,0,0,0,181.23,135.23Z"/><path class="cls-3" d="M190.09,127.17l-2.23.35-.53,3,2,1.12-.27,1.55-7.6-4.25.35-2,8.59-1.35Zm-7,1v.08a31.1,31.1,0,0,1,3,1.56l.37-2.09A30.88,30.88,0,0,1,183.12,128.18Z"/><path class="cls-3" d="M190.79,120.19l-3.95,2.23.7.8,3,.24L190.4,125l-8.2-.66.12-1.54,3.27.26-3-3.29.15-1.82,3.09,3.32,5.14-2.93Z"/><path class="cls-3" d="M190.87,117.14l-8.23,0v-1.6l8.24,0Z"/><path class="cls-3" d="M175.55,107c-.76.44-2.31,1.41-2.31,1.41l-3-7.94-2,.76a49.81,49.81,0,0,1,3.23,18.27,48.31,48.31,0,1,1-48.31-48.31c5.59,0,12.62,2.23,17.73,4l-7.75-6.41,9.93-1.54-39.65-8.45,8.71,4.87L85.74,69.28l9.48,2.82L70.37,83.38l12.3-1.54s-15.5,13.32-22.55,19.47l11.79-3.59L61.09,125.44l7.23-7.73.06,27.73,4.42-9.28L79.46,162l-.12-11,16.49,21.27-3.94-9.1,22,14.62-4.6-6.93,21.4,6s-5.05-4-4.35-4.14a65.86,65.86,0,0,0,27.43-10.58A53.77,53.77,0,0,0,175.55,107Z"/><path class="cls-3" d="M184.94,101.38c-.87-1.7-1.23-2.6-1.23-2.6a6.14,6.14,0,0,0,1.55-1.39c1-3.38-3.43-3.89-5.2-5.23-2.83-4.47-5.3-9.2-8.14-13.65-.3-2.16.68-5.68-1.39-8a5.58,5.58,0,0,0-6-1.92c-2.62-3.66-6.7-10.2-6.7-10.2l-.92,5.6-56.34-19.3-1.89.47c10.55,4.41,21.06,9.44,31.23,14.05,5.77,2.33,18.22,8.54,18.22,8.54l-10.85,1.76L146.59,78l-17.12-2.41L146.21,82,135.14,91.1l28.56,0,3.78,8.07,3.73-1.49,3.18,8,2.69-1.6,3.79,6.71,5.93-6.42S185.5,102.23,184.94,101.38ZM169.35,79.11c-2.33-.83-5.59-2.21-6-4.86-.19-1-.53-2.35,0-3.35a5.48,5.48,0,0,1,5,1C169.27,72.81,170.5,75.56,169.35,79.11Zm10,15c1.44-.41,2.2.34,3.3,1.09a1.52,1.52,0,0,1-.31,2.71C181.33,98.42,179.35,95.72,179.31,94.08Z"/><path class="cls-3" d="M120,44.58a76.2,76.2,0,0,0-13.08,1.15l2.78,1.06a73.68,73.68,0,1,1-7.78,1.5l-2.14-.95A75.42,75.42,0,1,0,120,44.58Z"/></svg>
