<svg id="Layer_1" data-name="Layer 1" width="240" height="240" xmlns="http://www.w3.org/2000/svg" viewBox="0 0 240 240"><defs><style>.cls-1{fill:#fff;}.cls-2{fill:#2e2864;}.cls-3{fill:#c09949;}.cls-4{fill:#b0063e;}</style></defs><path class="cls-1" d="M186.19,131.33l0-.25.15-.2a5.84,5.84,0,0,0,1.15-5,6.05,6.05,0,0,0-2.34-3.37l-.21-.15,0-.25c-2.47-14.71-7.4-36.64-10.11-48.41l0-.09v-.1l.35-4.55a43,43,0,0,0-.12-6.06l-.08-1.41c-.06-1-2.52-12.73-2.9-14.44-.42-1.9-3.91-9.06-5.24-11.57-.51-.95-3.36-5.72-7.05-11-3.86-5.55-8.59-11.67-10.14-13.86-.55,3.32-1.8,10.92-1.8,11-.13.53-.79,3.37-1.83,7a102.83,102.83,0,0,1-4.06,11.78,152.38,152.38,0,0,1-7.27,14.59l-.18.32H123.54l-.14-.42L122,50.59c-.4-.72-5.49-10-7-12.15,0,0-6.2-9-8-10.8L94.38,14.88a140.88,140.88,0,0,1,6.73,26.52,87.51,87.51,0,0,1,.7,13.18v.62H73c-.2.84-1.54,6.39-1.54,6.39-.5,2.1-12.38,51.64-14.26,69.69a53.14,53.14,0,0,0,.3,13.32s.07.5.06.51l-1.81.75-3.36,10.51,6.75-2.12.59-.18.19.58A68.8,68.8,0,0,0,64,164.2l.13.27-.11.27c-2.29,5.53-2.56,10.84-.71,14.21a9.78,9.78,0,0,0,7.6,5.22,12.42,12.42,0,0,0,5.86-.87l.41-.16.29.33c17.17,19.29,39.37,31.33,40.31,31.83l-.12,0c.28.12,1.1.56,4.06,2.15l3.95-2.12c1.06-.57,26.15-14.19,43.64-35.75l.13-.16.2,0a13.46,13.46,0,0,0,4.61-2.31l.12-.09.15,0a7.34,7.34,0,0,0,5.9-5.17,4,4,0,0,0-1.36-4.31,1,1,0,0,1-.41-.39l-.05-.07,0-.07c0-.19-.12-.4-.13-.43l-.08-.26.13-.24C184.77,154.46,187.37,142.8,186.19,131.33Z"/><path class="cls-2" d="M184,131.51c-1.86-17.92-13.71-67.31-14.22-69.4l-1.12-4.68H74.74l-1.13,4.68c-.5,2.09-12.35,51.48-14.22,69.4-4.86,46.75,56.77,80.43,59.4,81.84l2.89,1.55,2.9-1.55C127.2,211.94,188.84,178.26,184,131.51Z"/><path class="cls-3" d="M180.93,131.83c-1.84-17.72-13.65-66.92-14.15-69l-.56-2.34H77.15l-.56,2.34c-.51,2.09-12.31,51.29-14.15,69C60.49,150.49,70,170.09,89.81,188.5a163.62,163.62,0,0,0,30.43,22.15l1.44.78,1.45-.78a163.73,163.73,0,0,0,30.42-22.15C173.41,170.09,182.88,150.49,180.93,131.83Z"/><path class="cls-2" d="M65.48,132.14C61,175.36,121.68,208,121.68,208V63.54H79.56s-12.24,50.88-14.08,68.6"/><path class="cls-4" d="M121.68,63.54h42.13s12.24,50.88,14.08,68.6c4.5,43.22-56.21,75.82-56.21,75.82Z"/><path class="cls-3" d="M142.24,154.32h-1.57v-1.09a1.78,1.78,0,0,1,.64-1.54,2.85,2.85,0,0,1,1.7-.47c1,0,2,.33,2.3,1.27a5.42,5.42,0,0,1,.11.91v.91c0,.94-.24,1.28-1.39,2.33-1.5,1.39-1.64,1.53-1.7,2.22h3.21v1.33h-5.07a4.41,4.41,0,0,1,1.76-3.94c1.44-1.32,1.53-1.4,1.53-2.06v-1c0-.27,0-.77-.71-.77s-.81.48-.81.85Z"/><path class="cls-3" d="M147.27,153.55a2.27,2.27,0,0,1,.37-1.5,2.49,2.49,0,0,1,2-.83c2.46,0,2.46,1.64,2.46,2.18v4.77a2.08,2.08,0,0,1-.7,1.65,2.64,2.64,0,0,1-1.69.49c-2.48,0-2.48-1.55-2.48-2.18Zm1.66,4.74a.7.7,0,0,0,.75.82c.79,0,.79-.6.79-.93v-4.8c0-.47,0-1-.75-1s-.79.56-.79.93Z"/><path class="cls-3" d="M154,153.55a2.22,2.22,0,0,1,.38-1.5,2.46,2.46,0,0,1,2-.83c2.46,0,2.46,1.64,2.46,2.18v4.77a2.07,2.07,0,0,1-.69,1.65,2.65,2.65,0,0,1-1.69.49c-2.49,0-2.49-1.55-2.49-2.18Zm1.66,4.74a.7.7,0,0,0,.75.82c.8,0,.8-.6.8-.93v-4.8c0-.47,0-1-.75-1s-.8.56-.8.93Z"/><path class="cls-3" d="M162.61,151.3h2v6h.58v1.24h-.58v1.68h-1.55v-1.68h-2.91v-1.24Zm.46,6,.12-4.41-1.62,4.41Z"/><path class="cls-2" d="M177.62,169.16l-.27-.21a1.89,1.89,0,0,0-.79-.36,4.58,4.58,0,0,0-.2-1.27,4.07,4.07,0,0,0-1.1-1.88,4,4,0,0,0-.09-.49c-.61-2-3-1.95-4-1.91h-.22a13.65,13.65,0,0,0-7,2.5,9,9,0,0,0-1.11-1.58,3.57,3.57,0,0,0-3.25-1.15c-1,.08-2.52.52-5.29,2.7-.64-.83-1.79-1.21-3.48-1.53a3.23,3.23,0,0,0-2.87.72,6,6,0,0,0-.68.66c-.71-2.41-3.62-2.65-5.75-2.62a18.92,18.92,0,0,0-8.8,3,1.12,1.12,0,0,1-.05-.13,4,4,0,0,0,1-1,3.72,3.72,0,0,0,.55-3.23,3.28,3.28,0,0,0-3.26-2.09,4.76,4.76,0,0,0-3.65,1.86,3,3,0,0,0-.46,2.75c0,.09.07.17.1.25a8.94,8.94,0,0,0-2.48,1.8c0-.11,0-.21,0-.29a2.27,2.27,0,0,0-.7-1.63c-.31-.32-1.29-1.29-5.19-1.29-2.24,0-6.82,1.64-9.91,4.1a1.87,1.87,0,0,0-.15-.32,1.94,1.94,0,0,0,0-1.12c-.7-2.43-3.62-2.67-5.76-2.64-3.8.07-9.78,2.64-12.13,6a4.51,4.51,0,0,0-.8,4.19,6.11,6.11,0,0,0,6,4.5c.49,0,1.18,0,4.5-2.47a4.06,4.06,0,0,0,3.93,2.48,6.09,6.09,0,0,0,3.42-1.4,5.58,5.58,0,0,0,3.69,1.39,2.69,2.69,0,0,0,1-.2c-1.52,1.64-1.8,3.12,0,5.64a2.79,2.79,0,0,0,2.43,1.32c1.86-.08,2.88-1.78,5.36-5.89l.28-.47,2.55-2a4.65,4.65,0,0,0,3.63,1.65,6.84,6.84,0,0,0,3.93-1.4,6.06,6.06,0,0,0,4,1.4c.48,0,1.17,0,4.49-2.47a4.07,4.07,0,0,0,3.94,2.48,6.16,6.16,0,0,0,3.58-1.53,4.46,4.46,0,0,0,3.39,1.63c1.86,0,3.21-1.67,3.86-2.47l.06-.08.28-.34a3.87,3.87,0,0,0,3.86,2.54,7.14,7.14,0,0,0,4.13-1.55,7.87,7.87,0,0,0,5.19,1.79,10.26,10.26,0,0,0,6.05-2.6,5.2,5.2,0,0,0,4.81-3.69A1.81,1.81,0,0,0,177.62,169.16Z"/><path class="cls-2" d="M142.8,196.62h1.66a1.4,1.4,0,0,0,1.07-.5,1.37,1.37,0,0,0,.29-1.14l-1.66-8.86A1.38,1.38,0,0,0,142.8,185h-1.87a1.37,1.37,0,0,0-1.35,1.12l-.64,3.27v-3a1.38,1.38,0,0,0-1.38-1.38h-7.37a1.38,1.38,0,0,0-1.38,1.38V189l-.55-2.9A1.38,1.38,0,0,0,126.9,185H105.44a1.38,1.38,0,0,0-1.38,1.33,3.43,3.43,0,0,0-.58-.65,4.25,4.25,0,0,0-2.73-.87,4,4,0,0,0-3,1.12,3.46,3.46,0,0,0-.84,2.46v5a3.36,3.36,0,0,0,.91,2.46,4.74,4.74,0,0,0,5.91-.05,2.81,2.81,0,0,0,.35-.44,1.38,1.38,0,0,0,1.38,1.31Z"/><path class="cls-2" d="M185.3,126.4c-.94-3.79-8.12-4.24-11.17-4.26-8.3,0-30.68,3-55.34,8.12,2.72-4.44,5.44-9.2,8.39-14.66,1.31.23,3.13.74,4.92,1.23s4.79,1.26,6.28,1.64a3.93,3.93,0,0,0,1.38,0c1.05-.23,17.17-11.61,17.32-11.7.85-.53,6.14-7,6.34-7.75.39-1.49,2.74-7.76,2.74-7.76,2.15-2.51,5.4-8,5.67-10.42.59-5.37,1-12.2,1-12.2l-1.14,1.15s1.41-5.73,1.2-7.27C172.63,60.72,171.1,52,171.1,52l-.78,1.32s.07-5-.29-6c-.66-1.56-4.38-9.62-4.38-9.62L165,39.59s-.52-4.34-1.11-5.31l0,0,0,0c-.8-1.2-5.51-8-5.51-8L158,28.09,156.52,24l0,0,0,0-5.74-8.18s-.55,4.49-.78,6.13a98.1,98.1,0,0,1-6,19.28,151,151,0,0,1-12.16,22.65c-1.24,1.56-2.54,3.13-4,4.8-4.57,5.39-4.92,6.47-3.41,10.56.2.54.43,1.16.66,1.88-.17.78-1.19,3.68-7,12.5l-1-.31c-5.6-1.68-14.06-4.21-16.69-9.53.08-.09.15-.19.23-.3A2.6,2.6,0,0,1,102,82.26l.42,0,2.35-.15L104,79.84c-1.22-3.59-3.92-3.61-5.53-3.63H98c-.23-.15-.5-.3-.82-.47-2-1-8.12-4.15-11,.87a10.52,10.52,0,0,1-1.8.28c-6.72.7-5.22,8.07-5.22,8.07s3.77-3,6.07-2c.39.17,1.78.92,1.78.92s-.55.64-.71.79c-1.49,1.39-4.72-.16-4.72-.16l1.34,2.71a4.51,4.51,0,0,0,3.31,2.56,4.16,4.16,0,0,0,1.28,2.8,5.5,5.5,0,0,0,4.59,1c1,3.06,2.54,8.53,1.94,11.76-3.63,19.37,5.26,23.25,10.57,25.57,1.39.6,2.8,1.22,3.19,1.84-17.4,4-35.06,8.88-49,14.37l-1.17.5L55.78,153l3.72-1.2a432.31,432.31,0,0,1,43-10.45c-10.59,13.12-21.76,22.29-25.79,24.48-2.06,1.12-3.15,1.07-3.35.87-.36-.36-.54-2.3,1.28-5.73l.48-.91-2.47-4.22L71,157.67c-5,5.39-8.54,15.18-5.77,20.21A7.6,7.6,0,0,0,71.11,182c3,.34,8.1-.87,14.88-8.54,5.41-6.12,9.57-10.89,13.51-15.62a35.91,35.91,0,0,1,13.4-3.59,19.81,19.81,0,0,1-3.16,4.38l-.86.93,2.28,3.77,1.51-.9c1.12-.67,11.09-6.71,14.36-11.36a4.09,4.09,0,0,0,.06-5.09c-2.32-2.92-8.52-3-15.43-.25L108,147.17c2-2.71,3.85-5.29,5.5-7.79,22.79-3.87,38.63-5,44.13-4.42-.77.44-1.73.95-2.71,1.46-1.45.76-3.24,1.7-5.22,2.85h0a2.65,2.65,0,0,0-2.2.47c-.53.46-1.14,1-1.78,1.65l-4.45,4.24,2.12,2.76s2-.57,2.94-.92c5.75-2.06,24-9.27,33.93-14.6C181.67,132.09,186.12,129.69,185.3,126.4Z"/><path class="cls-1" d="M176.22,170.4a1.78,1.78,0,0,1-2.17.68,4.8,4.8,0,0,0,.55-3.24,2.05,2.05,0,0,0-1.87-1.62c.38-.17.79-.33.67-.75-.22-.74-1.57-.6-2.41-.58-4.12.15-9.52,3.81-9,7a4.14,4.14,0,0,1-2,.91,1.63,1.63,0,0,1-1.15-.65c-.55-1.89,3.9-4.41,3.59-5.48a7.08,7.08,0,0,0-1-1.49,1.74,1.74,0,0,0-1.69-.52c-1.66.15-4.48,2.09-8.56,6.18-1.1,1.1-1.61.91-1.79-.07s4-2.9,3.53-4c-.08-.17-.18-.56-2.45-1a1.45,1.45,0,0,0-1.36.33,8,8,0,0,0-2.24,5.93,3,3,0,0,1-1.83.73c-.61,0-1.25-.19-1.39-.65-.38-1.3,2.41-3.53,2.15-4.41-.17-.61-.65-.91-1.45-1.13.33-.08,1.25-.36,1.15-.69s-.33-1.37-4-1.31c-4.39.08-12.13,4.17-11.26,7.57A4.36,4.36,0,0,1,128,173c-1.82,0-1.49-1.32-1.31-2.06,2.68-2.68,4.61-3.39,4.29-4.76-.14-.61-1.15-.77-1.76-.77-2.06,0-5.34,3-5.58,6.32l-3.73,2.35s1.88-3.29,2.22-3.6c1.19-1.1,1.58-4-.44-3.89.18-.15,1-.18,1-.95s-1.57-1.08-4-1.08c-2.92,0-11.17,3.7-11.2,7.29a2.32,2.32,0,0,0,.11.61,2.46,2.46,0,0,1-1.19.32c-.62,0-1.26-.19-1.39-.65-.38-1.3,2.41-3.53,2.15-4.41-.18-.61-.65-.91-1.45-1.13.32-.08,1.24-.36,1.15-.69s-.33-1.37-4-1.31c-4.45.08-12.38,4.3-11.21,7.73a4.34,4.34,0,0,0,4.27,3.24c.89,0,6.58-4.57,6.58-4.57l.09.05a6,6,0,0,0-.52,3.08,2.18,2.18,0,0,0,2.28,1.45c1,0,2.39-1,3.65-2.11a4,4,0,0,0,3.46,2.1c.9,0,7.39-4,7.39-4l-1.78,4c-4.32,3.61-4.87,3.8-3.12,6.2,1.19,1.63,2.22-.28,5.18-5.18l4.54-3.66a3.12,3.12,0,0,0,3,2.64,6.46,6.46,0,0,0,4.14-2.11,4.11,4.11,0,0,0,3.76,2.11c.89,0,6.57-4.57,6.57-4.57l.1.05a6,6,0,0,0-.53,3.08,2.19,2.19,0,0,0,2.29,1.45c1.11,0,2.69-1.21,4.05-2.48.34,1,1.27,2.59,2.92,2.59,1,0,2.07-1.35,2.49-1.87a29.57,29.57,0,0,1,5.77-5.61l.1.06c-.87,1.26-3.05,3.7-2.57,5.35a2.11,2.11,0,0,0,2.27,1.72c1.55,0,3.13-1.13,4.35-2.28a5.49,5.49,0,0,0,5,2.51c1.87,0,4-1.36,5.33-2.57a3.5,3.5,0,0,0,3.77-2.39Zm-80.14,2.66a1,1,0,0,1-1-.6c-.41-1.47-.51-3.29,8.36-5.48C103.48,167,96.85,172.94,96.08,173.06Zm16,0a1,1,0,0,1-1-.6c-.41-1.47-.51-3.29,8.36-5.48C119.45,167,112.82,173,112.05,173.09Zm22.73,0a1,1,0,0,1-1-.6c-.41-1.47-.52-3.29,8.36-5.48C142.18,167,135.54,172.94,134.78,173.06ZM165.67,172c-1.21-1.77.3-3.69,4.2-4.53-.28.91-.89,2.09-.49,3.19a3.7,3.7,0,0,0,.94,1.29C168.85,173.21,166.59,173.35,165.67,172Z"/><path class="cls-1" d="M130.44,164.46a2.07,2.07,0,0,0,2.06-2.53,1.46,1.46,0,0,0-1.44-.81c-1.38,0-2.77,1.09-2.42,2.21A1.79,1.79,0,0,0,130.44,164.46Z"/><path class="cls-1" d="M103.18,193.34a1.9,1.9,0,0,1-.47,1.46,2.68,2.68,0,0,1-1.95.63c-2,0-2.48-1-2.48-2.09v-5a2.16,2.16,0,0,1,.46-1.52,2.72,2.72,0,0,1,2-.67,2.86,2.86,0,0,1,1.84.55,1.91,1.91,0,0,1,.59,1.68Zm-1.64-4.81c0-.46,0-1.1-.79-1.1s-.84.68-.84,1.17v4.47c0,.5,0,1.08.83,1.08s.8-.62.8-1.05Z"/><path class="cls-1" d="M105.44,186.37h1.66v3.46l1.77-3.46h1.67l-2,3.83,2.07,5h-1.77l-1.73-4.33v4.33h-1.66Z"/><path class="cls-1" d="M113.56,186.37h1.87l1.65,8.87h-1.65l-.22-1.45h-1.5l-.24,1.45h-1.63Zm.35,6.06H115l-.54-3.81Z"/><path class="cls-1" d="M117.6,186.37h1.72l.89,4.47.87-4.47h1.72L121,192.61v2.63h-1.66v-2.73Z"/><path class="cls-1" d="M125,186.37h1.87l1.66,8.87H126.9l-.21-1.45h-1.51l-.23,1.45h-1.64Zm.35,6.06h1.13l-.54-3.81Z"/><path class="cls-1" d="M130.19,186.37h2.65l1,6.21,1-6.21h2.63v8.87h-1.62l.15-7.69-1.43,7.69h-1.53l-1.46-7.69.13,7.69h-1.61Z"/><path class="cls-1" d="M140.93,186.37h1.87l1.66,8.87H142.8l-.21-1.45h-1.51l-.23,1.45h-1.64Zm.36,6.06h1.13l-.54-3.81Z"/><path class="cls-2" d="M126.8,81.39c0-.38-.09-.77-.13-1.16-1.2-3.58-2.06-4.3-.31-6.9a21.5,21.5,0,0,0-.36-4.42l-2-3.82-.81.85a21.72,21.72,0,0,0,.43-3.38c0-.53-3.78-11.28-3.78-11.28l-.41.94-.65-2.29-4.5-8.84L114,42.33l-.91-2.62-5.19-7.4-.21,1-1-2.63-4.35-4.88-3.48-3.91,1.59,5a129.55,129.55,0,0,1,2.9,14.23A106,106,0,0,1,104,57.39c-.14,1.12-.3,2.23-.5,3.41-.64,3.94-.43,4.47,1,7,.24.43.51.91.81,1.49,0,.65,0,20.13-.15,21.38,4.54,2.53,10.13,3.92,13.66,5.05C122.46,90.14,126.24,84,126.8,81.39Z"/><path class="cls-1" d="M105.9,61.51l-.14-.15a94.58,94.58,0,0,0-.07-16,96.3,96.3,0,0,0-2.54-15.59c.33.37,1.18,1.43,1.5,1.81a26.38,26.38,0,0,1,1.78,4.59,119.76,119.76,0,0,1,2.32,18.12C108.84,56.56,107.12,59.73,105.9,61.51Z"/><path class="cls-1" d="M109.26,66.26l-.11-.15a77.79,77.79,0,0,0,1-14.46,86,86,0,0,0-1.5-15.21c.33.42,1.18,1.72,1.5,2.15a26.82,26.82,0,0,1,1.6,4.94,107,107,0,0,1,.93,17.23C112.64,62.78,110.64,65.06,109.26,66.26Z"/><path class="cls-1" d="M115.8,69.35A7.52,7.52,0,0,1,112.2,72l-.1-.17c2-6,3.19-18.76,2.39-26.29l1.24,2a26.84,26.84,0,0,1,1.32,5.27,97.74,97.74,0,0,1-.81,15C116.1,68.27,116,68.81,115.8,69.35Z"/><path class="cls-1" d="M119.61,55.72l.73,1.54a31.79,31.79,0,0,1,1.35,6.07c-.46,4.19-1.85,8.75-3,13.12-.12.23-.24.45-.35.68-.89,1-2.79,1.13-3.84,1.11a1.86,1.86,0,0,0-.1-.2C116.77,73.46,119.37,62.67,119.61,55.72Z"/><path class="cls-1" d="M117.61,89.55a1.24,1.24,0,0,1,0,.16,10.18,10.18,0,0,0,1.89,1.46,58.16,58.16,0,0,0,5.21-9.26C122.87,84.92,119.8,88.56,117.61,89.55Z"/><path class="cls-1" d="M124.38,73.1a25.46,25.46,0,0,0-.15-3.36c-.14-.48-.45-.94-.58-1.43-1.47,5.42-5,12.83-7.6,15.54a1.83,1.83,0,0,0,.08.25c1.42.71,3.44,1.38,4,.43,1.25-2.57,2.53-5.28,3.55-7.9A5,5,0,0,1,124.38,73.1Z"/><path class="cls-1" d="M174.12,124c-9.08-.06-33.29,3.37-59.14,9,4.13-6.48,7.73-12.82,11.12-19.15a1.29,1.29,0,0,1,.25-.12c2.88.18,9.31,2.59,13,3,1.55-.34,16-11,16.73-11.45a26.46,26.46,0,0,0,5.65-6.92c.53-1.37,1.82-5,2-5.48l-12,7.69s8.77-7,12.47-10.17c1.78-1.57,5.52-7.57,5.86-9.8.23-1.78.44-6.65.47-7.15l-.92,1.07a95.61,95.61,0,0,1-12.3,11.46l10.3-11.06c1.68-2.15,3.87-9.9,3.56-12.12-.3-1.74-.83-5.21-.93-5.62l-.71,1.3c-1.64,3-8,10.47-10.52,13.11L166.77,60C168.24,57.3,169,49.84,168.33,48c-.63-1.52-2.28-5.13-2.44-5.47-.16.48-.33.94-.5,1.43-1.41,3.91-5.1,10.61-10.08,17.68,3.07-5.41,7.34-15,7.34-15,1.07-2.84.64-9.95-.28-11.47-.85-1.27-2.91-4.24-3.1-4.52L159,32.24c-.92,4.2-3.27,10.15-7.89,18.47L156.46,36c.75-2.92-.35-9.41-1.36-10.69a40,40,0,0,0-3.3-5c-.07.56-.32,2.35-.4,2.91a82,82,0,0,1-5.83,18.69,151.57,151.57,0,0,1-12.35,23c-1.23,1.53-2.54,3.12-4.06,4.91-5.31,6.25-4,5.59-2.29,11.08-.06,2.22-4.13,8.86-8.13,14.81C113,93.85,102,91.36,98.62,84.46c-.19-.4-.36-.77-.49-1.11a4.72,4.72,0,0,0,.91-1,4.17,4.17,0,0,1,2.83-1.9l.46,0c-1-3-3.21-2.23-5-2.47a4.82,4.82,0,0,0-1-.62c-3.73-1.91-7.09-2.78-8.76.35-1,1.84-6.18-.35-6.63,4.11,0,0,2.58-1.93,5-.5,2.65,1.55,3.48,1.87,3.36,2.26A16.33,16.33,0,0,1,88,85.27c-2,1.86-3.53,1.1-3.53,1.1C85.25,88,86.6,88.13,88,88c-.53,3.52,1.22,4.4,5.17,3.41,0,0,3.52,9,2.54,14.18-5.19,27.7,15.84,20.6,13.78,28.55-17.83,4-36,9-50.13,14.6l-.41,1.3a442.22,442.22,0,0,1,48-11.4c-11.4,15.16-24.48,26.16-29.36,28.81-6.3,3.43-8-.93-4.58-7.35l-.7-1.19c-4.56,4.92-7.81,13.88-5.51,18.07,2.71,4.92,9.38,4.72,17.78-4.79,4.88-5.53,9.48-10.77,13.71-15.86,5.39-3,13.86-4.46,15.82-3.81,2.86.95-3,7.31-3,7.31s.63,1,.63,1c3.16-1.89,11.17-7.1,13.8-10.84,2.5-3.56-3.26-6.55-13.17-2.57-3.06,1.23-7.34,2.9-10.08,4.11,3.72-4.67,7.11-9.24,10.08-13.81,28.33-4.87,50.87-6.23,48.34-2.82-1.1,1.5-5,3-10.49,6.2-.31.18-1.31-.16-1.56.06-1.41,1.22-3.73,3.65-5,4.4l.58.68c.56-.08,23.39-8.68,35.09-15C188.08,126.55,181.69,124,174.12,124Z"/><path class="cls-4" d="M131.89,70.48l-.2-.2c1.48-2,3-3.76,4.54-6.23A175.46,175.46,0,0,0,149.92,36,74,74,0,0,0,153,25c.45.52.71,1.38,1.16,1.91s1,6.82.66,8.19A192.69,192.69,0,0,1,144.5,60.41C142.86,63.48,136.21,68,131.89,70.48Z"/><path class="cls-4" d="M136,77c-.05-.07-.1-.15-.15-.21,8.06-9.32,20.86-30.63,24.19-41.41.4.59.6,1.71,1,2.31s.64,6.21.1,7.69a153.09,153.09,0,0,1-12.58,23.86C146.67,72,140.16,75.26,136,77Z"/><path class="cls-4" d="M148.77,81c-3,1.92-7.55,2.71-10.14,3.28l-.1-.23c9.45-8.57,22.5-26,27.4-36.44.28.67.37,1.85.65,2.52s-.38,6.58-1.15,8a175.12,175.12,0,0,1-14.32,20.54C150.33,79.52,149.56,80.26,148.77,81Z"/><path class="cls-4" d="M169.08,61.73c.13.72.07,1.94.19,2.65s-1.58,7-2.63,8.37c-4.52,5.66-10.66,11.73-16.79,17.82l-1.35.94c-2.82,1.39-6.3,1.37-8.74,1.41,0-.1,0-.19-.07-.29C147.9,88.09,162.54,71.17,169.08,61.73Z"/><path class="cls-4" d="M168.57,78.12s-.5,2.54-.58,3.19a30.23,30.23,0,0,1-4.16,7.13c-4.89,4.25-11.71,9.8-17.1,12.81-1.46,1-7.46,1.71-10.47,1.43,0-.12,0-.23,0-.35C144.61,98.25,156.24,89.51,168.57,78.12Z"/><path class="cls-4" d="M132.77,110.92c0-.08,0-.14,0-.23,6.27-1.75,21.31-9.18,27.86-13.51-.13.38-.27.74-.4,1.12a27.1,27.1,0,0,1-4.08,5c-3.88,2.53-9.25,5.67-13.79,8.4C141.14,112.4,135.78,111.87,132.77,110.92Z"/></svg>
