<svg id="Layer_1" data-name="Layer 1" width="240" height="240" xmlns="http://www.w3.org/2000/svg" viewBox="0 0 240 240"><defs><style>.cls-1{fill:#b8a875;}.cls-2{fill:#fff;}.cls-3{fill:#00692f;}</style></defs><path class="cls-1" d="M104,52.18c-2.17-.85-3.69-3-3.69-6.08v-3H96.63v3.09a9.46,9.46,0,0,0,6.59,9.39,6.08,6.08,0,0,1-5.48,2.93H96.63v3.47h1.16c5.78,0,9.8-4,9.8-9.44V43.06H104Z"/><polygon class="cls-1" points="91.74 43.06 87.81 51.2 87.81 43.06 84.17 43.06 84.17 61.94 87.81 61.94 87.81 53.86 91.5 53.86 91.5 61.94 95.14 61.94 95.14 50.68 91.69 50.68 95.68 43.06 91.74 43.06"/><polygon class="cls-1" points="60.14 46.59 63.8 46.59 63.8 61.94 67.44 61.94 67.44 46.59 71.07 46.59 71.07 43.06 60.14 43.06 60.14 46.59"/><path class="cls-1" d="M79,56.76a1.85,1.85,0,1,1-3.69,0V48.24a1.85,1.85,0,1,1,3.69,0Zm-1.84-14a5.29,5.29,0,0,0-5.48,5.48v8.62a5.48,5.48,0,1,0,11,0V48.19a5.3,5.3,0,0,0-5.48-5.48"/><path class="cls-1" d="M116.43,56.76a1.85,1.85,0,1,1-3.69,0V48.24a1.85,1.85,0,1,1,3.69,0Zm-1.84-14a5.3,5.3,0,0,0-5.48,5.48v8.62a5.48,5.48,0,1,0,11,0V48.19a5.3,5.3,0,0,0-5.48-5.48"/><path class="cls-2" d="M178.4,52.47a8,8,0,0,1-8.14,8v-.76a7.28,7.28,0,0,0,7.11-5.15,8.25,8.25,0,0,1-7-8.44V44.39h.7v1.76a7.62,7.62,0,0,0,6.43,7.79,5.3,5.3,0,0,0,.19-1.47V44.39h.71Zm-2.17-9.41v9.11c-2.17-.84-3.69-3-3.69-6.07v-3H168.9v3.09a9.46,9.46,0,0,0,6.6,9.39A6.11,6.11,0,0,1,170,58.47H168.9v3.47h1.17c5.78,0,9.79-4,9.79-9.44V43.06Z"/><path class="cls-2" d="M152.9,44.69v.68c-3.42.62-6,3.63-6,7.94V60.5h-.71V53.31c0-4.72,2.88-8,6.71-8.62m-8.17,8.62v8.63h3.63V53.31c0-4,2.64-6.62,5.86-6.62V43.06c-5.23,0-9.49,4.18-9.49,10.25"/><path class="cls-2" d="M159.14,58.25V46.69a5.78,5.78,0,1,1,0,11.56m0-13h-1.47V59.77h1.47a7.29,7.29,0,1,0,0-14.57"/><path class="cls-2" d="M142.1,45.15a7.35,7.35,0,0,0-7.44,6.94h6v.68h-6a7.45,7.45,0,0,0,7.44,7.08v.65a8,8,0,1,1,0-16Zm-9.61,7.32a9.44,9.44,0,0,0,9.5,9.47h1.46V58.42H142a6.05,6.05,0,0,1-5.56-4.21H142V50.66h-5.56A5.93,5.93,0,0,1,142,46.59h1.46V43.06H142a9.42,9.42,0,0,0-9.5,9.41"/><path class="cls-2" d="M159.14,60.42H157V44.55h2.18a7.94,7.94,0,1,1,0,15.87m0-17.36H155.5V61.94h3.64a9.44,9.44,0,1,0,0-18.88"/><path class="cls-2" d="M127.53,60.5h-1l-3.85-16.11h.73L127,59.61l3.61-15.22h.73Zm1.84-17.44L127,54.43l-2.33-11.37h-3.78l4.48,18.88h3.18l4.53-18.88Z"/><path class="cls-1" d="M120.26,197.29c-25.31-10-60.12-31.11-60.12-68.56V66.27H179.86v62.46c0,37.45-34.81,58.54-59.6,68.56"/><path class="cls-3" d="M112.87,93.12h9.19l-5.87,3.65Zm56,13.31a4.53,4.53,0,0,0,4.53-4.53H157.83c-.07-.69-.14-1.38-.24-2.06l10.89-1.92a4.54,4.54,0,0,0,3.68-5.25L156.65,95.4c-.18-.66-.37-1.31-.58-2l10.59-3.86a4.54,4.54,0,0,0,2.71-5.81h0l-15,5.45c-.26-.62-.55-1.22-.84-1.82l9.86-5.7a4.53,4.53,0,0,0,1.66-6.19l-1,.55L140.23,89.86a24.61,24.61,0,0,1-3,31.77L124.84,91.9a3.21,3.21,0,0,0-3-2.22h-5.76a3.55,3.55,0,0,0-2.21.78l-8.65,5.65A2.46,2.46,0,0,0,104,98v1.33h11.07l-12.32,22.31a24.63,24.63,0,0,1-3-31.77L75.88,76.07l-1-.55a4.53,4.53,0,0,0,1.66,6.19l9.86,5.7c-.29.6-.58,1.2-.84,1.82l-15-5.45h0a4.54,4.54,0,0,0,2.71,5.81l10.59,3.86c-.21.64-.4,1.29-.58,2L67.84,92.67a4.54,4.54,0,0,0,3.68,5.25l10.89,1.92c-.1.68-.18,1.37-.24,2.06H66.64a4.53,4.53,0,0,0,4.53,4.53H82c0,.71,0,1.41.11,2.11L67.06,111.2h0a4.52,4.52,0,0,0,5.25,3.67L82.77,113c.14.71.31,1.4.49,2.09l-14.18,5.16h0a4.53,4.53,0,0,0,5.81,2.7l9.79-3.56q.41,1,.87,2l-12.9,7.44h0a4.54,4.54,0,0,0,6.2,1.66l8.85-5.11c.39.63.8,1.24,1.23,1.85l-11.26,9.45h0a4.52,4.52,0,0,0,6.38.56l7.7-6.47c.5.56,1,1.1,1.56,1.63L84,143.58a4.54,4.54,0,0,0,6.39-.55l6.37-7.59c.6.46,1.21.91,1.83,1.34l-7.19,12.46h0a4.52,4.52,0,0,0,6.19-1.66l4.89-8.47c.68.36,1.37.69,2.08,1l-8.89,24.44a4.53,4.53,0,0,0,5.81-2.71l7.32-20.12c.71.22,1.44.42,2.17.6l-6.19,35.07h0a4.53,4.53,0,0,0,5.25-3.67l5.43-30.59c.76.09,1.53.16,2.3.21v43.09a4.56,4.56,0,0,0,2.27,3.93,4.56,4.56,0,0,0,2.27-3.93V143.34c.77-.05,1.54-.12,2.3-.21L130,173.72a4.53,4.53,0,0,0,5.25,3.67h0l-6.19-35.07c.73-.18,1.46-.38,2.17-.6l7.32,20.12a4.53,4.53,0,0,0,5.81,2.71l-8.89-24.44c.71-.31,1.4-.64,2.08-1l4.89,8.47a4.52,4.52,0,0,0,6.19,1.66h0l-7.19-12.46c.62-.43,1.23-.88,1.83-1.34l6.37,7.59a4.54,4.54,0,0,0,6.39.55h0l-9.35-11.13c.54-.53,1.06-1.07,1.56-1.63l7.7,6.47a4.52,4.52,0,0,0,6.38-.56h0l-11.26-9.45c.43-.61.84-1.22,1.23-1.85l8.85,5.11a4.54,4.54,0,0,0,6.2-1.66h0l-12.9-7.44q.47-1,.87-2l9.79,3.56a4.53,4.53,0,0,0,5.81-2.7h0l-14.18-5.16c.18-.69.35-1.38.49-2.09l10.46,1.84a4.52,4.52,0,0,0,5.25-3.67h0l-15.08-2.66c0-.7.09-1.4.11-2.11Z"/></svg>
